<?xml version="1.0" encoding="us-ascii" standalone="no"?><svg xmlns="http://www.w3.org/2000/svg" xmlns:xlink="http://www.w3.org/1999/xlink" contentStyleType="text/css" height="903px" preserveAspectRatio="none" style="width:934px;height:903px;background:#FFFFFF;" version="1.1" viewBox="0 0 934 903" width="934px" zoomAndPan="magnify"><defs/><g><rect fill="none" height="174.4688" style="stroke:#000000;stroke-width:1.5;" width="682.5" x="168" y="98.2969"/><rect fill="none" height="521.6016" style="stroke:#000000;stroke-width:1.5;" width="917" x="10" y="358.0313"/><rect fill="none" height="274.8672" style="stroke:#000000;stroke-width:1.5;" width="741" x="168" y="597.7656"/><line style="stroke:#181818;stroke-width:0.5;stroke-dasharray:5.0,5.0;" x1="47" x2="47" y1="81.2969" y2="896.6328"/><line style="stroke:#181818;stroke-width:0.5;stroke-dasharray:5.0,5.0;" x1="275" x2="275" y1="81.2969" y2="896.6328"/><line style="stroke:#181818;stroke-width:0.5;stroke-dasharray:5.0,5.0;" x1="536" x2="536" y1="81.2969" y2="896.6328"/><line style="stroke:#181818;stroke-width:0.5;stroke-dasharray:5.0,5.0;" x1="800.5" x2="800.5" y1="81.2969" y2="896.6328"/><text fill="#000000" font-family="sans-serif" font-size="14" lengthAdjust="spacing" textLength="48" x="20" y="77.9951">Parent</text><ellipse cx="47" cy="13.5" fill="#E2E2F0" rx="8" ry="8" style="stroke:#181818;stroke-width:0.5;"/><path d="M47,21.5 L47,48.5 M34,29.5 L60,29.5 M47,48.5 L34,63.5 M47,48.5 L60,63.5 " fill="none" style="stroke:#181818;stroke-width:0.5;"/><text fill="#000000" font-family="sans-serif" font-size="14" lengthAdjust="spacing" textLength="188" x="178" y="77.9951">MealTimeInformationView</text><path d="M254.5,37 L254.5,61 M254.5,49 L271.5,49 " fill="none" style="stroke:#181818;stroke-width:0.5;"/><ellipse cx="283.5" cy="49" fill="#E2E2F0" rx="12" ry="12" style="stroke:#181818;stroke-width:0.5;"/><text fill="#000000" font-family="sans-serif" font-size="14" lengthAdjust="spacing" textLength="142" x="462" y="77.9951">MealTimeController</text><ellipse cx="536" cy="49" fill="#E2E2F0" rx="12" ry="12" style="stroke:#181818;stroke-width:0.5;"/><polygon fill="#181818" points="532,37,538,32,536,37,538,42,532,37" style="stroke:#181818;stroke-width:1.0;"/><text fill="#000000" font-family="sans-serif" font-size="14" lengthAdjust="spacing" textLength="73" x="761.5" y="77.9951">MEALTIME</text><ellipse cx="801" cy="49" fill="#E2E2F0" rx="12" ry="12" style="stroke:#181818;stroke-width:0.5;"/><line style="stroke:#181818;stroke-width:0.5;" x1="789" x2="813" y1="63" y2="63"/><path d="M168,98.2969 L234,98.2969 L234,105.4297 L224,115.4297 L168,115.4297 L168,98.2969 " fill="#EEEEEE" style="stroke:#000000;stroke-width:1.5;"/><rect fill="none" height="174.4688" style="stroke:#000000;stroke-width:1.5;" width="682.5" x="168" y="98.2969"/><text fill="#000000" font-family="sans-serif" font-size="13" font-weight="bold" lengthAdjust="spacing" textLength="21" x="183" y="111.3638">alt</text><text fill="#000000" font-family="sans-serif" font-size="11" font-weight="bold" lengthAdjust="spacing" textLength="76" x="249" y="110.5073">[First time]</text><line style="stroke:#181818;stroke-width:1.0;" x1="275" x2="317" y1="136.5625" y2="136.5625"/><line style="stroke:#181818;stroke-width:1.0;" x1="317" x2="317" y1="136.5625" y2="149.5625"/><line style="stroke:#181818;stroke-width:1.0;" x1="276" x2="317" y1="149.5625" y2="149.5625"/><polygon fill="#181818" points="286,145.5625,276,149.5625,286,153.5625,282,149.5625" style="stroke:#181818;stroke-width:1.0;"/><text fill="#000000" font-family="sans-serif" font-size="13" font-weight="bold" lengthAdjust="spacing" textLength="9" x="282" y="131.4966">1</text><text fill="#000000" font-family="sans-serif" font-size="13" lengthAdjust="spacing" textLength="202" x="295" y="131.4966">Display with empty information</text><line style="stroke:#000000;stroke-width:1.0;stroke-dasharray:2.0,2.0;" x1="168" x2="850.5" y1="158.5625" y2="158.5625"/><text fill="#000000" font-family="sans-serif" font-size="11" font-weight="bold" lengthAdjust="spacing" textLength="58" x="173" y="168.7729">[Update]</text><polygon fill="#181818" points="789,189.5,799,193.5,789,197.5,793,193.5" style="stroke:#181818;stroke-width:1.0;"/><line style="stroke:#181818;stroke-width:1.0;" x1="536" x2="795" y1="193.5" y2="193.5"/><text fill="#000000" font-family="sans-serif" font-size="13" font-weight="bold" lengthAdjust="spacing" textLength="9" x="543" y="188.4341">2</text><text fill="#000000" font-family="sans-serif" font-size="13" lengthAdjust="spacing" textLength="228" x="556" y="188.4341">Get selected meal time information</text><polygon fill="#181818" points="286,218.6328,276,222.6328,286,226.6328,282,222.6328" style="stroke:#181818;stroke-width:1.0;"/><line style="stroke:#181818;stroke-width:1.0;stroke-dasharray:2.0,2.0;" x1="280" x2="800" y1="222.6328" y2="222.6328"/><text fill="#000000" font-family="sans-serif" font-size="13" font-weight="bold" lengthAdjust="spacing" textLength="8" x="292" y="217.5669">3</text><text fill="#000000" font-family="sans-serif" font-size="13" lengthAdjust="spacing" textLength="202" x="304" y="217.5669">Selected meal time information</text><line style="stroke:#181818;stroke-width:1.0;" x1="275" x2="317" y1="251.7656" y2="251.7656"/><line style="stroke:#181818;stroke-width:1.0;" x1="317" x2="317" y1="251.7656" y2="264.7656"/><line style="stroke:#181818;stroke-width:1.0;" x1="276" x2="317" y1="264.7656" y2="264.7656"/><polygon fill="#181818" points="286,260.7656,276,264.7656,286,268.7656,282,264.7656" style="stroke:#181818;stroke-width:1.0;"/><text fill="#000000" font-family="sans-serif" font-size="13" font-weight="bold" lengthAdjust="spacing" textLength="9" x="282" y="246.6997">4</text><text fill="#000000" font-family="sans-serif" font-size="13" lengthAdjust="spacing" textLength="194" x="295" y="246.6997">Display meal time information</text><polygon fill="#181818" points="263,296.8984,273,300.8984,263,304.8984,267,300.8984" style="stroke:#181818;stroke-width:1.0;"/><line style="stroke:#181818;stroke-width:1.0;" x1="47" x2="269" y1="300.8984" y2="300.8984"/><text fill="#000000" font-family="sans-serif" font-size="13" font-weight="bold" lengthAdjust="spacing" textLength="9" x="54" y="295.8325">5</text><text fill="#000000" font-family="sans-serif" font-size="13" lengthAdjust="spacing" textLength="181" x="67" y="295.8325">Enter meal time information</text><line style="stroke:#181818;stroke-width:1.0;" x1="275" x2="317" y1="330.0313" y2="330.0313"/><line style="stroke:#181818;stroke-width:1.0;" x1="317" x2="317" y1="330.0313" y2="343.0313"/><line style="stroke:#181818;stroke-width:1.0;" x1="276" x2="317" y1="343.0313" y2="343.0313"/><polygon fill="#181818" points="286,339.0313,276,343.0313,286,347.0313,282,343.0313" style="stroke:#181818;stroke-width:1.0;"/><text fill="#000000" font-family="sans-serif" font-size="13" font-weight="bold" lengthAdjust="spacing" textLength="9" x="282" y="324.9653">6</text><text fill="#000000" font-family="sans-serif" font-size="13" lengthAdjust="spacing" textLength="85" x="295" y="324.9653">Validate data</text><path d="M10,358.0313 L76,358.0313 L76,365.1641 L66,375.1641 L10,375.1641 L10,358.0313 " fill="#EEEEEE" style="stroke:#000000;stroke-width:1.5;"/><rect fill="none" height="521.6016" style="stroke:#000000;stroke-width:1.5;" width="917" x="10" y="358.0313"/><text fill="#000000" font-family="sans-serif" font-size="13" font-weight="bold" lengthAdjust="spacing" textLength="21" x="25" y="371.0981">alt</text><text fill="#000000" font-family="sans-serif" font-size="11" font-weight="bold" lengthAdjust="spacing" textLength="88" x="91" y="370.2417">[Invalid data]</text><polygon fill="#181818" points="58,392.2969,48,396.2969,58,400.2969,54,396.2969" style="stroke:#181818;stroke-width:1.0;"/><line style="stroke:#181818;stroke-width:1.0;stroke-dasharray:2.0,2.0;" x1="52" x2="274" y1="396.2969" y2="396.2969"/><text fill="#000000" font-family="sans-serif" font-size="13" font-weight="bold" lengthAdjust="spacing" textLength="9" x="64" y="391.231">7</text><text fill="#000000" font-family="sans-serif" font-size="13" lengthAdjust="spacing" textLength="106" x="77" y="391.231">Error notification</text><line style="stroke:#181818;stroke-width:1.0;" x1="275" x2="317" y1="425.4297" y2="425.4297"/><line style="stroke:#181818;stroke-width:1.0;" x1="317" x2="317" y1="425.4297" y2="438.4297"/><line style="stroke:#181818;stroke-width:1.0;" x1="276" x2="317" y1="438.4297" y2="438.4297"/><polygon fill="#181818" points="286,434.4297,276,438.4297,286,442.4297,282,438.4297" style="stroke:#181818;stroke-width:1.0;"/><text fill="#000000" font-family="sans-serif" font-size="13" font-weight="bold" lengthAdjust="spacing" textLength="9" x="282" y="420.3638">8</text><text fill="#000000" font-family="sans-serif" font-size="13" lengthAdjust="spacing" textLength="157" x="295" y="420.3638">Display error notification</text><line style="stroke:#000000;stroke-width:1.0;stroke-dasharray:2.0,2.0;" x1="10" x2="927" y1="447.4297" y2="447.4297"/><text fill="#000000" font-family="sans-serif" font-size="11" font-weight="bold" lengthAdjust="spacing" textLength="78" x="15" y="457.6401">[Valid data]</text><polygon fill="#181818" points="263,478.3672,273,482.3672,263,486.3672,267,482.3672" style="stroke:#181818;stroke-width:1.0;"/><line style="stroke:#181818;stroke-width:1.0;" x1="47" x2="269" y1="482.3672" y2="482.3672"/><text fill="#000000" font-family="sans-serif" font-size="13" font-weight="bold" lengthAdjust="spacing" textLength="9" x="54" y="477.3013">9</text><text fill="#000000" font-family="sans-serif" font-size="13" lengthAdjust="spacing" textLength="191" x="67" y="477.3013">Click button "Save" to confirm</text><polygon fill="#181818" points="524,507.5,534,511.5,524,515.5,528,511.5" style="stroke:#181818;stroke-width:1.0;"/><line style="stroke:#181818;stroke-width:1.0;" x1="275" x2="530" y1="511.5" y2="511.5"/><text fill="#000000" font-family="sans-serif" font-size="13" font-weight="bold" lengthAdjust="spacing" textLength="19" x="282" y="506.4341">10</text><text fill="#000000" font-family="sans-serif" font-size="13" lengthAdjust="spacing" textLength="214" x="305" y="506.4341">Send updating meal time request</text><polygon fill="#181818" points="789,536.6328,799,540.6328,789,544.6328,793,540.6328" style="stroke:#181818;stroke-width:1.0;"/><line style="stroke:#181818;stroke-width:1.0;" x1="536" x2="795" y1="540.6328" y2="540.6328"/><text fill="#000000" font-family="sans-serif" font-size="13" font-weight="bold" lengthAdjust="spacing" textLength="18" x="543" y="535.5669">11</text><text fill="#000000" font-family="sans-serif" font-size="13" lengthAdjust="spacing" textLength="110" x="565" y="535.5669">Send information</text><line style="stroke:#181818;stroke-width:1.0;" x1="801" x2="843" y1="569.7656" y2="569.7656"/><line style="stroke:#181818;stroke-width:1.0;" x1="843" x2="843" y1="569.7656" y2="582.7656"/><line style="stroke:#181818;stroke-width:1.0;" x1="802" x2="843" y1="582.7656" y2="582.7656"/><polygon fill="#181818" points="812,578.7656,802,582.7656,812,586.7656,808,582.7656" style="stroke:#181818;stroke-width:1.0;"/><text fill="#000000" font-family="sans-serif" font-size="13" font-weight="bold" lengthAdjust="spacing" textLength="18" x="808" y="564.6997">12</text><text fill="#000000" font-family="sans-serif" font-size="13" lengthAdjust="spacing" textLength="85" x="830" y="564.6997">Validate data</text><path d="M168,597.7656 L234,597.7656 L234,604.8984 L224,614.8984 L168,614.8984 L168,597.7656 " fill="#EEEEEE" style="stroke:#000000;stroke-width:1.5;"/><rect fill="none" height="274.8672" style="stroke:#000000;stroke-width:1.5;" width="741" x="168" y="597.7656"/><text fill="#000000" font-family="sans-serif" font-size="13" font-weight="bold" lengthAdjust="spacing" textLength="21" x="183" y="610.8325">alt</text><text fill="#000000" font-family="sans-serif" font-size="11" font-weight="bold" lengthAdjust="spacing" textLength="88" x="249" y="609.9761">[Invalid data]</text><polygon fill="#181818" points="547,632.0313,537,636.0313,547,640.0313,543,636.0313" style="stroke:#181818;stroke-width:1.0;"/><line style="stroke:#181818;stroke-width:1.0;stroke-dasharray:2.0,2.0;" x1="541" x2="800" y1="636.0313" y2="636.0313"/><text fill="#000000" font-family="sans-serif" font-size="13" font-weight="bold" lengthAdjust="spacing" textLength="17" x="553" y="630.9653">13</text><text fill="#000000" font-family="sans-serif" font-size="13" lengthAdjust="spacing" textLength="106" x="574" y="630.9653">Error notification</text><polygon fill="#181818" points="286,661.1641,276,665.1641,286,669.1641,282,665.1641" style="stroke:#181818;stroke-width:1.0;"/><line style="stroke:#181818;stroke-width:1.0;stroke-dasharray:2.0,2.0;" x1="280" x2="535" y1="665.1641" y2="665.1641"/><text fill="#000000" font-family="sans-serif" font-size="13" font-weight="bold" lengthAdjust="spacing" textLength="18" x="292" y="660.0981">14</text><text fill="#000000" font-family="sans-serif" font-size="13" lengthAdjust="spacing" textLength="106" x="314" y="660.0981">Error notification</text><line style="stroke:#181818;stroke-width:1.0;" x1="275" x2="317" y1="694.2969" y2="694.2969"/><line style="stroke:#181818;stroke-width:1.0;" x1="317" x2="317" y1="694.2969" y2="707.2969"/><line style="stroke:#181818;stroke-width:1.0;" x1="276" x2="317" y1="707.2969" y2="707.2969"/><polygon fill="#181818" points="286,703.2969,276,707.2969,286,711.2969,282,707.2969" style="stroke:#181818;stroke-width:1.0;"/><text fill="#000000" font-family="sans-serif" font-size="13" font-weight="bold" lengthAdjust="spacing" textLength="18" x="282" y="689.231">15</text><text fill="#000000" font-family="sans-serif" font-size="13" lengthAdjust="spacing" textLength="157" x="304" y="689.231">Display error notification</text><line style="stroke:#000000;stroke-width:1.0;stroke-dasharray:2.0,2.0;" x1="168" x2="909" y1="716.2969" y2="716.2969"/><text fill="#000000" font-family="sans-serif" font-size="11" font-weight="bold" lengthAdjust="spacing" textLength="78" x="173" y="726.5073">[Valid data]</text><line style="stroke:#181818;stroke-width:1.0;" x1="801" x2="843" y1="751.2344" y2="751.2344"/><line style="stroke:#181818;stroke-width:1.0;" x1="843" x2="843" y1="751.2344" y2="764.2344"/><line style="stroke:#181818;stroke-width:1.0;" x1="802" x2="843" y1="764.2344" y2="764.2344"/><polygon fill="#181818" points="812,760.2344,802,764.2344,812,768.2344,808,764.2344" style="stroke:#181818;stroke-width:1.0;"/><text fill="#000000" font-family="sans-serif" font-size="13" font-weight="bold" lengthAdjust="spacing" textLength="18" x="808" y="746.1685">16</text><text fill="#000000" font-family="sans-serif" font-size="13" lengthAdjust="spacing" textLength="67" x="830" y="746.1685">Store data</text><polygon fill="#181818" points="547,789.3672,537,793.3672,547,797.3672,543,793.3672" style="stroke:#181818;stroke-width:1.0;"/><line style="stroke:#181818;stroke-width:1.0;stroke-dasharray:2.0,2.0;" x1="541" x2="800" y1="793.3672" y2="793.3672"/><text fill="#000000" font-family="sans-serif" font-size="13" font-weight="bold" lengthAdjust="spacing" textLength="18" x="553" y="788.3013">17</text><text fill="#000000" font-family="sans-serif" font-size="13" lengthAdjust="spacing" textLength="127" x="575" y="788.3013">Success notification</text><polygon fill="#181818" points="286,818.5,276,822.5,286,826.5,282,822.5" style="stroke:#181818;stroke-width:1.0;"/><line style="stroke:#181818;stroke-width:1.0;stroke-dasharray:2.0,2.0;" x1="280" x2="535" y1="822.5" y2="822.5"/><text fill="#000000" font-family="sans-serif" font-size="13" font-weight="bold" lengthAdjust="spacing" textLength="18" x="292" y="817.4341">18</text><text fill="#000000" font-family="sans-serif" font-size="13" lengthAdjust="spacing" textLength="127" x="314" y="817.4341">Success notification</text><line style="stroke:#181818;stroke-width:1.0;" x1="275" x2="317" y1="851.6328" y2="851.6328"/><line style="stroke:#181818;stroke-width:1.0;" x1="317" x2="317" y1="851.6328" y2="864.6328"/><line style="stroke:#181818;stroke-width:1.0;" x1="276" x2="317" y1="864.6328" y2="864.6328"/><polygon fill="#181818" points="286,860.6328,276,864.6328,286,868.6328,282,864.6328" style="stroke:#181818;stroke-width:1.0;"/><text fill="#000000" font-family="sans-serif" font-size="13" font-weight="bold" lengthAdjust="spacing" textLength="18" x="282" y="846.5669">19</text><text fill="#000000" font-family="sans-serif" font-size="13" lengthAdjust="spacing" textLength="159" x="304" y="846.5669">Dislay update successful</text><!--SRC=[hPJHRe9044NV-Og9x_w03qqQQnkJcZJ1-hx0K2TTTktkhDQ_xm2cOifIR2M119WzNEwze09R4weCNRAb0g6qbZFxcIGgP-lWHJaqd6Gsc4Av8wnGwJLLk3IbTPLYicP3U4XoQzXP_Nr_tfvhmSfwObcvk7zUBrSB8Mk6HtAUWMKI4f0jmeNfNUpM31x8xxGwme5u2rZjv25qdabGUuJNNQ4OBnvnbjRGJx9cy8GC7ZNcZ0LKCjpAwo8Rp6a1J8UqfID0_tZbVYgQeY6teGs25eRb_NinyFT4DafJxJV8GJKvBys-ljPU6CGAjzKjufoJwXdBL59-6yFm9xBfn-PItGZdvfhoTyW2otS3arJjSG9iGJw0abmrLkYvX7LNJ06XBYgPjquc3Zy2UXvLteOHhsftz3AaUgutg6ZNkz8ZISKK3pRoTzIDWg-HVU77BKlbLuXNMfE6F4VlRsFEADYLzjJkDAr3y2s-3BerH_uZidy1]--></g></svg>