<?xml version="1.0" encoding="us-ascii" standalone="no"?><svg xmlns="http://www.w3.org/2000/svg" xmlns:xlink="http://www.w3.org/1999/xlink" contentStyleType="text/css" height="647px" preserveAspectRatio="none" style="width:930px;height:647px;background:#FFFFFF;" version="1.1" viewBox="0 0 930 647" width="930px" zoomAndPan="magnify"><defs/><g><rect fill="none" height="292.4609" style="stroke:#000000;stroke-width:1.5;" width="914" x="10" y="98.2969"/><line style="stroke:#181818;stroke-width:0.5;stroke-dasharray:5.0,5.0;" x1="47" x2="47" y1="81.2969" y2="640.9531"/><line style="stroke:#181818;stroke-width:0.5;stroke-dasharray:5.0,5.0;" x1="235.5" x2="235.5" y1="81.2969" y2="640.9531"/><line style="stroke:#181818;stroke-width:0.5;stroke-dasharray:5.0,5.0;" x1="424.5" x2="424.5" y1="81.2969" y2="640.9531"/><line style="stroke:#181818;stroke-width:0.5;stroke-dasharray:5.0,5.0;" x1="630" x2="630" y1="81.2969" y2="640.9531"/><line style="stroke:#181818;stroke-width:0.5;stroke-dasharray:5.0,5.0;" x1="819.5" x2="819.5" y1="81.2969" y2="640.9531"/><text fill="#000000" font-family="sans-serif" font-size="14" lengthAdjust="spacing" textLength="48" x="20" y="77.9951">Parent</text><ellipse cx="47" cy="13.5" fill="#E2E2F0" rx="8" ry="8" style="stroke:#181818;stroke-width:0.5;"/><path d="M47,21.5 L47,48.5 M34,29.5 L60,29.5 M47,48.5 L34,63.5 M47,48.5 L60,63.5 " fill="none" style="stroke:#181818;stroke-width:0.5;"/><text fill="#000000" font-family="sans-serif" font-size="14" lengthAdjust="spacing" textLength="69" x="198.5" y="61.6982">MealTime</text><text fill="#000000" font-family="sans-serif" font-size="14" lengthAdjust="spacing" textLength="85" x="190.5" y="77.9951">HistoryView</text><path d="M215.5,20.7031 L215.5,44.7031 M215.5,32.7031 L232.5,32.7031 " fill="none" style="stroke:#181818;stroke-width:0.5;"/><ellipse cx="244.5" cy="32.7031" fill="#E2E2F0" rx="12" ry="12" style="stroke:#181818;stroke-width:0.5;"/><text fill="#000000" font-family="sans-serif" font-size="14" lengthAdjust="spacing" textLength="69" x="387.5" y="61.6982">MealTime</text><text fill="#000000" font-family="sans-serif" font-size="14" lengthAdjust="spacing" textLength="119" x="362.5" y="77.9951">InformationView</text><path d="M404.5,20.7031 L404.5,44.7031 M404.5,32.7031 L421.5,32.7031 " fill="none" style="stroke:#181818;stroke-width:0.5;"/><ellipse cx="433.5" cy="32.7031" fill="#E2E2F0" rx="12" ry="12" style="stroke:#181818;stroke-width:0.5;"/><text fill="#000000" font-family="sans-serif" font-size="14" lengthAdjust="spacing" textLength="142" x="556" y="77.9951">MealTimeController</text><ellipse cx="630" cy="49" fill="#E2E2F0" rx="12" ry="12" style="stroke:#181818;stroke-width:0.5;"/><polygon fill="#181818" points="626,37,632,32,630,37,632,42,626,37" style="stroke:#181818;stroke-width:1.0;"/><text fill="#000000" font-family="sans-serif" font-size="14" lengthAdjust="spacing" textLength="73" x="780.5" y="77.9951">MEALTIME</text><ellipse cx="820" cy="49" fill="#E2E2F0" rx="12" ry="12" style="stroke:#181818;stroke-width:0.5;"/><line style="stroke:#181818;stroke-width:0.5;" x1="808" x2="832" y1="63" y2="63"/><path d="M10,98.2969 L82,98.2969 L82,105.4297 L72,115.4297 L10,115.4297 L10,98.2969 " fill="#EEEEEE" style="stroke:#000000;stroke-width:1.5;"/><rect fill="none" height="292.4609" style="stroke:#000000;stroke-width:1.5;" width="914" x="10" y="98.2969"/><text fill="#000000" font-family="sans-serif" font-size="13" font-weight="bold" lengthAdjust="spacing" textLength="27" x="25" y="111.3638">opt</text><text fill="#000000" font-family="sans-serif" font-size="11" font-weight="bold" lengthAdjust="spacing" textLength="68" x="97" y="110.5073">[Optional]</text><polygon fill="#181818" points="224,147.6953,234,151.6953,224,155.6953,228,151.6953" style="stroke:#181818;stroke-width:1.0;"/><line style="stroke:#181818;stroke-width:1.0;" x1="47" x2="230" y1="151.6953" y2="151.6953"/><text fill="#000000" font-family="sans-serif" font-size="13" font-weight="bold" lengthAdjust="spacing" textLength="9" x="54" y="139.063">1</text><text fill="#000000" font-family="sans-serif" font-size="13" lengthAdjust="spacing" textLength="113" x="67" y="131.4966">Enters the search</text><text fill="#000000" font-family="sans-serif" font-size="13" lengthAdjust="spacing" textLength="134" x="67" y="146.6294">criteria in search box</text><polygon fill="#181818" points="618,191.9609,628,195.9609,618,199.9609,622,195.9609" style="stroke:#181818;stroke-width:1.0;"/><line style="stroke:#181818;stroke-width:1.0;" x1="236" x2="624" y1="195.9609" y2="195.9609"/><text fill="#000000" font-family="sans-serif" font-size="13" font-weight="bold" lengthAdjust="spacing" textLength="9" x="243" y="183.3286">2</text><text fill="#000000" font-family="sans-serif" font-size="13" lengthAdjust="spacing" textLength="167" x="256" y="175.7622">Send searching meal time</text><text fill="#000000" font-family="sans-serif" font-size="13" lengthAdjust="spacing" textLength="127" x="256" y="190.895">information request</text><polygon fill="#181818" points="808,236.2266,818,240.2266,808,244.2266,812,240.2266" style="stroke:#181818;stroke-width:1.0;"/><line style="stroke:#181818;stroke-width:1.0;" x1="630" x2="814" y1="240.2266" y2="240.2266"/><text fill="#000000" font-family="sans-serif" font-size="13" font-weight="bold" lengthAdjust="spacing" textLength="8" x="637" y="227.5942">3</text><text fill="#000000" font-family="sans-serif" font-size="13" lengthAdjust="spacing" textLength="148" x="649" y="220.0278">Search meal time base</text><text fill="#000000" font-family="sans-serif" font-size="13" lengthAdjust="spacing" textLength="121" x="649" y="235.1606">on given keywords</text><line style="stroke:#181818;stroke-width:1.0;" x1="820" x2="862" y1="269.3594" y2="269.3594"/><line style="stroke:#181818;stroke-width:1.0;" x1="862" x2="862" y1="269.3594" y2="282.3594"/><line style="stroke:#181818;stroke-width:1.0;" x1="821" x2="862" y1="282.3594" y2="282.3594"/><polygon fill="#181818" points="831,278.3594,821,282.3594,831,286.3594,827,282.3594" style="stroke:#181818;stroke-width:1.0;"/><text fill="#000000" font-family="sans-serif" font-size="13" font-weight="bold" lengthAdjust="spacing" textLength="9" x="827" y="264.2935">4</text><text fill="#000000" font-family="sans-serif" font-size="13" lengthAdjust="spacing" textLength="72" x="840" y="264.2935">Query data</text><polygon fill="#181818" points="641,307.4922,631,311.4922,641,315.4922,637,311.4922" style="stroke:#181818;stroke-width:1.0;"/><line style="stroke:#181818;stroke-width:1.0;stroke-dasharray:2.0,2.0;" x1="635" x2="819" y1="311.4922" y2="311.4922"/><text fill="#000000" font-family="sans-serif" font-size="13" font-weight="bold" lengthAdjust="spacing" textLength="9" x="647" y="306.4263">5</text><text fill="#000000" font-family="sans-serif" font-size="13" lengthAdjust="spacing" textLength="79" x="660" y="306.4263">Query result</text><polygon fill="#181818" points="247,336.625,237,340.625,247,344.625,243,340.625" style="stroke:#181818;stroke-width:1.0;"/><line style="stroke:#181818;stroke-width:1.0;stroke-dasharray:2.0,2.0;" x1="241" x2="629" y1="340.625" y2="340.625"/><text fill="#000000" font-family="sans-serif" font-size="13" font-weight="bold" lengthAdjust="spacing" textLength="9" x="253" y="335.5591">6</text><text fill="#000000" font-family="sans-serif" font-size="13" lengthAdjust="spacing" textLength="79" x="266" y="335.5591">Query result</text><line style="stroke:#181818;stroke-width:1.0;" x1="236" x2="278" y1="369.7578" y2="369.7578"/><line style="stroke:#181818;stroke-width:1.0;" x1="278" x2="278" y1="369.7578" y2="382.7578"/><line style="stroke:#181818;stroke-width:1.0;" x1="237" x2="278" y1="382.7578" y2="382.7578"/><polygon fill="#181818" points="247,378.7578,237,382.7578,247,386.7578,243,382.7578" style="stroke:#181818;stroke-width:1.0;"/><text fill="#000000" font-family="sans-serif" font-size="13" font-weight="bold" lengthAdjust="spacing" textLength="9" x="243" y="364.6919">7</text><text fill="#000000" font-family="sans-serif" font-size="13" lengthAdjust="spacing" textLength="162" x="256" y="364.6919">Display list of meal times</text><polygon fill="#181818" points="224,430.0234,234,434.0234,224,438.0234,228,434.0234" style="stroke:#181818;stroke-width:1.0;"/><line style="stroke:#181818;stroke-width:1.0;" x1="47" x2="230" y1="434.0234" y2="434.0234"/><text fill="#000000" font-family="sans-serif" font-size="13" font-weight="bold" lengthAdjust="spacing" textLength="9" x="54" y="421.3911">8</text><text fill="#000000" font-family="sans-serif" font-size="13" lengthAdjust="spacing" textLength="64" x="67" y="413.8247">Select the</text><text fill="#000000" font-family="sans-serif" font-size="13" lengthAdjust="spacing" textLength="152" x="67" y="428.9575">meal time want to view</text><polygon fill="#181818" points="618,459.1563,628,463.1563,618,467.1563,622,463.1563" style="stroke:#181818;stroke-width:1.0;"/><line style="stroke:#181818;stroke-width:1.0;" x1="236" x2="624" y1="463.1563" y2="463.1563"/><text fill="#000000" font-family="sans-serif" font-size="13" font-weight="bold" lengthAdjust="spacing" textLength="9" x="243" y="458.0903">9</text><text fill="#000000" font-family="sans-serif" font-size="13" lengthAdjust="spacing" textLength="228" x="256" y="458.0903">Get selected meal time information</text><polygon fill="#181818" points="808,503.4219,818,507.4219,808,511.4219,812,507.4219" style="stroke:#181818;stroke-width:1.0;"/><line style="stroke:#181818;stroke-width:1.0;" x1="630" x2="814" y1="507.4219" y2="507.4219"/><text fill="#000000" font-family="sans-serif" font-size="13" font-weight="bold" lengthAdjust="spacing" textLength="19" x="637" y="494.7896">10</text><text fill="#000000" font-family="sans-serif" font-size="13" lengthAdjust="spacing" textLength="81" x="660" y="487.2231">Get selected</text><text fill="#000000" font-family="sans-serif" font-size="13" lengthAdjust="spacing" textLength="143" x="660" y="502.356">meal time information</text><polygon fill="#181818" points="641,532.5547,631,536.5547,641,540.5547,637,536.5547" style="stroke:#181818;stroke-width:1.0;"/><line style="stroke:#181818;stroke-width:1.0;stroke-dasharray:2.0,2.0;" x1="635" x2="819" y1="536.5547" y2="536.5547"/><text fill="#000000" font-family="sans-serif" font-size="13" font-weight="bold" lengthAdjust="spacing" textLength="18" x="647" y="531.4888">11</text><text fill="#000000" font-family="sans-serif" font-size="13" lengthAdjust="spacing" textLength="79" x="669" y="531.4888">Query result</text><polygon fill="#181818" points="436,561.6875,426,565.6875,436,569.6875,432,565.6875" style="stroke:#181818;stroke-width:1.0;"/><line style="stroke:#181818;stroke-width:1.0;stroke-dasharray:2.0,2.0;" x1="430" x2="629" y1="565.6875" y2="565.6875"/><text fill="#000000" font-family="sans-serif" font-size="13" font-weight="bold" lengthAdjust="spacing" textLength="18" x="442" y="560.6216">12</text><text fill="#000000" font-family="sans-serif" font-size="13" lengthAdjust="spacing" textLength="79" x="464" y="560.6216">Query result</text><line style="stroke:#181818;stroke-width:1.0;" x1="425" x2="467" y1="609.9531" y2="609.9531"/><line style="stroke:#181818;stroke-width:1.0;" x1="467" x2="467" y1="609.9531" y2="622.9531"/><line style="stroke:#181818;stroke-width:1.0;" x1="426" x2="467" y1="622.9531" y2="622.9531"/><polygon fill="#181818" points="436,618.9531,426,622.9531,436,626.9531,432,622.9531" style="stroke:#181818;stroke-width:1.0;"/><text fill="#000000" font-family="sans-serif" font-size="13" font-weight="bold" lengthAdjust="spacing" textLength="17" x="432" y="597.3208">13</text><text fill="#000000" font-family="sans-serif" font-size="13" lengthAdjust="spacing" textLength="170" x="453" y="589.7544">Display view with selected</text><text fill="#000000" font-family="sans-serif" font-size="13" lengthAdjust="spacing" textLength="143" x="453" y="604.8872">meal time information</text><!--SRC=[bPFFJiCm3CRlUGfhTrvW1oG44qnY0hI9qovkuwqHQJ8ITwLlJx9swnzMglLMszzFd_srMB0rHPwG4vcI13jhER4_Gc3Ari4xEZ8i4biOYQw2sOfGRrHEM_EYV9YeFXMLCq0FvqwdVbMtD3lhScHbpH_je2TIQzXPVUa_rkywk0ss55UmMZoyRfQhXH3smF1sY5BK0i9JUuUx-slMvh0mJCu3PmIUqANPrgHEXPf2KAQfGRn5X5r1TCcjiJcioSX6himUyZ02V5fTjUk1e- -2FFVWBUN4RbQBn9EN2maIz04NA7jr90DVL9NMIL_36baVyL5GY44Yus1eP8bwtf4lzBZ7iTEEYaUkrnC_AN_GM84EHR2xTciVCfTY8jKrQKevfherxRrA31AsS8mVrGrHFXE792EHPEVydHp5L7PTHDTIZt5J6XD93FwX4V5W2lu3d1E9ruDISJQrq2y0]--></g></svg>