<?xml version="1.0" encoding="us-ascii" standalone="no"?><svg xmlns="http://www.w3.org/2000/svg" xmlns:xlink="http://www.w3.org/1999/xlink" contentStyleType="text/css" height="774px" preserveAspectRatio="none" style="width:913px;height:774px;background:#FFFFFF;" version="1.1" viewBox="0 0 913 774" width="913px" zoomAndPan="magnify"><defs/><g><rect fill="none" height="494.6016" style="stroke:#000000;stroke-width:1.5;" width="896.5" x="10" y="255.9609"/><rect fill="none" height="261.8672" style="stroke:#000000;stroke-width:1.5;" width="630.5" x="206.5" y="481.6953"/><line style="stroke:#181818;stroke-width:0.5;stroke-dasharray:5.0,5.0;" x1="38" x2="38" y1="81.2969" y2="767.5625"/><line style="stroke:#181818;stroke-width:0.5;stroke-dasharray:5.0,5.0;" x1="258.5" x2="258.5" y1="81.2969" y2="767.5625"/><line style="stroke:#181818;stroke-width:0.5;stroke-dasharray:5.0,5.0;" x1="451.5" x2="451.5" y1="81.2969" y2="767.5625"/><line style="stroke:#181818;stroke-width:0.5;stroke-dasharray:5.0,5.0;" x1="617.5" x2="617.5" y1="81.2969" y2="767.5625"/><line style="stroke:#181818;stroke-width:0.5;stroke-dasharray:5.0,5.0;" x1="789" x2="789" y1="81.2969" y2="767.5625"/><text fill="#000000" font-family="sans-serif" font-size="14" lengthAdjust="spacing" textLength="31" x="20" y="77.9951">User</text><ellipse cx="38.5" cy="13.5" fill="#E2E2F0" rx="8" ry="8" style="stroke:#181818;stroke-width:0.5;"/><path d="M38.5,21.5 L38.5,48.5 M25.5,29.5 L51.5,29.5 M38.5,48.5 L25.5,63.5 M38.5,48.5 L51.5,63.5 " fill="none" style="stroke:#181818;stroke-width:0.5;"/><text fill="#000000" font-family="sans-serif" font-size="14" lengthAdjust="spacing" textLength="78" x="216.5" y="77.9951">SignInView</text><path d="M238,37 L238,61 M238,49 L255,49 " fill="none" style="stroke:#181818;stroke-width:0.5;"/><ellipse cx="267" cy="49" fill="#E2E2F0" rx="12" ry="12" style="stroke:#181818;stroke-width:0.5;"/><text fill="#000000" font-family="sans-serif" font-size="14" lengthAdjust="spacing" textLength="76" x="410.5" y="77.9951">HomeView</text><path d="M431,37 L431,61 M431,49 L448,49 " fill="none" style="stroke:#181818;stroke-width:0.5;"/><ellipse cx="460" cy="49" fill="#E2E2F0" rx="12" ry="12" style="stroke:#181818;stroke-width:0.5;"/><text fill="#000000" font-family="sans-serif" font-size="14" lengthAdjust="spacing" textLength="132" x="548.5" y="77.9951">AccountController</text><ellipse cx="617.5" cy="49" fill="#E2E2F0" rx="12" ry="12" style="stroke:#181818;stroke-width:0.5;"/><polygon fill="#181818" points="613.5,37,619.5,32,617.5,37,619.5,42,613.5,37" style="stroke:#181818;stroke-width:1.0;"/><text fill="#000000" font-family="sans-serif" font-size="14" lengthAdjust="spacing" textLength="69" x="752" y="77.9951">ACCOUNT</text><ellipse cx="789.5" cy="49" fill="#E2E2F0" rx="12" ry="12" style="stroke:#181818;stroke-width:0.5;"/><line style="stroke:#181818;stroke-width:0.5;" x1="777.5" x2="801.5" y1="63" y2="63"/><line style="stroke:#181818;stroke-width:1.0;" x1="258.5" x2="300.5" y1="127.5625" y2="127.5625"/><line style="stroke:#181818;stroke-width:1.0;" x1="300.5" x2="300.5" y1="127.5625" y2="140.5625"/><line style="stroke:#181818;stroke-width:1.0;" x1="259.5" x2="300.5" y1="140.5625" y2="140.5625"/><polygon fill="#181818" points="269.5,136.5625,259.5,140.5625,269.5,144.5625,265.5,140.5625" style="stroke:#181818;stroke-width:1.0;"/><text fill="#000000" font-family="sans-serif" font-size="13" font-weight="bold" lengthAdjust="spacing" textLength="9" x="265.5" y="114.9302">1</text><text fill="#000000" font-family="sans-serif" font-size="13" lengthAdjust="spacing" textLength="47" x="278.5" y="107.3638">Display</text><text fill="#000000" font-family="sans-serif" font-size="13" lengthAdjust="spacing" textLength="75" x="278.5" y="122.4966">sign in view</text><polygon fill="#181818" points="246.5,165.6953,256.5,169.6953,246.5,173.6953,250.5,169.6953" style="stroke:#181818;stroke-width:1.0;"/><line style="stroke:#181818;stroke-width:1.0;" x1="38.5" x2="252.5" y1="169.6953" y2="169.6953"/><text fill="#000000" font-family="sans-serif" font-size="13" font-weight="bold" lengthAdjust="spacing" textLength="9" x="45.5" y="164.6294">2</text><text fill="#000000" font-family="sans-serif" font-size="13" lengthAdjust="spacing" textLength="183" x="58.5" y="164.6294">Enter username &amp; password</text><polygon fill="#181818" points="246.5,194.8281,256.5,198.8281,246.5,202.8281,250.5,198.8281" style="stroke:#181818;stroke-width:1.0;"/><line style="stroke:#181818;stroke-width:1.0;" x1="38.5" x2="252.5" y1="198.8281" y2="198.8281"/><text fill="#000000" font-family="sans-serif" font-size="13" font-weight="bold" lengthAdjust="spacing" textLength="8" x="45.5" y="193.7622">3</text><text fill="#000000" font-family="sans-serif" font-size="13" lengthAdjust="spacing" textLength="131" x="57.5" y="193.7622">Click button "Sign In"</text><line style="stroke:#181818;stroke-width:1.0;" x1="258.5" x2="300.5" y1="227.9609" y2="227.9609"/><line style="stroke:#181818;stroke-width:1.0;" x1="300.5" x2="300.5" y1="227.9609" y2="240.9609"/><line style="stroke:#181818;stroke-width:1.0;" x1="259.5" x2="300.5" y1="240.9609" y2="240.9609"/><polygon fill="#181818" points="269.5,236.9609,259.5,240.9609,269.5,244.9609,265.5,240.9609" style="stroke:#181818;stroke-width:1.0;"/><text fill="#000000" font-family="sans-serif" font-size="13" font-weight="bold" lengthAdjust="spacing" textLength="9" x="265.5" y="222.895">4</text><text fill="#000000" font-family="sans-serif" font-size="13" lengthAdjust="spacing" textLength="133" x="278.5" y="222.895">Validate data format</text><path d="M10,255.9609 L76,255.9609 L76,263.0938 L66,273.0938 L10,273.0938 L10,255.9609 " fill="#EEEEEE" style="stroke:#000000;stroke-width:1.5;"/><rect fill="none" height="494.6016" style="stroke:#000000;stroke-width:1.5;" width="896.5" x="10" y="255.9609"/><text fill="#000000" font-family="sans-serif" font-size="13" font-weight="bold" lengthAdjust="spacing" textLength="21" x="25" y="269.0278">alt</text><text fill="#000000" font-family="sans-serif" font-size="11" font-weight="bold" lengthAdjust="spacing" textLength="88" x="91" y="268.1714">[Invalid data]</text><polygon fill="#181818" points="49.5,290.2266,39.5,294.2266,49.5,298.2266,45.5,294.2266" style="stroke:#181818;stroke-width:1.0;"/><line style="stroke:#181818;stroke-width:1.0;stroke-dasharray:2.0,2.0;" x1="43.5" x2="257.5" y1="294.2266" y2="294.2266"/><text fill="#000000" font-family="sans-serif" font-size="13" font-weight="bold" lengthAdjust="spacing" textLength="9" x="55.5" y="289.1606">5</text><text fill="#000000" font-family="sans-serif" font-size="13" lengthAdjust="spacing" textLength="106" x="68.5" y="289.1606">Error notification</text><line style="stroke:#181818;stroke-width:1.0;" x1="258.5" x2="300.5" y1="323.3594" y2="323.3594"/><line style="stroke:#181818;stroke-width:1.0;" x1="300.5" x2="300.5" y1="323.3594" y2="336.3594"/><line style="stroke:#181818;stroke-width:1.0;" x1="259.5" x2="300.5" y1="336.3594" y2="336.3594"/><polygon fill="#181818" points="269.5,332.3594,259.5,336.3594,269.5,340.3594,265.5,336.3594" style="stroke:#181818;stroke-width:1.0;"/><text fill="#000000" font-family="sans-serif" font-size="13" font-weight="bold" lengthAdjust="spacing" textLength="9" x="265.5" y="318.2935">6</text><text fill="#000000" font-family="sans-serif" font-size="13" lengthAdjust="spacing" textLength="157" x="278.5" y="318.2935">Display error notification</text><line style="stroke:#000000;stroke-width:1.0;stroke-dasharray:2.0,2.0;" x1="10" x2="906.5" y1="345.3594" y2="345.3594"/><text fill="#000000" font-family="sans-serif" font-size="11" font-weight="bold" lengthAdjust="spacing" textLength="78" x="15" y="355.5698">[Valid data]</text><polygon fill="#181818" points="605.5,376.2969,615.5,380.2969,605.5,384.2969,609.5,380.2969" style="stroke:#181818;stroke-width:1.0;"/><line style="stroke:#181818;stroke-width:1.0;" x1="258.5" x2="611.5" y1="380.2969" y2="380.2969"/><text fill="#000000" font-family="sans-serif" font-size="13" font-weight="bold" lengthAdjust="spacing" textLength="9" x="265.5" y="375.231">7</text><text fill="#000000" font-family="sans-serif" font-size="13" lengthAdjust="spacing" textLength="181" x="278.5" y="375.231">Send username &amp; password</text><polygon fill="#181818" points="777.5,420.5625,787.5,424.5625,777.5,428.5625,781.5,424.5625" style="stroke:#181818;stroke-width:1.0;"/><line style="stroke:#181818;stroke-width:1.0;" x1="617.5" x2="783.5" y1="424.5625" y2="424.5625"/><text fill="#000000" font-family="sans-serif" font-size="13" font-weight="bold" lengthAdjust="spacing" textLength="9" x="624.5" y="411.9302">8</text><text fill="#000000" font-family="sans-serif" font-size="13" lengthAdjust="spacing" textLength="101" x="637.5" y="404.3638">Send username</text><text fill="#000000" font-family="sans-serif" font-size="13" lengthAdjust="spacing" textLength="76" x="641.5" y="419.4966">&amp; password</text><line style="stroke:#181818;stroke-width:1.0;" x1="789.5" x2="831.5" y1="453.6953" y2="453.6953"/><line style="stroke:#181818;stroke-width:1.0;" x1="831.5" x2="831.5" y1="453.6953" y2="466.6953"/><line style="stroke:#181818;stroke-width:1.0;" x1="790.5" x2="831.5" y1="466.6953" y2="466.6953"/><polygon fill="#181818" points="800.5,462.6953,790.5,466.6953,800.5,470.6953,796.5,466.6953" style="stroke:#181818;stroke-width:1.0;"/><text fill="#000000" font-family="sans-serif" font-size="13" font-weight="bold" lengthAdjust="spacing" textLength="9" x="796.5" y="448.6294">9</text><text fill="#000000" font-family="sans-serif" font-size="13" lengthAdjust="spacing" textLength="85" x="809.5" y="448.6294">Validate data</text><path d="M206.5,481.6953 L272.5,481.6953 L272.5,488.8281 L262.5,498.8281 L206.5,498.8281 L206.5,481.6953 " fill="#EEEEEE" style="stroke:#000000;stroke-width:1.5;"/><rect fill="none" height="261.8672" style="stroke:#000000;stroke-width:1.5;" width="630.5" x="206.5" y="481.6953"/><text fill="#000000" font-family="sans-serif" font-size="13" font-weight="bold" lengthAdjust="spacing" textLength="21" x="221.5" y="494.7622">alt</text><text fill="#000000" font-family="sans-serif" font-size="11" font-weight="bold" lengthAdjust="spacing" textLength="88" x="287.5" y="493.9058">[Invalid data]</text><polygon fill="#181818" points="628.5,515.9609,618.5,519.9609,628.5,523.9609,624.5,519.9609" style="stroke:#181818;stroke-width:1.0;"/><line style="stroke:#181818;stroke-width:1.0;stroke-dasharray:2.0,2.0;" x1="622.5" x2="788.5" y1="519.9609" y2="519.9609"/><text fill="#000000" font-family="sans-serif" font-size="13" font-weight="bold" lengthAdjust="spacing" textLength="19" x="634.5" y="514.895">10</text><text fill="#000000" font-family="sans-serif" font-size="13" lengthAdjust="spacing" textLength="106" x="657.5" y="514.895">Error notification</text><polygon fill="#181818" points="269.5,545.0938,259.5,549.0938,269.5,553.0938,265.5,549.0938" style="stroke:#181818;stroke-width:1.0;"/><line style="stroke:#181818;stroke-width:1.0;stroke-dasharray:2.0,2.0;" x1="263.5" x2="616.5" y1="549.0938" y2="549.0938"/><text fill="#000000" font-family="sans-serif" font-size="13" font-weight="bold" lengthAdjust="spacing" textLength="18" x="275.5" y="544.0278">11</text><text fill="#000000" font-family="sans-serif" font-size="13" lengthAdjust="spacing" textLength="106" x="297.5" y="544.0278">Error notification</text><line style="stroke:#181818;stroke-width:1.0;" x1="258.5" x2="300.5" y1="578.2266" y2="578.2266"/><line style="stroke:#181818;stroke-width:1.0;" x1="300.5" x2="300.5" y1="578.2266" y2="591.2266"/><line style="stroke:#181818;stroke-width:1.0;" x1="259.5" x2="300.5" y1="591.2266" y2="591.2266"/><polygon fill="#181818" points="269.5,587.2266,259.5,591.2266,269.5,595.2266,265.5,591.2266" style="stroke:#181818;stroke-width:1.0;"/><text fill="#000000" font-family="sans-serif" font-size="13" font-weight="bold" lengthAdjust="spacing" textLength="18" x="265.5" y="573.1606">12</text><text fill="#000000" font-family="sans-serif" font-size="13" lengthAdjust="spacing" textLength="157" x="287.5" y="573.1606">Display error notification</text><line style="stroke:#000000;stroke-width:1.0;stroke-dasharray:2.0,2.0;" x1="206.5" x2="837" y1="600.2266" y2="600.2266"/><text fill="#000000" font-family="sans-serif" font-size="11" font-weight="bold" lengthAdjust="spacing" textLength="78" x="211.5" y="610.437">[Valid data]</text><polygon fill="#181818" points="628.5,631.1641,618.5,635.1641,628.5,639.1641,624.5,635.1641" style="stroke:#181818;stroke-width:1.0;"/><line style="stroke:#181818;stroke-width:1.0;stroke-dasharray:2.0,2.0;" x1="622.5" x2="788.5" y1="635.1641" y2="635.1641"/><text fill="#000000" font-family="sans-serif" font-size="13" font-weight="bold" lengthAdjust="spacing" textLength="17" x="634.5" y="630.0981">13</text><text fill="#000000" font-family="sans-serif" font-size="13" lengthAdjust="spacing" textLength="127" x="655.5" y="630.0981">Success notification</text><polygon fill="#181818" points="269.5,660.2969,259.5,664.2969,269.5,668.2969,265.5,664.2969" style="stroke:#181818;stroke-width:1.0;"/><line style="stroke:#181818;stroke-width:1.0;stroke-dasharray:2.0,2.0;" x1="263.5" x2="616.5" y1="664.2969" y2="664.2969"/><text fill="#000000" font-family="sans-serif" font-size="13" font-weight="bold" lengthAdjust="spacing" textLength="18" x="275.5" y="659.231">14</text><text fill="#000000" font-family="sans-serif" font-size="13" lengthAdjust="spacing" textLength="127" x="297.5" y="659.231">Success notification</text><line style="stroke:#181818;stroke-width:1.0;" x1="258.5" x2="300.5" y1="693.4297" y2="693.4297"/><line style="stroke:#181818;stroke-width:1.0;" x1="300.5" x2="300.5" y1="693.4297" y2="706.4297"/><line style="stroke:#181818;stroke-width:1.0;" x1="259.5" x2="300.5" y1="706.4297" y2="706.4297"/><polygon fill="#181818" points="269.5,702.4297,259.5,706.4297,269.5,710.4297,265.5,706.4297" style="stroke:#181818;stroke-width:1.0;"/><text fill="#000000" font-family="sans-serif" font-size="13" font-weight="bold" lengthAdjust="spacing" textLength="18" x="265.5" y="688.3638">15</text><text fill="#000000" font-family="sans-serif" font-size="13" lengthAdjust="spacing" textLength="108" x="287.5" y="688.3638">Close SignInView</text><polygon fill="#181818" points="462.5,731.5625,452.5,735.5625,462.5,739.5625,458.5,735.5625" style="stroke:#181818;stroke-width:1.0;"/><line style="stroke:#181818;stroke-width:1.0;" x1="456.5" x2="616.5" y1="735.5625" y2="735.5625"/><text fill="#000000" font-family="sans-serif" font-size="13" font-weight="bold" lengthAdjust="spacing" textLength="18" x="468.5" y="730.4966">16</text><text fill="#000000" font-family="sans-serif" font-size="13" lengthAdjust="spacing" textLength="120" x="490.5" y="730.4966">Display HomeView</text><!--SRC=[fLEnRi8m4Dtz5IU6Rlq11YIKLYfBEwGmiJYsQQqwPsHVeFnzpub427OHQZDOojrxp- -UTR8ZZrtRc20-hJQmyvuQ_os4LEG3h2Ct6j-Xbk44jVt05MwiEOwr5z-Qlg8yKl0EbafnZwhXrp7V85awmRAgtjQlxqACCl2uk12TmvEDUoTFMunS18jmICh9n1G9StX6uch7BPIjWGVOonYFFkWol79MVK7J4OyBizI25SvkMDb8PxKa0tn8ZYMqaeHqnBH3QlLr0VnTQh18kfxjXS3neIUxiqgIzPXXYwE3oOd6HJFuAL-wo3EVGsrG5-D9x0pVYmplSqNTOaOUS1FA9AqULOngGY_xpeDBf96TExyAyfVa_vn-8fPUu8vPwauf4-D_fYb9t35FvJmxljZN6pSkpZiyvd3UwdvwrBp3-WS0]--></g></svg>