<?xml version="1.0" encoding="us-ascii" standalone="no"?><svg xmlns="http://www.w3.org/2000/svg" xmlns:xlink="http://www.w3.org/1999/xlink" contentStyleType="text/css" height="330px" preserveAspectRatio="none" style="width:438px;height:330px;background:#FFFFFF;" version="1.1" viewBox="0 0 438 330" width="438px" zoomAndPan="magnify"><defs/><g><rect fill="none" height="20.9531" style="stroke:none;stroke-width:1.0;" width="405.25" x="15" y="12.7451"/><ellipse cx="127.25" cy="48.6982" fill="#222222" rx="10" ry="10" style="stroke:#222222;stroke-width:1.0;"/><rect fill="#F1F1F1" height="33.9688" rx="12.5" ry="12.5" style="stroke:#181818;stroke-width:0.5;" width="117" x="68.75" y="78.6982"/><text fill="#000000" font-family="sans-serif" font-size="12" lengthAdjust="spacing" textLength="97" x="78.75" y="99.8369">Choose function</text><polygon fill="#F1F1F1" points="127.25,150.1753,127.25,150.1753,139.25,162.1753,127.25,174.1753,127.25,174.1753,115.25,162.1753,127.25,150.1753" style="stroke:#181818;stroke-width:0.5;"/><text fill="#000000" font-family="sans-serif" font-size="11" lengthAdjust="spacing" textLength="28" x="38.25" y="133.9717">View</text><text fill="#000000" font-family="sans-serif" font-size="11" lengthAdjust="spacing" textLength="77" x="38.25" y="146.7764">Immunization</text><text fill="#000000" font-family="sans-serif" font-size="11" lengthAdjust="spacing" textLength="54" x="38.25" y="159.5811">Schedule</text><text fill="#000000" font-family="sans-serif" font-size="11" lengthAdjust="spacing" textLength="97" x="139.25" y="159.5811">View Prescription</text><rect fill="#F1F1F1" height="61.9063" rx="12.5" ry="12.5" style="stroke:#181818;stroke-width:0.5;" width="98" x="21" y="184.1753"/><text fill="#000000" font-family="sans-serif" font-size="12" lengthAdjust="spacing" textLength="76" x="31" y="205.314">Activity View</text><text fill="#000000" font-family="sans-serif" font-size="12" lengthAdjust="spacing" textLength="78" x="31" y="219.2827">Immunization</text><text fill="#000000" font-family="sans-serif" font-size="12" lengthAdjust="spacing" textLength="56" x="31" y="233.2515">Schedule</text><rect fill="#F1F1F1" height="61.9063" rx="12.5" ry="12.5" style="stroke:#181818;stroke-width:0.5;" width="91" x="139" y="184.1753"/><text fill="#000000" font-family="sans-serif" font-size="12" lengthAdjust="spacing" textLength="43" x="149" y="205.314">Activity</text><text fill="#000000" font-family="sans-serif" font-size="12" lengthAdjust="spacing" textLength="29" x="149" y="219.2827">View</text><text fill="#000000" font-family="sans-serif" font-size="12" lengthAdjust="spacing" textLength="71" x="149" y="233.2515">Prescription</text><polygon fill="#F1F1F1" points="127.25,252.0815,139.25,264.0815,127.25,276.0815,115.25,264.0815,127.25,252.0815" style="stroke:#181818;stroke-width:0.5;"/><line style="stroke:#000000;stroke-width:1.5;" x1="15" x2="15" y1="12.7451" y2="318.0815"/><ellipse cx="281.25" cy="307.0815" fill="none" rx="11" ry="11" style="stroke:#222222;stroke-width:1.0;"/><ellipse cx="281.25" cy="307.0815" fill="#222222" rx="6" ry="6" style="stroke:#222222;stroke-width:1.0;"/><line style="stroke:#000000;stroke-width:1.5;" x1="241.25" x2="241.25" y1="12.7451" y2="318.0815"/><line style="stroke:#000000;stroke-width:1.5;" x1="320.25" x2="320.25" y1="12.7451" y2="318.0815"/><line style="stroke:#000000;stroke-width:1.5;" x1="418.25" x2="418.25" y1="12.7451" y2="318.0815"/><line style="stroke:#181818;stroke-width:1.0;" x1="127.25" x2="127.25" y1="58.6982" y2="78.6982"/><polygon fill="#181818" points="123.25,68.6982,127.25,78.6982,131.25,68.6982,127.25,72.6982" style="stroke:#181818;stroke-width:1.0;"/><line style="stroke:#181818;stroke-width:1.0;" x1="115.25" x2="70" y1="162.1753" y2="162.1753"/><line style="stroke:#181818;stroke-width:1.0;" x1="70" x2="70" y1="162.1753" y2="184.1753"/><polygon fill="#181818" points="66,174.1753,70,184.1753,74,174.1753,70,178.1753" style="stroke:#181818;stroke-width:1.0;"/><line style="stroke:#181818;stroke-width:1.0;" x1="139.25" x2="184.5" y1="162.1753" y2="162.1753"/><line style="stroke:#181818;stroke-width:1.0;" x1="184.5" x2="184.5" y1="162.1753" y2="184.1753"/><polygon fill="#181818" points="180.5,174.1753,184.5,184.1753,188.5,174.1753,184.5,178.1753" style="stroke:#181818;stroke-width:1.0;"/><line style="stroke:#181818;stroke-width:1.0;" x1="70" x2="70" y1="246.0815" y2="264.0815"/><line style="stroke:#181818;stroke-width:1.0;" x1="70" x2="115.25" y1="264.0815" y2="264.0815"/><polygon fill="#181818" points="105.25,260.0815,115.25,264.0815,105.25,268.0815,109.25,264.0815" style="stroke:#181818;stroke-width:1.0;"/><line style="stroke:#181818;stroke-width:1.0;" x1="184.5" x2="184.5" y1="246.0815" y2="264.0815"/><line style="stroke:#181818;stroke-width:1.0;" x1="184.5" x2="139.25" y1="264.0815" y2="264.0815"/><polygon fill="#181818" points="149.25,260.0815,139.25,264.0815,149.25,268.0815,145.25,264.0815" style="stroke:#181818;stroke-width:1.0;"/><line style="stroke:#181818;stroke-width:1.0;" x1="127.25" x2="127.25" y1="112.667" y2="150.1753"/><polygon fill="#181818" points="123.25,140.1753,127.25,150.1753,131.25,140.1753,127.25,144.1753" style="stroke:#181818;stroke-width:1.0;"/><line style="stroke:#181818;stroke-width:1.0;" x1="127.25" x2="127.25" y1="276.0815" y2="281.0815"/><line style="stroke:#181818;stroke-width:1.0;" x1="127.25" x2="281.25" y1="281.0815" y2="281.0815"/><line style="stroke:#181818;stroke-width:1.0;" x1="281.25" x2="281.25" y1="281.0815" y2="296.0815"/><polygon fill="#181818" points="277.25,286.0815,281.25,296.0815,285.25,286.0815,281.25,290.0815" style="stroke:#181818;stroke-width:1.0;"/><text fill="#000000" font-family="sans-serif" font-size="18" lengthAdjust="spacing" textLength="62" x="97.125" y="29.4531">Parent</text><text fill="#000000" font-family="sans-serif" font-size="18" lengthAdjust="spacing" textLength="69" x="246.25" y="29.4531">System</text><text fill="#000000" font-family="sans-serif" font-size="18" lengthAdjust="spacing" textLength="88" x="325.25" y="29.4531">Database</text><!--SRC=[VOyn2iCm34Ltdq9ZV8LaAktIBH3ebCLrP298v60hAIa-VEsMqapTFlptdr1gJK2Mf5AtHy4vXuiHSpSHS_oMKKmGLPz7xoE2MzaAUMuKEQWqo8WCrOtmqVDrdbUcfobzpvqTSLWdr0gWFkNHHhB3Fx81XLE-yTP16p3QG4jXD1mbFNyiHw9iUI3t-oMANru0]--></g></svg>