<?xml version="1.0" encoding="us-ascii" standalone="no"?><svg xmlns="http://www.w3.org/2000/svg" xmlns:xlink="http://www.w3.org/1999/xlink" contentStyleType="text/css" height="799px" preserveAspectRatio="none" style="width:467px;height:799px;background:#FFFFFF;" version="1.1" viewBox="0 0 467 799" width="467px" zoomAndPan="magnify"><defs/><g><rect fill="none" height="20.9531" style="stroke:none;stroke-width:1.0;" width="434" x="15" y="12.7451"/><rect fill="#F1F1F1" height="61.9063" rx="12.5" ry="12.5" style="stroke:#181818;stroke-width:0.5;" width="107" x="21" y="181.0693"/><text fill="#000000" font-family="sans-serif" font-size="12" lengthAdjust="spacing" textLength="61" x="31" y="202.208">Enters the</text><text fill="#000000" font-family="sans-serif" font-size="12" lengthAdjust="spacing" textLength="87" x="31" y="216.1768">search criteria</text><text fill="#000000" font-family="sans-serif" font-size="12" lengthAdjust="spacing" textLength="82" x="31" y="230.1455">in search box</text><rect fill="#F1F1F1" height="61.9063" rx="12.5" ry="12.5" style="stroke:#181818;stroke-width:0.5;" width="96" x="26.5" y="493.3662"/><text fill="#000000" font-family="sans-serif" font-size="12" lengthAdjust="spacing" textLength="61" x="36.5" y="514.5049">Select the</text><text fill="#000000" font-family="sans-serif" font-size="12" lengthAdjust="spacing" textLength="55" x="36.5" y="528.4736">schedule</text><text fill="#000000" font-family="sans-serif" font-size="12" lengthAdjust="spacing" textLength="76" x="36.5" y="542.4424">want to view</text><line style="stroke:#000000;stroke-width:1.5;" x1="15" x2="15" y1="12.7451" y2="787.1162"/><ellipse cx="229" cy="48.6982" fill="#222222" rx="10" ry="10" style="stroke:#222222;stroke-width:1.0;"/><rect fill="#F1F1F1" height="33.9688" rx="12.5" ry="12.5" style="stroke:#181818;stroke-width:0.5;" width="167" x="145.5" y="78.6982"/><text fill="#000000" font-family="sans-serif" font-size="12" lengthAdjust="spacing" textLength="147" x="155.5" y="99.8369">Display list of schedules</text><rect fill="#F1F1F1" height="33.9688" rx="12.5" ry="12.5" style="stroke:#181818;stroke-width:0.5;" width="182" x="138" y="262.9756"/><text fill="#000000" font-family="sans-serif" font-size="12" lengthAdjust="spacing" textLength="162" x="148" y="284.1143">Process searching request</text><rect fill="#F1F1F1" height="47.9375" rx="12.5" ry="12.5" style="stroke:#181818;stroke-width:0.5;" width="101" x="178.5" y="381.4287"/><text fill="#000000" font-family="sans-serif" font-size="12" lengthAdjust="spacing" textLength="81" x="188.5" y="402.5674">Display list of</text><text fill="#000000" font-family="sans-serif" font-size="12" lengthAdjust="spacing" textLength="62" x="188.5" y="416.5361">schedules</text><polygon fill="#F1F1F1" points="229,132.667,229,132.667,241,144.667,229,156.667,229,156.667,217,144.667,229,132.667" style="stroke:#181818;stroke-width:0.5;"/><text fill="#000000" font-family="sans-serif" font-size="11" lengthAdjust="spacing" textLength="40" x="233" y="166.8774">Search</text><text fill="#000000" font-family="sans-serif" font-size="11" lengthAdjust="spacing" textLength="57" x="241" y="142.0728">No search</text><polygon fill="#F1F1F1" points="229,449.3662,241,461.3662,229,473.3662,217,461.3662,229,449.3662" style="stroke:#181818;stroke-width:0.5;"/><rect fill="#F1F1F1" height="47.9375" rx="12.5" ry="12.5" style="stroke:#181818;stroke-width:0.5;" width="146" x="156" y="575.2725"/><text fill="#000000" font-family="sans-serif" font-size="12" lengthAdjust="spacing" textLength="78" x="166" y="596.4111">Get selected</text><text fill="#000000" font-family="sans-serif" font-size="12" lengthAdjust="spacing" textLength="126" x="166" y="610.3799">schedule information</text><rect fill="#F1F1F1" height="47.9375" rx="12.5" ry="12.5" style="stroke:#181818;stroke-width:0.5;" width="146" x="156" y="697.1787"/><text fill="#000000" font-family="sans-serif" font-size="12" lengthAdjust="spacing" textLength="101" x="166" y="718.3174">Display selected</text><text fill="#000000" font-family="sans-serif" font-size="12" lengthAdjust="spacing" textLength="126" x="166" y="732.2861">schedule information</text><ellipse cx="229" cy="776.1162" fill="none" rx="11" ry="11" style="stroke:#222222;stroke-width:1.0;"/><ellipse cx="229" cy="776.1162" fill="#222222" rx="6" ry="6" style="stroke:#222222;stroke-width:1.0;"/><line style="stroke:#000000;stroke-width:1.5;" x1="132" x2="132" y1="12.7451" y2="787.1162"/><rect fill="#F1F1F1" height="33.9688" rx="12.5" ry="12.5" style="stroke:#181818;stroke-width:0.5;" width="87" x="355.5" y="327.46"/><text fill="#000000" font-family="sans-serif" font-size="12" lengthAdjust="spacing" textLength="67" x="365.5" y="348.5986">Query data</text><rect fill="#F1F1F1" height="33.9688" rx="12.5" ry="12.5" style="stroke:#181818;stroke-width:0.5;" width="87" x="355.5" y="643.21"/><text fill="#000000" font-family="sans-serif" font-size="12" lengthAdjust="spacing" textLength="67" x="365.5" y="664.3486">Query data</text><line style="stroke:#000000;stroke-width:1.5;" x1="349" x2="349" y1="12.7451" y2="787.1162"/><line style="stroke:#000000;stroke-width:1.5;" x1="447" x2="447" y1="12.7451" y2="787.1162"/><line style="stroke:#181818;stroke-width:1.0;" x1="229" x2="229" y1="58.6982" y2="78.6982"/><polygon fill="#181818" points="225,68.6982,229,78.6982,233,68.6982,229,72.6982" style="stroke:#181818;stroke-width:1.0;"/><line style="stroke:#181818;stroke-width:1.0;" x1="241" x2="330" y1="144.667" y2="144.667"/><polygon fill="#181818" points="326,297.46,330,307.46,334,297.46,330,301.46" style="stroke:#181818;stroke-width:1.0;"/><line style="stroke:#181818;stroke-width:1.0;" x1="330" x2="330" y1="144.667" y2="461.3662"/><line style="stroke:#181818;stroke-width:1.0;" x1="330" x2="241" y1="461.3662" y2="461.3662"/><polygon fill="#181818" points="251,457.3662,241,461.3662,251,465.3662,247,461.3662" style="stroke:#181818;stroke-width:1.0;"/><line style="stroke:#181818;stroke-width:1.0;" x1="229" x2="229" y1="429.3662" y2="449.3662"/><polygon fill="#181818" points="225,439.3662,229,449.3662,233,439.3662,229,443.3662" style="stroke:#181818;stroke-width:1.0;"/><line style="stroke:#181818;stroke-width:1.0;" x1="229" x2="229" y1="112.667" y2="132.667"/><polygon fill="#181818" points="225,122.667,229,132.667,233,122.667,229,126.667" style="stroke:#181818;stroke-width:1.0;"/><line style="stroke:#181818;stroke-width:1.0;" x1="229" x2="229" y1="745.1162" y2="765.1162"/><polygon fill="#181818" points="225,755.1162,229,765.1162,233,755.1162,229,759.1162" style="stroke:#181818;stroke-width:1.0;"/><line style="stroke:#181818;stroke-width:1.0;" x1="74.5" x2="74.5" y1="242.9756" y2="247.9756"/><line style="stroke:#181818;stroke-width:1.0;" x1="74.5" x2="229" y1="247.9756" y2="247.9756"/><line style="stroke:#181818;stroke-width:1.0;" x1="229" x2="229" y1="247.9756" y2="262.9756"/><polygon fill="#181818" points="225,252.9756,229,262.9756,233,252.9756,229,256.9756" style="stroke:#181818;stroke-width:1.0;"/><line style="stroke:#181818;stroke-width:1.0;" x1="229" x2="229" y1="296.9443" y2="312.46"/><line style="stroke:#181818;stroke-width:1.0;" x1="229" x2="399" y1="312.46" y2="312.46"/><line style="stroke:#181818;stroke-width:1.0;" x1="399" x2="399" y1="312.46" y2="327.46"/><polygon fill="#181818" points="395,317.46,399,327.46,403,317.46,399,321.46" style="stroke:#181818;stroke-width:1.0;"/><line style="stroke:#181818;stroke-width:1.0;" x1="399" x2="399" y1="361.4287" y2="366.4287"/><line style="stroke:#181818;stroke-width:1.0;" x1="399" x2="229" y1="366.4287" y2="366.4287"/><line style="stroke:#181818;stroke-width:1.0;" x1="229" x2="229" y1="366.4287" y2="381.4287"/><polygon fill="#181818" points="225,371.4287,229,381.4287,233,371.4287,229,375.4287" style="stroke:#181818;stroke-width:1.0;"/><line style="stroke:#181818;stroke-width:1.0;" x1="229" x2="229" y1="156.667" y2="168.8682"/><line style="stroke:#181818;stroke-width:1.0;" x1="229" x2="74.5" y1="168.8682" y2="168.8682"/><line style="stroke:#181818;stroke-width:1.0;" x1="74.5" x2="74.5" y1="168.8682" y2="181.0693"/><polygon fill="#181818" points="70.5,171.0693,74.5,181.0693,78.5,171.0693,74.5,175.0693" style="stroke:#181818;stroke-width:1.0;"/><line style="stroke:#181818;stroke-width:1.0;" x1="229" x2="229" y1="473.3662" y2="478.3662"/><line style="stroke:#181818;stroke-width:1.0;" x1="229" x2="74.5" y1="478.3662" y2="478.3662"/><line style="stroke:#181818;stroke-width:1.0;" x1="74.5" x2="74.5" y1="478.3662" y2="493.3662"/><polygon fill="#181818" points="70.5,483.3662,74.5,493.3662,78.5,483.3662,74.5,487.3662" style="stroke:#181818;stroke-width:1.0;"/><line style="stroke:#181818;stroke-width:1.0;" x1="74.5" x2="74.5" y1="555.2725" y2="560.2725"/><line style="stroke:#181818;stroke-width:1.0;" x1="74.5" x2="229" y1="560.2725" y2="560.2725"/><line style="stroke:#181818;stroke-width:1.0;" x1="229" x2="229" y1="560.2725" y2="575.2725"/><polygon fill="#181818" points="225,565.2725,229,575.2725,233,565.2725,229,569.2725" style="stroke:#181818;stroke-width:1.0;"/><line style="stroke:#181818;stroke-width:1.0;" x1="229" x2="229" y1="623.21" y2="628.21"/><line style="stroke:#181818;stroke-width:1.0;" x1="229" x2="399" y1="628.21" y2="628.21"/><line style="stroke:#181818;stroke-width:1.0;" x1="399" x2="399" y1="628.21" y2="643.21"/><polygon fill="#181818" points="395,633.21,399,643.21,403,633.21,399,637.21" style="stroke:#181818;stroke-width:1.0;"/><line style="stroke:#181818;stroke-width:1.0;" x1="399" x2="399" y1="677.1787" y2="682.1787"/><line style="stroke:#181818;stroke-width:1.0;" x1="399" x2="229" y1="682.1787" y2="682.1787"/><line style="stroke:#181818;stroke-width:1.0;" x1="229" x2="229" y1="682.1787" y2="697.1787"/><polygon fill="#181818" points="225,687.1787,229,697.1787,233,687.1787,229,691.1787" style="stroke:#181818;stroke-width:1.0;"/><text fill="#000000" font-family="sans-serif" font-size="18" lengthAdjust="spacing" textLength="62" x="42.5" y="29.4531">Parent</text><text fill="#000000" font-family="sans-serif" font-size="18" lengthAdjust="spacing" textLength="69" x="206" y="29.4531">System</text><text fill="#000000" font-family="sans-serif" font-size="18" lengthAdjust="spacing" textLength="88" x="354" y="29.4531">Database</text><!--SRC=[bO-nRiCm34HtVGL7-nUIDKMt8eLNBunCrmGKAXNff0RqyPLJ1K6304MvyN1tvCjxJ2IMNUuMDJfcfuR9t6R7UWguG60rY2EedsYO0-dMyGXD2pQHGDCH9Z-r3ihaMzUwR5x4AEbgwqMlBl29YyRO2mjKxH2_jZ_fsmFNz3v5JwhLnV81YJvdKglc7HeUKAdQtsTA2mn5V5Rsm5B-kSDGK8BcBTPBhICPU7I_MJeAvAsor6ml5vIYHJWpNPwTVIKhhMkIXdiEMCQOZcWSvH46_aFpLxLQF7q3]--></g></svg>