<?xml version="1.0" encoding="us-ascii" standalone="no"?><svg xmlns="http://www.w3.org/2000/svg" xmlns:xlink="http://www.w3.org/1999/xlink" contentStyleType="text/css" height="752px" preserveAspectRatio="none" style="width:1065px;height:752px;background:#FFFFFF;" version="1.1" viewBox="0 0 1065 752" width="1065px" zoomAndPan="magnify"><defs/><g><rect fill="none" height="20.9531" style="stroke:none;stroke-width:1.0;" width="1032.375" x="15" y="12.7451"/><ellipse cx="230.125" cy="48.6982" fill="#222222" rx="10" ry="10" style="stroke:#222222;stroke-width:1.0;"/><rect fill="#F1F1F1" height="47.9375" rx="12.5" ry="12.5" style="stroke:#181818;stroke-width:0.5;" width="209" x="125.625" y="78.6982"/><text fill="#000000" font-family="sans-serif" font-size="12" lengthAdjust="spacing" textLength="100" x="135.625" y="99.8369">Execute "Activity</text><text fill="#000000" font-family="sans-serif" font-size="12" lengthAdjust="spacing" textLength="189" x="135.625" y="113.8057">Search Immunization Schedule"</text><rect fill="#F1F1F1" height="47.9375" rx="12.5" ry="12.5" style="stroke:#181818;stroke-width:0.5;" width="117" x="171.625" y="146.6357"/><text fill="#000000" font-family="sans-serif" font-size="12" lengthAdjust="spacing" textLength="97" x="181.625" y="167.7744">Select schedule</text><text fill="#000000" font-family="sans-serif" font-size="12" lengthAdjust="spacing" textLength="91" x="181.625" y="181.7432">needs deleting</text><rect fill="#F1F1F1" height="33.9688" rx="12.5" ry="12.5" style="stroke:#181818;stroke-width:0.5;" width="144" x="21" y="326.5107"/><text fill="#000000" font-family="sans-serif" font-size="12" lengthAdjust="spacing" textLength="124" x="31" y="347.6494">Click "Cancel" button</text><ellipse cx="93" cy="390.4795" fill="none" rx="10" ry="10" style="stroke:#222222;stroke-width:1.5;"/><line style="stroke:#222222;stroke-width:2.5;" x1="86.8128" x2="99.1872" y1="384.2923" y2="396.6667"/><line style="stroke:#222222;stroke-width:2.5;" x1="99.1872" x2="86.8128" y1="384.2923" y2="396.6667"/><rect fill="#F1F1F1" height="33.9688" rx="12.5" ry="12.5" style="stroke:#181818;stroke-width:0.5;" width="150" x="292.25" y="326.5107"/><text fill="#000000" font-family="sans-serif" font-size="12" lengthAdjust="spacing" textLength="130" x="302.25" y="347.6494">Click "Confirm" button</text><line style="stroke:#000000;stroke-width:1.5;" x1="15" x2="15" y1="12.7451" y2="740.292"/><rect fill="#F1F1F1" height="47.9375" rx="12.5" ry="12.5" style="stroke:#181818;stroke-width:0.5;" width="142" x="452.25" y="214.5732"/><text fill="#000000" font-family="sans-serif" font-size="12" lengthAdjust="spacing" textLength="122" x="462.25" y="235.7119">Display confirmation</text><text fill="#000000" font-family="sans-serif" font-size="12" lengthAdjust="spacing" textLength="79" x="462.25" y="249.6807">messagebox</text><polygon fill="#F1F1F1" points="523.25,282.5107,523.25,282.5107,535.25,294.5107,523.25,306.5107,523.25,306.5107,511.25,294.5107,523.25,282.5107" style="stroke:#181818;stroke-width:0.5;"/><text fill="#000000" font-family="sans-serif" font-size="11" lengthAdjust="spacing" textLength="39" x="472.25" y="291.9165">Cancel</text><text fill="#000000" font-family="sans-serif" font-size="11" lengthAdjust="spacing" textLength="44" x="535.25" y="291.9165">Confirm</text><rect fill="#F1F1F1" height="33.9688" rx="12.5" ry="12.5" style="stroke:#181818;stroke-width:0.5;" width="172" x="574.375" y="380.4795"/><text fill="#000000" font-family="sans-serif" font-size="12" lengthAdjust="spacing" textLength="152" x="584.375" y="401.6182">Process deleting request</text><rect fill="#F1F1F1" height="33.9688" rx="12.5" ry="12.5" style="stroke:#181818;stroke-width:0.5;" width="168" x="488.125" y="532.417"/><text fill="#000000" font-family="sans-serif" font-size="12" lengthAdjust="spacing" textLength="148" x="498.125" y="553.5557">Display error notification</text><rect fill="#F1F1F1" height="61.9063" rx="12.5" ry="12.5" style="stroke:#181818;stroke-width:0.5;" width="145" x="676.125" y="586.3857"/><text fill="#000000" font-family="sans-serif" font-size="12" lengthAdjust="spacing" textLength="98" x="686.125" y="607.5244">Display success</text><text fill="#000000" font-family="sans-serif" font-size="12" lengthAdjust="spacing" textLength="65" x="686.125" y="621.4932">notification</text><text fill="#000000" font-family="sans-serif" font-size="12" lengthAdjust="spacing" textLength="125" x="686.125" y="635.4619">and list of schedules</text><line style="stroke:#000000;stroke-width:1.5;" x1="446.25" x2="446.25" y1="12.7451" y2="740.292"/><rect fill="#F1F1F1" height="33.9688" rx="12.5" ry="12.5" style="stroke:#181818;stroke-width:0.5;" width="98" x="859.125" y="434.4482"/><text fill="#000000" font-family="sans-serif" font-size="12" lengthAdjust="spacing" textLength="78" x="869.125" y="455.5869">Validate data</text><polygon fill="#F1F1F1" points="908.125,488.417,908.125,488.417,920.125,500.417,908.125,512.417,908.125,512.417,896.125,500.417,908.125,488.417" style="stroke:#181818;stroke-width:0.5;"/><text fill="#000000" font-family="sans-serif" font-size="11" lengthAdjust="spacing" textLength="66" x="830.125" y="497.8228">Invalid data</text><text fill="#000000" font-family="sans-serif" font-size="11" lengthAdjust="spacing" textLength="57" x="920.125" y="497.8228">Valid data</text><rect fill="#F1F1F1" height="33.9688" rx="12.5" ry="12.5" style="stroke:#181818;stroke-width:0.5;" width="90" x="951.375" y="532.417"/><text fill="#000000" font-family="sans-serif" font-size="12" lengthAdjust="spacing" textLength="70" x="961.375" y="553.5557">Delete data</text><polygon fill="#F1F1F1" points="908.125,658.292,920.125,670.292,908.125,682.292,896.125,670.292,908.125,658.292" style="stroke:#181818;stroke-width:0.5;"/><ellipse cx="908.125" cy="713.292" fill="none" rx="11" ry="11" style="stroke:#222222;stroke-width:1.0;"/><ellipse cx="908.125" cy="713.292" fill="#222222" rx="6" ry="6" style="stroke:#222222;stroke-width:1.0;"/><line style="stroke:#000000;stroke-width:1.5;" x1="825.125" x2="825.125" y1="12.7451" y2="740.292"/><line style="stroke:#000000;stroke-width:1.5;" x1="1045.375" x2="1045.375" y1="12.7451" y2="740.292"/><line style="stroke:#181818;stroke-width:1.0;" x1="230.125" x2="230.125" y1="58.6982" y2="78.6982"/><polygon fill="#181818" points="226.125,68.6982,230.125,78.6982,234.125,68.6982,230.125,72.6982" style="stroke:#181818;stroke-width:1.0;"/><line style="stroke:#181818;stroke-width:1.0;" x1="230.125" x2="230.125" y1="126.6357" y2="146.6357"/><polygon fill="#181818" points="226.125,136.6357,230.125,146.6357,234.125,136.6357,230.125,140.6357" style="stroke:#181818;stroke-width:1.0;"/><line style="stroke:#181818;stroke-width:1.0;" x1="93" x2="93" y1="360.4795" y2="380.4795"/><polygon fill="#181818" points="89,370.4795,93,380.4795,97,370.4795,93,374.4795" style="stroke:#181818;stroke-width:1.0;"/><line style="stroke:#181818;stroke-width:1.0;" x1="523.25" x2="523.25" y1="262.5107" y2="282.5107"/><polygon fill="#181818" points="519.25,272.5107,523.25,282.5107,527.25,272.5107,523.25,276.5107" style="stroke:#181818;stroke-width:1.0;"/><line style="stroke:#181818;stroke-width:1.0;" x1="920.125" x2="996.375" y1="500.417" y2="500.417"/><line style="stroke:#181818;stroke-width:1.0;" x1="996.375" x2="996.375" y1="500.417" y2="532.417"/><polygon fill="#181818" points="992.375,522.417,996.375,532.417,1000.375,522.417,996.375,526.417" style="stroke:#181818;stroke-width:1.0;"/><line style="stroke:#181818;stroke-width:1.0;" x1="908.125" x2="908.125" y1="468.417" y2="488.417"/><polygon fill="#181818" points="904.125,478.417,908.125,488.417,912.125,478.417,908.125,482.417" style="stroke:#181818;stroke-width:1.0;"/><line style="stroke:#181818;stroke-width:1.0;" x1="908.125" x2="908.125" y1="682.292" y2="702.292"/><polygon fill="#181818" points="904.125,692.292,908.125,702.292,912.125,692.292,908.125,696.292" style="stroke:#181818;stroke-width:1.0;"/><line style="stroke:#181818;stroke-width:1.0;" x1="230.125" x2="230.125" y1="194.5732" y2="199.5732"/><line style="stroke:#181818;stroke-width:1.0;" x1="230.125" x2="523.25" y1="199.5732" y2="199.5732"/><line style="stroke:#181818;stroke-width:1.0;" x1="523.25" x2="523.25" y1="199.5732" y2="214.5732"/><polygon fill="#181818" points="519.25,204.5732,523.25,214.5732,527.25,204.5732,523.25,208.5732" style="stroke:#181818;stroke-width:1.0;"/><line style="stroke:#181818;stroke-width:1.0;" x1="367.25" x2="367.25" y1="360.4795" y2="365.4795"/><line style="stroke:#181818;stroke-width:1.0;" x1="367.25" x2="660.375" y1="365.4795" y2="365.4795"/><line style="stroke:#181818;stroke-width:1.0;" x1="660.375" x2="660.375" y1="365.4795" y2="380.4795"/><polygon fill="#181818" points="656.375,370.4795,660.375,380.4795,664.375,370.4795,660.375,374.4795" style="stroke:#181818;stroke-width:1.0;"/><line style="stroke:#181818;stroke-width:1.0;" x1="660.375" x2="660.375" y1="414.4482" y2="419.4482"/><line style="stroke:#181818;stroke-width:1.0;" x1="660.375" x2="908.125" y1="419.4482" y2="419.4482"/><line style="stroke:#181818;stroke-width:1.0;" x1="908.125" x2="908.125" y1="419.4482" y2="434.4482"/><polygon fill="#181818" points="904.125,424.4482,908.125,434.4482,912.125,424.4482,908.125,428.4482" style="stroke:#181818;stroke-width:1.0;"/><line style="stroke:#181818;stroke-width:1.0;" x1="996.375" x2="996.375" y1="566.3857" y2="571.3857"/><line style="stroke:#181818;stroke-width:1.0;" x1="996.375" x2="748.625" y1="571.3857" y2="571.3857"/><line style="stroke:#181818;stroke-width:1.0;" x1="748.625" x2="748.625" y1="571.3857" y2="586.3857"/><polygon fill="#181818" points="744.625,576.3857,748.625,586.3857,752.625,576.3857,748.625,580.3857" style="stroke:#181818;stroke-width:1.0;"/><line style="stroke:#181818;stroke-width:1.0;" x1="896.125" x2="572.125" y1="500.417" y2="500.417"/><line style="stroke:#181818;stroke-width:1.0;" x1="572.125" x2="572.125" y1="500.417" y2="532.417"/><polygon fill="#181818" points="568.125,522.417,572.125,532.417,576.125,522.417,572.125,526.417" style="stroke:#181818;stroke-width:1.0;"/><line style="stroke:#181818;stroke-width:1.0;" x1="572.125" x2="572.125" y1="566.3857" y2="670.292"/><line style="stroke:#181818;stroke-width:1.0;" x1="572.125" x2="896.125" y1="670.292" y2="670.292"/><polygon fill="#181818" points="886.125,666.292,896.125,670.292,886.125,674.292,890.125,670.292" style="stroke:#181818;stroke-width:1.0;"/><line style="stroke:#181818;stroke-width:1.0;" x1="748.625" x2="748.625" y1="648.292" y2="652.292"/><line style="stroke:#181818;stroke-width:1.0;" x1="748.625" x2="938.125" y1="652.292" y2="652.292"/><line style="stroke:#181818;stroke-width:1.0;" x1="938.125" x2="938.125" y1="652.292" y2="670.292"/><line style="stroke:#181818;stroke-width:1.0;" x1="938.125" x2="920.125" y1="670.292" y2="670.292"/><polygon fill="#181818" points="930.125,666.292,920.125,670.292,930.125,674.292,926.125,670.292" style="stroke:#181818;stroke-width:1.0;"/><line style="stroke:#181818;stroke-width:1.0;" x1="511.25" x2="93" y1="294.5107" y2="294.5107"/><line style="stroke:#181818;stroke-width:1.0;" x1="93" x2="93" y1="294.5107" y2="326.5107"/><polygon fill="#181818" points="89,316.5107,93,326.5107,97,316.5107,93,320.5107" style="stroke:#181818;stroke-width:1.0;"/><line style="stroke:#181818;stroke-width:1.0;" x1="535.25" x2="547.25" y1="294.5107" y2="294.5107"/><line style="stroke:#181818;stroke-width:1.0;" x1="547.25" x2="547.25" y1="294.5107" y2="312.5107"/><line style="stroke:#181818;stroke-width:1.0;" x1="547.25" x2="367.25" y1="312.5107" y2="312.5107"/><line style="stroke:#181818;stroke-width:1.0;" x1="367.25" x2="367.25" y1="312.5107" y2="326.5107"/><polygon fill="#181818" points="363.25,316.5107,367.25,326.5107,371.25,316.5107,367.25,320.5107" style="stroke:#181818;stroke-width:1.0;"/><text fill="#000000" font-family="sans-serif" font-size="18" lengthAdjust="spacing" textLength="63" x="199.125" y="29.4531">Doctor</text><text fill="#000000" font-family="sans-serif" font-size="18" lengthAdjust="spacing" textLength="69" x="601.1875" y="29.4531">System</text><text fill="#000000" font-family="sans-serif" font-size="18" lengthAdjust="spacing" textLength="88" x="891.25" y="29.4531">Database</text><!--SRC=[VL7BZi8m3BpdAwoUu1VQqmhsm6sbIfnwILCNh4qTI5m4gtxyfcafx4Fa42dsP3mp7hREYFE32gAzgFpzYgONXEpD25r8RXMNgBqvmgxhUgOlBUGOIdF4fhUO5IelqQ8H27EfOaPi0ZInBCI7GWtbBGXsWygt54vMty0uRibtYQlY3aFG1wpTjO1q5BMmMeCSaM6rqMpGhjNO6EvgnqU-iMG-8Pi06TIzYECYzP0RXJPW_3wDUlL_GlmaM3Gdv8Tt9efSF877Suz1PknMYwvrm1czrvOQ7KECbvuWpuPsV1a1gJl9-ZCmqTp3Gk-T1tP2BPaKsUmn-Tl_nxK8Yba- -4Rnpw9UZmsz6Jt7TJvDhbXp0vQ2W6kNbOS7NmoUsj-f176dRm00]--></g></svg>