<?xml version="1.0" encoding="us-ascii" standalone="no"?><svg xmlns="http://www.w3.org/2000/svg" xmlns:xlink="http://www.w3.org/1999/xlink" contentStyleType="text/css" height="407px" preserveAspectRatio="none" style="width:718px;height:407px;background:#FFFFFF;" version="1.1" viewBox="0 0 718 407" width="718px" zoomAndPan="magnify"><defs/><g><rect fill="none" height="20.9531" style="stroke:none;stroke-width:1.0;" width="685" x="15" y="12.7451"/><rect fill="#F1F1F1" height="33.9688" rx="12.5" ry="12.5" style="stroke:#181818;stroke-width:0.5;" width="117" x="178.5" y="146.6357"/><text fill="#000000" font-family="sans-serif" font-size="12" lengthAdjust="spacing" textLength="97" x="188.5" y="167.7744">Choose function</text><polygon fill="#F1F1F1" points="70,200.6045,70,200.6045,82,212.6045,70,224.6045,70,224.6045,58,212.6045,70,200.6045" style="stroke:#181818;stroke-width:0.5;"/><text fill="#000000" font-family="sans-serif" font-size="11" lengthAdjust="spacing" textLength="39" x="74" y="234.8149">Create</text><rect fill="#F1F1F1" height="75.875" rx="12.5" ry="12.5" style="stroke:#181818;stroke-width:0.5;" width="98" x="21" y="257.4092"/><text fill="#000000" font-family="sans-serif" font-size="12" lengthAdjust="spacing" textLength="43" x="31" y="278.5479">Activity</text><text fill="#000000" font-family="sans-serif" font-size="12" lengthAdjust="spacing" textLength="40" x="31" y="292.5166">Create</text><text fill="#000000" font-family="sans-serif" font-size="12" lengthAdjust="spacing" textLength="78" x="31" y="306.4854">Immunization</text><text fill="#000000" font-family="sans-serif" font-size="12" lengthAdjust="spacing" textLength="56" x="31" y="320.4541">Schedule</text><polygon fill="#F1F1F1" points="178,200.6045,178,200.6045,190,212.6045,178,224.6045,178,224.6045,166,212.6045,178,200.6045" style="stroke:#181818;stroke-width:0.5;"/><text fill="#000000" font-family="sans-serif" font-size="11" lengthAdjust="spacing" textLength="41" x="182" y="234.8149">Update</text><rect fill="#F1F1F1" height="75.875" rx="12.5" ry="12.5" style="stroke:#181818;stroke-width:0.5;" width="98" x="129" y="257.4092"/><text fill="#000000" font-family="sans-serif" font-size="12" lengthAdjust="spacing" textLength="43" x="139" y="278.5479">Activity</text><text fill="#000000" font-family="sans-serif" font-size="12" lengthAdjust="spacing" textLength="44" x="139" y="292.5166">Update</text><text fill="#000000" font-family="sans-serif" font-size="12" lengthAdjust="spacing" textLength="78" x="139" y="306.4854">Immunization</text><text fill="#000000" font-family="sans-serif" font-size="12" lengthAdjust="spacing" textLength="56" x="139" y="320.4541">Schedule</text><polygon fill="#F1F1F1" points="296,200.6045,296,200.6045,308,212.6045,296,224.6045,296,224.6045,284,212.6045,296,200.6045" style="stroke:#181818;stroke-width:0.5;"/><text fill="#000000" font-family="sans-serif" font-size="11" lengthAdjust="spacing" textLength="40" x="300" y="234.8149">Delete</text><text fill="#000000" font-family="sans-serif" font-size="11" lengthAdjust="spacing" textLength="40" x="308" y="210.0103">Search</text><rect fill="#F1F1F1" height="75.875" rx="12.5" ry="12.5" style="stroke:#181818;stroke-width:0.5;" width="98" x="247" y="257.4092"/><text fill="#000000" font-family="sans-serif" font-size="12" lengthAdjust="spacing" textLength="43" x="257" y="278.5479">Activity</text><text fill="#000000" font-family="sans-serif" font-size="12" lengthAdjust="spacing" textLength="40" x="257" y="292.5166">Delete</text><text fill="#000000" font-family="sans-serif" font-size="12" lengthAdjust="spacing" textLength="78" x="257" y="306.4854">Immunization</text><text fill="#000000" font-family="sans-serif" font-size="12" lengthAdjust="spacing" textLength="56" x="257" y="320.4541">Schedule</text><rect fill="#F1F1F1" height="75.875" rx="12.5" ry="12.5" style="stroke:#181818;stroke-width:0.5;" width="98" x="358" y="254.0068"/><text fill="#000000" font-family="sans-serif" font-size="12" lengthAdjust="spacing" textLength="43" x="368" y="275.1455">Activity</text><text fill="#000000" font-family="sans-serif" font-size="12" lengthAdjust="spacing" textLength="42" x="368" y="289.1143">Search</text><text fill="#000000" font-family="sans-serif" font-size="12" lengthAdjust="spacing" textLength="78" x="368" y="303.083">Immunization</text><text fill="#000000" font-family="sans-serif" font-size="12" lengthAdjust="spacing" textLength="56" x="368" y="317.0518">Schedule</text><line style="stroke:#000000;stroke-width:1.5;" x1="15" x2="15" y1="12.7451" y2="395.2842"/><ellipse cx="531" cy="48.6982" fill="#222222" rx="10" ry="10" style="stroke:#222222;stroke-width:1.0;"/><rect fill="#F1F1F1" height="47.9375" rx="12.5" ry="12.5" style="stroke:#181818;stroke-width:0.5;" width="130" x="466" y="78.6982"/><text fill="#000000" font-family="sans-serif" font-size="12" lengthAdjust="spacing" textLength="103" x="476" y="99.8369">Display schedule</text><text fill="#000000" font-family="sans-serif" font-size="12" lengthAdjust="spacing" textLength="110" x="476" y="113.8057">management view</text><ellipse cx="531" cy="384.2842" fill="none" rx="11" ry="11" style="stroke:#222222;stroke-width:1.0;"/><ellipse cx="531" cy="384.2842" fill="#222222" rx="6" ry="6" style="stroke:#222222;stroke-width:1.0;"/><line style="stroke:#000000;stroke-width:1.5;" x1="460" x2="460" y1="12.7451" y2="395.2842"/><line style="stroke:#000000;stroke-width:1.5;" x1="600" x2="600" y1="12.7451" y2="395.2842"/><line style="stroke:#000000;stroke-width:1.5;" x1="698" x2="698" y1="12.7451" y2="395.2842"/><line style="stroke:#181818;stroke-width:1.0;" x1="70" x2="70" y1="224.6045" y2="257.4092"/><polygon fill="#181818" points="66,247.4092,70,257.4092,74,247.4092,70,251.4092" style="stroke:#181818;stroke-width:1.0;"/><line style="stroke:#181818;stroke-width:1.0;" x1="70" x2="70" y1="333.2842" y2="353.2842"/><polygon fill="#181818" points="66,343.2842,70,353.2842,74,343.2842,70,347.2842" style="stroke:#181818;stroke-width:1.0;"/><line style="stroke:#181818;stroke-width:1.0;" x1="178" x2="178" y1="224.6045" y2="257.4092"/><polygon fill="#181818" points="174,247.4092,178,257.4092,182,247.4092,178,251.4092" style="stroke:#181818;stroke-width:1.0;"/><line style="stroke:#181818;stroke-width:1.0;" x1="178" x2="178" y1="333.2842" y2="353.2842"/><polygon fill="#181818" points="174,343.2842,178,353.2842,182,343.2842,178,347.2842" style="stroke:#181818;stroke-width:1.0;"/><line style="stroke:#181818;stroke-width:1.0;" x1="296" x2="296" y1="224.6045" y2="257.4092"/><polygon fill="#181818" points="292,247.4092,296,257.4092,300,247.4092,296,251.4092" style="stroke:#181818;stroke-width:1.0;"/><line style="stroke:#181818;stroke-width:1.0;" x1="296" x2="296" y1="333.2842" y2="353.2842"/><polygon fill="#181818" points="292,343.2842,296,353.2842,300,343.2842,296,347.2842" style="stroke:#181818;stroke-width:1.0;"/><line style="stroke:#181818;stroke-width:1.0;" x1="82" x2="166" y1="212.6045" y2="212.6045"/><polygon fill="#181818" points="156,208.6045,166,212.6045,156,216.6045,160,212.6045" style="stroke:#181818;stroke-width:1.0;"/><line style="stroke:#181818;stroke-width:1.0;" x1="190" x2="284" y1="212.6045" y2="212.6045"/><polygon fill="#181818" points="274,208.6045,284,212.6045,274,216.6045,278,212.6045" style="stroke:#181818;stroke-width:1.0;"/><line style="stroke:#181818;stroke-width:1.0;" x1="237" x2="237" y1="180.6045" y2="185.6045"/><line style="stroke:#181818;stroke-width:1.0;" x1="237" x2="70" y1="185.6045" y2="185.6045"/><line style="stroke:#181818;stroke-width:1.0;" x1="70" x2="70" y1="185.6045" y2="200.6045"/><polygon fill="#181818" points="66,190.6045,70,200.6045,74,190.6045,70,194.6045" style="stroke:#181818;stroke-width:1.0;"/><line style="stroke:#181818;stroke-width:1.0;" x1="308" x2="407" y1="212.6045" y2="212.6045"/><line style="stroke:#181818;stroke-width:1.0;" x1="407" x2="407" y1="212.6045" y2="254.0068"/><polygon fill="#181818" points="403,244.0068,407,254.0068,411,244.0068,407,248.0068" style="stroke:#181818;stroke-width:1.0;"/><line style="stroke:#181818;stroke-width:1.0;" x1="407" x2="407" y1="329.8818" y2="353.2842"/><polygon fill="#181818" points="403,343.2842,407,353.2842,411,343.2842,407,347.2842" style="stroke:#181818;stroke-width:1.0;"/><line style="stroke:#181818;stroke-width:1.0;" x1="70" x2="407" y1="353.2842" y2="353.2842"/><line style="stroke:#181818;stroke-width:1.0;" x1="531" x2="531" y1="58.6982" y2="78.6982"/><polygon fill="#181818" points="527,68.6982,531,78.6982,535,68.6982,531,72.6982" style="stroke:#181818;stroke-width:1.0;"/><line style="stroke:#181818;stroke-width:1.0;" x1="531" x2="531" y1="126.6357" y2="131.6357"/><line style="stroke:#181818;stroke-width:1.0;" x1="531" x2="237" y1="131.6357" y2="131.6357"/><line style="stroke:#181818;stroke-width:1.0;" x1="237" x2="237" y1="131.6357" y2="146.6357"/><polygon fill="#181818" points="233,136.6357,237,146.6357,241,136.6357,237,140.6357" style="stroke:#181818;stroke-width:1.0;"/><line style="stroke:#181818;stroke-width:1.0;" x1="237" x2="237" y1="353.2842" y2="358.2842"/><line style="stroke:#181818;stroke-width:1.0;" x1="237" x2="531" y1="358.2842" y2="358.2842"/><line style="stroke:#181818;stroke-width:1.0;" x1="531" x2="531" y1="358.2842" y2="373.2842"/><polygon fill="#181818" points="527,363.2842,531,373.2842,535,363.2842,531,367.2842" style="stroke:#181818;stroke-width:1.0;"/><text fill="#000000" font-family="sans-serif" font-size="18" lengthAdjust="spacing" textLength="63" x="206" y="29.4531">Doctor</text><text fill="#000000" font-family="sans-serif" font-size="18" lengthAdjust="spacing" textLength="69" x="495.5" y="29.4531">System</text><text fill="#000000" font-family="sans-serif" font-size="18" lengthAdjust="spacing" textLength="88" x="605" y="29.4531">Database</text><!--SRC=[bP0n3eCm303tlC8ZV06cYYoTKJSMDvWc4d4GCLHKFBuW66WhjUeMNNHdoxCEHa8_gxcSef1V7Xe5hnZfmA9WBohJBdOjJX2DfNfegMAFZ3Von0AZetk-s7ilAsm8aQ0Ps8WBd2lNG9A2M698YfvGA5K0sMdv7frC5M-muhFt0xi7hbh5vJui1qLjf6FbqjLh1Lup6_qZewcbZsKs-AC2IKdO6_lcRl2RoxLhZkSDtHC0]--></g></svg>