<?xml version="1.0" encoding="us-ascii" standalone="no"?><svg xmlns="http://www.w3.org/2000/svg" xmlns:xlink="http://www.w3.org/1999/xlink" contentStyleType="text/css" height="1036px" preserveAspectRatio="none" style="width:936px;height:1036px;background:#FFFFFF;" version="1.1" viewBox="0 0 936 1036" width="936px" zoomAndPan="magnify"><defs/><g><rect fill="none" height="20.9531" style="stroke:none;stroke-width:1.0;" width="903.5" x="15" y="12.7451"/><ellipse cx="125.5" cy="48.6982" fill="#222222" rx="10" ry="10" style="stroke:#222222;stroke-width:1.0;"/><rect fill="#F1F1F1" height="47.9375" rx="12.5" ry="12.5" style="stroke:#181818;stroke-width:0.5;" width="209" x="21" y="78.6982"/><text fill="#000000" font-family="sans-serif" font-size="12" lengthAdjust="spacing" textLength="100" x="31" y="99.8369">Execute "Activity</text><text fill="#000000" font-family="sans-serif" font-size="12" lengthAdjust="spacing" textLength="189" x="31" y="113.8057">Search Immunization Schedule"</text><rect fill="#F1F1F1" height="47.9375" rx="12.5" ry="12.5" style="stroke:#181818;stroke-width:0.5;" width="117" x="67" y="146.6357"/><text fill="#000000" font-family="sans-serif" font-size="12" lengthAdjust="spacing" textLength="97" x="77" y="167.7744">Select schedule</text><text fill="#000000" font-family="sans-serif" font-size="12" lengthAdjust="spacing" textLength="94" x="77" y="181.7432">needs updating</text><rect fill="#F1F1F1" height="47.9375" rx="12.5" ry="12.5" style="stroke:#181818;stroke-width:0.5;" width="110" x="70.5" y="434.4482"/><text fill="#000000" font-family="sans-serif" font-size="12" lengthAdjust="spacing" textLength="90" x="80.5" y="455.5869">Enter schedule</text><text fill="#000000" font-family="sans-serif" font-size="12" lengthAdjust="spacing" textLength="67" x="80.5" y="469.5557">information</text><polygon fill="#F1F1F1" points="125.5,390.4482,137.5,402.4482,125.5,414.4482,113.5,402.4482,125.5,390.4482" style="stroke:#181818;stroke-width:0.5;"/><rect fill="#F1F1F1" height="47.9375" rx="12.5" ry="12.5" style="stroke:#181818;stroke-width:0.5;" width="134" x="58.5" y="627.0649"/><text fill="#000000" font-family="sans-serif" font-size="12" lengthAdjust="spacing" textLength="114" x="68.5" y="648.2036">Click button "Save"</text><text fill="#000000" font-family="sans-serif" font-size="12" lengthAdjust="spacing" textLength="61" x="68.5" y="662.1724">to confirm</text><line style="stroke:#000000;stroke-width:1.5;" x1="15" x2="15" y1="12.7451" y2="1024.8462"/><rect fill="#F1F1F1" height="33.9688" rx="12.5" ry="12.5" style="stroke:#181818;stroke-width:0.5;" width="228" x="308.75" y="214.5732"/><text fill="#000000" font-family="sans-serif" font-size="12" lengthAdjust="spacing" textLength="208" x="318.75" y="235.7119">Get selected schedule information</text><rect fill="#F1F1F1" height="47.9375" rx="12.5" ry="12.5" style="stroke:#181818;stroke-width:0.5;" width="123" x="361.25" y="322.5107"/><text fill="#000000" font-family="sans-serif" font-size="12" lengthAdjust="spacing" textLength="103" x="371.25" y="343.6494">Display schedule</text><text fill="#000000" font-family="sans-serif" font-size="12" lengthAdjust="spacing" textLength="99" x="371.25" y="357.6182">information view</text><rect fill="#F1F1F1" height="33.9688" rx="12.5" ry="12.5" style="stroke:#181818;stroke-width:0.5;" width="141" x="352.25" y="517.3857"/><text fill="#000000" font-family="sans-serif" font-size="12" lengthAdjust="spacing" textLength="121" x="362.25" y="538.5244">Validate data format</text><polygon fill="#F1F1F1" points="422.75,571.3545,422.75,571.3545,434.75,583.3545,422.75,595.3545,422.75,595.3545,410.75,583.3545,422.75,571.3545" style="stroke:#181818;stroke-width:0.5;"/><text fill="#000000" font-family="sans-serif" font-size="11" lengthAdjust="spacing" textLength="57" x="426.75" y="605.5649">Valid data</text><text fill="#000000" font-family="sans-serif" font-size="11" lengthAdjust="spacing" textLength="66" x="434.75" y="580.7603">Invalid data</text><rect fill="#F1F1F1" height="33.9688" rx="12.5" ry="12.5" style="stroke:#181818;stroke-width:0.5;" width="168" x="517.25" y="475.917"/><text fill="#000000" font-family="sans-serif" font-size="12" lengthAdjust="spacing" textLength="148" x="527.25" y="497.0557">Display error notification</text><rect fill="#F1F1F1" height="33.9688" rx="12.5" ry="12.5" style="stroke:#181818;stroke-width:0.5;" width="175" x="335.25" y="695.0024"/><text fill="#000000" font-family="sans-serif" font-size="12" lengthAdjust="spacing" textLength="155" x="345.25" y="716.1411">Process updating request</text><rect fill="#F1F1F1" height="33.9688" rx="12.5" ry="12.5" style="stroke:#181818;stroke-width:0.5;" width="168" x="240" y="846.9399"/><text fill="#000000" font-family="sans-serif" font-size="12" lengthAdjust="spacing" textLength="148" x="250" y="868.0786">Display error notification</text><rect fill="#F1F1F1" height="47.9375" rx="12.5" ry="12.5" style="stroke:#181818;stroke-width:0.5;" width="187" x="428" y="900.9087"/><text fill="#000000" font-family="sans-serif" font-size="12" lengthAdjust="spacing" textLength="167" x="438" y="922.0474">Display success notification</text><text fill="#000000" font-family="sans-serif" font-size="12" lengthAdjust="spacing" textLength="125" x="438" y="936.0161">and list of schedules</text><line style="stroke:#000000;stroke-width:1.5;" x1="234" x2="234" y1="12.7451" y2="1024.8462"/><rect fill="#F1F1F1" height="33.9688" rx="12.5" ry="12.5" style="stroke:#181818;stroke-width:0.5;" width="87" x="728.75" y="268.542"/><text fill="#000000" font-family="sans-serif" font-size="12" lengthAdjust="spacing" textLength="67" x="738.75" y="289.6807">Query data</text><rect fill="#F1F1F1" height="33.9688" rx="12.5" ry="12.5" style="stroke:#181818;stroke-width:0.5;" width="98" x="723.25" y="748.9712"/><text fill="#000000" font-family="sans-serif" font-size="12" lengthAdjust="spacing" textLength="78" x="733.25" y="770.1099">Validate data</text><polygon fill="#F1F1F1" points="772.25,802.9399,772.25,802.9399,784.25,814.9399,772.25,826.9399,772.25,826.9399,760.25,814.9399,772.25,802.9399" style="stroke:#181818;stroke-width:0.5;"/><text fill="#000000" font-family="sans-serif" font-size="11" lengthAdjust="spacing" textLength="66" x="694.25" y="812.3457">Invalid data</text><text fill="#000000" font-family="sans-serif" font-size="11" lengthAdjust="spacing" textLength="57" x="784.25" y="812.3457">Valid data</text><rect fill="#F1F1F1" height="33.9688" rx="12.5" ry="12.5" style="stroke:#181818;stroke-width:0.5;" width="83" x="829.5" y="846.9399"/><text fill="#000000" font-family="sans-serif" font-size="12" lengthAdjust="spacing" textLength="63" x="839.5" y="868.0786">Store data</text><polygon fill="#F1F1F1" points="772.25,958.8462,784.25,970.8462,772.25,982.8462,760.25,970.8462,772.25,958.8462" style="stroke:#181818;stroke-width:0.5;"/><ellipse cx="772.25" cy="1013.8462" fill="none" rx="11" ry="11" style="stroke:#222222;stroke-width:1.0;"/><ellipse cx="772.25" cy="1013.8462" fill="#222222" rx="6" ry="6" style="stroke:#222222;stroke-width:1.0;"/><line style="stroke:#000000;stroke-width:1.5;" x1="689.25" x2="689.25" y1="12.7451" y2="1024.8462"/><line style="stroke:#000000;stroke-width:1.5;" x1="916.5" x2="916.5" y1="12.7451" y2="1024.8462"/><line style="stroke:#181818;stroke-width:1.0;" x1="125.5" x2="125.5" y1="58.6982" y2="78.6982"/><polygon fill="#181818" points="121.5,68.6982,125.5,78.6982,129.5,68.6982,125.5,72.6982" style="stroke:#181818;stroke-width:1.0;"/><line style="stroke:#181818;stroke-width:1.0;" x1="125.5" x2="125.5" y1="126.6357" y2="146.6357"/><polygon fill="#181818" points="121.5,136.6357,125.5,146.6357,129.5,136.6357,125.5,140.6357" style="stroke:#181818;stroke-width:1.0;"/><line style="stroke:#181818;stroke-width:1.0;" x1="125.5" x2="125.5" y1="414.4482" y2="434.4482"/><polygon fill="#181818" points="121.5,424.4482,125.5,434.4482,129.5,424.4482,125.5,428.4482" style="stroke:#181818;stroke-width:1.0;"/><line style="stroke:#181818;stroke-width:1.0;" x1="434.75" x2="601.25" y1="583.3545" y2="583.3545"/><line style="stroke:#181818;stroke-width:1.0;" x1="601.25" x2="601.25" y1="509.8857" y2="583.3545"/><polygon fill="#181818" points="597.25,519.8857,601.25,509.8857,605.25,519.8857,601.25,515.8857" style="stroke:#181818;stroke-width:1.0;"/><line style="stroke:#181818;stroke-width:1.0;" x1="422.75" x2="422.75" y1="551.3545" y2="571.3545"/><polygon fill="#181818" points="418.75,561.3545,422.75,571.3545,426.75,561.3545,422.75,565.3545" style="stroke:#181818;stroke-width:1.0;"/><line style="stroke:#181818;stroke-width:1.0;" x1="784.25" x2="871" y1="814.9399" y2="814.9399"/><line style="stroke:#181818;stroke-width:1.0;" x1="871" x2="871" y1="814.9399" y2="846.9399"/><polygon fill="#181818" points="867,836.9399,871,846.9399,875,836.9399,871,840.9399" style="stroke:#181818;stroke-width:1.0;"/><line style="stroke:#181818;stroke-width:1.0;" x1="772.25" x2="772.25" y1="782.9399" y2="802.9399"/><polygon fill="#181818" points="768.25,792.9399,772.25,802.9399,776.25,792.9399,772.25,796.9399" style="stroke:#181818;stroke-width:1.0;"/><line style="stroke:#181818;stroke-width:1.0;" x1="772.25" x2="772.25" y1="982.8462" y2="1002.8462"/><polygon fill="#181818" points="768.25,992.8462,772.25,1002.8462,776.25,992.8462,772.25,996.8462" style="stroke:#181818;stroke-width:1.0;"/><line style="stroke:#181818;stroke-width:1.0;" x1="125.5" x2="125.5" y1="194.5732" y2="199.5732"/><line style="stroke:#181818;stroke-width:1.0;" x1="125.5" x2="422.75" y1="199.5732" y2="199.5732"/><line style="stroke:#181818;stroke-width:1.0;" x1="422.75" x2="422.75" y1="199.5732" y2="214.5732"/><polygon fill="#181818" points="418.75,204.5732,422.75,214.5732,426.75,204.5732,422.75,208.5732" style="stroke:#181818;stroke-width:1.0;"/><line style="stroke:#181818;stroke-width:1.0;" x1="422.75" x2="422.75" y1="248.542" y2="253.542"/><line style="stroke:#181818;stroke-width:1.0;" x1="422.75" x2="772.25" y1="253.542" y2="253.542"/><line style="stroke:#181818;stroke-width:1.0;" x1="772.25" x2="772.25" y1="253.542" y2="268.542"/><polygon fill="#181818" points="768.25,258.542,772.25,268.542,776.25,258.542,772.25,262.542" style="stroke:#181818;stroke-width:1.0;"/><line style="stroke:#181818;stroke-width:1.0;" x1="772.25" x2="772.25" y1="302.5107" y2="307.5107"/><line style="stroke:#181818;stroke-width:1.0;" x1="772.25" x2="422.75" y1="307.5107" y2="307.5107"/><line style="stroke:#181818;stroke-width:1.0;" x1="422.75" x2="422.75" y1="307.5107" y2="322.5107"/><polygon fill="#181818" points="418.75,312.5107,422.75,322.5107,426.75,312.5107,422.75,316.5107" style="stroke:#181818;stroke-width:1.0;"/><line style="stroke:#181818;stroke-width:1.0;" x1="125.5" x2="125.5" y1="482.3857" y2="499.8857"/><line style="stroke:#181818;stroke-width:1.0;" x1="125.5" x2="422.75" y1="499.8857" y2="499.8857"/><line style="stroke:#181818;stroke-width:1.0;" x1="422.75" x2="422.75" y1="499.8857" y2="517.3857"/><polygon fill="#181818" points="418.75,507.3857,422.75,517.3857,426.75,507.3857,422.75,511.3857" style="stroke:#181818;stroke-width:1.0;"/><line style="stroke:#181818;stroke-width:1.0;" x1="601.25" x2="601.25" y1="402.4482" y2="475.917"/><line style="stroke:#181818;stroke-width:1.0;" x1="601.25" x2="137.5" y1="402.4482" y2="402.4482"/><polygon fill="#181818" points="147.5,398.4482,137.5,402.4482,147.5,406.4482,143.5,402.4482" style="stroke:#181818;stroke-width:1.0;"/><line style="stroke:#181818;stroke-width:1.0;" x1="422.75" x2="422.75" y1="370.4482" y2="375.4482"/><line style="stroke:#181818;stroke-width:1.0;" x1="422.75" x2="125.5" y1="375.4482" y2="375.4482"/><line style="stroke:#181818;stroke-width:1.0;" x1="125.5" x2="125.5" y1="375.4482" y2="390.4482"/><polygon fill="#181818" points="121.5,380.4482,125.5,390.4482,129.5,380.4482,125.5,384.4482" style="stroke:#181818;stroke-width:1.0;"/><line style="stroke:#181818;stroke-width:1.0;" x1="422.75" x2="422.75" y1="595.3545" y2="612.0649"/><line style="stroke:#181818;stroke-width:1.0;" x1="422.75" x2="125.5" y1="612.0649" y2="612.0649"/><line style="stroke:#181818;stroke-width:1.0;" x1="125.5" x2="125.5" y1="612.0649" y2="627.0649"/><polygon fill="#181818" points="121.5,617.0649,125.5,627.0649,129.5,617.0649,125.5,621.0649" style="stroke:#181818;stroke-width:1.0;"/><line style="stroke:#181818;stroke-width:1.0;" x1="125.5" x2="125.5" y1="675.0024" y2="680.0024"/><line style="stroke:#181818;stroke-width:1.0;" x1="125.5" x2="422.75" y1="680.0024" y2="680.0024"/><line style="stroke:#181818;stroke-width:1.0;" x1="422.75" x2="422.75" y1="680.0024" y2="695.0024"/><polygon fill="#181818" points="418.75,685.0024,422.75,695.0024,426.75,685.0024,422.75,689.0024" style="stroke:#181818;stroke-width:1.0;"/><line style="stroke:#181818;stroke-width:1.0;" x1="422.75" x2="422.75" y1="728.9712" y2="733.9712"/><line style="stroke:#181818;stroke-width:1.0;" x1="422.75" x2="772.25" y1="733.9712" y2="733.9712"/><line style="stroke:#181818;stroke-width:1.0;" x1="772.25" x2="772.25" y1="733.9712" y2="748.9712"/><polygon fill="#181818" points="768.25,738.9712,772.25,748.9712,776.25,738.9712,772.25,742.9712" style="stroke:#181818;stroke-width:1.0;"/><line style="stroke:#181818;stroke-width:1.0;" x1="871" x2="871" y1="880.9087" y2="885.9087"/><line style="stroke:#181818;stroke-width:1.0;" x1="871" x2="521.5" y1="885.9087" y2="885.9087"/><line style="stroke:#181818;stroke-width:1.0;" x1="521.5" x2="521.5" y1="885.9087" y2="900.9087"/><polygon fill="#181818" points="517.5,890.9087,521.5,900.9087,525.5,890.9087,521.5,894.9087" style="stroke:#181818;stroke-width:1.0;"/><line style="stroke:#181818;stroke-width:1.0;" x1="760.25" x2="324" y1="814.9399" y2="814.9399"/><line style="stroke:#181818;stroke-width:1.0;" x1="324" x2="324" y1="814.9399" y2="846.9399"/><polygon fill="#181818" points="320,836.9399,324,846.9399,328,836.9399,324,840.9399" style="stroke:#181818;stroke-width:1.0;"/><line style="stroke:#181818;stroke-width:1.0;" x1="324" x2="324" y1="880.9087" y2="970.8462"/><line style="stroke:#181818;stroke-width:1.0;" x1="324" x2="760.25" y1="970.8462" y2="970.8462"/><polygon fill="#181818" points="750.25,966.8462,760.25,970.8462,750.25,974.8462,754.25,970.8462" style="stroke:#181818;stroke-width:1.0;"/><line style="stroke:#181818;stroke-width:1.0;" x1="521.5" x2="521.5" y1="948.8462" y2="952.8462"/><line style="stroke:#181818;stroke-width:1.0;" x1="521.5" x2="802.25" y1="952.8462" y2="952.8462"/><line style="stroke:#181818;stroke-width:1.0;" x1="802.25" x2="802.25" y1="952.8462" y2="970.8462"/><line style="stroke:#181818;stroke-width:1.0;" x1="802.25" x2="784.25" y1="970.8462" y2="970.8462"/><polygon fill="#181818" points="794.25,966.8462,784.25,970.8462,794.25,974.8462,790.25,970.8462" style="stroke:#181818;stroke-width:1.0;"/><text fill="#000000" font-family="sans-serif" font-size="18" lengthAdjust="spacing" textLength="63" x="93" y="29.4531">Doctor</text><text fill="#000000" font-family="sans-serif" font-size="18" lengthAdjust="spacing" textLength="69" x="427.125" y="29.4531">System</text><text fill="#000000" font-family="sans-serif" font-size="18" lengthAdjust="spacing" textLength="88" x="758.875" y="29.4531">Database</text><!--SRC=[VP6zReCm4CTtFyM9ANa5cAecghArGih4ufYZd08sjGzIAXw-nYI19gZURF_y_pWFEwFOs44ubfP5lFz6rJ92zAAOEk8-qobAgqeur7MhwKSo6GsfAZ5lAumI4QTOeM9mrwDCQyJSGTladjMVYHZItZ7MWuZVq7C1n_p-04WNnjP1sCCxoV8a7GuWueyMRGzUHovLTkIQIlOBnuK2T8INH5XiKB80luPRnN4JxpMZNN-QJFZD9-17MP7tnn029dJYJbATBzBcSC-3rXeBsZ0LfAwAKmwubEIBRhP03ZO7tOsgGN8xyh0vpWShcLyhKcSujSo-NvJA3gDCim5bT46sNilzRer2D_y2MFngqLsppqDUQJaXL8nnkKJz43ZSFXa6cVy6CG9OENpk-ZSGmAoN-X4iC_tlwbeLAYzzCorr3XKv1bFSVztDSgXpAXvdujWqlm00]--></g></svg>