<?xml version="1.0" encoding="us-ascii" standalone="no"?><svg xmlns="http://www.w3.org/2000/svg" xmlns:xlink="http://www.w3.org/1999/xlink" contentStyleType="text/css" height="927px" preserveAspectRatio="none" style="width:958px;height:927px;background:#FFFFFF;" version="1.1" viewBox="0 0 958 927" width="958px" zoomAndPan="magnify"><defs/><g><!--cluster Child Health Care App--><g id="cluster_Child Health Care App"><rect fill="none" height="914" rx="2.5" ry="2.5" style="stroke:#181818;stroke-width:1.0;" width="791" x="161" y="7"/><text fill="#000000" font-family="sans-serif" font-size="14" font-weight="bold" lengthAdjust="spacing" textLength="175" x="469" y="21.9951">Child Health Care App</text></g><g id="elem_ManageDoctor"><ellipse cx="264.1676" cy="216.1335" fill="#F1F1F1" rx="76.1676" ry="17.6335" style="stroke:#181818;stroke-width:0.5;"/><text fill="#000000" font-family="sans-serif" font-size="14" lengthAdjust="spacing" textLength="109" x="206.6676" y="219.8811">Manage Doctor</text></g><g id="elem_CreateDoctor"><ellipse cx="559.3343" cy="286.1669" fill="#F1F1F1" rx="73.8343" ry="17.1669" style="stroke:#181818;stroke-width:0.5;"/><text fill="#000000" font-family="sans-serif" font-size="14" lengthAdjust="spacing" textLength="103" x="504.8343" y="289.9144">Create Doctor</text></g><g id="elem_UpdateDoctor"><ellipse cx="559.4948" cy="215.899" fill="#F1F1F1" rx="74.9948" ry="17.399" style="stroke:#181818;stroke-width:0.5;"/><text fill="#000000" font-family="sans-serif" font-size="14" lengthAdjust="spacing" textLength="106" x="503.4948" y="219.6465">Update Doctor</text></g><g id="elem_DeleteDoctor"><ellipse cx="559.3343" cy="146.1669" fill="#F1F1F1" rx="73.8343" ry="17.1669" style="stroke:#181818;stroke-width:0.5;"/><text fill="#000000" font-family="sans-serif" font-size="14" lengthAdjust="spacing" textLength="103" x="504.8343" y="149.9144">Delete Doctor</text></g><g id="elem_SearchDoctor"><ellipse cx="851.8343" cy="146.1669" fill="#F1F1F1" rx="73.8343" ry="17.1669" style="stroke:#181818;stroke-width:0.5;"/><text fill="#000000" font-family="sans-serif" font-size="14" lengthAdjust="spacing" textLength="103" x="797.3343" y="149.9144">Search Doctor</text></g><g id="elem_ManageParent"><ellipse cx="263.8844" cy="510.9769" fill="#F1F1F1" rx="75.3844" ry="17.4769" style="stroke:#181818;stroke-width:0.5;"/><text fill="#000000" font-family="sans-serif" font-size="14" lengthAdjust="spacing" textLength="107" x="207.3844" y="514.7244">Manage Parent</text></g><g id="elem_CreateParent"><ellipse cx="559.5678" cy="580.0136" fill="#F1F1F1" rx="73.0678" ry="17.0136" style="stroke:#181818;stroke-width:0.5;"/><text fill="#000000" font-family="sans-serif" font-size="14" lengthAdjust="spacing" textLength="101" x="506.0678" y="583.7611">Create Parent</text></g><g id="elem_UpdateParent"><ellipse cx="559.7198" cy="511.244" fill="#F1F1F1" rx="74.2198" ry="17.244" style="stroke:#181818;stroke-width:0.5;"/><text fill="#000000" font-family="sans-serif" font-size="14" lengthAdjust="spacing" textLength="104" x="504.7198" y="514.9915">Update Parent</text></g><g id="elem_DeleteParent"><ellipse cx="559.5678" cy="442.0136" fill="#F1F1F1" rx="73.0678" ry="17.0136" style="stroke:#181818;stroke-width:0.5;"/><text fill="#000000" font-family="sans-serif" font-size="14" lengthAdjust="spacing" textLength="101" x="506.0678" y="445.7611">Delete Parent</text></g><g id="elem_SearchParent"><ellipse cx="852.0678" cy="442.0136" fill="#F1F1F1" rx="73.0678" ry="17.0136" style="stroke:#181818;stroke-width:0.5;"/><text fill="#000000" font-family="sans-serif" font-size="14" lengthAdjust="spacing" textLength="101" x="798.5678" y="445.7611">Search Parent</text></g><g id="elem_ManageDocument"><ellipse cx="264.0998" cy="680.22" fill="#F1F1F1" rx="86.5998" ry="19.72" style="stroke:#181818;stroke-width:0.5;"/><text fill="#000000" font-family="sans-serif" font-size="14" lengthAdjust="spacing" textLength="134" x="197.0998" y="683.0666">Manage Document</text></g><g id="elem_CreateDocument"><ellipse cx="559.495" cy="886.199" fill="#F1F1F1" rx="83.995" ry="19.199" style="stroke:#181818;stroke-width:0.5;"/><text fill="#000000" font-family="sans-serif" font-size="14" lengthAdjust="spacing" textLength="128" x="495.2335" y="889.1356">Create Document</text></g><g id="elem_UpdateDocument"><ellipse cx="559.2932" cy="811.9586" fill="#F1F1F1" rx="85.2932" ry="19.4586" style="stroke:#181818;stroke-width:0.5;"/><text fill="#000000" font-family="sans-serif" font-size="14" lengthAdjust="spacing" textLength="131" x="493.7932" y="814.8053">Update Document</text></g><g id="elem_DeleteDocument"><ellipse cx="559.495" cy="738.199" fill="#F1F1F1" rx="83.995" ry="19.199" style="stroke:#181818;stroke-width:0.5;"/><text fill="#000000" font-family="sans-serif" font-size="14" lengthAdjust="spacing" textLength="128" x="495.2335" y="741.1356">Delete Document</text></g><g id="elem_SearchDocument"><ellipse cx="851.995" cy="738.199" fill="#F1F1F1" rx="83.995" ry="19.199" style="stroke:#181818;stroke-width:0.5;"/><text fill="#000000" font-family="sans-serif" font-size="14" lengthAdjust="spacing" textLength="128" x="787.7335" y="741.1356">Search Document</text></g><g id="elem_ViewUserReport"><ellipse cx="264.0368" cy="754.8074" fill="#F1F1F1" rx="87.0368" ry="19.8074" style="stroke:#181818;stroke-width:0.5;"/><text fill="#000000" font-family="sans-serif" font-size="14" lengthAdjust="spacing" textLength="135" x="196.5368" y="757.654">View User's Report</text></g><!--entity Admin--><g id="elem_Admin"><ellipse cx="29" cy="545.5" fill="#F1F1F1" rx="8" ry="8" style="stroke:#181818;stroke-width:0.5;"/><path d="M29,553.5 L29,580.5 M16,561.5 L42,561.5 M29,580.5 L16,595.5 M29,580.5 L42,595.5 " fill="none" style="stroke:#181818;stroke-width:0.5;"/><text fill="#000000" font-family="sans-serif" font-size="14" lengthAdjust="spacing" textLength="46" x="6" y="609.9951">Admin</text></g><!--link Admin to ManageDoctor--><g id="link_Admin_ManageDoctor"><path d="M52.1301,540.902 C100.7489,465.992 215.437,289.283 251.761,233.317 " fill="none" id="Admin-ManageDoctor" style="stroke:#181818;stroke-width:1.0;"/></g><!--reverse link ManageDoctor to CreateDoctor--><g id="link_ManageDoctor_CreateDoctor"><path d="M323.3083,229.907 C377.0603,242.727 454.242,261.134 507.465,273.828 " fill="none" id="ManageDoctor-backto-CreateDoctor" style="stroke:#181818;stroke-width:1.0;stroke-dasharray:7.0,7.0;"/><polygon fill="#181818" points="317.472,228.515,325.2985,234.4938,322.3356,229.675,327.1544,226.7121,317.472,228.515" style="stroke:#181818;stroke-width:1.0;"/><text fill="#000000" font-family="sans-serif" font-size="13" lengthAdjust="spacing" textLength="61" x="382" y="241.0669">&#171;extend&#187;</text></g><!--reverse link ManageDoctor to UpdateDoctor--><g id="link_ManageDoctor_UpdateDoctor"><path d="M346.202,216 C390.447,216 440.179,216 484.256,216 " fill="none" id="ManageDoctor-backto-UpdateDoctor" style="stroke:#181818;stroke-width:1.0;stroke-dasharray:7.0,7.0;"/><polygon fill="#181818" points="340.202,216,349.202,220,345.202,216,349.202,212,340.202,216" style="stroke:#181818;stroke-width:1.0;"/><text fill="#000000" font-family="sans-serif" font-size="13" lengthAdjust="spacing" textLength="61" x="382" y="212.0669">&#171;extend&#187;</text></g><!--reverse link ManageDoctor to DeleteDoctor--><g id="link_ManageDoctor_DeleteDoctor"><path d="M323.3083,202.093 C377.0603,189.273 454.242,170.866 507.465,158.172 " fill="none" id="ManageDoctor-backto-DeleteDoctor" style="stroke:#181818;stroke-width:1.0;stroke-dasharray:7.0,7.0;"/><polygon fill="#181818" points="317.472,203.485,327.1544,205.2879,322.3356,202.325,325.2985,197.5062,317.472,203.485" style="stroke:#181818;stroke-width:1.0;"/><text fill="#000000" font-family="sans-serif" font-size="13" lengthAdjust="spacing" textLength="61" x="382" y="171.0669">&#171;extend&#187;</text></g><!--link UpdateDoctor to SearchDoctor--><g id="link_UpdateDoctor_SearchDoctor"><path d="M612.436,203.485 C665.475,190.705 741.471,172.3925 794.168,159.6945 " fill="none" id="UpdateDoctor-to-SearchDoctor" style="stroke:#181818;stroke-width:1.0;stroke-dasharray:7.0,7.0;"/><polygon fill="#181818" points="800.001,158.289,790.3144,156.5086,795.1401,159.4603,792.1885,164.286,800.001,158.289" style="stroke:#181818;stroke-width:1.0;"/><text fill="#000000" font-family="sans-serif" font-size="13" lengthAdjust="spacing" textLength="61" x="676" y="171.0669">&#171;include&#187;</text></g><!--link DeleteDoctor to SearchDoctor--><g id="link_DeleteDoctor_SearchDoctor"><path d="M633.805,146 C677.927,146 727.898,146 771.97,146 " fill="none" id="DeleteDoctor-to-SearchDoctor" style="stroke:#181818;stroke-width:1.0;stroke-dasharray:7.0,7.0;"/><polygon fill="#181818" points="777.97,146,768.97,142,772.97,146,768.97,150,777.97,146" style="stroke:#181818;stroke-width:1.0;"/><text fill="#000000" font-family="sans-serif" font-size="13" lengthAdjust="spacing" textLength="61" x="676" y="142.0669">&#171;include&#187;</text></g><!--reverse link ManageDoctor to SearchDoctor--><g id="link_ManageDoctor_SearchDoctor"><path d="M292.8379,195.822 C329.7509,170.103 400.752,125.737 474,111 C591.284,87.404 732.353,115.049 804.108,133.002 " fill="none" id="ManageDoctor-backto-SearchDoctor" style="stroke:#181818;stroke-width:1.0;stroke-dasharray:7.0,7.0;"/><polygon fill="#181818" points="287.915,199.252,297.586,197.3889,292.0174,196.3937,293.0127,190.825,287.915,199.252" style="stroke:#181818;stroke-width:1.0;"/><text fill="#000000" font-family="sans-serif" font-size="13" lengthAdjust="spacing" textLength="61" x="529" y="98.0669">&#171;extend&#187;</text></g><!--link Admin to ManageParent--><g id="link_Admin_ManageParent"><path d="M52.341,568.863 C89.4732,558.664 164.723,537.994 214.497,524.323 " fill="none" id="Admin-ManageParent" style="stroke:#181818;stroke-width:1.0;"/></g><!--reverse link ManageParent to CreateParent--><g id="link_ManageParent_CreateParent"><path d="M323.6518,524.7891 C377.4548,537.4371 454.48,555.546 507.587,568.031 " fill="none" id="ManageParent-backto-CreateParent" style="stroke:#181818;stroke-width:1.0;stroke-dasharray:7.0,7.0;"/><polygon fill="#181818" points="317.811,523.416,325.6568,529.3694,322.6783,524.5602,327.4875,521.5817,317.811,523.416" style="stroke:#181818;stroke-width:1.0;"/><text fill="#000000" font-family="sans-serif" font-size="13" lengthAdjust="spacing" textLength="61" x="382" y="535.0669">&#171;extend&#187;</text></g><!--reverse link ManageParent to UpdateParent--><g id="link_ManageParent_UpdateParent"><path d="M345.822,511 C390.489,511 440.968,511 485.338,511 " fill="none" id="ManageParent-backto-UpdateParent" style="stroke:#181818;stroke-width:1.0;stroke-dasharray:7.0,7.0;"/><polygon fill="#181818" points="339.822,511,348.822,515,344.822,511,348.822,507,339.822,511" style="stroke:#181818;stroke-width:1.0;"/><text fill="#000000" font-family="sans-serif" font-size="13" lengthAdjust="spacing" textLength="61" x="382" y="507.0669">&#171;extend&#187;</text></g><!--reverse link ManageParent to DeleteParent--><g id="link_ManageParent_DeleteParent"><path d="M323.6518,497.2109 C377.4548,484.5629 454.48,466.454 507.587,453.969 " fill="none" id="ManageParent-backto-DeleteParent" style="stroke:#181818;stroke-width:1.0;stroke-dasharray:7.0,7.0;"/><polygon fill="#181818" points="317.811,498.584,327.4875,500.4183,322.6783,497.4398,325.6568,492.6306,317.811,498.584" style="stroke:#181818;stroke-width:1.0;"/><text fill="#000000" font-family="sans-serif" font-size="13" lengthAdjust="spacing" textLength="61" x="382" y="466.0669">&#171;extend&#187;</text></g><!--link UpdateParent to SearchParent--><g id="link_UpdateParent_SearchParent"><path d="M611.767,498.823 C664.867,486.211 741.4974,468.0096 794.4084,455.4416 " fill="none" id="UpdateParent-to-SearchParent" style="stroke:#181818;stroke-width:1.0;stroke-dasharray:7.0,7.0;"/><polygon fill="#181818" points="800.246,454.055,790.5652,452.2432,795.3814,455.2105,792.414,460.0266,800.246,454.055" style="stroke:#181818;stroke-width:1.0;"/><text fill="#000000" font-family="sans-serif" font-size="13" lengthAdjust="spacing" textLength="61" x="676" y="466.0669">&#171;include&#187;</text></g><!--link DeleteParent to SearchParent--><g id="link_DeleteParent_SearchParent"><path d="M632.682,442 C677.296,442 728.346,442 772.938,442 " fill="none" id="DeleteParent-to-SearchParent" style="stroke:#181818;stroke-width:1.0;stroke-dasharray:7.0,7.0;"/><polygon fill="#181818" points="778.938,442,769.938,438,773.938,442,769.938,446,778.938,442" style="stroke:#181818;stroke-width:1.0;"/><text fill="#000000" font-family="sans-serif" font-size="13" lengthAdjust="spacing" textLength="61" x="676" y="438.0669">&#171;include&#187;</text></g><!--reverse link ManageParent to SearchParent--><g id="link_ManageParent_SearchParent"><path d="M293.2002,490.8636 C330.2722,465.4406 401.097,421.97 474,408 C590.984,385.584 731.297,411.952 803.264,429.263 " fill="none" id="ManageParent-backto-SearchParent" style="stroke:#181818;stroke-width:1.0;stroke-dasharray:7.0,7.0;"/><polygon fill="#181818" points="288.252,494.257,297.9366,492.4658,292.3755,491.4292,293.4121,485.8681,288.252,494.257" style="stroke:#181818;stroke-width:1.0;"/><text fill="#000000" font-family="sans-serif" font-size="13" lengthAdjust="spacing" textLength="61" x="529" y="395.0669">&#171;extend&#187;</text></g><!--link Admin to ManageDocument--><g id="link_Admin_ManageDocument"><path d="M52.341,585.068 C91.9791,602.93 175.053,640.367 224.206,662.518 " fill="none" id="Admin-ManageDocument" style="stroke:#181818;stroke-width:1.0;"/></g><!--reverse link ManageDocument to CreateDocument--><g id="link_ManageDocument_CreateDocument"><path d="M322.7636,697.9328 C335.0046,703.4888 341.705,708.369 351,718 C375.931,743.833 357.744,765.649 381,793 C412.254,829.757 431.145,826.833 474,849 C487.94,856.2106 503.59,863.3228 517.599,869.3552 " fill="none" id="ManageDocument-backto-CreateDocument" style="stroke:#181818;stroke-width:1.0;stroke-dasharray:7.0,7.0;"/><polygon fill="#181818" points="317.3,695.453,323.8421,702.8151,321.853,697.5195,327.1486,695.5304,317.3,695.453" style="stroke:#181818;stroke-width:1.0;"/><text fill="#000000" font-family="sans-serif" font-size="13" lengthAdjust="spacing" textLength="61" x="382" y="789.0669">&#171;extend&#187;</text></g><!--reverse link ManageDocument to UpdateDocument--><g id="link_ManageDocument_UpdateDocument"><path d="M313.2999,699.3401 C327.3509,705.4181 337.35,710.304 351,718 C365.177,725.993 366.721,731.191 381,739 C423.389,762.182 474.704,782.523 511.235,795.804 " fill="none" id="ManageDocument-backto-UpdateDocument" style="stroke:#181818;stroke-width:1.0;stroke-dasharray:7.0,7.0;"/><polygon fill="#181818" points="307.793,696.958,314.4652,704.2024,312.3821,698.9431,317.6414,696.8599,307.793,696.958" style="stroke:#181818;stroke-width:1.0;"/><text fill="#000000" font-family="sans-serif" font-size="13" lengthAdjust="spacing" textLength="61" x="382" y="735.0669">&#171;extend&#187;</text></g><!--reverse link ManageDocument to DeleteDocument--><g id="link_ManageDocument_DeleteDocument"><path d="M335.6592,693.9632 C385.0372,703.7212 446.761,715.919 495.655,725.581 " fill="none" id="ManageDocument-backto-DeleteDocument" style="stroke:#181818;stroke-width:1.0;stroke-dasharray:7.0,7.0;"/><polygon fill="#181818" points="329.773,692.8,337.8268,698.4689,334.6781,693.7693,339.3777,690.6207,329.773,692.8" style="stroke:#181818;stroke-width:1.0;"/><text fill="#000000" font-family="sans-serif" font-size="13" lengthAdjust="spacing" textLength="61" x="382" y="699.0669">&#171;extend&#187;</text></g><!--link UpdateDocument to SearchDocument--><g id="link_UpdateDocument_SearchDocument"><path d="M617.201,797.556 C668.718,784.433 738.4527,766.669 789.6147,753.637 " fill="none" id="UpdateDocument-to-SearchDocument" style="stroke:#181818;stroke-width:1.0;stroke-dasharray:7.0,7.0;"/><polygon fill="#181818" points="795.429,752.156,785.7201,750.5013,790.5837,753.3902,787.6948,758.2538,795.429,752.156" style="stroke:#181818;stroke-width:1.0;"/><text fill="#000000" font-family="sans-serif" font-size="13" lengthAdjust="spacing" textLength="61" x="676" y="764.0669">&#171;include&#187;</text></g><!--link DeleteDocument to SearchDocument--><g id="link_DeleteDocument_SearchDocument"><path d="M643.746,738 C682.727,738 723.043,738 761.994,738 " fill="none" id="DeleteDocument-to-SearchDocument" style="stroke:#181818;stroke-width:1.0;stroke-dasharray:7.0,7.0;"/><polygon fill="#181818" points="767.994,738,758.994,734,762.994,738,758.994,742,767.994,738" style="stroke:#181818;stroke-width:1.0;"/><text fill="#000000" font-family="sans-serif" font-size="13" lengthAdjust="spacing" textLength="61" x="676" y="734.0669">&#171;include&#187;</text></g><!--reverse link ManageDocument to SearchDocument--><g id="link_ManageDocument_SearchDocument"><path d="M356.2044,678.2763 C366.5784,678.1263 371.03,678.086 381,678 C408.999,677.759 416.049,676.342 444,678 C575.358,685.791 608.266,690.982 738,713 C756.323,716.11 776.158,720.236 794.02,724.239 " fill="none" id="ManageDocument-backto-SearchDocument" style="stroke:#181818;stroke-width:1.0;stroke-dasharray:7.0,7.0;"/><polygon fill="#181818" points="350.205,678.363,359.2619,682.2325,355.2045,678.2907,359.1462,674.2333,350.205,678.363" style="stroke:#181818;stroke-width:1.0;"/><text fill="#000000" font-family="sans-serif" font-size="13" lengthAdjust="spacing" textLength="61" x="529" y="676.0669">&#171;extend&#187;</text></g><!--link Admin to ViewUserReport--><g id="link_Admin_ViewUserReport"><path d="M52.1396,609.717 C74.1684,641.698 110.723,688.399 153,717 C168.061,727.189 186.128,734.911 203.226,740.641 " fill="none" id="Admin-ViewUserReport" style="stroke:#181818;stroke-width:1.0;"/></g><!--SRC=[bPJ1Yi8m48RlVOgX5q_s0HOHH0zxMLXSt7jePssWfYMDxCAoxxwc4vj9JRJsKEgV_mkPoJys-6N0jA3biJPGIOsbaQtACb6QLiEcEaa5eeTy-Cgpp1g4EZO8-RQMJGMlA1fJmrPeX4tNvV0BboUphmNiMhlDyEFSOodw2_Ocb3YYMyhjvgGmR-3VQXGcy9EIyX-wQk8d9UNVOOEXdvIK_mE5Bclk9yNvNUNlbtue4wsSbbZbp1khdFb9IVbTvSnFIihlAcT-Kb9-LpdpayBy_jxFfrJzryNmxhq_SVkU6Uy_mVW4U6RCG8BnAV3Cc8C4uvFWcJ4BnBX-77hKYnuqTgqsVTYLJudVLyD-C0mRMTcg96L_0qJpk5p6HuQBi2gAO51UOBN27uEgMg_J11-LUGGVbYXX7xuj5CKw61bBILKsvmed6Dzx9dPplYaId2_Mr4dwkSYQIiAT5Z62J-4yWi_XWwOwodV7K_UQ-XHsSxufCfulaT9mW48vJEeWtK-UfyAXdak5O_quiqG6yHl91xbz3esSzHQBjtev-R_u1m00]--></g></svg>