<?xml version="1.0" encoding="us-ascii" standalone="no"?><svg xmlns="http://www.w3.org/2000/svg" xmlns:xlink="http://www.w3.org/1999/xlink" contentStyleType="text/css" height="1647px" preserveAspectRatio="none" style="width:1152px;height:1647px;background:#FFFFFF;" version="1.1" viewBox="0 0 1152 1647" width="1152px" zoomAndPan="magnify"><defs/><g><!--cluster Child Health Care App--><g id="cluster_Child Health Care App"><rect fill="none" height="1634" rx="2.5" ry="2.5" style="stroke:#181818;stroke-width:1.0;" width="1043" x="103" y="7"/><text fill="#000000" font-family="sans-serif" font-size="14" font-weight="bold" lengthAdjust="spacing" textLength="175" x="537" y="21.9951">Child Health Care App</text></g><g id="elem_ManageChild"><ellipse cx="247.8049" cy="263.061" fill="#F1F1F1" rx="70.8049" ry="16.561" style="stroke:#181818;stroke-width:0.5;"/><text fill="#000000" font-family="sans-serif" font-size="14" lengthAdjust="spacing" textLength="95" x="197.3049" y="266.8085">Manage Child</text></g><g id="elem_CreateChild"><ellipse cx="627.6011" cy="368.1202" fill="#F1F1F1" rx="68.6011" ry="16.1202" style="stroke:#181818;stroke-width:0.5;"/><text fill="#000000" font-family="sans-serif" font-size="14" lengthAdjust="spacing" textLength="89" x="580.1011" y="371.8678">Create Child</text></g><g id="elem_UpdateChild"><ellipse cx="627.6952" cy="299.839" fill="#F1F1F1" rx="69.6952" ry="16.339" style="stroke:#181818;stroke-width:0.5;"/><text fill="#000000" font-family="sans-serif" font-size="14" lengthAdjust="spacing" textLength="92" x="578.6952" y="303.5866">Update Child</text></g><g id="elem_DeleteChild"><ellipse cx="627.6011" cy="232.1202" fill="#F1F1F1" rx="68.6011" ry="16.1202" style="stroke:#181818;stroke-width:0.5;"/><text fill="#000000" font-family="sans-serif" font-size="14" lengthAdjust="spacing" textLength="89" x="580.1011" y="235.8678">Delete Child</text></g><g id="elem_SearchChild"><ellipse cx="1004.1011" cy="232.1202" fill="#F1F1F1" rx="68.6011" ry="16.1202" style="stroke:#181818;stroke-width:0.5;"/><text fill="#000000" font-family="sans-serif" font-size="14" lengthAdjust="spacing" textLength="89" x="956.6011" y="235.8678">Search Child</text></g><g id="elem_ViewHealthUpdateHistory"><ellipse cx="627.6957" cy="67.8391" fill="#F1F1F1" rx="114.6957" ry="25.3391" style="stroke:#181818;stroke-width:0.5;"/><text fill="#000000" font-family="sans-serif" font-size="14" lengthAdjust="spacing" textLength="196" x="529.6957" y="70.6858">View Health Update History</text></g><g id="elem_ManagePrescription"><ellipse cx="247.8318" cy="602.8664" fill="#F1F1F1" rx="92.3318" ry="20.8664" style="stroke:#181818;stroke-width:0.5;"/><text fill="#000000" font-family="sans-serif" font-size="14" lengthAdjust="spacing" textLength="147" x="174.3318" y="605.713">Manage Prescription</text></g><g id="elem_CreatePrescription"><ellipse cx="627.6728" cy="678.8346" fill="#F1F1F1" rx="89.6728" ry="20.3346" style="stroke:#181818;stroke-width:0.5;"/><text fill="#000000" font-family="sans-serif" font-size="14" lengthAdjust="spacing" textLength="141" x="557.1728" y="681.6812">Create Prescription</text></g><g id="elem_UpdatePrescription"><ellipse cx="627.4996" cy="603.0999" fill="#F1F1F1" rx="90.9996" ry="20.5999" style="stroke:#181818;stroke-width:0.5;"/><text fill="#000000" font-family="sans-serif" font-size="14" lengthAdjust="spacing" textLength="144" x="555.4996" y="605.9466">Update Prescription</text></g><g id="elem_DeletePrescription"><ellipse cx="627.6728" cy="526.8346" fill="#F1F1F1" rx="89.6728" ry="20.3346" style="stroke:#181818;stroke-width:0.5;"/><text fill="#000000" font-family="sans-serif" font-size="14" lengthAdjust="spacing" textLength="141" x="557.1728" y="529.6812">Delete Prescription</text></g><g id="elem_SearchPrescription"><ellipse cx="1004.1728" cy="526.8346" fill="#F1F1F1" rx="89.6728" ry="20.3346" style="stroke:#181818;stroke-width:0.5;"/><text fill="#000000" font-family="sans-serif" font-size="14" lengthAdjust="spacing" textLength="141" x="933.6728" y="529.6812">Search Prescription</text></g><g id="elem_ManageImmunizationSchedule"><ellipse cx="247.7813" cy="888.1563" fill="#F1F1F1" rx="128.7813" ry="28.1563" style="stroke:#181818;stroke-width:0.5;"/><text fill="#000000" font-family="sans-serif" font-size="14" lengthAdjust="spacing" textLength="226" x="134.7813" y="891.0029">Manage Immunization Schedule</text></g><g id="elem_CreateImmunizationSchedule"><ellipse cx="627.4468" cy="1032.0894" fill="#F1F1F1" rx="125.9468" ry="27.5894" style="stroke:#181818;stroke-width:0.5;"/><text fill="#000000" font-family="sans-serif" font-size="14" lengthAdjust="spacing" textLength="220" x="517.4468" y="1034.936">Create Immunization Schedule</text></g><g id="elem_UpdateImmunizationSchedule"><ellipse cx="627.3631" cy="940.8726" fill="#F1F1F1" rx="127.3631" ry="27.8726" style="stroke:#181818;stroke-width:0.5;"/><text fill="#000000" font-family="sans-serif" font-size="14" lengthAdjust="spacing" textLength="223" x="515.8631" y="943.7193">Update Immunization Schedule</text></g><g id="elem_DeleteImmunizationSchedule"><ellipse cx="627.4468" cy="850.0894" fill="#F1F1F1" rx="125.9468" ry="27.5894" style="stroke:#181818;stroke-width:0.5;"/><text fill="#000000" font-family="sans-serif" font-size="14" lengthAdjust="spacing" textLength="220" x="517.4468" y="852.936">Delete Immunization Schedule</text></g><g id="elem_SearchImmunizationSchedule"><ellipse cx="1003.9468" cy="850.0894" fill="#F1F1F1" rx="125.9468" ry="27.5894" style="stroke:#181818;stroke-width:0.5;"/><text fill="#000000" font-family="sans-serif" font-size="14" lengthAdjust="spacing" textLength="220" x="893.9468" y="852.936">Search Immunization Schedule</text></g><g id="elem_ManageConversation"><ellipse cx="247.9604" cy="1188.9921" fill="#F1F1F1" rx="95.4604" ry="21.4921" style="stroke:#181818;stroke-width:0.5;"/><text fill="#000000" font-family="sans-serif" font-size="14" lengthAdjust="spacing" textLength="154" x="170.9604" y="1191.8388">Manage Conversation</text></g><g id="elem_ReplyToMessage"><ellipse cx="627.6379" cy="1355.0276" fill="#F1F1F1" rx="83.1379" ry="19.0276" style="stroke:#181818;stroke-width:0.5;"/><text fill="#000000" font-family="sans-serif" font-size="14" lengthAdjust="spacing" textLength="126" x="564.0914" y="1358.0594">Reply to Message</text></g><g id="elem_DeleteConversation"><ellipse cx="627.2771" cy="1279.9554" fill="#F1F1F1" rx="92.7771" ry="20.9554" style="stroke:#181818;stroke-width:0.5;"/><text fill="#000000" font-family="sans-serif" font-size="14" lengthAdjust="spacing" textLength="148" x="553.2771" y="1282.8021">Delete Conversation</text></g><g id="elem_SearchConversation"><ellipse cx="1003.7771" cy="1217.9554" fill="#F1F1F1" rx="92.7771" ry="20.9554" style="stroke:#181818;stroke-width:0.5;"/><text fill="#000000" font-family="sans-serif" font-size="14" lengthAdjust="spacing" textLength="148" x="929.7771" y="1220.8021">Search Conversation</text></g><g id="elem_CreateConversation"><ellipse cx="627.2771" cy="1115.9554" fill="#F1F1F1" rx="92.7771" ry="20.9554" style="stroke:#181818;stroke-width:0.5;"/><text fill="#000000" font-family="sans-serif" font-size="14" lengthAdjust="spacing" textLength="148" x="553.2771" y="1118.8021">Create Conversation</text></g><g id="elem_MonitorChildHealthStatus"><ellipse cx="248.1614" cy="1464.9323" fill="#F1F1F1" rx="115.1614" ry="25.4323" style="stroke:#181818;stroke-width:0.5;"/><text fill="#000000" font-family="sans-serif" font-size="14" lengthAdjust="spacing" textLength="197" x="149.6614" y="1467.779">Monitor Child Health Status</text></g><g id="elem_MonitorChildSleepTime"><ellipse cx="627.5937" cy="1599.1187" fill="#F1F1F1" rx="116.0937" ry="25.6187" style="stroke:#181818;stroke-width:0.5;"/><text fill="#000000" font-family="sans-serif" font-size="14" lengthAdjust="spacing" textLength="199" x="528.0937" y="1601.9654">Monitor Child's Sleep Times</text></g><g id="elem_MonitorChildMealTime"><ellipse cx="627.3717" cy="1512.8743" fill="#F1F1F1" rx="112.3717" ry="24.8743" style="stroke:#181818;stroke-width:0.5;"/><text fill="#000000" font-family="sans-serif" font-size="14" lengthAdjust="spacing" textLength="191" x="531.8717" y="1515.721">Monitor Child's Meal Times</text></g><g id="elem_MonitorChildEventChart"><ellipse cx="627.6626" cy="1431.0325" fill="#F1F1F1" rx="98.1626" ry="22.0325" style="stroke:#181818;stroke-width:0.5;"/><text fill="#000000" font-family="sans-serif" font-size="14" lengthAdjust="spacing" textLength="160" x="547.6626" y="1433.8792">Monitor Child's Events</text></g><!--entity Doctor--><g id="elem_Doctor"><ellipse cx="31" cy="858.5" fill="#F1F1F1" rx="8" ry="8" style="stroke:#181818;stroke-width:0.5;"/><path d="M31,866.5 L31,893.5 M18,874.5 L44,874.5 M31,893.5 L18,908.5 M31,893.5 L44,908.5 " fill="none" style="stroke:#181818;stroke-width:0.5;"/><text fill="#000000" font-family="sans-serif" font-size="14" lengthAdjust="spacing" textLength="50" x="6" y="922.9951">Doctor</text></g><!--link Doctor to ManagePrescription--><g id="link_Doctor_ManagePrescription"><path d="M56.0374,856.136 C100.4161,797.309 194.073,673.159 231.28,623.84 " fill="none" id="Doctor-ManagePrescription" style="stroke:#181818;stroke-width:1.0;"/></g><!--reverse link ManagePrescription to CreatePrescription--><g id="link_ManagePrescription_CreatePrescription"><path d="M323.682,618.0341 C392.479,631.8841 491.695,651.86 559.757,665.563 " fill="none" id="ManagePrescription-backto-CreatePrescription" style="stroke:#181818;stroke-width:1.0;stroke-dasharray:7.0,7.0;"/><polygon fill="#181818" points="317.8,616.85,325.8336,622.5475,322.7017,617.8368,327.4124,614.7049,317.8,616.85" style="stroke:#181818;stroke-width:1.0;"/><text fill="#000000" font-family="sans-serif" font-size="13" lengthAdjust="spacing" textLength="61" x="408" y="633.0669">&#171;extend&#187;</text></g><!--reverse link ManagePrescription to UpdatePrescription--><g id="link_ManagePrescription_UpdatePrescription"><path d="M346.864,603 C406.227,603 477.13,603 536.184,603 " fill="none" id="ManagePrescription-backto-UpdatePrescription" style="stroke:#181818;stroke-width:1.0;stroke-dasharray:7.0,7.0;"/><polygon fill="#181818" points="340.864,603,349.864,607,345.864,603,349.864,599,340.864,603" style="stroke:#181818;stroke-width:1.0;"/><text fill="#000000" font-family="sans-serif" font-size="13" lengthAdjust="spacing" textLength="61" x="408" y="599.0669">&#171;extend&#187;</text></g><!--reverse link ManagePrescription to DeletePrescription--><g id="link_ManagePrescription_DeletePrescription"><path d="M323.682,587.9659 C392.479,574.1159 491.695,554.14 559.757,540.44 " fill="none" id="ManagePrescription-backto-DeletePrescription" style="stroke:#181818;stroke-width:1.0;stroke-dasharray:7.0,7.0;"/><polygon fill="#181818" points="317.8,589.15,327.4124,591.2951,322.7017,588.1632,325.8336,583.4525,317.8,589.15" style="stroke:#181818;stroke-width:1.0;"/><text fill="#000000" font-family="sans-serif" font-size="13" lengthAdjust="spacing" textLength="61" x="408" y="557.0669">&#171;extend&#187;</text></g><!--link UpdatePrescription to SearchPrescription--><g id="link_UpdatePrescription_SearchPrescription"><path d="M695.886,589.32 C764.011,575.5 862.7728,555.4531 930.5898,541.6931 " fill="none" id="UpdatePrescription-to-SearchPrescription" style="stroke:#181818;stroke-width:1.0;stroke-dasharray:7.0,7.0;"/><polygon fill="#181818" points="936.47,540.5,926.8543,538.3695,931.5698,541.4942,928.4451,546.2097,936.47,540.5" style="stroke:#181818;stroke-width:1.0;"/><text fill="#000000" font-family="sans-serif" font-size="13" lengthAdjust="spacing" textLength="61" x="786" y="557.0669">&#171;include&#187;</text></g><!--link DeletePrescription to SearchPrescription--><g id="link_DeletePrescription_SearchPrescription"><path d="M717.251,527 C776.733,527 848.753,527 908.238,527 " fill="none" id="DeletePrescription-to-SearchPrescription" style="stroke:#181818;stroke-width:1.0;stroke-dasharray:7.0,7.0;"/><polygon fill="#181818" points="914.238,527,905.238,523,909.238,527,905.238,531,914.238,527" style="stroke:#181818;stroke-width:1.0;"/><text fill="#000000" font-family="sans-serif" font-size="13" lengthAdjust="spacing" textLength="61" x="786" y="523.0669">&#171;include&#187;</text></g><!--reverse link ManagePrescription to SearchPrescription--><g id="link_ManagePrescription_SearchPrescription"><path d="M285.8911,580.1067 C332.0681,552.5667 416.269,507.12 500,489 C657.705,454.86 848.958,489.55 943.776,511.67 " fill="none" id="ManagePrescription-backto-SearchPrescription" style="stroke:#181818;stroke-width:1.0;stroke-dasharray:7.0,7.0;"/><polygon fill="#181818" points="280.738,583.18,290.5166,582.0054,285.0323,580.6189,286.4188,575.1346,280.738,583.18" style="stroke:#181818;stroke-width:1.0;"/><text fill="#000000" font-family="sans-serif" font-size="13" lengthAdjust="spacing" textLength="61" x="597" y="471.0669">&#171;extend&#187;</text></g><!--link Doctor to ManageChild--><g id="link_Doctor_ManageChild"><path d="M35.9845,849.704 C43.149,788.164 60.7568,664.026 95,564 C134.155,449.63 209.044,323.92 236.541,279.58 " fill="none" id="Doctor-ManageChild" style="stroke:#181818;stroke-width:1.0;"/></g><!--reverse link ManageChild to ViewHealthUpdateHistory--><g id="link_ManageChild_ViewHealthUpdateHistory"><path d="M269.3422,242.5603 C296.3712,216.0703 349.387,167.65 407,137 C450.378,113.92 502.744,97.09 545.448,85.84 " fill="none" id="ManageChild-backto-ViewHealthUpdateHistory" style="stroke:#181818;stroke-width:1.0;stroke-dasharray:7.0,7.0;"/><polygon fill="#181818" points="265.057,246.76,274.2845,243.3172,268.628,243.2603,268.6849,237.6037,265.057,246.76" style="stroke:#181818;stroke-width:1.0;"/><text fill="#000000" font-family="sans-serif" font-size="13" lengthAdjust="spacing" textLength="61" x="408" y="108.0669">&#171;extend&#187;</text></g><!--reverse link ManageChild to CreateChild--><g id="link_ManageChild_CreateChild"><path d="M298.2763,277.6293 C329.9713,286.9893 368.208,298.14 407,309 C448.216,320.54 458.666,322.89 500,334 C527.123,341.29 557.517,349.46 581.713,355.96 " fill="none" id="ManageChild-backto-CreateChild" style="stroke:#181818;stroke-width:1.0;stroke-dasharray:7.0,7.0;"/><polygon fill="#181818" points="292.522,275.93,300.0206,282.3152,297.3173,277.3461,302.2864,274.6428,292.522,275.93" style="stroke:#181818;stroke-width:1.0;"/><text fill="#000000" font-family="sans-serif" font-size="13" lengthAdjust="spacing" textLength="61" x="408" y="305.0669">&#171;extend&#187;</text></g><!--reverse link ManageChild to UpdateChild--><g id="link_ManageChild_UpdateChild"><path d="M319.8664,269.9454 C389.6424,276.7854 493.88,287 563.081,293.78 " fill="none" id="ManageChild-backto-UpdateChild" style="stroke:#181818;stroke-width:1.0;stroke-dasharray:7.0,7.0;"/><polygon fill="#181818" points="313.895,269.36,322.4618,274.219,318.8711,269.8478,323.2423,266.2571,313.895,269.36" style="stroke:#181818;stroke-width:1.0;"/><text fill="#000000" font-family="sans-serif" font-size="13" lengthAdjust="spacing" textLength="61" x="408" y="276.0669">&#171;extend&#187;</text></g><!--reverse link ManageChild to DeleteChild--><g id="link_ManageChild_DeleteChild"><path d="M321.1669,257.0691 C390.8419,251.3491 493.792,242.9 562.595,237.25 " fill="none" id="ManageChild-backto-DeleteChild" style="stroke:#181818;stroke-width:1.0;stroke-dasharray:7.0,7.0;"/><polygon fill="#181818" points="315.187,257.56,324.4841,260.8102,320.1702,257.1509,323.8295,252.837,315.187,257.56" style="stroke:#181818;stroke-width:1.0;"/><text fill="#000000" font-family="sans-serif" font-size="13" lengthAdjust="spacing" textLength="61" x="408" y="242.0669">&#171;extend&#187;</text></g><!--link UpdateChild to SearchChild--><g id="link_UpdateChild_SearchChild"><path d="M683.357,290.04 C754.769,277.07 872.8786,255.6325 943.6106,242.7825 " fill="none" id="UpdateChild-to-SearchChild" style="stroke:#181818;stroke-width:1.0;stroke-dasharray:7.0,7.0;"/><polygon fill="#181818" points="949.514,241.71,939.944,239.3831,944.5945,242.6037,941.3739,247.2543,949.514,241.71" style="stroke:#181818;stroke-width:1.0;"/><text fill="#000000" font-family="sans-serif" font-size="13" lengthAdjust="spacing" textLength="61" x="786" y="258.0669">&#171;include&#187;</text></g><!--link DeleteChild to SearchChild--><g id="link_DeleteChild_SearchChild"><path d="M696.319,232 C764.086,232 861.67,232 929.37,232 " fill="none" id="DeleteChild-to-SearchChild" style="stroke:#181818;stroke-width:1.0;stroke-dasharray:7.0,7.0;"/><polygon fill="#181818" points="935.37,232,926.37,228,930.37,232,926.37,236,935.37,232" style="stroke:#181818;stroke-width:1.0;"/><text fill="#000000" font-family="sans-serif" font-size="13" lengthAdjust="spacing" textLength="61" x="786" y="228.0669">&#171;include&#187;</text></g><!--reverse link ManageChild to SearchChild--><g id="link_ManageChild_SearchChild"><path d="M300.7157,249.0103 C332.2157,240.5303 369.197,230.7 407,221 C448.243,210.42 457.734,203.15 500,198 C653.583,179.29 694.551,187.22 848,207 C881.657,211.34 919.237,217.37 948.964,222.42 " fill="none" id="ManageChild-backto-SearchChild" style="stroke:#181818;stroke-width:1.0;stroke-dasharray:7.0,7.0;"/><polygon fill="#181818" points="294.922,250.57,304.6524,252.0929,299.7501,249.2702,302.5728,244.3679,294.922,250.57" style="stroke:#181818;stroke-width:1.0;"/><text fill="#000000" font-family="sans-serif" font-size="13" lengthAdjust="spacing" textLength="61" x="597" y="184.0669">&#171;extend&#187;</text></g><!--link Doctor to ManageImmunizationSchedule--><g id="link_Doctor_ManageImmunizationSchedule"><path d="M56.2453,888 C72.2791,888 94.6796,888 118.512,888 " fill="none" id="Doctor-ManageImmunizationSchedule" style="stroke:#181818;stroke-width:1.0;"/></g><!--reverse link ManageImmunizationSchedule to CreateImmunizationSchedule--><g id="link_ManageImmunizationSchedule_CreateImmunizationSchedule"><path d="M315.4626,914.9269 C366.1556,935.3159 434.756,962.536 500,987 C519.316,994.243 540.395,1001.856 559.71,1008.717 " fill="none" id="ManageImmunizationSchedule-backto-CreateImmunizationSchedule" style="stroke:#181818;stroke-width:1.0;stroke-dasharray:7.0,7.0;"/><polygon fill="#181818" points="309.896,912.688,316.7533,919.7575,314.5348,914.5538,319.7385,912.3353,309.896,912.688" style="stroke:#181818;stroke-width:1.0;"/><text fill="#000000" font-family="sans-serif" font-size="13" lengthAdjust="spacing" textLength="61" x="408" y="948.0669">&#171;extend&#187;</text></g><!--reverse link ManageImmunizationSchedule to UpdateImmunizationSchedule--><g id="link_ManageImmunizationSchedule_UpdateImmunizationSchedule"><path d="M362.6127,903.9512 C413.7167,911.1262 468.669,918.841 519.666,926.001 " fill="none" id="ManageImmunizationSchedule-backto-UpdateImmunizationSchedule" style="stroke:#181818;stroke-width:1.0;stroke-dasharray:7.0,7.0;"/><polygon fill="#181818" points="356.671,903.117,365.0274,908.3295,361.6224,903.8122,366.1397,900.4072,356.671,903.117" style="stroke:#181818;stroke-width:1.0;"/><text fill="#000000" font-family="sans-serif" font-size="13" lengthAdjust="spacing" textLength="61" x="408" y="907.0669">&#171;extend&#187;</text></g><!--reverse link ManageImmunizationSchedule to DeleteImmunizationSchedule--><g id="link_ManageImmunizationSchedule_DeleteImmunizationSchedule"><path d="M371.3128,875.688 C418.2148,870.966 466.177,866.138 512.809,861.444 " fill="none" id="ManageImmunizationSchedule-backto-DeleteImmunizationSchedule" style="stroke:#181818;stroke-width:1.0;stroke-dasharray:7.0,7.0;"/><polygon fill="#181818" points="365.343,876.289,374.6984,879.3673,370.3179,875.7881,373.897,871.4076,365.343,876.289" style="stroke:#181818;stroke-width:1.0;"/><text fill="#000000" font-family="sans-serif" font-size="13" lengthAdjust="spacing" textLength="61" x="408" y="862.0669">&#171;extend&#187;</text></g><!--link UpdateImmunizationSchedule to SearchImmunizationSchedule--><g id="link_UpdateImmunizationSchedule_SearchImmunizationSchedule"><path d="M713.948,920.237 C775.474,905.287 852.2367,886.6337 913.3787,871.7767 " fill="none" id="UpdateImmunizationSchedule-to-SearchImmunizationSchedule" style="stroke:#181818;stroke-width:1.0;stroke-dasharray:7.0,7.0;"/><polygon fill="#181818" points="919.209,870.36,909.519,868.5982,914.3504,871.5406,911.408,876.372,919.209,870.36" style="stroke:#181818;stroke-width:1.0;"/><text fill="#000000" font-family="sans-serif" font-size="13" lengthAdjust="spacing" textLength="61" x="786" y="886.0669">&#171;include&#187;</text></g><!--link DeleteImmunizationSchedule to SearchImmunizationSchedule--><g id="link_DeleteImmunizationSchedule_SearchImmunizationSchedule"><path d="M753.724,850 C793.699,850 831.927,850 871.894,850 " fill="none" id="DeleteImmunizationSchedule-to-SearchImmunizationSchedule" style="stroke:#181818;stroke-width:1.0;stroke-dasharray:7.0,7.0;"/><polygon fill="#181818" points="877.894,850,868.894,846,872.894,850,868.894,854,877.894,850" style="stroke:#181818;stroke-width:1.0;"/><text fill="#000000" font-family="sans-serif" font-size="13" lengthAdjust="spacing" textLength="61" x="786" y="846.0669">&#171;include&#187;</text></g><!--reverse link ManageImmunizationSchedule to SearchImmunizationSchedule--><g id="link_ManageImmunizationSchedule_SearchImmunizationSchedule"><path d="M312.5682,860.6812 C362.6062,840.4942 431.804,815.983 500,805 C646.07,781.475 818.129,808.518 918.445,829.684 " fill="none" id="ManageImmunizationSchedule-backto-SearchImmunizationSchedule" style="stroke:#181818;stroke-width:1.0;stroke-dasharray:7.0,7.0;"/><polygon fill="#181818" points="307.004,862.926,316.8469,863.2683,311.6409,861.0553,313.8538,855.8493,307.004,862.926" style="stroke:#181818;stroke-width:1.0;"/><text fill="#000000" font-family="sans-serif" font-size="13" lengthAdjust="spacing" textLength="61" x="597" y="791.0669">&#171;extend&#187;</text></g><!--link Doctor to ManageConversation--><g id="link_Doctor_ManageConversation"><path d="M56.0374,921.652 C100.6353,984.089 194.999,1116.198 231.827,1167.758 " fill="none" id="Doctor-ManageConversation" style="stroke:#181818;stroke-width:1.0;"/></g><!--reverse link ManageConversation to CreateConversation--><g id="link_ManageConversation_CreateConversation"><path d="M326.7839,1173.9579 C394.3839,1160.8859 489.061,1142.578 556.152,1129.604 " fill="none" id="ManageConversation-backto-CreateConversation" style="stroke:#181818;stroke-width:1.0;stroke-dasharray:7.0,7.0;"/><polygon fill="#181818" points="320.893,1175.097,330.4887,1177.3155,325.8021,1174.1477,328.9699,1169.4611,320.893,1175.097" style="stroke:#181818;stroke-width:1.0;"/><text fill="#000000" font-family="sans-serif" font-size="13" lengthAdjust="spacing" textLength="61" x="408" y="1144.0669">&#171;extend&#187;</text></g><!--reverse link ManageConversation to ReplyToMessage--><g id="link_ManageConversation_ReplyToMessage"><path d="M287.6627,1212.1529 C334.8487,1239.8449 419.029,1286.887 500,1319 C522.181,1327.797 547.332,1335.411 569.332,1341.341 " fill="none" id="ManageConversation-backto-ReplyToMessage" style="stroke:#181818;stroke-width:1.0;stroke-dasharray:7.0,7.0;"/><polygon fill="#181818" points="282.488,1209.116,288.2255,1217.1211,286.8002,1211.6467,292.2746,1210.2215,282.488,1209.116" style="stroke:#181818;stroke-width:1.0;"/><text fill="#000000" font-family="sans-serif" font-size="13" lengthAdjust="spacing" textLength="61" x="408" y="1273.0669">&#171;extend&#187;</text></g><!--reverse link ManageConversation to DeleteConversation--><g id="link_ManageConversation_DeleteConversation"><path d="M319.7279,1206.0491 C389.5039,1222.8701 493.88,1248.031 563.081,1264.712 " fill="none" id="ManageConversation-backto-DeleteConversation" style="stroke:#181818;stroke-width:1.0;stroke-dasharray:7.0,7.0;"/><polygon fill="#181818" points="313.895,1204.643,321.7069,1210.6408,318.7558,1205.8148,323.5818,1202.8636,313.895,1204.643" style="stroke:#181818;stroke-width:1.0;"/><text fill="#000000" font-family="sans-serif" font-size="13" lengthAdjust="spacing" textLength="61" x="408" y="1225.0669">&#171;extend&#187;</text></g><!--link DeleteConversation to SearchConversation--><g id="link_DeleteConversation_SearchConversation"><path d="M702.937,1267.677 C768.317,1256.853 857.0316,1242.166 922.4646,1231.333 " fill="none" id="DeleteConversation-to-SearchConversation" style="stroke:#181818;stroke-width:1.0;stroke-dasharray:7.0,7.0;"/><polygon fill="#181818" points="928.384,1230.353,918.8515,1227.8767,923.4511,1231.1697,920.1582,1235.7693,928.384,1230.353" style="stroke:#181818;stroke-width:1.0;"/><text fill="#000000" font-family="sans-serif" font-size="13" lengthAdjust="spacing" textLength="61" x="786" y="1241.0669">&#171;include&#187;</text></g><!--reverse link ManageConversation to SearchConversation--><g id="link_ManageConversation_SearchConversation"><path d="M348.2066,1192.8156 C493.8926,1198.4186 767.782,1208.953 912.059,1214.502 " fill="none" id="ManageConversation-backto-SearchConversation" style="stroke:#181818;stroke-width:1.0;stroke-dasharray:7.0,7.0;"/><polygon fill="#181818" points="342.211,1192.585,351.0506,1196.9279,347.2073,1192.7772,351.3581,1188.9338,342.211,1192.585" style="stroke:#181818;stroke-width:1.0;"/><text fill="#000000" font-family="sans-serif" font-size="13" lengthAdjust="spacing" textLength="61" x="597" y="1194.0669">&#171;extend&#187;</text></g><!--link Doctor to MonitorChildHealthStatus--><g id="link_Doctor_MonitorChildHealthStatus"><path d="M34.2621,926.035 C39.1208,990.31 53.6999,1123.612 95,1228 C128.269,1312.088 192.833,1398.411 226.087,1439.826 " fill="none" id="Doctor-MonitorChildHealthStatus" style="stroke:#181818;stroke-width:1.0;"/></g><!--reverse link MonitorChildHealthStatus to MonitorChildEventChart--><g id="link_MonitorChildHealthStatus_MonitorChildEventChart"><path d="M360.8838,1454.9228 C418.0258,1449.7768 481.829,1444.03 536.348,1439.12 " fill="none" id="MonitorChildHealthStatus-backto-MonitorChildEventChart" style="stroke:#181818;stroke-width:1.0;stroke-dasharray:7.0,7.0;"/><polygon fill="#181818" points="354.908,1455.461,364.2305,1458.6376,359.8878,1455.0125,363.513,1450.6699,354.908,1455.461" style="stroke:#181818;stroke-width:1.0;"/><text fill="#000000" font-family="sans-serif" font-size="13" lengthAdjust="spacing" textLength="61" x="408" y="1441.0669">&#171;extend&#187;</text></g><!--reverse link MonitorChildHealthStatus to MonitorChildMealTime--><g id="link_MonitorChildHealthStatus_MonitorChildMealTime"><path d="M354.1361,1478.3678 C410.0591,1485.4788 473.686,1493.569 529.284,1500.639 " fill="none" id="MonitorChildHealthStatus-backto-MonitorChildMealTime" style="stroke:#181818;stroke-width:1.0;stroke-dasharray:7.0,7.0;"/><polygon fill="#181818" points="348.184,1477.611,356.6075,1482.7143,353.1441,1478.2417,357.6167,1474.7782,348.184,1477.611" style="stroke:#181818;stroke-width:1.0;"/><text fill="#000000" font-family="sans-serif" font-size="13" lengthAdjust="spacing" textLength="61" x="408" y="1482.0669">&#171;extend&#187;</text></g><!--reverse link MonitorChildHealthStatus to MonitorChildSleepTime--><g id="link_MonitorChildHealthStatus_MonitorChildSleepTime"><path d="M313.8473,1488.9171 C364.6343,1507.5651 434.181,1532.885 500,1556 C520.463,1563.1865 542.853,1570.8595 563.033,1577.705 " fill="none" id="MonitorChildHealthStatus-backto-MonitorChildSleepTime" style="stroke:#181818;stroke-width:1.0;stroke-dasharray:7.0,7.0;"/><polygon fill="#181818" points="308.215,1486.849,315.2848,1493.706,312.9086,1488.5724,318.0422,1486.1962,308.215,1486.849" style="stroke:#181818;stroke-width:1.0;"/><text fill="#000000" font-family="sans-serif" font-size="13" lengthAdjust="spacing" textLength="61" x="408" y="1519.0669">&#171;extend&#187;</text></g><!--SRC=[hLR1ZjCm4BtdAqQzzBJz05HLGbsavL09qSBT94CJaJfHuXOAuhpd5J-mAovSk24XjU9KjF-HFo6EtTQ9FKaAzD16C-yzss_gcSJuLe1888kMeO0Woj0NKS8zZ_aYoU0wgNvO3WFrEF0y2M5y6ICCfc4K1t23B1OXJ5c6y3HD1_09oeydluPGGQhdTOu-oqlMZ76sH9KPI6qLE2Dhw6c6J9Xe5I3GhzAWZbO10dsDCTRGAa2WvyWoFpJGAa2WNqVu_cYDtjLDb9SMRYkkJAkiIkgSfsrxaM7kPr5Q5SFbdWamJBHuBYyjhegtS_KPBAwAjtErpnPNnTkvsdMBg-8rhlRk-Mgrvj57Hdfd0c3kXnYiOpHCDFF7D6acBQO0_SIqkxIO0lGJqtRJOWhGJqpxJuif02bswWDCkDj0mZUOvQpnHpR3fqqDOP4bV2are1BXX_ijvCNk5wmEFq0Kkw_mXYMmBFPVLh29Ylsj3x_l3jzv2EyEtrObOd-RGfWKkvy-n8TxINb8IiZZ0mSHhelzdJ-oFNY9QRoLRNA6ULvkhjfd5LmaEWHqTsaUK3SPrm6jNjFawfRJoZrsp2PNDquNLnTfbl18zdkphpUAva30N32npbNnLBvAgwnAEkofIGtBeyM8AIoY5TfILKwckcLcvQg4Yapr4tcsGIviWIfS_fCpuNrMtKOFoAkhjlvhfs0y6ZcwxXCOZ_63G1vC9brik-zUmhOxhvCjF_P2C1fD7FrNAaJSZzS1DYJirIwI8CxWff_EuAnFVLWRiKgH6Cejnfwvncj9BxpnOj8BRxoQT9HASSu6dpXjnRc0rDnPWr3RcRC8hOE7XXWskz8jBf9gz5Jz6pLwh7PKpAbuhWMbs5RF_oRPSUPskOxBw1f5TigyNaQuxTOqsVLPVGdJ7jPaBMseUPyQ2kIrQcx0JIUD9URlUHLgGCkrtBFERLTVdUFG_JULqmk0AVC7]--></g></svg>