<?xml version="1.0" encoding="us-ascii" standalone="no"?><svg xmlns="http://www.w3.org/2000/svg" xmlns:xlink="http://www.w3.org/1999/xlink" contentStyleType="text/css" height="1755px" preserveAspectRatio="none" style="width:1039px;height:1755px;background:#FFFFFF;" version="1.1" viewBox="0 0 1039 1755" width="1039px" zoomAndPan="magnify"><defs/><g><!--cluster Child Health Care App--><g id="cluster_Child Health Care App"><rect fill="none" height="1742" rx="2.5" ry="2.5" style="stroke:#181818;stroke-width:1.0;" width="932" x="101" y="7"/><text fill="#000000" font-family="sans-serif" font-size="14" font-weight="bold" lengthAdjust="spacing" textLength="175" x="479.5" y="21.9951">Child Health Care App</text></g><g id="elem_ManageConversation"><ellipse cx="231.9604" cy="226.9921" fill="#F1F1F1" rx="95.4604" ry="21.4921" style="stroke:#181818;stroke-width:0.5;"/><text fill="#000000" font-family="sans-serif" font-size="14" lengthAdjust="spacing" textLength="154" x="154.9604" y="229.8388">Manage Conversation</text></g><g id="elem_ReplyToMessage"><ellipse cx="589.1379" cy="302.0276" fill="#F1F1F1" rx="83.1379" ry="19.0276" style="stroke:#181818;stroke-width:0.5;"/><text fill="#000000" font-family="sans-serif" font-size="14" lengthAdjust="spacing" textLength="126" x="525.5914" y="305.0594">Reply to Message</text></g><g id="elem_DeleteConversation"><ellipse cx="588.7771" cy="226.9554" fill="#F1F1F1" rx="92.7771" ry="20.9554" style="stroke:#181818;stroke-width:0.5;"/><text fill="#000000" font-family="sans-serif" font-size="14" lengthAdjust="spacing" textLength="148" x="514.7771" y="229.8021">Delete Conversation</text></g><g id="elem_SearchConversation"><ellipse cx="923.7771" cy="164.9554" fill="#F1F1F1" rx="92.7771" ry="20.9554" style="stroke:#181818;stroke-width:0.5;"/><text fill="#000000" font-family="sans-serif" font-size="14" lengthAdjust="spacing" textLength="148" x="849.7771" y="167.8021">Search Conversation</text></g><g id="elem_CreateConversation"><ellipse cx="588.7771" cy="62.9554" fill="#F1F1F1" rx="92.7771" ry="20.9554" style="stroke:#181818;stroke-width:0.5;"/><text fill="#000000" font-family="sans-serif" font-size="14" lengthAdjust="spacing" textLength="148" x="514.7771" y="65.8021">Create Conversation</text></g><g id="elem_ManageChild"><ellipse cx="231.8049" cy="577.061" fill="#F1F1F1" rx="70.8049" ry="16.561" style="stroke:#181818;stroke-width:0.5;"/><text fill="#000000" font-family="sans-serif" font-size="14" lengthAdjust="spacing" textLength="95" x="181.3049" y="580.8085">Manage Child</text></g><g id="elem_CreateChild"><ellipse cx="589.1011" cy="682.1202" fill="#F1F1F1" rx="68.6011" ry="16.1202" style="stroke:#181818;stroke-width:0.5;"/><text fill="#000000" font-family="sans-serif" font-size="14" lengthAdjust="spacing" textLength="89" x="541.6011" y="685.8678">Create Child</text></g><g id="elem_UpdateChild"><ellipse cx="589.1952" cy="613.839" fill="#F1F1F1" rx="69.6952" ry="16.339" style="stroke:#181818;stroke-width:0.5;"/><text fill="#000000" font-family="sans-serif" font-size="14" lengthAdjust="spacing" textLength="92" x="540.1952" y="617.5866">Update Child</text></g><g id="elem_DeleteChild"><ellipse cx="589.1011" cy="546.1202" fill="#F1F1F1" rx="68.6011" ry="16.1202" style="stroke:#181818;stroke-width:0.5;"/><text fill="#000000" font-family="sans-serif" font-size="14" lengthAdjust="spacing" textLength="89" x="541.6011" y="549.8678">Delete Child</text></g><g id="elem_SearchChild"><ellipse cx="924.1011" cy="546.1202" fill="#F1F1F1" rx="68.6011" ry="16.1202" style="stroke:#181818;stroke-width:0.5;"/><text fill="#000000" font-family="sans-serif" font-size="14" lengthAdjust="spacing" textLength="89" x="876.6011" y="549.8678">Search Child</text></g><g id="elem_ViewHealthUpdateHistory"><ellipse cx="589.1957" cy="381.8391" fill="#F1F1F1" rx="114.6957" ry="25.3391" style="stroke:#181818;stroke-width:0.5;"/><text fill="#000000" font-family="sans-serif" font-size="14" lengthAdjust="spacing" textLength="196" x="491.1957" y="384.6858">View Health Update History</text></g><g id="elem_MonitorChildHealthStatus"><ellipse cx="232.1614" cy="846.9323" fill="#F1F1F1" rx="115.1614" ry="25.4323" style="stroke:#181818;stroke-width:0.5;"/><text fill="#000000" font-family="sans-serif" font-size="14" lengthAdjust="spacing" textLength="197" x="133.6614" y="849.779">Monitor Child Health Status</text></g><g id="elem_MonitorChildEventChart"><ellipse cx="589.1626" cy="927.0325" fill="#F1F1F1" rx="98.1626" ry="22.0325" style="stroke:#181818;stroke-width:0.5;"/><text fill="#000000" font-family="sans-serif" font-size="14" lengthAdjust="spacing" textLength="160" x="509.1626" y="929.8792">Monitor Child's Events</text></g><g id="elem_MonitorChildMealTime"><ellipse cx="588.8717" cy="844.8743" fill="#F1F1F1" rx="112.3717" ry="24.8743" style="stroke:#181818;stroke-width:0.5;"/><text fill="#000000" font-family="sans-serif" font-size="14" lengthAdjust="spacing" textLength="191" x="493.3717" y="847.721">Monitor Child's Meal Times</text></g><g id="elem_MonitorChildSleepTime"><ellipse cx="589.0937" cy="759.1187" fill="#F1F1F1" rx="116.0937" ry="25.6187" style="stroke:#181818;stroke-width:0.5;"/><text fill="#000000" font-family="sans-serif" font-size="14" lengthAdjust="spacing" textLength="199" x="489.5937" y="761.9654">Monitor Child's Sleep Times</text></g><g id="elem_SignUpForParent"><ellipse cx="231.7932" cy="930.9586" fill="#F1F1F1" rx="85.2932" ry="19.4586" style="stroke:#181818;stroke-width:0.5;"/><text fill="#000000" font-family="sans-serif" font-size="14" lengthAdjust="spacing" textLength="131" x="166.2932" y="933.8053">Sign Up for Parent</text></g><g id="elem_ViewDocument"><ellipse cx="231.7532" cy="1003.9506" fill="#F1F1F1" rx="77.7532" ry="17.9506" style="stroke:#181818;stroke-width:0.5;"/><text fill="#000000" font-family="sans-serif" font-size="14" lengthAdjust="spacing" textLength="113" x="172.6994" y="1007.5809">View Document</text></g><g id="elem_ViewDoctorInstruction"><ellipse cx="232.2042" cy="1079.9408" fill="#F1F1F1" rx="102.7042" ry="22.9408" style="stroke:#181818;stroke-width:0.5;"/><text fill="#000000" font-family="sans-serif" font-size="14" lengthAdjust="spacing" textLength="170" x="147.2042" y="1082.7875">View Doctor Instruction</text></g><g id="elem_ViewImmunizationSchedule"><ellipse cx="588.8973" cy="1083.1795" fill="#F1F1F1" rx="118.8973" ry="26.1795" style="stroke:#181818;stroke-width:0.5;"/><text fill="#000000" font-family="sans-serif" font-size="14" lengthAdjust="spacing" textLength="205" x="486.3973" y="1086.0261">View Immunization Schedule</text></g><g id="elem_ViewPrescription"><ellipse cx="589.1379" cy="1003.0276" fill="#F1F1F1" rx="83.1379" ry="19.0276" style="stroke:#181818;stroke-width:0.5;"/><text fill="#000000" font-family="sans-serif" font-size="14" lengthAdjust="spacing" textLength="126" x="525.5914" y="1006.0594">View Prescription</text></g><g id="elem_ManageChildEvents"><ellipse cx="231.7771" cy="1250.9554" fill="#F1F1F1" rx="92.7771" ry="20.9554" style="stroke:#181818;stroke-width:0.5;"/><text fill="#000000" font-family="sans-serif" font-size="14" lengthAdjust="spacing" textLength="148" x="157.7771" y="1253.8021">Manage Child Events</text></g><g id="elem_CreateChildEvent"><ellipse cx="589.0368" cy="1400.8074" fill="#F1F1F1" rx="87.0368" ry="19.8074" style="stroke:#181818;stroke-width:0.5;"/><text fill="#000000" font-family="sans-serif" font-size="14" lengthAdjust="spacing" textLength="135" x="521.5368" y="1403.654">Create Child Event</text></g><g id="elem_UpdateChildEvent"><ellipse cx="588.8518" cy="1326.0704" fill="#F1F1F1" rx="88.3518" ry="20.0704" style="stroke:#181818;stroke-width:0.5;"/><text fill="#000000" font-family="sans-serif" font-size="14" lengthAdjust="spacing" textLength="138" x="519.8518" y="1328.917">Update Child Event</text></g><g id="elem_DeleteChildEvent"><ellipse cx="589.0368" cy="1250.8074" fill="#F1F1F1" rx="87.0368" ry="19.8074" style="stroke:#181818;stroke-width:0.5;"/><text fill="#000000" font-family="sans-serif" font-size="14" lengthAdjust="spacing" textLength="135" x="521.5368" y="1253.654">Delete Child Event</text></g><g id="elem_SearchChildEvent"><ellipse cx="924.0368" cy="1250.8074" fill="#F1F1F1" rx="87.0368" ry="19.8074" style="stroke:#181818;stroke-width:0.5;"/><text fill="#000000" font-family="sans-serif" font-size="14" lengthAdjust="spacing" textLength="135" x="856.5368" y="1253.654">Search Child Event</text></g><g id="elem_ManageMealTimes"><ellipse cx="231.7915" cy="1479.1583" fill="#F1F1F1" rx="88.7915" ry="20.1583" style="stroke:#181818;stroke-width:0.5;"/><text fill="#000000" font-family="sans-serif" font-size="14" lengthAdjust="spacing" textLength="139" x="162.2915" y="1482.005">Manage Meal Times</text></g><g id="elem_UpdateMealTime"><ellipse cx="588.9263" cy="1555.7853" fill="#F1F1F1" rx="84.4263" ry="19.2853" style="stroke:#181818;stroke-width:0.5;"/><text fill="#000000" font-family="sans-serif" font-size="14" lengthAdjust="spacing" textLength="129" x="524.305" y="1558.6739">Update Meal Time</text></g><g id="elem_ViewMealTimeHistory"><ellipse cx="588.8822" cy="1479.0764" fill="#F1F1F1" rx="100.8822" ry="22.5764" style="stroke:#181818;stroke-width:0.5;"/><text fill="#000000" font-family="sans-serif" font-size="14" lengthAdjust="spacing" textLength="166" x="505.8822" y="1481.9231">View Meal Time History</text></g><g id="elem_ManageSleepTimes"><ellipse cx="231.8318" cy="1633.8664" fill="#F1F1F1" rx="92.3318" ry="20.8664" style="stroke:#181818;stroke-width:0.5;"/><text fill="#000000" font-family="sans-serif" font-size="14" lengthAdjust="spacing" textLength="147" x="158.3318" y="1636.713">Manage Sleep Times</text></g><g id="elem_UpdateSleepTime"><ellipse cx="588.9128" cy="1712.9826" fill="#F1F1F1" rx="87.9128" ry="19.9826" style="stroke:#181818;stroke-width:0.5;"/><text fill="#000000" font-family="sans-serif" font-size="14" lengthAdjust="spacing" textLength="137" x="520.4128" y="1715.8292">Update Sleep Time</text></g><g id="elem_ViewSleepTimeHistory"><ellipse cx="589.0329" cy="1633.8066" fill="#F1F1F1" rx="104.5329" ry="23.3066" style="stroke:#181818;stroke-width:0.5;"/><text fill="#000000" font-family="sans-serif" font-size="14" lengthAdjust="spacing" textLength="174" x="502.0329" y="1636.6533">View Sleep Time History</text></g><!--entity Parent--><g id="elem_Parent"><ellipse cx="30" cy="974.5" fill="#F1F1F1" rx="8" ry="8" style="stroke:#181818;stroke-width:0.5;"/><path d="M30,982.5 L30,1009.5 M17,990.5 L43,990.5 M30,1009.5 L17,1024.5 M30,1009.5 L43,1024.5 " fill="none" style="stroke:#181818;stroke-width:0.5;"/><text fill="#000000" font-family="sans-serif" font-size="14" lengthAdjust="spacing" textLength="48" x="6" y="1038.9951">Parent</text></g><!--link Parent to SignUpForParent--><g id="link_Parent_SignUpForParent"><path d="M54.1624,989.128 C65.532,982.3 79.6313,974.516 93,969 C117.465,958.906 145.458,950.634 169.809,944.415 " fill="none" id="Parent-SignUpForParent" style="stroke:#181818;stroke-width:1.0;"/></g><!--link Parent to ViewDocument--><g id="link_Parent_ViewDocument"><path d="M54.334,1004 C78.7551,1004 118.421,1004 153.987,1004 " fill="none" id="Parent-ViewDocument" style="stroke:#181818;stroke-width:1.0;"/></g><!--link Parent to ViewDoctorInstruction--><g id="link_Parent_ViewDoctorInstruction"><path d="M54.1436,1019.25 C65.509,1026.262 79.6101,1034.274 93,1040 C114.559,1049.219 138.892,1057.061 161.055,1063.294 " fill="none" id="Parent-ViewDoctorInstruction" style="stroke:#181818;stroke-width:1.0;"/></g><!--reverse link ViewDoctorInstruction to ViewImmunizationSchedule--><g id="link_ViewDoctorInstruction_ViewImmunizationSchedule"><path d="M340.7288,1080.9106 C382.9348,1081.2666 426.178,1081.632 469.964,1082.003 " fill="none" id="ViewDoctorInstruction-backto-ViewImmunizationSchedule" style="stroke:#181818;stroke-width:1.0;stroke-dasharray:7.0,7.0;"/><polygon fill="#181818" points="334.729,1080.86,343.6949,1084.9358,339.7288,1080.9022,343.7624,1076.9361,334.729,1080.86" style="stroke:#181818;stroke-width:1.0;"/><text fill="#000000" font-family="sans-serif" font-size="13" lengthAdjust="spacing" textLength="61" x="378" y="1077.0669">&#171;extend&#187;</text></g><!--reverse link ViewDoctorInstruction to ViewPrescription--><g id="link_ViewDoctorInstruction_ViewPrescription"><path d="M312.4196,1062.7741 C378.0176,1048.5451 466.996,1029.246 528.077,1015.997 " fill="none" id="ViewDoctorInstruction-backto-ViewPrescription" style="stroke:#181818;stroke-width:1.0;stroke-dasharray:7.0,7.0;"/><polygon fill="#181818" points="306.556,1064.046,316.1994,1066.0473,311.4424,1062.9861,314.5035,1058.2291,306.556,1064.046" style="stroke:#181818;stroke-width:1.0;"/><text fill="#000000" font-family="sans-serif" font-size="13" lengthAdjust="spacing" textLength="61" x="378" y="1032.0669">&#171;extend&#187;</text></g><!--link Parent to ManageConversation--><g id="link_Parent_ManageConversation"><path d="M32.5488,965.937 C36.5683,886.131 50.2042,696.01 93,543 C125.41,427.12 191.999,298.4 219.116,248.44 " fill="none" id="Parent-ManageConversation" style="stroke:#181818;stroke-width:1.0;"/></g><!--reverse link ManageConversation to CreateConversation--><g id="link_ManageConversation_CreateConversation"><path d="M262.6842,202.1895 C290.2752,179.8995 332.069,148.75 377,127 C423.172,104.65 478.819,88.17 521.371,77.53 " fill="none" id="ManageConversation-backto-CreateConversation" style="stroke:#181818;stroke-width:1.0;stroke-dasharray:7.0,7.0;"/><polygon fill="#181818" points="258.017,205.96,267.5315,203.4157,261.9064,202.8179,262.5042,197.1927,258.017,205.96" style="stroke:#181818;stroke-width:1.0;"/><text fill="#000000" font-family="sans-serif" font-size="13" lengthAdjust="spacing" textLength="61" x="378" y="98.0669">&#171;extend&#187;</text></g><!--reverse link ManageConversation to ReplyToMessage--><g id="link_ManageConversation_ReplyToMessage"><path d="M308.1605,242.8799 C373.6385,256.7099 465.014,276.02 527.458,289.21 " fill="none" id="ManageConversation-backto-ReplyToMessage" style="stroke:#181818;stroke-width:1.0;stroke-dasharray:7.0,7.0;"/><polygon fill="#181818" points="302.29,241.64,310.2691,247.4136,307.1821,242.6733,311.9223,239.5863,302.29,241.64" style="stroke:#181818;stroke-width:1.0;"/><text fill="#000000" font-family="sans-serif" font-size="13" lengthAdjust="spacing" textLength="61" x="378" y="254.0669">&#171;extend&#187;</text></g><!--reverse link ManageConversation to DeleteConversation--><g id="link_ManageConversation_DeleteConversation"><path d="M333.667,227 C385.735,227 444.062,227 495.745,227 " fill="none" id="ManageConversation-backto-DeleteConversation" style="stroke:#181818;stroke-width:1.0;stroke-dasharray:7.0,7.0;"/><polygon fill="#181818" points="327.667,227,336.667,231,332.667,227,336.667,223,327.667,227" style="stroke:#181818;stroke-width:1.0;"/><text fill="#000000" font-family="sans-serif" font-size="13" lengthAdjust="spacing" textLength="61" x="378" y="223.0669">&#171;extend&#187;</text></g><!--link DeleteConversation to SearchConversation--><g id="link_DeleteConversation_SearchConversation"><path d="M661.437,213.7 C717.622,203.24 789.6283,189.8277 845.7823,179.3777 " fill="none" id="DeleteConversation-to-SearchConversation" style="stroke:#181818;stroke-width:1.0;stroke-dasharray:7.0,7.0;"/><polygon fill="#181818" points="851.681,178.28,842.1011,175.9941,846.7654,179.1948,843.5647,183.8591,851.681,178.28" style="stroke:#181818;stroke-width:1.0;"/><text fill="#000000" font-family="sans-serif" font-size="13" lengthAdjust="spacing" textLength="61" x="739" y="185.0669">&#171;include&#187;</text></g><!--reverse link ManageConversation to SearchConversation--><g id="link_ManageConversation_SearchConversation"><path d="M313.2249,212.74 C335.6059,208.84 354.332,205.67 377,202 C418.261,195.31 428.498,192.98 470,188 C588.737,173.76 618.531,169.34 738,164 C765.972,162.75 773,163.89 801,164 C810.743,164.04 820.924,164.1 831.071,164.17 " fill="none" id="ManageConversation-backto-SearchConversation" style="stroke:#181818;stroke-width:1.0;stroke-dasharray:7.0,7.0;"/><polygon fill="#181818" points="307.314,213.77,316.8671,216.1656,312.2398,212.9117,315.4937,208.2844,307.314,213.77" style="stroke:#181818;stroke-width:1.0;"/><text fill="#000000" font-family="sans-serif" font-size="13" lengthAdjust="spacing" textLength="61" x="558.5" y="162.0669">&#171;extend&#187;</text></g><!--link Parent to MonitorChildHealthStatus--><g id="link_Parent_MonitorChildHealthStatus"><path d="M44.3107,965.913 C54.3523,942.242 70.3145,912.834 93,894 C108.773,880.905 128.381,871.391 147.817,864.503 " fill="none" id="Parent-MonitorChildHealthStatus" style="stroke:#181818;stroke-width:1.0;"/></g><!--reverse link MonitorChildHealthStatus to MonitorChildEventChart--><g id="link_MonitorChildHealthStatus_MonitorChildEventChart"><path d="M319.4082,866.4721 C381.3932,880.4411 460.277,898.217 519.128,911.48 " fill="none" id="MonitorChildHealthStatus-backto-MonitorChildEventChart" style="stroke:#181818;stroke-width:1.0;stroke-dasharray:7.0,7.0;"/><polygon fill="#181818" points="313.555,865.153,321.4554,871.0338,318.4327,866.2522,323.2142,863.2295,313.555,865.153" style="stroke:#181818;stroke-width:1.0;"/><text fill="#000000" font-family="sans-serif" font-size="13" lengthAdjust="spacing" textLength="61" x="378" y="875.0669">&#171;extend&#187;</text></g><!--reverse link MonitorChildHealthStatus to MonitorChildMealTime--><g id="link_MonitorChildHealthStatus_MonitorChildMealTime"><path d="M353.2779,846.3222 C394.6269,846.0892 435.241,845.861 476.361,845.629 " fill="none" id="MonitorChildHealthStatus-backto-MonitorChildMealTime" style="stroke:#181818;stroke-width:1.0;stroke-dasharray:7.0,7.0;"/><polygon fill="#181818" points="347.278,846.356,356.3004,850.3052,352.2779,846.3278,356.2553,842.3053,347.278,846.356" style="stroke:#181818;stroke-width:1.0;"/><text fill="#000000" font-family="sans-serif" font-size="13" lengthAdjust="spacing" textLength="61" x="378" y="841.0669">&#171;extend&#187;</text></g><!--reverse link MonitorChildHealthStatus to MonitorChildSleepTime--><g id="link_MonitorChildHealthStatus_MonitorChildSleepTime"><path d="M315.4167,826.5704 C375.0367,811.7914 451.576,792.818 511.239,778.028 " fill="none" id="MonitorChildHealthStatus-backto-MonitorChildSleepTime" style="stroke:#181818;stroke-width:1.0;stroke-dasharray:7.0,7.0;"/><polygon fill="#181818" points="309.593,828.014,319.291,829.7311,314.4461,826.811,317.3662,821.9661,309.593,828.014" style="stroke:#181818;stroke-width:1.0;"/><text fill="#000000" font-family="sans-serif" font-size="13" lengthAdjust="spacing" textLength="61" x="378" y="793.0669">&#171;extend&#187;</text></g><!--link Parent to ManageChild--><g id="link_Parent_ManageChild"><path d="M39.8691,965.759 C50.0621,924.739 68.579,858.187 93,804 C130.711,720.32 193.181,629.57 219.131,593.3 " fill="none" id="Parent-ManageChild" style="stroke:#181818;stroke-width:1.0;"/></g><!--reverse link ManageChild to CreateChild--><g id="link_ManageChild_CreateChild"><path d="M279.2366,592.2425 C308.0226,601.6425 341.927,612.5 377,623 C434.209,640.13 500.607,658.44 543.407,670.04 " fill="none" id="ManageChild-backto-CreateChild" style="stroke:#181818;stroke-width:1.0;stroke-dasharray:7.0,7.0;"/><polygon fill="#181818" points="273.533,590.38,280.8467,596.9762,278.286,591.9321,283.3301,589.3713,273.533,590.38" style="stroke:#181818;stroke-width:1.0;"/><text fill="#000000" font-family="sans-serif" font-size="13" lengthAdjust="spacing" textLength="61" x="378" y="619.0669">&#171;extend&#187;</text></g><!--reverse link ManageChild to ViewHealthUpdateHistory--><g id="link_ManageChild_ViewHealthUpdateHistory"><path d="M251.4159,556.3221 C275.6659,529.8021 323.301,481.56 377,451 C417.613,427.88 467.088,411.19 507.92,400.01 " fill="none" id="ManageChild-backto-ViewHealthUpdateHistory" style="stroke:#181818;stroke-width:1.0;stroke-dasharray:7.0,7.0;"/><polygon fill="#181818" points="247.367,560.75,256.3923,556.8074,250.7411,557.0601,250.4884,551.4089,247.367,560.75" style="stroke:#181818;stroke-width:1.0;"/><text fill="#000000" font-family="sans-serif" font-size="13" lengthAdjust="spacing" textLength="61" x="378" y="419.0669">&#171;extend&#187;</text></g><!--reverse link ManageChild to UpdateChild--><g id="link_ManageChild_UpdateChild"><path d="M303.2556,584.3223 C367.8926,591.0623 460.939,600.76 525.085,607.44 " fill="none" id="ManageChild-backto-UpdateChild" style="stroke:#181818;stroke-width:1.0;stroke-dasharray:7.0,7.0;"/><polygon fill="#181818" points="297.288,583.7,305.8246,588.6118,302.261,584.2186,306.6543,580.655,297.288,583.7" style="stroke:#181818;stroke-width:1.0;"/><text fill="#000000" font-family="sans-serif" font-size="13" lengthAdjust="spacing" textLength="61" x="378" y="589.0669">&#171;extend&#187;</text></g><!--reverse link ManageChild to DeleteChild--><g id="link_ManageChild_DeleteChild"><path d="M304.9182,570.718 C369.3832,565.088 460.887,557.1 524.502,551.54 " fill="none" id="ManageChild-backto-DeleteChild" style="stroke:#181818;stroke-width:1.0;stroke-dasharray:7.0,7.0;"/><polygon fill="#181818" points="298.941,571.24,308.2549,574.4418,303.922,570.805,307.5589,566.4721,298.941,571.24" style="stroke:#181818;stroke-width:1.0;"/><text fill="#000000" font-family="sans-serif" font-size="13" lengthAdjust="spacing" textLength="61" x="378" y="556.0669">&#171;extend&#187;</text></g><!--link UpdateChild to SearchChild--><g id="link_UpdateChild_SearchChild"><path d="M642.464,603.32 C685.158,594.63 746.974,582.04 801,571 C824.301,566.24 844.2253,562.1551 866.0763,557.6751 " fill="none" id="UpdateChild-to-SearchChild" style="stroke:#181818;stroke-width:1.0;stroke-dasharray:7.0,7.0;"/><polygon fill="#181818" points="871.954,556.47,862.334,554.3591,867.0559,557.4742,863.9408,562.1961,871.954,556.47" style="stroke:#181818;stroke-width:1.0;"/><text fill="#000000" font-family="sans-serif" font-size="13" lengthAdjust="spacing" textLength="61" x="739" y="567.0669">&#171;include&#187;</text></g><!--link DeleteChild to SearchChild--><g id="link_DeleteChild_SearchChild"><path d="M657.789,546 C715.409,546 791.713,546 849.306,546 " fill="none" id="DeleteChild-to-SearchChild" style="stroke:#181818;stroke-width:1.0;stroke-dasharray:7.0,7.0;"/><polygon fill="#181818" points="855.306,546,846.306,542,850.306,546,846.306,550,855.306,546" style="stroke:#181818;stroke-width:1.0;"/><text fill="#000000" font-family="sans-serif" font-size="13" lengthAdjust="spacing" textLength="61" x="739" y="542.0669">&#171;include&#187;</text></g><!--reverse link ManageChild to SearchChild--><g id="link_ManageChild_SearchChild"><path d="M281.7809,562.2224 C310.3309,553.6924 342.928,544.18 377,535 C418.113,523.93 427.734,517.15 470,512 C616.085,494.2 655.472,499.11 801,521 C825.373,524.67 852.232,530.02 874.53,534.84 " fill="none" id="ManageChild-backto-SearchChild" style="stroke:#181818;stroke-width:1.0;stroke-dasharray:7.0,7.0;"/><polygon fill="#181818" points="276.032,563.94,285.8004,565.1962,280.8227,562.5086,283.5103,557.531,276.032,563.94" style="stroke:#181818;stroke-width:1.0;"/><text fill="#000000" font-family="sans-serif" font-size="13" lengthAdjust="spacing" textLength="61" x="558.5" y="498.0669">&#171;extend&#187;</text></g><!--link Parent to ManageChildEvents--><g id="link_Parent_ManageChildEvents"><path d="M47.3488,1042.234 C58.4554,1066.054 74.466,1096.684 93,1121 C126.421,1164.848 175.186,1206.97 204.908,1230.854 " fill="none" id="Parent-ManageChildEvents" style="stroke:#181818;stroke-width:1.0;"/></g><!--reverse link ManageChildEvents to CreateChildEvent--><g id="link_ManageChildEvents_CreateChildEvent"><path d="M274.5556,1273.0273 C320.4466,1296.9473 397.027,1335.328 470,1364 C490.282,1371.969 513.031,1379.435 533.102,1385.545 " fill="none" id="ManageChildEvents-backto-CreateChildEvent" style="stroke:#181818;stroke-width:1.0;stroke-dasharray:7.0,7.0;"/><polygon fill="#181818" points="269.235,1270.254,275.3671,1277.961,273.6688,1272.5651,279.0648,1270.8669,269.235,1270.254" style="stroke:#181818;stroke-width:1.0;"/><text fill="#000000" font-family="sans-serif" font-size="13" lengthAdjust="spacing" textLength="61" x="378" y="1319.0669">&#171;extend&#187;</text></g><!--reverse link ManageChildEvents to UpdateChildEvent--><g id="link_ManageChildEvents_UpdateChildEvent"><path d="M306.4784,1266.5232 C370.6524,1280.0812 460.551,1299.074 523.633,1312.401 " fill="none" id="ManageChildEvents-backto-UpdateChildEvent" style="stroke:#181818;stroke-width:1.0;stroke-dasharray:7.0,7.0;"/><polygon fill="#181818" points="300.608,1265.283,308.5868,1271.057,305.5,1266.3165,310.2405,1263.2297,300.608,1265.283" style="stroke:#181818;stroke-width:1.0;"/><text fill="#000000" font-family="sans-serif" font-size="13" lengthAdjust="spacing" textLength="61" x="378" y="1277.0669">&#171;extend&#187;</text></g><!--reverse link ManageChildEvents to DeleteChildEvent--><g id="link_ManageChildEvents_DeleteChildEvent"><path d="M331.345,1251 C385.889,1251 448.493,1251 501.908,1251 " fill="none" id="ManageChildEvents-backto-DeleteChildEvent" style="stroke:#181818;stroke-width:1.0;stroke-dasharray:7.0,7.0;"/><polygon fill="#181818" points="325.345,1251,334.345,1255,330.345,1251,334.345,1247,325.345,1251" style="stroke:#181818;stroke-width:1.0;"/><text fill="#000000" font-family="sans-serif" font-size="13" lengthAdjust="spacing" textLength="61" x="378" y="1247.0669">&#171;extend&#187;</text></g><!--link UpdateChildEvent to SearchChildEvent--><g id="link_UpdateChildEvent_SearchChildEvent"><path d="M652.244,1311.981 C712.012,1298.52 795.9186,1279.6223 855.4896,1266.2053 " fill="none" id="UpdateChildEvent-to-SearchChildEvent" style="stroke:#181818;stroke-width:1.0;stroke-dasharray:7.0,7.0;"/><polygon fill="#181818" points="861.343,1264.887,851.684,1262.9623,856.4652,1265.9856,853.4418,1270.7668,861.343,1264.887" style="stroke:#181818;stroke-width:1.0;"/><text fill="#000000" font-family="sans-serif" font-size="13" lengthAdjust="spacing" textLength="61" x="739" y="1275.0669">&#171;include&#187;</text></g><!--link DeleteChildEvent to SearchChildEvent--><g id="link_DeleteChildEvent_SearchChildEvent"><path d="M676.189,1251 C725.618,1251 781.466,1251 830.884,1251 " fill="none" id="DeleteChildEvent-to-SearchChildEvent" style="stroke:#181818;stroke-width:1.0;stroke-dasharray:7.0,7.0;"/><polygon fill="#181818" points="836.884,1251,827.884,1247,831.884,1251,827.884,1255,836.884,1251" style="stroke:#181818;stroke-width:1.0;"/><text fill="#000000" font-family="sans-serif" font-size="13" lengthAdjust="spacing" textLength="61" x="739" y="1247.0669">&#171;include&#187;</text></g><!--reverse link ManageChildEvents to SearchChildEvent--><g id="link_ManageChildEvents_SearchChildEvent"><path d="M310.9592,1236.8228 C333.9202,1232.8048 353.542,1229.548 377,1226 C563.325,1197.819 615.122,1195.006 801,1226 C820.407,1229.236 841.432,1233.33 860.474,1237.264 " fill="none" id="ManageChildEvents-backto-SearchChildEvent" style="stroke:#181818;stroke-width:1.0;stroke-dasharray:7.0,7.0;"/><polygon fill="#181818" points="305.049,1237.857,314.6038,1240.2458,309.9742,1236.9951,313.2248,1232.3655,305.049,1237.857" style="stroke:#181818;stroke-width:1.0;"/><text fill="#000000" font-family="sans-serif" font-size="13" lengthAdjust="spacing" textLength="61" x="558.5" y="1199.0669">&#171;extend&#187;</text></g><!--link Parent to ManageMealTimes--><g id="link_Parent_ManageMealTimes"><path d="M34.1944,1042.126 C40.0185,1098.475 55.4322,1206.343 93,1290 C123.791,1358.566 182.147,1426.735 212.149,1459.273 " fill="none" id="Parent-ManageMealTimes" style="stroke:#181818;stroke-width:1.0;"/></g><!--reverse link ManageMealTimes to UpdateMealTime--><g id="link_ManageMealTimes_UpdateMealTime"><path d="M302.7407,1494.1268 C367.9177,1508.2638 462.491,1528.777 526.714,1542.707 " fill="none" id="ManageMealTimes-backto-UpdateMealTime" style="stroke:#181818;stroke-width:1.0;stroke-dasharray:7.0,7.0;"/><polygon fill="#181818" points="296.877,1492.855,304.8246,1498.6719,301.7634,1493.9149,306.5204,1490.8537,296.877,1492.855" style="stroke:#181818;stroke-width:1.0;"/><text fill="#000000" font-family="sans-serif" font-size="13" lengthAdjust="spacing" textLength="61" x="378" y="1506.0669">&#171;extend&#187;</text></g><!--reverse link ManageMealTimes to ViewMealTimeHistory--><g id="link_ManageMealTimes_ViewMealTimeHistory"><path d="M327.209,1479 C377.724,1479 435.286,1479 487.697,1479 " fill="none" id="ManageMealTimes-backto-ViewMealTimeHistory" style="stroke:#181818;stroke-width:1.0;stroke-dasharray:7.0,7.0;"/><polygon fill="#181818" points="321.209,1479,330.209,1483,326.209,1479,330.209,1475,321.209,1479" style="stroke:#181818;stroke-width:1.0;"/><text fill="#000000" font-family="sans-serif" font-size="13" lengthAdjust="spacing" textLength="61" x="378" y="1475.0669">&#171;extend&#187;</text></g><!--link Parent to ManageSleepTimes--><g id="link_Parent_ManageSleepTimes"><path d="M32.0443,1042.301 C35.4517,1146.843 48.7155,1434.753 93,1517 C116.379,1560.42 162.986,1594.588 195.537,1614.521 " fill="none" id="Parent-ManageSleepTimes" style="stroke:#181818;stroke-width:1.0;"/></g><!--reverse link ManageSleepTimes to UpdateSleepTime--><g id="link_ManageSleepTimes_UpdateSleepTime"><path d="M304.7977,1649.9774 C369.5637,1664.3904 461.797,1684.9154 525.39,1699.0671 " fill="none" id="ManageSleepTimes-backto-UpdateSleepTime" style="stroke:#181818;stroke-width:1.0;stroke-dasharray:7.0,7.0;"/><polygon fill="#181818" points="298.941,1648.674,306.8572,1654.5335,303.8216,1649.7601,308.595,1646.7245,298.941,1648.674" style="stroke:#181818;stroke-width:1.0;"/><text fill="#000000" font-family="sans-serif" font-size="13" lengthAdjust="spacing" textLength="61" x="378" y="1662.0669">&#171;extend&#187;</text></g><!--reverse link ManageSleepTimes to ViewSleepTimeHistory--><g id="link_ManageSleepTimes_ViewSleepTimeHistory"><path d="M330.883,1634 C379.675,1634 433.817,1634 484.28,1634 " fill="none" id="ManageSleepTimes-backto-ViewSleepTimeHistory" style="stroke:#181818;stroke-width:1.0;stroke-dasharray:7.0,7.0;"/><polygon fill="#181818" points="324.883,1634,333.883,1638,329.883,1634,333.883,1630,324.883,1634" style="stroke:#181818;stroke-width:1.0;"/><text fill="#000000" font-family="sans-serif" font-size="13" lengthAdjust="spacing" textLength="61" x="378" y="1630.0669">&#171;extend&#187;</text></g><!--SRC=[fLQnRjim4Dtz5GSlcU8FA8m0XTCY6Gm4TT9TbHbBg4G94fKsBJfd3le32RfqwLQWG8nEBleV_fEAf4IToAEie1eCw-xUu_7kdiY4NGiG6HJn9XAmZWiMYZZZaqaGYgo0Yw1WN41GmbJ_dKucCYJWcuJ1T175oHhEM92821Pr0BpCyobyXlgPo9yZM4I1K7-haeL1MOEM0Gys31OPls556SZbfd85RSTcXTCqbqN6Dv8350dVFTn2kN_w3Udk9uZzqpTu5sImsM-_fd0JxxTt8Vovt_tW4RpVVK_hYErT3b6sV_eLGh9xa937h0xv-yX1HDL-Un_Ep78crJSiJsvbUPQiBElaL9xAU9ar9d1HfonXWjYWjfCRDDWL2uemSh7QFenT52oWrjLs4ckQ9FjuRHfEDqm6uKx9TtyM9hfPdew-ojVzQ6tmHBULDT5DIUdejfOckYaY7VqsPX_QKMwoEelBMWIt2YlTsgkTZM_IL72PyLWA1Yl2gY8H0IiHYAhKHTL-vTPUxIG6h4TrLCAhcxfdBeior_ehn66APRqYNCOfSscaIteEawmInd8FY_8fcgPYgtZ3wqBtYzGOqIZgnjNcg_nrLZJZsL2ebfrcOPKwCzjpcGQQM4nmpajHLA7HXSCXjuY2C5ljik4knNcQLZp-f9G7gp1YwofXXWLxMwU7wA9WPLZ4UIyBR6ptfGV2h-BUn7HYHZ2lf3NK5hOo3giR0P76FK0iT0H4SlS0iUOH42c_0xRIDQDF5inMXhAscYYzUpOmj6E_abHx3SJvyBH0wwE3z4QcxkXHcOqI_SbtG9Hzfs0w_Gxav6-WxGQ-A8xcTd5yJ0kySxlQTNmU9P9UcCzcNkszWFcSVHIChqzEHj9W2VRWLge3DnpNfTZTevjCpuFktrIUWtIlAYHQFcuep6Odn8L5CiGyJAerEvm03VSMrdDsTglu3bUv5drcqkKQozCgzlzOZ6v6J5NlLeDiU8xa-z0Oc7ZFRMSK5dtTHyMZZxfto10ddguMuuuLcipn83ip2z3BpDy4wnHrF7P3bFLGfH3KFZsV0RNFpp7rLe5s_GpwOEMV2wSJfx33Ud1FQCkEQZaiLW96dCc7CoBENTk1SgAbFmYaJbgC_WS0]--></g></svg>