<?xml version="1.0" encoding="us-ascii" standalone="no"?><svg xmlns="http://www.w3.org/2000/svg" xmlns:xlink="http://www.w3.org/1999/xlink" contentStyleType="text/css" height="1176px" preserveAspectRatio="none" style="width:614px;height:1176px;background:#FFFFFF;" version="1.1" viewBox="0 0 614 1176" width="614px" zoomAndPan="magnify"><defs/><g><!--cluster Child Health Care App--><g id="cluster_Child Health Care App"><rect fill="none" height="1163" rx="2.5" ry="2.5" style="stroke:#181818;stroke-width:1.0;" width="505" x="103" y="7"/><text fill="#000000" font-family="sans-serif" font-size="14" font-weight="bold" lengthAdjust="spacing" textLength="175" x="268" y="21.9951">Child Health Care App</text></g><g id="elem_SignIn"><ellipse cx="545.8836" cy="554.1478" fill="#F1F1F1" rx="45.8836" ry="14.6478" style="stroke:#181818;stroke-width:0.5;"/><text fill="#000000" font-family="sans-serif" font-size="14" lengthAdjust="spacing" textLength="48" x="518.8836" y="557.8954">Sign In</text></g><g id="elem_ManageDoctor"><ellipse cx="248.1676" cy="60.1335" fill="#F1F1F1" rx="76.1676" ry="17.6335" style="stroke:#181818;stroke-width:0.5;"/><text fill="#000000" font-family="sans-serif" font-size="14" lengthAdjust="spacing" textLength="109" x="190.6676" y="63.8811">Manage Doctor</text></g><g id="elem_ManageParent"><ellipse cx="247.8844" cy="129.9769" fill="#F1F1F1" rx="75.3844" ry="17.4769" style="stroke:#181818;stroke-width:0.5;"/><text fill="#000000" font-family="sans-serif" font-size="14" lengthAdjust="spacing" textLength="107" x="191.3844" y="133.7244">Manage Parent</text></g><g id="elem_ManageDocument"><ellipse cx="248.0998" cy="202.22" fill="#F1F1F1" rx="86.5998" ry="19.72" style="stroke:#181818;stroke-width:0.5;"/><text fill="#000000" font-family="sans-serif" font-size="14" lengthAdjust="spacing" textLength="134" x="181.0998" y="205.0666">Manage Document</text></g><g id="elem_ViewUserReport"><ellipse cx="248.0368" cy="276.8074" fill="#F1F1F1" rx="87.0368" ry="19.8074" style="stroke:#181818;stroke-width:0.5;"/><text fill="#000000" font-family="sans-serif" font-size="14" lengthAdjust="spacing" textLength="135" x="180.5368" y="279.654">View User's Report</text></g><g id="elem_ManageImmunizationSchedule"><ellipse cx="247.7813" cy="437.1563" fill="#F1F1F1" rx="128.7813" ry="28.1563" style="stroke:#181818;stroke-width:0.5;"/><text fill="#000000" font-family="sans-serif" font-size="14" lengthAdjust="spacing" textLength="226" x="134.7813" y="440.0029">Manage Immunization Schedule</text></g><g id="elem_ManagePrescription"><ellipse cx="247.8318" cy="352.8664" fill="#F1F1F1" rx="92.3318" ry="20.8664" style="stroke:#181818;stroke-width:0.5;"/><text fill="#000000" font-family="sans-serif" font-size="14" lengthAdjust="spacing" textLength="147" x="174.3318" y="355.713">Manage Prescription</text></g><g id="elem_MonitorChildHealthStatus"><ellipse cx="248.1614" cy="671.9323" fill="#F1F1F1" rx="115.1614" ry="25.4323" style="stroke:#181818;stroke-width:0.5;"/><text fill="#000000" font-family="sans-serif" font-size="14" lengthAdjust="spacing" textLength="197" x="149.6614" y="674.779">Monitor Child Health Status</text></g><g id="elem_ManageChild"><ellipse cx="247.8049" cy="517.061" fill="#F1F1F1" rx="70.8049" ry="16.561" style="stroke:#181818;stroke-width:0.5;"/><text fill="#000000" font-family="sans-serif" font-size="14" lengthAdjust="spacing" textLength="95" x="197.3049" y="520.8085">Manage Child</text></g><g id="elem_ManageConversation"><ellipse cx="247.9604" cy="589.9921" fill="#F1F1F1" rx="95.4604" ry="21.4921" style="stroke:#181818;stroke-width:0.5;"/><text fill="#000000" font-family="sans-serif" font-size="14" lengthAdjust="spacing" textLength="154" x="170.9604" y="592.8388">Manage Conversation</text></g><g id="elem_ViewDocument"><ellipse cx="247.7532" cy="831.9506" fill="#F1F1F1" rx="77.7532" ry="17.9506" style="stroke:#181818;stroke-width:0.5;"/><text fill="#000000" font-family="sans-serif" font-size="14" lengthAdjust="spacing" textLength="113" x="188.6994" y="835.5809">View Document</text></g><g id="elem_ManageChildEvents"><ellipse cx="247.7771" cy="905.9554" fill="#F1F1F1" rx="92.7771" ry="20.9554" style="stroke:#181818;stroke-width:0.5;"/><text fill="#000000" font-family="sans-serif" font-size="14" lengthAdjust="spacing" textLength="148" x="173.7771" y="908.8021">Manage Child Events</text></g><g id="elem_ManageMealTimes"><ellipse cx="247.7915" cy="982.1583" fill="#F1F1F1" rx="88.7915" ry="20.1583" style="stroke:#181818;stroke-width:0.5;"/><text fill="#000000" font-family="sans-serif" font-size="14" lengthAdjust="spacing" textLength="139" x="178.2915" y="985.005">Manage Meal Times</text></g><g id="elem_ManageSleepTimes"><ellipse cx="247.8318" cy="1057.8664" fill="#F1F1F1" rx="92.3318" ry="20.8664" style="stroke:#181818;stroke-width:0.5;"/><text fill="#000000" font-family="sans-serif" font-size="14" lengthAdjust="spacing" textLength="147" x="174.3318" y="1060.713">Manage Sleep Times</text></g><g id="elem_SignUpForParent"><ellipse cx="247.7932" cy="1133.9586" fill="#F1F1F1" rx="85.2932" ry="19.4586" style="stroke:#181818;stroke-width:0.5;"/><text fill="#000000" font-family="sans-serif" font-size="14" lengthAdjust="spacing" textLength="131" x="182.2932" y="1136.8053">Sign Up for Parent</text></g><g id="elem_ViewDoctorInstruction"><ellipse cx="248.2042" cy="755.9408" fill="#F1F1F1" rx="102.7042" ry="22.9408" style="stroke:#181818;stroke-width:0.5;"/><text fill="#000000" font-family="sans-serif" font-size="14" lengthAdjust="spacing" textLength="170" x="163.2042" y="758.7875">View Doctor Instruction</text></g><!--entity Admin--><g id="elem_Admin"><ellipse cx="31" cy="136.5" fill="#F1F1F1" rx="8" ry="8" style="stroke:#181818;stroke-width:0.5;"/><path d="M31,144.5 L31,171.5 M18,152.5 L44,152.5 M31,171.5 L18,186.5 M31,171.5 L44,186.5 " fill="none" style="stroke:#181818;stroke-width:0.5;"/><text fill="#000000" font-family="sans-serif" font-size="14" lengthAdjust="spacing" textLength="46" x="8" y="200.9951">Admin</text></g><!--entity Doctor--><g id="elem_Doctor"><ellipse cx="31" cy="487.5" fill="#F1F1F1" rx="8" ry="8" style="stroke:#181818;stroke-width:0.5;"/><path d="M31,495.5 L31,522.5 M18,503.5 L44,503.5 M31,522.5 L18,537.5 M31,522.5 L44,537.5 " fill="none" style="stroke:#181818;stroke-width:0.5;"/><text fill="#000000" font-family="sans-serif" font-size="14" lengthAdjust="spacing" textLength="50" x="6" y="551.9951">Doctor</text></g><!--entity Parent--><g id="elem_Parent"><ellipse cx="31" cy="802.5" fill="#F1F1F1" rx="8" ry="8" style="stroke:#181818;stroke-width:0.5;"/><path d="M31,810.5 L31,837.5 M18,818.5 L44,818.5 M31,837.5 L18,852.5 M31,837.5 L44,852.5 " fill="none" style="stroke:#181818;stroke-width:0.5;"/><text fill="#000000" font-family="sans-serif" font-size="14" lengthAdjust="spacing" textLength="48" x="7" y="866.9951">Parent</text></g><!--link ManageDoctor to SignIn--><g id="link_ManageDoctor_SignIn"><path d="M316.1,67.91 C367.416,77.82 435.106,100.09 470,150 C515.678,215.335 538.2906,468.5407 543.4156,533.2967 " fill="none" id="ManageDoctor-to-SignIn" style="stroke:#181818;stroke-width:1.0;stroke-dasharray:7.0,7.0;"/><polygon fill="#181818" points="543.889,539.278,547.1665,529.9905,543.4945,534.2936,539.1914,530.6216,543.889,539.278" style="stroke:#181818;stroke-width:1.0;"/><text fill="#000000" font-family="sans-serif" font-size="13" lengthAdjust="spacing" textLength="61" x="408" y="97.0669">&#171;include&#187;</text></g><!--link ManageParent to SignIn--><g id="link_ManageParent_SignIn"><path d="M311.244,139.64 C363.116,151.25 434.112,176.25 470,229 C539.87,331.695 545.317,484.465 545.244,533.243 " fill="none" id="ManageParent-to-SignIn" style="stroke:#181818;stroke-width:1.0;stroke-dasharray:7.0,7.0;"/><polygon fill="#181818" points="545.235,539.243,549.2485,530.249,545.2425,534.243,541.2485,530.237,545.235,539.243" style="stroke:#181818;stroke-width:1.0;"/><text fill="#000000" font-family="sans-serif" font-size="13" lengthAdjust="spacing" textLength="61" x="408" y="171.0669">&#171;include&#187;</text></g><!--link ManageDocument to SignIn--><g id="link_ManageDocument_SignIn"><path d="M314.81,214.498 C365.749,227.827 433.565,254.296 470,305 C524.93,381.444 539.585,492.5632 543.336,533.3842 " fill="none" id="ManageDocument-to-SignIn" style="stroke:#181818;stroke-width:1.0;stroke-dasharray:7.0,7.0;"/><polygon fill="#181818" points="543.885,539.359,547.0447,530.0307,543.4275,534.38,539.0782,530.7628,543.885,539.359" style="stroke:#181818;stroke-width:1.0;"/><text fill="#000000" font-family="sans-serif" font-size="13" lengthAdjust="spacing" textLength="61" x="408" y="250.0669">&#171;include&#187;</text></g><!--link ViewUserReport to SignIn--><g id="link_ViewUserReport_SignIn"><path d="M312.566,290.484 C333.689,296.232 356.927,303.972 377,314 C423.28,337.12 437.853,343.467 470,384 C509.69,434.043 531.2761,502.5811 539.7331,533.6921 " fill="none" id="ViewUserReport-to-SignIn" style="stroke:#181818;stroke-width:1.0;stroke-dasharray:7.0,7.0;"/><polygon fill="#181818" points="541.307,539.482,542.8061,529.7479,539.9954,534.6571,535.0862,531.8464,541.307,539.482" style="stroke:#181818;stroke-width:1.0;"/><text fill="#000000" font-family="sans-serif" font-size="13" lengthAdjust="spacing" textLength="61" x="408" y="326.0669">&#171;include&#187;</text></g><!--link ManageImmunizationSchedule to SignIn--><g id="link_ManageImmunizationSchedule_SignIn"><path d="M326.009,459.317 C369.095,472.745 423.361,491.238 470,512 C489.087,520.497 504.5899,529.1626 519.3769,538.0796 " fill="none" id="ManageImmunizationSchedule-to-SignIn" style="stroke:#181818;stroke-width:1.0;stroke-dasharray:7.0,7.0;"/><polygon fill="#181818" points="524.515,541.178,518.8735,533.105,520.2333,538.596,514.7423,539.9558,524.515,541.178" style="stroke:#181818;stroke-width:1.0;"/><text fill="#000000" font-family="sans-serif" font-size="13" lengthAdjust="spacing" textLength="61" x="408" y="484.0669">&#171;include&#187;</text></g><!--link ManagePrescription to SignIn--><g id="link_ManagePrescription_SignIn"><path d="M313.573,367.828 C334.434,373.877 357.259,381.875 377,392 C423.271,415.732 432.55,426.921 470,463 C495.801,487.858 517.8393,516.4064 531.4393,535.0524 " fill="none" id="ManagePrescription-to-SignIn" style="stroke:#181818;stroke-width:1.0;stroke-dasharray:7.0,7.0;"/><polygon fill="#181818" points="534.975,539.9,532.9031,530.2715,532.0286,535.8604,526.4397,534.9858,534.975,539.9" style="stroke:#181818;stroke-width:1.0;"/><text fill="#000000" font-family="sans-serif" font-size="13" lengthAdjust="spacing" textLength="61" x="408" y="405.0669">&#171;include&#187;</text></g><!--link ManageConversation to SignIn--><g id="link_ManageConversation_SignIn"><path d="M343.018,592.456 C382.548,591.87 428.828,589.052 470,581 C486.57,577.76 498.8158,573.721 512.9208,568.03 " fill="none" id="ManageConversation-to-SignIn" style="stroke:#181818;stroke-width:1.0;stroke-dasharray:7.0,7.0;"/><polygon fill="#181818" points="518.485,565.785,508.6421,565.443,513.8482,567.6558,511.6354,572.8619,518.485,565.785" style="stroke:#181818;stroke-width:1.0;"/><text fill="#000000" font-family="sans-serif" font-size="13" lengthAdjust="spacing" textLength="61" x="408" y="577.0669">&#171;include&#187;</text></g><!--link ManageChild to SignIn--><g id="link_ManageChild_SignIn"><path d="M311.051,524.756 C368.69,531.961 446.9903,541.7488 497.0933,548.0118 " fill="none" id="ManageChild-to-SignIn" style="stroke:#181818;stroke-width:1.0;stroke-dasharray:7.0,7.0;"/><polygon fill="#181818" points="503.047,548.756,494.6127,543.6706,498.0856,548.1358,493.6204,551.6088,503.047,548.756" style="stroke:#181818;stroke-width:1.0;"/><text fill="#000000" font-family="sans-serif" font-size="13" lengthAdjust="spacing" textLength="61" x="408" y="533.0669">&#171;include&#187;</text></g><!--link MonitorChildHealthStatus to SignIn--><g id="link_MonitorChildHealthStatus_SignIn"><path d="M340.802,656.886 C381.774,647.908 429.772,634.217 470,614 C493.839,602.02 512.8573,585.7422 527.0073,572.0952 " fill="none" id="MonitorChildHealthStatus-to-SignIn" style="stroke:#181818;stroke-width:1.0;stroke-dasharray:7.0,7.0;"/><polygon fill="#181818" points="531.326,567.93,522.0711,571.2986,527.7271,571.401,527.6247,577.0569,531.326,567.93" style="stroke:#181818;stroke-width:1.0;"/><text fill="#000000" font-family="sans-serif" font-size="13" lengthAdjust="spacing" textLength="61" x="408" y="610.0669">&#171;include&#187;</text></g><!--link ManageChildEvents to SignIn--><g id="link_ManageChildEvents_SignIn"><path d="M320.311,892.79 C370.366,879.613 434.478,854.107 470,806 C526.669,729.254 540.3217,615.8381 543.5997,574.5841 " fill="none" id="ManageChildEvents-to-SignIn" style="stroke:#181818;stroke-width:1.0;stroke-dasharray:7.0,7.0;"/><polygon fill="#181818" points="544.075,568.603,539.3747,577.2579,543.679,573.5873,547.3495,577.8916,544.075,568.603" style="stroke:#181818;stroke-width:1.0;"/><text fill="#000000" font-family="sans-serif" font-size="13" lengthAdjust="spacing" textLength="61" x="408" y="802.0669">&#171;include&#187;</text></g><!--link ManageMealTimes to SignIn--><g id="link_ManageMealTimes_SignIn"><path d="M319.022,969.839 C369.976,957.012 435.804,931.334 470,881 C540.373,777.417 545.4644,623.176 545.2824,574.505 " fill="none" id="ManageMealTimes-to-SignIn" style="stroke:#181818;stroke-width:1.0;stroke-dasharray:7.0,7.0;"/><polygon fill="#181818" points="545.26,568.505,541.2937,577.5199,545.2787,573.505,549.2936,577.49,545.26,568.505" style="stroke:#181818;stroke-width:1.0;"/><text fill="#000000" font-family="sans-serif" font-size="13" lengthAdjust="spacing" textLength="61" x="408" y="877.0669">&#171;include&#187;</text></g><!--link ManageSleepTimes to SignIn--><g id="link_ManageSleepTimes_SignIn"><path d="M324.328,1046.117 C374.608,1033.895 437.293,1009.445 470,961 C514.927,894.455 538.0879,639.8644 543.3679,574.7764 " fill="none" id="ManageSleepTimes-to-SignIn" style="stroke:#181818;stroke-width:1.0;stroke-dasharray:7.0,7.0;"/><polygon fill="#181818" points="543.853,568.796,539.1384,577.4431,543.4487,573.7796,547.1122,578.09,543.853,568.796" style="stroke:#181818;stroke-width:1.0;"/><text fill="#000000" font-family="sans-serif" font-size="13" lengthAdjust="spacing" textLength="61" x="408" y="957.0669">&#171;include&#187;</text></g><!--link ViewDoctorInstruction to SignIn--><g id="link_ViewDoctorInstruction_SignIn"><path d="M319.005,739.403 C366.2,725.293 427.391,700.976 470,662 C500.824,633.804 523.0954,596.033 534.8934,573.761 " fill="none" id="ViewDoctorInstruction-to-SignIn" style="stroke:#181818;stroke-width:1.0;stroke-dasharray:7.0,7.0;"/><polygon fill="#181818" points="537.702,568.459,529.9544,574.5397,535.3615,572.8774,537.0238,578.2845,537.702,568.459" style="stroke:#181818;stroke-width:1.0;"/><text fill="#000000" font-family="sans-serif" font-size="13" lengthAdjust="spacing" textLength="61" x="408" y="658.0669">&#171;include&#187;</text></g><!--link ViewDocument to SignIn--><g id="link_ViewDocument_SignIn"><path d="M308.683,820.637 C330.815,815.158 355.696,807.451 377,797 C423.446,774.216 437.983,767.636 470,727 C510.114,676.088 531.5155,606.2436 539.8455,574.5796 " fill="none" id="ViewDocument-to-SignIn" style="stroke:#181818;stroke-width:1.0;stroke-dasharray:7.0,7.0;"/><polygon fill="#181818" points="541.372,568.777,535.2139,576.4632,540.0999,573.6125,542.9506,578.4985,541.372,568.777" style="stroke:#181818;stroke-width:1.0;"/><text fill="#000000" font-family="sans-serif" font-size="13" lengthAdjust="spacing" textLength="61" x="408" y="723.0669">&#171;include&#187;</text></g><!--link Admin to ManageDoctor--><g id="link_Admin_ManageDoctor"><path d="M54.0221,133.19 C64.8353,119.45 78.9868,104.5 95,95 C119.916,80.21 150.558,71.67 177.787,66.74 " fill="none" id="Admin-ManageDoctor" style="stroke:#181818;stroke-width:1.0;"/></g><!--link Admin to ManageParent--><g id="link_Admin_ManageParent"><path d="M54.199,162.28 C85.0983,157.11 142.239,147.54 186.323,140.16 " fill="none" id="Admin-ManageParent" style="stroke:#181818;stroke-width:1.0;"/></g><!--link Admin to ManageDocument--><g id="link_Admin_ManageDocument"><path d="M54.199,169.72 C83.1671,174.57 135.199,183.28 177.914,190.432 " fill="none" id="Admin-ManageDocument" style="stroke:#181818;stroke-width:1.0;"/></g><!--link Admin to ViewUserReport--><g id="link_Admin_ViewUserReport"><path d="M54.2203,199.977 C64.9798,213.968 79.0341,229.17 95,239 C117.815,253.047 145.576,261.911 171.099,267.499 " fill="none" id="Admin-ViewUserReport" style="stroke:#181818;stroke-width:1.0;"/></g><!--link Doctor to ManageImmunizationSchedule--><g id="link_Doctor_ManageImmunizationSchedule"><path d="M56.2731,502.417 C67.7508,495.911 81.8042,488.492 95,483 C117.273,473.731 142.077,465.424 165.081,458.504 " fill="none" id="Doctor-ManageImmunizationSchedule" style="stroke:#181818;stroke-width:1.0;"/></g><!--link Doctor to ManagePrescription--><g id="link_Doctor_ManagePrescription"><path d="M41.9687,478.755 C51.2099,450.746 67.7355,413.938 95,392 C114.315,376.458 139.105,367.038 163.037,361.351 " fill="none" id="Doctor-ManagePrescription" style="stroke:#181818;stroke-width:1.0;"/></g><!--link Doctor to MonitorChildHealthStatus--><g id="link_Doctor_MonitorChildHealthStatus"><path d="M44.7272,555.114 C54.7525,579.569 71.075,610.16 95,629 C111.698,642.149 132.217,651.278 152.712,657.615 " fill="none" id="Doctor-MonitorChildHealthStatus" style="stroke:#181818;stroke-width:1.0;"/></g><!--link Doctor to ManageConversation--><g id="link_Doctor_ManageConversation"><path d="M56.1691,531.84 C67.6249,538.401 81.69,545.791 95,551 C120.878,561.127 150.264,569.375 176.256,575.635 " fill="none" id="Doctor-ManageConversation" style="stroke:#181818;stroke-width:1.0;"/></g><!--link Doctor to ManageChild--><g id="link_Doctor_ManageChild"><path d="M56.2453,517 C85.3477,517 135.425,517 176.969,517 " fill="none" id="Doctor-ManageChild" style="stroke:#181818;stroke-width:1.0;"/></g><!--link Parent to ManageChild--><g id="link_Parent_ManageChild"><path d="M35.5345,793.92 C42.6855,725.293 61.1418,584.842 95,551 C116.325,529.685 147.909,520.488 176.769,516.896 " fill="none" id="Parent-ManageChild" style="stroke:#181818;stroke-width:1.0;"/></g><!--link Parent to ManageConversation--><g id="link_Parent_ManageConversation"><path d="M33.1347,793.707 C36.6075,748.015 49.4182,672.368 95,629 C112.073,612.756 134.962,603.037 157.788,597.288 " fill="none" id="Parent-ManageConversation" style="stroke:#181818;stroke-width:1.0;"/></g><!--link Parent to MonitorChildHealthStatus--><g id="link_Parent_MonitorChildHealthStatus"><path d="M43.8969,793.971 C53.7403,768.451 70.1807,735.969 95,716 C111.803,702.481 132.593,693.116 153.345,686.628 " fill="none" id="Parent-MonitorChildHealthStatus" style="stroke:#181818;stroke-width:1.0;"/></g><!--link Parent to ViewDoctorInstruction--><g id="link_Parent_ViewDoctorInstruction"><path d="M55.2565,817.291 C66.864,810.418 81.3181,802.549 95,797 C119.948,786.882 148.201,778.48 173.522,771.972 " fill="none" id="Parent-ViewDoctorInstruction" style="stroke:#181818;stroke-width:1.0;"/></g><!--link Parent to ViewDocument--><g id="link_Parent_ViewDocument"><path d="M55.0088,832 C82.3075,832 129.244,832 169.874,832 " fill="none" id="Parent-ViewDocument" style="stroke:#181818;stroke-width:1.0;"/></g><!--link Parent to ManageChildEvents--><g id="link_Parent_ManageChildEvents"><path d="M55.1596,847.274 C66.7442,854.376 81.207,862.458 95,868 C120.745,878.344 150.104,886.478 176.111,892.521 " fill="none" id="Parent-ManageChildEvents" style="stroke:#181818;stroke-width:1.0;"/></g><!--link Parent to ManageMealTimes--><g id="link_Parent_ManageMealTimes"><path d="M44.2014,870.199 C54.0724,895.087 70.4229,926.298 95,945 C115.1,960.296 140.656,969.361 165.052,974.704 " fill="none" id="Parent-ManageMealTimes" style="stroke:#181818;stroke-width:1.0;"/></g><!--link Parent to ManageSleepTimes--><g id="link_Parent_ManageSleepTimes"><path d="M34.2439,870.218 C38.8411,912.861 52.7901,980.975 95,1020 C112.676,1036.342 136.296,1045.927 159.638,1051.473 " fill="none" id="Parent-ManageSleepTimes" style="stroke:#181818;stroke-width:1.0;"/></g><!--link Parent to SignUpForParent--><g id="link_Parent_SignUpForParent"><path d="M36.1797,870.183 C44.1144,935.632 63.4439,1065.274 95,1097 C113.195,1115.2934 138.818,1125.1049 163.851,1130.2106 " fill="none" id="Parent-SignUpForParent" style="stroke:#181818;stroke-width:1.0;"/></g><!--SRC=[ZLLBRjim4Dth50Djl4eEK0G6WhH53JHe4DVT4n8Z4P18WQHSe4NlqcjqdOkLFqb3YhQLHSAyzuQQuSmZE_gcGGkGh6arr4pIIZF1Yu9KMaXuh7l6WIWetQeCy4VX_bZSBoVYXKZAjIFyiYmAkoNXJKUXV6fPLyCNIZhTmfCHmECmbF2x0FEpWw-YOTojHqKheap4aJKS3hoqMzhrmQJcnJwrMFrCE6beIC_5UCG3MMr8Sz5wuDA-On-h9oZM_s3q9vmKbJi5htGGqeTOsA8UcWgvajoXxqVEVX7R4ZXMBQt7ZgAlOtwYyrLAgYh91Yl4jIBOnKqflV_Z3LJjQ7w7Nf_V_qBsQ0HdbezQUzH4Zyf_oFEEzgmdyvrpCfIW-p-l5FnCfI99HHZ65ON1pBGfQgf5yYt52SAdi-5LcgT7is7FfdBupdgAWopei6p8iQDqMCKur85pSR5NJWEypKQSRNCQFWkPQzzq1BQ51wwq7AlvHCDX60ennHziLfy1DXdSt- -3K-43F3mmNdLZJVVxALtiietYgICtvR71hiWBYCo7FvRprDQYa9rkXcossdgmDwRZP_Mczf91hmJQsCXOwLUz5JRcEVjWenvvOCj0h4PuQrGwSv5swQ5_YExkrczDmg2ZMiSiLyxC9Sy5VlOCQtFwDePN94pElE75Xo4Lhbu09BWm6DbzLlVkIZ3Vv3l4HKM4Eo4JicAm6LB5jRGNMVvoosgMrcGpHDT-oiStVCekSvpGkHjxb_3crFu3]--></g></svg>