<?xml version="1.0" encoding="us-ascii" standalone="no"?><svg xmlns="http://www.w3.org/2000/svg" xmlns:xlink="http://www.w3.org/1999/xlink" contentStyleType="text/css" height="785px" preserveAspectRatio="none" style="width:493px;height:785px;background:#FFFFFF;" version="1.1" viewBox="0 0 493 785" width="493px" zoomAndPan="magnify"><defs/><g><rect fill="none" height="20.9531" style="stroke:none;stroke-width:1.0;" width="460" x="15" y="12.7451"/><rect fill="#F1F1F1" height="61.9063" rx="12.5" ry="12.5" style="stroke:#181818;stroke-width:0.5;" width="107" x="21" y="181.0693"/><text fill="#000000" font-family="sans-serif" font-size="12" lengthAdjust="spacing" textLength="61" x="31" y="202.208">Enters the</text><text fill="#000000" font-family="sans-serif" font-size="12" lengthAdjust="spacing" textLength="87" x="31" y="216.1768">search criteria</text><text fill="#000000" font-family="sans-serif" font-size="12" lengthAdjust="spacing" textLength="82" x="31" y="230.1455">in search box</text><rect fill="#F1F1F1" height="61.9063" rx="12.5" ry="12.5" style="stroke:#181818;stroke-width:0.5;" width="96" x="26.5" y="493.3662"/><text fill="#000000" font-family="sans-serif" font-size="12" lengthAdjust="spacing" textLength="61" x="36.5" y="514.5049">Select the</text><text fill="#000000" font-family="sans-serif" font-size="12" lengthAdjust="spacing" textLength="60" x="36.5" y="528.4736">document</text><text fill="#000000" font-family="sans-serif" font-size="12" lengthAdjust="spacing" textLength="76" x="36.5" y="542.4424">want to view</text><line style="stroke:#000000;stroke-width:1.5;" x1="15" x2="15" y1="12.7451" y2="773.1475"/><ellipse cx="254.5" cy="48.6982" fill="#222222" rx="10" ry="10" style="stroke:#222222;stroke-width:1.0;"/><rect fill="#F1F1F1" height="33.9688" rx="12.5" ry="12.5" style="stroke:#181818;stroke-width:0.5;" width="172" x="168.5" y="78.6982"/><text fill="#000000" font-family="sans-serif" font-size="12" lengthAdjust="spacing" textLength="152" x="178.5" y="99.8369">Display list of documents</text><rect fill="#F1F1F1" height="33.9688" rx="12.5" ry="12.5" style="stroke:#181818;stroke-width:0.5;" width="182" x="163.5" y="262.9756"/><text fill="#000000" font-family="sans-serif" font-size="12" lengthAdjust="spacing" textLength="162" x="173.5" y="284.1143">Process searching request</text><rect fill="#F1F1F1" height="47.9375" rx="12.5" ry="12.5" style="stroke:#181818;stroke-width:0.5;" width="101" x="204" y="381.4287"/><text fill="#000000" font-family="sans-serif" font-size="12" lengthAdjust="spacing" textLength="81" x="214" y="402.5674">Display list of</text><text fill="#000000" font-family="sans-serif" font-size="12" lengthAdjust="spacing" textLength="67" x="214" y="416.5361">documents</text><polygon fill="#F1F1F1" points="254.5,132.667,254.5,132.667,266.5,144.667,254.5,156.667,254.5,156.667,242.5,144.667,254.5,132.667" style="stroke:#181818;stroke-width:0.5;"/><text fill="#000000" font-family="sans-serif" font-size="11" lengthAdjust="spacing" textLength="40" x="258.5" y="166.8774">Search</text><text fill="#000000" font-family="sans-serif" font-size="11" lengthAdjust="spacing" textLength="57" x="266.5" y="142.0728">No search</text><polygon fill="#F1F1F1" points="254.5,449.3662,266.5,461.3662,254.5,473.3662,242.5,461.3662,254.5,449.3662" style="stroke:#181818;stroke-width:0.5;"/><rect fill="#F1F1F1" height="33.9688" rx="12.5" ry="12.5" style="stroke:#181818;stroke-width:0.5;" width="233" x="138" y="575.2725"/><text fill="#000000" font-family="sans-serif" font-size="12" lengthAdjust="spacing" textLength="213" x="148" y="596.4111">Get selected document information</text><rect fill="#F1F1F1" height="47.9375" rx="12.5" ry="12.5" style="stroke:#181818;stroke-width:0.5;" width="151" x="179" y="683.21"/><text fill="#000000" font-family="sans-serif" font-size="12" lengthAdjust="spacing" textLength="101" x="189" y="704.3486">Display selected</text><text fill="#000000" font-family="sans-serif" font-size="12" lengthAdjust="spacing" textLength="131" x="189" y="718.3174">document information</text><ellipse cx="254.5" cy="762.1475" fill="none" rx="11" ry="11" style="stroke:#222222;stroke-width:1.0;"/><ellipse cx="254.5" cy="762.1475" fill="#222222" rx="6" ry="6" style="stroke:#222222;stroke-width:1.0;"/><line style="stroke:#000000;stroke-width:1.5;" x1="132" x2="132" y1="12.7451" y2="773.1475"/><rect fill="#F1F1F1" height="33.9688" rx="12.5" ry="12.5" style="stroke:#181818;stroke-width:0.5;" width="87" x="381.5" y="327.46"/><text fill="#000000" font-family="sans-serif" font-size="12" lengthAdjust="spacing" textLength="67" x="391.5" y="348.5986">Query data</text><rect fill="#F1F1F1" height="33.9688" rx="12.5" ry="12.5" style="stroke:#181818;stroke-width:0.5;" width="87" x="381.5" y="629.2412"/><text fill="#000000" font-family="sans-serif" font-size="12" lengthAdjust="spacing" textLength="67" x="391.5" y="650.3799">Query data</text><line style="stroke:#000000;stroke-width:1.5;" x1="375" x2="375" y1="12.7451" y2="773.1475"/><line style="stroke:#000000;stroke-width:1.5;" x1="473" x2="473" y1="12.7451" y2="773.1475"/><line style="stroke:#181818;stroke-width:1.0;" x1="254.5" x2="254.5" y1="58.6982" y2="78.6982"/><polygon fill="#181818" points="250.5,68.6982,254.5,78.6982,258.5,68.6982,254.5,72.6982" style="stroke:#181818;stroke-width:1.0;"/><line style="stroke:#181818;stroke-width:1.0;" x1="266.5" x2="355.5" y1="144.667" y2="144.667"/><polygon fill="#181818" points="351.5,297.46,355.5,307.46,359.5,297.46,355.5,301.46" style="stroke:#181818;stroke-width:1.0;"/><line style="stroke:#181818;stroke-width:1.0;" x1="355.5" x2="355.5" y1="144.667" y2="461.3662"/><line style="stroke:#181818;stroke-width:1.0;" x1="355.5" x2="266.5" y1="461.3662" y2="461.3662"/><polygon fill="#181818" points="276.5,457.3662,266.5,461.3662,276.5,465.3662,272.5,461.3662" style="stroke:#181818;stroke-width:1.0;"/><line style="stroke:#181818;stroke-width:1.0;" x1="254.5" x2="254.5" y1="429.3662" y2="449.3662"/><polygon fill="#181818" points="250.5,439.3662,254.5,449.3662,258.5,439.3662,254.5,443.3662" style="stroke:#181818;stroke-width:1.0;"/><line style="stroke:#181818;stroke-width:1.0;" x1="254.5" x2="254.5" y1="112.667" y2="132.667"/><polygon fill="#181818" points="250.5,122.667,254.5,132.667,258.5,122.667,254.5,126.667" style="stroke:#181818;stroke-width:1.0;"/><line style="stroke:#181818;stroke-width:1.0;" x1="254.5" x2="254.5" y1="731.1475" y2="751.1475"/><polygon fill="#181818" points="250.5,741.1475,254.5,751.1475,258.5,741.1475,254.5,745.1475" style="stroke:#181818;stroke-width:1.0;"/><line style="stroke:#181818;stroke-width:1.0;" x1="74.5" x2="74.5" y1="242.9756" y2="247.9756"/><line style="stroke:#181818;stroke-width:1.0;" x1="74.5" x2="254.5" y1="247.9756" y2="247.9756"/><line style="stroke:#181818;stroke-width:1.0;" x1="254.5" x2="254.5" y1="247.9756" y2="262.9756"/><polygon fill="#181818" points="250.5,252.9756,254.5,262.9756,258.5,252.9756,254.5,256.9756" style="stroke:#181818;stroke-width:1.0;"/><line style="stroke:#181818;stroke-width:1.0;" x1="254.5" x2="254.5" y1="296.9443" y2="312.46"/><line style="stroke:#181818;stroke-width:1.0;" x1="254.5" x2="425" y1="312.46" y2="312.46"/><line style="stroke:#181818;stroke-width:1.0;" x1="425" x2="425" y1="312.46" y2="327.46"/><polygon fill="#181818" points="421,317.46,425,327.46,429,317.46,425,321.46" style="stroke:#181818;stroke-width:1.0;"/><line style="stroke:#181818;stroke-width:1.0;" x1="425" x2="425" y1="361.4287" y2="366.4287"/><line style="stroke:#181818;stroke-width:1.0;" x1="425" x2="254.5" y1="366.4287" y2="366.4287"/><line style="stroke:#181818;stroke-width:1.0;" x1="254.5" x2="254.5" y1="366.4287" y2="381.4287"/><polygon fill="#181818" points="250.5,371.4287,254.5,381.4287,258.5,371.4287,254.5,375.4287" style="stroke:#181818;stroke-width:1.0;"/><line style="stroke:#181818;stroke-width:1.0;" x1="254.5" x2="254.5" y1="156.667" y2="168.8682"/><line style="stroke:#181818;stroke-width:1.0;" x1="254.5" x2="74.5" y1="168.8682" y2="168.8682"/><line style="stroke:#181818;stroke-width:1.0;" x1="74.5" x2="74.5" y1="168.8682" y2="181.0693"/><polygon fill="#181818" points="70.5,171.0693,74.5,181.0693,78.5,171.0693,74.5,175.0693" style="stroke:#181818;stroke-width:1.0;"/><line style="stroke:#181818;stroke-width:1.0;" x1="254.5" x2="254.5" y1="473.3662" y2="478.3662"/><line style="stroke:#181818;stroke-width:1.0;" x1="254.5" x2="74.5" y1="478.3662" y2="478.3662"/><line style="stroke:#181818;stroke-width:1.0;" x1="74.5" x2="74.5" y1="478.3662" y2="493.3662"/><polygon fill="#181818" points="70.5,483.3662,74.5,493.3662,78.5,483.3662,74.5,487.3662" style="stroke:#181818;stroke-width:1.0;"/><line style="stroke:#181818;stroke-width:1.0;" x1="74.5" x2="74.5" y1="555.2725" y2="560.2725"/><line style="stroke:#181818;stroke-width:1.0;" x1="74.5" x2="254.5" y1="560.2725" y2="560.2725"/><line style="stroke:#181818;stroke-width:1.0;" x1="254.5" x2="254.5" y1="560.2725" y2="575.2725"/><polygon fill="#181818" points="250.5,565.2725,254.5,575.2725,258.5,565.2725,254.5,569.2725" style="stroke:#181818;stroke-width:1.0;"/><line style="stroke:#181818;stroke-width:1.0;" x1="254.5" x2="254.5" y1="609.2412" y2="614.2412"/><line style="stroke:#181818;stroke-width:1.0;" x1="254.5" x2="425" y1="614.2412" y2="614.2412"/><line style="stroke:#181818;stroke-width:1.0;" x1="425" x2="425" y1="614.2412" y2="629.2412"/><polygon fill="#181818" points="421,619.2412,425,629.2412,429,619.2412,425,623.2412" style="stroke:#181818;stroke-width:1.0;"/><line style="stroke:#181818;stroke-width:1.0;" x1="425" x2="425" y1="663.21" y2="668.21"/><line style="stroke:#181818;stroke-width:1.0;" x1="425" x2="254.5" y1="668.21" y2="668.21"/><line style="stroke:#181818;stroke-width:1.0;" x1="254.5" x2="254.5" y1="668.21" y2="683.21"/><polygon fill="#181818" points="250.5,673.21,254.5,683.21,258.5,673.21,254.5,677.21" style="stroke:#181818;stroke-width:1.0;"/><text fill="#000000" font-family="sans-serif" font-size="18" lengthAdjust="spacing" textLength="62" x="42.5" y="29.4531">Parent</text><text fill="#000000" font-family="sans-serif" font-size="18" lengthAdjust="spacing" textLength="69" x="219" y="29.4531">System</text><text fill="#000000" font-family="sans-serif" font-size="18" lengthAdjust="spacing" textLength="88" x="380" y="29.4531">Database</text><!--SRC=[bP2nRiCm34HtVGL7-nVYDKMs8eLNBunCDmHiAXNff0RqyP4JEqM2BDMcmxiZZscFaSIII_MaHaDoQXZDRRQifnudw5aDGWTjyEEGIQqSTr2KO4SIA6h2w8-bW_pIcZL_DXzY57N66j4R1JvorXWROO55EuJVwkvU5xYvzp5uKbqebc-8z3EIsW9lqV20IWl-DLASeCtYkx2NBeqyoa3bg5U2uZCieqf7qdBddilKr9EtUvdLtCW59Mi1paoNTtDtP3brTbBxE22mT24EQ1pajGpyfysQ_BVHSxHQE5q1]--></g></svg>