<?xml version="1.0" encoding="us-ascii" standalone="no"?><svg xmlns="http://www.w3.org/2000/svg" xmlns:xlink="http://www.w3.org/1999/xlink" contentStyleType="text/css" height="834px" preserveAspectRatio="none" style="width:977px;height:834px;background:#FFFFFF;" version="1.1" viewBox="0 0 977 834" width="977px" zoomAndPan="magnify"><defs/><g><rect fill="none" height="292.4609" style="stroke:#000000;stroke-width:1.5;" width="961" x="10" y="285.0938"/><line style="stroke:#181818;stroke-width:0.5;stroke-dasharray:5.0,5.0;" x1="47" x2="47" y1="81.2969" y2="827.75"/><line style="stroke:#181818;stroke-width:0.5;stroke-dasharray:5.0,5.0;" x1="254" x2="254" y1="81.2969" y2="827.75"/><line style="stroke:#181818;stroke-width:0.5;stroke-dasharray:5.0,5.0;" x1="461.5" x2="461.5" y1="81.2969" y2="827.75"/><line style="stroke:#181818;stroke-width:0.5;stroke-dasharray:5.0,5.0;" x1="667.5" x2="667.5" y1="81.2969" y2="827.75"/><line style="stroke:#181818;stroke-width:0.5;stroke-dasharray:5.0,5.0;" x1="867" x2="867" y1="81.2969" y2="827.75"/><text fill="#000000" font-family="sans-serif" font-size="14" lengthAdjust="spacing" textLength="48" x="20" y="77.9951">Parent</text><ellipse cx="47" cy="13.5" fill="#E2E2F0" rx="8" ry="8" style="stroke:#181818;stroke-width:0.5;"/><path d="M47,21.5 L47,48.5 M34,29.5 L60,29.5 M47,48.5 L34,63.5 M47,48.5 L60,63.5 " fill="none" style="stroke:#181818;stroke-width:0.5;"/><text fill="#000000" font-family="sans-serif" font-size="14" lengthAdjust="spacing" textLength="88" x="207" y="61.6982">Prescription</text><text fill="#000000" font-family="sans-serif" font-size="14" lengthAdjust="spacing" textLength="128" x="187" y="77.9951">ManagementView</text><path d="M233.5,20.7031 L233.5,44.7031 M233.5,32.7031 L250.5,32.7031 " fill="none" style="stroke:#181818;stroke-width:0.5;"/><ellipse cx="262.5" cy="32.7031" fill="#E2E2F0" rx="12" ry="12" style="stroke:#181818;stroke-width:0.5;"/><text fill="#000000" font-family="sans-serif" font-size="14" lengthAdjust="spacing" textLength="88" x="415" y="61.6982">Prescription</text><text fill="#000000" font-family="sans-serif" font-size="14" lengthAdjust="spacing" textLength="119" x="399.5" y="77.9951">InformationView</text><path d="M441.5,20.7031 L441.5,44.7031 M441.5,32.7031 L458.5,32.7031 " fill="none" style="stroke:#181818;stroke-width:0.5;"/><ellipse cx="470.5" cy="32.7031" fill="#E2E2F0" rx="12" ry="12" style="stroke:#181818;stroke-width:0.5;"/><text fill="#000000" font-family="sans-serif" font-size="14" lengthAdjust="spacing" textLength="161" x="584.5" y="77.9951">PrescriptionController</text><ellipse cx="668" cy="49" fill="#E2E2F0" rx="12" ry="12" style="stroke:#181818;stroke-width:0.5;"/><polygon fill="#181818" points="664,37,670,32,668,37,670,42,664,37" style="stroke:#181818;stroke-width:1.0;"/><text fill="#000000" font-family="sans-serif" font-size="14" lengthAdjust="spacing" textLength="104" x="812" y="77.9951">PRESCRIPTION</text><ellipse cx="867" cy="49" fill="#E2E2F0" rx="12" ry="12" style="stroke:#181818;stroke-width:0.5;"/><line style="stroke:#181818;stroke-width:0.5;" x1="855" x2="879" y1="63" y2="63"/><polygon fill="#181818" points="855,108.4297,865,112.4297,855,116.4297,859,112.4297" style="stroke:#181818;stroke-width:1.0;"/><line style="stroke:#181818;stroke-width:1.0;" x1="668" x2="861" y1="112.4297" y2="112.4297"/><text fill="#000000" font-family="sans-serif" font-size="13" font-weight="bold" lengthAdjust="spacing" textLength="9" x="675" y="107.3638">1</text><text fill="#000000" font-family="sans-serif" font-size="13" lengthAdjust="spacing" textLength="148" x="688" y="107.3638">Get list of prescriptions</text><line style="stroke:#181818;stroke-width:1.0;" x1="867" x2="909" y1="141.5625" y2="141.5625"/><line style="stroke:#181818;stroke-width:1.0;" x1="909" x2="909" y1="141.5625" y2="154.5625"/><line style="stroke:#181818;stroke-width:1.0;" x1="868" x2="909" y1="154.5625" y2="154.5625"/><polygon fill="#181818" points="878,150.5625,868,154.5625,878,158.5625,874,154.5625" style="stroke:#181818;stroke-width:1.0;"/><text fill="#000000" font-family="sans-serif" font-size="13" font-weight="bold" lengthAdjust="spacing" textLength="9" x="874" y="136.4966">2</text><text fill="#000000" font-family="sans-serif" font-size="13" lengthAdjust="spacing" textLength="72" x="887" y="136.4966">Query data</text><polygon fill="#181818" points="679,179.6953,669,183.6953,679,187.6953,675,183.6953" style="stroke:#181818;stroke-width:1.0;"/><line style="stroke:#181818;stroke-width:1.0;stroke-dasharray:2.0,2.0;" x1="673" x2="866" y1="183.6953" y2="183.6953"/><text fill="#000000" font-family="sans-serif" font-size="13" font-weight="bold" lengthAdjust="spacing" textLength="8" x="685" y="178.6294">3</text><text fill="#000000" font-family="sans-serif" font-size="13" lengthAdjust="spacing" textLength="125" x="697" y="178.6294">List of prescriptions</text><polygon fill="#181818" points="265,208.8281,255,212.8281,265,216.8281,261,212.8281" style="stroke:#181818;stroke-width:1.0;"/><line style="stroke:#181818;stroke-width:1.0;stroke-dasharray:2.0,2.0;" x1="259" x2="667" y1="212.8281" y2="212.8281"/><text fill="#000000" font-family="sans-serif" font-size="13" font-weight="bold" lengthAdjust="spacing" textLength="9" x="271" y="207.7622">4</text><text fill="#000000" font-family="sans-serif" font-size="13" lengthAdjust="spacing" textLength="125" x="284" y="207.7622">List of prescriptions</text><line style="stroke:#181818;stroke-width:1.0;" x1="254" x2="296" y1="257.0938" y2="257.0938"/><line style="stroke:#181818;stroke-width:1.0;" x1="296" x2="296" y1="257.0938" y2="270.0938"/><line style="stroke:#181818;stroke-width:1.0;" x1="255" x2="296" y1="270.0938" y2="270.0938"/><polygon fill="#181818" points="265,266.0938,255,270.0938,265,274.0938,261,270.0938" style="stroke:#181818;stroke-width:1.0;"/><text fill="#000000" font-family="sans-serif" font-size="13" font-weight="bold" lengthAdjust="spacing" textLength="9" x="261" y="244.4614">5</text><text fill="#000000" font-family="sans-serif" font-size="13" lengthAdjust="spacing" textLength="69" x="274" y="236.895">Display list</text><text fill="#000000" font-family="sans-serif" font-size="13" lengthAdjust="spacing" textLength="99" x="274" y="252.0278">of prescriptions</text><path d="M10,285.0938 L82,285.0938 L82,292.2266 L72,302.2266 L10,302.2266 L10,285.0938 " fill="#EEEEEE" style="stroke:#000000;stroke-width:1.5;"/><rect fill="none" height="292.4609" style="stroke:#000000;stroke-width:1.5;" width="961" x="10" y="285.0938"/><text fill="#000000" font-family="sans-serif" font-size="13" font-weight="bold" lengthAdjust="spacing" textLength="27" x="25" y="298.1606">opt</text><text fill="#000000" font-family="sans-serif" font-size="11" font-weight="bold" lengthAdjust="spacing" textLength="68" x="97" y="297.3042">[Optional]</text><polygon fill="#181818" points="242,334.4922,252,338.4922,242,342.4922,246,338.4922" style="stroke:#181818;stroke-width:1.0;"/><line style="stroke:#181818;stroke-width:1.0;" x1="47" x2="248" y1="338.4922" y2="338.4922"/><text fill="#000000" font-family="sans-serif" font-size="13" font-weight="bold" lengthAdjust="spacing" textLength="9" x="54" y="325.8599">6</text><text fill="#000000" font-family="sans-serif" font-size="13" lengthAdjust="spacing" textLength="113" x="67" y="318.2935">Enters the search</text><text fill="#000000" font-family="sans-serif" font-size="13" lengthAdjust="spacing" textLength="134" x="67" y="333.4263">criteria in search box</text><polygon fill="#181818" points="656,378.7578,666,382.7578,656,386.7578,660,382.7578" style="stroke:#181818;stroke-width:1.0;"/><line style="stroke:#181818;stroke-width:1.0;" x1="254" x2="662" y1="382.7578" y2="382.7578"/><text fill="#000000" font-family="sans-serif" font-size="13" font-weight="bold" lengthAdjust="spacing" textLength="9" x="261" y="370.1255">7</text><text fill="#000000" font-family="sans-serif" font-size="13" lengthAdjust="spacing" textLength="177" x="274" y="362.5591">Send searching prescription</text><text fill="#000000" font-family="sans-serif" font-size="13" lengthAdjust="spacing" textLength="127" x="274" y="377.6919">information request</text><polygon fill="#181818" points="855,423.0234,865,427.0234,855,431.0234,859,427.0234" style="stroke:#181818;stroke-width:1.0;"/><line style="stroke:#181818;stroke-width:1.0;" x1="668" x2="861" y1="427.0234" y2="427.0234"/><text fill="#000000" font-family="sans-serif" font-size="13" font-weight="bold" lengthAdjust="spacing" textLength="9" x="675" y="414.3911">8</text><text fill="#000000" font-family="sans-serif" font-size="13" lengthAdjust="spacing" textLength="158" x="688" y="406.8247">Search prescription base</text><text fill="#000000" font-family="sans-serif" font-size="13" lengthAdjust="spacing" textLength="121" x="688" y="421.9575">on given keywords</text><line style="stroke:#181818;stroke-width:1.0;" x1="867" x2="909" y1="456.1563" y2="456.1563"/><line style="stroke:#181818;stroke-width:1.0;" x1="909" x2="909" y1="456.1563" y2="469.1563"/><line style="stroke:#181818;stroke-width:1.0;" x1="868" x2="909" y1="469.1563" y2="469.1563"/><polygon fill="#181818" points="878,465.1563,868,469.1563,878,473.1563,874,469.1563" style="stroke:#181818;stroke-width:1.0;"/><text fill="#000000" font-family="sans-serif" font-size="13" font-weight="bold" lengthAdjust="spacing" textLength="9" x="874" y="451.0903">9</text><text fill="#000000" font-family="sans-serif" font-size="13" lengthAdjust="spacing" textLength="72" x="887" y="451.0903">Query data</text><polygon fill="#181818" points="679,494.2891,669,498.2891,679,502.2891,675,498.2891" style="stroke:#181818;stroke-width:1.0;"/><line style="stroke:#181818;stroke-width:1.0;stroke-dasharray:2.0,2.0;" x1="673" x2="866" y1="498.2891" y2="498.2891"/><text fill="#000000" font-family="sans-serif" font-size="13" font-weight="bold" lengthAdjust="spacing" textLength="19" x="685" y="493.2231">10</text><text fill="#000000" font-family="sans-serif" font-size="13" lengthAdjust="spacing" textLength="79" x="708" y="493.2231">Query result</text><polygon fill="#181818" points="265,523.4219,255,527.4219,265,531.4219,261,527.4219" style="stroke:#181818;stroke-width:1.0;"/><line style="stroke:#181818;stroke-width:1.0;stroke-dasharray:2.0,2.0;" x1="259" x2="667" y1="527.4219" y2="527.4219"/><text fill="#000000" font-family="sans-serif" font-size="13" font-weight="bold" lengthAdjust="spacing" textLength="18" x="271" y="522.356">11</text><text fill="#000000" font-family="sans-serif" font-size="13" lengthAdjust="spacing" textLength="79" x="293" y="522.356">Query result</text><line style="stroke:#181818;stroke-width:1.0;" x1="254" x2="296" y1="556.5547" y2="556.5547"/><line style="stroke:#181818;stroke-width:1.0;" x1="296" x2="296" y1="556.5547" y2="569.5547"/><line style="stroke:#181818;stroke-width:1.0;" x1="255" x2="296" y1="569.5547" y2="569.5547"/><polygon fill="#181818" points="265,565.5547,255,569.5547,265,573.5547,261,569.5547" style="stroke:#181818;stroke-width:1.0;"/><text fill="#000000" font-family="sans-serif" font-size="13" font-weight="bold" lengthAdjust="spacing" textLength="18" x="261" y="551.4888">12</text><text fill="#000000" font-family="sans-serif" font-size="13" lengthAdjust="spacing" textLength="172" x="283" y="551.4888">Display list of prescriptions</text><polygon fill="#181818" points="242,616.8203,252,620.8203,242,624.8203,246,620.8203" style="stroke:#181818;stroke-width:1.0;"/><line style="stroke:#181818;stroke-width:1.0;" x1="47" x2="248" y1="620.8203" y2="620.8203"/><text fill="#000000" font-family="sans-serif" font-size="13" font-weight="bold" lengthAdjust="spacing" textLength="17" x="54" y="608.188">13</text><text fill="#000000" font-family="sans-serif" font-size="13" lengthAdjust="spacing" textLength="64" x="75" y="600.6216">Select the</text><text fill="#000000" font-family="sans-serif" font-size="13" lengthAdjust="spacing" textLength="162" x="75" y="615.7544">prescription want to view</text><polygon fill="#181818" points="656,645.9531,666,649.9531,656,653.9531,660,649.9531" style="stroke:#181818;stroke-width:1.0;"/><line style="stroke:#181818;stroke-width:1.0;" x1="254" x2="662" y1="649.9531" y2="649.9531"/><text fill="#000000" font-family="sans-serif" font-size="13" font-weight="bold" lengthAdjust="spacing" textLength="18" x="261" y="644.8872">14</text><text fill="#000000" font-family="sans-serif" font-size="13" lengthAdjust="spacing" textLength="238" x="283" y="644.8872">Get selected prescription information</text><polygon fill="#181818" points="855,690.2188,865,694.2188,855,698.2188,859,694.2188" style="stroke:#181818;stroke-width:1.0;"/><line style="stroke:#181818;stroke-width:1.0;" x1="668" x2="861" y1="694.2188" y2="694.2188"/><text fill="#000000" font-family="sans-serif" font-size="13" font-weight="bold" lengthAdjust="spacing" textLength="18" x="675" y="681.5864">15</text><text fill="#000000" font-family="sans-serif" font-size="13" lengthAdjust="spacing" textLength="81" x="697" y="674.02">Get selected</text><text fill="#000000" font-family="sans-serif" font-size="13" lengthAdjust="spacing" textLength="153" x="697" y="689.1528">prescription information</text><polygon fill="#181818" points="679,719.3516,669,723.3516,679,727.3516,675,723.3516" style="stroke:#181818;stroke-width:1.0;"/><line style="stroke:#181818;stroke-width:1.0;stroke-dasharray:2.0,2.0;" x1="673" x2="866" y1="723.3516" y2="723.3516"/><text fill="#000000" font-family="sans-serif" font-size="13" font-weight="bold" lengthAdjust="spacing" textLength="18" x="685" y="718.2856">16</text><text fill="#000000" font-family="sans-serif" font-size="13" lengthAdjust="spacing" textLength="79" x="707" y="718.2856">Query result</text><polygon fill="#181818" points="473,748.4844,463,752.4844,473,756.4844,469,752.4844" style="stroke:#181818;stroke-width:1.0;"/><line style="stroke:#181818;stroke-width:1.0;stroke-dasharray:2.0,2.0;" x1="467" x2="667" y1="752.4844" y2="752.4844"/><text fill="#000000" font-family="sans-serif" font-size="13" font-weight="bold" lengthAdjust="spacing" textLength="18" x="479" y="747.4185">17</text><text fill="#000000" font-family="sans-serif" font-size="13" lengthAdjust="spacing" textLength="79" x="501" y="747.4185">Query result</text><line style="stroke:#181818;stroke-width:1.0;" x1="462" x2="504" y1="796.75" y2="796.75"/><line style="stroke:#181818;stroke-width:1.0;" x1="504" x2="504" y1="796.75" y2="809.75"/><line style="stroke:#181818;stroke-width:1.0;" x1="463" x2="504" y1="809.75" y2="809.75"/><polygon fill="#181818" points="473,805.75,463,809.75,473,813.75,469,809.75" style="stroke:#181818;stroke-width:1.0;"/><text fill="#000000" font-family="sans-serif" font-size="13" font-weight="bold" lengthAdjust="spacing" textLength="18" x="469" y="784.1177">18</text><text fill="#000000" font-family="sans-serif" font-size="13" lengthAdjust="spacing" textLength="170" x="491" y="776.5513">Display view with selected</text><text fill="#000000" font-family="sans-serif" font-size="13" lengthAdjust="spacing" textLength="153" x="491" y="791.6841">prescription information</text><!--SRC=[dPJ1Se8m48RlUOeTxtq13xrOf-DCMwbqUk8IOPLCSKEJHUhRDu1E2I1IEK7oxxURtP_8WZKLXoqQaQe4OQSrR_MF439cRI2G1ed5LXUKI7E2MM3GnaRbh3H5z2f9xl7W99yAonb82ss1ltsLigATDWTPVGnYEliYriH6PvvcqQnbxXmkdU8J19jbkDYiWe_L-aqCI-7XqPFDuHaPCcKPz0xoLemLRLq_xhr0Twv4ikm8A-LWxZcy3EUvKca7vBTs2ioFW1ky9sNpJ9xgPaJK0-kSOLs_oqo0UngZtA8kYT5Ou1J1eZHn6f6JkZKbGT5v3Ih_rSp9rRVR6Y8bPvAYlLTtHEhFIc3mkq3BlLHZ_WYR2jjGs4gBhaK4UtL4WYyybTeajk5ETKrVF7B49ivj5jbu-JV6CSgvtozz7xgHY6aE2J73c2k7HEHrkPGkc3KSgnlWFcTKFxUj-PZu8spPubzNnONMgTN3tJNKYGFjt8mZa8uIRe4kywpQ3QNYTC9PVm40]--></g></svg>