<?xml version="1.0" encoding="us-ascii" standalone="no"?><svg xmlns="http://www.w3.org/2000/svg" xmlns:xlink="http://www.w3.org/1999/xlink" contentStyleType="text/css" height="834px" preserveAspectRatio="none" style="width:929px;height:834px;background:#FFFFFF;" version="1.1" viewBox="0 0 929 834" width="929px" zoomAndPan="magnify"><defs/><g><rect fill="none" height="292.4609" style="stroke:#000000;stroke-width:1.5;" width="913.5" x="10" y="285.0938"/><line style="stroke:#181818;stroke-width:0.5;stroke-dasharray:5.0,5.0;" x1="47" x2="47" y1="81.2969" y2="827.75"/><line style="stroke:#181818;stroke-width:0.5;stroke-dasharray:5.0,5.0;" x1="235.5" x2="235.5" y1="81.2969" y2="827.75"/><line style="stroke:#181818;stroke-width:0.5;stroke-dasharray:5.0,5.0;" x1="425.5" x2="425.5" y1="81.2969" y2="827.75"/><line style="stroke:#181818;stroke-width:0.5;stroke-dasharray:5.0,5.0;" x1="631.5" x2="631.5" y1="81.2969" y2="827.75"/><line style="stroke:#181818;stroke-width:0.5;stroke-dasharray:5.0,5.0;" x1="819.5" x2="819.5" y1="81.2969" y2="827.75"/><text fill="#000000" font-family="sans-serif" font-size="14" lengthAdjust="spacing" textLength="48" x="20" y="77.9951">Parent</text><ellipse cx="47" cy="13.5" fill="#E2E2F0" rx="8" ry="8" style="stroke:#181818;stroke-width:0.5;"/><path d="M47,21.5 L47,48.5 M34,29.5 L60,29.5 M47,48.5 L34,63.5 M47,48.5 L60,63.5 " fill="none" style="stroke:#181818;stroke-width:0.5;"/><text fill="#000000" font-family="sans-serif" font-size="14" lengthAdjust="spacing" textLength="163" x="151.5" y="61.6982">ImmunizationSchedule</text><text fill="#000000" font-family="sans-serif" font-size="14" lengthAdjust="spacing" textLength="128" x="169" y="77.9951">ManagementView</text><path d="M215.5,20.7031 L215.5,44.7031 M215.5,32.7031 L232.5,32.7031 " fill="none" style="stroke:#181818;stroke-width:0.5;"/><ellipse cx="244.5" cy="32.7031" fill="#E2E2F0" rx="12" ry="12" style="stroke:#181818;stroke-width:0.5;"/><text fill="#000000" font-family="sans-serif" font-size="14" lengthAdjust="spacing" textLength="163" x="341.5" y="61.6982">ImmunizationSchedule</text><text fill="#000000" font-family="sans-serif" font-size="14" lengthAdjust="spacing" textLength="119" x="363.5" y="77.9951">InformationView</text><path d="M405.5,20.7031 L405.5,44.7031 M405.5,32.7031 L422.5,32.7031 " fill="none" style="stroke:#181818;stroke-width:0.5;"/><ellipse cx="434.5" cy="32.7031" fill="#E2E2F0" rx="12" ry="12" style="stroke:#181818;stroke-width:0.5;"/><text fill="#000000" font-family="sans-serif" font-size="14" lengthAdjust="spacing" textLength="163" x="547.5" y="61.6982">ImmunizationSchedule</text><text fill="#000000" font-family="sans-serif" font-size="14" lengthAdjust="spacing" textLength="73" x="592.5" y="77.9951">Controller</text><ellipse cx="632" cy="32.7031" fill="#E2E2F0" rx="12" ry="12" style="stroke:#181818;stroke-width:0.5;"/><polygon fill="#181818" points="628,20.7031,634,15.7031,632,20.7031,634,25.7031,628,20.7031" style="stroke:#181818;stroke-width:1.0;"/><text fill="#000000" font-family="sans-serif" font-size="14" lengthAdjust="spacing" textLength="180" x="726.5" y="77.9951">IMMUNIZATIONSCHEDULE</text><ellipse cx="819.5" cy="49" fill="#E2E2F0" rx="12" ry="12" style="stroke:#181818;stroke-width:0.5;"/><line style="stroke:#181818;stroke-width:0.5;" x1="807.5" x2="831.5" y1="63" y2="63"/><polygon fill="#181818" points="807.5,108.4297,817.5,112.4297,807.5,116.4297,811.5,112.4297" style="stroke:#181818;stroke-width:1.0;"/><line style="stroke:#181818;stroke-width:1.0;" x1="632" x2="813.5" y1="112.4297" y2="112.4297"/><text fill="#000000" font-family="sans-serif" font-size="13" font-weight="bold" lengthAdjust="spacing" textLength="9" x="639" y="107.3638">1</text><text fill="#000000" font-family="sans-serif" font-size="13" lengthAdjust="spacing" textLength="130" x="652" y="107.3638">Get list of schedules</text><line style="stroke:#181818;stroke-width:1.0;" x1="819.5" x2="861.5" y1="141.5625" y2="141.5625"/><line style="stroke:#181818;stroke-width:1.0;" x1="861.5" x2="861.5" y1="141.5625" y2="154.5625"/><line style="stroke:#181818;stroke-width:1.0;" x1="820.5" x2="861.5" y1="154.5625" y2="154.5625"/><polygon fill="#181818" points="830.5,150.5625,820.5,154.5625,830.5,158.5625,826.5,154.5625" style="stroke:#181818;stroke-width:1.0;"/><text fill="#000000" font-family="sans-serif" font-size="13" font-weight="bold" lengthAdjust="spacing" textLength="9" x="826.5" y="136.4966">2</text><text fill="#000000" font-family="sans-serif" font-size="13" lengthAdjust="spacing" textLength="72" x="839.5" y="136.4966">Query data</text><polygon fill="#181818" points="643,179.6953,633,183.6953,643,187.6953,639,183.6953" style="stroke:#181818;stroke-width:1.0;"/><line style="stroke:#181818;stroke-width:1.0;stroke-dasharray:2.0,2.0;" x1="637" x2="818.5" y1="183.6953" y2="183.6953"/><text fill="#000000" font-family="sans-serif" font-size="13" font-weight="bold" lengthAdjust="spacing" textLength="8" x="649" y="178.6294">3</text><text fill="#000000" font-family="sans-serif" font-size="13" lengthAdjust="spacing" textLength="107" x="661" y="178.6294">List of schedules</text><polygon fill="#181818" points="247,208.8281,237,212.8281,247,216.8281,243,212.8281" style="stroke:#181818;stroke-width:1.0;"/><line style="stroke:#181818;stroke-width:1.0;stroke-dasharray:2.0,2.0;" x1="241" x2="631" y1="212.8281" y2="212.8281"/><text fill="#000000" font-family="sans-serif" font-size="13" font-weight="bold" lengthAdjust="spacing" textLength="9" x="253" y="207.7622">4</text><text fill="#000000" font-family="sans-serif" font-size="13" lengthAdjust="spacing" textLength="107" x="266" y="207.7622">List of schedules</text><line style="stroke:#181818;stroke-width:1.0;" x1="236" x2="278" y1="257.0938" y2="257.0938"/><line style="stroke:#181818;stroke-width:1.0;" x1="278" x2="278" y1="257.0938" y2="270.0938"/><line style="stroke:#181818;stroke-width:1.0;" x1="237" x2="278" y1="270.0938" y2="270.0938"/><polygon fill="#181818" points="247,266.0938,237,270.0938,247,274.0938,243,270.0938" style="stroke:#181818;stroke-width:1.0;"/><text fill="#000000" font-family="sans-serif" font-size="13" font-weight="bold" lengthAdjust="spacing" textLength="9" x="243" y="244.4614">5</text><text fill="#000000" font-family="sans-serif" font-size="13" lengthAdjust="spacing" textLength="69" x="256" y="236.895">Display list</text><text fill="#000000" font-family="sans-serif" font-size="13" lengthAdjust="spacing" textLength="81" x="256" y="252.0278">of schedules</text><path d="M10,285.0938 L82,285.0938 L82,292.2266 L72,302.2266 L10,302.2266 L10,285.0938 " fill="#EEEEEE" style="stroke:#000000;stroke-width:1.5;"/><rect fill="none" height="292.4609" style="stroke:#000000;stroke-width:1.5;" width="913.5" x="10" y="285.0938"/><text fill="#000000" font-family="sans-serif" font-size="13" font-weight="bold" lengthAdjust="spacing" textLength="27" x="25" y="298.1606">opt</text><text fill="#000000" font-family="sans-serif" font-size="11" font-weight="bold" lengthAdjust="spacing" textLength="68" x="97" y="297.3042">[Optional]</text><polygon fill="#181818" points="224,334.4922,234,338.4922,224,342.4922,228,338.4922" style="stroke:#181818;stroke-width:1.0;"/><line style="stroke:#181818;stroke-width:1.0;" x1="47" x2="230" y1="338.4922" y2="338.4922"/><text fill="#000000" font-family="sans-serif" font-size="13" font-weight="bold" lengthAdjust="spacing" textLength="9" x="54" y="325.8599">6</text><text fill="#000000" font-family="sans-serif" font-size="13" lengthAdjust="spacing" textLength="113" x="67" y="318.2935">Enters the search</text><text fill="#000000" font-family="sans-serif" font-size="13" lengthAdjust="spacing" textLength="134" x="67" y="333.4263">criteria in search box</text><polygon fill="#181818" points="620,378.7578,630,382.7578,620,386.7578,624,382.7578" style="stroke:#181818;stroke-width:1.0;"/><line style="stroke:#181818;stroke-width:1.0;" x1="236" x2="626" y1="382.7578" y2="382.7578"/><text fill="#000000" font-family="sans-serif" font-size="13" font-weight="bold" lengthAdjust="spacing" textLength="9" x="243" y="370.1255">7</text><text fill="#000000" font-family="sans-serif" font-size="13" lengthAdjust="spacing" textLength="159" x="256" y="362.5591">Send searching schedule</text><text fill="#000000" font-family="sans-serif" font-size="13" lengthAdjust="spacing" textLength="127" x="256" y="377.6919">information request</text><polygon fill="#181818" points="807.5,423.0234,817.5,427.0234,807.5,431.0234,811.5,427.0234" style="stroke:#181818;stroke-width:1.0;"/><line style="stroke:#181818;stroke-width:1.0;" x1="632" x2="813.5" y1="427.0234" y2="427.0234"/><text fill="#000000" font-family="sans-serif" font-size="13" font-weight="bold" lengthAdjust="spacing" textLength="9" x="639" y="414.3911">8</text><text fill="#000000" font-family="sans-serif" font-size="13" lengthAdjust="spacing" textLength="140" x="652" y="406.8247">Search schedule base</text><text fill="#000000" font-family="sans-serif" font-size="13" lengthAdjust="spacing" textLength="121" x="652" y="421.9575">on given keywords</text><line style="stroke:#181818;stroke-width:1.0;" x1="819.5" x2="861.5" y1="456.1563" y2="456.1563"/><line style="stroke:#181818;stroke-width:1.0;" x1="861.5" x2="861.5" y1="456.1563" y2="469.1563"/><line style="stroke:#181818;stroke-width:1.0;" x1="820.5" x2="861.5" y1="469.1563" y2="469.1563"/><polygon fill="#181818" points="830.5,465.1563,820.5,469.1563,830.5,473.1563,826.5,469.1563" style="stroke:#181818;stroke-width:1.0;"/><text fill="#000000" font-family="sans-serif" font-size="13" font-weight="bold" lengthAdjust="spacing" textLength="9" x="826.5" y="451.0903">9</text><text fill="#000000" font-family="sans-serif" font-size="13" lengthAdjust="spacing" textLength="72" x="839.5" y="451.0903">Query data</text><polygon fill="#181818" points="643,494.2891,633,498.2891,643,502.2891,639,498.2891" style="stroke:#181818;stroke-width:1.0;"/><line style="stroke:#181818;stroke-width:1.0;stroke-dasharray:2.0,2.0;" x1="637" x2="818.5" y1="498.2891" y2="498.2891"/><text fill="#000000" font-family="sans-serif" font-size="13" font-weight="bold" lengthAdjust="spacing" textLength="19" x="649" y="493.2231">10</text><text fill="#000000" font-family="sans-serif" font-size="13" lengthAdjust="spacing" textLength="79" x="672" y="493.2231">Query result</text><polygon fill="#181818" points="247,523.4219,237,527.4219,247,531.4219,243,527.4219" style="stroke:#181818;stroke-width:1.0;"/><line style="stroke:#181818;stroke-width:1.0;stroke-dasharray:2.0,2.0;" x1="241" x2="631" y1="527.4219" y2="527.4219"/><text fill="#000000" font-family="sans-serif" font-size="13" font-weight="bold" lengthAdjust="spacing" textLength="18" x="253" y="522.356">11</text><text fill="#000000" font-family="sans-serif" font-size="13" lengthAdjust="spacing" textLength="79" x="275" y="522.356">Query result</text><line style="stroke:#181818;stroke-width:1.0;" x1="236" x2="278" y1="556.5547" y2="556.5547"/><line style="stroke:#181818;stroke-width:1.0;" x1="278" x2="278" y1="556.5547" y2="569.5547"/><line style="stroke:#181818;stroke-width:1.0;" x1="237" x2="278" y1="569.5547" y2="569.5547"/><polygon fill="#181818" points="247,565.5547,237,569.5547,247,573.5547,243,569.5547" style="stroke:#181818;stroke-width:1.0;"/><text fill="#000000" font-family="sans-serif" font-size="13" font-weight="bold" lengthAdjust="spacing" textLength="18" x="243" y="551.4888">12</text><text fill="#000000" font-family="sans-serif" font-size="13" lengthAdjust="spacing" textLength="154" x="265" y="551.4888">Display list of schedules</text><polygon fill="#181818" points="224,616.8203,234,620.8203,224,624.8203,228,620.8203" style="stroke:#181818;stroke-width:1.0;"/><line style="stroke:#181818;stroke-width:1.0;" x1="47" x2="230" y1="620.8203" y2="620.8203"/><text fill="#000000" font-family="sans-serif" font-size="13" font-weight="bold" lengthAdjust="spacing" textLength="17" x="54" y="608.188">13</text><text fill="#000000" font-family="sans-serif" font-size="13" lengthAdjust="spacing" textLength="64" x="75" y="600.6216">Select the</text><text fill="#000000" font-family="sans-serif" font-size="13" lengthAdjust="spacing" textLength="144" x="75" y="615.7544">schedule want to view</text><polygon fill="#181818" points="620,645.9531,630,649.9531,620,653.9531,624,649.9531" style="stroke:#181818;stroke-width:1.0;"/><line style="stroke:#181818;stroke-width:1.0;" x1="236" x2="626" y1="649.9531" y2="649.9531"/><text fill="#000000" font-family="sans-serif" font-size="13" font-weight="bold" lengthAdjust="spacing" textLength="18" x="243" y="644.8872">14</text><text fill="#000000" font-family="sans-serif" font-size="13" lengthAdjust="spacing" textLength="220" x="265" y="644.8872">Get selected schedule information</text><polygon fill="#181818" points="807.5,690.2188,817.5,694.2188,807.5,698.2188,811.5,694.2188" style="stroke:#181818;stroke-width:1.0;"/><line style="stroke:#181818;stroke-width:1.0;" x1="632" x2="813.5" y1="694.2188" y2="694.2188"/><text fill="#000000" font-family="sans-serif" font-size="13" font-weight="bold" lengthAdjust="spacing" textLength="18" x="639" y="681.5864">15</text><text fill="#000000" font-family="sans-serif" font-size="13" lengthAdjust="spacing" textLength="81" x="661" y="674.02">Get selected</text><text fill="#000000" font-family="sans-serif" font-size="13" lengthAdjust="spacing" textLength="135" x="661" y="689.1528">schedule information</text><polygon fill="#181818" points="643,719.3516,633,723.3516,643,727.3516,639,723.3516" style="stroke:#181818;stroke-width:1.0;"/><line style="stroke:#181818;stroke-width:1.0;stroke-dasharray:2.0,2.0;" x1="637" x2="818.5" y1="723.3516" y2="723.3516"/><text fill="#000000" font-family="sans-serif" font-size="13" font-weight="bold" lengthAdjust="spacing" textLength="18" x="649" y="718.2856">16</text><text fill="#000000" font-family="sans-serif" font-size="13" lengthAdjust="spacing" textLength="79" x="671" y="718.2856">Query result</text><polygon fill="#181818" points="437,748.4844,427,752.4844,437,756.4844,433,752.4844" style="stroke:#181818;stroke-width:1.0;"/><line style="stroke:#181818;stroke-width:1.0;stroke-dasharray:2.0,2.0;" x1="431" x2="631" y1="752.4844" y2="752.4844"/><text fill="#000000" font-family="sans-serif" font-size="13" font-weight="bold" lengthAdjust="spacing" textLength="18" x="443" y="747.4185">17</text><text fill="#000000" font-family="sans-serif" font-size="13" lengthAdjust="spacing" textLength="79" x="465" y="747.4185">Query result</text><line style="stroke:#181818;stroke-width:1.0;" x1="426" x2="468" y1="796.75" y2="796.75"/><line style="stroke:#181818;stroke-width:1.0;" x1="468" x2="468" y1="796.75" y2="809.75"/><line style="stroke:#181818;stroke-width:1.0;" x1="427" x2="468" y1="809.75" y2="809.75"/><polygon fill="#181818" points="437,805.75,427,809.75,437,813.75,433,809.75" style="stroke:#181818;stroke-width:1.0;"/><text fill="#000000" font-family="sans-serif" font-size="13" font-weight="bold" lengthAdjust="spacing" textLength="18" x="433" y="784.1177">18</text><text fill="#000000" font-family="sans-serif" font-size="13" lengthAdjust="spacing" textLength="170" x="455" y="776.5513">Display view with selected</text><text fill="#000000" font-family="sans-serif" font-size="13" lengthAdjust="spacing" textLength="135" x="455" y="791.6841">schedule information</text><!--SRC=[hPNBRi8m44Nt_efHz_q15fKgG6qa7grIkgYoCSb0h2PZQa-WzElh45wX15mWIsVkcTUD8mlMLEHZD29L2S94QnxhRo5apDh0YpH8BCQwe4IQ9Tm5ULwG-f6iD8LnYacHOKHzINAAkGjzLxYu0sdXM60zx2mre8as-Uhm9FOWJiIQsEYi2TkkNcTe6ecx4E6ALRo4eDyV3OAFnxTWE0ZRpztEgDSLfwLm_t1Kre8dPCYKPT0Ji6kT5STYcncl1Rh99P9bWx1Kdgol1Rs_DPpfg05QNwmlkAu2JtP7sLacbwi1HbHBecSCmrafbfa0zrJszILtYT5Ou1J1eZHn6b5ib3jJ4XIjpw3yEahsvHtjho14IjPaHTDjBn6fdQd1u5U1bXlJ-dWkhAhV982nj2wBWq_L70a-SRdG9h5LZakTs2ps64N5CMYBpAzLpxLwSQ_tOjtlRgtYV-uBCSEOI_T5jDtIGZe0QvYNzzfj75TUFdQL2vET7VRiTjMrjY7lzL13tyGS5nhZu3_X0JrGW2zuuujoRR1Gd9wPooy0]--></g></svg>