<?xml version="1.0" encoding="us-ascii" standalone="no"?><svg xmlns="http://www.w3.org/2000/svg" xmlns:xlink="http://www.w3.org/1999/xlink" contentStyleType="text/css" height="644px" preserveAspectRatio="none" style="width:1006px;height:644px;background:#FFFFFF;" version="1.1" viewBox="0 0 1006 644" width="1006px" zoomAndPan="magnify"><defs/><g><rect fill="none" height="379.5313" style="stroke:#000000;stroke-width:1.5;" width="989" x="10" y="169.5625"/><line style="stroke:#181818;stroke-width:0.5;stroke-dasharray:5.0,5.0;" x1="46" x2="46" y1="81.2969" y2="637.3594"/><line style="stroke:#181818;stroke-width:0.5;stroke-dasharray:5.0,5.0;" x1="265" x2="265" y1="81.2969" y2="637.3594"/><line style="stroke:#181818;stroke-width:0.5;stroke-dasharray:5.0,5.0;" x1="494" x2="494" y1="81.2969" y2="637.3594"/><line style="stroke:#181818;stroke-width:0.5;stroke-dasharray:5.0,5.0;" x1="717" x2="717" y1="81.2969" y2="637.3594"/><line style="stroke:#181818;stroke-width:0.5;stroke-dasharray:5.0,5.0;" x1="850.5" x2="850.5" y1="81.2969" y2="637.3594"/><text fill="#000000" font-family="sans-serif" font-size="14" lengthAdjust="spacing" textLength="46" x="20" y="77.9951">Admin</text><ellipse cx="46" cy="13.5" fill="#E2E2F0" rx="8" ry="8" style="stroke:#181818;stroke-width:0.5;"/><path d="M46,21.5 L46,48.5 M33,29.5 L59,29.5 M46,48.5 L33,63.5 M46,48.5 L59,63.5 " fill="none" style="stroke:#181818;stroke-width:0.5;"/><text fill="#000000" font-family="sans-serif" font-size="14" lengthAdjust="spacing" textLength="116" x="204" y="77.9951">UserReportView</text><path d="M244.5,37 L244.5,61 M244.5,49 L261.5,49 " fill="none" style="stroke:#181818;stroke-width:0.5;"/><ellipse cx="273.5" cy="49" fill="#E2E2F0" rx="12" ry="12" style="stroke:#181818;stroke-width:0.5;"/><text fill="#000000" font-family="sans-serif" font-size="14" lengthAdjust="spacing" textLength="124" x="429" y="77.9951">ReportController</text><ellipse cx="494" cy="49" fill="#E2E2F0" rx="12" ry="12" style="stroke:#181818;stroke-width:0.5;"/><polygon fill="#181818" points="490,37,496,32,494,37,496,42,490,37" style="stroke:#181818;stroke-width:1.0;"/><text fill="#000000" font-family="sans-serif" font-size="14" lengthAdjust="spacing" textLength="62" x="683" y="77.9951">DOCTOR</text><ellipse cx="717" cy="49" fill="#E2E2F0" rx="12" ry="12" style="stroke:#181818;stroke-width:0.5;"/><line style="stroke:#181818;stroke-width:0.5;" x1="705" x2="729" y1="63" y2="63"/><text fill="#000000" font-family="sans-serif" font-size="14" lengthAdjust="spacing" textLength="43" x="826.5" y="77.9951">CHILD</text><ellipse cx="851" cy="49" fill="#E2E2F0" rx="12" ry="12" style="stroke:#181818;stroke-width:0.5;"/><line style="stroke:#181818;stroke-width:0.5;" x1="839" x2="863" y1="63" y2="63"/><line style="stroke:#181818;stroke-width:1.0;" x1="265" x2="307" y1="112.4297" y2="112.4297"/><line style="stroke:#181818;stroke-width:1.0;" x1="307" x2="307" y1="112.4297" y2="125.4297"/><line style="stroke:#181818;stroke-width:1.0;" x1="266" x2="307" y1="125.4297" y2="125.4297"/><polygon fill="#181818" points="276,121.4297,266,125.4297,276,129.4297,272,125.4297" style="stroke:#181818;stroke-width:1.0;"/><text fill="#000000" font-family="sans-serif" font-size="13" font-weight="bold" lengthAdjust="spacing" textLength="9" x="272" y="107.3638">1</text><text fill="#000000" font-family="sans-serif" font-size="13" lengthAdjust="spacing" textLength="202" x="285" y="107.3638">Display with empty information</text><polygon fill="#181818" points="253,150.5625,263,154.5625,253,158.5625,257,154.5625" style="stroke:#181818;stroke-width:1.0;"/><line style="stroke:#181818;stroke-width:1.0;" x1="46" x2="259" y1="154.5625" y2="154.5625"/><text fill="#000000" font-family="sans-serif" font-size="13" font-weight="bold" lengthAdjust="spacing" textLength="9" x="53" y="149.4966">2</text><text fill="#000000" font-family="sans-serif" font-size="13" lengthAdjust="spacing" textLength="182" x="66" y="149.4966">Choose which type of report</text><path d="M10,169.5625 L76,169.5625 L76,176.6953 L66,186.6953 L10,186.6953 L10,169.5625 " fill="#EEEEEE" style="stroke:#000000;stroke-width:1.5;"/><rect fill="none" height="379.5313" style="stroke:#000000;stroke-width:1.5;" width="989" x="10" y="169.5625"/><text fill="#000000" font-family="sans-serif" font-size="13" font-weight="bold" lengthAdjust="spacing" textLength="21" x="25" y="182.6294">alt</text><text fill="#000000" font-family="sans-serif" font-size="11" font-weight="bold" lengthAdjust="spacing" textLength="107" x="91" y="181.7729">[Doctor Report]</text><polygon fill="#181818" points="253,203.8281,263,207.8281,253,211.8281,257,207.8281" style="stroke:#181818;stroke-width:1.0;"/><line style="stroke:#181818;stroke-width:1.0;" x1="46" x2="259" y1="207.8281" y2="207.8281"/><text fill="#000000" font-family="sans-serif" font-size="13" font-weight="bold" lengthAdjust="spacing" textLength="8" x="53" y="202.7622">3</text><text fill="#000000" font-family="sans-serif" font-size="13" lengthAdjust="spacing" textLength="122" x="65" y="202.7622">Choose timestamp</text><polygon fill="#181818" points="482,232.9609,492,236.9609,482,240.9609,486,236.9609" style="stroke:#181818;stroke-width:1.0;"/><line style="stroke:#181818;stroke-width:1.0;" x1="265" x2="488" y1="236.9609" y2="236.9609"/><text fill="#000000" font-family="sans-serif" font-size="13" font-weight="bold" lengthAdjust="spacing" textLength="9" x="272" y="231.895">4</text><text fill="#000000" font-family="sans-serif" font-size="13" lengthAdjust="spacing" textLength="186" x="285" y="231.895">Send data and time of report</text><polygon fill="#181818" points="705,262.0938,715,266.0938,705,270.0938,709,266.0938" style="stroke:#181818;stroke-width:1.0;"/><line style="stroke:#181818;stroke-width:1.0;" x1="494" x2="711" y1="266.0938" y2="266.0938"/><text fill="#000000" font-family="sans-serif" font-size="13" font-weight="bold" lengthAdjust="spacing" textLength="9" x="501" y="261.0278">5</text><text fill="#000000" font-family="sans-serif" font-size="13" lengthAdjust="spacing" textLength="186" x="514" y="261.0278">Send data and time of report</text><line style="stroke:#181818;stroke-width:1.0;" x1="717" x2="759" y1="310.3594" y2="310.3594"/><line style="stroke:#181818;stroke-width:1.0;" x1="759" x2="759" y1="310.3594" y2="323.3594"/><line style="stroke:#181818;stroke-width:1.0;" x1="718" x2="759" y1="323.3594" y2="323.3594"/><polygon fill="#181818" points="728,319.3594,718,323.3594,728,327.3594,724,323.3594" style="stroke:#181818;stroke-width:1.0;"/><text fill="#000000" font-family="sans-serif" font-size="13" font-weight="bold" lengthAdjust="spacing" textLength="9" x="724" y="297.7271">6</text><text fill="#000000" font-family="sans-serif" font-size="13" lengthAdjust="spacing" textLength="107" x="737" y="290.1606">Query data base</text><text fill="#000000" font-family="sans-serif" font-size="13" lengthAdjust="spacing" textLength="99" x="737" y="305.2935">on given option</text><polygon fill="#181818" points="505,348.4922,495,352.4922,505,356.4922,501,352.4922" style="stroke:#181818;stroke-width:1.0;"/><line style="stroke:#181818;stroke-width:1.0;stroke-dasharray:2.0,2.0;" x1="499" x2="716" y1="352.4922" y2="352.4922"/><text fill="#000000" font-family="sans-serif" font-size="13" font-weight="bold" lengthAdjust="spacing" textLength="9" x="511" y="347.4263">7</text><text fill="#000000" font-family="sans-serif" font-size="13" lengthAdjust="spacing" textLength="79" x="524" y="347.4263">Query result</text><line style="stroke:#000000;stroke-width:1.0;stroke-dasharray:2.0,2.0;" x1="10" x2="999" y1="361.4922" y2="361.4922"/><text fill="#000000" font-family="sans-serif" font-size="11" font-weight="bold" lengthAdjust="spacing" textLength="93" x="15" y="371.7026">[Child Report]</text><polygon fill="#181818" points="253,392.4297,263,396.4297,253,400.4297,257,396.4297" style="stroke:#181818;stroke-width:1.0;"/><line style="stroke:#181818;stroke-width:1.0;" x1="46" x2="259" y1="396.4297" y2="396.4297"/><text fill="#000000" font-family="sans-serif" font-size="13" font-weight="bold" lengthAdjust="spacing" textLength="9" x="53" y="391.3638">8</text><text fill="#000000" font-family="sans-serif" font-size="13" lengthAdjust="spacing" textLength="122" x="66" y="391.3638">Choose timestamp</text><polygon fill="#181818" points="482,421.5625,492,425.5625,482,429.5625,486,425.5625" style="stroke:#181818;stroke-width:1.0;"/><line style="stroke:#181818;stroke-width:1.0;" x1="265" x2="488" y1="425.5625" y2="425.5625"/><text fill="#000000" font-family="sans-serif" font-size="13" font-weight="bold" lengthAdjust="spacing" textLength="9" x="272" y="420.4966">9</text><text fill="#000000" font-family="sans-serif" font-size="13" lengthAdjust="spacing" textLength="186" x="285" y="420.4966">Send data and time of report</text><polygon fill="#181818" points="839,450.6953,849,454.6953,839,458.6953,843,454.6953" style="stroke:#181818;stroke-width:1.0;"/><line style="stroke:#181818;stroke-width:1.0;" x1="494" x2="845" y1="454.6953" y2="454.6953"/><text fill="#000000" font-family="sans-serif" font-size="13" font-weight="bold" lengthAdjust="spacing" textLength="19" x="501" y="449.6294">10</text><text fill="#000000" font-family="sans-serif" font-size="13" lengthAdjust="spacing" textLength="186" x="524" y="449.6294">Send data and time of report</text><line style="stroke:#181818;stroke-width:1.0;" x1="851" x2="893" y1="498.9609" y2="498.9609"/><line style="stroke:#181818;stroke-width:1.0;" x1="893" x2="893" y1="498.9609" y2="511.9609"/><line style="stroke:#181818;stroke-width:1.0;" x1="852" x2="893" y1="511.9609" y2="511.9609"/><polygon fill="#181818" points="862,507.9609,852,511.9609,862,515.9609,858,511.9609" style="stroke:#181818;stroke-width:1.0;"/><text fill="#000000" font-family="sans-serif" font-size="13" font-weight="bold" lengthAdjust="spacing" textLength="18" x="858" y="486.3286">11</text><text fill="#000000" font-family="sans-serif" font-size="13" lengthAdjust="spacing" textLength="107" x="880" y="478.7622">Query data base</text><text fill="#000000" font-family="sans-serif" font-size="13" lengthAdjust="spacing" textLength="99" x="880" y="493.895">on given option</text><polygon fill="#181818" points="505,537.0938,495,541.0938,505,545.0938,501,541.0938" style="stroke:#181818;stroke-width:1.0;"/><line style="stroke:#181818;stroke-width:1.0;stroke-dasharray:2.0,2.0;" x1="499" x2="850" y1="541.0938" y2="541.0938"/><text fill="#000000" font-family="sans-serif" font-size="13" font-weight="bold" lengthAdjust="spacing" textLength="18" x="511" y="536.0278">12</text><text fill="#000000" font-family="sans-serif" font-size="13" lengthAdjust="spacing" textLength="79" x="533" y="536.0278">Query result</text><polygon fill="#181818" points="276,573.2266,266,577.2266,276,581.2266,272,577.2266" style="stroke:#181818;stroke-width:1.0;"/><line style="stroke:#181818;stroke-width:1.0;stroke-dasharray:2.0,2.0;" x1="270" x2="493" y1="577.2266" y2="577.2266"/><text fill="#000000" font-family="sans-serif" font-size="13" font-weight="bold" lengthAdjust="spacing" textLength="17" x="282" y="572.1606">13</text><text fill="#000000" font-family="sans-serif" font-size="13" lengthAdjust="spacing" textLength="76" x="303" y="572.1606">Report data</text><line style="stroke:#181818;stroke-width:1.0;" x1="265" x2="307" y1="606.3594" y2="606.3594"/><line style="stroke:#181818;stroke-width:1.0;" x1="307" x2="307" y1="606.3594" y2="619.3594"/><line style="stroke:#181818;stroke-width:1.0;" x1="266" x2="307" y1="619.3594" y2="619.3594"/><polygon fill="#181818" points="276,615.3594,266,619.3594,276,623.3594,272,619.3594" style="stroke:#181818;stroke-width:1.0;"/><text fill="#000000" font-family="sans-serif" font-size="13" font-weight="bold" lengthAdjust="spacing" textLength="18" x="272" y="601.2935">14</text><text fill="#000000" font-family="sans-serif" font-size="13" lengthAdjust="spacing" textLength="123" x="294" y="601.2935">Display report data</text><!--SRC=[pPD1ReCm44NtFiLSe1V8eb85YrQg53LDk-h6uA5OiZsM6KgvVOrDbOI2acLPsUY_pvzl8ticrziAWsYrGcY8kA9l8MJD5E11MUr4HRrJCepmrc4ueAV0xne7KPFZG0RogoBlJBH2nvf7AFV5SN_utHMFJy-b49SUS7U_SDr1gJjlv0Y3vXRG-iXgrr2maZKvaJAjSKLBr24ChQvRuD4ZK0CX2OGq32MbcJ8Y83xNh5XRx5XQ3qd-D_foyXsyebEW94kGSJ4Pd59aboKp-UIcRg6pyfnvwJ4UJO8gsU678mUV-WiTa9yAk-HMGsUBW5qVQn9eukX5gusQfG3_gwrqasw1a_2CkAsgcRhQLBpOQYFZIabpbTF7D-hP-W_2YVm1]--></g></svg>