<?xml version="1.0" encoding="us-ascii" standalone="no"?><svg xmlns="http://www.w3.org/2000/svg" xmlns:xlink="http://www.w3.org/1999/xlink" contentStyleType="text/css" height="834px" preserveAspectRatio="none" style="width:947px;height:834px;background:#FFFFFF;" version="1.1" viewBox="0 0 947 834" width="947px" zoomAndPan="magnify"><defs/><g><rect fill="none" height="292.4609" style="stroke:#000000;stroke-width:1.5;" width="931" x="10" y="285.0938"/><line style="stroke:#181818;stroke-width:0.5;stroke-dasharray:5.0,5.0;" x1="47" x2="47" y1="81.2969" y2="827.75"/><line style="stroke:#181818;stroke-width:0.5;stroke-dasharray:5.0,5.0;" x1="244" x2="244" y1="81.2969" y2="827.75"/><line style="stroke:#181818;stroke-width:0.5;stroke-dasharray:5.0,5.0;" x1="441.5" x2="441.5" y1="81.2969" y2="827.75"/><line style="stroke:#181818;stroke-width:0.5;stroke-dasharray:5.0,5.0;" x1="648" x2="648" y1="81.2969" y2="827.75"/><line style="stroke:#181818;stroke-width:0.5;stroke-dasharray:5.0,5.0;" x1="836.5" x2="836.5" y1="81.2969" y2="827.75"/><text fill="#000000" font-family="sans-serif" font-size="14" lengthAdjust="spacing" textLength="48" x="20" y="77.9951">Parent</text><ellipse cx="47" cy="13.5" fill="#E2E2F0" rx="8" ry="8" style="stroke:#181818;stroke-width:0.5;"/><path d="M47,21.5 L47,48.5 M34,29.5 L60,29.5 M47,48.5 L34,63.5 M47,48.5 L60,63.5 " fill="none" style="stroke:#181818;stroke-width:0.5;"/><text fill="#000000" font-family="sans-serif" font-size="14" lengthAdjust="spacing" textLength="75" x="203.5" y="61.6982">Document</text><text fill="#000000" font-family="sans-serif" font-size="14" lengthAdjust="spacing" textLength="128" x="177" y="77.9951">ManagementView</text><path d="M223.5,20.7031 L223.5,44.7031 M223.5,32.7031 L240.5,32.7031 " fill="none" style="stroke:#181818;stroke-width:0.5;"/><ellipse cx="252.5" cy="32.7031" fill="#E2E2F0" rx="12" ry="12" style="stroke:#181818;stroke-width:0.5;"/><text fill="#000000" font-family="sans-serif" font-size="14" lengthAdjust="spacing" textLength="75" x="401.5" y="61.6982">Document</text><text fill="#000000" font-family="sans-serif" font-size="14" lengthAdjust="spacing" textLength="119" x="379.5" y="77.9951">InformationView</text><path d="M421.5,20.7031 L421.5,44.7031 M421.5,32.7031 L438.5,32.7031 " fill="none" style="stroke:#181818;stroke-width:0.5;"/><ellipse cx="450.5" cy="32.7031" fill="#E2E2F0" rx="12" ry="12" style="stroke:#181818;stroke-width:0.5;"/><text fill="#000000" font-family="sans-serif" font-size="14" lengthAdjust="spacing" textLength="148" x="571" y="77.9951">DocumentController</text><ellipse cx="648" cy="49" fill="#E2E2F0" rx="12" ry="12" style="stroke:#181818;stroke-width:0.5;"/><polygon fill="#181818" points="644,37,650,32,648,37,650,42,644,37" style="stroke:#181818;stroke-width:1.0;"/><text fill="#000000" font-family="sans-serif" font-size="14" lengthAdjust="spacing" textLength="81" x="793.5" y="77.9951">DOCUMENT</text><ellipse cx="837" cy="49" fill="#E2E2F0" rx="12" ry="12" style="stroke:#181818;stroke-width:0.5;"/><line style="stroke:#181818;stroke-width:0.5;" x1="825" x2="849" y1="63" y2="63"/><polygon fill="#181818" points="825,108.4297,835,112.4297,825,116.4297,829,112.4297" style="stroke:#181818;stroke-width:1.0;"/><line style="stroke:#181818;stroke-width:1.0;" x1="648" x2="831" y1="112.4297" y2="112.4297"/><text fill="#000000" font-family="sans-serif" font-size="13" font-weight="bold" lengthAdjust="spacing" textLength="9" x="655" y="107.3638">1</text><text fill="#000000" font-family="sans-serif" font-size="13" lengthAdjust="spacing" textLength="138" x="668" y="107.3638">Get list of documents</text><line style="stroke:#181818;stroke-width:1.0;" x1="837" x2="879" y1="141.5625" y2="141.5625"/><line style="stroke:#181818;stroke-width:1.0;" x1="879" x2="879" y1="141.5625" y2="154.5625"/><line style="stroke:#181818;stroke-width:1.0;" x1="838" x2="879" y1="154.5625" y2="154.5625"/><polygon fill="#181818" points="848,150.5625,838,154.5625,848,158.5625,844,154.5625" style="stroke:#181818;stroke-width:1.0;"/><text fill="#000000" font-family="sans-serif" font-size="13" font-weight="bold" lengthAdjust="spacing" textLength="9" x="844" y="136.4966">2</text><text fill="#000000" font-family="sans-serif" font-size="13" lengthAdjust="spacing" textLength="72" x="857" y="136.4966">Query data</text><polygon fill="#181818" points="659,179.6953,649,183.6953,659,187.6953,655,183.6953" style="stroke:#181818;stroke-width:1.0;"/><line style="stroke:#181818;stroke-width:1.0;stroke-dasharray:2.0,2.0;" x1="653" x2="836" y1="183.6953" y2="183.6953"/><text fill="#000000" font-family="sans-serif" font-size="13" font-weight="bold" lengthAdjust="spacing" textLength="8" x="665" y="178.6294">3</text><text fill="#000000" font-family="sans-serif" font-size="13" lengthAdjust="spacing" textLength="115" x="677" y="178.6294">List of documents</text><polygon fill="#181818" points="255,208.8281,245,212.8281,255,216.8281,251,212.8281" style="stroke:#181818;stroke-width:1.0;"/><line style="stroke:#181818;stroke-width:1.0;stroke-dasharray:2.0,2.0;" x1="249" x2="647" y1="212.8281" y2="212.8281"/><text fill="#000000" font-family="sans-serif" font-size="13" font-weight="bold" lengthAdjust="spacing" textLength="9" x="261" y="207.7622">4</text><text fill="#000000" font-family="sans-serif" font-size="13" lengthAdjust="spacing" textLength="115" x="274" y="207.7622">List of documents</text><line style="stroke:#181818;stroke-width:1.0;" x1="244" x2="286" y1="257.0938" y2="257.0938"/><line style="stroke:#181818;stroke-width:1.0;" x1="286" x2="286" y1="257.0938" y2="270.0938"/><line style="stroke:#181818;stroke-width:1.0;" x1="245" x2="286" y1="270.0938" y2="270.0938"/><polygon fill="#181818" points="255,266.0938,245,270.0938,255,274.0938,251,270.0938" style="stroke:#181818;stroke-width:1.0;"/><text fill="#000000" font-family="sans-serif" font-size="13" font-weight="bold" lengthAdjust="spacing" textLength="9" x="251" y="244.4614">5</text><text fill="#000000" font-family="sans-serif" font-size="13" lengthAdjust="spacing" textLength="69" x="264" y="236.895">Display list</text><text fill="#000000" font-family="sans-serif" font-size="13" lengthAdjust="spacing" textLength="89" x="264" y="252.0278">of documents</text><path d="M10,285.0938 L82,285.0938 L82,292.2266 L72,302.2266 L10,302.2266 L10,285.0938 " fill="#EEEEEE" style="stroke:#000000;stroke-width:1.5;"/><rect fill="none" height="292.4609" style="stroke:#000000;stroke-width:1.5;" width="931" x="10" y="285.0938"/><text fill="#000000" font-family="sans-serif" font-size="13" font-weight="bold" lengthAdjust="spacing" textLength="27" x="25" y="298.1606">opt</text><text fill="#000000" font-family="sans-serif" font-size="11" font-weight="bold" lengthAdjust="spacing" textLength="68" x="97" y="297.3042">[Optional]</text><polygon fill="#181818" points="232,334.4922,242,338.4922,232,342.4922,236,338.4922" style="stroke:#181818;stroke-width:1.0;"/><line style="stroke:#181818;stroke-width:1.0;" x1="47" x2="238" y1="338.4922" y2="338.4922"/><text fill="#000000" font-family="sans-serif" font-size="13" font-weight="bold" lengthAdjust="spacing" textLength="9" x="54" y="325.8599">6</text><text fill="#000000" font-family="sans-serif" font-size="13" lengthAdjust="spacing" textLength="113" x="67" y="318.2935">Enters the search</text><text fill="#000000" font-family="sans-serif" font-size="13" lengthAdjust="spacing" textLength="134" x="67" y="333.4263">criteria in search box</text><polygon fill="#181818" points="636,378.7578,646,382.7578,636,386.7578,640,382.7578" style="stroke:#181818;stroke-width:1.0;"/><line style="stroke:#181818;stroke-width:1.0;" x1="244" x2="642" y1="382.7578" y2="382.7578"/><text fill="#000000" font-family="sans-serif" font-size="13" font-weight="bold" lengthAdjust="spacing" textLength="9" x="251" y="370.1255">7</text><text fill="#000000" font-family="sans-serif" font-size="13" lengthAdjust="spacing" textLength="167" x="264" y="362.5591">Send searching document</text><text fill="#000000" font-family="sans-serif" font-size="13" lengthAdjust="spacing" textLength="127" x="264" y="377.6919">information request</text><polygon fill="#181818" points="825,423.0234,835,427.0234,825,431.0234,829,427.0234" style="stroke:#181818;stroke-width:1.0;"/><line style="stroke:#181818;stroke-width:1.0;" x1="648" x2="831" y1="427.0234" y2="427.0234"/><text fill="#000000" font-family="sans-serif" font-size="13" font-weight="bold" lengthAdjust="spacing" textLength="9" x="655" y="414.3911">8</text><text fill="#000000" font-family="sans-serif" font-size="13" lengthAdjust="spacing" textLength="148" x="668" y="406.8247">Search document base</text><text fill="#000000" font-family="sans-serif" font-size="13" lengthAdjust="spacing" textLength="121" x="668" y="421.9575">on given keywords</text><line style="stroke:#181818;stroke-width:1.0;" x1="837" x2="879" y1="456.1563" y2="456.1563"/><line style="stroke:#181818;stroke-width:1.0;" x1="879" x2="879" y1="456.1563" y2="469.1563"/><line style="stroke:#181818;stroke-width:1.0;" x1="838" x2="879" y1="469.1563" y2="469.1563"/><polygon fill="#181818" points="848,465.1563,838,469.1563,848,473.1563,844,469.1563" style="stroke:#181818;stroke-width:1.0;"/><text fill="#000000" font-family="sans-serif" font-size="13" font-weight="bold" lengthAdjust="spacing" textLength="9" x="844" y="451.0903">9</text><text fill="#000000" font-family="sans-serif" font-size="13" lengthAdjust="spacing" textLength="72" x="857" y="451.0903">Query data</text><polygon fill="#181818" points="659,494.2891,649,498.2891,659,502.2891,655,498.2891" style="stroke:#181818;stroke-width:1.0;"/><line style="stroke:#181818;stroke-width:1.0;stroke-dasharray:2.0,2.0;" x1="653" x2="836" y1="498.2891" y2="498.2891"/><text fill="#000000" font-family="sans-serif" font-size="13" font-weight="bold" lengthAdjust="spacing" textLength="19" x="665" y="493.2231">10</text><text fill="#000000" font-family="sans-serif" font-size="13" lengthAdjust="spacing" textLength="79" x="688" y="493.2231">Query result</text><polygon fill="#181818" points="255,523.4219,245,527.4219,255,531.4219,251,527.4219" style="stroke:#181818;stroke-width:1.0;"/><line style="stroke:#181818;stroke-width:1.0;stroke-dasharray:2.0,2.0;" x1="249" x2="647" y1="527.4219" y2="527.4219"/><text fill="#000000" font-family="sans-serif" font-size="13" font-weight="bold" lengthAdjust="spacing" textLength="18" x="261" y="522.356">11</text><text fill="#000000" font-family="sans-serif" font-size="13" lengthAdjust="spacing" textLength="79" x="283" y="522.356">Query result</text><line style="stroke:#181818;stroke-width:1.0;" x1="244" x2="286" y1="556.5547" y2="556.5547"/><line style="stroke:#181818;stroke-width:1.0;" x1="286" x2="286" y1="556.5547" y2="569.5547"/><line style="stroke:#181818;stroke-width:1.0;" x1="245" x2="286" y1="569.5547" y2="569.5547"/><polygon fill="#181818" points="255,565.5547,245,569.5547,255,573.5547,251,569.5547" style="stroke:#181818;stroke-width:1.0;"/><text fill="#000000" font-family="sans-serif" font-size="13" font-weight="bold" lengthAdjust="spacing" textLength="18" x="251" y="551.4888">12</text><text fill="#000000" font-family="sans-serif" font-size="13" lengthAdjust="spacing" textLength="162" x="273" y="551.4888">Display list of documents</text><polygon fill="#181818" points="232,616.8203,242,620.8203,232,624.8203,236,620.8203" style="stroke:#181818;stroke-width:1.0;"/><line style="stroke:#181818;stroke-width:1.0;" x1="47" x2="238" y1="620.8203" y2="620.8203"/><text fill="#000000" font-family="sans-serif" font-size="13" font-weight="bold" lengthAdjust="spacing" textLength="17" x="54" y="608.188">13</text><text fill="#000000" font-family="sans-serif" font-size="13" lengthAdjust="spacing" textLength="64" x="75" y="600.6216">Select the</text><text fill="#000000" font-family="sans-serif" font-size="13" lengthAdjust="spacing" textLength="152" x="75" y="615.7544">document want to view</text><polygon fill="#181818" points="636,645.9531,646,649.9531,636,653.9531,640,649.9531" style="stroke:#181818;stroke-width:1.0;"/><line style="stroke:#181818;stroke-width:1.0;" x1="244" x2="642" y1="649.9531" y2="649.9531"/><text fill="#000000" font-family="sans-serif" font-size="13" font-weight="bold" lengthAdjust="spacing" textLength="18" x="251" y="644.8872">14</text><text fill="#000000" font-family="sans-serif" font-size="13" lengthAdjust="spacing" textLength="228" x="273" y="644.8872">Get selected document information</text><polygon fill="#181818" points="825,690.2188,835,694.2188,825,698.2188,829,694.2188" style="stroke:#181818;stroke-width:1.0;"/><line style="stroke:#181818;stroke-width:1.0;" x1="648" x2="831" y1="694.2188" y2="694.2188"/><text fill="#000000" font-family="sans-serif" font-size="13" font-weight="bold" lengthAdjust="spacing" textLength="18" x="655" y="681.5864">15</text><text fill="#000000" font-family="sans-serif" font-size="13" lengthAdjust="spacing" textLength="81" x="677" y="674.02">Get selected</text><text fill="#000000" font-family="sans-serif" font-size="13" lengthAdjust="spacing" textLength="143" x="677" y="689.1528">document information</text><polygon fill="#181818" points="659,719.3516,649,723.3516,659,727.3516,655,723.3516" style="stroke:#181818;stroke-width:1.0;"/><line style="stroke:#181818;stroke-width:1.0;stroke-dasharray:2.0,2.0;" x1="653" x2="836" y1="723.3516" y2="723.3516"/><text fill="#000000" font-family="sans-serif" font-size="13" font-weight="bold" lengthAdjust="spacing" textLength="18" x="665" y="718.2856">16</text><text fill="#000000" font-family="sans-serif" font-size="13" lengthAdjust="spacing" textLength="79" x="687" y="718.2856">Query result</text><polygon fill="#181818" points="453,748.4844,443,752.4844,453,756.4844,449,752.4844" style="stroke:#181818;stroke-width:1.0;"/><line style="stroke:#181818;stroke-width:1.0;stroke-dasharray:2.0,2.0;" x1="447" x2="647" y1="752.4844" y2="752.4844"/><text fill="#000000" font-family="sans-serif" font-size="13" font-weight="bold" lengthAdjust="spacing" textLength="18" x="459" y="747.4185">17</text><text fill="#000000" font-family="sans-serif" font-size="13" lengthAdjust="spacing" textLength="79" x="481" y="747.4185">Query result</text><line style="stroke:#181818;stroke-width:1.0;" x1="442" x2="484" y1="796.75" y2="796.75"/><line style="stroke:#181818;stroke-width:1.0;" x1="484" x2="484" y1="796.75" y2="809.75"/><line style="stroke:#181818;stroke-width:1.0;" x1="443" x2="484" y1="809.75" y2="809.75"/><polygon fill="#181818" points="453,805.75,443,809.75,453,813.75,449,809.75" style="stroke:#181818;stroke-width:1.0;"/><text fill="#000000" font-family="sans-serif" font-size="13" font-weight="bold" lengthAdjust="spacing" textLength="18" x="449" y="784.1177">18</text><text fill="#000000" font-family="sans-serif" font-size="13" lengthAdjust="spacing" textLength="170" x="471" y="776.5513">Display view with selected</text><text fill="#000000" font-family="sans-serif" font-size="13" lengthAdjust="spacing" textLength="143" x="471" y="791.6841">document information</text><!--SRC=[dLJ1Se8m4BtdAtPwxmzuw4MTJcTgRSUs9ou1LiaKDpPPfFnz4n4b8b3BWI7Pju-NzvB8WZKLsnYDo5IAiDQQO_qZX4nO6tYL1eb5h0jAfQdWRgQJOkkc8bf8aXlqtvyAopkG5ffYMBhQ_KHhRRQIbQPE-qLD99hOwFnKdzRZt6bs8yKLp9RJZyNyvLs8BWRk7qxr2JmYGwuiWrv3UiHQqTH3x5k1JdGgMRO07j7vnmIUkvnNbBIQGu-6248a373CbDtbiZeiCAA0JEyObZjlgSm5kATETeXjJep60cS85gL9ieWIezoSag3eE0T-itY-SRLjkrP8wP51qUQaCo9rpXuCVXTeEQ3lotLLgsc889OMdGK46xL7WY-iIcrIMtEDfHs2UfPGumtQ8k-NE61lR___yWxtZhDNZ2UymXmJzWb7T7AkbEx56lR-wDsMgZzSzi29wJcALgH_EfuDGqjJG75JC2EXN5mrFSqNA1WYQ3Bnza6fE1jPpoy0]--></g></svg>