<?xml version="1.0" encoding="us-ascii" standalone="no"?><svg xmlns="http://www.w3.org/2000/svg" xmlns:xlink="http://www.w3.org/1999/xlink" contentStyleType="text/css" height="801px" preserveAspectRatio="none" style="width:915px;height:801px;background:#FFFFFF;" version="1.1" viewBox="0 0 915 801" width="915px" zoomAndPan="magnify"><defs/><g><rect fill="none" height="550.7344" style="stroke:#000000;stroke-width:1.5;" width="898.5" x="10" y="226.8281"/><rect fill="none" height="304" style="stroke:#000000;stroke-width:1.5;" width="761.5" x="137" y="466.5625"/><line style="stroke:#181818;stroke-width:0.5;stroke-dasharray:5.0,5.0;" x1="78" x2="78" y1="81.2969" y2="794.5625"/><line style="stroke:#181818;stroke-width:0.5;stroke-dasharray:5.0,5.0;" x1="232" x2="232" y1="81.2969" y2="794.5625"/><line style="stroke:#181818;stroke-width:0.5;stroke-dasharray:5.0,5.0;" x1="407" x2="407" y1="81.2969" y2="794.5625"/><line style="stroke:#181818;stroke-width:0.5;stroke-dasharray:5.0,5.0;" x1="618" x2="618" y1="81.2969" y2="794.5625"/><line style="stroke:#181818;stroke-width:0.5;stroke-dasharray:5.0,5.0;" x1="791" x2="791" y1="81.2969" y2="794.5625"/><text fill="#000000" font-family="sans-serif" font-size="14" lengthAdjust="spacing" textLength="111" x="20" y="77.9951">Parent / Doctor</text><ellipse cx="78.5" cy="13.5" fill="#E2E2F0" rx="8" ry="8" style="stroke:#181818;stroke-width:0.5;"/><path d="M78.5,21.5 L78.5,48.5 M65.5,29.5 L91.5,29.5 M78.5,48.5 L65.5,63.5 M78.5,48.5 L91.5,63.5 " fill="none" style="stroke:#181818;stroke-width:0.5;"/><text fill="#000000" font-family="sans-serif" font-size="14" lengthAdjust="spacing" textLength="164" x="147" y="77.9951">ChildManagementView</text><path d="M211.5,37 L211.5,61 M211.5,49 L228.5,49 " fill="none" style="stroke:#181818;stroke-width:0.5;"/><ellipse cx="240.5" cy="49" fill="#E2E2F0" rx="12" ry="12" style="stroke:#181818;stroke-width:0.5;"/><text fill="#000000" font-family="sans-serif" font-size="14" lengthAdjust="spacing" textLength="155" x="327" y="77.9951">ChildInformationView</text><path d="M387,37 L387,61 M387,49 L404,49 " fill="none" style="stroke:#181818;stroke-width:0.5;"/><ellipse cx="416" cy="49" fill="#E2E2F0" rx="12" ry="12" style="stroke:#181818;stroke-width:0.5;"/><text fill="#000000" font-family="sans-serif" font-size="14" lengthAdjust="spacing" textLength="109" x="561" y="77.9951">ChildController</text><ellipse cx="618.5" cy="49" fill="#E2E2F0" rx="12" ry="12" style="stroke:#181818;stroke-width:0.5;"/><polygon fill="#181818" points="614.5,37,620.5,32,618.5,37,620.5,42,614.5,37" style="stroke:#181818;stroke-width:1.0;"/><text fill="#000000" font-family="sans-serif" font-size="14" lengthAdjust="spacing" textLength="43" x="767" y="77.9951">CHILD</text><ellipse cx="791.5" cy="49" fill="#E2E2F0" rx="12" ry="12" style="stroke:#181818;stroke-width:0.5;"/><line style="stroke:#181818;stroke-width:0.5;" x1="779.5" x2="803.5" y1="63" y2="63"/><line style="stroke:#181818;stroke-width:1.0;" x1="407.5" x2="449.5" y1="127.5625" y2="127.5625"/><line style="stroke:#181818;stroke-width:1.0;" x1="449.5" x2="449.5" y1="127.5625" y2="140.5625"/><line style="stroke:#181818;stroke-width:1.0;" x1="408.5" x2="449.5" y1="140.5625" y2="140.5625"/><polygon fill="#181818" points="418.5,136.5625,408.5,140.5625,418.5,144.5625,414.5,140.5625" style="stroke:#181818;stroke-width:1.0;"/><text fill="#000000" font-family="sans-serif" font-size="13" font-weight="bold" lengthAdjust="spacing" textLength="9" x="414.5" y="114.9302">1</text><text fill="#000000" font-family="sans-serif" font-size="13" lengthAdjust="spacing" textLength="78" x="427.5" y="107.3638">Display with</text><text fill="#000000" font-family="sans-serif" font-size="13" lengthAdjust="spacing" textLength="120" x="427.5" y="122.4966">empty information</text><polygon fill="#181818" points="395.5,165.6953,405.5,169.6953,395.5,173.6953,399.5,169.6953" style="stroke:#181818;stroke-width:1.0;"/><line style="stroke:#181818;stroke-width:1.0;" x1="78.5" x2="401.5" y1="169.6953" y2="169.6953"/><text fill="#000000" font-family="sans-serif" font-size="13" font-weight="bold" lengthAdjust="spacing" textLength="9" x="85.5" y="164.6294">2</text><text fill="#000000" font-family="sans-serif" font-size="13" lengthAdjust="spacing" textLength="145" x="98.5" y="164.6294">Enter child information</text><line style="stroke:#181818;stroke-width:1.0;" x1="407.5" x2="449.5" y1="198.8281" y2="198.8281"/><line style="stroke:#181818;stroke-width:1.0;" x1="449.5" x2="449.5" y1="198.8281" y2="211.8281"/><line style="stroke:#181818;stroke-width:1.0;" x1="408.5" x2="449.5" y1="211.8281" y2="211.8281"/><polygon fill="#181818" points="418.5,207.8281,408.5,211.8281,418.5,215.8281,414.5,211.8281" style="stroke:#181818;stroke-width:1.0;"/><text fill="#000000" font-family="sans-serif" font-size="13" font-weight="bold" lengthAdjust="spacing" textLength="8" x="414.5" y="193.7622">3</text><text fill="#000000" font-family="sans-serif" font-size="13" lengthAdjust="spacing" textLength="85" x="426.5" y="193.7622">Validate data</text><path d="M10,226.8281 L76,226.8281 L76,233.9609 L66,243.9609 L10,243.9609 L10,226.8281 " fill="#EEEEEE" style="stroke:#000000;stroke-width:1.5;"/><rect fill="none" height="550.7344" style="stroke:#000000;stroke-width:1.5;" width="898.5" x="10" y="226.8281"/><text fill="#000000" font-family="sans-serif" font-size="13" font-weight="bold" lengthAdjust="spacing" textLength="21" x="25" y="239.895">alt</text><text fill="#000000" font-family="sans-serif" font-size="11" font-weight="bold" lengthAdjust="spacing" textLength="88" x="91" y="239.0386">[Invalid data]</text><polygon fill="#181818" points="89.5,261.0938,79.5,265.0938,89.5,269.0938,85.5,265.0938" style="stroke:#181818;stroke-width:1.0;"/><line style="stroke:#181818;stroke-width:1.0;stroke-dasharray:2.0,2.0;" x1="83.5" x2="406.5" y1="265.0938" y2="265.0938"/><text fill="#000000" font-family="sans-serif" font-size="13" font-weight="bold" lengthAdjust="spacing" textLength="9" x="95.5" y="260.0278">4</text><text fill="#000000" font-family="sans-serif" font-size="13" lengthAdjust="spacing" textLength="106" x="108.5" y="260.0278">Error notification</text><line style="stroke:#181818;stroke-width:1.0;" x1="407.5" x2="449.5" y1="294.2266" y2="294.2266"/><line style="stroke:#181818;stroke-width:1.0;" x1="449.5" x2="449.5" y1="294.2266" y2="307.2266"/><line style="stroke:#181818;stroke-width:1.0;" x1="408.5" x2="449.5" y1="307.2266" y2="307.2266"/><polygon fill="#181818" points="418.5,303.2266,408.5,307.2266,418.5,311.2266,414.5,307.2266" style="stroke:#181818;stroke-width:1.0;"/><text fill="#000000" font-family="sans-serif" font-size="13" font-weight="bold" lengthAdjust="spacing" textLength="9" x="414.5" y="289.1606">5</text><text fill="#000000" font-family="sans-serif" font-size="13" lengthAdjust="spacing" textLength="157" x="427.5" y="289.1606">Display error notification</text><line style="stroke:#000000;stroke-width:1.0;stroke-dasharray:2.0,2.0;" x1="10" x2="908.5" y1="316.2266" y2="316.2266"/><text fill="#000000" font-family="sans-serif" font-size="11" font-weight="bold" lengthAdjust="spacing" textLength="78" x="15" y="326.437">[Valid data]</text><polygon fill="#181818" points="395.5,347.1641,405.5,351.1641,395.5,355.1641,399.5,351.1641" style="stroke:#181818;stroke-width:1.0;"/><line style="stroke:#181818;stroke-width:1.0;" x1="78.5" x2="401.5" y1="351.1641" y2="351.1641"/><text fill="#000000" font-family="sans-serif" font-size="13" font-weight="bold" lengthAdjust="spacing" textLength="9" x="85.5" y="346.0981">6</text><text fill="#000000" font-family="sans-serif" font-size="13" lengthAdjust="spacing" textLength="191" x="98.5" y="346.0981">Click button "Save" to confirm</text><polygon fill="#181818" points="606.5,376.2969,616.5,380.2969,606.5,384.2969,610.5,380.2969" style="stroke:#181818;stroke-width:1.0;"/><line style="stroke:#181818;stroke-width:1.0;" x1="407.5" x2="612.5" y1="380.2969" y2="380.2969"/><text fill="#000000" font-family="sans-serif" font-size="13" font-weight="bold" lengthAdjust="spacing" textLength="9" x="414.5" y="375.231">7</text><text fill="#000000" font-family="sans-serif" font-size="13" lengthAdjust="spacing" textLength="174" x="427.5" y="375.231">Send creating child request</text><polygon fill="#181818" points="779.5,405.4297,789.5,409.4297,779.5,413.4297,783.5,409.4297" style="stroke:#181818;stroke-width:1.0;"/><line style="stroke:#181818;stroke-width:1.0;" x1="618.5" x2="785.5" y1="409.4297" y2="409.4297"/><text fill="#000000" font-family="sans-serif" font-size="13" font-weight="bold" lengthAdjust="spacing" textLength="9" x="625.5" y="404.3638">8</text><text fill="#000000" font-family="sans-serif" font-size="13" lengthAdjust="spacing" textLength="110" x="638.5" y="404.3638">Send information</text><line style="stroke:#181818;stroke-width:1.0;" x1="791.5" x2="833.5" y1="438.5625" y2="438.5625"/><line style="stroke:#181818;stroke-width:1.0;" x1="833.5" x2="833.5" y1="438.5625" y2="451.5625"/><line style="stroke:#181818;stroke-width:1.0;" x1="792.5" x2="833.5" y1="451.5625" y2="451.5625"/><polygon fill="#181818" points="802.5,447.5625,792.5,451.5625,802.5,455.5625,798.5,451.5625" style="stroke:#181818;stroke-width:1.0;"/><text fill="#000000" font-family="sans-serif" font-size="13" font-weight="bold" lengthAdjust="spacing" textLength="9" x="798.5" y="433.4966">9</text><text fill="#000000" font-family="sans-serif" font-size="13" lengthAdjust="spacing" textLength="85" x="811.5" y="433.4966">Validate data</text><path d="M137,466.5625 L203,466.5625 L203,473.6953 L193,483.6953 L137,483.6953 L137,466.5625 " fill="#EEEEEE" style="stroke:#000000;stroke-width:1.5;"/><rect fill="none" height="304" style="stroke:#000000;stroke-width:1.5;" width="761.5" x="137" y="466.5625"/><text fill="#000000" font-family="sans-serif" font-size="13" font-weight="bold" lengthAdjust="spacing" textLength="21" x="152" y="479.6294">alt</text><text fill="#000000" font-family="sans-serif" font-size="11" font-weight="bold" lengthAdjust="spacing" textLength="88" x="218" y="478.7729">[Invalid data]</text><polygon fill="#181818" points="629.5,500.8281,619.5,504.8281,629.5,508.8281,625.5,504.8281" style="stroke:#181818;stroke-width:1.0;"/><line style="stroke:#181818;stroke-width:1.0;stroke-dasharray:2.0,2.0;" x1="623.5" x2="790.5" y1="504.8281" y2="504.8281"/><text fill="#000000" font-family="sans-serif" font-size="13" font-weight="bold" lengthAdjust="spacing" textLength="19" x="635.5" y="499.7622">10</text><text fill="#000000" font-family="sans-serif" font-size="13" lengthAdjust="spacing" textLength="106" x="658.5" y="499.7622">Error notification</text><polygon fill="#181818" points="418.5,529.9609,408.5,533.9609,418.5,537.9609,414.5,533.9609" style="stroke:#181818;stroke-width:1.0;"/><line style="stroke:#181818;stroke-width:1.0;stroke-dasharray:2.0,2.0;" x1="412.5" x2="617.5" y1="533.9609" y2="533.9609"/><text fill="#000000" font-family="sans-serif" font-size="13" font-weight="bold" lengthAdjust="spacing" textLength="18" x="424.5" y="528.895">11</text><text fill="#000000" font-family="sans-serif" font-size="13" lengthAdjust="spacing" textLength="106" x="446.5" y="528.895">Error notification</text><line style="stroke:#181818;stroke-width:1.0;" x1="407.5" x2="449.5" y1="563.0938" y2="563.0938"/><line style="stroke:#181818;stroke-width:1.0;" x1="449.5" x2="449.5" y1="563.0938" y2="576.0938"/><line style="stroke:#181818;stroke-width:1.0;" x1="408.5" x2="449.5" y1="576.0938" y2="576.0938"/><polygon fill="#181818" points="418.5,572.0938,408.5,576.0938,418.5,580.0938,414.5,576.0938" style="stroke:#181818;stroke-width:1.0;"/><text fill="#000000" font-family="sans-serif" font-size="13" font-weight="bold" lengthAdjust="spacing" textLength="18" x="414.5" y="558.0278">12</text><text fill="#000000" font-family="sans-serif" font-size="13" lengthAdjust="spacing" textLength="157" x="436.5" y="558.0278">Display error notification</text><line style="stroke:#000000;stroke-width:1.0;stroke-dasharray:2.0,2.0;" x1="137" x2="898.5" y1="585.0938" y2="585.0938"/><text fill="#000000" font-family="sans-serif" font-size="11" font-weight="bold" lengthAdjust="spacing" textLength="78" x="142" y="595.3042">[Valid data]</text><line style="stroke:#181818;stroke-width:1.0;" x1="791.5" x2="833.5" y1="620.0313" y2="620.0313"/><line style="stroke:#181818;stroke-width:1.0;" x1="833.5" x2="833.5" y1="620.0313" y2="633.0313"/><line style="stroke:#181818;stroke-width:1.0;" x1="792.5" x2="833.5" y1="633.0313" y2="633.0313"/><polygon fill="#181818" points="802.5,629.0313,792.5,633.0313,802.5,637.0313,798.5,633.0313" style="stroke:#181818;stroke-width:1.0;"/><text fill="#000000" font-family="sans-serif" font-size="13" font-weight="bold" lengthAdjust="spacing" textLength="17" x="798.5" y="614.9653">13</text><text fill="#000000" font-family="sans-serif" font-size="13" lengthAdjust="spacing" textLength="67" x="819.5" y="614.9653">Store data</text><polygon fill="#181818" points="629.5,658.1641,619.5,662.1641,629.5,666.1641,625.5,662.1641" style="stroke:#181818;stroke-width:1.0;"/><line style="stroke:#181818;stroke-width:1.0;stroke-dasharray:2.0,2.0;" x1="623.5" x2="790.5" y1="662.1641" y2="662.1641"/><text fill="#000000" font-family="sans-serif" font-size="13" font-weight="bold" lengthAdjust="spacing" textLength="18" x="635.5" y="657.0981">14</text><text fill="#000000" font-family="sans-serif" font-size="13" lengthAdjust="spacing" textLength="127" x="657.5" y="657.0981">Success notification</text><polygon fill="#181818" points="418.5,687.2969,408.5,691.2969,418.5,695.2969,414.5,691.2969" style="stroke:#181818;stroke-width:1.0;"/><line style="stroke:#181818;stroke-width:1.0;stroke-dasharray:2.0,2.0;" x1="412.5" x2="617.5" y1="691.2969" y2="691.2969"/><text fill="#000000" font-family="sans-serif" font-size="13" font-weight="bold" lengthAdjust="spacing" textLength="18" x="424.5" y="686.231">15</text><text fill="#000000" font-family="sans-serif" font-size="13" lengthAdjust="spacing" textLength="127" x="446.5" y="686.231">Success notification</text><line style="stroke:#181818;stroke-width:1.0;" x1="407.5" x2="449.5" y1="720.4297" y2="720.4297"/><line style="stroke:#181818;stroke-width:1.0;" x1="449.5" x2="449.5" y1="720.4297" y2="733.4297"/><line style="stroke:#181818;stroke-width:1.0;" x1="408.5" x2="449.5" y1="733.4297" y2="733.4297"/><polygon fill="#181818" points="418.5,729.4297,408.5,733.4297,418.5,737.4297,414.5,733.4297" style="stroke:#181818;stroke-width:1.0;"/><text fill="#000000" font-family="sans-serif" font-size="13" font-weight="bold" lengthAdjust="spacing" textLength="18" x="414.5" y="715.3638">16</text><text fill="#000000" font-family="sans-serif" font-size="13" lengthAdjust="spacing" textLength="69" x="436.5" y="715.3638">Close view</text><polygon fill="#181818" points="243,758.5625,233,762.5625,243,766.5625,239,762.5625" style="stroke:#181818;stroke-width:1.0;"/><line style="stroke:#181818;stroke-width:1.0;" x1="237" x2="617.5" y1="762.5625" y2="762.5625"/><text fill="#000000" font-family="sans-serif" font-size="13" font-weight="bold" lengthAdjust="spacing" textLength="18" x="249" y="757.4966">17</text><text fill="#000000" font-family="sans-serif" font-size="13" lengthAdjust="spacing" textLength="298" x="271" y="757.4966">Display success notification and list of children</text><!--SRC=[hLInQiCm4Dtr5OVtqZr35gVGG0i5GwOkidoEHMKfbSv9y_SzHG6xhOnJMWy6tzrxFBrtbXp8sQ6lqOjEDmYjSrIx3o6a8kUXU94UBS4zR5mi5203f5egYDeDjf7-36MdJVCihTnZp-sTnjEtvjQsplUIjBENhdAMl3EfMQOFmq8OhOanZzkdZH0vADojivGhsEXmCF8C9qqTl5hi3yoanoan5JzFys09FQZOcw81VYbd9urk927mImff2BRs66kf0Fpa2PbngfGLUS-2hIFTQfMECezUSWT_ag49cEIEqcxpgZHQlK4z46yI59KyOW7aWDDjjU-NLOx9hw12su3oo5DsV_NVu_k0WKQY4N3XY6joHKw3lep7tcJeQnnn8Xl919eJEHD5Lj_yXYsG_4UcaIoNQywQYZF6cose1gKmXB-Qi4npimsbSNpGOxnNPdMiSvVKw638g079QsLq871jsaV-9PAnjk6Rgla4]--></g></svg>