<?xml version="1.0" encoding="us-ascii" standalone="no"?><svg xmlns="http://www.w3.org/2000/svg" xmlns:xlink="http://www.w3.org/1999/xlink" contentStyleType="text/css" height="804px" preserveAspectRatio="none" style="width:806px;height:804px;background:#FFFFFF;" version="1.1" viewBox="0 0 806 804" width="806px" zoomAndPan="magnify"><defs/><g><rect fill="none" height="551.8672" style="stroke:#000000;stroke-width:1.5;" width="789.5" x="10" y="228.7969"/><rect fill="none" height="290" style="stroke:#000000;stroke-width:1.5;" width="629" x="160.5" y="483.6641"/><line style="stroke:#181818;stroke-width:0.5;stroke-dasharray:5.0,5.0;" x1="78" x2="78" y1="81.2969" y2="797.6641"/><line style="stroke:#181818;stroke-width:0.5;stroke-dasharray:5.0,5.0;" x1="255.5" x2="255.5" y1="81.2969" y2="797.6641"/><line style="stroke:#181818;stroke-width:0.5;stroke-dasharray:5.0,5.0;" x1="501" x2="501" y1="81.2969" y2="797.6641"/><line style="stroke:#181818;stroke-width:0.5;stroke-dasharray:5.0,5.0;" x1="673" x2="673" y1="81.2969" y2="797.6641"/><text fill="#000000" font-family="sans-serif" font-size="14" lengthAdjust="spacing" textLength="111" x="20" y="77.9951">Parent / Doctor</text><ellipse cx="78.5" cy="13.5" fill="#E2E2F0" rx="8" ry="8" style="stroke:#181818;stroke-width:0.5;"/><path d="M78.5,21.5 L78.5,48.5 M65.5,29.5 L91.5,29.5 M78.5,48.5 L65.5,63.5 M78.5,48.5 L91.5,63.5 " fill="none" style="stroke:#181818;stroke-width:0.5;"/><text fill="#000000" font-family="sans-serif" font-size="14" lengthAdjust="spacing" textLength="164" x="170.5" y="77.9951">ChildManagementView</text><path d="M235,37 L235,61 M235,49 L252,49 " fill="none" style="stroke:#181818;stroke-width:0.5;"/><ellipse cx="264" cy="49" fill="#E2E2F0" rx="12" ry="12" style="stroke:#181818;stroke-width:0.5;"/><text fill="#000000" font-family="sans-serif" font-size="14" lengthAdjust="spacing" textLength="109" x="444" y="77.9951">ChildController</text><ellipse cx="501.5" cy="49" fill="#E2E2F0" rx="12" ry="12" style="stroke:#181818;stroke-width:0.5;"/><polygon fill="#181818" points="497.5,37,503.5,32,501.5,37,503.5,42,497.5,37" style="stroke:#181818;stroke-width:1.0;"/><text fill="#000000" font-family="sans-serif" font-size="14" lengthAdjust="spacing" textLength="43" x="649" y="77.9951">CHILD</text><ellipse cx="673.5" cy="49" fill="#E2E2F0" rx="12" ry="12" style="stroke:#181818;stroke-width:0.5;"/><line style="stroke:#181818;stroke-width:0.5;" x1="661.5" x2="685.5" y1="63" y2="63"/><rect fill="none" height="39.1016" style="stroke:#000000;stroke-width:1.5;" width="684" x="17" y="91.2969"/><path d="M17,91.2969 L85,91.2969 L85,98.2969 L75,108.2969 L17,108.2969 L17,91.2969 " fill="#EEEEEE" style="stroke:#000000;stroke-width:2.0;"/><text fill="#000000" font-family="sans-serif" font-size="13" font-weight="bold" lengthAdjust="spacing" textLength="23" x="30" y="105.3638">ref</text><text fill="#000000" font-family="sans-serif" font-size="12" lengthAdjust="spacing" textLength="140" x="289" y="123.4355">Sequence Search Child</text><polygon fill="#181818" points="243.5,167.6641,253.5,171.6641,243.5,175.6641,247.5,171.6641" style="stroke:#181818;stroke-width:1.0;"/><line style="stroke:#181818;stroke-width:1.0;" x1="78.5" x2="249.5" y1="171.6641" y2="171.6641"/><text fill="#000000" font-family="sans-serif" font-size="13" font-weight="bold" lengthAdjust="spacing" textLength="9" x="85.5" y="159.0317">1</text><text fill="#000000" font-family="sans-serif" font-size="13" lengthAdjust="spacing" textLength="72" x="98.5" y="151.4653">Select child</text><text fill="#000000" font-family="sans-serif" font-size="13" lengthAdjust="spacing" textLength="94" x="98.5" y="166.5981">needs deleting</text><line style="stroke:#181818;stroke-width:1.0;" x1="255.5" x2="297.5" y1="200.7969" y2="200.7969"/><line style="stroke:#181818;stroke-width:1.0;" x1="297.5" x2="297.5" y1="200.7969" y2="213.7969"/><line style="stroke:#181818;stroke-width:1.0;" x1="256.5" x2="297.5" y1="213.7969" y2="213.7969"/><polygon fill="#181818" points="266.5,209.7969,256.5,213.7969,266.5,217.7969,262.5,213.7969" style="stroke:#181818;stroke-width:1.0;"/><text fill="#000000" font-family="sans-serif" font-size="13" font-weight="bold" lengthAdjust="spacing" textLength="9" x="262.5" y="195.731">2</text><text fill="#000000" font-family="sans-serif" font-size="13" lengthAdjust="spacing" textLength="219" x="275.5" y="195.731">Display confirmation messagebox</text><path d="M10,228.7969 L76,228.7969 L76,235.9297 L66,245.9297 L10,245.9297 L10,228.7969 " fill="#EEEEEE" style="stroke:#000000;stroke-width:1.5;"/><rect fill="none" height="551.8672" style="stroke:#000000;stroke-width:1.5;" width="789.5" x="10" y="228.7969"/><text fill="#000000" font-family="sans-serif" font-size="13" font-weight="bold" lengthAdjust="spacing" textLength="21" x="25" y="241.8638">alt</text><text fill="#000000" font-family="sans-serif" font-size="11" font-weight="bold" lengthAdjust="spacing" textLength="54" x="91" y="241.0073">[Cancel]</text><polygon fill="#181818" points="243.5,263.0625,253.5,267.0625,243.5,271.0625,247.5,267.0625" style="stroke:#181818;stroke-width:1.0;"/><line style="stroke:#181818;stroke-width:1.0;" x1="78.5" x2="249.5" y1="267.0625" y2="267.0625"/><text fill="#000000" font-family="sans-serif" font-size="13" font-weight="bold" lengthAdjust="spacing" textLength="8" x="85.5" y="261.9966">3</text><text fill="#000000" font-family="sans-serif" font-size="13" lengthAdjust="spacing" textLength="132" x="97.5" y="261.9966">Click "Cancel" button</text><line style="stroke:#181818;stroke-width:1.0;" x1="255.5" x2="297.5" y1="296.1953" y2="296.1953"/><line style="stroke:#181818;stroke-width:1.0;" x1="297.5" x2="297.5" y1="296.1953" y2="309.1953"/><line style="stroke:#181818;stroke-width:1.0;" x1="256.5" x2="297.5" y1="309.1953" y2="309.1953"/><polygon fill="#181818" points="266.5,305.1953,256.5,309.1953,266.5,313.1953,262.5,309.1953" style="stroke:#181818;stroke-width:1.0;"/><text fill="#000000" font-family="sans-serif" font-size="13" font-weight="bold" lengthAdjust="spacing" textLength="9" x="262.5" y="291.1294">4</text><text fill="#000000" font-family="sans-serif" font-size="13" lengthAdjust="spacing" textLength="211" x="275.5" y="291.1294">Close confirmation message box</text><line style="stroke:#000000;stroke-width:1.0;stroke-dasharray:2.0,2.0;" x1="10" x2="799.5" y1="318.1953" y2="318.1953"/><text fill="#000000" font-family="sans-serif" font-size="11" font-weight="bold" lengthAdjust="spacing" textLength="65" x="15" y="328.4058">[Confirm]</text><polygon fill="#181818" points="243.5,349.1328,253.5,353.1328,243.5,357.1328,247.5,353.1328" style="stroke:#181818;stroke-width:1.0;"/><line style="stroke:#181818;stroke-width:1.0;" x1="78.5" x2="249.5" y1="353.1328" y2="353.1328"/><text fill="#000000" font-family="sans-serif" font-size="13" font-weight="bold" lengthAdjust="spacing" textLength="9" x="85.5" y="348.0669">5</text><text fill="#000000" font-family="sans-serif" font-size="13" lengthAdjust="spacing" textLength="140" x="98.5" y="348.0669">Click "Confirm" button</text><polygon fill="#181818" points="489.5,393.3984,499.5,397.3984,489.5,401.3984,493.5,397.3984" style="stroke:#181818;stroke-width:1.0;"/><line style="stroke:#181818;stroke-width:1.0;" x1="255.5" x2="495.5" y1="397.3984" y2="397.3984"/><text fill="#000000" font-family="sans-serif" font-size="13" font-weight="bold" lengthAdjust="spacing" textLength="9" x="262.5" y="384.7661">6</text><text fill="#000000" font-family="sans-serif" font-size="13" lengthAdjust="spacing" textLength="87" x="275.5" y="377.1997">Send deleting</text><text fill="#000000" font-family="sans-serif" font-size="13" lengthAdjust="spacing" textLength="140" x="275.5" y="392.3325">selected child request</text><polygon fill="#181818" points="661.5,422.5313,671.5,426.5313,661.5,430.5313,665.5,426.5313" style="stroke:#181818;stroke-width:1.0;"/><line style="stroke:#181818;stroke-width:1.0;" x1="501.5" x2="667.5" y1="426.5313" y2="426.5313"/><text fill="#000000" font-family="sans-serif" font-size="13" font-weight="bold" lengthAdjust="spacing" textLength="9" x="508.5" y="421.4653">7</text><text fill="#000000" font-family="sans-serif" font-size="13" lengthAdjust="spacing" textLength="133" x="521.5" y="421.4653">Delete selected child</text><line style="stroke:#181818;stroke-width:1.0;" x1="673.5" x2="715.5" y1="455.6641" y2="455.6641"/><line style="stroke:#181818;stroke-width:1.0;" x1="715.5" x2="715.5" y1="455.6641" y2="468.6641"/><line style="stroke:#181818;stroke-width:1.0;" x1="674.5" x2="715.5" y1="468.6641" y2="468.6641"/><polygon fill="#181818" points="684.5,464.6641,674.5,468.6641,684.5,472.6641,680.5,468.6641" style="stroke:#181818;stroke-width:1.0;"/><text fill="#000000" font-family="sans-serif" font-size="13" font-weight="bold" lengthAdjust="spacing" textLength="9" x="680.5" y="450.5981">8</text><text fill="#000000" font-family="sans-serif" font-size="13" lengthAdjust="spacing" textLength="85" x="693.5" y="450.5981">Validate data</text><path d="M160.5,483.6641 L226.5,483.6641 L226.5,490.7969 L216.5,500.7969 L160.5,500.7969 L160.5,483.6641 " fill="#EEEEEE" style="stroke:#000000;stroke-width:1.5;"/><rect fill="none" height="290" style="stroke:#000000;stroke-width:1.5;" width="629" x="160.5" y="483.6641"/><text fill="#000000" font-family="sans-serif" font-size="13" font-weight="bold" lengthAdjust="spacing" textLength="21" x="175.5" y="496.731">alt</text><text fill="#000000" font-family="sans-serif" font-size="11" font-weight="bold" lengthAdjust="spacing" textLength="88" x="241.5" y="495.8745">[Invalid data]</text><polygon fill="#181818" points="512.5,517.9297,502.5,521.9297,512.5,525.9297,508.5,521.9297" style="stroke:#181818;stroke-width:1.0;"/><line style="stroke:#181818;stroke-width:1.0;stroke-dasharray:2.0,2.0;" x1="506.5" x2="672.5" y1="521.9297" y2="521.9297"/><text fill="#000000" font-family="sans-serif" font-size="13" font-weight="bold" lengthAdjust="spacing" textLength="9" x="518.5" y="516.8638">9</text><text fill="#000000" font-family="sans-serif" font-size="13" lengthAdjust="spacing" textLength="106" x="531.5" y="516.8638">Error notification</text><polygon fill="#181818" points="266.5,547.0625,256.5,551.0625,266.5,555.0625,262.5,551.0625" style="stroke:#181818;stroke-width:1.0;"/><line style="stroke:#181818;stroke-width:1.0;stroke-dasharray:2.0,2.0;" x1="260.5" x2="500.5" y1="551.0625" y2="551.0625"/><text fill="#000000" font-family="sans-serif" font-size="13" font-weight="bold" lengthAdjust="spacing" textLength="19" x="272.5" y="545.9966">10</text><text fill="#000000" font-family="sans-serif" font-size="13" lengthAdjust="spacing" textLength="106" x="295.5" y="545.9966">Error notification</text><line style="stroke:#181818;stroke-width:1.0;" x1="255.5" x2="297.5" y1="580.1953" y2="580.1953"/><line style="stroke:#181818;stroke-width:1.0;" x1="297.5" x2="297.5" y1="580.1953" y2="593.1953"/><line style="stroke:#181818;stroke-width:1.0;" x1="256.5" x2="297.5" y1="593.1953" y2="593.1953"/><polygon fill="#181818" points="266.5,589.1953,256.5,593.1953,266.5,597.1953,262.5,593.1953" style="stroke:#181818;stroke-width:1.0;"/><text fill="#000000" font-family="sans-serif" font-size="13" font-weight="bold" lengthAdjust="spacing" textLength="18" x="262.5" y="575.1294">11</text><text fill="#000000" font-family="sans-serif" font-size="13" lengthAdjust="spacing" textLength="157" x="284.5" y="575.1294">Display error notification</text><line style="stroke:#000000;stroke-width:1.0;stroke-dasharray:2.0,2.0;" x1="160.5" x2="789.5" y1="602.1953" y2="602.1953"/><text fill="#000000" font-family="sans-serif" font-size="11" font-weight="bold" lengthAdjust="spacing" textLength="78" x="165.5" y="612.4058">[Valid data]</text><line style="stroke:#181818;stroke-width:1.0;" x1="673.5" x2="715.5" y1="637.1328" y2="637.1328"/><line style="stroke:#181818;stroke-width:1.0;" x1="715.5" x2="715.5" y1="637.1328" y2="650.1328"/><line style="stroke:#181818;stroke-width:1.0;" x1="674.5" x2="715.5" y1="650.1328" y2="650.1328"/><polygon fill="#181818" points="684.5,646.1328,674.5,650.1328,684.5,654.1328,680.5,650.1328" style="stroke:#181818;stroke-width:1.0;"/><text fill="#000000" font-family="sans-serif" font-size="13" font-weight="bold" lengthAdjust="spacing" textLength="18" x="680.5" y="632.0669">12</text><text fill="#000000" font-family="sans-serif" font-size="13" lengthAdjust="spacing" textLength="75" x="702.5" y="632.0669">Delete data</text><polygon fill="#181818" points="512.5,675.2656,502.5,679.2656,512.5,683.2656,508.5,679.2656" style="stroke:#181818;stroke-width:1.0;"/><line style="stroke:#181818;stroke-width:1.0;stroke-dasharray:2.0,2.0;" x1="506.5" x2="672.5" y1="679.2656" y2="679.2656"/><text fill="#000000" font-family="sans-serif" font-size="13" font-weight="bold" lengthAdjust="spacing" textLength="17" x="518.5" y="674.1997">13</text><text fill="#000000" font-family="sans-serif" font-size="13" lengthAdjust="spacing" textLength="127" x="539.5" y="674.1997">Success notification</text><polygon fill="#181818" points="266.5,704.3984,256.5,708.3984,266.5,712.3984,262.5,708.3984" style="stroke:#181818;stroke-width:1.0;"/><line style="stroke:#181818;stroke-width:1.0;stroke-dasharray:2.0,2.0;" x1="260.5" x2="500.5" y1="708.3984" y2="708.3984"/><text fill="#000000" font-family="sans-serif" font-size="13" font-weight="bold" lengthAdjust="spacing" textLength="18" x="272.5" y="703.3325">14</text><text fill="#000000" font-family="sans-serif" font-size="13" lengthAdjust="spacing" textLength="106" x="294.5" y="703.3325">Error notification</text><line style="stroke:#181818;stroke-width:1.0;" x1="255.5" x2="297.5" y1="752.6641" y2="752.6641"/><line style="stroke:#181818;stroke-width:1.0;" x1="297.5" x2="297.5" y1="752.6641" y2="765.6641"/><line style="stroke:#181818;stroke-width:1.0;" x1="256.5" x2="297.5" y1="765.6641" y2="765.6641"/><polygon fill="#181818" points="266.5,761.6641,256.5,765.6641,266.5,769.6641,262.5,765.6641" style="stroke:#181818;stroke-width:1.0;"/><text fill="#000000" font-family="sans-serif" font-size="13" font-weight="bold" lengthAdjust="spacing" textLength="18" x="262.5" y="740.0317">15</text><text fill="#000000" font-family="sans-serif" font-size="13" lengthAdjust="spacing" textLength="177" x="284.5" y="732.4653">Display success notification</text><text fill="#000000" font-family="sans-serif" font-size="13" lengthAdjust="spacing" textLength="117" x="284.5" y="747.5981">and list of children</text><!--SRC=[pLInQiCm4Dtr5OVdbEuTkjY51bee139bEKldH5G-jPASDd_VamLr4XoQRFLWxBjxpq_l7SOXUHxwbeBQMKFGUPzQ_wqKwkG3L6yOY1FSG-DpeGACK6gbe5e_iC5mW7fddNb5nYtrqbvR-bBQSmhUbLvTNfnyIles2UHv-T8e5QW3lwTmGhoO8roSCoqAnmEiw7CWrYGF6FIkpAbZGhXxdAFCK4SwWSwz3JEHYM2abYnlrGpY8b5ZuuV30yYfEnjwJDOpz1IZJ6LFqIMeKKGw00LoNIMlTbQ_GrM05RH3aiH6-2tQQkSZpIg3B8sSTElIlLrQmLsjROelcy_cr-qDnp4BCYKD23dLc2R62JgobUoR32SunHPC7ZYQNAEp1cLMRZXEv4oMlC_rgNW4dTFy58AOmZxPpkhHombrBlAITNzntBXoD4ytnhg-UBXp1wyrO3LeBSlploo8Cw8sZB9UpiO4lYjx8MjTh64Zlo7p0m00]--></g></svg>