<?xml version="1.0" encoding="us-ascii" standalone="no"?><svg xmlns="http://www.w3.org/2000/svg" xmlns:xlink="http://www.w3.org/1999/xlink" contentStyleType="text/css" height="643px" preserveAspectRatio="none" style="width:592px;height:643px;background:#FFFFFF;" version="1.1" viewBox="0 0 592 643" width="592px" zoomAndPan="magnify"><defs/><g><rect fill="none" height="61.2344" style="stroke:#000000;stroke-width:1.5;" width="576.5" x="10" y="256.9609"/><rect fill="none" height="61.2344" style="stroke:#000000;stroke-width:1.5;" width="576.5" x="10" y="332.1953"/><rect fill="none" height="61.2344" style="stroke:#000000;stroke-width:1.5;" width="576.5" x="10" y="407.4297"/><rect fill="none" height="61.2344" style="stroke:#000000;stroke-width:1.5;" width="576.5" x="10" y="482.6641"/><rect fill="none" height="61.2344" style="stroke:#000000;stroke-width:1.5;" width="576.5" x="10" y="557.8984"/><line style="stroke:#181818;stroke-width:0.5;stroke-dasharray:5.0,5.0;" x1="78" x2="78" y1="81.2969" y2="636.1328"/><line style="stroke:#181818;stroke-width:0.5;stroke-dasharray:5.0,5.0;" x1="232" x2="232" y1="81.2969" y2="636.1328"/><line style="stroke:#181818;stroke-width:0.5;stroke-dasharray:5.0,5.0;" x1="398.5" x2="398.5" y1="81.2969" y2="636.1328"/><line style="stroke:#181818;stroke-width:0.5;stroke-dasharray:5.0,5.0;" x1="551.5" x2="551.5" y1="81.2969" y2="636.1328"/><text fill="#000000" font-family="sans-serif" font-size="14" lengthAdjust="spacing" textLength="111" x="20" y="77.9951">Parent / Doctor</text><ellipse cx="78.5" cy="13.5" fill="#E2E2F0" rx="8" ry="8" style="stroke:#181818;stroke-width:0.5;"/><path d="M78.5,21.5 L78.5,48.5 M65.5,29.5 L91.5,29.5 M78.5,48.5 L65.5,63.5 M78.5,48.5 L91.5,63.5 " fill="none" style="stroke:#181818;stroke-width:0.5;"/><text fill="#000000" font-family="sans-serif" font-size="14" lengthAdjust="spacing" textLength="164" x="147" y="77.9951">ChildManagementView</text><path d="M211.5,37 L211.5,61 M211.5,49 L228.5,49 " fill="none" style="stroke:#181818;stroke-width:0.5;"/><ellipse cx="240.5" cy="49" fill="#E2E2F0" rx="12" ry="12" style="stroke:#181818;stroke-width:0.5;"/><text fill="#000000" font-family="sans-serif" font-size="14" lengthAdjust="spacing" textLength="109" x="341.5" y="77.9951">ChildController</text><ellipse cx="399" cy="49" fill="#E2E2F0" rx="12" ry="12" style="stroke:#181818;stroke-width:0.5;"/><polygon fill="#181818" points="395,37,401,32,399,37,401,42,395,37" style="stroke:#181818;stroke-width:1.0;"/><text fill="#000000" font-family="sans-serif" font-size="14" lengthAdjust="spacing" textLength="43" x="527.5" y="77.9951">CHILD</text><ellipse cx="552" cy="49" fill="#E2E2F0" rx="12" ry="12" style="stroke:#181818;stroke-width:0.5;"/><line style="stroke:#181818;stroke-width:0.5;" x1="540" x2="564" y1="63" y2="63"/><polygon fill="#181818" points="540,108.4297,550,112.4297,540,116.4297,544,112.4297" style="stroke:#181818;stroke-width:1.0;"/><line style="stroke:#181818;stroke-width:1.0;" x1="399" x2="546" y1="112.4297" y2="112.4297"/><text fill="#000000" font-family="sans-serif" font-size="13" font-weight="bold" lengthAdjust="spacing" textLength="9" x="406" y="107.3638">1</text><text fill="#000000" font-family="sans-serif" font-size="13" lengthAdjust="spacing" textLength="116" x="419" y="107.3638">Get list of children</text><polygon fill="#181818" points="410,137.5625,400,141.5625,410,145.5625,406,141.5625" style="stroke:#181818;stroke-width:1.0;"/><line style="stroke:#181818;stroke-width:1.0;stroke-dasharray:2.0,2.0;" x1="404" x2="551" y1="141.5625" y2="141.5625"/><text fill="#000000" font-family="sans-serif" font-size="13" font-weight="bold" lengthAdjust="spacing" textLength="9" x="416" y="136.4966">2</text><text fill="#000000" font-family="sans-serif" font-size="13" lengthAdjust="spacing" textLength="93" x="429" y="136.4966">List of children</text><polygon fill="#181818" points="243,166.6953,233,170.6953,243,174.6953,239,170.6953" style="stroke:#181818;stroke-width:1.0;"/><line style="stroke:#181818;stroke-width:1.0;stroke-dasharray:2.0,2.0;" x1="237" x2="398" y1="170.6953" y2="170.6953"/><text fill="#000000" font-family="sans-serif" font-size="13" font-weight="bold" lengthAdjust="spacing" textLength="8" x="249" y="165.6294">3</text><text fill="#000000" font-family="sans-serif" font-size="13" lengthAdjust="spacing" textLength="93" x="261" y="165.6294">List of children</text><line style="stroke:#181818;stroke-width:1.0;" x1="232" x2="274" y1="199.8281" y2="199.8281"/><line style="stroke:#181818;stroke-width:1.0;" x1="274" x2="274" y1="199.8281" y2="212.8281"/><line style="stroke:#181818;stroke-width:1.0;" x1="233" x2="274" y1="212.8281" y2="212.8281"/><polygon fill="#181818" points="243,208.8281,233,212.8281,243,216.8281,239,212.8281" style="stroke:#181818;stroke-width:1.0;"/><text fill="#000000" font-family="sans-serif" font-size="13" font-weight="bold" lengthAdjust="spacing" textLength="9" x="239" y="194.7622">4</text><text fill="#000000" font-family="sans-serif" font-size="13" lengthAdjust="spacing" textLength="140" x="252" y="194.7622">Display list of children</text><polygon fill="#181818" points="220,237.9609,230,241.9609,220,245.9609,224,241.9609" style="stroke:#181818;stroke-width:1.0;"/><line style="stroke:#181818;stroke-width:1.0;" x1="78.5" x2="226" y1="241.9609" y2="241.9609"/><text fill="#000000" font-family="sans-serif" font-size="13" font-weight="bold" lengthAdjust="spacing" textLength="9" x="85.5" y="236.895">5</text><text fill="#000000" font-family="sans-serif" font-size="13" lengthAdjust="spacing" textLength="104" x="98.5" y="236.895">Choose function</text><path d="M10,256.9609 L82,256.9609 L82,264.0938 L72,274.0938 L10,274.0938 L10,256.9609 " fill="#EEEEEE" style="stroke:#000000;stroke-width:1.5;"/><rect fill="none" height="61.2344" style="stroke:#000000;stroke-width:1.5;" width="576.5" x="10" y="256.9609"/><text fill="#000000" font-family="sans-serif" font-size="13" font-weight="bold" lengthAdjust="spacing" textLength="27" x="25" y="270.0278">opt</text><text fill="#000000" font-family="sans-serif" font-size="11" font-weight="bold" lengthAdjust="spacing" textLength="56" x="97" y="269.1714">[Create]</text><rect fill="none" height="39.1016" style="stroke:#000000;stroke-width:1.5;" width="562.5" x="17" y="274.0938"/><path d="M17,274.0938 L85,274.0938 L85,281.0938 L75,291.0938 L17,291.0938 L17,274.0938 " fill="#EEEEEE" style="stroke:#000000;stroke-width:2.0;"/><text fill="#000000" font-family="sans-serif" font-size="13" font-weight="bold" lengthAdjust="spacing" textLength="23" x="30" y="288.1606">ref</text><text fill="#000000" font-family="sans-serif" font-size="12" lengthAdjust="spacing" textLength="132" x="232.25" y="306.2324">Sequence Insert Child</text><path d="M10,332.1953 L82,332.1953 L82,339.3281 L72,349.3281 L10,349.3281 L10,332.1953 " fill="#EEEEEE" style="stroke:#000000;stroke-width:1.5;"/><rect fill="none" height="61.2344" style="stroke:#000000;stroke-width:1.5;" width="576.5" x="10" y="332.1953"/><text fill="#000000" font-family="sans-serif" font-size="13" font-weight="bold" lengthAdjust="spacing" textLength="27" x="25" y="345.2622">opt</text><text fill="#000000" font-family="sans-serif" font-size="11" font-weight="bold" lengthAdjust="spacing" textLength="58" x="97" y="344.4058">[Update]</text><rect fill="none" height="39.1016" style="stroke:#000000;stroke-width:1.5;" width="562.5" x="17" y="349.3281"/><path d="M17,349.3281 L85,349.3281 L85,356.3281 L75,366.3281 L17,366.3281 L17,349.3281 " fill="#EEEEEE" style="stroke:#000000;stroke-width:2.0;"/><text fill="#000000" font-family="sans-serif" font-size="13" font-weight="bold" lengthAdjust="spacing" textLength="23" x="30" y="363.395">ref</text><text fill="#000000" font-family="sans-serif" font-size="12" lengthAdjust="spacing" textLength="142" x="227.25" y="381.4668">Sequence Update Child</text><path d="M10,407.4297 L82,407.4297 L82,414.5625 L72,424.5625 L10,424.5625 L10,407.4297 " fill="#EEEEEE" style="stroke:#000000;stroke-width:1.5;"/><rect fill="none" height="61.2344" style="stroke:#000000;stroke-width:1.5;" width="576.5" x="10" y="407.4297"/><text fill="#000000" font-family="sans-serif" font-size="13" font-weight="bold" lengthAdjust="spacing" textLength="27" x="25" y="420.4966">opt</text><text fill="#000000" font-family="sans-serif" font-size="11" font-weight="bold" lengthAdjust="spacing" textLength="54" x="97" y="419.6401">[Delete]</text><rect fill="none" height="39.1016" style="stroke:#000000;stroke-width:1.5;" width="562.5" x="17" y="424.5625"/><path d="M17,424.5625 L85,424.5625 L85,431.5625 L75,441.5625 L17,441.5625 L17,424.5625 " fill="#EEEEEE" style="stroke:#000000;stroke-width:2.0;"/><text fill="#000000" font-family="sans-serif" font-size="13" font-weight="bold" lengthAdjust="spacing" textLength="23" x="30" y="438.6294">ref</text><text fill="#000000" font-family="sans-serif" font-size="12" lengthAdjust="spacing" textLength="138" x="229.25" y="456.7012">Sequence Delete Child</text><path d="M10,482.6641 L82,482.6641 L82,489.7969 L72,499.7969 L10,499.7969 L10,482.6641 " fill="#EEEEEE" style="stroke:#000000;stroke-width:1.5;"/><rect fill="none" height="61.2344" style="stroke:#000000;stroke-width:1.5;" width="576.5" x="10" y="482.6641"/><text fill="#000000" font-family="sans-serif" font-size="13" font-weight="bold" lengthAdjust="spacing" textLength="27" x="25" y="495.731">opt</text><text fill="#000000" font-family="sans-serif" font-size="11" font-weight="bold" lengthAdjust="spacing" textLength="55" x="97" y="494.8745">[Search]</text><rect fill="none" height="39.1016" style="stroke:#000000;stroke-width:1.5;" width="562.5" x="17" y="499.7969"/><path d="M17,499.7969 L85,499.7969 L85,506.7969 L75,516.7969 L17,516.7969 L17,499.7969 " fill="#EEEEEE" style="stroke:#000000;stroke-width:2.0;"/><text fill="#000000" font-family="sans-serif" font-size="13" font-weight="bold" lengthAdjust="spacing" textLength="23" x="30" y="513.8638">ref</text><text fill="#000000" font-family="sans-serif" font-size="12" lengthAdjust="spacing" textLength="140" x="228.25" y="531.9355">Sequence Search Child</text><path d="M10,557.8984 L82,557.8984 L82,565.0313 L72,575.0313 L10,575.0313 L10,557.8984 " fill="#EEEEEE" style="stroke:#000000;stroke-width:1.5;"/><rect fill="none" height="61.2344" style="stroke:#000000;stroke-width:1.5;" width="576.5" x="10" y="557.8984"/><text fill="#000000" font-family="sans-serif" font-size="13" font-weight="bold" lengthAdjust="spacing" textLength="27" x="25" y="570.9653">opt</text><text fill="#000000" font-family="sans-serif" font-size="11" font-weight="bold" lengthAdjust="spacing" textLength="194" x="97" y="570.1089">[View Health Update History]</text><rect fill="none" height="39.1016" style="stroke:#000000;stroke-width:1.5;" width="562.5" x="17" y="575.0313"/><path d="M17,575.0313 L85,575.0313 L85,582.0313 L75,592.0313 L17,592.0313 L17,575.0313 " fill="#EEEEEE" style="stroke:#000000;stroke-width:2.0;"/><text fill="#000000" font-family="sans-serif" font-size="13" font-weight="bold" lengthAdjust="spacing" textLength="23" x="30" y="589.0981">ref</text><text fill="#000000" font-family="sans-serif" font-size="12" lengthAdjust="spacing" textLength="231" x="182.75" y="607.1699">Sequence View Health Update History</text><!--SRC=[jLAzReCm4Dxz5AVCeEuPke1K8gLIfAZTZJcA9ST7pT6Mj-yH2obnIgV46_VzShOUcVnugZ6epZO8BH7NzAEKDam1DWSTq3CyGKdpO0DwW3YB0rNJw1iT9YWwwvfNxVK7dWH-j_Yj37aEv29Mn0ydKO9R5acrsvTA9IZapn7PmWioE3imK0jcPacmEcEGvpFjMhc5_GqvzLvKrqtNbDSiM1ENTkYTdcwxNgvgLLrqH8EiVlI6BNcbg6Se0cf61N82ja1VKlxIBVlBAqitaYsRFEBdYDuWxFo0WIDFxg69QMzzyv2qw9kcbUZm4MdHDqqxeWwcktzQz4tJpk-aGksuM_w-abT1ORf_Wt-ofCyl]--></g></svg>