<?xml version="1.0" encoding="us-ascii" standalone="no"?><svg xmlns="http://www.w3.org/2000/svg" xmlns:xlink="http://www.w3.org/1999/xlink" contentStyleType="text/css" height="383px" preserveAspectRatio="none" style="width:658px;height:383px;background:#FFFFFF;" version="1.1" viewBox="0 0 658 383" width="658px" zoomAndPan="magnify"><defs/><g><line style="stroke:#181818;stroke-width:0.5;stroke-dasharray:5.0,5.0;" x1="63" x2="63" y1="81.2969" y2="376.625"/><line style="stroke:#181818;stroke-width:0.5;stroke-dasharray:5.0,5.0;" x1="234.5" x2="234.5" y1="81.2969" y2="376.625"/><line style="stroke:#181818;stroke-width:0.5;stroke-dasharray:5.0,5.0;" x1="402" x2="402" y1="81.2969" y2="376.625"/><line style="stroke:#181818;stroke-width:0.5;stroke-dasharray:5.0,5.0;" x1="559" x2="559" y1="81.2969" y2="376.625"/><text fill="#000000" font-family="sans-serif" font-size="14" lengthAdjust="spacing" textLength="111" x="5" y="77.9951">Parent / Doctor</text><ellipse cx="63.5" cy="13.5" fill="#E2E2F0" rx="8" ry="8" style="stroke:#181818;stroke-width:0.5;"/><path d="M63.5,21.5 L63.5,48.5 M50.5,29.5 L76.5,29.5 M63.5,48.5 L50.5,63.5 M63.5,48.5 L76.5,63.5 " fill="none" style="stroke:#181818;stroke-width:0.5;"/><text fill="#000000" font-family="sans-serif" font-size="14" lengthAdjust="spacing" textLength="164" x="149.5" y="77.9951">ChildManagementView</text><path d="M214,37 L214,61 M214,49 L231,49 " fill="none" style="stroke:#181818;stroke-width:0.5;"/><ellipse cx="243" cy="49" fill="#E2E2F0" rx="12" ry="12" style="stroke:#181818;stroke-width:0.5;"/><text fill="#000000" font-family="sans-serif" font-size="14" lengthAdjust="spacing" textLength="109" x="345" y="77.9951">ChildController</text><ellipse cx="402.5" cy="49" fill="#E2E2F0" rx="12" ry="12" style="stroke:#181818;stroke-width:0.5;"/><polygon fill="#181818" points="398.5,37,404.5,32,402.5,37,404.5,42,398.5,37" style="stroke:#181818;stroke-width:1.0;"/><text fill="#000000" font-family="sans-serif" font-size="14" lengthAdjust="spacing" textLength="43" x="535" y="77.9951">CHILD</text><ellipse cx="559.5" cy="49" fill="#E2E2F0" rx="12" ry="12" style="stroke:#181818;stroke-width:0.5;"/><line style="stroke:#181818;stroke-width:0.5;" x1="547.5" x2="571.5" y1="63" y2="63"/><polygon fill="#181818" points="222.5,123.5625,232.5,127.5625,222.5,131.5625,226.5,127.5625" style="stroke:#181818;stroke-width:1.0;"/><line style="stroke:#181818;stroke-width:1.0;" x1="63.5" x2="228.5" y1="127.5625" y2="127.5625"/><text fill="#000000" font-family="sans-serif" font-size="13" font-weight="bold" lengthAdjust="spacing" textLength="9" x="70.5" y="114.9302">1</text><text fill="#000000" font-family="sans-serif" font-size="13" lengthAdjust="spacing" textLength="113" x="83.5" y="107.3638">Enters the search</text><text fill="#000000" font-family="sans-serif" font-size="13" lengthAdjust="spacing" textLength="134" x="83.5" y="122.4966">criteria in search box</text><polygon fill="#181818" points="390.5,167.8281,400.5,171.8281,390.5,175.8281,394.5,171.8281" style="stroke:#181818;stroke-width:1.0;"/><line style="stroke:#181818;stroke-width:1.0;" x1="234.5" x2="396.5" y1="171.8281" y2="171.8281"/><text fill="#000000" font-family="sans-serif" font-size="13" font-weight="bold" lengthAdjust="spacing" textLength="9" x="241.5" y="159.1958">2</text><text fill="#000000" font-family="sans-serif" font-size="13" lengthAdjust="spacing" textLength="131" x="254.5" y="151.6294">Send searching child</text><text fill="#000000" font-family="sans-serif" font-size="13" lengthAdjust="spacing" textLength="127" x="254.5" y="166.7622">information request</text><polygon fill="#181818" points="547.5,212.0938,557.5,216.0938,547.5,220.0938,551.5,216.0938" style="stroke:#181818;stroke-width:1.0;"/><line style="stroke:#181818;stroke-width:1.0;" x1="402.5" x2="553.5" y1="216.0938" y2="216.0938"/><text fill="#000000" font-family="sans-serif" font-size="13" font-weight="bold" lengthAdjust="spacing" textLength="8" x="409.5" y="203.4614">3</text><text fill="#000000" font-family="sans-serif" font-size="13" lengthAdjust="spacing" textLength="112" x="421.5" y="195.895">Search child base</text><text fill="#000000" font-family="sans-serif" font-size="13" lengthAdjust="spacing" textLength="121" x="421.5" y="211.0278">on given keywords</text><line style="stroke:#181818;stroke-width:1.0;" x1="559.5" x2="601.5" y1="245.2266" y2="245.2266"/><line style="stroke:#181818;stroke-width:1.0;" x1="601.5" x2="601.5" y1="245.2266" y2="258.2266"/><line style="stroke:#181818;stroke-width:1.0;" x1="560.5" x2="601.5" y1="258.2266" y2="258.2266"/><polygon fill="#181818" points="570.5,254.2266,560.5,258.2266,570.5,262.2266,566.5,258.2266" style="stroke:#181818;stroke-width:1.0;"/><text fill="#000000" font-family="sans-serif" font-size="13" font-weight="bold" lengthAdjust="spacing" textLength="9" x="566.5" y="240.1606">4</text><text fill="#000000" font-family="sans-serif" font-size="13" lengthAdjust="spacing" textLength="72" x="579.5" y="240.1606">Query data</text><polygon fill="#181818" points="413.5,283.3594,403.5,287.3594,413.5,291.3594,409.5,287.3594" style="stroke:#181818;stroke-width:1.0;"/><line style="stroke:#181818;stroke-width:1.0;stroke-dasharray:2.0,2.0;" x1="407.5" x2="558.5" y1="287.3594" y2="287.3594"/><text fill="#000000" font-family="sans-serif" font-size="13" font-weight="bold" lengthAdjust="spacing" textLength="9" x="419.5" y="282.2935">5</text><text fill="#000000" font-family="sans-serif" font-size="13" lengthAdjust="spacing" textLength="79" x="432.5" y="282.2935">Query result</text><polygon fill="#181818" points="245.5,312.4922,235.5,316.4922,245.5,320.4922,241.5,316.4922" style="stroke:#181818;stroke-width:1.0;"/><line style="stroke:#181818;stroke-width:1.0;stroke-dasharray:2.0,2.0;" x1="239.5" x2="401.5" y1="316.4922" y2="316.4922"/><text fill="#000000" font-family="sans-serif" font-size="13" font-weight="bold" lengthAdjust="spacing" textLength="9" x="251.5" y="311.4263">6</text><text fill="#000000" font-family="sans-serif" font-size="13" lengthAdjust="spacing" textLength="79" x="264.5" y="311.4263">Query result</text><line style="stroke:#181818;stroke-width:1.0;" x1="234.5" x2="276.5" y1="345.625" y2="345.625"/><line style="stroke:#181818;stroke-width:1.0;" x1="276.5" x2="276.5" y1="345.625" y2="358.625"/><line style="stroke:#181818;stroke-width:1.0;" x1="235.5" x2="276.5" y1="358.625" y2="358.625"/><polygon fill="#181818" points="245.5,354.625,235.5,358.625,245.5,362.625,241.5,358.625" style="stroke:#181818;stroke-width:1.0;"/><text fill="#000000" font-family="sans-serif" font-size="13" font-weight="bold" lengthAdjust="spacing" textLength="9" x="241.5" y="340.5591">7</text><text fill="#000000" font-family="sans-serif" font-size="13" lengthAdjust="spacing" textLength="140" x="254.5" y="340.5591">Display list of children</text><!--SRC=[TP51JyCm38Nl-HNMxeZx3bnM99100Y5nwiLjtDQYio5n6FttfCs0QNJ7lEVlvSN1P2fftr1m0tk2JjKQ_N8EMzC0coSC90RNKEaiR00Z5Aq8hj4a7iC4ku57_uY2FUsp_SfqSAsA1HsBjok7CL-LVRQCtDq_LCwTvi7LpLhI5cx5A4ImWI0IXdQefGsSDKPWEMemLr_1VrF_EcpXXSGVEPOUsjclXQNJi4TZ5GZqaIYQEqENjBdwdB5Skx3GOAHQCjVp9mcyqNJGuADRPa-WvqHvNnuDVworUcKgK4pZIeDBQ_fFNTZ4ELXnV1znWf6ZWNRbIVbVlW40]--></g></svg>