<?xml version="1.0" encoding="us-ascii" standalone="no"?><svg xmlns="http://www.w3.org/2000/svg" xmlns:xlink="http://www.w3.org/1999/xlink" contentStyleType="text/css" height="962px" preserveAspectRatio="none" style="width:991px;height:962px;background:#FFFFFF;" version="1.1" viewBox="0 0 991 962" width="991px" zoomAndPan="magnify"><defs/><g><rect fill="none" height="550.7344" style="stroke:#000000;stroke-width:1.5;" width="974.5" x="10" y="387.4609"/><rect fill="none" height="304" style="stroke:#000000;stroke-width:1.5;" width="830.5" x="137" y="627.1953"/><line style="stroke:#181818;stroke-width:0.5;stroke-dasharray:5.0,5.0;" x1="78" x2="78" y1="81.2969" y2="955.1953"/><line style="stroke:#181818;stroke-width:0.5;stroke-dasharray:5.0,5.0;" x1="232" x2="232" y1="81.2969" y2="955.1953"/><line style="stroke:#181818;stroke-width:0.5;stroke-dasharray:5.0,5.0;" x1="407" x2="407" y1="81.2969" y2="955.1953"/><line style="stroke:#181818;stroke-width:0.5;stroke-dasharray:5.0,5.0;" x1="631" x2="631" y1="81.2969" y2="955.1953"/><line style="stroke:#181818;stroke-width:0.5;stroke-dasharray:5.0,5.0;" x1="859" x2="859" y1="81.2969" y2="955.1953"/><text fill="#000000" font-family="sans-serif" font-size="14" lengthAdjust="spacing" textLength="111" x="20" y="77.9951">Parent / Doctor</text><ellipse cx="78.5" cy="13.5" fill="#E2E2F0" rx="8" ry="8" style="stroke:#181818;stroke-width:0.5;"/><path d="M78.5,21.5 L78.5,48.5 M65.5,29.5 L91.5,29.5 M78.5,48.5 L65.5,63.5 M78.5,48.5 L91.5,63.5 " fill="none" style="stroke:#181818;stroke-width:0.5;"/><text fill="#000000" font-family="sans-serif" font-size="14" lengthAdjust="spacing" textLength="164" x="147" y="77.9951">ChildManagementView</text><path d="M211.5,37 L211.5,61 M211.5,49 L228.5,49 " fill="none" style="stroke:#181818;stroke-width:0.5;"/><ellipse cx="240.5" cy="49" fill="#E2E2F0" rx="12" ry="12" style="stroke:#181818;stroke-width:0.5;"/><text fill="#000000" font-family="sans-serif" font-size="14" lengthAdjust="spacing" textLength="155" x="327" y="77.9951">ChildInformationView</text><path d="M387,37 L387,61 M387,49 L404,49 " fill="none" style="stroke:#181818;stroke-width:0.5;"/><ellipse cx="416" cy="49" fill="#E2E2F0" rx="12" ry="12" style="stroke:#181818;stroke-width:0.5;"/><text fill="#000000" font-family="sans-serif" font-size="14" lengthAdjust="spacing" textLength="109" x="574" y="77.9951">ChildController</text><ellipse cx="631.5" cy="49" fill="#E2E2F0" rx="12" ry="12" style="stroke:#181818;stroke-width:0.5;"/><polygon fill="#181818" points="627.5,37,633.5,32,631.5,37,633.5,42,627.5,37" style="stroke:#181818;stroke-width:1.0;"/><text fill="#000000" font-family="sans-serif" font-size="14" lengthAdjust="spacing" textLength="43" x="835" y="77.9951">CHILD</text><ellipse cx="859.5" cy="49" fill="#E2E2F0" rx="12" ry="12" style="stroke:#181818;stroke-width:0.5;"/><line style="stroke:#181818;stroke-width:0.5;" x1="847.5" x2="871.5" y1="63" y2="63"/><rect fill="none" height="39.1016" style="stroke:#000000;stroke-width:1.5;" width="870" x="17" y="91.2969"/><path d="M17,91.2969 L85,91.2969 L85,98.2969 L75,108.2969 L17,108.2969 L17,91.2969 " fill="#EEEEEE" style="stroke:#000000;stroke-width:2.0;"/><text fill="#000000" font-family="sans-serif" font-size="13" font-weight="bold" lengthAdjust="spacing" textLength="23" x="30" y="105.3638">ref</text><text fill="#000000" font-family="sans-serif" font-size="12" lengthAdjust="spacing" textLength="140" x="382" y="123.4355">Sequence Search Child</text><polygon fill="#181818" points="220,167.6641,230,171.6641,220,175.6641,224,171.6641" style="stroke:#181818;stroke-width:1.0;"/><line style="stroke:#181818;stroke-width:1.0;" x1="78.5" x2="226" y1="171.6641" y2="171.6641"/><text fill="#000000" font-family="sans-serif" font-size="13" font-weight="bold" lengthAdjust="spacing" textLength="9" x="85.5" y="159.0317">1</text><text fill="#000000" font-family="sans-serif" font-size="13" lengthAdjust="spacing" textLength="72" x="98.5" y="151.4653">Select child</text><text fill="#000000" font-family="sans-serif" font-size="13" lengthAdjust="spacing" textLength="99" x="102.5" y="166.5981">needs updating</text><polygon fill="#181818" points="619.5,196.7969,629.5,200.7969,619.5,204.7969,623.5,200.7969" style="stroke:#181818;stroke-width:1.0;"/><line style="stroke:#181818;stroke-width:1.0;" x1="232" x2="625.5" y1="200.7969" y2="200.7969"/><text fill="#000000" font-family="sans-serif" font-size="13" font-weight="bold" lengthAdjust="spacing" textLength="9" x="239" y="195.731">2</text><text fill="#000000" font-family="sans-serif" font-size="13" lengthAdjust="spacing" textLength="192" x="252" y="195.731">Get selected child information</text><polygon fill="#181818" points="847.5,225.9297,857.5,229.9297,847.5,233.9297,851.5,229.9297" style="stroke:#181818;stroke-width:1.0;"/><line style="stroke:#181818;stroke-width:1.0;" x1="631.5" x2="853.5" y1="229.9297" y2="229.9297"/><text fill="#000000" font-family="sans-serif" font-size="13" font-weight="bold" lengthAdjust="spacing" textLength="8" x="638.5" y="224.8638">3</text><text fill="#000000" font-family="sans-serif" font-size="13" lengthAdjust="spacing" textLength="192" x="650.5" y="224.8638">Get selected child information</text><polygon fill="#181818" points="418.5,255.0625,408.5,259.0625,418.5,263.0625,414.5,259.0625" style="stroke:#181818;stroke-width:1.0;"/><line style="stroke:#181818;stroke-width:1.0;stroke-dasharray:2.0,2.0;" x1="412.5" x2="858.5" y1="259.0625" y2="259.0625"/><text fill="#000000" font-family="sans-serif" font-size="13" font-weight="bold" lengthAdjust="spacing" textLength="9" x="424.5" y="253.9966">4</text><text fill="#000000" font-family="sans-serif" font-size="13" lengthAdjust="spacing" textLength="166" x="437.5" y="253.9966">Selected child information</text><line style="stroke:#181818;stroke-width:1.0;" x1="407.5" x2="449.5" y1="288.1953" y2="288.1953"/><line style="stroke:#181818;stroke-width:1.0;" x1="449.5" x2="449.5" y1="288.1953" y2="301.1953"/><line style="stroke:#181818;stroke-width:1.0;" x1="408.5" x2="449.5" y1="301.1953" y2="301.1953"/><polygon fill="#181818" points="418.5,297.1953,408.5,301.1953,418.5,305.1953,414.5,301.1953" style="stroke:#181818;stroke-width:1.0;"/><text fill="#000000" font-family="sans-serif" font-size="13" font-weight="bold" lengthAdjust="spacing" textLength="9" x="414.5" y="283.1294">5</text><text fill="#000000" font-family="sans-serif" font-size="13" lengthAdjust="spacing" textLength="158" x="427.5" y="283.1294">Display child information</text><polygon fill="#181818" points="395.5,326.3281,405.5,330.3281,395.5,334.3281,399.5,330.3281" style="stroke:#181818;stroke-width:1.0;"/><line style="stroke:#181818;stroke-width:1.0;" x1="78.5" x2="401.5" y1="330.3281" y2="330.3281"/><text fill="#000000" font-family="sans-serif" font-size="13" font-weight="bold" lengthAdjust="spacing" textLength="9" x="85.5" y="325.2622">6</text><text fill="#000000" font-family="sans-serif" font-size="13" lengthAdjust="spacing" textLength="145" x="98.5" y="325.2622">Enter child information</text><line style="stroke:#181818;stroke-width:1.0;" x1="407.5" x2="449.5" y1="359.4609" y2="359.4609"/><line style="stroke:#181818;stroke-width:1.0;" x1="449.5" x2="449.5" y1="359.4609" y2="372.4609"/><line style="stroke:#181818;stroke-width:1.0;" x1="408.5" x2="449.5" y1="372.4609" y2="372.4609"/><polygon fill="#181818" points="418.5,368.4609,408.5,372.4609,418.5,376.4609,414.5,372.4609" style="stroke:#181818;stroke-width:1.0;"/><text fill="#000000" font-family="sans-serif" font-size="13" font-weight="bold" lengthAdjust="spacing" textLength="9" x="414.5" y="354.395">7</text><text fill="#000000" font-family="sans-serif" font-size="13" lengthAdjust="spacing" textLength="85" x="427.5" y="354.395">Validate data</text><path d="M10,387.4609 L76,387.4609 L76,394.5938 L66,404.5938 L10,404.5938 L10,387.4609 " fill="#EEEEEE" style="stroke:#000000;stroke-width:1.5;"/><rect fill="none" height="550.7344" style="stroke:#000000;stroke-width:1.5;" width="974.5" x="10" y="387.4609"/><text fill="#000000" font-family="sans-serif" font-size="13" font-weight="bold" lengthAdjust="spacing" textLength="21" x="25" y="400.5278">alt</text><text fill="#000000" font-family="sans-serif" font-size="11" font-weight="bold" lengthAdjust="spacing" textLength="88" x="91" y="399.6714">[Invalid data]</text><polygon fill="#181818" points="89.5,421.7266,79.5,425.7266,89.5,429.7266,85.5,425.7266" style="stroke:#181818;stroke-width:1.0;"/><line style="stroke:#181818;stroke-width:1.0;stroke-dasharray:2.0,2.0;" x1="83.5" x2="406.5" y1="425.7266" y2="425.7266"/><text fill="#000000" font-family="sans-serif" font-size="13" font-weight="bold" lengthAdjust="spacing" textLength="9" x="95.5" y="420.6606">8</text><text fill="#000000" font-family="sans-serif" font-size="13" lengthAdjust="spacing" textLength="106" x="108.5" y="420.6606">Error notification</text><line style="stroke:#181818;stroke-width:1.0;" x1="407.5" x2="449.5" y1="454.8594" y2="454.8594"/><line style="stroke:#181818;stroke-width:1.0;" x1="449.5" x2="449.5" y1="454.8594" y2="467.8594"/><line style="stroke:#181818;stroke-width:1.0;" x1="408.5" x2="449.5" y1="467.8594" y2="467.8594"/><polygon fill="#181818" points="418.5,463.8594,408.5,467.8594,418.5,471.8594,414.5,467.8594" style="stroke:#181818;stroke-width:1.0;"/><text fill="#000000" font-family="sans-serif" font-size="13" font-weight="bold" lengthAdjust="spacing" textLength="9" x="414.5" y="449.7935">9</text><text fill="#000000" font-family="sans-serif" font-size="13" lengthAdjust="spacing" textLength="157" x="427.5" y="449.7935">Display error notification</text><line style="stroke:#000000;stroke-width:1.0;stroke-dasharray:2.0,2.0;" x1="10" x2="984.5" y1="476.8594" y2="476.8594"/><text fill="#000000" font-family="sans-serif" font-size="11" font-weight="bold" lengthAdjust="spacing" textLength="78" x="15" y="487.0698">[Valid data]</text><polygon fill="#181818" points="395.5,507.7969,405.5,511.7969,395.5,515.7969,399.5,511.7969" style="stroke:#181818;stroke-width:1.0;"/><line style="stroke:#181818;stroke-width:1.0;" x1="78.5" x2="401.5" y1="511.7969" y2="511.7969"/><text fill="#000000" font-family="sans-serif" font-size="13" font-weight="bold" lengthAdjust="spacing" textLength="19" x="85.5" y="506.731">10</text><text fill="#000000" font-family="sans-serif" font-size="13" lengthAdjust="spacing" textLength="191" x="108.5" y="506.731">Click button "Save" to confirm</text><polygon fill="#181818" points="619.5,536.9297,629.5,540.9297,619.5,544.9297,623.5,540.9297" style="stroke:#181818;stroke-width:1.0;"/><line style="stroke:#181818;stroke-width:1.0;" x1="407.5" x2="625.5" y1="540.9297" y2="540.9297"/><text fill="#000000" font-family="sans-serif" font-size="13" font-weight="bold" lengthAdjust="spacing" textLength="18" x="414.5" y="535.8638">11</text><text fill="#000000" font-family="sans-serif" font-size="13" lengthAdjust="spacing" textLength="178" x="436.5" y="535.8638">Send updating child request</text><polygon fill="#181818" points="847.5,566.0625,857.5,570.0625,847.5,574.0625,851.5,570.0625" style="stroke:#181818;stroke-width:1.0;"/><line style="stroke:#181818;stroke-width:1.0;" x1="631.5" x2="853.5" y1="570.0625" y2="570.0625"/><text fill="#000000" font-family="sans-serif" font-size="13" font-weight="bold" lengthAdjust="spacing" textLength="18" x="638.5" y="564.9966">12</text><text fill="#000000" font-family="sans-serif" font-size="13" lengthAdjust="spacing" textLength="110" x="660.5" y="564.9966">Send information</text><line style="stroke:#181818;stroke-width:1.0;" x1="859.5" x2="901.5" y1="599.1953" y2="599.1953"/><line style="stroke:#181818;stroke-width:1.0;" x1="901.5" x2="901.5" y1="599.1953" y2="612.1953"/><line style="stroke:#181818;stroke-width:1.0;" x1="860.5" x2="901.5" y1="612.1953" y2="612.1953"/><polygon fill="#181818" points="870.5,608.1953,860.5,612.1953,870.5,616.1953,866.5,612.1953" style="stroke:#181818;stroke-width:1.0;"/><text fill="#000000" font-family="sans-serif" font-size="13" font-weight="bold" lengthAdjust="spacing" textLength="17" x="866.5" y="594.1294">13</text><text fill="#000000" font-family="sans-serif" font-size="13" lengthAdjust="spacing" textLength="85" x="887.5" y="594.1294">Validate data</text><path d="M137,627.1953 L203,627.1953 L203,634.3281 L193,644.3281 L137,644.3281 L137,627.1953 " fill="#EEEEEE" style="stroke:#000000;stroke-width:1.5;"/><rect fill="none" height="304" style="stroke:#000000;stroke-width:1.5;" width="830.5" x="137" y="627.1953"/><text fill="#000000" font-family="sans-serif" font-size="13" font-weight="bold" lengthAdjust="spacing" textLength="21" x="152" y="640.2622">alt</text><text fill="#000000" font-family="sans-serif" font-size="11" font-weight="bold" lengthAdjust="spacing" textLength="88" x="218" y="639.4058">[Invalid data]</text><polygon fill="#181818" points="642.5,661.4609,632.5,665.4609,642.5,669.4609,638.5,665.4609" style="stroke:#181818;stroke-width:1.0;"/><line style="stroke:#181818;stroke-width:1.0;stroke-dasharray:2.0,2.0;" x1="636.5" x2="858.5" y1="665.4609" y2="665.4609"/><text fill="#000000" font-family="sans-serif" font-size="13" font-weight="bold" lengthAdjust="spacing" textLength="18" x="648.5" y="660.395">14</text><text fill="#000000" font-family="sans-serif" font-size="13" lengthAdjust="spacing" textLength="106" x="670.5" y="660.395">Error notification</text><polygon fill="#181818" points="418.5,690.5938,408.5,694.5938,418.5,698.5938,414.5,694.5938" style="stroke:#181818;stroke-width:1.0;"/><line style="stroke:#181818;stroke-width:1.0;stroke-dasharray:2.0,2.0;" x1="412.5" x2="630.5" y1="694.5938" y2="694.5938"/><text fill="#000000" font-family="sans-serif" font-size="13" font-weight="bold" lengthAdjust="spacing" textLength="18" x="424.5" y="689.5278">15</text><text fill="#000000" font-family="sans-serif" font-size="13" lengthAdjust="spacing" textLength="106" x="446.5" y="689.5278">Error notification</text><line style="stroke:#181818;stroke-width:1.0;" x1="407.5" x2="449.5" y1="723.7266" y2="723.7266"/><line style="stroke:#181818;stroke-width:1.0;" x1="449.5" x2="449.5" y1="723.7266" y2="736.7266"/><line style="stroke:#181818;stroke-width:1.0;" x1="408.5" x2="449.5" y1="736.7266" y2="736.7266"/><polygon fill="#181818" points="418.5,732.7266,408.5,736.7266,418.5,740.7266,414.5,736.7266" style="stroke:#181818;stroke-width:1.0;"/><text fill="#000000" font-family="sans-serif" font-size="13" font-weight="bold" lengthAdjust="spacing" textLength="18" x="414.5" y="718.6606">16</text><text fill="#000000" font-family="sans-serif" font-size="13" lengthAdjust="spacing" textLength="157" x="436.5" y="718.6606">Display error notification</text><line style="stroke:#000000;stroke-width:1.0;stroke-dasharray:2.0,2.0;" x1="137" x2="967.5" y1="745.7266" y2="745.7266"/><text fill="#000000" font-family="sans-serif" font-size="11" font-weight="bold" lengthAdjust="spacing" textLength="78" x="142" y="755.937">[Valid data]</text><line style="stroke:#181818;stroke-width:1.0;" x1="859.5" x2="901.5" y1="780.6641" y2="780.6641"/><line style="stroke:#181818;stroke-width:1.0;" x1="901.5" x2="901.5" y1="780.6641" y2="793.6641"/><line style="stroke:#181818;stroke-width:1.0;" x1="860.5" x2="901.5" y1="793.6641" y2="793.6641"/><polygon fill="#181818" points="870.5,789.6641,860.5,793.6641,870.5,797.6641,866.5,793.6641" style="stroke:#181818;stroke-width:1.0;"/><text fill="#000000" font-family="sans-serif" font-size="13" font-weight="bold" lengthAdjust="spacing" textLength="18" x="866.5" y="775.5981">17</text><text fill="#000000" font-family="sans-serif" font-size="13" lengthAdjust="spacing" textLength="67" x="888.5" y="775.5981">Store data</text><polygon fill="#181818" points="642.5,818.7969,632.5,822.7969,642.5,826.7969,638.5,822.7969" style="stroke:#181818;stroke-width:1.0;"/><line style="stroke:#181818;stroke-width:1.0;stroke-dasharray:2.0,2.0;" x1="636.5" x2="858.5" y1="822.7969" y2="822.7969"/><text fill="#000000" font-family="sans-serif" font-size="13" font-weight="bold" lengthAdjust="spacing" textLength="18" x="648.5" y="817.731">18</text><text fill="#000000" font-family="sans-serif" font-size="13" lengthAdjust="spacing" textLength="127" x="670.5" y="817.731">Success notification</text><polygon fill="#181818" points="418.5,847.9297,408.5,851.9297,418.5,855.9297,414.5,851.9297" style="stroke:#181818;stroke-width:1.0;"/><line style="stroke:#181818;stroke-width:1.0;stroke-dasharray:2.0,2.0;" x1="412.5" x2="630.5" y1="851.9297" y2="851.9297"/><text fill="#000000" font-family="sans-serif" font-size="13" font-weight="bold" lengthAdjust="spacing" textLength="18" x="424.5" y="846.8638">19</text><text fill="#000000" font-family="sans-serif" font-size="13" lengthAdjust="spacing" textLength="127" x="446.5" y="846.8638">Success notification</text><line style="stroke:#181818;stroke-width:1.0;" x1="407.5" x2="449.5" y1="881.0625" y2="881.0625"/><line style="stroke:#181818;stroke-width:1.0;" x1="449.5" x2="449.5" y1="881.0625" y2="894.0625"/><line style="stroke:#181818;stroke-width:1.0;" x1="408.5" x2="449.5" y1="894.0625" y2="894.0625"/><polygon fill="#181818" points="418.5,890.0625,408.5,894.0625,418.5,898.0625,414.5,894.0625" style="stroke:#181818;stroke-width:1.0;"/><text fill="#000000" font-family="sans-serif" font-size="13" font-weight="bold" lengthAdjust="spacing" textLength="19" x="414.5" y="875.9966">20</text><text fill="#000000" font-family="sans-serif" font-size="13" lengthAdjust="spacing" textLength="69" x="437.5" y="875.9966">Close view</text><polygon fill="#181818" points="243,919.1953,233,923.1953,243,927.1953,239,923.1953" style="stroke:#181818;stroke-width:1.0;"/><line style="stroke:#181818;stroke-width:1.0;" x1="237" x2="630.5" y1="923.1953" y2="923.1953"/><text fill="#000000" font-family="sans-serif" font-size="13" font-weight="bold" lengthAdjust="spacing" textLength="18" x="249" y="918.1294">21</text><text fill="#000000" font-family="sans-serif" font-size="13" lengthAdjust="spacing" textLength="298" x="271" y="918.1294">Display success notification and list of children</text><!--SRC=[hLN1Ri8m3BtdAopEeDqvx0BJXhH9aofnsYKaBaGB2KlIRlpzd6RGKbALQUE0mFPxVdbsMbu5Qwhz1XtRAObGMXiszeinBe9rC7db3as0ErZQ69W0zv1YAS0sjZAIkoCiTahB5sxu5lUKNYlyx2LNfhHkpuEofiaAQuApEYKNwOyc8OHMWJ1Fg-SbOmvBi3MwYxRJNBjfjisqppzDp7CeyAD28v1-S2TsgOvrsy3iFjSeGZMA02BctWmOHEcXEaZgQhOi0papjJhcy8W1VCE4Cd61QiMpNdr3aPIF0MCLp4ujUuQSr0_tx05Wa6Yf_47pOuOdw-8L_i44EjSL6k2NEjPSA_8UWRuuuph0ojGnbW90dpmXCNQLaYBdIB2nGPLAfACCeyTimMior1wJt5RQRLujj1BliAa2NLYO5Bp62GGBT8bAvVRZAhkBLw2HvtNzyT_5s-13IvJTl0RP7NHJdlRjN7GvZbYH7Ka7cXCvC8gilk4D6o7vZvb6ijnSSzOKD6EysOAY4WAz_wi9upGtsx3GbWvQnyVte8w1P-R9GPzH0vpMIYiVm9Pf7-bA96EDf1U2_0O0]--></g></svg>