<?xml version="1.0" encoding="us-ascii" standalone="no"?><svg xmlns="http://www.w3.org/2000/svg" xmlns:xlink="http://www.w3.org/1999/xlink" contentStyleType="text/css" height="850px" preserveAspectRatio="none" style="width:1212px;height:850px;background:#FFFFFF;" version="1.1" viewBox="0 0 1212 850" width="1212px" zoomAndPan="magnify"><defs/><g><rect fill="none" height="277.3281" style="stroke:#000000;stroke-width:1.5;" width="1174" x="10" y="316.1953"/><line style="stroke:#181818;stroke-width:0.5;stroke-dasharray:5.0,5.0;" x1="78" x2="78" y1="81.2969" y2="843.7188"/><line style="stroke:#181818;stroke-width:0.5;stroke-dasharray:5.0,5.0;" x1="298" x2="298" y1="81.2969" y2="843.7188"/><line style="stroke:#181818;stroke-width:0.5;stroke-dasharray:5.0,5.0;" x1="522.5" x2="522.5" y1="81.2969" y2="843.7188"/><line style="stroke:#181818;stroke-width:0.5;stroke-dasharray:5.0,5.0;" x1="661.5" x2="661.5" y1="81.2969" y2="843.7188"/><line style="stroke:#181818;stroke-width:0.5;stroke-dasharray:5.0,5.0;" x1="867.5" x2="867.5" y1="81.2969" y2="843.7188"/><line style="stroke:#181818;stroke-width:0.5;stroke-dasharray:5.0,5.0;" x1="1080" x2="1080" y1="81.2969" y2="843.7188"/><line style="stroke:#181818;stroke-width:0.5;stroke-dasharray:5.0,5.0;" x1="1178.5" x2="1178.5" y1="81.2969" y2="843.7188"/><text fill="#000000" font-family="sans-serif" font-size="14" lengthAdjust="spacing" textLength="111" x="20" y="77.9951">Parent / Doctor</text><ellipse cx="78.5" cy="13.5" fill="#E2E2F0" rx="8" ry="8" style="stroke:#181818;stroke-width:0.5;"/><path d="M78.5,21.5 L78.5,48.5 M65.5,29.5 L91.5,29.5 M78.5,48.5 L65.5,63.5 M78.5,48.5 L91.5,63.5 " fill="none" style="stroke:#181818;stroke-width:0.5;"/><text fill="#000000" font-family="sans-serif" font-size="14" lengthAdjust="spacing" textLength="36" x="277.5" y="61.6982">Child</text><text fill="#000000" font-family="sans-serif" font-size="14" lengthAdjust="spacing" textLength="85" x="253" y="77.9951">HistoryView</text><path d="M278,20.7031 L278,44.7031 M278,32.7031 L295,32.7031 " fill="none" style="stroke:#181818;stroke-width:0.5;"/><ellipse cx="307" cy="32.7031" fill="#E2E2F0" rx="12" ry="12" style="stroke:#181818;stroke-width:0.5;"/><text fill="#000000" font-family="sans-serif" font-size="14" lengthAdjust="spacing" textLength="36" x="501.5" y="61.6982">Child</text><text fill="#000000" font-family="sans-serif" font-size="14" lengthAdjust="spacing" textLength="128" x="455.5" y="77.9951">ManagementView</text><path d="M502,20.7031 L502,44.7031 M502,32.7031 L519,32.7031 " fill="none" style="stroke:#181818;stroke-width:0.5;"/><ellipse cx="531" cy="32.7031" fill="#E2E2F0" rx="12" ry="12" style="stroke:#181818;stroke-width:0.5;"/><text fill="#000000" font-family="sans-serif" font-size="14" lengthAdjust="spacing" textLength="36" x="641" y="61.6982">Child</text><text fill="#000000" font-family="sans-serif" font-size="14" lengthAdjust="spacing" textLength="119" x="599.5" y="77.9951">InformationView</text><path d="M641.5,20.7031 L641.5,44.7031 M641.5,32.7031 L658.5,32.7031 " fill="none" style="stroke:#181818;stroke-width:0.5;"/><ellipse cx="670.5" cy="32.7031" fill="#E2E2F0" rx="12" ry="12" style="stroke:#181818;stroke-width:0.5;"/><text fill="#000000" font-family="sans-serif" font-size="14" lengthAdjust="spacing" textLength="109" x="810.5" y="77.9951">ChildController</text><ellipse cx="868" cy="49" fill="#E2E2F0" rx="12" ry="12" style="stroke:#181818;stroke-width:0.5;"/><polygon fill="#181818" points="864,37,870,32,868,37,870,42,864,37" style="stroke:#181818;stroke-width:1.0;"/><text fill="#000000" font-family="sans-serif" font-size="14" lengthAdjust="spacing" textLength="118" x="1018" y="77.9951">HEALTHHISTORY</text><ellipse cx="1080" cy="49" fill="#E2E2F0" rx="12" ry="12" style="stroke:#181818;stroke-width:0.5;"/><line style="stroke:#181818;stroke-width:0.5;" x1="1068" x2="1092" y1="63" y2="63"/><text fill="#000000" font-family="sans-serif" font-size="14" lengthAdjust="spacing" textLength="43" x="1154.5" y="77.9951">CHILD</text><ellipse cx="1179" cy="49" fill="#E2E2F0" rx="12" ry="12" style="stroke:#181818;stroke-width:0.5;"/><line style="stroke:#181818;stroke-width:0.5;" x1="1167" x2="1191" y1="63" y2="63"/><rect fill="none" height="39.1016" style="stroke:#000000;stroke-width:1.5;" width="1189.5" x="17" y="91.2969"/><path d="M17,91.2969 L85,91.2969 L85,98.2969 L75,108.2969 L17,108.2969 L17,91.2969 " fill="#EEEEEE" style="stroke:#000000;stroke-width:2.0;"/><text fill="#000000" font-family="sans-serif" font-size="13" font-weight="bold" lengthAdjust="spacing" textLength="23" x="30" y="105.3638">ref</text><text fill="#000000" font-family="sans-serif" font-size="12" lengthAdjust="spacing" textLength="140" x="541.75" y="123.4355">Sequence Search Child</text><polygon fill="#181818" points="510.5,152.5313,520.5,156.5313,510.5,160.5313,514.5,156.5313" style="stroke:#181818;stroke-width:1.0;"/><line style="stroke:#181818;stroke-width:1.0;" x1="78.5" x2="516.5" y1="156.5313" y2="156.5313"/><text fill="#000000" font-family="sans-serif" font-size="13" font-weight="bold" lengthAdjust="spacing" textLength="9" x="85.5" y="151.4653">1</text><text fill="#000000" font-family="sans-serif" font-size="13" lengthAdjust="spacing" textLength="260" x="98.5" y="151.4653">Select child needs viewing health history</text><polygon fill="#181818" points="856,181.6641,866,185.6641,856,189.6641,860,185.6641" style="stroke:#181818;stroke-width:1.0;"/><line style="stroke:#181818;stroke-width:1.0;" x1="522.5" x2="862" y1="185.6641" y2="185.6641"/><text fill="#000000" font-family="sans-serif" font-size="13" font-weight="bold" lengthAdjust="spacing" textLength="9" x="529.5" y="180.5981">2</text><text fill="#000000" font-family="sans-serif" font-size="13" lengthAdjust="spacing" textLength="192" x="542.5" y="180.5981">Get selected child information</text><polygon fill="#181818" points="1167,210.7969,1177,214.7969,1167,218.7969,1171,214.7969" style="stroke:#181818;stroke-width:1.0;"/><line style="stroke:#181818;stroke-width:1.0;" x1="868" x2="1173" y1="214.7969" y2="214.7969"/><text fill="#000000" font-family="sans-serif" font-size="13" font-weight="bold" lengthAdjust="spacing" textLength="8" x="875" y="209.731">3</text><text fill="#000000" font-family="sans-serif" font-size="13" lengthAdjust="spacing" textLength="192" x="887" y="209.731">Get selected child information</text><polygon fill="#181818" points="309.5,239.9297,299.5,243.9297,309.5,247.9297,305.5,243.9297" style="stroke:#181818;stroke-width:1.0;"/><line style="stroke:#181818;stroke-width:1.0;stroke-dasharray:2.0,2.0;" x1="303.5" x2="1178" y1="243.9297" y2="243.9297"/><text fill="#000000" font-family="sans-serif" font-size="13" font-weight="bold" lengthAdjust="spacing" textLength="9" x="315.5" y="238.8638">4</text><text fill="#000000" font-family="sans-serif" font-size="13" lengthAdjust="spacing" textLength="166" x="328.5" y="238.8638">Selected child information</text><line style="stroke:#181818;stroke-width:1.0;" x1="298.5" x2="340.5" y1="288.1953" y2="288.1953"/><line style="stroke:#181818;stroke-width:1.0;" x1="340.5" x2="340.5" y1="288.1953" y2="301.1953"/><line style="stroke:#181818;stroke-width:1.0;" x1="299.5" x2="340.5" y1="301.1953" y2="301.1953"/><polygon fill="#181818" points="309.5,297.1953,299.5,301.1953,309.5,305.1953,305.5,301.1953" style="stroke:#181818;stroke-width:1.0;"/><text fill="#000000" font-family="sans-serif" font-size="13" font-weight="bold" lengthAdjust="spacing" textLength="9" x="305.5" y="275.563">5</text><text fill="#000000" font-family="sans-serif" font-size="13" lengthAdjust="spacing" textLength="119" x="318.5" y="267.9966">Display child list of</text><text fill="#000000" font-family="sans-serif" font-size="13" lengthAdjust="spacing" textLength="88" x="318.5" y="283.1294">health history</text><path d="M10,316.1953 L82,316.1953 L82,323.3281 L72,333.3281 L10,333.3281 L10,316.1953 " fill="#EEEEEE" style="stroke:#000000;stroke-width:1.5;"/><rect fill="none" height="277.3281" style="stroke:#000000;stroke-width:1.5;" width="1174" x="10" y="316.1953"/><text fill="#000000" font-family="sans-serif" font-size="13" font-weight="bold" lengthAdjust="spacing" textLength="27" x="25" y="329.2622">opt</text><text fill="#000000" font-family="sans-serif" font-size="11" font-weight="bold" lengthAdjust="spacing" textLength="68" x="97" y="328.4058">[Optional]</text><polygon fill="#181818" points="286.5,365.5938,296.5,369.5938,286.5,373.5938,290.5,369.5938" style="stroke:#181818;stroke-width:1.0;"/><line style="stroke:#181818;stroke-width:1.0;" x1="78.5" x2="292.5" y1="369.5938" y2="369.5938"/><text fill="#000000" font-family="sans-serif" font-size="13" font-weight="bold" lengthAdjust="spacing" textLength="9" x="85.5" y="356.9614">6</text><text fill="#000000" font-family="sans-serif" font-size="13" lengthAdjust="spacing" textLength="113" x="98.5" y="349.395">Enters the search</text><text fill="#000000" font-family="sans-serif" font-size="13" lengthAdjust="spacing" textLength="134" x="98.5" y="364.5278">criteria in search box</text><polygon fill="#181818" points="856,394.7266,866,398.7266,856,402.7266,860,398.7266" style="stroke:#181818;stroke-width:1.0;"/><line style="stroke:#181818;stroke-width:1.0;" x1="298.5" x2="862" y1="398.7266" y2="398.7266"/><text fill="#000000" font-family="sans-serif" font-size="13" font-weight="bold" lengthAdjust="spacing" textLength="9" x="305.5" y="393.6606">7</text><text fill="#000000" font-family="sans-serif" font-size="13" lengthAdjust="spacing" textLength="321" x="318.5" y="393.6606">Send searching health history information request</text><polygon fill="#181818" points="1068,438.9922,1078,442.9922,1068,446.9922,1072,442.9922" style="stroke:#181818;stroke-width:1.0;"/><line style="stroke:#181818;stroke-width:1.0;" x1="868" x2="1074" y1="442.9922" y2="442.9922"/><text fill="#000000" font-family="sans-serif" font-size="13" font-weight="bold" lengthAdjust="spacing" textLength="9" x="875" y="430.3599">8</text><text fill="#000000" font-family="sans-serif" font-size="13" lengthAdjust="spacing" textLength="171" x="888" y="422.7935">Search health history base</text><text fill="#000000" font-family="sans-serif" font-size="13" lengthAdjust="spacing" textLength="121" x="888" y="437.9263">on given keywords</text><line style="stroke:#181818;stroke-width:1.0;" x1="1080" x2="1122" y1="472.125" y2="472.125"/><line style="stroke:#181818;stroke-width:1.0;" x1="1122" x2="1122" y1="472.125" y2="485.125"/><line style="stroke:#181818;stroke-width:1.0;" x1="1081" x2="1122" y1="485.125" y2="485.125"/><polygon fill="#181818" points="1091,481.125,1081,485.125,1091,489.125,1087,485.125" style="stroke:#181818;stroke-width:1.0;"/><text fill="#000000" font-family="sans-serif" font-size="13" font-weight="bold" lengthAdjust="spacing" textLength="9" x="1087" y="467.0591">9</text><text fill="#000000" font-family="sans-serif" font-size="13" lengthAdjust="spacing" textLength="72" x="1100" y="467.0591">Query data</text><polygon fill="#181818" points="879,510.2578,869,514.2578,879,518.2578,875,514.2578" style="stroke:#181818;stroke-width:1.0;"/><line style="stroke:#181818;stroke-width:1.0;stroke-dasharray:2.0,2.0;" x1="873" x2="1079" y1="514.2578" y2="514.2578"/><text fill="#000000" font-family="sans-serif" font-size="13" font-weight="bold" lengthAdjust="spacing" textLength="19" x="885" y="509.1919">10</text><text fill="#000000" font-family="sans-serif" font-size="13" lengthAdjust="spacing" textLength="79" x="908" y="509.1919">Query result</text><polygon fill="#181818" points="309.5,539.3906,299.5,543.3906,309.5,547.3906,305.5,543.3906" style="stroke:#181818;stroke-width:1.0;"/><line style="stroke:#181818;stroke-width:1.0;stroke-dasharray:2.0,2.0;" x1="303.5" x2="867" y1="543.3906" y2="543.3906"/><text fill="#000000" font-family="sans-serif" font-size="13" font-weight="bold" lengthAdjust="spacing" textLength="18" x="315.5" y="538.3247">11</text><text fill="#000000" font-family="sans-serif" font-size="13" lengthAdjust="spacing" textLength="79" x="337.5" y="538.3247">Query result</text><line style="stroke:#181818;stroke-width:1.0;" x1="298.5" x2="340.5" y1="572.5234" y2="572.5234"/><line style="stroke:#181818;stroke-width:1.0;" x1="340.5" x2="340.5" y1="572.5234" y2="585.5234"/><line style="stroke:#181818;stroke-width:1.0;" x1="299.5" x2="340.5" y1="585.5234" y2="585.5234"/><polygon fill="#181818" points="309.5,581.5234,299.5,585.5234,309.5,589.5234,305.5,585.5234" style="stroke:#181818;stroke-width:1.0;"/><text fill="#000000" font-family="sans-serif" font-size="13" font-weight="bold" lengthAdjust="spacing" textLength="18" x="305.5" y="567.4575">12</text><text fill="#000000" font-family="sans-serif" font-size="13" lengthAdjust="spacing" textLength="188" x="327.5" y="567.4575">Display list of health histories</text><polygon fill="#181818" points="286.5,632.7891,296.5,636.7891,286.5,640.7891,290.5,636.7891" style="stroke:#181818;stroke-width:1.0;"/><line style="stroke:#181818;stroke-width:1.0;" x1="78.5" x2="292.5" y1="636.7891" y2="636.7891"/><text fill="#000000" font-family="sans-serif" font-size="13" font-weight="bold" lengthAdjust="spacing" textLength="17" x="85.5" y="624.1567">13</text><text fill="#000000" font-family="sans-serif" font-size="13" lengthAdjust="spacing" textLength="64" x="106.5" y="616.5903">Select the</text><text fill="#000000" font-family="sans-serif" font-size="13" lengthAdjust="spacing" textLength="175" x="106.5" y="631.7231">health history want to view</text><polygon fill="#181818" points="856,661.9219,866,665.9219,856,669.9219,860,665.9219" style="stroke:#181818;stroke-width:1.0;"/><line style="stroke:#181818;stroke-width:1.0;" x1="298.5" x2="862" y1="665.9219" y2="665.9219"/><text fill="#000000" font-family="sans-serif" font-size="13" font-weight="bold" lengthAdjust="spacing" textLength="18" x="305.5" y="660.856">14</text><text fill="#000000" font-family="sans-serif" font-size="13" lengthAdjust="spacing" textLength="251" x="327.5" y="660.856">Get selected health history information</text><polygon fill="#181818" points="1068,706.1875,1078,710.1875,1068,714.1875,1072,710.1875" style="stroke:#181818;stroke-width:1.0;"/><line style="stroke:#181818;stroke-width:1.0;" x1="868" x2="1074" y1="710.1875" y2="710.1875"/><text fill="#000000" font-family="sans-serif" font-size="13" font-weight="bold" lengthAdjust="spacing" textLength="18" x="875" y="697.5552">15</text><text fill="#000000" font-family="sans-serif" font-size="13" lengthAdjust="spacing" textLength="81" x="897" y="689.9888">Get selected</text><text fill="#000000" font-family="sans-serif" font-size="13" lengthAdjust="spacing" textLength="166" x="897" y="705.1216">health history information</text><polygon fill="#181818" points="879,735.3203,869,739.3203,879,743.3203,875,739.3203" style="stroke:#181818;stroke-width:1.0;"/><line style="stroke:#181818;stroke-width:1.0;stroke-dasharray:2.0,2.0;" x1="873" x2="1079" y1="739.3203" y2="739.3203"/><text fill="#000000" font-family="sans-serif" font-size="13" font-weight="bold" lengthAdjust="spacing" textLength="18" x="885" y="734.2544">16</text><text fill="#000000" font-family="sans-serif" font-size="13" lengthAdjust="spacing" textLength="79" x="907" y="734.2544">Query result</text><polygon fill="#181818" points="673,764.4531,663,768.4531,673,772.4531,669,768.4531" style="stroke:#181818;stroke-width:1.0;"/><line style="stroke:#181818;stroke-width:1.0;stroke-dasharray:2.0,2.0;" x1="667" x2="867" y1="768.4531" y2="768.4531"/><text fill="#000000" font-family="sans-serif" font-size="13" font-weight="bold" lengthAdjust="spacing" textLength="18" x="679" y="763.3872">17</text><text fill="#000000" font-family="sans-serif" font-size="13" lengthAdjust="spacing" textLength="79" x="701" y="763.3872">Query result</text><line style="stroke:#181818;stroke-width:1.0;" x1="662" x2="704" y1="812.7188" y2="812.7188"/><line style="stroke:#181818;stroke-width:1.0;" x1="704" x2="704" y1="812.7188" y2="825.7188"/><line style="stroke:#181818;stroke-width:1.0;" x1="663" x2="704" y1="825.7188" y2="825.7188"/><polygon fill="#181818" points="673,821.7188,663,825.7188,673,829.7188,669,825.7188" style="stroke:#181818;stroke-width:1.0;"/><text fill="#000000" font-family="sans-serif" font-size="13" font-weight="bold" lengthAdjust="spacing" textLength="18" x="669" y="800.0864">18</text><text fill="#000000" font-family="sans-serif" font-size="13" lengthAdjust="spacing" textLength="170" x="691" y="792.52">Display view with selected</text><text fill="#000000" font-family="sans-serif" font-size="13" lengthAdjust="spacing" textLength="166" x="691" y="807.6528">health history information</text><!--SRC=[bLJ1Rjim3BthAuYSNUoUGu4XAUO07RernO01kJ0s4mjLf4oIa_hl9rdsOjaoclbaKtnFV7oaiRPArgSzQLRnak2WbDsh3yQmi4h3uWTgaXQ-m5hvm0BGG8Y50DkhMfQe6rYiAYxAdSovSV7c5wThczs61y4fuZjAFDB9SSQWE3x5RUH1wHDQhcGC71smGachbGY7g_0Xd6B7p6q3-TFNvxSytspVNbv_zy5LldbUCwRf0Ef2EXATJKHbgOgpP3NPk8mitBM4BVsfIHRaNb0NLSXZmulXuJ5raOSAAYmK_WmaKMdWuWwuF495A6m5LIYM9U3_M6yrBU4RMJ0jAvKTBxy9OQFybYAe-0pei-2XltBGmrx5_7s3P4WIhBav2smwl717e0uxEMe1KsSBBsVFYuA1Uv8zZfYVf2Ljm5Ran7btThBGtCKukZgx6FZDyNoprGuxl2LPTi2fJqFneFrW67kZZXiVpU-odvuHtnuDxQGZE_8BINYdvgfqQLhEY231-BCcnr2YnLHwIbj0Q3Arc2axsUKqx6xREyDZwPoCs-cPFKgCd_TuF39mHVSJjAfTAdQNkz4Qp7lBFlTpo3GfR4ZrlxxCUZBwOwLWenIOXVRU-Cx1bRlIxz7o5m00]--></g></svg>