<?xml version="1.0" encoding="us-ascii" standalone="no"?><svg xmlns="http://www.w3.org/2000/svg" xmlns:xlink="http://www.w3.org/1999/xlink" contentStyleType="text/css" height="793px" preserveAspectRatio="none" style="width:870px;height:793px;background:#FFFFFF;" version="1.1" viewBox="0 0 870 793" width="870px" zoomAndPan="magnify"><defs/><g><rect fill="none" height="20.9531" style="stroke:none;stroke-width:1.0;" width="837.5" x="15" y="12.7451"/><rect fill="#F1F1F1" height="47.9375" rx="12.5" ry="12.5" style="stroke:#181818;stroke-width:0.5;" width="87" x="49" y="190.6357"/><text fill="#000000" font-family="sans-serif" font-size="12" lengthAdjust="spacing" textLength="63" x="59" y="211.7744">Enter child</text><text fill="#000000" font-family="sans-serif" font-size="12" lengthAdjust="spacing" textLength="67" x="59" y="225.7432">information</text><polygon fill="#F1F1F1" points="92.5,146.6357,104.5,158.6357,92.5,170.6357,80.5,158.6357,92.5,146.6357" style="stroke:#181818;stroke-width:0.5;"/><rect fill="#F1F1F1" height="47.9375" rx="12.5" ry="12.5" style="stroke:#181818;stroke-width:0.5;" width="134" x="25.5" y="383.2524"/><text fill="#000000" font-family="sans-serif" font-size="12" lengthAdjust="spacing" textLength="114" x="35.5" y="404.3911">Click button "Save"</text><text fill="#000000" font-family="sans-serif" font-size="12" lengthAdjust="spacing" textLength="61" x="35.5" y="418.3599">to confirm</text><line style="stroke:#000000;stroke-width:1.5;" x1="15" x2="15" y1="12.7451" y2="781.0337"/><ellipse cx="356.75" cy="48.6982" fill="#222222" rx="10" ry="10" style="stroke:#222222;stroke-width:1.0;"/><rect fill="#F1F1F1" height="47.9375" rx="12.5" ry="12.5" style="stroke:#181818;stroke-width:0.5;" width="119" x="297.25" y="78.6982"/><text fill="#000000" font-family="sans-serif" font-size="12" lengthAdjust="spacing" textLength="76" x="307.25" y="99.8369">Display child</text><text fill="#000000" font-family="sans-serif" font-size="12" lengthAdjust="spacing" textLength="99" x="307.25" y="113.8057">information view</text><rect fill="#F1F1F1" height="33.9688" rx="12.5" ry="12.5" style="stroke:#181818;stroke-width:0.5;" width="141" x="286.25" y="273.5732"/><text fill="#000000" font-family="sans-serif" font-size="12" lengthAdjust="spacing" textLength="121" x="296.25" y="294.7119">Validate data format</text><polygon fill="#F1F1F1" points="356.75,327.542,356.75,327.542,368.75,339.542,356.75,351.542,356.75,351.542,344.75,339.542,356.75,327.542" style="stroke:#181818;stroke-width:0.5;"/><text fill="#000000" font-family="sans-serif" font-size="11" lengthAdjust="spacing" textLength="57" x="360.75" y="361.7524">Valid data</text><text fill="#000000" font-family="sans-serif" font-size="11" lengthAdjust="spacing" textLength="66" x="368.75" y="336.9478">Invalid data</text><rect fill="#F1F1F1" height="33.9688" rx="12.5" ry="12.5" style="stroke:#181818;stroke-width:0.5;" width="168" x="451.25" y="232.1045"/><text fill="#000000" font-family="sans-serif" font-size="12" lengthAdjust="spacing" textLength="148" x="461.25" y="253.2432">Display error notification</text><rect fill="#F1F1F1" height="33.9688" rx="12.5" ry="12.5" style="stroke:#181818;stroke-width:0.5;" width="172" x="270.75" y="451.1899"/><text fill="#000000" font-family="sans-serif" font-size="12" lengthAdjust="spacing" textLength="152" x="280.75" y="472.3286">Process creating request</text><rect fill="#F1F1F1" height="33.9688" rx="12.5" ry="12.5" style="stroke:#181818;stroke-width:0.5;" width="168" x="174" y="603.1274"/><text fill="#000000" font-family="sans-serif" font-size="12" lengthAdjust="spacing" textLength="148" x="184" y="624.2661">Display error notification</text><rect fill="#F1F1F1" height="47.9375" rx="12.5" ry="12.5" style="stroke:#181818;stroke-width:0.5;" width="187" x="362" y="657.0962"/><text fill="#000000" font-family="sans-serif" font-size="12" lengthAdjust="spacing" textLength="167" x="372" y="678.2349">Display success notification</text><text fill="#000000" font-family="sans-serif" font-size="12" lengthAdjust="spacing" textLength="111" x="372" y="692.2036">and list of children</text><line style="stroke:#000000;stroke-width:1.5;" x1="168" x2="168" y1="12.7451" y2="781.0337"/><rect fill="#F1F1F1" height="33.9688" rx="12.5" ry="12.5" style="stroke:#181818;stroke-width:0.5;" width="98" x="657.25" y="505.1587"/><text fill="#000000" font-family="sans-serif" font-size="12" lengthAdjust="spacing" textLength="78" x="667.25" y="526.2974">Validate data</text><polygon fill="#F1F1F1" points="706.25,559.1274,706.25,559.1274,718.25,571.1274,706.25,583.1274,706.25,583.1274,694.25,571.1274,706.25,559.1274" style="stroke:#181818;stroke-width:0.5;"/><text fill="#000000" font-family="sans-serif" font-size="11" lengthAdjust="spacing" textLength="66" x="628.25" y="568.5332">Invalid data</text><text fill="#000000" font-family="sans-serif" font-size="11" lengthAdjust="spacing" textLength="57" x="718.25" y="568.5332">Valid data</text><rect fill="#F1F1F1" height="33.9688" rx="12.5" ry="12.5" style="stroke:#181818;stroke-width:0.5;" width="83" x="763.5" y="603.1274"/><text fill="#000000" font-family="sans-serif" font-size="12" lengthAdjust="spacing" textLength="63" x="773.5" y="624.2661">Store data</text><polygon fill="#F1F1F1" points="706.25,715.0337,718.25,727.0337,706.25,739.0337,694.25,727.0337,706.25,715.0337" style="stroke:#181818;stroke-width:0.5;"/><ellipse cx="706.25" cy="770.0337" fill="none" rx="11" ry="11" style="stroke:#222222;stroke-width:1.0;"/><ellipse cx="706.25" cy="770.0337" fill="#222222" rx="6" ry="6" style="stroke:#222222;stroke-width:1.0;"/><line style="stroke:#000000;stroke-width:1.5;" x1="623.25" x2="623.25" y1="12.7451" y2="781.0337"/><line style="stroke:#000000;stroke-width:1.5;" x1="850.5" x2="850.5" y1="12.7451" y2="781.0337"/><line style="stroke:#181818;stroke-width:1.0;" x1="92.5" x2="92.5" y1="170.6357" y2="190.6357"/><polygon fill="#181818" points="88.5,180.6357,92.5,190.6357,96.5,180.6357,92.5,184.6357" style="stroke:#181818;stroke-width:1.0;"/><line style="stroke:#181818;stroke-width:1.0;" x1="356.75" x2="356.75" y1="58.6982" y2="78.6982"/><polygon fill="#181818" points="352.75,68.6982,356.75,78.6982,360.75,68.6982,356.75,72.6982" style="stroke:#181818;stroke-width:1.0;"/><line style="stroke:#181818;stroke-width:1.0;" x1="368.75" x2="535.25" y1="339.542" y2="339.542"/><line style="stroke:#181818;stroke-width:1.0;" x1="535.25" x2="535.25" y1="266.0732" y2="339.542"/><polygon fill="#181818" points="531.25,276.0732,535.25,266.0732,539.25,276.0732,535.25,272.0732" style="stroke:#181818;stroke-width:1.0;"/><line style="stroke:#181818;stroke-width:1.0;" x1="356.75" x2="356.75" y1="307.542" y2="327.542"/><polygon fill="#181818" points="352.75,317.542,356.75,327.542,360.75,317.542,356.75,321.542" style="stroke:#181818;stroke-width:1.0;"/><line style="stroke:#181818;stroke-width:1.0;" x1="718.25" x2="805" y1="571.1274" y2="571.1274"/><line style="stroke:#181818;stroke-width:1.0;" x1="805" x2="805" y1="571.1274" y2="603.1274"/><polygon fill="#181818" points="801,593.1274,805,603.1274,809,593.1274,805,597.1274" style="stroke:#181818;stroke-width:1.0;"/><line style="stroke:#181818;stroke-width:1.0;" x1="706.25" x2="706.25" y1="539.1274" y2="559.1274"/><polygon fill="#181818" points="702.25,549.1274,706.25,559.1274,710.25,549.1274,706.25,553.1274" style="stroke:#181818;stroke-width:1.0;"/><line style="stroke:#181818;stroke-width:1.0;" x1="706.25" x2="706.25" y1="739.0337" y2="759.0337"/><polygon fill="#181818" points="702.25,749.0337,706.25,759.0337,710.25,749.0337,706.25,753.0337" style="stroke:#181818;stroke-width:1.0;"/><line style="stroke:#181818;stroke-width:1.0;" x1="92.5" x2="92.5" y1="238.5732" y2="256.0732"/><line style="stroke:#181818;stroke-width:1.0;" x1="92.5" x2="356.75" y1="256.0732" y2="256.0732"/><line style="stroke:#181818;stroke-width:1.0;" x1="356.75" x2="356.75" y1="256.0732" y2="273.5732"/><polygon fill="#181818" points="352.75,263.5732,356.75,273.5732,360.75,263.5732,356.75,267.5732" style="stroke:#181818;stroke-width:1.0;"/><line style="stroke:#181818;stroke-width:1.0;" x1="535.25" x2="535.25" y1="158.6357" y2="232.1045"/><line style="stroke:#181818;stroke-width:1.0;" x1="535.25" x2="104.5" y1="158.6357" y2="158.6357"/><polygon fill="#181818" points="114.5,154.6357,104.5,158.6357,114.5,162.6357,110.5,158.6357" style="stroke:#181818;stroke-width:1.0;"/><line style="stroke:#181818;stroke-width:1.0;" x1="356.75" x2="356.75" y1="126.6357" y2="131.6357"/><line style="stroke:#181818;stroke-width:1.0;" x1="356.75" x2="92.5" y1="131.6357" y2="131.6357"/><line style="stroke:#181818;stroke-width:1.0;" x1="92.5" x2="92.5" y1="131.6357" y2="146.6357"/><polygon fill="#181818" points="88.5,136.6357,92.5,146.6357,96.5,136.6357,92.5,140.6357" style="stroke:#181818;stroke-width:1.0;"/><line style="stroke:#181818;stroke-width:1.0;" x1="356.75" x2="356.75" y1="351.542" y2="368.2524"/><line style="stroke:#181818;stroke-width:1.0;" x1="356.75" x2="92.5" y1="368.2524" y2="368.2524"/><line style="stroke:#181818;stroke-width:1.0;" x1="92.5" x2="92.5" y1="368.2524" y2="383.2524"/><polygon fill="#181818" points="88.5,373.2524,92.5,383.2524,96.5,373.2524,92.5,377.2524" style="stroke:#181818;stroke-width:1.0;"/><line style="stroke:#181818;stroke-width:1.0;" x1="92.5" x2="92.5" y1="431.1899" y2="436.1899"/><line style="stroke:#181818;stroke-width:1.0;" x1="92.5" x2="356.75" y1="436.1899" y2="436.1899"/><line style="stroke:#181818;stroke-width:1.0;" x1="356.75" x2="356.75" y1="436.1899" y2="451.1899"/><polygon fill="#181818" points="352.75,441.1899,356.75,451.1899,360.75,441.1899,356.75,445.1899" style="stroke:#181818;stroke-width:1.0;"/><line style="stroke:#181818;stroke-width:1.0;" x1="356.75" x2="356.75" y1="485.1587" y2="490.1587"/><line style="stroke:#181818;stroke-width:1.0;" x1="356.75" x2="706.25" y1="490.1587" y2="490.1587"/><line style="stroke:#181818;stroke-width:1.0;" x1="706.25" x2="706.25" y1="490.1587" y2="505.1587"/><polygon fill="#181818" points="702.25,495.1587,706.25,505.1587,710.25,495.1587,706.25,499.1587" style="stroke:#181818;stroke-width:1.0;"/><line style="stroke:#181818;stroke-width:1.0;" x1="805" x2="805" y1="637.0962" y2="642.0962"/><line style="stroke:#181818;stroke-width:1.0;" x1="805" x2="455.5" y1="642.0962" y2="642.0962"/><line style="stroke:#181818;stroke-width:1.0;" x1="455.5" x2="455.5" y1="642.0962" y2="657.0962"/><polygon fill="#181818" points="451.5,647.0962,455.5,657.0962,459.5,647.0962,455.5,651.0962" style="stroke:#181818;stroke-width:1.0;"/><line style="stroke:#181818;stroke-width:1.0;" x1="694.25" x2="258" y1="571.1274" y2="571.1274"/><line style="stroke:#181818;stroke-width:1.0;" x1="258" x2="258" y1="571.1274" y2="603.1274"/><polygon fill="#181818" points="254,593.1274,258,603.1274,262,593.1274,258,597.1274" style="stroke:#181818;stroke-width:1.0;"/><line style="stroke:#181818;stroke-width:1.0;" x1="258" x2="258" y1="637.0962" y2="727.0337"/><line style="stroke:#181818;stroke-width:1.0;" x1="258" x2="694.25" y1="727.0337" y2="727.0337"/><polygon fill="#181818" points="684.25,723.0337,694.25,727.0337,684.25,731.0337,688.25,727.0337" style="stroke:#181818;stroke-width:1.0;"/><line style="stroke:#181818;stroke-width:1.0;" x1="455.5" x2="455.5" y1="705.0337" y2="709.0337"/><line style="stroke:#181818;stroke-width:1.0;" x1="455.5" x2="736.25" y1="709.0337" y2="709.0337"/><line style="stroke:#181818;stroke-width:1.0;" x1="736.25" x2="736.25" y1="709.0337" y2="727.0337"/><line style="stroke:#181818;stroke-width:1.0;" x1="736.25" x2="718.25" y1="727.0337" y2="727.0337"/><polygon fill="#181818" points="728.25,723.0337,718.25,727.0337,728.25,731.0337,724.25,727.0337" style="stroke:#181818;stroke-width:1.0;"/><text fill="#000000" font-family="sans-serif" font-size="18" lengthAdjust="spacing" textLength="143" x="20" y="29.4531">Parent / Doctor</text><text fill="#000000" font-family="sans-serif" font-size="18" lengthAdjust="spacing" textLength="69" x="361.125" y="29.4531">System</text><text fill="#000000" font-family="sans-serif" font-size="18" lengthAdjust="spacing" textLength="88" x="692.875" y="29.4531">Database</text><!--SRC=[VP4nRy8m48Lt_ueJ4qpTOImTkY55OifoSIxbH3YdvqiYfFpuEWaj510UFDZFttllFEnGIGpUO1ky1HtSa9sZqMbmBXggkVMMOrFZ6Vo1wp8NbYhe2Os3GCVKRvnJQWZDGLh30syyNN-8aJuXREP7lvQJTeyrbsW4QKEOfREkG7_iKKluoqIgGK62SSN-GfpJG9_C29Ohu0ZBJ-b6weHSZNfOxgy7hvA_r-oFKBHcgUyYmuuMkLW07wHYFJqhiDFWAKRmcdAmV87ITqlnKcBO9ii28pshEqku6dFRWUGk-NJxO3XXNara550TwR7q_q00LrwMHd2RwRLhRFrK-TOt5vGIQeu6ePh_FWtuIYCfkReVIRJG_000]--></g></svg>