<?xml version="1.0" encoding="us-ascii" standalone="no"?><svg xmlns="http://www.w3.org/2000/svg" xmlns:xlink="http://www.w3.org/1999/xlink" contentStyleType="text/css" height="752px" preserveAspectRatio="none" style="width:1046px;height:752px;background:#FFFFFF;" version="1.1" viewBox="0 0 1046 752" width="1046px" zoomAndPan="magnify"><defs/><g><rect fill="none" height="20.9531" style="stroke:none;stroke-width:1.0;" width="1013.125" x="15" y="12.7451"/><ellipse cx="228.375" cy="48.6982" fill="#222222" rx="10" ry="10" style="stroke:#222222;stroke-width:1.0;"/><rect fill="#F1F1F1" height="47.9375" rx="12.5" ry="12.5" style="stroke:#181818;stroke-width:0.5;" width="120" x="168.375" y="78.6982"/><text fill="#000000" font-family="sans-serif" font-size="12" lengthAdjust="spacing" textLength="100" x="178.375" y="99.8369">Execute "Activity</text><text fill="#000000" font-family="sans-serif" font-size="12" lengthAdjust="spacing" textLength="80" x="178.375" y="113.8057">Search Child"</text><rect fill="#F1F1F1" height="47.9375" rx="12.5" ry="12.5" style="stroke:#181818;stroke-width:0.5;" width="111" x="172.875" y="146.6357"/><text fill="#000000" font-family="sans-serif" font-size="12" lengthAdjust="spacing" textLength="70" x="182.875" y="167.7744">Select child</text><text fill="#000000" font-family="sans-serif" font-size="12" lengthAdjust="spacing" textLength="91" x="182.875" y="181.7432">needs deleting</text><rect fill="#F1F1F1" height="33.9688" rx="12.5" ry="12.5" style="stroke:#181818;stroke-width:0.5;" width="144" x="21" y="326.5107"/><text fill="#000000" font-family="sans-serif" font-size="12" lengthAdjust="spacing" textLength="124" x="31" y="347.6494">Click "Cancel" button</text><ellipse cx="93" cy="390.4795" fill="none" rx="10" ry="10" style="stroke:#222222;stroke-width:1.5;"/><line style="stroke:#222222;stroke-width:2.5;" x1="86.8128" x2="99.1872" y1="384.2923" y2="396.6667"/><line style="stroke:#222222;stroke-width:2.5;" x1="99.1872" x2="86.8128" y1="384.2923" y2="396.6667"/><rect fill="#F1F1F1" height="33.9688" rx="12.5" ry="12.5" style="stroke:#181818;stroke-width:0.5;" width="150" x="288.75" y="326.5107"/><text fill="#000000" font-family="sans-serif" font-size="12" lengthAdjust="spacing" textLength="130" x="298.75" y="347.6494">Click "Confirm" button</text><line style="stroke:#000000;stroke-width:1.5;" x1="15" x2="15" y1="12.7451" y2="740.292"/><rect fill="#F1F1F1" height="47.9375" rx="12.5" ry="12.5" style="stroke:#181818;stroke-width:0.5;" width="142" x="448.75" y="214.5732"/><text fill="#000000" font-family="sans-serif" font-size="12" lengthAdjust="spacing" textLength="122" x="458.75" y="235.7119">Display confirmation</text><text fill="#000000" font-family="sans-serif" font-size="12" lengthAdjust="spacing" textLength="79" x="458.75" y="249.6807">messagebox</text><polygon fill="#F1F1F1" points="519.75,282.5107,519.75,282.5107,531.75,294.5107,519.75,306.5107,519.75,306.5107,507.75,294.5107,519.75,282.5107" style="stroke:#181818;stroke-width:0.5;"/><text fill="#000000" font-family="sans-serif" font-size="11" lengthAdjust="spacing" textLength="39" x="468.75" y="291.9165">Cancel</text><text fill="#000000" font-family="sans-serif" font-size="11" lengthAdjust="spacing" textLength="44" x="531.75" y="291.9165">Confirm</text><rect fill="#F1F1F1" height="33.9688" rx="12.5" ry="12.5" style="stroke:#181818;stroke-width:0.5;" width="172" x="569.125" y="380.4795"/><text fill="#000000" font-family="sans-serif" font-size="12" lengthAdjust="spacing" textLength="152" x="579.125" y="401.6182">Process deleting request</text><rect fill="#F1F1F1" height="33.9688" rx="12.5" ry="12.5" style="stroke:#181818;stroke-width:0.5;" width="168" x="486.375" y="532.417"/><text fill="#000000" font-family="sans-serif" font-size="12" lengthAdjust="spacing" textLength="148" x="496.375" y="553.5557">Display error notification</text><rect fill="#F1F1F1" height="61.9063" rx="12.5" ry="12.5" style="stroke:#181818;stroke-width:0.5;" width="131" x="674.375" y="586.3857"/><text fill="#000000" font-family="sans-serif" font-size="12" lengthAdjust="spacing" textLength="98" x="684.375" y="607.5244">Display success</text><text fill="#000000" font-family="sans-serif" font-size="12" lengthAdjust="spacing" textLength="65" x="684.375" y="621.4932">notification</text><text fill="#000000" font-family="sans-serif" font-size="12" lengthAdjust="spacing" textLength="111" x="684.375" y="635.4619">and list of children</text><line style="stroke:#000000;stroke-width:1.5;" x1="442.75" x2="442.75" y1="12.7451" y2="740.292"/><rect fill="#F1F1F1" height="33.9688" rx="12.5" ry="12.5" style="stroke:#181818;stroke-width:0.5;" width="98" x="843.375" y="434.4482"/><text fill="#000000" font-family="sans-serif" font-size="12" lengthAdjust="spacing" textLength="78" x="853.375" y="455.5869">Validate data</text><polygon fill="#F1F1F1" points="892.375,488.417,892.375,488.417,904.375,500.417,892.375,512.417,892.375,512.417,880.375,500.417,892.375,488.417" style="stroke:#181818;stroke-width:0.5;"/><text fill="#000000" font-family="sans-serif" font-size="11" lengthAdjust="spacing" textLength="66" x="814.375" y="497.8228">Invalid data</text><text fill="#000000" font-family="sans-serif" font-size="11" lengthAdjust="spacing" textLength="57" x="904.375" y="497.8228">Valid data</text><rect fill="#F1F1F1" height="33.9688" rx="12.5" ry="12.5" style="stroke:#181818;stroke-width:0.5;" width="90" x="932.125" y="532.417"/><text fill="#000000" font-family="sans-serif" font-size="12" lengthAdjust="spacing" textLength="70" x="942.125" y="553.5557">Delete data</text><polygon fill="#F1F1F1" points="892.375,658.292,904.375,670.292,892.375,682.292,880.375,670.292,892.375,658.292" style="stroke:#181818;stroke-width:0.5;"/><ellipse cx="892.375" cy="713.292" fill="none" rx="11" ry="11" style="stroke:#222222;stroke-width:1.0;"/><ellipse cx="892.375" cy="713.292" fill="#222222" rx="6" ry="6" style="stroke:#222222;stroke-width:1.0;"/><line style="stroke:#000000;stroke-width:1.5;" x1="809.375" x2="809.375" y1="12.7451" y2="740.292"/><line style="stroke:#000000;stroke-width:1.5;" x1="1026.125" x2="1026.125" y1="12.7451" y2="740.292"/><line style="stroke:#181818;stroke-width:1.0;" x1="228.375" x2="228.375" y1="58.6982" y2="78.6982"/><polygon fill="#181818" points="224.375,68.6982,228.375,78.6982,232.375,68.6982,228.375,72.6982" style="stroke:#181818;stroke-width:1.0;"/><line style="stroke:#181818;stroke-width:1.0;" x1="228.375" x2="228.375" y1="126.6357" y2="146.6357"/><polygon fill="#181818" points="224.375,136.6357,228.375,146.6357,232.375,136.6357,228.375,140.6357" style="stroke:#181818;stroke-width:1.0;"/><line style="stroke:#181818;stroke-width:1.0;" x1="93" x2="93" y1="360.4795" y2="380.4795"/><polygon fill="#181818" points="89,370.4795,93,380.4795,97,370.4795,93,374.4795" style="stroke:#181818;stroke-width:1.0;"/><line style="stroke:#181818;stroke-width:1.0;" x1="519.75" x2="519.75" y1="262.5107" y2="282.5107"/><polygon fill="#181818" points="515.75,272.5107,519.75,282.5107,523.75,272.5107,519.75,276.5107" style="stroke:#181818;stroke-width:1.0;"/><line style="stroke:#181818;stroke-width:1.0;" x1="904.375" x2="977.125" y1="500.417" y2="500.417"/><line style="stroke:#181818;stroke-width:1.0;" x1="977.125" x2="977.125" y1="500.417" y2="532.417"/><polygon fill="#181818" points="973.125,522.417,977.125,532.417,981.125,522.417,977.125,526.417" style="stroke:#181818;stroke-width:1.0;"/><line style="stroke:#181818;stroke-width:1.0;" x1="892.375" x2="892.375" y1="468.417" y2="488.417"/><polygon fill="#181818" points="888.375,478.417,892.375,488.417,896.375,478.417,892.375,482.417" style="stroke:#181818;stroke-width:1.0;"/><line style="stroke:#181818;stroke-width:1.0;" x1="892.375" x2="892.375" y1="682.292" y2="702.292"/><polygon fill="#181818" points="888.375,692.292,892.375,702.292,896.375,692.292,892.375,696.292" style="stroke:#181818;stroke-width:1.0;"/><line style="stroke:#181818;stroke-width:1.0;" x1="228.375" x2="228.375" y1="194.5732" y2="199.5732"/><line style="stroke:#181818;stroke-width:1.0;" x1="228.375" x2="519.75" y1="199.5732" y2="199.5732"/><line style="stroke:#181818;stroke-width:1.0;" x1="519.75" x2="519.75" y1="199.5732" y2="214.5732"/><polygon fill="#181818" points="515.75,204.5732,519.75,214.5732,523.75,204.5732,519.75,208.5732" style="stroke:#181818;stroke-width:1.0;"/><line style="stroke:#181818;stroke-width:1.0;" x1="363.75" x2="363.75" y1="360.4795" y2="365.4795"/><line style="stroke:#181818;stroke-width:1.0;" x1="363.75" x2="655.125" y1="365.4795" y2="365.4795"/><line style="stroke:#181818;stroke-width:1.0;" x1="655.125" x2="655.125" y1="365.4795" y2="380.4795"/><polygon fill="#181818" points="651.125,370.4795,655.125,380.4795,659.125,370.4795,655.125,374.4795" style="stroke:#181818;stroke-width:1.0;"/><line style="stroke:#181818;stroke-width:1.0;" x1="655.125" x2="655.125" y1="414.4482" y2="419.4482"/><line style="stroke:#181818;stroke-width:1.0;" x1="655.125" x2="892.375" y1="419.4482" y2="419.4482"/><line style="stroke:#181818;stroke-width:1.0;" x1="892.375" x2="892.375" y1="419.4482" y2="434.4482"/><polygon fill="#181818" points="888.375,424.4482,892.375,434.4482,896.375,424.4482,892.375,428.4482" style="stroke:#181818;stroke-width:1.0;"/><line style="stroke:#181818;stroke-width:1.0;" x1="977.125" x2="977.125" y1="566.3857" y2="571.3857"/><line style="stroke:#181818;stroke-width:1.0;" x1="977.125" x2="739.875" y1="571.3857" y2="571.3857"/><line style="stroke:#181818;stroke-width:1.0;" x1="739.875" x2="739.875" y1="571.3857" y2="586.3857"/><polygon fill="#181818" points="735.875,576.3857,739.875,586.3857,743.875,576.3857,739.875,580.3857" style="stroke:#181818;stroke-width:1.0;"/><line style="stroke:#181818;stroke-width:1.0;" x1="880.375" x2="570.375" y1="500.417" y2="500.417"/><line style="stroke:#181818;stroke-width:1.0;" x1="570.375" x2="570.375" y1="500.417" y2="532.417"/><polygon fill="#181818" points="566.375,522.417,570.375,532.417,574.375,522.417,570.375,526.417" style="stroke:#181818;stroke-width:1.0;"/><line style="stroke:#181818;stroke-width:1.0;" x1="570.375" x2="570.375" y1="566.3857" y2="670.292"/><line style="stroke:#181818;stroke-width:1.0;" x1="570.375" x2="880.375" y1="670.292" y2="670.292"/><polygon fill="#181818" points="870.375,666.292,880.375,670.292,870.375,674.292,874.375,670.292" style="stroke:#181818;stroke-width:1.0;"/><line style="stroke:#181818;stroke-width:1.0;" x1="739.875" x2="739.875" y1="648.292" y2="652.292"/><line style="stroke:#181818;stroke-width:1.0;" x1="739.875" x2="922.375" y1="652.292" y2="652.292"/><line style="stroke:#181818;stroke-width:1.0;" x1="922.375" x2="922.375" y1="652.292" y2="670.292"/><line style="stroke:#181818;stroke-width:1.0;" x1="922.375" x2="904.375" y1="670.292" y2="670.292"/><polygon fill="#181818" points="914.375,666.292,904.375,670.292,914.375,674.292,910.375,670.292" style="stroke:#181818;stroke-width:1.0;"/><line style="stroke:#181818;stroke-width:1.0;" x1="507.75" x2="93" y1="294.5107" y2="294.5107"/><line style="stroke:#181818;stroke-width:1.0;" x1="93" x2="93" y1="294.5107" y2="326.5107"/><polygon fill="#181818" points="89,316.5107,93,326.5107,97,316.5107,93,320.5107" style="stroke:#181818;stroke-width:1.0;"/><line style="stroke:#181818;stroke-width:1.0;" x1="531.75" x2="543.75" y1="294.5107" y2="294.5107"/><line style="stroke:#181818;stroke-width:1.0;" x1="543.75" x2="543.75" y1="294.5107" y2="312.5107"/><line style="stroke:#181818;stroke-width:1.0;" x1="543.75" x2="363.75" y1="312.5107" y2="312.5107"/><line style="stroke:#181818;stroke-width:1.0;" x1="363.75" x2="363.75" y1="312.5107" y2="326.5107"/><polygon fill="#181818" points="359.75,316.5107,363.75,326.5107,367.75,316.5107,363.75,320.5107" style="stroke:#181818;stroke-width:1.0;"/><text fill="#000000" font-family="sans-serif" font-size="18" lengthAdjust="spacing" textLength="143" x="157.375" y="29.4531">Parent / Doctor</text><text fill="#000000" font-family="sans-serif" font-size="18" lengthAdjust="spacing" textLength="69" x="591.5625" y="29.4531">System</text><text fill="#000000" font-family="sans-serif" font-size="18" lengthAdjust="spacing" textLength="88" x="873.75" y="29.4531">Database</text><!--SRC=[ZLAnRi8m4Dtz5QTCC7LFfWewT4D2OifoSIvmgZc3VK4WvUFhE1HegQfwiEIxftVllVEmma2Yy09BRzM7mKJ5eAPyEvFjbQ1ujSedraijQy9WTx3OiMkBofHhScGLxFYkHOZQ26sgASksCiFw4fNsWocN70yEBs2zT1psgEobbZt5Y5jg_Bc2V0ntC9k3xaXWja2nvEPcR0nF6iTgkN1iFw2Oa0KqlQgNAlT8MaCkKkAPPlwBQ89-PxgvoCXLy3R9lhc4GCUUebwnIrHiCD8LlK77BQOCquKJvD7Ykvn6GEvE-fu6Pfgl-2W47q2ySiSsXtWrcurkVkEw2Khftlb6yO-Y_XuRUpjwJWj-c5mBIWkEeuBlfX-GahtJfGLmzpEKgFxm2G00]--></g></svg>