<?xml version="1.0" encoding="us-ascii" standalone="no"?><svg xmlns="http://www.w3.org/2000/svg" xmlns:xlink="http://www.w3.org/1999/xlink" contentStyleType="text/css" height="408px" preserveAspectRatio="none" style="width:707px;height:408px;background:#FFFFFF;" version="1.1" viewBox="0 0 707 408" width="707px" zoomAndPan="magnify"><defs/><g><rect fill="none" height="20.9531" style="stroke:none;stroke-width:1.0;" width="674.5" x="15" y="12.7451"/><rect fill="#F1F1F1" height="33.9688" rx="12.5" ry="12.5" style="stroke:#181818;stroke-width:0.5;" width="117" x="171.75" y="146.6357"/><text fill="#000000" font-family="sans-serif" font-size="12" lengthAdjust="spacing" textLength="97" x="181.75" y="167.7744">Choose function</text><polygon fill="#F1F1F1" points="52.5,205.3081,52.5,205.3081,64.5,217.3081,52.5,229.3081,52.5,229.3081,40.5,217.3081,52.5,205.3081" style="stroke:#181818;stroke-width:0.5;"/><text fill="#000000" font-family="sans-serif" font-size="11" lengthAdjust="spacing" textLength="39" x="56.5" y="239.5186">Create</text><rect fill="#F1F1F1" height="61.9063" rx="12.5" ry="12.5" style="stroke:#181818;stroke-width:0.5;" width="63" x="21" y="262.1128"/><text fill="#000000" font-family="sans-serif" font-size="12" lengthAdjust="spacing" textLength="43" x="31" y="283.2515">Activity</text><text fill="#000000" font-family="sans-serif" font-size="12" lengthAdjust="spacing" textLength="40" x="31" y="297.2202">Create</text><text fill="#000000" font-family="sans-serif" font-size="12" lengthAdjust="spacing" textLength="29" x="31" y="311.189">Child</text><polygon fill="#F1F1F1" points="137.5,205.3081,137.5,205.3081,149.5,217.3081,137.5,229.3081,137.5,229.3081,125.5,217.3081,137.5,205.3081" style="stroke:#181818;stroke-width:0.5;"/><text fill="#000000" font-family="sans-serif" font-size="11" lengthAdjust="spacing" textLength="41" x="141.5" y="239.5186">Update</text><rect fill="#F1F1F1" height="61.9063" rx="12.5" ry="12.5" style="stroke:#181818;stroke-width:0.5;" width="64" x="105.5" y="262.1128"/><text fill="#000000" font-family="sans-serif" font-size="12" lengthAdjust="spacing" textLength="43" x="115.5" y="283.2515">Activity</text><text fill="#000000" font-family="sans-serif" font-size="12" lengthAdjust="spacing" textLength="44" x="115.5" y="297.2202">Update</text><text fill="#000000" font-family="sans-serif" font-size="12" lengthAdjust="spacing" textLength="29" x="115.5" y="311.189">Child</text><polygon fill="#F1F1F1" points="230,205.3081,230,205.3081,242,217.3081,230,229.3081,230,229.3081,218,217.3081,230,205.3081" style="stroke:#181818;stroke-width:0.5;"/><text fill="#000000" font-family="sans-serif" font-size="11" lengthAdjust="spacing" textLength="40" x="234" y="239.5186">Delete</text><rect fill="#F1F1F1" height="61.9063" rx="12.5" ry="12.5" style="stroke:#181818;stroke-width:0.5;" width="63" x="198.5" y="262.1128"/><text fill="#000000" font-family="sans-serif" font-size="12" lengthAdjust="spacing" textLength="43" x="208.5" y="283.2515">Activity</text><text fill="#000000" font-family="sans-serif" font-size="12" lengthAdjust="spacing" textLength="40" x="208.5" y="297.2202">Delete</text><text fill="#000000" font-family="sans-serif" font-size="12" lengthAdjust="spacing" textLength="29" x="208.5" y="311.189">Child</text><polygon fill="#F1F1F1" points="321.5,205.3081,321.5,205.3081,333.5,217.3081,321.5,229.3081,321.5,229.3081,309.5,217.3081,321.5,205.3081" style="stroke:#181818;stroke-width:0.5;"/><text fill="#000000" font-family="sans-serif" font-size="11" lengthAdjust="spacing" textLength="40" x="325.5" y="239.5186">Search</text><text fill="#000000" font-family="sans-serif" font-size="11" lengthAdjust="spacing" textLength="69" x="333.5" y="201.9092">View Health</text><text fill="#000000" font-family="sans-serif" font-size="11" lengthAdjust="spacing" textLength="84" x="333.5" y="214.7139">Update History</text><rect fill="#F1F1F1" height="61.9063" rx="12.5" ry="12.5" style="stroke:#181818;stroke-width:0.5;" width="63" x="290" y="262.1128"/><text fill="#000000" font-family="sans-serif" font-size="12" lengthAdjust="spacing" textLength="43" x="300" y="283.2515">Activity</text><text fill="#000000" font-family="sans-serif" font-size="12" lengthAdjust="spacing" textLength="42" x="300" y="297.2202">Search</text><text fill="#000000" font-family="sans-serif" font-size="12" lengthAdjust="spacing" textLength="29" x="300" y="311.189">Child</text><rect fill="#F1F1F1" height="89.8438" rx="12.5" ry="12.5" style="stroke:#181818;stroke-width:0.5;" width="64" x="381.5" y="244.7417"/><text fill="#000000" font-family="sans-serif" font-size="12" lengthAdjust="spacing" textLength="43" x="391.5" y="265.8804">Activity</text><text fill="#000000" font-family="sans-serif" font-size="12" lengthAdjust="spacing" textLength="29" x="391.5" y="279.8491">View</text><text fill="#000000" font-family="sans-serif" font-size="12" lengthAdjust="spacing" textLength="38" x="391.5" y="293.8179">Health</text><text fill="#000000" font-family="sans-serif" font-size="12" lengthAdjust="spacing" textLength="44" x="391.5" y="307.7866">Update</text><text fill="#000000" font-family="sans-serif" font-size="12" lengthAdjust="spacing" textLength="43" x="391.5" y="321.7554">History</text><line style="stroke:#000000;stroke-width:1.5;" x1="15" x2="15" y1="12.7451" y2="396.5854"/><ellipse cx="520.5" cy="48.6982" fill="#222222" rx="10" ry="10" style="stroke:#222222;stroke-width:1.0;"/><rect fill="#F1F1F1" height="47.9375" rx="12.5" ry="12.5" style="stroke:#181818;stroke-width:0.5;" width="130" x="455.5" y="78.6982"/><text fill="#000000" font-family="sans-serif" font-size="12" lengthAdjust="spacing" textLength="76" x="465.5" y="99.8369">Display child</text><text fill="#000000" font-family="sans-serif" font-size="12" lengthAdjust="spacing" textLength="110" x="465.5" y="113.8057">management view</text><ellipse cx="520.5" cy="385.5854" fill="none" rx="11" ry="11" style="stroke:#222222;stroke-width:1.0;"/><ellipse cx="520.5" cy="385.5854" fill="#222222" rx="6" ry="6" style="stroke:#222222;stroke-width:1.0;"/><line style="stroke:#000000;stroke-width:1.5;" x1="449.5" x2="449.5" y1="12.7451" y2="396.5854"/><line style="stroke:#000000;stroke-width:1.5;" x1="589.5" x2="589.5" y1="12.7451" y2="396.5854"/><line style="stroke:#000000;stroke-width:1.5;" x1="687.5" x2="687.5" y1="12.7451" y2="396.5854"/><line style="stroke:#181818;stroke-width:1.0;" x1="52.5" x2="52.5" y1="229.3081" y2="262.1128"/><polygon fill="#181818" points="48.5,252.1128,52.5,262.1128,56.5,252.1128,52.5,256.1128" style="stroke:#181818;stroke-width:1.0;"/><line style="stroke:#181818;stroke-width:1.0;" x1="52.5" x2="52.5" y1="324.019" y2="354.5854"/><polygon fill="#181818" points="48.5,344.5854,52.5,354.5854,56.5,344.5854,52.5,348.5854" style="stroke:#181818;stroke-width:1.0;"/><line style="stroke:#181818;stroke-width:1.0;" x1="137.5" x2="137.5" y1="229.3081" y2="262.1128"/><polygon fill="#181818" points="133.5,252.1128,137.5,262.1128,141.5,252.1128,137.5,256.1128" style="stroke:#181818;stroke-width:1.0;"/><line style="stroke:#181818;stroke-width:1.0;" x1="137.5" x2="137.5" y1="324.019" y2="354.5854"/><polygon fill="#181818" points="133.5,344.5854,137.5,354.5854,141.5,344.5854,137.5,348.5854" style="stroke:#181818;stroke-width:1.0;"/><line style="stroke:#181818;stroke-width:1.0;" x1="230" x2="230" y1="229.3081" y2="262.1128"/><polygon fill="#181818" points="226,252.1128,230,262.1128,234,252.1128,230,256.1128" style="stroke:#181818;stroke-width:1.0;"/><line style="stroke:#181818;stroke-width:1.0;" x1="230" x2="230" y1="324.019" y2="354.5854"/><polygon fill="#181818" points="226,344.5854,230,354.5854,234,344.5854,230,348.5854" style="stroke:#181818;stroke-width:1.0;"/><line style="stroke:#181818;stroke-width:1.0;" x1="321.5" x2="321.5" y1="229.3081" y2="262.1128"/><polygon fill="#181818" points="317.5,252.1128,321.5,262.1128,325.5,252.1128,321.5,256.1128" style="stroke:#181818;stroke-width:1.0;"/><line style="stroke:#181818;stroke-width:1.0;" x1="321.5" x2="321.5" y1="324.019" y2="354.5854"/><polygon fill="#181818" points="317.5,344.5854,321.5,354.5854,325.5,344.5854,321.5,348.5854" style="stroke:#181818;stroke-width:1.0;"/><line style="stroke:#181818;stroke-width:1.0;" x1="64.5" x2="125.5" y1="217.3081" y2="217.3081"/><polygon fill="#181818" points="115.5,213.3081,125.5,217.3081,115.5,221.3081,119.5,217.3081" style="stroke:#181818;stroke-width:1.0;"/><line style="stroke:#181818;stroke-width:1.0;" x1="149.5" x2="218" y1="217.3081" y2="217.3081"/><polygon fill="#181818" points="208,213.3081,218,217.3081,208,221.3081,212,217.3081" style="stroke:#181818;stroke-width:1.0;"/><line style="stroke:#181818;stroke-width:1.0;" x1="242" x2="309.5" y1="217.3081" y2="217.3081"/><polygon fill="#181818" points="299.5,213.3081,309.5,217.3081,299.5,221.3081,303.5,217.3081" style="stroke:#181818;stroke-width:1.0;"/><line style="stroke:#181818;stroke-width:1.0;" x1="230.25" x2="230.25" y1="180.6045" y2="185.6045"/><line style="stroke:#181818;stroke-width:1.0;" x1="230.25" x2="52.5" y1="185.6045" y2="185.6045"/><line style="stroke:#181818;stroke-width:1.0;" x1="52.5" x2="52.5" y1="185.6045" y2="205.3081"/><polygon fill="#181818" points="48.5,195.3081,52.5,205.3081,56.5,195.3081,52.5,199.3081" style="stroke:#181818;stroke-width:1.0;"/><line style="stroke:#181818;stroke-width:1.0;" x1="333.5" x2="413.5" y1="217.3081" y2="217.3081"/><line style="stroke:#181818;stroke-width:1.0;" x1="413.5" x2="413.5" y1="217.3081" y2="244.7417"/><polygon fill="#181818" points="409.5,234.7417,413.5,244.7417,417.5,234.7417,413.5,238.7417" style="stroke:#181818;stroke-width:1.0;"/><line style="stroke:#181818;stroke-width:1.0;" x1="413.5" x2="413.5" y1="334.5854" y2="354.5854"/><polygon fill="#181818" points="409.5,344.5854,413.5,354.5854,417.5,344.5854,413.5,348.5854" style="stroke:#181818;stroke-width:1.0;"/><line style="stroke:#181818;stroke-width:1.0;" x1="52.5" x2="413.5" y1="354.5854" y2="354.5854"/><line style="stroke:#181818;stroke-width:1.0;" x1="520.5" x2="520.5" y1="58.6982" y2="78.6982"/><polygon fill="#181818" points="516.5,68.6982,520.5,78.6982,524.5,68.6982,520.5,72.6982" style="stroke:#181818;stroke-width:1.0;"/><line style="stroke:#181818;stroke-width:1.0;" x1="520.5" x2="520.5" y1="126.6357" y2="131.6357"/><line style="stroke:#181818;stroke-width:1.0;" x1="520.5" x2="230.25" y1="131.6357" y2="131.6357"/><line style="stroke:#181818;stroke-width:1.0;" x1="230.25" x2="230.25" y1="131.6357" y2="146.6357"/><polygon fill="#181818" points="226.25,136.6357,230.25,146.6357,234.25,136.6357,230.25,140.6357" style="stroke:#181818;stroke-width:1.0;"/><line style="stroke:#181818;stroke-width:1.0;" x1="230.25" x2="230.25" y1="354.5854" y2="359.5854"/><line style="stroke:#181818;stroke-width:1.0;" x1="230.25" x2="520.5" y1="359.5854" y2="359.5854"/><line style="stroke:#181818;stroke-width:1.0;" x1="520.5" x2="520.5" y1="359.5854" y2="374.5854"/><polygon fill="#181818" points="516.5,364.5854,520.5,374.5854,524.5,364.5854,520.5,368.5854" style="stroke:#181818;stroke-width:1.0;"/><text fill="#000000" font-family="sans-serif" font-size="18" lengthAdjust="spacing" textLength="143" x="160.75" y="29.4531">Doctor / Parent</text><text fill="#000000" font-family="sans-serif" font-size="18" lengthAdjust="spacing" textLength="69" x="485" y="29.4531">System</text><text fill="#000000" font-family="sans-serif" font-size="18" lengthAdjust="spacing" textLength="88" x="594.5" y="29.4531">Database</text><!--SRC=[TP2n3e8m48RtFiMDEBd3P61WD34wiPnms2RbIjfJGyB3MzAO0CQfxTV_wpN_NBbMd8SZdD4JowpconI4XhYfKF2EWLOi27fHUMN2Q762LXlRDJmWuuE6gCFBqBk8wlxLlDJE1OB-oQqOnuKoFMG744qCMUa9XGuA83_5wvUHgU44uxeCAK2H3RIMhcEtIB2r4lrlLMJfPrI2_wKBeM_rJafmAq5sYmL0JMX5Vpy3jGcnZMddByc6jz5uJjb24NUcNpVlnWy0]--></g></svg>