<?xml version="1.0" encoding="us-ascii" standalone="no"?><svg xmlns="http://www.w3.org/2000/svg" xmlns:xlink="http://www.w3.org/1999/xlink" contentStyleType="text/css" height="1036px" preserveAspectRatio="none" style="width:870px;height:1036px;background:#FFFFFF;" version="1.1" viewBox="0 0 870 1036" width="870px" zoomAndPan="magnify"><defs/><g><rect fill="none" height="20.9531" style="stroke:none;stroke-width:1.0;" width="837.5" x="15" y="12.7451"/><ellipse cx="92.5" cy="48.6982" fill="#222222" rx="10" ry="10" style="stroke:#222222;stroke-width:1.0;"/><rect fill="#F1F1F1" height="47.9375" rx="12.5" ry="12.5" style="stroke:#181818;stroke-width:0.5;" width="120" x="32.5" y="78.6982"/><text fill="#000000" font-family="sans-serif" font-size="12" lengthAdjust="spacing" textLength="100" x="42.5" y="99.8369">Execute "Activity</text><text fill="#000000" font-family="sans-serif" font-size="12" lengthAdjust="spacing" textLength="80" x="42.5" y="113.8057">Search Child"</text><rect fill="#F1F1F1" height="47.9375" rx="12.5" ry="12.5" style="stroke:#181818;stroke-width:0.5;" width="114" x="35.5" y="146.6357"/><text fill="#000000" font-family="sans-serif" font-size="12" lengthAdjust="spacing" textLength="70" x="45.5" y="167.7744">Select child</text><text fill="#000000" font-family="sans-serif" font-size="12" lengthAdjust="spacing" textLength="94" x="45.5" y="181.7432">needs updating</text><rect fill="#F1F1F1" height="47.9375" rx="12.5" ry="12.5" style="stroke:#181818;stroke-width:0.5;" width="87" x="49" y="434.4482"/><text fill="#000000" font-family="sans-serif" font-size="12" lengthAdjust="spacing" textLength="63" x="59" y="455.5869">Enter child</text><text fill="#000000" font-family="sans-serif" font-size="12" lengthAdjust="spacing" textLength="67" x="59" y="469.5557">information</text><polygon fill="#F1F1F1" points="92.5,390.4482,104.5,402.4482,92.5,414.4482,80.5,402.4482,92.5,390.4482" style="stroke:#181818;stroke-width:0.5;"/><rect fill="#F1F1F1" height="47.9375" rx="12.5" ry="12.5" style="stroke:#181818;stroke-width:0.5;" width="134" x="25.5" y="627.0649"/><text fill="#000000" font-family="sans-serif" font-size="12" lengthAdjust="spacing" textLength="114" x="35.5" y="648.2036">Click button "Save"</text><text fill="#000000" font-family="sans-serif" font-size="12" lengthAdjust="spacing" textLength="61" x="35.5" y="662.1724">to confirm</text><line style="stroke:#000000;stroke-width:1.5;" x1="15" x2="15" y1="12.7451" y2="1024.8462"/><rect fill="#F1F1F1" height="33.9688" rx="12.5" ry="12.5" style="stroke:#181818;stroke-width:0.5;" width="201" x="256.25" y="214.5732"/><text fill="#000000" font-family="sans-serif" font-size="12" lengthAdjust="spacing" textLength="181" x="266.25" y="235.7119">Get selected child information</text><rect fill="#F1F1F1" height="47.9375" rx="12.5" ry="12.5" style="stroke:#181818;stroke-width:0.5;" width="119" x="297.25" y="322.5107"/><text fill="#000000" font-family="sans-serif" font-size="12" lengthAdjust="spacing" textLength="76" x="307.25" y="343.6494">Display child</text><text fill="#000000" font-family="sans-serif" font-size="12" lengthAdjust="spacing" textLength="99" x="307.25" y="357.6182">information view</text><rect fill="#F1F1F1" height="33.9688" rx="12.5" ry="12.5" style="stroke:#181818;stroke-width:0.5;" width="141" x="286.25" y="517.3857"/><text fill="#000000" font-family="sans-serif" font-size="12" lengthAdjust="spacing" textLength="121" x="296.25" y="538.5244">Validate data format</text><polygon fill="#F1F1F1" points="356.75,571.3545,356.75,571.3545,368.75,583.3545,356.75,595.3545,356.75,595.3545,344.75,583.3545,356.75,571.3545" style="stroke:#181818;stroke-width:0.5;"/><text fill="#000000" font-family="sans-serif" font-size="11" lengthAdjust="spacing" textLength="57" x="360.75" y="605.5649">Valid data</text><text fill="#000000" font-family="sans-serif" font-size="11" lengthAdjust="spacing" textLength="66" x="368.75" y="580.7603">Invalid data</text><rect fill="#F1F1F1" height="33.9688" rx="12.5" ry="12.5" style="stroke:#181818;stroke-width:0.5;" width="168" x="451.25" y="475.917"/><text fill="#000000" font-family="sans-serif" font-size="12" lengthAdjust="spacing" textLength="148" x="461.25" y="497.0557">Display error notification</text><rect fill="#F1F1F1" height="33.9688" rx="12.5" ry="12.5" style="stroke:#181818;stroke-width:0.5;" width="175" x="269.25" y="695.0024"/><text fill="#000000" font-family="sans-serif" font-size="12" lengthAdjust="spacing" textLength="155" x="279.25" y="716.1411">Process updating request</text><rect fill="#F1F1F1" height="33.9688" rx="12.5" ry="12.5" style="stroke:#181818;stroke-width:0.5;" width="168" x="174" y="846.9399"/><text fill="#000000" font-family="sans-serif" font-size="12" lengthAdjust="spacing" textLength="148" x="184" y="868.0786">Display error notification</text><rect fill="#F1F1F1" height="47.9375" rx="12.5" ry="12.5" style="stroke:#181818;stroke-width:0.5;" width="187" x="362" y="900.9087"/><text fill="#000000" font-family="sans-serif" font-size="12" lengthAdjust="spacing" textLength="167" x="372" y="922.0474">Display success notification</text><text fill="#000000" font-family="sans-serif" font-size="12" lengthAdjust="spacing" textLength="111" x="372" y="936.0161">and list of children</text><line style="stroke:#000000;stroke-width:1.5;" x1="168" x2="168" y1="12.7451" y2="1024.8462"/><rect fill="#F1F1F1" height="33.9688" rx="12.5" ry="12.5" style="stroke:#181818;stroke-width:0.5;" width="87" x="662.75" y="268.542"/><text fill="#000000" font-family="sans-serif" font-size="12" lengthAdjust="spacing" textLength="67" x="672.75" y="289.6807">Query data</text><rect fill="#F1F1F1" height="33.9688" rx="12.5" ry="12.5" style="stroke:#181818;stroke-width:0.5;" width="98" x="657.25" y="748.9712"/><text fill="#000000" font-family="sans-serif" font-size="12" lengthAdjust="spacing" textLength="78" x="667.25" y="770.1099">Validate data</text><polygon fill="#F1F1F1" points="706.25,802.9399,706.25,802.9399,718.25,814.9399,706.25,826.9399,706.25,826.9399,694.25,814.9399,706.25,802.9399" style="stroke:#181818;stroke-width:0.5;"/><text fill="#000000" font-family="sans-serif" font-size="11" lengthAdjust="spacing" textLength="66" x="628.25" y="812.3457">Invalid data</text><text fill="#000000" font-family="sans-serif" font-size="11" lengthAdjust="spacing" textLength="57" x="718.25" y="812.3457">Valid data</text><rect fill="#F1F1F1" height="33.9688" rx="12.5" ry="12.5" style="stroke:#181818;stroke-width:0.5;" width="83" x="763.5" y="846.9399"/><text fill="#000000" font-family="sans-serif" font-size="12" lengthAdjust="spacing" textLength="63" x="773.5" y="868.0786">Store data</text><polygon fill="#F1F1F1" points="706.25,958.8462,718.25,970.8462,706.25,982.8462,694.25,970.8462,706.25,958.8462" style="stroke:#181818;stroke-width:0.5;"/><ellipse cx="706.25" cy="1013.8462" fill="none" rx="11" ry="11" style="stroke:#222222;stroke-width:1.0;"/><ellipse cx="706.25" cy="1013.8462" fill="#222222" rx="6" ry="6" style="stroke:#222222;stroke-width:1.0;"/><line style="stroke:#000000;stroke-width:1.5;" x1="623.25" x2="623.25" y1="12.7451" y2="1024.8462"/><line style="stroke:#000000;stroke-width:1.5;" x1="850.5" x2="850.5" y1="12.7451" y2="1024.8462"/><line style="stroke:#181818;stroke-width:1.0;" x1="92.5" x2="92.5" y1="58.6982" y2="78.6982"/><polygon fill="#181818" points="88.5,68.6982,92.5,78.6982,96.5,68.6982,92.5,72.6982" style="stroke:#181818;stroke-width:1.0;"/><line style="stroke:#181818;stroke-width:1.0;" x1="92.5" x2="92.5" y1="126.6357" y2="146.6357"/><polygon fill="#181818" points="88.5,136.6357,92.5,146.6357,96.5,136.6357,92.5,140.6357" style="stroke:#181818;stroke-width:1.0;"/><line style="stroke:#181818;stroke-width:1.0;" x1="92.5" x2="92.5" y1="414.4482" y2="434.4482"/><polygon fill="#181818" points="88.5,424.4482,92.5,434.4482,96.5,424.4482,92.5,428.4482" style="stroke:#181818;stroke-width:1.0;"/><line style="stroke:#181818;stroke-width:1.0;" x1="368.75" x2="535.25" y1="583.3545" y2="583.3545"/><line style="stroke:#181818;stroke-width:1.0;" x1="535.25" x2="535.25" y1="509.8857" y2="583.3545"/><polygon fill="#181818" points="531.25,519.8857,535.25,509.8857,539.25,519.8857,535.25,515.8857" style="stroke:#181818;stroke-width:1.0;"/><line style="stroke:#181818;stroke-width:1.0;" x1="356.75" x2="356.75" y1="551.3545" y2="571.3545"/><polygon fill="#181818" points="352.75,561.3545,356.75,571.3545,360.75,561.3545,356.75,565.3545" style="stroke:#181818;stroke-width:1.0;"/><line style="stroke:#181818;stroke-width:1.0;" x1="718.25" x2="805" y1="814.9399" y2="814.9399"/><line style="stroke:#181818;stroke-width:1.0;" x1="805" x2="805" y1="814.9399" y2="846.9399"/><polygon fill="#181818" points="801,836.9399,805,846.9399,809,836.9399,805,840.9399" style="stroke:#181818;stroke-width:1.0;"/><line style="stroke:#181818;stroke-width:1.0;" x1="706.25" x2="706.25" y1="782.9399" y2="802.9399"/><polygon fill="#181818" points="702.25,792.9399,706.25,802.9399,710.25,792.9399,706.25,796.9399" style="stroke:#181818;stroke-width:1.0;"/><line style="stroke:#181818;stroke-width:1.0;" x1="706.25" x2="706.25" y1="982.8462" y2="1002.8462"/><polygon fill="#181818" points="702.25,992.8462,706.25,1002.8462,710.25,992.8462,706.25,996.8462" style="stroke:#181818;stroke-width:1.0;"/><line style="stroke:#181818;stroke-width:1.0;" x1="92.5" x2="92.5" y1="194.5732" y2="199.5732"/><line style="stroke:#181818;stroke-width:1.0;" x1="92.5" x2="356.75" y1="199.5732" y2="199.5732"/><line style="stroke:#181818;stroke-width:1.0;" x1="356.75" x2="356.75" y1="199.5732" y2="214.5732"/><polygon fill="#181818" points="352.75,204.5732,356.75,214.5732,360.75,204.5732,356.75,208.5732" style="stroke:#181818;stroke-width:1.0;"/><line style="stroke:#181818;stroke-width:1.0;" x1="356.75" x2="356.75" y1="248.542" y2="253.542"/><line style="stroke:#181818;stroke-width:1.0;" x1="356.75" x2="706.25" y1="253.542" y2="253.542"/><line style="stroke:#181818;stroke-width:1.0;" x1="706.25" x2="706.25" y1="253.542" y2="268.542"/><polygon fill="#181818" points="702.25,258.542,706.25,268.542,710.25,258.542,706.25,262.542" style="stroke:#181818;stroke-width:1.0;"/><line style="stroke:#181818;stroke-width:1.0;" x1="706.25" x2="706.25" y1="302.5107" y2="307.5107"/><line style="stroke:#181818;stroke-width:1.0;" x1="706.25" x2="356.75" y1="307.5107" y2="307.5107"/><line style="stroke:#181818;stroke-width:1.0;" x1="356.75" x2="356.75" y1="307.5107" y2="322.5107"/><polygon fill="#181818" points="352.75,312.5107,356.75,322.5107,360.75,312.5107,356.75,316.5107" style="stroke:#181818;stroke-width:1.0;"/><line style="stroke:#181818;stroke-width:1.0;" x1="92.5" x2="92.5" y1="482.3857" y2="499.8857"/><line style="stroke:#181818;stroke-width:1.0;" x1="92.5" x2="356.75" y1="499.8857" y2="499.8857"/><line style="stroke:#181818;stroke-width:1.0;" x1="356.75" x2="356.75" y1="499.8857" y2="517.3857"/><polygon fill="#181818" points="352.75,507.3857,356.75,517.3857,360.75,507.3857,356.75,511.3857" style="stroke:#181818;stroke-width:1.0;"/><line style="stroke:#181818;stroke-width:1.0;" x1="535.25" x2="535.25" y1="402.4482" y2="475.917"/><line style="stroke:#181818;stroke-width:1.0;" x1="535.25" x2="104.5" y1="402.4482" y2="402.4482"/><polygon fill="#181818" points="114.5,398.4482,104.5,402.4482,114.5,406.4482,110.5,402.4482" style="stroke:#181818;stroke-width:1.0;"/><line style="stroke:#181818;stroke-width:1.0;" x1="356.75" x2="356.75" y1="370.4482" y2="375.4482"/><line style="stroke:#181818;stroke-width:1.0;" x1="356.75" x2="92.5" y1="375.4482" y2="375.4482"/><line style="stroke:#181818;stroke-width:1.0;" x1="92.5" x2="92.5" y1="375.4482" y2="390.4482"/><polygon fill="#181818" points="88.5,380.4482,92.5,390.4482,96.5,380.4482,92.5,384.4482" style="stroke:#181818;stroke-width:1.0;"/><line style="stroke:#181818;stroke-width:1.0;" x1="356.75" x2="356.75" y1="595.3545" y2="612.0649"/><line style="stroke:#181818;stroke-width:1.0;" x1="356.75" x2="92.5" y1="612.0649" y2="612.0649"/><line style="stroke:#181818;stroke-width:1.0;" x1="92.5" x2="92.5" y1="612.0649" y2="627.0649"/><polygon fill="#181818" points="88.5,617.0649,92.5,627.0649,96.5,617.0649,92.5,621.0649" style="stroke:#181818;stroke-width:1.0;"/><line style="stroke:#181818;stroke-width:1.0;" x1="92.5" x2="92.5" y1="675.0024" y2="680.0024"/><line style="stroke:#181818;stroke-width:1.0;" x1="92.5" x2="356.75" y1="680.0024" y2="680.0024"/><line style="stroke:#181818;stroke-width:1.0;" x1="356.75" x2="356.75" y1="680.0024" y2="695.0024"/><polygon fill="#181818" points="352.75,685.0024,356.75,695.0024,360.75,685.0024,356.75,689.0024" style="stroke:#181818;stroke-width:1.0;"/><line style="stroke:#181818;stroke-width:1.0;" x1="356.75" x2="356.75" y1="728.9712" y2="733.9712"/><line style="stroke:#181818;stroke-width:1.0;" x1="356.75" x2="706.25" y1="733.9712" y2="733.9712"/><line style="stroke:#181818;stroke-width:1.0;" x1="706.25" x2="706.25" y1="733.9712" y2="748.9712"/><polygon fill="#181818" points="702.25,738.9712,706.25,748.9712,710.25,738.9712,706.25,742.9712" style="stroke:#181818;stroke-width:1.0;"/><line style="stroke:#181818;stroke-width:1.0;" x1="805" x2="805" y1="880.9087" y2="885.9087"/><line style="stroke:#181818;stroke-width:1.0;" x1="805" x2="455.5" y1="885.9087" y2="885.9087"/><line style="stroke:#181818;stroke-width:1.0;" x1="455.5" x2="455.5" y1="885.9087" y2="900.9087"/><polygon fill="#181818" points="451.5,890.9087,455.5,900.9087,459.5,890.9087,455.5,894.9087" style="stroke:#181818;stroke-width:1.0;"/><line style="stroke:#181818;stroke-width:1.0;" x1="694.25" x2="258" y1="814.9399" y2="814.9399"/><line style="stroke:#181818;stroke-width:1.0;" x1="258" x2="258" y1="814.9399" y2="846.9399"/><polygon fill="#181818" points="254,836.9399,258,846.9399,262,836.9399,258,840.9399" style="stroke:#181818;stroke-width:1.0;"/><line style="stroke:#181818;stroke-width:1.0;" x1="258" x2="258" y1="880.9087" y2="970.8462"/><line style="stroke:#181818;stroke-width:1.0;" x1="258" x2="694.25" y1="970.8462" y2="970.8462"/><polygon fill="#181818" points="684.25,966.8462,694.25,970.8462,684.25,974.8462,688.25,970.8462" style="stroke:#181818;stroke-width:1.0;"/><line style="stroke:#181818;stroke-width:1.0;" x1="455.5" x2="455.5" y1="948.8462" y2="952.8462"/><line style="stroke:#181818;stroke-width:1.0;" x1="455.5" x2="736.25" y1="952.8462" y2="952.8462"/><line style="stroke:#181818;stroke-width:1.0;" x1="736.25" x2="736.25" y1="952.8462" y2="970.8462"/><line style="stroke:#181818;stroke-width:1.0;" x1="736.25" x2="718.25" y1="970.8462" y2="970.8462"/><polygon fill="#181818" points="728.25,966.8462,718.25,970.8462,728.25,974.8462,724.25,970.8462" style="stroke:#181818;stroke-width:1.0;"/><text fill="#000000" font-family="sans-serif" font-size="18" lengthAdjust="spacing" textLength="143" x="20" y="29.4531">Parent / Doctor</text><text fill="#000000" font-family="sans-serif" font-size="18" lengthAdjust="spacing" textLength="69" x="361.125" y="29.4531">System</text><text fill="#000000" font-family="sans-serif" font-size="18" lengthAdjust="spacing" textLength="88" x="692.875" y="29.4531">Database</text><!--SRC=[VP4zRy8m48Pt_ufJ9fYw9rC5gEe6YiIKnJYNSYASK_iI6Ya_lau2JGe8RxOVln_dRgiTii0RhAqHwphbHJjHyUO7JIq8qRiHQaZQZ5FKpXnXTQGoZn8LfrYY4J3zFcD6p3tKLQw5-2jHNTfwmNEduWyKy0EB-KW3SM7TEP2M0xdMeW_QOmSgtjNeMWWYUYwn9b-LkhrvpPv3GtX9bCCAjIW8gtker9_66nPqJmIIyT7DQc3tkgGG0OSSCA8ZTz3cTD4kXxz8w9nrm5Qe87DL7DF09PWXB9P07XQVtFIgW-Iovs6ndmvU9L-LP4vmg4L2tIZL3KOPYmLZkI1tVbPWwwn1Ftq7EFokqLzBJ0D_KdT4gEXpon7vBlbm-s0uoBoQI0zWwV6nzFz009DU6aOmp_JQrTTcg3ptpLXp3YLv0LkCVny6FAaXvrJSZyIBhNu1]--></g></svg>