<?xml version="1.0" encoding="us-ascii" standalone="no"?><svg xmlns="http://www.w3.org/2000/svg" xmlns:xlink="http://www.w3.org/1999/xlink" contentStyleType="text/css" height="1070px" preserveAspectRatio="none" style="width:519px;height:1070px;background:#FFFFFF;" version="1.1" viewBox="0 0 519 1070" width="519px" zoomAndPan="magnify"><defs/><g><rect fill="none" height="20.9531" style="stroke:none;stroke-width:1.0;" width="486" x="15" y="12.7451"/><ellipse cx="92.5" cy="48.6982" fill="#222222" rx="10" ry="10" style="stroke:#222222;stroke-width:1.0;"/><rect fill="#F1F1F1" height="47.9375" rx="12.5" ry="12.5" style="stroke:#181818;stroke-width:0.5;" width="120" x="32.5" y="78.6982"/><text fill="#000000" font-family="sans-serif" font-size="12" lengthAdjust="spacing" textLength="100" x="42.5" y="99.8369">Execute "Activity</text><text fill="#000000" font-family="sans-serif" font-size="12" lengthAdjust="spacing" textLength="80" x="42.5" y="113.8057">Search Child"</text><rect fill="#F1F1F1" height="61.9063" rx="12.5" ry="12.5" style="stroke:#181818;stroke-width:0.5;" width="108" x="38.5" y="146.6357"/><text fill="#000000" font-family="sans-serif" font-size="12" lengthAdjust="spacing" textLength="70" x="48.5" y="167.7744">Select child</text><text fill="#000000" font-family="sans-serif" font-size="12" lengthAdjust="spacing" textLength="88" x="48.5" y="181.7432">needs viewing</text><text fill="#000000" font-family="sans-serif" font-size="12" lengthAdjust="spacing" textLength="81" x="48.5" y="195.7119">health history</text><rect fill="#F1F1F1" height="61.9063" rx="12.5" ry="12.5" style="stroke:#181818;stroke-width:0.5;" width="107" x="39" y="466.7881"/><text fill="#000000" font-family="sans-serif" font-size="12" lengthAdjust="spacing" textLength="61" x="49" y="487.9268">Enters the</text><text fill="#000000" font-family="sans-serif" font-size="12" lengthAdjust="spacing" textLength="87" x="49" y="501.8955">search criteria</text><text fill="#000000" font-family="sans-serif" font-size="12" lengthAdjust="spacing" textLength="82" x="49" y="515.8643">in search box</text><rect fill="#F1F1F1" height="61.9063" rx="12.5" ry="12.5" style="stroke:#181818;stroke-width:0.5;" width="101" x="42" y="779.085"/><text fill="#000000" font-family="sans-serif" font-size="12" lengthAdjust="spacing" textLength="61" x="52" y="800.2236">Select the</text><text fill="#000000" font-family="sans-serif" font-size="12" lengthAdjust="spacing" textLength="81" x="52" y="814.1924">health history</text><text fill="#000000" font-family="sans-serif" font-size="12" lengthAdjust="spacing" textLength="76" x="52" y="828.1611">want to view</text><line style="stroke:#000000;stroke-width:1.5;" x1="15" x2="15" y1="12.7451" y2="1058.8662"/><rect fill="#F1F1F1" height="33.9688" rx="12.5" ry="12.5" style="stroke:#181818;stroke-width:0.5;" width="201" x="180.5" y="228.542"/><text fill="#000000" font-family="sans-serif" font-size="12" lengthAdjust="spacing" textLength="181" x="190.5" y="249.6807">Get selected child information</text><rect fill="#F1F1F1" height="61.9063" rx="12.5" ry="12.5" style="stroke:#181818;stroke-width:0.5;" width="121" x="220.5" y="336.4795"/><text fill="#000000" font-family="sans-serif" font-size="12" lengthAdjust="spacing" textLength="81" x="230.5" y="357.6182">Display list of</text><text fill="#000000" font-family="sans-serif" font-size="12" lengthAdjust="spacing" textLength="81" x="230.5" y="371.5869">health history</text><text fill="#000000" font-family="sans-serif" font-size="12" lengthAdjust="spacing" textLength="101" x="230.5" y="385.5557">of selected child</text><rect fill="#F1F1F1" height="33.9688" rx="12.5" ry="12.5" style="stroke:#181818;stroke-width:0.5;" width="182" x="190" y="548.6943"/><text fill="#000000" font-family="sans-serif" font-size="12" lengthAdjust="spacing" textLength="162" x="200" y="569.833">Process searching request</text><rect fill="#F1F1F1" height="47.9375" rx="12.5" ry="12.5" style="stroke:#181818;stroke-width:0.5;" width="112" x="225" y="667.1475"/><text fill="#000000" font-family="sans-serif" font-size="12" lengthAdjust="spacing" textLength="81" x="235" y="688.2861">Display list of</text><text fill="#000000" font-family="sans-serif" font-size="12" lengthAdjust="spacing" textLength="92" x="235" y="702.2549">health histories</text><polygon fill="#F1F1F1" points="281,418.3857,281,418.3857,293,430.3857,281,442.3857,281,442.3857,269,430.3857,281,418.3857" style="stroke:#181818;stroke-width:0.5;"/><text fill="#000000" font-family="sans-serif" font-size="11" lengthAdjust="spacing" textLength="40" x="285" y="452.5962">Search</text><text fill="#000000" font-family="sans-serif" font-size="11" lengthAdjust="spacing" textLength="57" x="293" y="427.7915">No search</text><polygon fill="#F1F1F1" points="281,735.085,293,747.085,281,759.085,269,747.085,281,735.085" style="stroke:#181818;stroke-width:0.5;"/><rect fill="#F1F1F1" height="33.9688" rx="12.5" ry="12.5" style="stroke:#181818;stroke-width:0.5;" width="214" x="174" y="860.9912"/><text fill="#000000" font-family="sans-serif" font-size="12" lengthAdjust="spacing" textLength="194" x="184" y="882.1299">Get selected history information</text><rect fill="#F1F1F1" height="47.9375" rx="12.5" ry="12.5" style="stroke:#181818;stroke-width:0.5;" width="161" x="200.5" y="968.9287"/><text fill="#000000" font-family="sans-serif" font-size="12" lengthAdjust="spacing" textLength="141" x="210.5" y="990.0674">Display selected health</text><text fill="#000000" font-family="sans-serif" font-size="12" lengthAdjust="spacing" textLength="112" x="210.5" y="1004.0361">history information</text><ellipse cx="281" cy="1047.8662" fill="none" rx="11" ry="11" style="stroke:#222222;stroke-width:1.0;"/><ellipse cx="281" cy="1047.8662" fill="#222222" rx="6" ry="6" style="stroke:#222222;stroke-width:1.0;"/><line style="stroke:#000000;stroke-width:1.5;" x1="168" x2="168" y1="12.7451" y2="1058.8662"/><rect fill="#F1F1F1" height="33.9688" rx="12.5" ry="12.5" style="stroke:#181818;stroke-width:0.5;" width="87" x="407.5" y="282.5107"/><text fill="#000000" font-family="sans-serif" font-size="12" lengthAdjust="spacing" textLength="67" x="417.5" y="303.6494">Query data</text><rect fill="#F1F1F1" height="33.9688" rx="12.5" ry="12.5" style="stroke:#181818;stroke-width:0.5;" width="87" x="407.5" y="613.1787"/><text fill="#000000" font-family="sans-serif" font-size="12" lengthAdjust="spacing" textLength="67" x="417.5" y="634.3174">Query data</text><rect fill="#F1F1F1" height="33.9688" rx="12.5" ry="12.5" style="stroke:#181818;stroke-width:0.5;" width="87" x="407.5" y="914.96"/><text fill="#000000" font-family="sans-serif" font-size="12" lengthAdjust="spacing" textLength="67" x="417.5" y="936.0986">Query data</text><line style="stroke:#000000;stroke-width:1.5;" x1="401" x2="401" y1="12.7451" y2="1058.8662"/><line style="stroke:#000000;stroke-width:1.5;" x1="499" x2="499" y1="12.7451" y2="1058.8662"/><line style="stroke:#181818;stroke-width:1.0;" x1="92.5" x2="92.5" y1="58.6982" y2="78.6982"/><polygon fill="#181818" points="88.5,68.6982,92.5,78.6982,96.5,68.6982,92.5,72.6982" style="stroke:#181818;stroke-width:1.0;"/><line style="stroke:#181818;stroke-width:1.0;" x1="92.5" x2="92.5" y1="126.6357" y2="146.6357"/><polygon fill="#181818" points="88.5,136.6357,92.5,146.6357,96.5,136.6357,92.5,140.6357" style="stroke:#181818;stroke-width:1.0;"/><line style="stroke:#181818;stroke-width:1.0;" x1="293" x2="382" y1="430.3857" y2="430.3857"/><polygon fill="#181818" points="378,583.1787,382,593.1787,386,583.1787,382,587.1787" style="stroke:#181818;stroke-width:1.0;"/><line style="stroke:#181818;stroke-width:1.0;" x1="382" x2="382" y1="430.3857" y2="747.085"/><line style="stroke:#181818;stroke-width:1.0;" x1="382" x2="293" y1="747.085" y2="747.085"/><polygon fill="#181818" points="303,743.085,293,747.085,303,751.085,299,747.085" style="stroke:#181818;stroke-width:1.0;"/><line style="stroke:#181818;stroke-width:1.0;" x1="281" x2="281" y1="715.085" y2="735.085"/><polygon fill="#181818" points="277,725.085,281,735.085,285,725.085,281,729.085" style="stroke:#181818;stroke-width:1.0;"/><line style="stroke:#181818;stroke-width:1.0;" x1="281" x2="281" y1="398.3857" y2="418.3857"/><polygon fill="#181818" points="277,408.3857,281,418.3857,285,408.3857,281,412.3857" style="stroke:#181818;stroke-width:1.0;"/><line style="stroke:#181818;stroke-width:1.0;" x1="281" x2="281" y1="1016.8662" y2="1036.8662"/><polygon fill="#181818" points="277,1026.8662,281,1036.8662,285,1026.8662,281,1030.8662" style="stroke:#181818;stroke-width:1.0;"/><line style="stroke:#181818;stroke-width:1.0;" x1="92.5" x2="92.5" y1="208.542" y2="213.542"/><line style="stroke:#181818;stroke-width:1.0;" x1="92.5" x2="281" y1="213.542" y2="213.542"/><line style="stroke:#181818;stroke-width:1.0;" x1="281" x2="281" y1="213.542" y2="228.542"/><polygon fill="#181818" points="277,218.542,281,228.542,285,218.542,281,222.542" style="stroke:#181818;stroke-width:1.0;"/><line style="stroke:#181818;stroke-width:1.0;" x1="281" x2="281" y1="262.5107" y2="267.5107"/><line style="stroke:#181818;stroke-width:1.0;" x1="281" x2="451" y1="267.5107" y2="267.5107"/><line style="stroke:#181818;stroke-width:1.0;" x1="451" x2="451" y1="267.5107" y2="282.5107"/><polygon fill="#181818" points="447,272.5107,451,282.5107,455,272.5107,451,276.5107" style="stroke:#181818;stroke-width:1.0;"/><line style="stroke:#181818;stroke-width:1.0;" x1="451" x2="451" y1="316.4795" y2="321.4795"/><line style="stroke:#181818;stroke-width:1.0;" x1="451" x2="281" y1="321.4795" y2="321.4795"/><line style="stroke:#181818;stroke-width:1.0;" x1="281" x2="281" y1="321.4795" y2="336.4795"/><polygon fill="#181818" points="277,326.4795,281,336.4795,285,326.4795,281,330.4795" style="stroke:#181818;stroke-width:1.0;"/><line style="stroke:#181818;stroke-width:1.0;" x1="92.5" x2="92.5" y1="528.6943" y2="533.6943"/><line style="stroke:#181818;stroke-width:1.0;" x1="92.5" x2="281" y1="533.6943" y2="533.6943"/><line style="stroke:#181818;stroke-width:1.0;" x1="281" x2="281" y1="533.6943" y2="548.6943"/><polygon fill="#181818" points="277,538.6943,281,548.6943,285,538.6943,281,542.6943" style="stroke:#181818;stroke-width:1.0;"/><line style="stroke:#181818;stroke-width:1.0;" x1="281" x2="281" y1="582.6631" y2="598.1787"/><line style="stroke:#181818;stroke-width:1.0;" x1="281" x2="451" y1="598.1787" y2="598.1787"/><line style="stroke:#181818;stroke-width:1.0;" x1="451" x2="451" y1="598.1787" y2="613.1787"/><polygon fill="#181818" points="447,603.1787,451,613.1787,455,603.1787,451,607.1787" style="stroke:#181818;stroke-width:1.0;"/><line style="stroke:#181818;stroke-width:1.0;" x1="451" x2="451" y1="647.1475" y2="652.1475"/><line style="stroke:#181818;stroke-width:1.0;" x1="451" x2="281" y1="652.1475" y2="652.1475"/><line style="stroke:#181818;stroke-width:1.0;" x1="281" x2="281" y1="652.1475" y2="667.1475"/><polygon fill="#181818" points="277,657.1475,281,667.1475,285,657.1475,281,661.1475" style="stroke:#181818;stroke-width:1.0;"/><line style="stroke:#181818;stroke-width:1.0;" x1="281" x2="281" y1="442.3857" y2="454.5869"/><line style="stroke:#181818;stroke-width:1.0;" x1="281" x2="92.5" y1="454.5869" y2="454.5869"/><line style="stroke:#181818;stroke-width:1.0;" x1="92.5" x2="92.5" y1="454.5869" y2="466.7881"/><polygon fill="#181818" points="88.5,456.7881,92.5,466.7881,96.5,456.7881,92.5,460.7881" style="stroke:#181818;stroke-width:1.0;"/><line style="stroke:#181818;stroke-width:1.0;" x1="281" x2="281" y1="759.085" y2="764.085"/><line style="stroke:#181818;stroke-width:1.0;" x1="281" x2="92.5" y1="764.085" y2="764.085"/><line style="stroke:#181818;stroke-width:1.0;" x1="92.5" x2="92.5" y1="764.085" y2="779.085"/><polygon fill="#181818" points="88.5,769.085,92.5,779.085,96.5,769.085,92.5,773.085" style="stroke:#181818;stroke-width:1.0;"/><line style="stroke:#181818;stroke-width:1.0;" x1="92.5" x2="92.5" y1="840.9912" y2="845.9912"/><line style="stroke:#181818;stroke-width:1.0;" x1="92.5" x2="281" y1="845.9912" y2="845.9912"/><line style="stroke:#181818;stroke-width:1.0;" x1="281" x2="281" y1="845.9912" y2="860.9912"/><polygon fill="#181818" points="277,850.9912,281,860.9912,285,850.9912,281,854.9912" style="stroke:#181818;stroke-width:1.0;"/><line style="stroke:#181818;stroke-width:1.0;" x1="281" x2="281" y1="894.96" y2="899.96"/><line style="stroke:#181818;stroke-width:1.0;" x1="281" x2="451" y1="899.96" y2="899.96"/><line style="stroke:#181818;stroke-width:1.0;" x1="451" x2="451" y1="899.96" y2="914.96"/><polygon fill="#181818" points="447,904.96,451,914.96,455,904.96,451,908.96" style="stroke:#181818;stroke-width:1.0;"/><line style="stroke:#181818;stroke-width:1.0;" x1="451" x2="451" y1="948.9287" y2="953.9287"/><line style="stroke:#181818;stroke-width:1.0;" x1="451" x2="281" y1="953.9287" y2="953.9287"/><line style="stroke:#181818;stroke-width:1.0;" x1="281" x2="281" y1="953.9287" y2="968.9287"/><polygon fill="#181818" points="277,958.9287,281,968.9287,285,958.9287,281,962.9287" style="stroke:#181818;stroke-width:1.0;"/><text fill="#000000" font-family="sans-serif" font-size="18" lengthAdjust="spacing" textLength="143" x="20" y="29.4531">Parent / Doctor</text><text fill="#000000" font-family="sans-serif" font-size="18" lengthAdjust="spacing" textLength="69" x="250" y="29.4531">System</text><text fill="#000000" font-family="sans-serif" font-size="18" lengthAdjust="spacing" textLength="88" x="406" y="29.4531">Database</text><!--SRC=[bP4_RuD03CNt-nHM9Z9rXwagKRSgLLQMos6A9U9BpiuV93vyBq3RGD9AlUsUdf_zixkr3SWAJv1xfpvqHjG6DUdgWkwe28jdftGYRGlUe0skXfUQcdAHcNI33Je5T_qNp8Ybm8dmJFnHS8ssqHfgafZQPgRRjAAuwqpwYWhIbs8v50DnvSFEAdcEpjogtLh13apwViJGGXcLsuYSPD_O5fgO3hwQTolOLxCMcQ4AaYLeZGp9GB8q45ztju6hcgvOCSZLNx0Cu2vGrCWMJ0oZjlMNR8Zv6gwlNWVlK6HqnOL0mCCHHKVpD-9WlwMy3_kRbb0oWuqW96z-RBWqo2LLvXUsyN0zstnpPnlzwlj3FXfcShsnQdg_AI3yX_0dk9ygJlUeGPJsdm00]--></g></svg>