<?xml version="1.0" encoding="us-ascii" standalone="no"?><svg xmlns="http://www.w3.org/2000/svg" xmlns:xlink="http://www.w3.org/1999/xlink" contentStyleType="text/css" height="461px" preserveAspectRatio="none" style="width:690px;height:461px;background:#FFFFFF;" version="1.1" viewBox="0 0 690 461" width="690px" zoomAndPan="magnify"><defs/><g><rect fill="none" height="61.2344" style="stroke:#000000;stroke-width:1.5;" width="674" x="10" y="301.2266"/><rect fill="none" height="61.2344" style="stroke:#000000;stroke-width:1.5;" width="674" x="10" y="376.4609"/><line style="stroke:#181818;stroke-width:0.5;stroke-dasharray:5.0,5.0;" x1="47" x2="47" y1="81.2969" y2="454.6953"/><line style="stroke:#181818;stroke-width:0.5;stroke-dasharray:5.0,5.0;" x1="208.5" x2="208.5" y1="81.2969" y2="454.6953"/><line style="stroke:#181818;stroke-width:0.5;stroke-dasharray:5.0,5.0;" x1="402.5" x2="402.5" y1="81.2969" y2="454.6953"/><line style="stroke:#181818;stroke-width:0.5;stroke-dasharray:5.0,5.0;" x1="555" x2="555" y1="81.2969" y2="454.6953"/><line style="stroke:#181818;stroke-width:0.5;stroke-dasharray:5.0,5.0;" x1="632" x2="632" y1="81.2969" y2="454.6953"/><text fill="#000000" font-family="sans-serif" font-size="14" lengthAdjust="spacing" textLength="48" x="20" y="77.9951">Parent</text><ellipse cx="47" cy="13.5" fill="#E2E2F0" rx="8" ry="8" style="stroke:#181818;stroke-width:0.5;"/><path d="M47,21.5 L47,48.5 M34,29.5 L60,29.5 M47,48.5 L34,63.5 M47,48.5 L60,63.5 " fill="none" style="stroke:#181818;stroke-width:0.5;"/><text fill="#000000" font-family="sans-serif" font-size="14" lengthAdjust="spacing" textLength="205" x="103.5" y="77.9951">SleepTimeManagementView</text><path d="M188.5,37 L188.5,61 M188.5,49 L205.5,49 " fill="none" style="stroke:#181818;stroke-width:0.5;"/><ellipse cx="217.5" cy="49" fill="#E2E2F0" rx="12" ry="12" style="stroke:#181818;stroke-width:0.5;"/><text fill="#000000" font-family="sans-serif" font-size="14" lengthAdjust="spacing" textLength="150" x="324.5" y="77.9951">SleepTimeController</text><ellipse cx="402.5" cy="49" fill="#E2E2F0" rx="12" ry="12" style="stroke:#181818;stroke-width:0.5;"/><polygon fill="#181818" points="398.5,37,404.5,32,402.5,37,404.5,42,398.5,37" style="stroke:#181818;stroke-width:1.0;"/><text fill="#000000" font-family="sans-serif" font-size="14" lengthAdjust="spacing" textLength="43" x="531" y="77.9951">CHILD</text><ellipse cx="555.5" cy="49" fill="#E2E2F0" rx="12" ry="12" style="stroke:#181818;stroke-width:0.5;"/><line style="stroke:#181818;stroke-width:0.5;" x1="543.5" x2="567.5" y1="63" y2="63"/><text fill="#000000" font-family="sans-serif" font-size="14" lengthAdjust="spacing" textLength="78" x="590" y="77.9951">SLEEPTIME</text><ellipse cx="632" cy="49" fill="#E2E2F0" rx="12" ry="12" style="stroke:#181818;stroke-width:0.5;"/><line style="stroke:#181818;stroke-width:0.5;" x1="620" x2="644" y1="63" y2="63"/><polygon fill="#181818" points="543.5,108.4297,553.5,112.4297,543.5,116.4297,547.5,112.4297" style="stroke:#181818;stroke-width:1.0;"/><line style="stroke:#181818;stroke-width:1.0;" x1="402.5" x2="549.5" y1="112.4297" y2="112.4297"/><text fill="#000000" font-family="sans-serif" font-size="13" font-weight="bold" lengthAdjust="spacing" textLength="9" x="409.5" y="107.3638">1</text><text fill="#000000" font-family="sans-serif" font-size="13" lengthAdjust="spacing" textLength="116" x="422.5" y="107.3638">Get list of children</text><polygon fill="#181818" points="413.5,137.5625,403.5,141.5625,413.5,145.5625,409.5,141.5625" style="stroke:#181818;stroke-width:1.0;"/><line style="stroke:#181818;stroke-width:1.0;stroke-dasharray:2.0,2.0;" x1="407.5" x2="554.5" y1="141.5625" y2="141.5625"/><text fill="#000000" font-family="sans-serif" font-size="13" font-weight="bold" lengthAdjust="spacing" textLength="9" x="419.5" y="136.4966">2</text><text fill="#000000" font-family="sans-serif" font-size="13" lengthAdjust="spacing" textLength="93" x="432.5" y="136.4966">List of children</text><polygon fill="#181818" points="220,166.6953,210,170.6953,220,174.6953,216,170.6953" style="stroke:#181818;stroke-width:1.0;"/><line style="stroke:#181818;stroke-width:1.0;stroke-dasharray:2.0,2.0;" x1="214" x2="401.5" y1="170.6953" y2="170.6953"/><text fill="#000000" font-family="sans-serif" font-size="13" font-weight="bold" lengthAdjust="spacing" textLength="8" x="226" y="165.6294">3</text><text fill="#000000" font-family="sans-serif" font-size="13" lengthAdjust="spacing" textLength="93" x="238" y="165.6294">List of children</text><line style="stroke:#181818;stroke-width:1.0;" x1="209" x2="251" y1="199.8281" y2="199.8281"/><line style="stroke:#181818;stroke-width:1.0;" x1="251" x2="251" y1="199.8281" y2="212.8281"/><line style="stroke:#181818;stroke-width:1.0;" x1="210" x2="251" y1="212.8281" y2="212.8281"/><polygon fill="#181818" points="220,208.8281,210,212.8281,220,216.8281,216,212.8281" style="stroke:#181818;stroke-width:1.0;"/><text fill="#000000" font-family="sans-serif" font-size="13" font-weight="bold" lengthAdjust="spacing" textLength="9" x="216" y="194.7622">4</text><text fill="#000000" font-family="sans-serif" font-size="13" lengthAdjust="spacing" textLength="140" x="229" y="194.7622">Display list of children</text><polygon fill="#181818" points="197,253.0938,207,257.0938,197,261.0938,201,257.0938" style="stroke:#181818;stroke-width:1.0;"/><line style="stroke:#181818;stroke-width:1.0;" x1="47" x2="203" y1="257.0938" y2="257.0938"/><text fill="#000000" font-family="sans-serif" font-size="13" font-weight="bold" lengthAdjust="spacing" textLength="9" x="54" y="244.4614">5</text><text fill="#000000" font-family="sans-serif" font-size="13" lengthAdjust="spacing" textLength="125" x="67" y="236.895">Select child want to</text><text fill="#000000" font-family="sans-serif" font-size="13" lengthAdjust="spacing" textLength="101" x="67" y="252.0278">view sleep time</text><polygon fill="#181818" points="197,282.2266,207,286.2266,197,290.2266,201,286.2266" style="stroke:#181818;stroke-width:1.0;"/><line style="stroke:#181818;stroke-width:1.0;" x1="47" x2="203" y1="286.2266" y2="286.2266"/><text fill="#000000" font-family="sans-serif" font-size="13" font-weight="bold" lengthAdjust="spacing" textLength="9" x="54" y="281.1606">6</text><text fill="#000000" font-family="sans-serif" font-size="13" lengthAdjust="spacing" textLength="104" x="67" y="281.1606">Choose function</text><path d="M10,301.2266 L82,301.2266 L82,308.3594 L72,318.3594 L10,318.3594 L10,301.2266 " fill="#EEEEEE" style="stroke:#000000;stroke-width:1.5;"/><rect fill="none" height="61.2344" style="stroke:#000000;stroke-width:1.5;" width="674" x="10" y="301.2266"/><text fill="#000000" font-family="sans-serif" font-size="13" font-weight="bold" lengthAdjust="spacing" textLength="27" x="25" y="314.2935">opt</text><text fill="#000000" font-family="sans-serif" font-size="11" font-weight="bold" lengthAdjust="spacing" textLength="58" x="97" y="313.437">[Update]</text><rect fill="none" height="39.1016" style="stroke:#000000;stroke-width:1.5;" width="660" x="17" y="318.3594"/><path d="M17,318.3594 L85,318.3594 L85,325.3594 L75,335.3594 L17,335.3594 L17,318.3594 " fill="#EEEEEE" style="stroke:#000000;stroke-width:2.0;"/><text fill="#000000" font-family="sans-serif" font-size="13" font-weight="bold" lengthAdjust="spacing" textLength="23" x="30" y="332.4263">ref</text><text fill="#000000" font-family="sans-serif" font-size="12" lengthAdjust="spacing" textLength="181" x="256.5" y="350.498">Sequence Update Sleep Time</text><path d="M10,376.4609 L82,376.4609 L82,383.5938 L72,393.5938 L10,393.5938 L10,376.4609 " fill="#EEEEEE" style="stroke:#000000;stroke-width:1.5;"/><rect fill="none" height="61.2344" style="stroke:#000000;stroke-width:1.5;" width="674" x="10" y="376.4609"/><text fill="#000000" font-family="sans-serif" font-size="13" font-weight="bold" lengthAdjust="spacing" textLength="27" x="25" y="389.5278">opt</text><text fill="#000000" font-family="sans-serif" font-size="11" font-weight="bold" lengthAdjust="spacing" textLength="171" x="97" y="388.6714">[View Sleep Time History]</text><rect fill="none" height="39.1016" style="stroke:#000000;stroke-width:1.5;" width="660" x="17" y="393.5938"/><path d="M17,393.5938 L85,393.5938 L85,400.5938 L75,410.5938 L17,410.5938 L17,393.5938 " fill="#EEEEEE" style="stroke:#000000;stroke-width:2.0;"/><text fill="#000000" font-family="sans-serif" font-size="13" font-weight="bold" lengthAdjust="spacing" textLength="23" x="30" y="407.6606">ref</text><text fill="#000000" font-family="sans-serif" font-size="12" lengthAdjust="spacing" textLength="213" x="240.5" y="425.7324">Sequence View Sleep Time History</text><!--SRC=[jP51ReD034NtSmeV02wGHJS4DP6858cqgsu6C6MaoPWC9Ycthyaqeca9wgRimFzzV_nrp-JwOu5UDQP2g8cue0-bTCdaOQyzEbO5zQxIVe3S8hO7SyITTleTZp9yDNXH9JdsPATv4ZvOyHMDuG6IpJPRtrxoB4ttX-qkLMe6WVWfo5VmZ0pMT0nKGzaOMqaUTPr178jiXbv1zXEOtV6Tll-T9OTx9IoPh4tNMZtypX-kkiZcQB7aWC15YvhfpPt7bTt800i4Vt5A6g9EYkrToOQSKjGolBILPbGWZySQw8othgD7Jj7ShQFGKpGLEaO_zUXA_5eIC1WvQRyA-w-tcmQmaHEH7_uvqAEj4kiJ]--></g></svg>