<?xml version="1.0" encoding="us-ascii" standalone="no"?><svg xmlns="http://www.w3.org/2000/svg" xmlns:xlink="http://www.w3.org/1999/xlink" contentStyleType="text/css" height="903px" preserveAspectRatio="none" style="width:938px;height:903px;background:#FFFFFF;" version="1.1" viewBox="0 0 938 903" width="938px" zoomAndPan="magnify"><defs/><g><rect fill="none" height="174.4688" style="stroke:#000000;stroke-width:1.5;" width="693" x="164" y="98.2969"/><rect fill="none" height="521.6016" style="stroke:#000000;stroke-width:1.5;" width="921" x="10" y="358.0313"/><rect fill="none" height="274.8672" style="stroke:#000000;stroke-width:1.5;" width="749" x="164" y="597.7656"/><line style="stroke:#181818;stroke-width:0.5;stroke-dasharray:5.0,5.0;" x1="47" x2="47" y1="81.2969" y2="896.6328"/><line style="stroke:#181818;stroke-width:0.5;stroke-dasharray:5.0,5.0;" x1="275" x2="275" y1="81.2969" y2="896.6328"/><line style="stroke:#181818;stroke-width:0.5;stroke-dasharray:5.0,5.0;" x1="538" x2="538" y1="81.2969" y2="896.6328"/><line style="stroke:#181818;stroke-width:0.5;stroke-dasharray:5.0,5.0;" x1="805" x2="805" y1="81.2969" y2="896.6328"/><text fill="#000000" font-family="sans-serif" font-size="14" lengthAdjust="spacing" textLength="48" x="20" y="77.9951">Parent</text><ellipse cx="47" cy="13.5" fill="#E2E2F0" rx="8" ry="8" style="stroke:#181818;stroke-width:0.5;"/><path d="M47,21.5 L47,48.5 M34,29.5 L60,29.5 M47,48.5 L34,63.5 M47,48.5 L60,63.5 " fill="none" style="stroke:#181818;stroke-width:0.5;"/><text fill="#000000" font-family="sans-serif" font-size="14" lengthAdjust="spacing" textLength="196" x="174" y="77.9951">SleepTimeInformationView</text><path d="M254.5,37 L254.5,61 M254.5,49 L271.5,49 " fill="none" style="stroke:#181818;stroke-width:0.5;"/><ellipse cx="283.5" cy="49" fill="#E2E2F0" rx="12" ry="12" style="stroke:#181818;stroke-width:0.5;"/><text fill="#000000" font-family="sans-serif" font-size="14" lengthAdjust="spacing" textLength="150" x="460" y="77.9951">SleepTimeController</text><ellipse cx="538" cy="49" fill="#E2E2F0" rx="12" ry="12" style="stroke:#181818;stroke-width:0.5;"/><polygon fill="#181818" points="534,37,540,32,538,37,540,42,534,37" style="stroke:#181818;stroke-width:1.0;"/><text fill="#000000" font-family="sans-serif" font-size="14" lengthAdjust="spacing" textLength="78" x="763" y="77.9951">SLEEPTIME</text><ellipse cx="805" cy="49" fill="#E2E2F0" rx="12" ry="12" style="stroke:#181818;stroke-width:0.5;"/><line style="stroke:#181818;stroke-width:0.5;" x1="793" x2="817" y1="63" y2="63"/><path d="M164,98.2969 L230,98.2969 L230,105.4297 L220,115.4297 L164,115.4297 L164,98.2969 " fill="#EEEEEE" style="stroke:#000000;stroke-width:1.5;"/><rect fill="none" height="174.4688" style="stroke:#000000;stroke-width:1.5;" width="693" x="164" y="98.2969"/><text fill="#000000" font-family="sans-serif" font-size="13" font-weight="bold" lengthAdjust="spacing" textLength="21" x="179" y="111.3638">alt</text><text fill="#000000" font-family="sans-serif" font-size="11" font-weight="bold" lengthAdjust="spacing" textLength="76" x="245" y="110.5073">[First time]</text><line style="stroke:#181818;stroke-width:1.0;" x1="275" x2="317" y1="136.5625" y2="136.5625"/><line style="stroke:#181818;stroke-width:1.0;" x1="317" x2="317" y1="136.5625" y2="149.5625"/><line style="stroke:#181818;stroke-width:1.0;" x1="276" x2="317" y1="149.5625" y2="149.5625"/><polygon fill="#181818" points="286,145.5625,276,149.5625,286,153.5625,282,149.5625" style="stroke:#181818;stroke-width:1.0;"/><text fill="#000000" font-family="sans-serif" font-size="13" font-weight="bold" lengthAdjust="spacing" textLength="9" x="282" y="131.4966">1</text><text fill="#000000" font-family="sans-serif" font-size="13" lengthAdjust="spacing" textLength="202" x="295" y="131.4966">Display with empty information</text><line style="stroke:#000000;stroke-width:1.0;stroke-dasharray:2.0,2.0;" x1="164" x2="857" y1="158.5625" y2="158.5625"/><text fill="#000000" font-family="sans-serif" font-size="11" font-weight="bold" lengthAdjust="spacing" textLength="58" x="169" y="168.7729">[Update]</text><polygon fill="#181818" points="793,189.5,803,193.5,793,197.5,797,193.5" style="stroke:#181818;stroke-width:1.0;"/><line style="stroke:#181818;stroke-width:1.0;" x1="538" x2="799" y1="193.5" y2="193.5"/><text fill="#000000" font-family="sans-serif" font-size="13" font-weight="bold" lengthAdjust="spacing" textLength="9" x="545" y="188.4341">2</text><text fill="#000000" font-family="sans-serif" font-size="13" lengthAdjust="spacing" textLength="230" x="558" y="188.4341">Get selected sleep time information</text><polygon fill="#181818" points="286,218.6328,276,222.6328,286,226.6328,282,222.6328" style="stroke:#181818;stroke-width:1.0;"/><line style="stroke:#181818;stroke-width:1.0;stroke-dasharray:2.0,2.0;" x1="280" x2="804" y1="222.6328" y2="222.6328"/><text fill="#000000" font-family="sans-serif" font-size="13" font-weight="bold" lengthAdjust="spacing" textLength="8" x="292" y="217.5669">3</text><text fill="#000000" font-family="sans-serif" font-size="13" lengthAdjust="spacing" textLength="204" x="304" y="217.5669">Selected sleep time information</text><line style="stroke:#181818;stroke-width:1.0;" x1="275" x2="317" y1="251.7656" y2="251.7656"/><line style="stroke:#181818;stroke-width:1.0;" x1="317" x2="317" y1="251.7656" y2="264.7656"/><line style="stroke:#181818;stroke-width:1.0;" x1="276" x2="317" y1="264.7656" y2="264.7656"/><polygon fill="#181818" points="286,260.7656,276,264.7656,286,268.7656,282,264.7656" style="stroke:#181818;stroke-width:1.0;"/><text fill="#000000" font-family="sans-serif" font-size="13" font-weight="bold" lengthAdjust="spacing" textLength="9" x="282" y="246.6997">4</text><text fill="#000000" font-family="sans-serif" font-size="13" lengthAdjust="spacing" textLength="196" x="295" y="246.6997">Display sleep time information</text><polygon fill="#181818" points="263,296.8984,273,300.8984,263,304.8984,267,300.8984" style="stroke:#181818;stroke-width:1.0;"/><line style="stroke:#181818;stroke-width:1.0;" x1="47" x2="269" y1="300.8984" y2="300.8984"/><text fill="#000000" font-family="sans-serif" font-size="13" font-weight="bold" lengthAdjust="spacing" textLength="9" x="54" y="295.8325">5</text><text fill="#000000" font-family="sans-serif" font-size="13" lengthAdjust="spacing" textLength="183" x="67" y="295.8325">Enter sleep time information</text><line style="stroke:#181818;stroke-width:1.0;" x1="275" x2="317" y1="330.0313" y2="330.0313"/><line style="stroke:#181818;stroke-width:1.0;" x1="317" x2="317" y1="330.0313" y2="343.0313"/><line style="stroke:#181818;stroke-width:1.0;" x1="276" x2="317" y1="343.0313" y2="343.0313"/><polygon fill="#181818" points="286,339.0313,276,343.0313,286,347.0313,282,343.0313" style="stroke:#181818;stroke-width:1.0;"/><text fill="#000000" font-family="sans-serif" font-size="13" font-weight="bold" lengthAdjust="spacing" textLength="9" x="282" y="324.9653">6</text><text fill="#000000" font-family="sans-serif" font-size="13" lengthAdjust="spacing" textLength="85" x="295" y="324.9653">Validate data</text><path d="M10,358.0313 L76,358.0313 L76,365.1641 L66,375.1641 L10,375.1641 L10,358.0313 " fill="#EEEEEE" style="stroke:#000000;stroke-width:1.5;"/><rect fill="none" height="521.6016" style="stroke:#000000;stroke-width:1.5;" width="921" x="10" y="358.0313"/><text fill="#000000" font-family="sans-serif" font-size="13" font-weight="bold" lengthAdjust="spacing" textLength="21" x="25" y="371.0981">alt</text><text fill="#000000" font-family="sans-serif" font-size="11" font-weight="bold" lengthAdjust="spacing" textLength="88" x="91" y="370.2417">[Invalid data]</text><polygon fill="#181818" points="58,392.2969,48,396.2969,58,400.2969,54,396.2969" style="stroke:#181818;stroke-width:1.0;"/><line style="stroke:#181818;stroke-width:1.0;stroke-dasharray:2.0,2.0;" x1="52" x2="274" y1="396.2969" y2="396.2969"/><text fill="#000000" font-family="sans-serif" font-size="13" font-weight="bold" lengthAdjust="spacing" textLength="9" x="64" y="391.231">7</text><text fill="#000000" font-family="sans-serif" font-size="13" lengthAdjust="spacing" textLength="106" x="77" y="391.231">Error notification</text><line style="stroke:#181818;stroke-width:1.0;" x1="275" x2="317" y1="425.4297" y2="425.4297"/><line style="stroke:#181818;stroke-width:1.0;" x1="317" x2="317" y1="425.4297" y2="438.4297"/><line style="stroke:#181818;stroke-width:1.0;" x1="276" x2="317" y1="438.4297" y2="438.4297"/><polygon fill="#181818" points="286,434.4297,276,438.4297,286,442.4297,282,438.4297" style="stroke:#181818;stroke-width:1.0;"/><text fill="#000000" font-family="sans-serif" font-size="13" font-weight="bold" lengthAdjust="spacing" textLength="9" x="282" y="420.3638">8</text><text fill="#000000" font-family="sans-serif" font-size="13" lengthAdjust="spacing" textLength="157" x="295" y="420.3638">Display error notification</text><line style="stroke:#000000;stroke-width:1.0;stroke-dasharray:2.0,2.0;" x1="10" x2="931" y1="447.4297" y2="447.4297"/><text fill="#000000" font-family="sans-serif" font-size="11" font-weight="bold" lengthAdjust="spacing" textLength="78" x="15" y="457.6401">[Valid data]</text><polygon fill="#181818" points="263,478.3672,273,482.3672,263,486.3672,267,482.3672" style="stroke:#181818;stroke-width:1.0;"/><line style="stroke:#181818;stroke-width:1.0;" x1="47" x2="269" y1="482.3672" y2="482.3672"/><text fill="#000000" font-family="sans-serif" font-size="13" font-weight="bold" lengthAdjust="spacing" textLength="9" x="54" y="477.3013">9</text><text fill="#000000" font-family="sans-serif" font-size="13" lengthAdjust="spacing" textLength="191" x="67" y="477.3013">Click button "Save" to confirm</text><polygon fill="#181818" points="526,507.5,536,511.5,526,515.5,530,511.5" style="stroke:#181818;stroke-width:1.0;"/><line style="stroke:#181818;stroke-width:1.0;" x1="275" x2="532" y1="511.5" y2="511.5"/><text fill="#000000" font-family="sans-serif" font-size="13" font-weight="bold" lengthAdjust="spacing" textLength="19" x="282" y="506.4341">10</text><text fill="#000000" font-family="sans-serif" font-size="13" lengthAdjust="spacing" textLength="216" x="305" y="506.4341">Send updating sleep time request</text><polygon fill="#181818" points="793,536.6328,803,540.6328,793,544.6328,797,540.6328" style="stroke:#181818;stroke-width:1.0;"/><line style="stroke:#181818;stroke-width:1.0;" x1="538" x2="799" y1="540.6328" y2="540.6328"/><text fill="#000000" font-family="sans-serif" font-size="13" font-weight="bold" lengthAdjust="spacing" textLength="18" x="545" y="535.5669">11</text><text fill="#000000" font-family="sans-serif" font-size="13" lengthAdjust="spacing" textLength="110" x="567" y="535.5669">Send information</text><line style="stroke:#181818;stroke-width:1.0;" x1="805" x2="847" y1="569.7656" y2="569.7656"/><line style="stroke:#181818;stroke-width:1.0;" x1="847" x2="847" y1="569.7656" y2="582.7656"/><line style="stroke:#181818;stroke-width:1.0;" x1="806" x2="847" y1="582.7656" y2="582.7656"/><polygon fill="#181818" points="816,578.7656,806,582.7656,816,586.7656,812,582.7656" style="stroke:#181818;stroke-width:1.0;"/><text fill="#000000" font-family="sans-serif" font-size="13" font-weight="bold" lengthAdjust="spacing" textLength="18" x="812" y="564.6997">12</text><text fill="#000000" font-family="sans-serif" font-size="13" lengthAdjust="spacing" textLength="85" x="834" y="564.6997">Validate data</text><path d="M164,597.7656 L230,597.7656 L230,604.8984 L220,614.8984 L164,614.8984 L164,597.7656 " fill="#EEEEEE" style="stroke:#000000;stroke-width:1.5;"/><rect fill="none" height="274.8672" style="stroke:#000000;stroke-width:1.5;" width="749" x="164" y="597.7656"/><text fill="#000000" font-family="sans-serif" font-size="13" font-weight="bold" lengthAdjust="spacing" textLength="21" x="179" y="610.8325">alt</text><text fill="#000000" font-family="sans-serif" font-size="11" font-weight="bold" lengthAdjust="spacing" textLength="88" x="245" y="609.9761">[Invalid data]</text><polygon fill="#181818" points="549,632.0313,539,636.0313,549,640.0313,545,636.0313" style="stroke:#181818;stroke-width:1.0;"/><line style="stroke:#181818;stroke-width:1.0;stroke-dasharray:2.0,2.0;" x1="543" x2="804" y1="636.0313" y2="636.0313"/><text fill="#000000" font-family="sans-serif" font-size="13" font-weight="bold" lengthAdjust="spacing" textLength="17" x="555" y="630.9653">13</text><text fill="#000000" font-family="sans-serif" font-size="13" lengthAdjust="spacing" textLength="106" x="576" y="630.9653">Error notification</text><polygon fill="#181818" points="286,661.1641,276,665.1641,286,669.1641,282,665.1641" style="stroke:#181818;stroke-width:1.0;"/><line style="stroke:#181818;stroke-width:1.0;stroke-dasharray:2.0,2.0;" x1="280" x2="537" y1="665.1641" y2="665.1641"/><text fill="#000000" font-family="sans-serif" font-size="13" font-weight="bold" lengthAdjust="spacing" textLength="18" x="292" y="660.0981">14</text><text fill="#000000" font-family="sans-serif" font-size="13" lengthAdjust="spacing" textLength="106" x="314" y="660.0981">Error notification</text><line style="stroke:#181818;stroke-width:1.0;" x1="275" x2="317" y1="694.2969" y2="694.2969"/><line style="stroke:#181818;stroke-width:1.0;" x1="317" x2="317" y1="694.2969" y2="707.2969"/><line style="stroke:#181818;stroke-width:1.0;" x1="276" x2="317" y1="707.2969" y2="707.2969"/><polygon fill="#181818" points="286,703.2969,276,707.2969,286,711.2969,282,707.2969" style="stroke:#181818;stroke-width:1.0;"/><text fill="#000000" font-family="sans-serif" font-size="13" font-weight="bold" lengthAdjust="spacing" textLength="18" x="282" y="689.231">15</text><text fill="#000000" font-family="sans-serif" font-size="13" lengthAdjust="spacing" textLength="157" x="304" y="689.231">Display error notification</text><line style="stroke:#000000;stroke-width:1.0;stroke-dasharray:2.0,2.0;" x1="164" x2="913" y1="716.2969" y2="716.2969"/><text fill="#000000" font-family="sans-serif" font-size="11" font-weight="bold" lengthAdjust="spacing" textLength="78" x="169" y="726.5073">[Valid data]</text><line style="stroke:#181818;stroke-width:1.0;" x1="805" x2="847" y1="751.2344" y2="751.2344"/><line style="stroke:#181818;stroke-width:1.0;" x1="847" x2="847" y1="751.2344" y2="764.2344"/><line style="stroke:#181818;stroke-width:1.0;" x1="806" x2="847" y1="764.2344" y2="764.2344"/><polygon fill="#181818" points="816,760.2344,806,764.2344,816,768.2344,812,764.2344" style="stroke:#181818;stroke-width:1.0;"/><text fill="#000000" font-family="sans-serif" font-size="13" font-weight="bold" lengthAdjust="spacing" textLength="18" x="812" y="746.1685">16</text><text fill="#000000" font-family="sans-serif" font-size="13" lengthAdjust="spacing" textLength="67" x="834" y="746.1685">Store data</text><polygon fill="#181818" points="549,789.3672,539,793.3672,549,797.3672,545,793.3672" style="stroke:#181818;stroke-width:1.0;"/><line style="stroke:#181818;stroke-width:1.0;stroke-dasharray:2.0,2.0;" x1="543" x2="804" y1="793.3672" y2="793.3672"/><text fill="#000000" font-family="sans-serif" font-size="13" font-weight="bold" lengthAdjust="spacing" textLength="18" x="555" y="788.3013">17</text><text fill="#000000" font-family="sans-serif" font-size="13" lengthAdjust="spacing" textLength="127" x="577" y="788.3013">Success notification</text><polygon fill="#181818" points="286,818.5,276,822.5,286,826.5,282,822.5" style="stroke:#181818;stroke-width:1.0;"/><line style="stroke:#181818;stroke-width:1.0;stroke-dasharray:2.0,2.0;" x1="280" x2="537" y1="822.5" y2="822.5"/><text fill="#000000" font-family="sans-serif" font-size="13" font-weight="bold" lengthAdjust="spacing" textLength="18" x="292" y="817.4341">18</text><text fill="#000000" font-family="sans-serif" font-size="13" lengthAdjust="spacing" textLength="127" x="314" y="817.4341">Success notification</text><line style="stroke:#181818;stroke-width:1.0;" x1="275" x2="317" y1="851.6328" y2="851.6328"/><line style="stroke:#181818;stroke-width:1.0;" x1="317" x2="317" y1="851.6328" y2="864.6328"/><line style="stroke:#181818;stroke-width:1.0;" x1="276" x2="317" y1="864.6328" y2="864.6328"/><polygon fill="#181818" points="286,860.6328,276,864.6328,286,868.6328,282,864.6328" style="stroke:#181818;stroke-width:1.0;"/><text fill="#000000" font-family="sans-serif" font-size="13" font-weight="bold" lengthAdjust="spacing" textLength="18" x="282" y="846.5669">19</text><text fill="#000000" font-family="sans-serif" font-size="13" lengthAdjust="spacing" textLength="159" x="304" y="846.5669">Dislay update successful</text><!--SRC=[hPH1ReCm44Ntd6AKVIwGHJSfhIArKYJIx0qCpQZ6flOuQMxVCIWYg05H9KYmCEFdxp_VLe6j2NMEBZbGYL1PoxdzIH9Li7MmLGuD9xaDfbJk39b6R7PKuyPKrjMAoPezuIafh65dTL-mxWQqW8L0B7FVqdIxsxod0jSCB-Gy0qif923F61gMJwF_Ll1Clj7g32VY0s3To3hKroIeFS97Koh6uIAzl9P_aRQ2LsJmgB5WBC77yaxZDRKbNQR0Sb9WDeTrrzP7m6ZA5jwrS1gL6XOZReFWdlRibQPeFiX7jMtVc6CSwmQcmKBkn8j0voIDnZ9LL3pAEFmBRVEo7mgSO-1QK_45UM0vJR38r14Nm1RaL5JawlbQ-rZ6v9WIGimkcS_hvZZy3kXvPg1Rp4Hw1yN3ViNAcpsRE03NEnZfsgZkwOpEW3qg1X5wAmfJrcLoN-A_BSf2KQ3tZp9f7kw_DaMNsY0Y-6w1AkZE9BbavFq5]--></g></svg>