<?xml version="1.0" encoding="us-ascii" standalone="no"?><svg xmlns="http://www.w3.org/2000/svg" xmlns:xlink="http://www.w3.org/1999/xlink" contentStyleType="text/css" height="647px" preserveAspectRatio="none" style="width:936px;height:647px;background:#FFFFFF;" version="1.1" viewBox="0 0 936 647" width="936px" zoomAndPan="magnify"><defs/><g><rect fill="none" height="292.4609" style="stroke:#000000;stroke-width:1.5;" width="920" x="10" y="98.2969"/><line style="stroke:#181818;stroke-width:0.5;stroke-dasharray:5.0,5.0;" x1="47" x2="47" y1="81.2969" y2="640.9531"/><line style="stroke:#181818;stroke-width:0.5;stroke-dasharray:5.0,5.0;" x1="237.5" x2="237.5" y1="81.2969" y2="640.9531"/><line style="stroke:#181818;stroke-width:0.5;stroke-dasharray:5.0,5.0;" x1="428.5" x2="428.5" y1="81.2969" y2="640.9531"/><line style="stroke:#181818;stroke-width:0.5;stroke-dasharray:5.0,5.0;" x1="634" x2="634" y1="81.2969" y2="640.9531"/><line style="stroke:#181818;stroke-width:0.5;stroke-dasharray:5.0,5.0;" x1="826" x2="826" y1="81.2969" y2="640.9531"/><text fill="#000000" font-family="sans-serif" font-size="14" lengthAdjust="spacing" textLength="48" x="20" y="77.9951">Parent</text><ellipse cx="47" cy="13.5" fill="#E2E2F0" rx="8" ry="8" style="stroke:#181818;stroke-width:0.5;"/><path d="M47,21.5 L47,48.5 M34,29.5 L60,29.5 M47,48.5 L34,63.5 M47,48.5 L60,63.5 " fill="none" style="stroke:#181818;stroke-width:0.5;"/><text fill="#000000" font-family="sans-serif" font-size="14" lengthAdjust="spacing" textLength="77" x="196.5" y="61.6982">SleepTime</text><text fill="#000000" font-family="sans-serif" font-size="14" lengthAdjust="spacing" textLength="85" x="192.5" y="77.9951">HistoryView</text><path d="M217.5,20.7031 L217.5,44.7031 M217.5,32.7031 L234.5,32.7031 " fill="none" style="stroke:#181818;stroke-width:0.5;"/><ellipse cx="246.5" cy="32.7031" fill="#E2E2F0" rx="12" ry="12" style="stroke:#181818;stroke-width:0.5;"/><text fill="#000000" font-family="sans-serif" font-size="14" lengthAdjust="spacing" textLength="77" x="387.5" y="61.6982">SleepTime</text><text fill="#000000" font-family="sans-serif" font-size="14" lengthAdjust="spacing" textLength="119" x="366.5" y="77.9951">InformationView</text><path d="M408.5,20.7031 L408.5,44.7031 M408.5,32.7031 L425.5,32.7031 " fill="none" style="stroke:#181818;stroke-width:0.5;"/><ellipse cx="437.5" cy="32.7031" fill="#E2E2F0" rx="12" ry="12" style="stroke:#181818;stroke-width:0.5;"/><text fill="#000000" font-family="sans-serif" font-size="14" lengthAdjust="spacing" textLength="150" x="556" y="77.9951">SleepTimeController</text><ellipse cx="634" cy="49" fill="#E2E2F0" rx="12" ry="12" style="stroke:#181818;stroke-width:0.5;"/><polygon fill="#181818" points="630,37,636,32,634,37,636,42,630,37" style="stroke:#181818;stroke-width:1.0;"/><text fill="#000000" font-family="sans-serif" font-size="14" lengthAdjust="spacing" textLength="78" x="784" y="77.9951">SLEEPTIME</text><ellipse cx="826" cy="49" fill="#E2E2F0" rx="12" ry="12" style="stroke:#181818;stroke-width:0.5;"/><line style="stroke:#181818;stroke-width:0.5;" x1="814" x2="838" y1="63" y2="63"/><path d="M10,98.2969 L82,98.2969 L82,105.4297 L72,115.4297 L10,115.4297 L10,98.2969 " fill="#EEEEEE" style="stroke:#000000;stroke-width:1.5;"/><rect fill="none" height="292.4609" style="stroke:#000000;stroke-width:1.5;" width="920" x="10" y="98.2969"/><text fill="#000000" font-family="sans-serif" font-size="13" font-weight="bold" lengthAdjust="spacing" textLength="27" x="25" y="111.3638">opt</text><text fill="#000000" font-family="sans-serif" font-size="11" font-weight="bold" lengthAdjust="spacing" textLength="68" x="97" y="110.5073">[Optional]</text><polygon fill="#181818" points="226,147.6953,236,151.6953,226,155.6953,230,151.6953" style="stroke:#181818;stroke-width:1.0;"/><line style="stroke:#181818;stroke-width:1.0;" x1="47" x2="232" y1="151.6953" y2="151.6953"/><text fill="#000000" font-family="sans-serif" font-size="13" font-weight="bold" lengthAdjust="spacing" textLength="9" x="54" y="139.063">1</text><text fill="#000000" font-family="sans-serif" font-size="13" lengthAdjust="spacing" textLength="113" x="67" y="131.4966">Enters the search</text><text fill="#000000" font-family="sans-serif" font-size="13" lengthAdjust="spacing" textLength="134" x="67" y="146.6294">criteria in search box</text><polygon fill="#181818" points="622,191.9609,632,195.9609,622,199.9609,626,195.9609" style="stroke:#181818;stroke-width:1.0;"/><line style="stroke:#181818;stroke-width:1.0;" x1="238" x2="628" y1="195.9609" y2="195.9609"/><text fill="#000000" font-family="sans-serif" font-size="13" font-weight="bold" lengthAdjust="spacing" textLength="9" x="245" y="183.3286">2</text><text fill="#000000" font-family="sans-serif" font-size="13" lengthAdjust="spacing" textLength="169" x="258" y="175.7622">Send searching sleep time</text><text fill="#000000" font-family="sans-serif" font-size="13" lengthAdjust="spacing" textLength="127" x="258" y="190.895">information request</text><polygon fill="#181818" points="814,236.2266,824,240.2266,814,244.2266,818,240.2266" style="stroke:#181818;stroke-width:1.0;"/><line style="stroke:#181818;stroke-width:1.0;" x1="634" x2="820" y1="240.2266" y2="240.2266"/><text fill="#000000" font-family="sans-serif" font-size="13" font-weight="bold" lengthAdjust="spacing" textLength="8" x="641" y="227.5942">3</text><text fill="#000000" font-family="sans-serif" font-size="13" lengthAdjust="spacing" textLength="150" x="653" y="220.0278">Search sleep time base</text><text fill="#000000" font-family="sans-serif" font-size="13" lengthAdjust="spacing" textLength="121" x="653" y="235.1606">on given keywords</text><line style="stroke:#181818;stroke-width:1.0;" x1="826" x2="868" y1="269.3594" y2="269.3594"/><line style="stroke:#181818;stroke-width:1.0;" x1="868" x2="868" y1="269.3594" y2="282.3594"/><line style="stroke:#181818;stroke-width:1.0;" x1="827" x2="868" y1="282.3594" y2="282.3594"/><polygon fill="#181818" points="837,278.3594,827,282.3594,837,286.3594,833,282.3594" style="stroke:#181818;stroke-width:1.0;"/><text fill="#000000" font-family="sans-serif" font-size="13" font-weight="bold" lengthAdjust="spacing" textLength="9" x="833" y="264.2935">4</text><text fill="#000000" font-family="sans-serif" font-size="13" lengthAdjust="spacing" textLength="72" x="846" y="264.2935">Query data</text><polygon fill="#181818" points="645,307.4922,635,311.4922,645,315.4922,641,311.4922" style="stroke:#181818;stroke-width:1.0;"/><line style="stroke:#181818;stroke-width:1.0;stroke-dasharray:2.0,2.0;" x1="639" x2="825" y1="311.4922" y2="311.4922"/><text fill="#000000" font-family="sans-serif" font-size="13" font-weight="bold" lengthAdjust="spacing" textLength="9" x="651" y="306.4263">5</text><text fill="#000000" font-family="sans-serif" font-size="13" lengthAdjust="spacing" textLength="79" x="664" y="306.4263">Query result</text><polygon fill="#181818" points="249,336.625,239,340.625,249,344.625,245,340.625" style="stroke:#181818;stroke-width:1.0;"/><line style="stroke:#181818;stroke-width:1.0;stroke-dasharray:2.0,2.0;" x1="243" x2="633" y1="340.625" y2="340.625"/><text fill="#000000" font-family="sans-serif" font-size="13" font-weight="bold" lengthAdjust="spacing" textLength="9" x="255" y="335.5591">6</text><text fill="#000000" font-family="sans-serif" font-size="13" lengthAdjust="spacing" textLength="79" x="268" y="335.5591">Query result</text><line style="stroke:#181818;stroke-width:1.0;" x1="238" x2="280" y1="369.7578" y2="369.7578"/><line style="stroke:#181818;stroke-width:1.0;" x1="280" x2="280" y1="369.7578" y2="382.7578"/><line style="stroke:#181818;stroke-width:1.0;" x1="239" x2="280" y1="382.7578" y2="382.7578"/><polygon fill="#181818" points="249,378.7578,239,382.7578,249,386.7578,245,382.7578" style="stroke:#181818;stroke-width:1.0;"/><text fill="#000000" font-family="sans-serif" font-size="13" font-weight="bold" lengthAdjust="spacing" textLength="9" x="245" y="364.6919">7</text><text fill="#000000" font-family="sans-serif" font-size="13" lengthAdjust="spacing" textLength="164" x="258" y="364.6919">Display list of sleep times</text><polygon fill="#181818" points="226,430.0234,236,434.0234,226,438.0234,230,434.0234" style="stroke:#181818;stroke-width:1.0;"/><line style="stroke:#181818;stroke-width:1.0;" x1="47" x2="232" y1="434.0234" y2="434.0234"/><text fill="#000000" font-family="sans-serif" font-size="13" font-weight="bold" lengthAdjust="spacing" textLength="9" x="54" y="421.3911">8</text><text fill="#000000" font-family="sans-serif" font-size="13" lengthAdjust="spacing" textLength="64" x="67" y="413.8247">Select the</text><text fill="#000000" font-family="sans-serif" font-size="13" lengthAdjust="spacing" textLength="154" x="67" y="428.9575">sleep time want to view</text><polygon fill="#181818" points="622,459.1563,632,463.1563,622,467.1563,626,463.1563" style="stroke:#181818;stroke-width:1.0;"/><line style="stroke:#181818;stroke-width:1.0;" x1="238" x2="628" y1="463.1563" y2="463.1563"/><text fill="#000000" font-family="sans-serif" font-size="13" font-weight="bold" lengthAdjust="spacing" textLength="9" x="245" y="458.0903">9</text><text fill="#000000" font-family="sans-serif" font-size="13" lengthAdjust="spacing" textLength="230" x="258" y="458.0903">Get selected sleep time information</text><polygon fill="#181818" points="814,503.4219,824,507.4219,814,511.4219,818,507.4219" style="stroke:#181818;stroke-width:1.0;"/><line style="stroke:#181818;stroke-width:1.0;" x1="634" x2="820" y1="507.4219" y2="507.4219"/><text fill="#000000" font-family="sans-serif" font-size="13" font-weight="bold" lengthAdjust="spacing" textLength="19" x="641" y="494.7896">10</text><text fill="#000000" font-family="sans-serif" font-size="13" lengthAdjust="spacing" textLength="81" x="664" y="487.2231">Get selected</text><text fill="#000000" font-family="sans-serif" font-size="13" lengthAdjust="spacing" textLength="145" x="664" y="502.356">sleep time information</text><polygon fill="#181818" points="645,532.5547,635,536.5547,645,540.5547,641,536.5547" style="stroke:#181818;stroke-width:1.0;"/><line style="stroke:#181818;stroke-width:1.0;stroke-dasharray:2.0,2.0;" x1="639" x2="825" y1="536.5547" y2="536.5547"/><text fill="#000000" font-family="sans-serif" font-size="13" font-weight="bold" lengthAdjust="spacing" textLength="18" x="651" y="531.4888">11</text><text fill="#000000" font-family="sans-serif" font-size="13" lengthAdjust="spacing" textLength="79" x="673" y="531.4888">Query result</text><polygon fill="#181818" points="440,561.6875,430,565.6875,440,569.6875,436,565.6875" style="stroke:#181818;stroke-width:1.0;"/><line style="stroke:#181818;stroke-width:1.0;stroke-dasharray:2.0,2.0;" x1="434" x2="633" y1="565.6875" y2="565.6875"/><text fill="#000000" font-family="sans-serif" font-size="13" font-weight="bold" lengthAdjust="spacing" textLength="18" x="446" y="560.6216">12</text><text fill="#000000" font-family="sans-serif" font-size="13" lengthAdjust="spacing" textLength="79" x="468" y="560.6216">Query result</text><line style="stroke:#181818;stroke-width:1.0;" x1="429" x2="471" y1="609.9531" y2="609.9531"/><line style="stroke:#181818;stroke-width:1.0;" x1="471" x2="471" y1="609.9531" y2="622.9531"/><line style="stroke:#181818;stroke-width:1.0;" x1="430" x2="471" y1="622.9531" y2="622.9531"/><polygon fill="#181818" points="440,618.9531,430,622.9531,440,626.9531,436,622.9531" style="stroke:#181818;stroke-width:1.0;"/><text fill="#000000" font-family="sans-serif" font-size="13" font-weight="bold" lengthAdjust="spacing" textLength="17" x="436" y="597.3208">13</text><text fill="#000000" font-family="sans-serif" font-size="13" lengthAdjust="spacing" textLength="170" x="457" y="589.7544">Display view with selected</text><text fill="#000000" font-family="sans-serif" font-size="13" lengthAdjust="spacing" textLength="145" x="457" y="604.8872">sleep time information</text><!--SRC=[bPFFJiCm3CRlUGgBEo-m0nUeO1A8eKwSTaaRRxN8afAuAtrxadMZVrXNhKVRtq-V_QMoOckgVOPE5AGGjjPoPd-4a3bR1olfqB38R6MKT0tSfHgnNDCUD-Q5V1XfFWdhEv0U_bgzncNbqcojsqicQ_whHqsHMyFEwcxWiIteO3bu8suWVKsIrNhvbWXXIuRtCegb5X2-TWEuVxZeRm69ONGUk43mA5rUR4pkADH80fbJ3U998kqIOy3kp2qWHQDE038xy746-7W1wfO4XzyLUXxoEyuHVrumGe-6EXXaqWTY0EteW0Q-iAcjKxxbdOKZoaU58HCbMOx7ffPf5GvzfQzOdJppj7pgaWFv4_bIomPqA8BTzjRtuH4eCPToYXfpZYblJEzqjGmYjd283-scR9-HGxGHYgeVHYzOCHzcdp8mDi3S6CviCAC_R4e-6eEhY7D0yP9G4nUpU_q2]--></g></svg>