<?xml version="1.0" encoding="us-ascii" standalone="no"?><svg xmlns="http://www.w3.org/2000/svg" xmlns:xlink="http://www.w3.org/1999/xlink" contentStyleType="text/css" height="931px" preserveAspectRatio="none" style="width:1011px;height:931px;background:#FFFFFF;" version="1.1" viewBox="0 0 1011 931" width="1011px" zoomAndPan="magnify"><defs/><g><rect fill="none" height="550.7344" style="stroke:#000000;stroke-width:1.5;" width="900" x="10" y="356.3594"/><rect fill="none" height="304" style="stroke:#000000;stroke-width:1.5;" width="817" x="76" y="596.0938"/><line style="stroke:#181818;stroke-width:0.5;stroke-dasharray:5.0,5.0;" x1="48" x2="48" y1="81.2969" y2="924.0938"/><line style="stroke:#181818;stroke-width:0.5;stroke-dasharray:5.0,5.0;" x1="170" x2="170" y1="81.2969" y2="924.0938"/><line style="stroke:#181818;stroke-width:0.5;stroke-dasharray:5.0,5.0;" x1="349" x2="349" y1="81.2969" y2="924.0938"/><line style="stroke:#181818;stroke-width:0.5;stroke-dasharray:5.0,5.0;" x1="597" x2="597" y1="81.2969" y2="924.0938"/><line style="stroke:#181818;stroke-width:0.5;stroke-dasharray:5.0,5.0;" x1="785" x2="785" y1="81.2969" y2="924.0938"/><line style="stroke:#181818;stroke-width:0.5;stroke-dasharray:5.0,5.0;" x1="912" x2="912" y1="81.2969" y2="924.0938"/><text fill="#000000" font-family="sans-serif" font-size="14" lengthAdjust="spacing" textLength="50" x="20" y="77.9951">Doctor</text><ellipse cx="48" cy="13.5" fill="#E2E2F0" rx="8" ry="8" style="stroke:#181818;stroke-width:0.5;"/><path d="M48,21.5 L48,48.5 M35,29.5 L61,29.5 M48,48.5 L35,63.5 M48,48.5 L61,63.5 " fill="none" style="stroke:#181818;stroke-width:0.5;"/><text fill="#000000" font-family="sans-serif" font-size="14" lengthAdjust="spacing" textLength="163" x="86" y="61.6982">ImmunizationSchedule</text><text fill="#000000" font-family="sans-serif" font-size="14" lengthAdjust="spacing" textLength="128" x="103.5" y="77.9951">ManagementView</text><path d="M150,20.7031 L150,44.7031 M150,32.7031 L167,32.7031 " fill="none" style="stroke:#181818;stroke-width:0.5;"/><ellipse cx="179" cy="32.7031" fill="#E2E2F0" rx="12" ry="12" style="stroke:#181818;stroke-width:0.5;"/><text fill="#000000" font-family="sans-serif" font-size="14" lengthAdjust="spacing" textLength="163" x="265" y="61.6982">ImmunizationSchedule</text><text fill="#000000" font-family="sans-serif" font-size="14" lengthAdjust="spacing" textLength="119" x="287" y="77.9951">InformationView</text><path d="M329,20.7031 L329,44.7031 M329,32.7031 L346,32.7031 " fill="none" style="stroke:#181818;stroke-width:0.5;"/><ellipse cx="358" cy="32.7031" fill="#E2E2F0" rx="12" ry="12" style="stroke:#181818;stroke-width:0.5;"/><text fill="#000000" font-family="sans-serif" font-size="14" lengthAdjust="spacing" textLength="163" x="513" y="61.6982">ImmunizationSchedule</text><text fill="#000000" font-family="sans-serif" font-size="14" lengthAdjust="spacing" textLength="73" x="558" y="77.9951">Controller</text><ellipse cx="597.5" cy="32.7031" fill="#E2E2F0" rx="12" ry="12" style="stroke:#181818;stroke-width:0.5;"/><polygon fill="#181818" points="593.5,20.7031,599.5,15.7031,597.5,20.7031,599.5,25.7031,593.5,20.7031" style="stroke:#181818;stroke-width:1.0;"/><text fill="#000000" font-family="sans-serif" font-size="14" lengthAdjust="spacing" textLength="180" x="692" y="77.9951">IMMUNIZATIONSCHEDULE</text><ellipse cx="785" cy="49" fill="#E2E2F0" rx="12" ry="12" style="stroke:#181818;stroke-width:0.5;"/><line style="stroke:#181818;stroke-width:0.5;" x1="773" x2="797" y1="63" y2="63"/><text fill="#000000" font-family="sans-serif" font-size="14" lengthAdjust="spacing" textLength="43" x="888" y="77.9951">CHILD</text><ellipse cx="912.5" cy="49" fill="#E2E2F0" rx="12" ry="12" style="stroke:#181818;stroke-width:0.5;"/><line style="stroke:#181818;stroke-width:0.5;" x1="900.5" x2="924.5" y1="63" y2="63"/><polygon fill="#181818" points="900.5,108.4297,910.5,112.4297,900.5,116.4297,904.5,112.4297" style="stroke:#181818;stroke-width:1.0;"/><line style="stroke:#181818;stroke-width:1.0;" x1="597.5" x2="906.5" y1="112.4297" y2="112.4297"/><text fill="#000000" font-family="sans-serif" font-size="13" font-weight="bold" lengthAdjust="spacing" textLength="9" x="604.5" y="107.3638">1</text><text fill="#000000" font-family="sans-serif" font-size="13" lengthAdjust="spacing" textLength="116" x="617.5" y="107.3638">Get list of children</text><line style="stroke:#181818;stroke-width:1.0;" x1="912.5" x2="954.5" y1="141.5625" y2="141.5625"/><line style="stroke:#181818;stroke-width:1.0;" x1="954.5" x2="954.5" y1="141.5625" y2="154.5625"/><line style="stroke:#181818;stroke-width:1.0;" x1="913.5" x2="954.5" y1="154.5625" y2="154.5625"/><polygon fill="#181818" points="923.5,150.5625,913.5,154.5625,923.5,158.5625,919.5,154.5625" style="stroke:#181818;stroke-width:1.0;"/><text fill="#000000" font-family="sans-serif" font-size="13" font-weight="bold" lengthAdjust="spacing" textLength="9" x="919.5" y="136.4966">2</text><text fill="#000000" font-family="sans-serif" font-size="13" lengthAdjust="spacing" textLength="72" x="932.5" y="136.4966">Query data</text><polygon fill="#181818" points="608.5,179.6953,598.5,183.6953,608.5,187.6953,604.5,183.6953" style="stroke:#181818;stroke-width:1.0;"/><line style="stroke:#181818;stroke-width:1.0;stroke-dasharray:2.0,2.0;" x1="602.5" x2="911.5" y1="183.6953" y2="183.6953"/><text fill="#000000" font-family="sans-serif" font-size="13" font-weight="bold" lengthAdjust="spacing" textLength="8" x="614.5" y="178.6294">3</text><text fill="#000000" font-family="sans-serif" font-size="13" lengthAdjust="spacing" textLength="79" x="626.5" y="178.6294">Query result</text><polygon fill="#181818" points="360.5,208.8281,350.5,212.8281,360.5,216.8281,356.5,212.8281" style="stroke:#181818;stroke-width:1.0;"/><line style="stroke:#181818;stroke-width:1.0;stroke-dasharray:2.0,2.0;" x1="354.5" x2="596.5" y1="212.8281" y2="212.8281"/><text fill="#000000" font-family="sans-serif" font-size="13" font-weight="bold" lengthAdjust="spacing" textLength="9" x="366.5" y="207.7622">4</text><text fill="#000000" font-family="sans-serif" font-size="13" lengthAdjust="spacing" textLength="79" x="379.5" y="207.7622">Query result</text><line style="stroke:#181818;stroke-width:1.0;" x1="349.5" x2="391.5" y1="257.0938" y2="257.0938"/><line style="stroke:#181818;stroke-width:1.0;" x1="391.5" x2="391.5" y1="257.0938" y2="270.0938"/><line style="stroke:#181818;stroke-width:1.0;" x1="350.5" x2="391.5" y1="270.0938" y2="270.0938"/><polygon fill="#181818" points="360.5,266.0938,350.5,270.0938,360.5,274.0938,356.5,270.0938" style="stroke:#181818;stroke-width:1.0;"/><text fill="#000000" font-family="sans-serif" font-size="13" font-weight="bold" lengthAdjust="spacing" textLength="9" x="356.5" y="244.4614">5</text><text fill="#000000" font-family="sans-serif" font-size="13" lengthAdjust="spacing" textLength="78" x="369.5" y="236.895">Display with</text><text fill="#000000" font-family="sans-serif" font-size="13" lengthAdjust="spacing" textLength="120" x="369.5" y="252.0278">empty information</text><polygon fill="#181818" points="337.5,295.2266,347.5,299.2266,337.5,303.2266,341.5,299.2266" style="stroke:#181818;stroke-width:1.0;"/><line style="stroke:#181818;stroke-width:1.0;" x1="48" x2="343.5" y1="299.2266" y2="299.2266"/><text fill="#000000" font-family="sans-serif" font-size="13" font-weight="bold" lengthAdjust="spacing" textLength="9" x="55" y="294.1606">6</text><text fill="#000000" font-family="sans-serif" font-size="13" lengthAdjust="spacing" textLength="173" x="68" y="294.1606">Enter schedule information</text><line style="stroke:#181818;stroke-width:1.0;" x1="349.5" x2="391.5" y1="328.3594" y2="328.3594"/><line style="stroke:#181818;stroke-width:1.0;" x1="391.5" x2="391.5" y1="328.3594" y2="341.3594"/><line style="stroke:#181818;stroke-width:1.0;" x1="350.5" x2="391.5" y1="341.3594" y2="341.3594"/><polygon fill="#181818" points="360.5,337.3594,350.5,341.3594,360.5,345.3594,356.5,341.3594" style="stroke:#181818;stroke-width:1.0;"/><text fill="#000000" font-family="sans-serif" font-size="13" font-weight="bold" lengthAdjust="spacing" textLength="9" x="356.5" y="323.2935">7</text><text fill="#000000" font-family="sans-serif" font-size="13" lengthAdjust="spacing" textLength="85" x="369.5" y="323.2935">Validate data</text><path d="M10,356.3594 L76,356.3594 L76,363.4922 L66,373.4922 L10,373.4922 L10,356.3594 " fill="#EEEEEE" style="stroke:#000000;stroke-width:1.5;"/><rect fill="none" height="550.7344" style="stroke:#000000;stroke-width:1.5;" width="900" x="10" y="356.3594"/><text fill="#000000" font-family="sans-serif" font-size="13" font-weight="bold" lengthAdjust="spacing" textLength="21" x="25" y="369.4263">alt</text><text fill="#000000" font-family="sans-serif" font-size="11" font-weight="bold" lengthAdjust="spacing" textLength="88" x="91" y="368.5698">[Invalid data]</text><polygon fill="#181818" points="59,390.625,49,394.625,59,398.625,55,394.625" style="stroke:#181818;stroke-width:1.0;"/><line style="stroke:#181818;stroke-width:1.0;stroke-dasharray:2.0,2.0;" x1="53" x2="348.5" y1="394.625" y2="394.625"/><text fill="#000000" font-family="sans-serif" font-size="13" font-weight="bold" lengthAdjust="spacing" textLength="9" x="65" y="389.5591">8</text><text fill="#000000" font-family="sans-serif" font-size="13" lengthAdjust="spacing" textLength="106" x="78" y="389.5591">Error notification</text><line style="stroke:#181818;stroke-width:1.0;" x1="349.5" x2="391.5" y1="423.7578" y2="423.7578"/><line style="stroke:#181818;stroke-width:1.0;" x1="391.5" x2="391.5" y1="423.7578" y2="436.7578"/><line style="stroke:#181818;stroke-width:1.0;" x1="350.5" x2="391.5" y1="436.7578" y2="436.7578"/><polygon fill="#181818" points="360.5,432.7578,350.5,436.7578,360.5,440.7578,356.5,436.7578" style="stroke:#181818;stroke-width:1.0;"/><text fill="#000000" font-family="sans-serif" font-size="13" font-weight="bold" lengthAdjust="spacing" textLength="9" x="356.5" y="418.6919">9</text><text fill="#000000" font-family="sans-serif" font-size="13" lengthAdjust="spacing" textLength="157" x="369.5" y="418.6919">Display error notification</text><line style="stroke:#000000;stroke-width:1.0;stroke-dasharray:2.0,2.0;" x1="10" x2="910" y1="445.7578" y2="445.7578"/><text fill="#000000" font-family="sans-serif" font-size="11" font-weight="bold" lengthAdjust="spacing" textLength="78" x="15" y="455.9683">[Valid data]</text><polygon fill="#181818" points="337.5,476.6953,347.5,480.6953,337.5,484.6953,341.5,480.6953" style="stroke:#181818;stroke-width:1.0;"/><line style="stroke:#181818;stroke-width:1.0;" x1="48" x2="343.5" y1="480.6953" y2="480.6953"/><text fill="#000000" font-family="sans-serif" font-size="13" font-weight="bold" lengthAdjust="spacing" textLength="19" x="55" y="475.6294">10</text><text fill="#000000" font-family="sans-serif" font-size="13" lengthAdjust="spacing" textLength="191" x="78" y="475.6294">Click button "Save" to confirm</text><polygon fill="#181818" points="585.5,505.8281,595.5,509.8281,585.5,513.8281,589.5,509.8281" style="stroke:#181818;stroke-width:1.0;"/><line style="stroke:#181818;stroke-width:1.0;" x1="349.5" x2="591.5" y1="509.8281" y2="509.8281"/><text fill="#000000" font-family="sans-serif" font-size="13" font-weight="bold" lengthAdjust="spacing" textLength="18" x="356.5" y="504.7622">11</text><text fill="#000000" font-family="sans-serif" font-size="13" lengthAdjust="spacing" textLength="202" x="378.5" y="504.7622">Send creating schedule request</text><polygon fill="#181818" points="773,534.9609,783,538.9609,773,542.9609,777,538.9609" style="stroke:#181818;stroke-width:1.0;"/><line style="stroke:#181818;stroke-width:1.0;" x1="597.5" x2="779" y1="538.9609" y2="538.9609"/><text fill="#000000" font-family="sans-serif" font-size="13" font-weight="bold" lengthAdjust="spacing" textLength="18" x="604.5" y="533.895">12</text><text fill="#000000" font-family="sans-serif" font-size="13" lengthAdjust="spacing" textLength="110" x="626.5" y="533.895">Send information</text><line style="stroke:#181818;stroke-width:1.0;" x1="785" x2="827" y1="568.0938" y2="568.0938"/><line style="stroke:#181818;stroke-width:1.0;" x1="827" x2="827" y1="568.0938" y2="581.0938"/><line style="stroke:#181818;stroke-width:1.0;" x1="786" x2="827" y1="581.0938" y2="581.0938"/><polygon fill="#181818" points="796,577.0938,786,581.0938,796,585.0938,792,581.0938" style="stroke:#181818;stroke-width:1.0;"/><text fill="#000000" font-family="sans-serif" font-size="13" font-weight="bold" lengthAdjust="spacing" textLength="17" x="792" y="563.0278">13</text><text fill="#000000" font-family="sans-serif" font-size="13" lengthAdjust="spacing" textLength="85" x="813" y="563.0278">Validate data</text><path d="M76,596.0938 L142,596.0938 L142,603.2266 L132,613.2266 L76,613.2266 L76,596.0938 " fill="#EEEEEE" style="stroke:#000000;stroke-width:1.5;"/><rect fill="none" height="304" style="stroke:#000000;stroke-width:1.5;" width="817" x="76" y="596.0938"/><text fill="#000000" font-family="sans-serif" font-size="13" font-weight="bold" lengthAdjust="spacing" textLength="21" x="91" y="609.1606">alt</text><text fill="#000000" font-family="sans-serif" font-size="11" font-weight="bold" lengthAdjust="spacing" textLength="88" x="157" y="608.3042">[Invalid data]</text><polygon fill="#181818" points="608.5,630.3594,598.5,634.3594,608.5,638.3594,604.5,634.3594" style="stroke:#181818;stroke-width:1.0;"/><line style="stroke:#181818;stroke-width:1.0;stroke-dasharray:2.0,2.0;" x1="602.5" x2="784" y1="634.3594" y2="634.3594"/><text fill="#000000" font-family="sans-serif" font-size="13" font-weight="bold" lengthAdjust="spacing" textLength="18" x="614.5" y="629.2935">14</text><text fill="#000000" font-family="sans-serif" font-size="13" lengthAdjust="spacing" textLength="106" x="636.5" y="629.2935">Error notification</text><polygon fill="#181818" points="360.5,659.4922,350.5,663.4922,360.5,667.4922,356.5,663.4922" style="stroke:#181818;stroke-width:1.0;"/><line style="stroke:#181818;stroke-width:1.0;stroke-dasharray:2.0,2.0;" x1="354.5" x2="596.5" y1="663.4922" y2="663.4922"/><text fill="#000000" font-family="sans-serif" font-size="13" font-weight="bold" lengthAdjust="spacing" textLength="18" x="366.5" y="658.4263">15</text><text fill="#000000" font-family="sans-serif" font-size="13" lengthAdjust="spacing" textLength="106" x="388.5" y="658.4263">Error notification</text><line style="stroke:#181818;stroke-width:1.0;" x1="349.5" x2="391.5" y1="692.625" y2="692.625"/><line style="stroke:#181818;stroke-width:1.0;" x1="391.5" x2="391.5" y1="692.625" y2="705.625"/><line style="stroke:#181818;stroke-width:1.0;" x1="350.5" x2="391.5" y1="705.625" y2="705.625"/><polygon fill="#181818" points="360.5,701.625,350.5,705.625,360.5,709.625,356.5,705.625" style="stroke:#181818;stroke-width:1.0;"/><text fill="#000000" font-family="sans-serif" font-size="13" font-weight="bold" lengthAdjust="spacing" textLength="18" x="356.5" y="687.5591">16</text><text fill="#000000" font-family="sans-serif" font-size="13" lengthAdjust="spacing" textLength="157" x="378.5" y="687.5591">Display error notification</text><line style="stroke:#000000;stroke-width:1.0;stroke-dasharray:2.0,2.0;" x1="76" x2="893" y1="714.625" y2="714.625"/><text fill="#000000" font-family="sans-serif" font-size="11" font-weight="bold" lengthAdjust="spacing" textLength="78" x="81" y="724.8354">[Valid data]</text><line style="stroke:#181818;stroke-width:1.0;" x1="785" x2="827" y1="749.5625" y2="749.5625"/><line style="stroke:#181818;stroke-width:1.0;" x1="827" x2="827" y1="749.5625" y2="762.5625"/><line style="stroke:#181818;stroke-width:1.0;" x1="786" x2="827" y1="762.5625" y2="762.5625"/><polygon fill="#181818" points="796,758.5625,786,762.5625,796,766.5625,792,762.5625" style="stroke:#181818;stroke-width:1.0;"/><text fill="#000000" font-family="sans-serif" font-size="13" font-weight="bold" lengthAdjust="spacing" textLength="18" x="792" y="744.4966">17</text><text fill="#000000" font-family="sans-serif" font-size="13" lengthAdjust="spacing" textLength="67" x="814" y="744.4966">Store data</text><polygon fill="#181818" points="608.5,787.6953,598.5,791.6953,608.5,795.6953,604.5,791.6953" style="stroke:#181818;stroke-width:1.0;"/><line style="stroke:#181818;stroke-width:1.0;stroke-dasharray:2.0,2.0;" x1="602.5" x2="784" y1="791.6953" y2="791.6953"/><text fill="#000000" font-family="sans-serif" font-size="13" font-weight="bold" lengthAdjust="spacing" textLength="18" x="614.5" y="786.6294">18</text><text fill="#000000" font-family="sans-serif" font-size="13" lengthAdjust="spacing" textLength="127" x="636.5" y="786.6294">Success notification</text><polygon fill="#181818" points="360.5,816.8281,350.5,820.8281,360.5,824.8281,356.5,820.8281" style="stroke:#181818;stroke-width:1.0;"/><line style="stroke:#181818;stroke-width:1.0;stroke-dasharray:2.0,2.0;" x1="354.5" x2="596.5" y1="820.8281" y2="820.8281"/><text fill="#000000" font-family="sans-serif" font-size="13" font-weight="bold" lengthAdjust="spacing" textLength="18" x="366.5" y="815.7622">19</text><text fill="#000000" font-family="sans-serif" font-size="13" lengthAdjust="spacing" textLength="127" x="388.5" y="815.7622">Success notification</text><line style="stroke:#181818;stroke-width:1.0;" x1="349.5" x2="391.5" y1="849.9609" y2="849.9609"/><line style="stroke:#181818;stroke-width:1.0;" x1="391.5" x2="391.5" y1="849.9609" y2="862.9609"/><line style="stroke:#181818;stroke-width:1.0;" x1="350.5" x2="391.5" y1="862.9609" y2="862.9609"/><polygon fill="#181818" points="360.5,858.9609,350.5,862.9609,360.5,866.9609,356.5,862.9609" style="stroke:#181818;stroke-width:1.0;"/><text fill="#000000" font-family="sans-serif" font-size="13" font-weight="bold" lengthAdjust="spacing" textLength="19" x="356.5" y="844.895">20</text><text fill="#000000" font-family="sans-serif" font-size="13" lengthAdjust="spacing" textLength="69" x="379.5" y="844.895">Close view</text><polygon fill="#181818" points="181.5,888.0938,171.5,892.0938,181.5,896.0938,177.5,892.0938" style="stroke:#181818;stroke-width:1.0;"/><line style="stroke:#181818;stroke-width:1.0;" x1="175.5" x2="596.5" y1="892.0938" y2="892.0938"/><text fill="#000000" font-family="sans-serif" font-size="13" font-weight="bold" lengthAdjust="spacing" textLength="18" x="187.5" y="887.0278">21</text><text fill="#000000" font-family="sans-serif" font-size="13" lengthAdjust="spacing" textLength="312" x="209.5" y="887.0278">Display success notification and list of schedules</text><!--SRC=[jLN1Rjim3BthAuZSzmCx51YSO3NGT1YyzZ3qeiXq8qocEebAbttzvAY6aynEvQtDnO18FUezFeOoiANGRj29hQuH6cjvOty98HLR1qlRVSJ61ggbsyEYRDj0-hTaRQbIMwo3mGTQIvAFs2BnlSRd1KWFOucdQQ-YbjHOrnuEByAUvGbbYPqrKx152XjqauX3YeYFrRo7Shs-kos_V_fMVhcjYklLykvcrSUAw_9cASHb8FXmbH8_mcTaCDeps0RKLflQ8O4u18-olWQCqjIIPH-AiSir-aiEVJ3yweCcyCxap00zkm6vm4ljdupSmxFcBJmGjazHJJraYMI_RBmLSUJbNyB7I01l-l1xQNJi3ARsICDGqguxImSGVrdbOhr4CRxTkSYKBEj6gyG-6sQctFXtAJGU4wk1mKpn2wFL3zW4ZdyeiAZa3XV05k8mDjgr_qlcsEGLKWtAOKoWnw7T3dy6z3nPwNGMnmRw1VhOWGUmaTHfY5DlTFT7_J4DdA70X5boc6VFqhmIx-39hjIOB-Utf8e-nZUIlWfAeVVlA_xi8lygVs5i57ZNRSrS3bSPgttegnzX0Z8EMRy0-_7rgTzKnwrQ_m40]--></g></svg>