<?xml version="1.0" encoding="us-ascii" standalone="no"?><svg xmlns="http://www.w3.org/2000/svg" xmlns:xlink="http://www.w3.org/1999/xlink" contentStyleType="text/css" height="567px" preserveAspectRatio="none" style="width:666px;height:567px;background:#FFFFFF;" version="1.1" viewBox="0 0 666 567" width="666px" zoomAndPan="magnify"><defs/><g><rect fill="none" height="61.2344" style="stroke:#000000;stroke-width:1.5;" width="650.5" x="10" y="256.9609"/><rect fill="none" height="61.2344" style="stroke:#000000;stroke-width:1.5;" width="650.5" x="10" y="332.1953"/><rect fill="none" height="61.2344" style="stroke:#000000;stroke-width:1.5;" width="650.5" x="10" y="407.4297"/><rect fill="none" height="61.2344" style="stroke:#000000;stroke-width:1.5;" width="650.5" x="10" y="482.6641"/><line style="stroke:#181818;stroke-width:0.5;stroke-dasharray:5.0,5.0;" x1="48" x2="48" y1="81.2969" y2="560.8984"/><line style="stroke:#181818;stroke-width:0.5;stroke-dasharray:5.0,5.0;" x1="188.5" x2="188.5" y1="81.2969" y2="560.8984"/><line style="stroke:#181818;stroke-width:0.5;stroke-dasharray:5.0,5.0;" x1="369.5" x2="369.5" y1="81.2969" y2="560.8984"/><line style="stroke:#181818;stroke-width:0.5;stroke-dasharray:5.0,5.0;" x1="557.5" x2="557.5" y1="81.2969" y2="560.8984"/><text fill="#000000" font-family="sans-serif" font-size="14" lengthAdjust="spacing" textLength="50" x="20" y="77.9951">Doctor</text><ellipse cx="48" cy="13.5" fill="#E2E2F0" rx="8" ry="8" style="stroke:#181818;stroke-width:0.5;"/><path d="M48,21.5 L48,48.5 M35,29.5 L61,29.5 M48,48.5 L35,63.5 M48,48.5 L61,63.5 " fill="none" style="stroke:#181818;stroke-width:0.5;"/><text fill="#000000" font-family="sans-serif" font-size="14" lengthAdjust="spacing" textLength="163" x="104.5" y="61.6982">ImmunizationSchedule</text><text fill="#000000" font-family="sans-serif" font-size="14" lengthAdjust="spacing" textLength="128" x="122" y="77.9951">ManagementView</text><path d="M168.5,20.7031 L168.5,44.7031 M168.5,32.7031 L185.5,32.7031 " fill="none" style="stroke:#181818;stroke-width:0.5;"/><ellipse cx="197.5" cy="32.7031" fill="#E2E2F0" rx="12" ry="12" style="stroke:#181818;stroke-width:0.5;"/><text fill="#000000" font-family="sans-serif" font-size="14" lengthAdjust="spacing" textLength="163" x="285.5" y="61.6982">ImmunizationSchedule</text><text fill="#000000" font-family="sans-serif" font-size="14" lengthAdjust="spacing" textLength="73" x="330.5" y="77.9951">Controller</text><ellipse cx="370" cy="32.7031" fill="#E2E2F0" rx="12" ry="12" style="stroke:#181818;stroke-width:0.5;"/><polygon fill="#181818" points="366,20.7031,372,15.7031,370,20.7031,372,25.7031,366,20.7031" style="stroke:#181818;stroke-width:1.0;"/><text fill="#000000" font-family="sans-serif" font-size="14" lengthAdjust="spacing" textLength="180" x="464.5" y="77.9951">IMMUNIZATIONSCHEDULE</text><ellipse cx="557.5" cy="49" fill="#E2E2F0" rx="12" ry="12" style="stroke:#181818;stroke-width:0.5;"/><line style="stroke:#181818;stroke-width:0.5;" x1="545.5" x2="569.5" y1="63" y2="63"/><polygon fill="#181818" points="545.5,108.4297,555.5,112.4297,545.5,116.4297,549.5,112.4297" style="stroke:#181818;stroke-width:1.0;"/><line style="stroke:#181818;stroke-width:1.0;" x1="370" x2="551.5" y1="112.4297" y2="112.4297"/><text fill="#000000" font-family="sans-serif" font-size="13" font-weight="bold" lengthAdjust="spacing" textLength="9" x="377" y="107.3638">1</text><text fill="#000000" font-family="sans-serif" font-size="13" lengthAdjust="spacing" textLength="130" x="390" y="107.3638">Get list of schedules</text><polygon fill="#181818" points="381,137.5625,371,141.5625,381,145.5625,377,141.5625" style="stroke:#181818;stroke-width:1.0;"/><line style="stroke:#181818;stroke-width:1.0;stroke-dasharray:2.0,2.0;" x1="375" x2="556.5" y1="141.5625" y2="141.5625"/><text fill="#000000" font-family="sans-serif" font-size="13" font-weight="bold" lengthAdjust="spacing" textLength="9" x="387" y="136.4966">2</text><text fill="#000000" font-family="sans-serif" font-size="13" lengthAdjust="spacing" textLength="107" x="400" y="136.4966">List of schedules</text><polygon fill="#181818" points="200,166.6953,190,170.6953,200,174.6953,196,170.6953" style="stroke:#181818;stroke-width:1.0;"/><line style="stroke:#181818;stroke-width:1.0;stroke-dasharray:2.0,2.0;" x1="194" x2="369" y1="170.6953" y2="170.6953"/><text fill="#000000" font-family="sans-serif" font-size="13" font-weight="bold" lengthAdjust="spacing" textLength="8" x="206" y="165.6294">3</text><text fill="#000000" font-family="sans-serif" font-size="13" lengthAdjust="spacing" textLength="107" x="218" y="165.6294">List of schedules</text><line style="stroke:#181818;stroke-width:1.0;" x1="189" x2="231" y1="199.8281" y2="199.8281"/><line style="stroke:#181818;stroke-width:1.0;" x1="231" x2="231" y1="199.8281" y2="212.8281"/><line style="stroke:#181818;stroke-width:1.0;" x1="190" x2="231" y1="212.8281" y2="212.8281"/><polygon fill="#181818" points="200,208.8281,190,212.8281,200,216.8281,196,212.8281" style="stroke:#181818;stroke-width:1.0;"/><text fill="#000000" font-family="sans-serif" font-size="13" font-weight="bold" lengthAdjust="spacing" textLength="9" x="196" y="194.7622">4</text><text fill="#000000" font-family="sans-serif" font-size="13" lengthAdjust="spacing" textLength="154" x="209" y="194.7622">Display list of schedules</text><polygon fill="#181818" points="177,237.9609,187,241.9609,177,245.9609,181,241.9609" style="stroke:#181818;stroke-width:1.0;"/><line style="stroke:#181818;stroke-width:1.0;" x1="48" x2="183" y1="241.9609" y2="241.9609"/><text fill="#000000" font-family="sans-serif" font-size="13" font-weight="bold" lengthAdjust="spacing" textLength="9" x="55" y="236.895">5</text><text fill="#000000" font-family="sans-serif" font-size="13" lengthAdjust="spacing" textLength="104" x="68" y="236.895">Choose function</text><path d="M10,256.9609 L82,256.9609 L82,264.0938 L72,274.0938 L10,274.0938 L10,256.9609 " fill="#EEEEEE" style="stroke:#000000;stroke-width:1.5;"/><rect fill="none" height="61.2344" style="stroke:#000000;stroke-width:1.5;" width="650.5" x="10" y="256.9609"/><text fill="#000000" font-family="sans-serif" font-size="13" font-weight="bold" lengthAdjust="spacing" textLength="27" x="25" y="270.0278">opt</text><text fill="#000000" font-family="sans-serif" font-size="11" font-weight="bold" lengthAdjust="spacing" textLength="56" x="97" y="269.1714">[Create]</text><rect fill="none" height="39.1016" style="stroke:#000000;stroke-width:1.5;" width="636.5" x="17" y="274.0938"/><path d="M17,274.0938 L85,274.0938 L85,281.0938 L75,291.0938 L17,291.0938 L17,274.0938 " fill="#EEEEEE" style="stroke:#000000;stroke-width:2.0;"/><text fill="#000000" font-family="sans-serif" font-size="13" font-weight="bold" lengthAdjust="spacing" textLength="23" x="30" y="288.1606">ref</text><text fill="#000000" font-family="sans-serif" font-size="12" lengthAdjust="spacing" textLength="241" x="214.75" y="306.2324">Sequence Insert Immunization Schedule</text><path d="M10,332.1953 L82,332.1953 L82,339.3281 L72,349.3281 L10,349.3281 L10,332.1953 " fill="#EEEEEE" style="stroke:#000000;stroke-width:1.5;"/><rect fill="none" height="61.2344" style="stroke:#000000;stroke-width:1.5;" width="650.5" x="10" y="332.1953"/><text fill="#000000" font-family="sans-serif" font-size="13" font-weight="bold" lengthAdjust="spacing" textLength="27" x="25" y="345.2622">opt</text><text fill="#000000" font-family="sans-serif" font-size="11" font-weight="bold" lengthAdjust="spacing" textLength="58" x="97" y="344.4058">[Update]</text><rect fill="none" height="39.1016" style="stroke:#000000;stroke-width:1.5;" width="636.5" x="17" y="349.3281"/><path d="M17,349.3281 L85,349.3281 L85,356.3281 L75,366.3281 L17,366.3281 L17,349.3281 " fill="#EEEEEE" style="stroke:#000000;stroke-width:2.0;"/><text fill="#000000" font-family="sans-serif" font-size="13" font-weight="bold" lengthAdjust="spacing" textLength="23" x="30" y="363.395">ref</text><text fill="#000000" font-family="sans-serif" font-size="12" lengthAdjust="spacing" textLength="251" x="209.75" y="381.4668">Sequence Update Immunization Schedule</text><path d="M10,407.4297 L82,407.4297 L82,414.5625 L72,424.5625 L10,424.5625 L10,407.4297 " fill="#EEEEEE" style="stroke:#000000;stroke-width:1.5;"/><rect fill="none" height="61.2344" style="stroke:#000000;stroke-width:1.5;" width="650.5" x="10" y="407.4297"/><text fill="#000000" font-family="sans-serif" font-size="13" font-weight="bold" lengthAdjust="spacing" textLength="27" x="25" y="420.4966">opt</text><text fill="#000000" font-family="sans-serif" font-size="11" font-weight="bold" lengthAdjust="spacing" textLength="54" x="97" y="419.6401">[Delete]</text><rect fill="none" height="39.1016" style="stroke:#000000;stroke-width:1.5;" width="636.5" x="17" y="424.5625"/><path d="M17,424.5625 L85,424.5625 L85,431.5625 L75,441.5625 L17,441.5625 L17,424.5625 " fill="#EEEEEE" style="stroke:#000000;stroke-width:2.0;"/><text fill="#000000" font-family="sans-serif" font-size="13" font-weight="bold" lengthAdjust="spacing" textLength="23" x="30" y="438.6294">ref</text><text fill="#000000" font-family="sans-serif" font-size="12" lengthAdjust="spacing" textLength="247" x="211.75" y="456.7012">Sequence Delete Immunization Schedule</text><path d="M10,482.6641 L82,482.6641 L82,489.7969 L72,499.7969 L10,499.7969 L10,482.6641 " fill="#EEEEEE" style="stroke:#000000;stroke-width:1.5;"/><rect fill="none" height="61.2344" style="stroke:#000000;stroke-width:1.5;" width="650.5" x="10" y="482.6641"/><text fill="#000000" font-family="sans-serif" font-size="13" font-weight="bold" lengthAdjust="spacing" textLength="27" x="25" y="495.731">opt</text><text fill="#000000" font-family="sans-serif" font-size="11" font-weight="bold" lengthAdjust="spacing" textLength="55" x="97" y="494.8745">[Search]</text><rect fill="none" height="39.1016" style="stroke:#000000;stroke-width:1.5;" width="636.5" x="17" y="499.7969"/><path d="M17,499.7969 L85,499.7969 L85,506.7969 L75,516.7969 L17,516.7969 L17,499.7969 " fill="#EEEEEE" style="stroke:#000000;stroke-width:2.0;"/><text fill="#000000" font-family="sans-serif" font-size="13" font-weight="bold" lengthAdjust="spacing" textLength="23" x="30" y="513.8638">ref</text><text fill="#000000" font-family="sans-serif" font-size="12" lengthAdjust="spacing" textLength="249" x="210.75" y="531.9355">Sequence Search Immunization Schedule</text><!--SRC=[nPAzReGm48HxFyNgQdY1AoATu9GW7PU2a29AOymIB1alyKyIylG1aLE40WVTkN7XcMz6w-NUaVPDWORLiaIeY5n1NunnuSX0JCF52lAwvAQ3NT8qNijlxYJfJDHOUeMlEkMQls63sZrB_Dm1jp0ddCgO8EqCgILeD3uhD8l0FmdheT9raAHfVavU3a_9upcB7evnVZeoTjqBuTsiRm_tw419wu0giBy-o-Qq48O3vMhE7ax_MIlD5g3JIMu5JrsmaHrBsohUpGnYt8wjdAWcils6UIq66MFKEeWCSeSC-cEm0lh0oz856w31oiI3XN_DyDsZ5WY9jcZSX08NJBzIvLWoRyjRbXpZrqh6gF269SVujP8PSYFgcvKSuvTB_W00]--></g></svg>