<?xml version="1.0" encoding="us-ascii" standalone="no"?><svg xmlns="http://www.w3.org/2000/svg" xmlns:xlink="http://www.w3.org/1999/xlink" contentStyleType="text/css" height="383px" preserveAspectRatio="none" style="width:686px;height:383px;background:#FFFFFF;" version="1.1" viewBox="0 0 686 383" width="686px" zoomAndPan="magnify"><defs/><g><line style="stroke:#181818;stroke-width:0.5;stroke-dasharray:5.0,5.0;" x1="33" x2="33" y1="81.2969" y2="376.625"/><line style="stroke:#181818;stroke-width:0.5;stroke-dasharray:5.0,5.0;" x1="203.5" x2="203.5" y1="81.2969" y2="376.625"/><line style="stroke:#181818;stroke-width:0.5;stroke-dasharray:5.0,5.0;" x1="399.5" x2="399.5" y1="81.2969" y2="376.625"/><line style="stroke:#181818;stroke-width:0.5;stroke-dasharray:5.0,5.0;" x1="587.5" x2="587.5" y1="81.2969" y2="376.625"/><text fill="#000000" font-family="sans-serif" font-size="14" lengthAdjust="spacing" textLength="50" x="5" y="77.9951">Doctor</text><ellipse cx="33" cy="13.5" fill="#E2E2F0" rx="8" ry="8" style="stroke:#181818;stroke-width:0.5;"/><path d="M33,21.5 L33,48.5 M20,29.5 L46,29.5 M33,48.5 L20,63.5 M33,48.5 L46,63.5 " fill="none" style="stroke:#181818;stroke-width:0.5;"/><text fill="#000000" font-family="sans-serif" font-size="14" lengthAdjust="spacing" textLength="163" x="119.5" y="61.6982">ImmunizationSchedule</text><text fill="#000000" font-family="sans-serif" font-size="14" lengthAdjust="spacing" textLength="128" x="137" y="77.9951">ManagementView</text><path d="M183.5,20.7031 L183.5,44.7031 M183.5,32.7031 L200.5,32.7031 " fill="none" style="stroke:#181818;stroke-width:0.5;"/><ellipse cx="212.5" cy="32.7031" fill="#E2E2F0" rx="12" ry="12" style="stroke:#181818;stroke-width:0.5;"/><text fill="#000000" font-family="sans-serif" font-size="14" lengthAdjust="spacing" textLength="163" x="315.5" y="61.6982">ImmunizationSchedule</text><text fill="#000000" font-family="sans-serif" font-size="14" lengthAdjust="spacing" textLength="73" x="360.5" y="77.9951">Controller</text><ellipse cx="400" cy="32.7031" fill="#E2E2F0" rx="12" ry="12" style="stroke:#181818;stroke-width:0.5;"/><polygon fill="#181818" points="396,20.7031,402,15.7031,400,20.7031,402,25.7031,396,20.7031" style="stroke:#181818;stroke-width:1.0;"/><text fill="#000000" font-family="sans-serif" font-size="14" lengthAdjust="spacing" textLength="180" x="494.5" y="77.9951">IMMUNIZATIONSCHEDULE</text><ellipse cx="587.5" cy="49" fill="#E2E2F0" rx="12" ry="12" style="stroke:#181818;stroke-width:0.5;"/><line style="stroke:#181818;stroke-width:0.5;" x1="575.5" x2="599.5" y1="63" y2="63"/><polygon fill="#181818" points="192,123.5625,202,127.5625,192,131.5625,196,127.5625" style="stroke:#181818;stroke-width:1.0;"/><line style="stroke:#181818;stroke-width:1.0;" x1="33" x2="198" y1="127.5625" y2="127.5625"/><text fill="#000000" font-family="sans-serif" font-size="13" font-weight="bold" lengthAdjust="spacing" textLength="9" x="40" y="114.9302">1</text><text fill="#000000" font-family="sans-serif" font-size="13" lengthAdjust="spacing" textLength="113" x="53" y="107.3638">Enters the search</text><text fill="#000000" font-family="sans-serif" font-size="13" lengthAdjust="spacing" textLength="134" x="53" y="122.4966">criteria in search box</text><polygon fill="#181818" points="388,167.8281,398,171.8281,388,175.8281,392,171.8281" style="stroke:#181818;stroke-width:1.0;"/><line style="stroke:#181818;stroke-width:1.0;" x1="204" x2="394" y1="171.8281" y2="171.8281"/><text fill="#000000" font-family="sans-serif" font-size="13" font-weight="bold" lengthAdjust="spacing" textLength="9" x="211" y="159.1958">2</text><text fill="#000000" font-family="sans-serif" font-size="13" lengthAdjust="spacing" textLength="159" x="224" y="151.6294">Send searching schedule</text><text fill="#000000" font-family="sans-serif" font-size="13" lengthAdjust="spacing" textLength="127" x="224" y="166.7622">information request</text><polygon fill="#181818" points="575.5,212.0938,585.5,216.0938,575.5,220.0938,579.5,216.0938" style="stroke:#181818;stroke-width:1.0;"/><line style="stroke:#181818;stroke-width:1.0;" x1="400" x2="581.5" y1="216.0938" y2="216.0938"/><text fill="#000000" font-family="sans-serif" font-size="13" font-weight="bold" lengthAdjust="spacing" textLength="8" x="407" y="203.4614">3</text><text fill="#000000" font-family="sans-serif" font-size="13" lengthAdjust="spacing" textLength="140" x="419" y="195.895">Search schedule base</text><text fill="#000000" font-family="sans-serif" font-size="13" lengthAdjust="spacing" textLength="121" x="419" y="211.0278">on given keywords</text><line style="stroke:#181818;stroke-width:1.0;" x1="587.5" x2="629.5" y1="245.2266" y2="245.2266"/><line style="stroke:#181818;stroke-width:1.0;" x1="629.5" x2="629.5" y1="245.2266" y2="258.2266"/><line style="stroke:#181818;stroke-width:1.0;" x1="588.5" x2="629.5" y1="258.2266" y2="258.2266"/><polygon fill="#181818" points="598.5,254.2266,588.5,258.2266,598.5,262.2266,594.5,258.2266" style="stroke:#181818;stroke-width:1.0;"/><text fill="#000000" font-family="sans-serif" font-size="13" font-weight="bold" lengthAdjust="spacing" textLength="9" x="594.5" y="240.1606">4</text><text fill="#000000" font-family="sans-serif" font-size="13" lengthAdjust="spacing" textLength="72" x="607.5" y="240.1606">Query data</text><polygon fill="#181818" points="411,283.3594,401,287.3594,411,291.3594,407,287.3594" style="stroke:#181818;stroke-width:1.0;"/><line style="stroke:#181818;stroke-width:1.0;stroke-dasharray:2.0,2.0;" x1="405" x2="586.5" y1="287.3594" y2="287.3594"/><text fill="#000000" font-family="sans-serif" font-size="13" font-weight="bold" lengthAdjust="spacing" textLength="9" x="417" y="282.2935">5</text><text fill="#000000" font-family="sans-serif" font-size="13" lengthAdjust="spacing" textLength="79" x="430" y="282.2935">Query result</text><polygon fill="#181818" points="215,312.4922,205,316.4922,215,320.4922,211,316.4922" style="stroke:#181818;stroke-width:1.0;"/><line style="stroke:#181818;stroke-width:1.0;stroke-dasharray:2.0,2.0;" x1="209" x2="399" y1="316.4922" y2="316.4922"/><text fill="#000000" font-family="sans-serif" font-size="13" font-weight="bold" lengthAdjust="spacing" textLength="9" x="221" y="311.4263">6</text><text fill="#000000" font-family="sans-serif" font-size="13" lengthAdjust="spacing" textLength="79" x="234" y="311.4263">Query result</text><line style="stroke:#181818;stroke-width:1.0;" x1="204" x2="246" y1="345.625" y2="345.625"/><line style="stroke:#181818;stroke-width:1.0;" x1="246" x2="246" y1="345.625" y2="358.625"/><line style="stroke:#181818;stroke-width:1.0;" x1="205" x2="246" y1="358.625" y2="358.625"/><polygon fill="#181818" points="215,354.625,205,358.625,215,362.625,211,358.625" style="stroke:#181818;stroke-width:1.0;"/><text fill="#000000" font-family="sans-serif" font-size="13" font-weight="bold" lengthAdjust="spacing" textLength="9" x="211" y="340.5591">7</text><text fill="#000000" font-family="sans-serif" font-size="13" lengthAdjust="spacing" textLength="154" x="224" y="340.5591">Display list of schedules</text><!--SRC=[ZP9DJiD038NtSmghUoxG1H9g8X695A5G5gWR9t4RguaDyqC9foTjIYjGGx8QoMD_ptus1gyIcfoigRWasAZwN3-DmSAhXKWFZyarI8csXLdID47u2pshP4L5PQXfBIaARgaXyIzC-ncWWsk9lzDCeUAjraFGHVzTanq4Nb9C1sNVGfAcgsNoUlUSF2wpnNqShHvYO_enuEPsGbjpYCMJTU0h0aTeYsejXUKknWWifnWSN1gd3MbUEfz3HbAUg2nRS6S7M3PgcsCTM7eFvBpv7tQKksB1GUJOzGySSdITGWVUyWS9xAZTgosTkLOzJ7qAr5r5YHu72YUCtpCikL2FZpTnXQFCQLlwYutOlTNOGitEWsxERhfl]--></g></svg>