<?xml version="1.0" encoding="us-ascii" standalone="no"?><svg xmlns="http://www.w3.org/2000/svg" xmlns:xlink="http://www.w3.org/1999/xlink" contentStyleType="text/css" height="1091px" preserveAspectRatio="none" style="width:1101px;height:1091px;background:#FFFFFF;" version="1.1" viewBox="0 0 1101 1091" width="1101px" zoomAndPan="magnify"><defs/><g><rect fill="none" height="550.7344" style="stroke:#000000;stroke-width:1.5;" width="991" x="10" y="516.9922"/><rect fill="none" height="304" style="stroke:#000000;stroke-width:1.5;" width="889.5" x="93.5" y="756.7266"/><line style="stroke:#181818;stroke-width:0.5;stroke-dasharray:5.0,5.0;" x1="48" x2="48" y1="81.2969" y2="1084.7266"/><line style="stroke:#181818;stroke-width:0.5;stroke-dasharray:5.0,5.0;" x1="187.5" x2="187.5" y1="81.2969" y2="1084.7266"/><line style="stroke:#181818;stroke-width:0.5;stroke-dasharray:5.0,5.0;" x1="366.5" x2="366.5" y1="81.2969" y2="1084.7266"/><line style="stroke:#181818;stroke-width:0.5;stroke-dasharray:5.0,5.0;" x1="618.5" x2="618.5" y1="81.2969" y2="1084.7266"/><line style="stroke:#181818;stroke-width:0.5;stroke-dasharray:5.0,5.0;" x1="875" x2="875" y1="81.2969" y2="1084.7266"/><line style="stroke:#181818;stroke-width:0.5;stroke-dasharray:5.0,5.0;" x1="1002" x2="1002" y1="81.2969" y2="1084.7266"/><text fill="#000000" font-family="sans-serif" font-size="14" lengthAdjust="spacing" textLength="50" x="20" y="77.9951">Doctor</text><ellipse cx="48" cy="13.5" fill="#E2E2F0" rx="8" ry="8" style="stroke:#181818;stroke-width:0.5;"/><path d="M48,21.5 L48,48.5 M35,29.5 L61,29.5 M48,48.5 L35,63.5 M48,48.5 L61,63.5 " fill="none" style="stroke:#181818;stroke-width:0.5;"/><text fill="#000000" font-family="sans-serif" font-size="14" lengthAdjust="spacing" textLength="163" x="103.5" y="61.6982">ImmunizationSchedule</text><text fill="#000000" font-family="sans-serif" font-size="14" lengthAdjust="spacing" textLength="128" x="121" y="77.9951">ManagementView</text><path d="M167.5,20.7031 L167.5,44.7031 M167.5,32.7031 L184.5,32.7031 " fill="none" style="stroke:#181818;stroke-width:0.5;"/><ellipse cx="196.5" cy="32.7031" fill="#E2E2F0" rx="12" ry="12" style="stroke:#181818;stroke-width:0.5;"/><text fill="#000000" font-family="sans-serif" font-size="14" lengthAdjust="spacing" textLength="163" x="282.5" y="61.6982">ImmunizationSchedule</text><text fill="#000000" font-family="sans-serif" font-size="14" lengthAdjust="spacing" textLength="119" x="304.5" y="77.9951">InformationView</text><path d="M346.5,20.7031 L346.5,44.7031 M346.5,32.7031 L363.5,32.7031 " fill="none" style="stroke:#181818;stroke-width:0.5;"/><ellipse cx="375.5" cy="32.7031" fill="#E2E2F0" rx="12" ry="12" style="stroke:#181818;stroke-width:0.5;"/><text fill="#000000" font-family="sans-serif" font-size="14" lengthAdjust="spacing" textLength="163" x="534.5" y="61.6982">ImmunizationSchedule</text><text fill="#000000" font-family="sans-serif" font-size="14" lengthAdjust="spacing" textLength="73" x="579.5" y="77.9951">Controller</text><ellipse cx="619" cy="32.7031" fill="#E2E2F0" rx="12" ry="12" style="stroke:#181818;stroke-width:0.5;"/><polygon fill="#181818" points="615,20.7031,621,15.7031,619,20.7031,621,25.7031,615,20.7031" style="stroke:#181818;stroke-width:1.0;"/><text fill="#000000" font-family="sans-serif" font-size="14" lengthAdjust="spacing" textLength="180" x="782" y="77.9951">IMMUNIZATIONSCHEDULE</text><ellipse cx="875" cy="49" fill="#E2E2F0" rx="12" ry="12" style="stroke:#181818;stroke-width:0.5;"/><line style="stroke:#181818;stroke-width:0.5;" x1="863" x2="887" y1="63" y2="63"/><text fill="#000000" font-family="sans-serif" font-size="14" lengthAdjust="spacing" textLength="43" x="978" y="77.9951">CHILD</text><ellipse cx="1002.5" cy="49" fill="#E2E2F0" rx="12" ry="12" style="stroke:#181818;stroke-width:0.5;"/><line style="stroke:#181818;stroke-width:0.5;" x1="990.5" x2="1014.5" y1="63" y2="63"/><rect fill="none" height="39.1016" style="stroke:#000000;stroke-width:1.5;" width="1013" x="17" y="91.2969"/><path d="M17,91.2969 L85,91.2969 L85,98.2969 L75,108.2969 L17,108.2969 L17,91.2969 " fill="#EEEEEE" style="stroke:#000000;stroke-width:2.0;"/><text fill="#000000" font-family="sans-serif" font-size="13" font-weight="bold" lengthAdjust="spacing" textLength="23" x="30" y="105.3638">ref</text><text fill="#000000" font-family="sans-serif" font-size="12" lengthAdjust="spacing" textLength="245" x="401" y="123.4355">Sequence Search ImmunizationSchedule</text><polygon fill="#181818" points="176,167.6641,186,171.6641,176,175.6641,180,171.6641" style="stroke:#181818;stroke-width:1.0;"/><line style="stroke:#181818;stroke-width:1.0;" x1="48" x2="182" y1="171.6641" y2="171.6641"/><text fill="#000000" font-family="sans-serif" font-size="13" font-weight="bold" lengthAdjust="spacing" textLength="9" x="55" y="159.0317">1</text><text fill="#000000" font-family="sans-serif" font-size="13" lengthAdjust="spacing" textLength="100" x="68" y="151.4653">Select schedule</text><text fill="#000000" font-family="sans-serif" font-size="13" lengthAdjust="spacing" textLength="99" x="72" y="166.5981">needs updating</text><polygon fill="#181818" points="607,196.7969,617,200.7969,607,204.7969,611,200.7969" style="stroke:#181818;stroke-width:1.0;"/><line style="stroke:#181818;stroke-width:1.0;" x1="188" x2="613" y1="200.7969" y2="200.7969"/><text fill="#000000" font-family="sans-serif" font-size="13" font-weight="bold" lengthAdjust="spacing" textLength="9" x="195" y="195.731">2</text><text fill="#000000" font-family="sans-serif" font-size="13" lengthAdjust="spacing" textLength="220" x="208" y="195.731">Get selected schedule information</text><polygon fill="#181818" points="863,225.9297,873,229.9297,863,233.9297,867,229.9297" style="stroke:#181818;stroke-width:1.0;"/><line style="stroke:#181818;stroke-width:1.0;" x1="619" x2="869" y1="229.9297" y2="229.9297"/><text fill="#000000" font-family="sans-serif" font-size="13" font-weight="bold" lengthAdjust="spacing" textLength="8" x="626" y="224.8638">3</text><text fill="#000000" font-family="sans-serif" font-size="13" lengthAdjust="spacing" textLength="220" x="638" y="224.8638">Get selected schedule information</text><polygon fill="#181818" points="378,255.0625,368,259.0625,378,263.0625,374,259.0625" style="stroke:#181818;stroke-width:1.0;"/><line style="stroke:#181818;stroke-width:1.0;stroke-dasharray:2.0,2.0;" x1="372" x2="874" y1="259.0625" y2="259.0625"/><text fill="#000000" font-family="sans-serif" font-size="13" font-weight="bold" lengthAdjust="spacing" textLength="9" x="384" y="253.9966">4</text><text fill="#000000" font-family="sans-serif" font-size="13" lengthAdjust="spacing" textLength="194" x="397" y="253.9966">Selected schedule information</text><polygon fill="#181818" points="990.5,284.1953,1000.5,288.1953,990.5,292.1953,994.5,288.1953" style="stroke:#181818;stroke-width:1.0;"/><line style="stroke:#181818;stroke-width:1.0;" x1="619" x2="996.5" y1="288.1953" y2="288.1953"/><text fill="#000000" font-family="sans-serif" font-size="13" font-weight="bold" lengthAdjust="spacing" textLength="9" x="626" y="283.1294">5</text><text fill="#000000" font-family="sans-serif" font-size="13" lengthAdjust="spacing" textLength="116" x="639" y="283.1294">Get list of children</text><line style="stroke:#181818;stroke-width:1.0;" x1="1002.5" x2="1044.5" y1="317.3281" y2="317.3281"/><line style="stroke:#181818;stroke-width:1.0;" x1="1044.5" x2="1044.5" y1="317.3281" y2="330.3281"/><line style="stroke:#181818;stroke-width:1.0;" x1="1003.5" x2="1044.5" y1="330.3281" y2="330.3281"/><polygon fill="#181818" points="1013.5,326.3281,1003.5,330.3281,1013.5,334.3281,1009.5,330.3281" style="stroke:#181818;stroke-width:1.0;"/><text fill="#000000" font-family="sans-serif" font-size="13" font-weight="bold" lengthAdjust="spacing" textLength="9" x="1009.5" y="312.2622">6</text><text fill="#000000" font-family="sans-serif" font-size="13" lengthAdjust="spacing" textLength="72" x="1022.5" y="312.2622">Query data</text><polygon fill="#181818" points="630,355.4609,620,359.4609,630,363.4609,626,359.4609" style="stroke:#181818;stroke-width:1.0;"/><line style="stroke:#181818;stroke-width:1.0;stroke-dasharray:2.0,2.0;" x1="624" x2="1001.5" y1="359.4609" y2="359.4609"/><text fill="#000000" font-family="sans-serif" font-size="13" font-weight="bold" lengthAdjust="spacing" textLength="9" x="636" y="354.395">7</text><text fill="#000000" font-family="sans-serif" font-size="13" lengthAdjust="spacing" textLength="79" x="649" y="354.395">Query result</text><polygon fill="#181818" points="378,384.5938,368,388.5938,378,392.5938,374,388.5938" style="stroke:#181818;stroke-width:1.0;"/><line style="stroke:#181818;stroke-width:1.0;stroke-dasharray:2.0,2.0;" x1="372" x2="618" y1="388.5938" y2="388.5938"/><text fill="#000000" font-family="sans-serif" font-size="13" font-weight="bold" lengthAdjust="spacing" textLength="9" x="384" y="383.5278">8</text><text fill="#000000" font-family="sans-serif" font-size="13" lengthAdjust="spacing" textLength="79" x="397" y="383.5278">Query result</text><line style="stroke:#181818;stroke-width:1.0;" x1="367" x2="409" y1="417.7266" y2="417.7266"/><line style="stroke:#181818;stroke-width:1.0;" x1="409" x2="409" y1="417.7266" y2="430.7266"/><line style="stroke:#181818;stroke-width:1.0;" x1="368" x2="409" y1="430.7266" y2="430.7266"/><polygon fill="#181818" points="378,426.7266,368,430.7266,378,434.7266,374,430.7266" style="stroke:#181818;stroke-width:1.0;"/><text fill="#000000" font-family="sans-serif" font-size="13" font-weight="bold" lengthAdjust="spacing" textLength="9" x="374" y="412.6606">9</text><text fill="#000000" font-family="sans-serif" font-size="13" lengthAdjust="spacing" textLength="186" x="387" y="412.6606">Display schedule information</text><polygon fill="#181818" points="355,455.8594,365,459.8594,355,463.8594,359,459.8594" style="stroke:#181818;stroke-width:1.0;"/><line style="stroke:#181818;stroke-width:1.0;" x1="48" x2="361" y1="459.8594" y2="459.8594"/><text fill="#000000" font-family="sans-serif" font-size="13" font-weight="bold" lengthAdjust="spacing" textLength="19" x="55" y="454.7935">10</text><text fill="#000000" font-family="sans-serif" font-size="13" lengthAdjust="spacing" textLength="173" x="78" y="454.7935">Enter schedule information</text><line style="stroke:#181818;stroke-width:1.0;" x1="367" x2="409" y1="488.9922" y2="488.9922"/><line style="stroke:#181818;stroke-width:1.0;" x1="409" x2="409" y1="488.9922" y2="501.9922"/><line style="stroke:#181818;stroke-width:1.0;" x1="368" x2="409" y1="501.9922" y2="501.9922"/><polygon fill="#181818" points="378,497.9922,368,501.9922,378,505.9922,374,501.9922" style="stroke:#181818;stroke-width:1.0;"/><text fill="#000000" font-family="sans-serif" font-size="13" font-weight="bold" lengthAdjust="spacing" textLength="18" x="374" y="483.9263">11</text><text fill="#000000" font-family="sans-serif" font-size="13" lengthAdjust="spacing" textLength="85" x="396" y="483.9263">Validate data</text><path d="M10,516.9922 L76,516.9922 L76,524.125 L66,534.125 L10,534.125 L10,516.9922 " fill="#EEEEEE" style="stroke:#000000;stroke-width:1.5;"/><rect fill="none" height="550.7344" style="stroke:#000000;stroke-width:1.5;" width="991" x="10" y="516.9922"/><text fill="#000000" font-family="sans-serif" font-size="13" font-weight="bold" lengthAdjust="spacing" textLength="21" x="25" y="530.0591">alt</text><text fill="#000000" font-family="sans-serif" font-size="11" font-weight="bold" lengthAdjust="spacing" textLength="88" x="91" y="529.2026">[Invalid data]</text><polygon fill="#181818" points="59,551.2578,49,555.2578,59,559.2578,55,555.2578" style="stroke:#181818;stroke-width:1.0;"/><line style="stroke:#181818;stroke-width:1.0;stroke-dasharray:2.0,2.0;" x1="53" x2="366" y1="555.2578" y2="555.2578"/><text fill="#000000" font-family="sans-serif" font-size="13" font-weight="bold" lengthAdjust="spacing" textLength="18" x="65" y="550.1919">12</text><text fill="#000000" font-family="sans-serif" font-size="13" lengthAdjust="spacing" textLength="106" x="87" y="550.1919">Error notification</text><line style="stroke:#181818;stroke-width:1.0;" x1="367" x2="409" y1="584.3906" y2="584.3906"/><line style="stroke:#181818;stroke-width:1.0;" x1="409" x2="409" y1="584.3906" y2="597.3906"/><line style="stroke:#181818;stroke-width:1.0;" x1="368" x2="409" y1="597.3906" y2="597.3906"/><polygon fill="#181818" points="378,593.3906,368,597.3906,378,601.3906,374,597.3906" style="stroke:#181818;stroke-width:1.0;"/><text fill="#000000" font-family="sans-serif" font-size="13" font-weight="bold" lengthAdjust="spacing" textLength="17" x="374" y="579.3247">13</text><text fill="#000000" font-family="sans-serif" font-size="13" lengthAdjust="spacing" textLength="157" x="395" y="579.3247">Display error notification</text><line style="stroke:#000000;stroke-width:1.0;stroke-dasharray:2.0,2.0;" x1="10" x2="1001" y1="606.3906" y2="606.3906"/><text fill="#000000" font-family="sans-serif" font-size="11" font-weight="bold" lengthAdjust="spacing" textLength="78" x="15" y="616.6011">[Valid data]</text><polygon fill="#181818" points="355,637.3281,365,641.3281,355,645.3281,359,641.3281" style="stroke:#181818;stroke-width:1.0;"/><line style="stroke:#181818;stroke-width:1.0;" x1="48" x2="361" y1="641.3281" y2="641.3281"/><text fill="#000000" font-family="sans-serif" font-size="13" font-weight="bold" lengthAdjust="spacing" textLength="18" x="55" y="636.2622">14</text><text fill="#000000" font-family="sans-serif" font-size="13" lengthAdjust="spacing" textLength="191" x="77" y="636.2622">Click button "Save" to confirm</text><polygon fill="#181818" points="607,666.4609,617,670.4609,607,674.4609,611,670.4609" style="stroke:#181818;stroke-width:1.0;"/><line style="stroke:#181818;stroke-width:1.0;" x1="367" x2="613" y1="670.4609" y2="670.4609"/><text fill="#000000" font-family="sans-serif" font-size="13" font-weight="bold" lengthAdjust="spacing" textLength="18" x="374" y="665.395">15</text><text fill="#000000" font-family="sans-serif" font-size="13" lengthAdjust="spacing" textLength="206" x="396" y="665.395">Send updating schedule request</text><polygon fill="#181818" points="863,695.5938,873,699.5938,863,703.5938,867,699.5938" style="stroke:#181818;stroke-width:1.0;"/><line style="stroke:#181818;stroke-width:1.0;" x1="619" x2="869" y1="699.5938" y2="699.5938"/><text fill="#000000" font-family="sans-serif" font-size="13" font-weight="bold" lengthAdjust="spacing" textLength="18" x="626" y="694.5278">16</text><text fill="#000000" font-family="sans-serif" font-size="13" lengthAdjust="spacing" textLength="110" x="648" y="694.5278">Send information</text><line style="stroke:#181818;stroke-width:1.0;" x1="875" x2="917" y1="728.7266" y2="728.7266"/><line style="stroke:#181818;stroke-width:1.0;" x1="917" x2="917" y1="728.7266" y2="741.7266"/><line style="stroke:#181818;stroke-width:1.0;" x1="876" x2="917" y1="741.7266" y2="741.7266"/><polygon fill="#181818" points="886,737.7266,876,741.7266,886,745.7266,882,741.7266" style="stroke:#181818;stroke-width:1.0;"/><text fill="#000000" font-family="sans-serif" font-size="13" font-weight="bold" lengthAdjust="spacing" textLength="18" x="882" y="723.6606">17</text><text fill="#000000" font-family="sans-serif" font-size="13" lengthAdjust="spacing" textLength="85" x="904" y="723.6606">Validate data</text><path d="M93.5,756.7266 L159.5,756.7266 L159.5,763.8594 L149.5,773.8594 L93.5,773.8594 L93.5,756.7266 " fill="#EEEEEE" style="stroke:#000000;stroke-width:1.5;"/><rect fill="none" height="304" style="stroke:#000000;stroke-width:1.5;" width="889.5" x="93.5" y="756.7266"/><text fill="#000000" font-family="sans-serif" font-size="13" font-weight="bold" lengthAdjust="spacing" textLength="21" x="108.5" y="769.7935">alt</text><text fill="#000000" font-family="sans-serif" font-size="11" font-weight="bold" lengthAdjust="spacing" textLength="88" x="174.5" y="768.937">[Invalid data]</text><polygon fill="#181818" points="630,790.9922,620,794.9922,630,798.9922,626,794.9922" style="stroke:#181818;stroke-width:1.0;"/><line style="stroke:#181818;stroke-width:1.0;stroke-dasharray:2.0,2.0;" x1="624" x2="874" y1="794.9922" y2="794.9922"/><text fill="#000000" font-family="sans-serif" font-size="13" font-weight="bold" lengthAdjust="spacing" textLength="18" x="636" y="789.9263">18</text><text fill="#000000" font-family="sans-serif" font-size="13" lengthAdjust="spacing" textLength="106" x="658" y="789.9263">Error notification</text><polygon fill="#181818" points="378,820.125,368,824.125,378,828.125,374,824.125" style="stroke:#181818;stroke-width:1.0;"/><line style="stroke:#181818;stroke-width:1.0;stroke-dasharray:2.0,2.0;" x1="372" x2="618" y1="824.125" y2="824.125"/><text fill="#000000" font-family="sans-serif" font-size="13" font-weight="bold" lengthAdjust="spacing" textLength="18" x="384" y="819.0591">19</text><text fill="#000000" font-family="sans-serif" font-size="13" lengthAdjust="spacing" textLength="106" x="406" y="819.0591">Error notification</text><line style="stroke:#181818;stroke-width:1.0;" x1="367" x2="409" y1="853.2578" y2="853.2578"/><line style="stroke:#181818;stroke-width:1.0;" x1="409" x2="409" y1="853.2578" y2="866.2578"/><line style="stroke:#181818;stroke-width:1.0;" x1="368" x2="409" y1="866.2578" y2="866.2578"/><polygon fill="#181818" points="378,862.2578,368,866.2578,378,870.2578,374,866.2578" style="stroke:#181818;stroke-width:1.0;"/><text fill="#000000" font-family="sans-serif" font-size="13" font-weight="bold" lengthAdjust="spacing" textLength="19" x="374" y="848.1919">20</text><text fill="#000000" font-family="sans-serif" font-size="13" lengthAdjust="spacing" textLength="157" x="397" y="848.1919">Display error notification</text><line style="stroke:#000000;stroke-width:1.0;stroke-dasharray:2.0,2.0;" x1="93.5" x2="983" y1="875.2578" y2="875.2578"/><text fill="#000000" font-family="sans-serif" font-size="11" font-weight="bold" lengthAdjust="spacing" textLength="78" x="98.5" y="885.4683">[Valid data]</text><line style="stroke:#181818;stroke-width:1.0;" x1="875" x2="917" y1="910.1953" y2="910.1953"/><line style="stroke:#181818;stroke-width:1.0;" x1="917" x2="917" y1="910.1953" y2="923.1953"/><line style="stroke:#181818;stroke-width:1.0;" x1="876" x2="917" y1="923.1953" y2="923.1953"/><polygon fill="#181818" points="886,919.1953,876,923.1953,886,927.1953,882,923.1953" style="stroke:#181818;stroke-width:1.0;"/><text fill="#000000" font-family="sans-serif" font-size="13" font-weight="bold" lengthAdjust="spacing" textLength="18" x="882" y="905.1294">21</text><text fill="#000000" font-family="sans-serif" font-size="13" lengthAdjust="spacing" textLength="67" x="904" y="905.1294">Store data</text><polygon fill="#181818" points="630,948.3281,620,952.3281,630,956.3281,626,952.3281" style="stroke:#181818;stroke-width:1.0;"/><line style="stroke:#181818;stroke-width:1.0;stroke-dasharray:2.0,2.0;" x1="624" x2="874" y1="952.3281" y2="952.3281"/><text fill="#000000" font-family="sans-serif" font-size="13" font-weight="bold" lengthAdjust="spacing" textLength="18" x="636" y="947.2622">22</text><text fill="#000000" font-family="sans-serif" font-size="13" lengthAdjust="spacing" textLength="127" x="658" y="947.2622">Success notification</text><polygon fill="#181818" points="378,977.4609,368,981.4609,378,985.4609,374,981.4609" style="stroke:#181818;stroke-width:1.0;"/><line style="stroke:#181818;stroke-width:1.0;stroke-dasharray:2.0,2.0;" x1="372" x2="618" y1="981.4609" y2="981.4609"/><text fill="#000000" font-family="sans-serif" font-size="13" font-weight="bold" lengthAdjust="spacing" textLength="17" x="384" y="976.395">23</text><text fill="#000000" font-family="sans-serif" font-size="13" lengthAdjust="spacing" textLength="127" x="405" y="976.395">Success notification</text><line style="stroke:#181818;stroke-width:1.0;" x1="367" x2="409" y1="1010.5938" y2="1010.5938"/><line style="stroke:#181818;stroke-width:1.0;" x1="409" x2="409" y1="1010.5938" y2="1023.5938"/><line style="stroke:#181818;stroke-width:1.0;" x1="368" x2="409" y1="1023.5938" y2="1023.5938"/><polygon fill="#181818" points="378,1019.5938,368,1023.5938,378,1027.5938,374,1023.5938" style="stroke:#181818;stroke-width:1.0;"/><text fill="#000000" font-family="sans-serif" font-size="13" font-weight="bold" lengthAdjust="spacing" textLength="18" x="374" y="1005.5278">24</text><text fill="#000000" font-family="sans-serif" font-size="13" lengthAdjust="spacing" textLength="69" x="396" y="1005.5278">Close view</text><polygon fill="#181818" points="199,1048.7266,189,1052.7266,199,1056.7266,195,1052.7266" style="stroke:#181818;stroke-width:1.0;"/><line style="stroke:#181818;stroke-width:1.0;" x1="193" x2="618" y1="1052.7266" y2="1052.7266"/><text fill="#000000" font-family="sans-serif" font-size="13" font-weight="bold" lengthAdjust="spacing" textLength="18" x="205" y="1047.6606">25</text><text fill="#000000" font-family="sans-serif" font-size="13" lengthAdjust="spacing" textLength="312" x="227" y="1047.6606">Display success notification and list of schedules</text><!--SRC=[jLR9Rjim4BtpAmO-Ep-GGu52DXe1SOf2JGv5BpGvYebIPCh5hVlrfSJASXpAejB45nbStZP3IjGxhNopHKDsWYFKMhkj_aq8PKuRMEdsGRRQAqxD0HPbqtWb_b0djAhO3hcN-5rjgAAFsA1o3m9_BO1QI2rylcmIjLIrDaqtU17sR1rXMZcZvHXi4QSbcb74OGa9OeKxGBdPtD-Ltpv-BJ_VLSNDUdL_k-xdYfloTaM8mHhq7llGbXaHB7FyB2SaBfFYbb7MDLJuqwDY6FvGmtP9C18bmzM73D4jf4Jcm1uZ1ON8BVWd7lQfHp8DCaOrsBg6JnWuEYhaHp8GGphaCaB7aOWc2pcn3wv6H9yLh0_ezQh_bQwLAOLre6jWEo6vGGMacpnPzSLZE4CXUTfFPMGRDncqNhf9GRcs9q7FTa0ky4hO9qaFwJWlz-uBhBLomLCA2U1DHJzGAK9LC9Q6IWUbshTZSG32Buiky4MBGRinmQdIJjI2HVVPC3EZnfTKA2r6LuE3cU4NKh0ViFKkl7LWKT4zBi1f23TsBKpplsPE6xn2nOyNqb1kqzw6reqovTmU7VHf1tPWoGjZ3E9vRxJxa_qn3foHm4Ypv3ZFFalpADwX9rkgL5_EBqaL-XZVAFhACuRMlc_uiqbU6tyXTGXuttvQvNh8-uuuNki99q338UjVVltnjR7UYeTFB_uN]--></g></svg>