<?xml version="1.0" encoding="us-ascii" standalone="no"?><svg xmlns="http://www.w3.org/2000/svg" xmlns:xlink="http://www.w3.org/1999/xlink" contentStyleType="text/css" height="793px" preserveAspectRatio="none" style="width:861px;height:793px;background:#FFFFFF;" version="1.1" viewBox="0 0 861 793" width="861px" zoomAndPan="magnify"><defs/><g><rect fill="none" height="20.9531" style="stroke:none;stroke-width:1.0;" width="828.5" x="15" y="12.7451"/><rect fill="#F1F1F1" height="47.9375" rx="12.5" ry="12.5" style="stroke:#181818;stroke-width:0.5;" width="115" x="30.5" y="190.6357"/><text fill="#000000" font-family="sans-serif" font-size="12" lengthAdjust="spacing" textLength="95" x="40.5" y="211.7744">Enter document</text><text fill="#000000" font-family="sans-serif" font-size="12" lengthAdjust="spacing" textLength="67" x="40.5" y="225.7432">information</text><polygon fill="#F1F1F1" points="88,146.6357,100,158.6357,88,170.6357,76,158.6357,88,146.6357" style="stroke:#181818;stroke-width:0.5;"/><rect fill="#F1F1F1" height="47.9375" rx="12.5" ry="12.5" style="stroke:#181818;stroke-width:0.5;" width="134" x="21" y="383.2524"/><text fill="#000000" font-family="sans-serif" font-size="12" lengthAdjust="spacing" textLength="114" x="31" y="404.3911">Click button "Save"</text><text fill="#000000" font-family="sans-serif" font-size="12" lengthAdjust="spacing" textLength="61" x="31" y="418.3599">to confirm</text><line style="stroke:#000000;stroke-width:1.5;" x1="15" x2="15" y1="12.7451" y2="781.0337"/><ellipse cx="347.75" cy="48.6982" fill="#222222" rx="10" ry="10" style="stroke:#222222;stroke-width:1.0;"/><rect fill="#F1F1F1" height="47.9375" rx="12.5" ry="12.5" style="stroke:#181818;stroke-width:0.5;" width="128" x="283.75" y="78.6982"/><text fill="#000000" font-family="sans-serif" font-size="12" lengthAdjust="spacing" textLength="108" x="293.75" y="99.8369">Display document</text><text fill="#000000" font-family="sans-serif" font-size="12" lengthAdjust="spacing" textLength="99" x="293.75" y="113.8057">information view</text><rect fill="#F1F1F1" height="33.9688" rx="12.5" ry="12.5" style="stroke:#181818;stroke-width:0.5;" width="141" x="277.25" y="273.5732"/><text fill="#000000" font-family="sans-serif" font-size="12" lengthAdjust="spacing" textLength="121" x="287.25" y="294.7119">Validate data format</text><polygon fill="#F1F1F1" points="347.75,327.542,347.75,327.542,359.75,339.542,347.75,351.542,347.75,351.542,335.75,339.542,347.75,327.542" style="stroke:#181818;stroke-width:0.5;"/><text fill="#000000" font-family="sans-serif" font-size="11" lengthAdjust="spacing" textLength="57" x="351.75" y="361.7524">Valid data</text><text fill="#000000" font-family="sans-serif" font-size="11" lengthAdjust="spacing" textLength="66" x="359.75" y="336.9478">Invalid data</text><rect fill="#F1F1F1" height="33.9688" rx="12.5" ry="12.5" style="stroke:#181818;stroke-width:0.5;" width="168" x="442.25" y="232.1045"/><text fill="#000000" font-family="sans-serif" font-size="12" lengthAdjust="spacing" textLength="148" x="452.25" y="253.2432">Display error notification</text><rect fill="#F1F1F1" height="33.9688" rx="12.5" ry="12.5" style="stroke:#181818;stroke-width:0.5;" width="172" x="261.75" y="451.1899"/><text fill="#000000" font-family="sans-serif" font-size="12" lengthAdjust="spacing" textLength="152" x="271.75" y="472.3286">Process creating request</text><rect fill="#F1F1F1" height="33.9688" rx="12.5" ry="12.5" style="stroke:#181818;stroke-width:0.5;" width="168" x="165" y="603.1274"/><text fill="#000000" font-family="sans-serif" font-size="12" lengthAdjust="spacing" textLength="148" x="175" y="624.2661">Display error notification</text><rect fill="#F1F1F1" height="47.9375" rx="12.5" ry="12.5" style="stroke:#181818;stroke-width:0.5;" width="187" x="353" y="657.0962"/><text fill="#000000" font-family="sans-serif" font-size="12" lengthAdjust="spacing" textLength="167" x="363" y="678.2349">Display success notification</text><text fill="#000000" font-family="sans-serif" font-size="12" lengthAdjust="spacing" textLength="130" x="363" y="692.2036">and list of documents</text><line style="stroke:#000000;stroke-width:1.5;" x1="159" x2="159" y1="12.7451" y2="781.0337"/><rect fill="#F1F1F1" height="33.9688" rx="12.5" ry="12.5" style="stroke:#181818;stroke-width:0.5;" width="98" x="648.25" y="505.1587"/><text fill="#000000" font-family="sans-serif" font-size="12" lengthAdjust="spacing" textLength="78" x="658.25" y="526.2974">Validate data</text><polygon fill="#F1F1F1" points="697.25,559.1274,697.25,559.1274,709.25,571.1274,697.25,583.1274,697.25,583.1274,685.25,571.1274,697.25,559.1274" style="stroke:#181818;stroke-width:0.5;"/><text fill="#000000" font-family="sans-serif" font-size="11" lengthAdjust="spacing" textLength="66" x="619.25" y="568.5332">Invalid data</text><text fill="#000000" font-family="sans-serif" font-size="11" lengthAdjust="spacing" textLength="57" x="709.25" y="568.5332">Valid data</text><rect fill="#F1F1F1" height="33.9688" rx="12.5" ry="12.5" style="stroke:#181818;stroke-width:0.5;" width="83" x="754.5" y="603.1274"/><text fill="#000000" font-family="sans-serif" font-size="12" lengthAdjust="spacing" textLength="63" x="764.5" y="624.2661">Store data</text><polygon fill="#F1F1F1" points="697.25,715.0337,709.25,727.0337,697.25,739.0337,685.25,727.0337,697.25,715.0337" style="stroke:#181818;stroke-width:0.5;"/><ellipse cx="697.25" cy="770.0337" fill="none" rx="11" ry="11" style="stroke:#222222;stroke-width:1.0;"/><ellipse cx="697.25" cy="770.0337" fill="#222222" rx="6" ry="6" style="stroke:#222222;stroke-width:1.0;"/><line style="stroke:#000000;stroke-width:1.5;" x1="614.25" x2="614.25" y1="12.7451" y2="781.0337"/><line style="stroke:#000000;stroke-width:1.5;" x1="841.5" x2="841.5" y1="12.7451" y2="781.0337"/><line style="stroke:#181818;stroke-width:1.0;" x1="88" x2="88" y1="170.6357" y2="190.6357"/><polygon fill="#181818" points="84,180.6357,88,190.6357,92,180.6357,88,184.6357" style="stroke:#181818;stroke-width:1.0;"/><line style="stroke:#181818;stroke-width:1.0;" x1="347.75" x2="347.75" y1="58.6982" y2="78.6982"/><polygon fill="#181818" points="343.75,68.6982,347.75,78.6982,351.75,68.6982,347.75,72.6982" style="stroke:#181818;stroke-width:1.0;"/><line style="stroke:#181818;stroke-width:1.0;" x1="359.75" x2="526.25" y1="339.542" y2="339.542"/><line style="stroke:#181818;stroke-width:1.0;" x1="526.25" x2="526.25" y1="266.0732" y2="339.542"/><polygon fill="#181818" points="522.25,276.0732,526.25,266.0732,530.25,276.0732,526.25,272.0732" style="stroke:#181818;stroke-width:1.0;"/><line style="stroke:#181818;stroke-width:1.0;" x1="347.75" x2="347.75" y1="307.542" y2="327.542"/><polygon fill="#181818" points="343.75,317.542,347.75,327.542,351.75,317.542,347.75,321.542" style="stroke:#181818;stroke-width:1.0;"/><line style="stroke:#181818;stroke-width:1.0;" x1="709.25" x2="796" y1="571.1274" y2="571.1274"/><line style="stroke:#181818;stroke-width:1.0;" x1="796" x2="796" y1="571.1274" y2="603.1274"/><polygon fill="#181818" points="792,593.1274,796,603.1274,800,593.1274,796,597.1274" style="stroke:#181818;stroke-width:1.0;"/><line style="stroke:#181818;stroke-width:1.0;" x1="697.25" x2="697.25" y1="539.1274" y2="559.1274"/><polygon fill="#181818" points="693.25,549.1274,697.25,559.1274,701.25,549.1274,697.25,553.1274" style="stroke:#181818;stroke-width:1.0;"/><line style="stroke:#181818;stroke-width:1.0;" x1="697.25" x2="697.25" y1="739.0337" y2="759.0337"/><polygon fill="#181818" points="693.25,749.0337,697.25,759.0337,701.25,749.0337,697.25,753.0337" style="stroke:#181818;stroke-width:1.0;"/><line style="stroke:#181818;stroke-width:1.0;" x1="88" x2="88" y1="238.5732" y2="256.0732"/><line style="stroke:#181818;stroke-width:1.0;" x1="88" x2="347.75" y1="256.0732" y2="256.0732"/><line style="stroke:#181818;stroke-width:1.0;" x1="347.75" x2="347.75" y1="256.0732" y2="273.5732"/><polygon fill="#181818" points="343.75,263.5732,347.75,273.5732,351.75,263.5732,347.75,267.5732" style="stroke:#181818;stroke-width:1.0;"/><line style="stroke:#181818;stroke-width:1.0;" x1="526.25" x2="526.25" y1="158.6357" y2="232.1045"/><line style="stroke:#181818;stroke-width:1.0;" x1="526.25" x2="100" y1="158.6357" y2="158.6357"/><polygon fill="#181818" points="110,154.6357,100,158.6357,110,162.6357,106,158.6357" style="stroke:#181818;stroke-width:1.0;"/><line style="stroke:#181818;stroke-width:1.0;" x1="347.75" x2="347.75" y1="126.6357" y2="131.6357"/><line style="stroke:#181818;stroke-width:1.0;" x1="347.75" x2="88" y1="131.6357" y2="131.6357"/><line style="stroke:#181818;stroke-width:1.0;" x1="88" x2="88" y1="131.6357" y2="146.6357"/><polygon fill="#181818" points="84,136.6357,88,146.6357,92,136.6357,88,140.6357" style="stroke:#181818;stroke-width:1.0;"/><line style="stroke:#181818;stroke-width:1.0;" x1="347.75" x2="347.75" y1="351.542" y2="368.2524"/><line style="stroke:#181818;stroke-width:1.0;" x1="347.75" x2="88" y1="368.2524" y2="368.2524"/><line style="stroke:#181818;stroke-width:1.0;" x1="88" x2="88" y1="368.2524" y2="383.2524"/><polygon fill="#181818" points="84,373.2524,88,383.2524,92,373.2524,88,377.2524" style="stroke:#181818;stroke-width:1.0;"/><line style="stroke:#181818;stroke-width:1.0;" x1="88" x2="88" y1="431.1899" y2="436.1899"/><line style="stroke:#181818;stroke-width:1.0;" x1="88" x2="347.75" y1="436.1899" y2="436.1899"/><line style="stroke:#181818;stroke-width:1.0;" x1="347.75" x2="347.75" y1="436.1899" y2="451.1899"/><polygon fill="#181818" points="343.75,441.1899,347.75,451.1899,351.75,441.1899,347.75,445.1899" style="stroke:#181818;stroke-width:1.0;"/><line style="stroke:#181818;stroke-width:1.0;" x1="347.75" x2="347.75" y1="485.1587" y2="490.1587"/><line style="stroke:#181818;stroke-width:1.0;" x1="347.75" x2="697.25" y1="490.1587" y2="490.1587"/><line style="stroke:#181818;stroke-width:1.0;" x1="697.25" x2="697.25" y1="490.1587" y2="505.1587"/><polygon fill="#181818" points="693.25,495.1587,697.25,505.1587,701.25,495.1587,697.25,499.1587" style="stroke:#181818;stroke-width:1.0;"/><line style="stroke:#181818;stroke-width:1.0;" x1="796" x2="796" y1="637.0962" y2="642.0962"/><line style="stroke:#181818;stroke-width:1.0;" x1="796" x2="446.5" y1="642.0962" y2="642.0962"/><line style="stroke:#181818;stroke-width:1.0;" x1="446.5" x2="446.5" y1="642.0962" y2="657.0962"/><polygon fill="#181818" points="442.5,647.0962,446.5,657.0962,450.5,647.0962,446.5,651.0962" style="stroke:#181818;stroke-width:1.0;"/><line style="stroke:#181818;stroke-width:1.0;" x1="685.25" x2="249" y1="571.1274" y2="571.1274"/><line style="stroke:#181818;stroke-width:1.0;" x1="249" x2="249" y1="571.1274" y2="603.1274"/><polygon fill="#181818" points="245,593.1274,249,603.1274,253,593.1274,249,597.1274" style="stroke:#181818;stroke-width:1.0;"/><line style="stroke:#181818;stroke-width:1.0;" x1="249" x2="249" y1="637.0962" y2="727.0337"/><line style="stroke:#181818;stroke-width:1.0;" x1="249" x2="685.25" y1="727.0337" y2="727.0337"/><polygon fill="#181818" points="675.25,723.0337,685.25,727.0337,675.25,731.0337,679.25,727.0337" style="stroke:#181818;stroke-width:1.0;"/><line style="stroke:#181818;stroke-width:1.0;" x1="446.5" x2="446.5" y1="705.0337" y2="709.0337"/><line style="stroke:#181818;stroke-width:1.0;" x1="446.5" x2="727.25" y1="709.0337" y2="709.0337"/><line style="stroke:#181818;stroke-width:1.0;" x1="727.25" x2="727.25" y1="709.0337" y2="727.0337"/><line style="stroke:#181818;stroke-width:1.0;" x1="727.25" x2="709.25" y1="727.0337" y2="727.0337"/><polygon fill="#181818" points="719.25,723.0337,709.25,727.0337,719.25,731.0337,715.25,727.0337" style="stroke:#181818;stroke-width:1.0;"/><text fill="#000000" font-family="sans-serif" font-size="18" lengthAdjust="spacing" textLength="58" x="58" y="29.4531">Admin</text><text fill="#000000" font-family="sans-serif" font-size="18" lengthAdjust="spacing" textLength="69" x="352.125" y="29.4531">System</text><text fill="#000000" font-family="sans-serif" font-size="18" lengthAdjust="spacing" textLength="88" x="683.875" y="29.4531">Database</text><!--SRC=[VP7DRi8m48JlVeeLf_0ASAfA3xrLYiGf5-DioefadUvkY93oyCrVWHA43vPbZsU-iRktl2BkN9TUrB3gd5FpOcwp8wrBVu4yXgP2jeo9YoYLDueCPy9swvnWZTuSzAERZORrveCDvVdLxQJ-YnlbUrzIxWsXdpnCqabtyE7KUidXoeCYKO2ZKK5XTfmme3rIYP2iWHIIJpuFhgFbUj13ihzjB97VImedE3HcVRrLwi-uojWYXCW5IVKC-qjYG5K8qgSJVuFWJuCwetUxFkZW5P-Ld2HK3BHsH7xW7KyNWQFDgtSO15WgBgl-1mAu-QKMvPxfTQesOQnydvknvnnAKeDON3zTRtR8EHMFRw8Mwry0]--></g></svg>