<?xml version="1.0" encoding="us-ascii" standalone="no"?><svg xmlns="http://www.w3.org/2000/svg" xmlns:xlink="http://www.w3.org/1999/xlink" contentStyleType="text/css" height="752px" preserveAspectRatio="none" style="width:1072px;height:752px;background:#FFFFFF;" version="1.1" viewBox="0 0 1072 752" width="1072px" zoomAndPan="magnify"><defs/><g><rect fill="none" height="20.9531" style="stroke:none;stroke-width:1.0;" width="1039.25" x="15" y="12.7451"/><ellipse cx="230.75" cy="48.6982" fill="#222222" rx="10" ry="10" style="stroke:#222222;stroke-width:1.0;"/><rect fill="#F1F1F1" height="47.9375" rx="12.5" ry="12.5" style="stroke:#181818;stroke-width:0.5;" width="132" x="164.75" y="78.6982"/><text fill="#000000" font-family="sans-serif" font-size="12" lengthAdjust="spacing" textLength="100" x="174.75" y="99.8369">Execute "Activity</text><text fill="#000000" font-family="sans-serif" font-size="12" lengthAdjust="spacing" textLength="112" x="174.75" y="113.8057">Search Document"</text><rect fill="#F1F1F1" height="47.9375" rx="12.5" ry="12.5" style="stroke:#181818;stroke-width:0.5;" width="122" x="169.75" y="146.6357"/><text fill="#000000" font-family="sans-serif" font-size="12" lengthAdjust="spacing" textLength="102" x="179.75" y="167.7744">Select document</text><text fill="#000000" font-family="sans-serif" font-size="12" lengthAdjust="spacing" textLength="91" x="179.75" y="181.7432">needs deleting</text><rect fill="#F1F1F1" height="33.9688" rx="12.5" ry="12.5" style="stroke:#181818;stroke-width:0.5;" width="144" x="21" y="326.5107"/><text fill="#000000" font-family="sans-serif" font-size="12" lengthAdjust="spacing" textLength="124" x="31" y="347.6494">Click "Cancel" button</text><ellipse cx="93" cy="390.4795" fill="none" rx="10" ry="10" style="stroke:#222222;stroke-width:1.5;"/><line style="stroke:#222222;stroke-width:2.5;" x1="86.8128" x2="99.1872" y1="384.2923" y2="396.6667"/><line style="stroke:#222222;stroke-width:2.5;" x1="99.1872" x2="86.8128" y1="384.2923" y2="396.6667"/><rect fill="#F1F1F1" height="33.9688" rx="12.5" ry="12.5" style="stroke:#181818;stroke-width:0.5;" width="150" x="293.5" y="326.5107"/><text fill="#000000" font-family="sans-serif" font-size="12" lengthAdjust="spacing" textLength="130" x="303.5" y="347.6494">Click "Confirm" button</text><line style="stroke:#000000;stroke-width:1.5;" x1="15" x2="15" y1="12.7451" y2="740.292"/><rect fill="#F1F1F1" height="47.9375" rx="12.5" ry="12.5" style="stroke:#181818;stroke-width:0.5;" width="142" x="453.5" y="214.5732"/><text fill="#000000" font-family="sans-serif" font-size="12" lengthAdjust="spacing" textLength="122" x="463.5" y="235.7119">Display confirmation</text><text fill="#000000" font-family="sans-serif" font-size="12" lengthAdjust="spacing" textLength="79" x="463.5" y="249.6807">messagebox</text><polygon fill="#F1F1F1" points="524.5,282.5107,524.5,282.5107,536.5,294.5107,524.5,306.5107,524.5,306.5107,512.5,294.5107,524.5,282.5107" style="stroke:#181818;stroke-width:0.5;"/><text fill="#000000" font-family="sans-serif" font-size="11" lengthAdjust="spacing" textLength="39" x="473.5" y="291.9165">Cancel</text><text fill="#000000" font-family="sans-serif" font-size="11" lengthAdjust="spacing" textLength="44" x="536.5" y="291.9165">Confirm</text><rect fill="#F1F1F1" height="33.9688" rx="12.5" ry="12.5" style="stroke:#181818;stroke-width:0.5;" width="172" x="576.25" y="380.4795"/><text fill="#000000" font-family="sans-serif" font-size="12" lengthAdjust="spacing" textLength="152" x="586.25" y="401.6182">Process deleting request</text><rect fill="#F1F1F1" height="33.9688" rx="12.5" ry="12.5" style="stroke:#181818;stroke-width:0.5;" width="168" x="488.75" y="532.417"/><text fill="#000000" font-family="sans-serif" font-size="12" lengthAdjust="spacing" textLength="148" x="498.75" y="553.5557">Display error notification</text><rect fill="#F1F1F1" height="61.9063" rx="12.5" ry="12.5" style="stroke:#181818;stroke-width:0.5;" width="150" x="676.75" y="586.3857"/><text fill="#000000" font-family="sans-serif" font-size="12" lengthAdjust="spacing" textLength="98" x="686.75" y="607.5244">Display success</text><text fill="#000000" font-family="sans-serif" font-size="12" lengthAdjust="spacing" textLength="65" x="686.75" y="621.4932">notification</text><text fill="#000000" font-family="sans-serif" font-size="12" lengthAdjust="spacing" textLength="130" x="686.75" y="635.4619">and list of documents</text><line style="stroke:#000000;stroke-width:1.5;" x1="447.5" x2="447.5" y1="12.7451" y2="740.292"/><rect fill="#F1F1F1" height="33.9688" rx="12.5" ry="12.5" style="stroke:#181818;stroke-width:0.5;" width="98" x="864.75" y="434.4482"/><text fill="#000000" font-family="sans-serif" font-size="12" lengthAdjust="spacing" textLength="78" x="874.75" y="455.5869">Validate data</text><polygon fill="#F1F1F1" points="913.75,488.417,913.75,488.417,925.75,500.417,913.75,512.417,913.75,512.417,901.75,500.417,913.75,488.417" style="stroke:#181818;stroke-width:0.5;"/><text fill="#000000" font-family="sans-serif" font-size="11" lengthAdjust="spacing" textLength="66" x="835.75" y="497.8228">Invalid data</text><text fill="#000000" font-family="sans-serif" font-size="11" lengthAdjust="spacing" textLength="57" x="925.75" y="497.8228">Valid data</text><rect fill="#F1F1F1" height="33.9688" rx="12.5" ry="12.5" style="stroke:#181818;stroke-width:0.5;" width="90" x="958.25" y="532.417"/><text fill="#000000" font-family="sans-serif" font-size="12" lengthAdjust="spacing" textLength="70" x="968.25" y="553.5557">Delete data</text><polygon fill="#F1F1F1" points="913.75,658.292,925.75,670.292,913.75,682.292,901.75,670.292,913.75,658.292" style="stroke:#181818;stroke-width:0.5;"/><ellipse cx="913.75" cy="713.292" fill="none" rx="11" ry="11" style="stroke:#222222;stroke-width:1.0;"/><ellipse cx="913.75" cy="713.292" fill="#222222" rx="6" ry="6" style="stroke:#222222;stroke-width:1.0;"/><line style="stroke:#000000;stroke-width:1.5;" x1="830.75" x2="830.75" y1="12.7451" y2="740.292"/><line style="stroke:#000000;stroke-width:1.5;" x1="1052.25" x2="1052.25" y1="12.7451" y2="740.292"/><line style="stroke:#181818;stroke-width:1.0;" x1="230.75" x2="230.75" y1="58.6982" y2="78.6982"/><polygon fill="#181818" points="226.75,68.6982,230.75,78.6982,234.75,68.6982,230.75,72.6982" style="stroke:#181818;stroke-width:1.0;"/><line style="stroke:#181818;stroke-width:1.0;" x1="230.75" x2="230.75" y1="126.6357" y2="146.6357"/><polygon fill="#181818" points="226.75,136.6357,230.75,146.6357,234.75,136.6357,230.75,140.6357" style="stroke:#181818;stroke-width:1.0;"/><line style="stroke:#181818;stroke-width:1.0;" x1="93" x2="93" y1="360.4795" y2="380.4795"/><polygon fill="#181818" points="89,370.4795,93,380.4795,97,370.4795,93,374.4795" style="stroke:#181818;stroke-width:1.0;"/><line style="stroke:#181818;stroke-width:1.0;" x1="524.5" x2="524.5" y1="262.5107" y2="282.5107"/><polygon fill="#181818" points="520.5,272.5107,524.5,282.5107,528.5,272.5107,524.5,276.5107" style="stroke:#181818;stroke-width:1.0;"/><line style="stroke:#181818;stroke-width:1.0;" x1="925.75" x2="1003.25" y1="500.417" y2="500.417"/><line style="stroke:#181818;stroke-width:1.0;" x1="1003.25" x2="1003.25" y1="500.417" y2="532.417"/><polygon fill="#181818" points="999.25,522.417,1003.25,532.417,1007.25,522.417,1003.25,526.417" style="stroke:#181818;stroke-width:1.0;"/><line style="stroke:#181818;stroke-width:1.0;" x1="913.75" x2="913.75" y1="468.417" y2="488.417"/><polygon fill="#181818" points="909.75,478.417,913.75,488.417,917.75,478.417,913.75,482.417" style="stroke:#181818;stroke-width:1.0;"/><line style="stroke:#181818;stroke-width:1.0;" x1="913.75" x2="913.75" y1="682.292" y2="702.292"/><polygon fill="#181818" points="909.75,692.292,913.75,702.292,917.75,692.292,913.75,696.292" style="stroke:#181818;stroke-width:1.0;"/><line style="stroke:#181818;stroke-width:1.0;" x1="230.75" x2="230.75" y1="194.5732" y2="199.5732"/><line style="stroke:#181818;stroke-width:1.0;" x1="230.75" x2="524.5" y1="199.5732" y2="199.5732"/><line style="stroke:#181818;stroke-width:1.0;" x1="524.5" x2="524.5" y1="199.5732" y2="214.5732"/><polygon fill="#181818" points="520.5,204.5732,524.5,214.5732,528.5,204.5732,524.5,208.5732" style="stroke:#181818;stroke-width:1.0;"/><line style="stroke:#181818;stroke-width:1.0;" x1="368.5" x2="368.5" y1="360.4795" y2="365.4795"/><line style="stroke:#181818;stroke-width:1.0;" x1="368.5" x2="662.25" y1="365.4795" y2="365.4795"/><line style="stroke:#181818;stroke-width:1.0;" x1="662.25" x2="662.25" y1="365.4795" y2="380.4795"/><polygon fill="#181818" points="658.25,370.4795,662.25,380.4795,666.25,370.4795,662.25,374.4795" style="stroke:#181818;stroke-width:1.0;"/><line style="stroke:#181818;stroke-width:1.0;" x1="662.25" x2="662.25" y1="414.4482" y2="419.4482"/><line style="stroke:#181818;stroke-width:1.0;" x1="662.25" x2="913.75" y1="419.4482" y2="419.4482"/><line style="stroke:#181818;stroke-width:1.0;" x1="913.75" x2="913.75" y1="419.4482" y2="434.4482"/><polygon fill="#181818" points="909.75,424.4482,913.75,434.4482,917.75,424.4482,913.75,428.4482" style="stroke:#181818;stroke-width:1.0;"/><line style="stroke:#181818;stroke-width:1.0;" x1="1003.25" x2="1003.25" y1="566.3857" y2="571.3857"/><line style="stroke:#181818;stroke-width:1.0;" x1="1003.25" x2="751.75" y1="571.3857" y2="571.3857"/><line style="stroke:#181818;stroke-width:1.0;" x1="751.75" x2="751.75" y1="571.3857" y2="586.3857"/><polygon fill="#181818" points="747.75,576.3857,751.75,586.3857,755.75,576.3857,751.75,580.3857" style="stroke:#181818;stroke-width:1.0;"/><line style="stroke:#181818;stroke-width:1.0;" x1="901.75" x2="572.75" y1="500.417" y2="500.417"/><line style="stroke:#181818;stroke-width:1.0;" x1="572.75" x2="572.75" y1="500.417" y2="532.417"/><polygon fill="#181818" points="568.75,522.417,572.75,532.417,576.75,522.417,572.75,526.417" style="stroke:#181818;stroke-width:1.0;"/><line style="stroke:#181818;stroke-width:1.0;" x1="572.75" x2="572.75" y1="566.3857" y2="670.292"/><line style="stroke:#181818;stroke-width:1.0;" x1="572.75" x2="901.75" y1="670.292" y2="670.292"/><polygon fill="#181818" points="891.75,666.292,901.75,670.292,891.75,674.292,895.75,670.292" style="stroke:#181818;stroke-width:1.0;"/><line style="stroke:#181818;stroke-width:1.0;" x1="751.75" x2="751.75" y1="648.292" y2="652.292"/><line style="stroke:#181818;stroke-width:1.0;" x1="751.75" x2="943.75" y1="652.292" y2="652.292"/><line style="stroke:#181818;stroke-width:1.0;" x1="943.75" x2="943.75" y1="652.292" y2="670.292"/><line style="stroke:#181818;stroke-width:1.0;" x1="943.75" x2="925.75" y1="670.292" y2="670.292"/><polygon fill="#181818" points="935.75,666.292,925.75,670.292,935.75,674.292,931.75,670.292" style="stroke:#181818;stroke-width:1.0;"/><line style="stroke:#181818;stroke-width:1.0;" x1="512.5" x2="93" y1="294.5107" y2="294.5107"/><line style="stroke:#181818;stroke-width:1.0;" x1="93" x2="93" y1="294.5107" y2="326.5107"/><polygon fill="#181818" points="89,316.5107,93,326.5107,97,316.5107,93,320.5107" style="stroke:#181818;stroke-width:1.0;"/><line style="stroke:#181818;stroke-width:1.0;" x1="536.5" x2="548.5" y1="294.5107" y2="294.5107"/><line style="stroke:#181818;stroke-width:1.0;" x1="548.5" x2="548.5" y1="294.5107" y2="312.5107"/><line style="stroke:#181818;stroke-width:1.0;" x1="548.5" x2="368.5" y1="312.5107" y2="312.5107"/><line style="stroke:#181818;stroke-width:1.0;" x1="368.5" x2="368.5" y1="312.5107" y2="326.5107"/><polygon fill="#181818" points="364.5,316.5107,368.5,326.5107,372.5,316.5107,368.5,320.5107" style="stroke:#181818;stroke-width:1.0;"/><text fill="#000000" font-family="sans-serif" font-size="18" lengthAdjust="spacing" textLength="58" x="202.25" y="29.4531">Admin</text><text fill="#000000" font-family="sans-serif" font-size="18" lengthAdjust="spacing" textLength="69" x="604.625" y="29.4531">System</text><text fill="#000000" font-family="sans-serif" font-size="18" lengthAdjust="spacing" textLength="88" x="897.5" y="29.4531">Database</text><!--SRC=[VL7BZi8m3BpdAwoUu1VQ4u8zx6qb94wzf8aBrgOE92u2gH-_QTejx4Fa44NsU3mp6JQs8nvK51r4bMytDBqW51iZT2Mvrxn77Sm9Tjxq7R8KbIhtwD08sBbKCoFQ23QLXVXOgM5_ZuBTeCeTnRFJTp2UMmgT5l9SSuSnwYCs_bP1FefQMAr1JiYmsceswDPgR0opll5TRXsPJoYcVW5DB-AvoZragz15JDFJfXVZ4-3d_A8u8p-2DqdYuWW2NdgCCcDtMdIZ8yxeWtPaTKejNNg2FDjvv-i8oDr9rP-5cUOxAWp11s0lr9B9WSqMixt3VroBe9JaWsyK_opgzThOcz5p-iodpJLhjk0e2lXs-V3uu4kvK_ixbIZ-_0K0]--></g></svg>