<?xml version="1.0" encoding="us-ascii" standalone="no"?><svg xmlns="http://www.w3.org/2000/svg" xmlns:xlink="http://www.w3.org/1999/xlink" contentStyleType="text/css" height="393px" preserveAspectRatio="none" style="width:660px;height:393px;background:#FFFFFF;" version="1.1" viewBox="0 0 660 393" width="660px" zoomAndPan="magnify"><defs/><g><rect fill="none" height="20.9531" style="stroke:none;stroke-width:1.0;" width="627" x="15" y="12.7451"/><rect fill="#F1F1F1" height="33.9688" rx="12.5" ry="12.5" style="stroke:#181818;stroke-width:0.5;" width="117" x="147.25" y="146.6357"/><text fill="#000000" font-family="sans-serif" font-size="12" lengthAdjust="spacing" textLength="97" x="157.25" y="167.7744">Choose function</text><polygon fill="#F1F1F1" points="61.5,200.6045,61.5,200.6045,73.5,212.6045,61.5,224.6045,61.5,224.6045,49.5,212.6045,61.5,200.6045" style="stroke:#181818;stroke-width:0.5;"/><text fill="#000000" font-family="sans-serif" font-size="11" lengthAdjust="spacing" textLength="39" x="65.5" y="234.8149">Create</text><rect fill="#F1F1F1" height="61.9063" rx="12.5" ry="12.5" style="stroke:#181818;stroke-width:0.5;" width="81" x="21" y="257.4092"/><text fill="#000000" font-family="sans-serif" font-size="12" lengthAdjust="spacing" textLength="43" x="31" y="278.5479">Activity</text><text fill="#000000" font-family="sans-serif" font-size="12" lengthAdjust="spacing" textLength="40" x="31" y="292.5166">Create</text><text fill="#000000" font-family="sans-serif" font-size="12" lengthAdjust="spacing" textLength="61" x="31" y="306.4854">Document</text><polygon fill="#F1F1F1" points="155,200.6045,155,200.6045,167,212.6045,155,224.6045,155,224.6045,143,212.6045,155,200.6045" style="stroke:#181818;stroke-width:0.5;"/><text fill="#000000" font-family="sans-serif" font-size="11" lengthAdjust="spacing" textLength="41" x="159" y="234.8149">Update</text><rect fill="#F1F1F1" height="61.9063" rx="12.5" ry="12.5" style="stroke:#181818;stroke-width:0.5;" width="81" x="114.5" y="257.4092"/><text fill="#000000" font-family="sans-serif" font-size="12" lengthAdjust="spacing" textLength="43" x="124.5" y="278.5479">Activity</text><text fill="#000000" font-family="sans-serif" font-size="12" lengthAdjust="spacing" textLength="44" x="124.5" y="292.5166">Update</text><text fill="#000000" font-family="sans-serif" font-size="12" lengthAdjust="spacing" textLength="61" x="124.5" y="306.4854">Document</text><polygon fill="#F1F1F1" points="256.5,200.6045,256.5,200.6045,268.5,212.6045,256.5,224.6045,256.5,224.6045,244.5,212.6045,256.5,200.6045" style="stroke:#181818;stroke-width:0.5;"/><text fill="#000000" font-family="sans-serif" font-size="11" lengthAdjust="spacing" textLength="40" x="260.5" y="234.8149">Delete</text><text fill="#000000" font-family="sans-serif" font-size="11" lengthAdjust="spacing" textLength="40" x="268.5" y="210.0103">Search</text><rect fill="#F1F1F1" height="61.9063" rx="12.5" ry="12.5" style="stroke:#181818;stroke-width:0.5;" width="81" x="216" y="257.4092"/><text fill="#000000" font-family="sans-serif" font-size="12" lengthAdjust="spacing" textLength="43" x="226" y="278.5479">Activity</text><text fill="#000000" font-family="sans-serif" font-size="12" lengthAdjust="spacing" textLength="40" x="226" y="292.5166">Delete</text><text fill="#000000" font-family="sans-serif" font-size="12" lengthAdjust="spacing" textLength="61" x="226" y="306.4854">Document</text><rect fill="#F1F1F1" height="61.9063" rx="12.5" ry="12.5" style="stroke:#181818;stroke-width:0.5;" width="81" x="317" y="254.0068"/><text fill="#000000" font-family="sans-serif" font-size="12" lengthAdjust="spacing" textLength="43" x="327" y="275.1455">Activity</text><text fill="#000000" font-family="sans-serif" font-size="12" lengthAdjust="spacing" textLength="42" x="327" y="289.1143">Search</text><text fill="#000000" font-family="sans-serif" font-size="12" lengthAdjust="spacing" textLength="61" x="327" y="303.083">Document</text><line style="stroke:#000000;stroke-width:1.5;" x1="15" x2="15" y1="12.7451" y2="381.3154"/><ellipse cx="473" cy="48.6982" fill="#222222" rx="10" ry="10" style="stroke:#222222;stroke-width:1.0;"/><rect fill="#F1F1F1" height="47.9375" rx="12.5" ry="12.5" style="stroke:#181818;stroke-width:0.5;" width="130" x="408" y="78.6982"/><text fill="#000000" font-family="sans-serif" font-size="12" lengthAdjust="spacing" textLength="108" x="418" y="99.8369">Display document</text><text fill="#000000" font-family="sans-serif" font-size="12" lengthAdjust="spacing" textLength="110" x="418" y="113.8057">management view</text><ellipse cx="473" cy="370.3154" fill="none" rx="11" ry="11" style="stroke:#222222;stroke-width:1.0;"/><ellipse cx="473" cy="370.3154" fill="#222222" rx="6" ry="6" style="stroke:#222222;stroke-width:1.0;"/><line style="stroke:#000000;stroke-width:1.5;" x1="402" x2="402" y1="12.7451" y2="381.3154"/><line style="stroke:#000000;stroke-width:1.5;" x1="542" x2="542" y1="12.7451" y2="381.3154"/><line style="stroke:#000000;stroke-width:1.5;" x1="640" x2="640" y1="12.7451" y2="381.3154"/><line style="stroke:#181818;stroke-width:1.0;" x1="61.5" x2="61.5" y1="224.6045" y2="257.4092"/><polygon fill="#181818" points="57.5,247.4092,61.5,257.4092,65.5,247.4092,61.5,251.4092" style="stroke:#181818;stroke-width:1.0;"/><line style="stroke:#181818;stroke-width:1.0;" x1="61.5" x2="61.5" y1="319.3154" y2="339.3154"/><polygon fill="#181818" points="57.5,329.3154,61.5,339.3154,65.5,329.3154,61.5,333.3154" style="stroke:#181818;stroke-width:1.0;"/><line style="stroke:#181818;stroke-width:1.0;" x1="155" x2="155" y1="224.6045" y2="257.4092"/><polygon fill="#181818" points="151,247.4092,155,257.4092,159,247.4092,155,251.4092" style="stroke:#181818;stroke-width:1.0;"/><line style="stroke:#181818;stroke-width:1.0;" x1="155" x2="155" y1="319.3154" y2="339.3154"/><polygon fill="#181818" points="151,329.3154,155,339.3154,159,329.3154,155,333.3154" style="stroke:#181818;stroke-width:1.0;"/><line style="stroke:#181818;stroke-width:1.0;" x1="256.5" x2="256.5" y1="224.6045" y2="257.4092"/><polygon fill="#181818" points="252.5,247.4092,256.5,257.4092,260.5,247.4092,256.5,251.4092" style="stroke:#181818;stroke-width:1.0;"/><line style="stroke:#181818;stroke-width:1.0;" x1="256.5" x2="256.5" y1="319.3154" y2="339.3154"/><polygon fill="#181818" points="252.5,329.3154,256.5,339.3154,260.5,329.3154,256.5,333.3154" style="stroke:#181818;stroke-width:1.0;"/><line style="stroke:#181818;stroke-width:1.0;" x1="73.5" x2="143" y1="212.6045" y2="212.6045"/><polygon fill="#181818" points="133,208.6045,143,212.6045,133,216.6045,137,212.6045" style="stroke:#181818;stroke-width:1.0;"/><line style="stroke:#181818;stroke-width:1.0;" x1="167" x2="244.5" y1="212.6045" y2="212.6045"/><polygon fill="#181818" points="234.5,208.6045,244.5,212.6045,234.5,216.6045,238.5,212.6045" style="stroke:#181818;stroke-width:1.0;"/><line style="stroke:#181818;stroke-width:1.0;" x1="205.75" x2="205.75" y1="180.6045" y2="185.6045"/><line style="stroke:#181818;stroke-width:1.0;" x1="205.75" x2="61.5" y1="185.6045" y2="185.6045"/><line style="stroke:#181818;stroke-width:1.0;" x1="61.5" x2="61.5" y1="185.6045" y2="200.6045"/><polygon fill="#181818" points="57.5,190.6045,61.5,200.6045,65.5,190.6045,61.5,194.6045" style="stroke:#181818;stroke-width:1.0;"/><line style="stroke:#181818;stroke-width:1.0;" x1="268.5" x2="357.5" y1="212.6045" y2="212.6045"/><line style="stroke:#181818;stroke-width:1.0;" x1="357.5" x2="357.5" y1="212.6045" y2="254.0068"/><polygon fill="#181818" points="353.5,244.0068,357.5,254.0068,361.5,244.0068,357.5,248.0068" style="stroke:#181818;stroke-width:1.0;"/><line style="stroke:#181818;stroke-width:1.0;" x1="357.5" x2="357.5" y1="315.9131" y2="339.3154"/><polygon fill="#181818" points="353.5,329.3154,357.5,339.3154,361.5,329.3154,357.5,333.3154" style="stroke:#181818;stroke-width:1.0;"/><line style="stroke:#181818;stroke-width:1.0;" x1="61.5" x2="357.5" y1="339.3154" y2="339.3154"/><line style="stroke:#181818;stroke-width:1.0;" x1="473" x2="473" y1="58.6982" y2="78.6982"/><polygon fill="#181818" points="469,68.6982,473,78.6982,477,68.6982,473,72.6982" style="stroke:#181818;stroke-width:1.0;"/><line style="stroke:#181818;stroke-width:1.0;" x1="473" x2="473" y1="126.6357" y2="131.6357"/><line style="stroke:#181818;stroke-width:1.0;" x1="473" x2="205.75" y1="131.6357" y2="131.6357"/><line style="stroke:#181818;stroke-width:1.0;" x1="205.75" x2="205.75" y1="131.6357" y2="146.6357"/><polygon fill="#181818" points="201.75,136.6357,205.75,146.6357,209.75,136.6357,205.75,140.6357" style="stroke:#181818;stroke-width:1.0;"/><line style="stroke:#181818;stroke-width:1.0;" x1="205.75" x2="205.75" y1="339.3154" y2="344.3154"/><line style="stroke:#181818;stroke-width:1.0;" x1="205.75" x2="473" y1="344.3154" y2="344.3154"/><line style="stroke:#181818;stroke-width:1.0;" x1="473" x2="473" y1="344.3154" y2="359.3154"/><polygon fill="#181818" points="469,349.3154,473,359.3154,477,349.3154,473,353.3154" style="stroke:#181818;stroke-width:1.0;"/><text fill="#000000" font-family="sans-serif" font-size="18" lengthAdjust="spacing" textLength="58" x="179.5" y="29.4531">Admin</text><text fill="#000000" font-family="sans-serif" font-size="18" lengthAdjust="spacing" textLength="69" x="437.5" y="29.4531">System</text><text fill="#000000" font-family="sans-serif" font-size="18" lengthAdjust="spacing" textLength="88" x="547" y="29.4531">Database</text><!--SRC=[VP0n3eCm34NtdC8ZN04cH6w0kh6un9H8n474j4BAuGiA0nIfc_NytxVaM1bdEQhOh478ROD6mIS6Eh4WE8igj0tJY2iOtosEM5fsoFYYVOQtfK-fub5Nr8FtWQ1Vk1FhkLIsXom76OWXgsT2eLm15DMsVbjPMqwmPNsqbw1e37Js7fFPFRYAYVuLDOrqEvZWpOEi8PoxuIUTu3NDnlRdB_df2m00]--></g></svg>