<?xml version="1.0" encoding="us-ascii" standalone="no"?><svg xmlns="http://www.w3.org/2000/svg" xmlns:xlink="http://www.w3.org/1999/xlink" contentStyleType="text/css" height="1036px" preserveAspectRatio="none" style="width:861px;height:1036px;background:#FFFFFF;" version="1.1" viewBox="0 0 861 1036" width="861px" zoomAndPan="magnify"><defs/><g><rect fill="none" height="20.9531" style="stroke:none;stroke-width:1.0;" width="828.5" x="15" y="12.7451"/><ellipse cx="88" cy="48.6982" fill="#222222" rx="10" ry="10" style="stroke:#222222;stroke-width:1.0;"/><rect fill="#F1F1F1" height="47.9375" rx="12.5" ry="12.5" style="stroke:#181818;stroke-width:0.5;" width="132" x="22" y="78.6982"/><text fill="#000000" font-family="sans-serif" font-size="12" lengthAdjust="spacing" textLength="100" x="32" y="99.8369">Execute "Activity</text><text fill="#000000" font-family="sans-serif" font-size="12" lengthAdjust="spacing" textLength="112" x="32" y="113.8057">Search Document"</text><rect fill="#F1F1F1" height="47.9375" rx="12.5" ry="12.5" style="stroke:#181818;stroke-width:0.5;" width="122" x="27" y="146.6357"/><text fill="#000000" font-family="sans-serif" font-size="12" lengthAdjust="spacing" textLength="102" x="37" y="167.7744">Select document</text><text fill="#000000" font-family="sans-serif" font-size="12" lengthAdjust="spacing" textLength="94" x="37" y="181.7432">needs updating</text><rect fill="#F1F1F1" height="47.9375" rx="12.5" ry="12.5" style="stroke:#181818;stroke-width:0.5;" width="115" x="30.5" y="434.4482"/><text fill="#000000" font-family="sans-serif" font-size="12" lengthAdjust="spacing" textLength="95" x="40.5" y="455.5869">Enter document</text><text fill="#000000" font-family="sans-serif" font-size="12" lengthAdjust="spacing" textLength="67" x="40.5" y="469.5557">information</text><polygon fill="#F1F1F1" points="88,390.4482,100,402.4482,88,414.4482,76,402.4482,88,390.4482" style="stroke:#181818;stroke-width:0.5;"/><rect fill="#F1F1F1" height="47.9375" rx="12.5" ry="12.5" style="stroke:#181818;stroke-width:0.5;" width="134" x="21" y="627.0649"/><text fill="#000000" font-family="sans-serif" font-size="12" lengthAdjust="spacing" textLength="114" x="31" y="648.2036">Click button "Save"</text><text fill="#000000" font-family="sans-serif" font-size="12" lengthAdjust="spacing" textLength="61" x="31" y="662.1724">to confirm</text><line style="stroke:#000000;stroke-width:1.5;" x1="15" x2="15" y1="12.7451" y2="1024.8462"/><rect fill="#F1F1F1" height="33.9688" rx="12.5" ry="12.5" style="stroke:#181818;stroke-width:0.5;" width="233" x="231.25" y="214.5732"/><text fill="#000000" font-family="sans-serif" font-size="12" lengthAdjust="spacing" textLength="213" x="241.25" y="235.7119">Get selected document information</text><rect fill="#F1F1F1" height="47.9375" rx="12.5" ry="12.5" style="stroke:#181818;stroke-width:0.5;" width="128" x="283.75" y="322.5107"/><text fill="#000000" font-family="sans-serif" font-size="12" lengthAdjust="spacing" textLength="108" x="293.75" y="343.6494">Display document</text><text fill="#000000" font-family="sans-serif" font-size="12" lengthAdjust="spacing" textLength="99" x="293.75" y="357.6182">information view</text><rect fill="#F1F1F1" height="33.9688" rx="12.5" ry="12.5" style="stroke:#181818;stroke-width:0.5;" width="141" x="277.25" y="517.3857"/><text fill="#000000" font-family="sans-serif" font-size="12" lengthAdjust="spacing" textLength="121" x="287.25" y="538.5244">Validate data format</text><polygon fill="#F1F1F1" points="347.75,571.3545,347.75,571.3545,359.75,583.3545,347.75,595.3545,347.75,595.3545,335.75,583.3545,347.75,571.3545" style="stroke:#181818;stroke-width:0.5;"/><text fill="#000000" font-family="sans-serif" font-size="11" lengthAdjust="spacing" textLength="57" x="351.75" y="605.5649">Valid data</text><text fill="#000000" font-family="sans-serif" font-size="11" lengthAdjust="spacing" textLength="66" x="359.75" y="580.7603">Invalid data</text><rect fill="#F1F1F1" height="33.9688" rx="12.5" ry="12.5" style="stroke:#181818;stroke-width:0.5;" width="168" x="442.25" y="475.917"/><text fill="#000000" font-family="sans-serif" font-size="12" lengthAdjust="spacing" textLength="148" x="452.25" y="497.0557">Display error notification</text><rect fill="#F1F1F1" height="33.9688" rx="12.5" ry="12.5" style="stroke:#181818;stroke-width:0.5;" width="175" x="260.25" y="695.0024"/><text fill="#000000" font-family="sans-serif" font-size="12" lengthAdjust="spacing" textLength="155" x="270.25" y="716.1411">Process updating request</text><rect fill="#F1F1F1" height="33.9688" rx="12.5" ry="12.5" style="stroke:#181818;stroke-width:0.5;" width="168" x="165" y="846.9399"/><text fill="#000000" font-family="sans-serif" font-size="12" lengthAdjust="spacing" textLength="148" x="175" y="868.0786">Display error notification</text><rect fill="#F1F1F1" height="47.9375" rx="12.5" ry="12.5" style="stroke:#181818;stroke-width:0.5;" width="187" x="353" y="900.9087"/><text fill="#000000" font-family="sans-serif" font-size="12" lengthAdjust="spacing" textLength="167" x="363" y="922.0474">Display success notification</text><text fill="#000000" font-family="sans-serif" font-size="12" lengthAdjust="spacing" textLength="130" x="363" y="936.0161">and list of documents</text><line style="stroke:#000000;stroke-width:1.5;" x1="159" x2="159" y1="12.7451" y2="1024.8462"/><rect fill="#F1F1F1" height="33.9688" rx="12.5" ry="12.5" style="stroke:#181818;stroke-width:0.5;" width="87" x="653.75" y="268.542"/><text fill="#000000" font-family="sans-serif" font-size="12" lengthAdjust="spacing" textLength="67" x="663.75" y="289.6807">Query data</text><rect fill="#F1F1F1" height="33.9688" rx="12.5" ry="12.5" style="stroke:#181818;stroke-width:0.5;" width="98" x="648.25" y="748.9712"/><text fill="#000000" font-family="sans-serif" font-size="12" lengthAdjust="spacing" textLength="78" x="658.25" y="770.1099">Validate data</text><polygon fill="#F1F1F1" points="697.25,802.9399,697.25,802.9399,709.25,814.9399,697.25,826.9399,697.25,826.9399,685.25,814.9399,697.25,802.9399" style="stroke:#181818;stroke-width:0.5;"/><text fill="#000000" font-family="sans-serif" font-size="11" lengthAdjust="spacing" textLength="66" x="619.25" y="812.3457">Invalid data</text><text fill="#000000" font-family="sans-serif" font-size="11" lengthAdjust="spacing" textLength="57" x="709.25" y="812.3457">Valid data</text><rect fill="#F1F1F1" height="33.9688" rx="12.5" ry="12.5" style="stroke:#181818;stroke-width:0.5;" width="83" x="754.5" y="846.9399"/><text fill="#000000" font-family="sans-serif" font-size="12" lengthAdjust="spacing" textLength="63" x="764.5" y="868.0786">Store data</text><polygon fill="#F1F1F1" points="697.25,958.8462,709.25,970.8462,697.25,982.8462,685.25,970.8462,697.25,958.8462" style="stroke:#181818;stroke-width:0.5;"/><ellipse cx="697.25" cy="1013.8462" fill="none" rx="11" ry="11" style="stroke:#222222;stroke-width:1.0;"/><ellipse cx="697.25" cy="1013.8462" fill="#222222" rx="6" ry="6" style="stroke:#222222;stroke-width:1.0;"/><line style="stroke:#000000;stroke-width:1.5;" x1="614.25" x2="614.25" y1="12.7451" y2="1024.8462"/><line style="stroke:#000000;stroke-width:1.5;" x1="841.5" x2="841.5" y1="12.7451" y2="1024.8462"/><line style="stroke:#181818;stroke-width:1.0;" x1="88" x2="88" y1="58.6982" y2="78.6982"/><polygon fill="#181818" points="84,68.6982,88,78.6982,92,68.6982,88,72.6982" style="stroke:#181818;stroke-width:1.0;"/><line style="stroke:#181818;stroke-width:1.0;" x1="88" x2="88" y1="126.6357" y2="146.6357"/><polygon fill="#181818" points="84,136.6357,88,146.6357,92,136.6357,88,140.6357" style="stroke:#181818;stroke-width:1.0;"/><line style="stroke:#181818;stroke-width:1.0;" x1="88" x2="88" y1="414.4482" y2="434.4482"/><polygon fill="#181818" points="84,424.4482,88,434.4482,92,424.4482,88,428.4482" style="stroke:#181818;stroke-width:1.0;"/><line style="stroke:#181818;stroke-width:1.0;" x1="359.75" x2="526.25" y1="583.3545" y2="583.3545"/><line style="stroke:#181818;stroke-width:1.0;" x1="526.25" x2="526.25" y1="509.8857" y2="583.3545"/><polygon fill="#181818" points="522.25,519.8857,526.25,509.8857,530.25,519.8857,526.25,515.8857" style="stroke:#181818;stroke-width:1.0;"/><line style="stroke:#181818;stroke-width:1.0;" x1="347.75" x2="347.75" y1="551.3545" y2="571.3545"/><polygon fill="#181818" points="343.75,561.3545,347.75,571.3545,351.75,561.3545,347.75,565.3545" style="stroke:#181818;stroke-width:1.0;"/><line style="stroke:#181818;stroke-width:1.0;" x1="709.25" x2="796" y1="814.9399" y2="814.9399"/><line style="stroke:#181818;stroke-width:1.0;" x1="796" x2="796" y1="814.9399" y2="846.9399"/><polygon fill="#181818" points="792,836.9399,796,846.9399,800,836.9399,796,840.9399" style="stroke:#181818;stroke-width:1.0;"/><line style="stroke:#181818;stroke-width:1.0;" x1="697.25" x2="697.25" y1="782.9399" y2="802.9399"/><polygon fill="#181818" points="693.25,792.9399,697.25,802.9399,701.25,792.9399,697.25,796.9399" style="stroke:#181818;stroke-width:1.0;"/><line style="stroke:#181818;stroke-width:1.0;" x1="697.25" x2="697.25" y1="982.8462" y2="1002.8462"/><polygon fill="#181818" points="693.25,992.8462,697.25,1002.8462,701.25,992.8462,697.25,996.8462" style="stroke:#181818;stroke-width:1.0;"/><line style="stroke:#181818;stroke-width:1.0;" x1="88" x2="88" y1="194.5732" y2="199.5732"/><line style="stroke:#181818;stroke-width:1.0;" x1="88" x2="347.75" y1="199.5732" y2="199.5732"/><line style="stroke:#181818;stroke-width:1.0;" x1="347.75" x2="347.75" y1="199.5732" y2="214.5732"/><polygon fill="#181818" points="343.75,204.5732,347.75,214.5732,351.75,204.5732,347.75,208.5732" style="stroke:#181818;stroke-width:1.0;"/><line style="stroke:#181818;stroke-width:1.0;" x1="347.75" x2="347.75" y1="248.542" y2="253.542"/><line style="stroke:#181818;stroke-width:1.0;" x1="347.75" x2="697.25" y1="253.542" y2="253.542"/><line style="stroke:#181818;stroke-width:1.0;" x1="697.25" x2="697.25" y1="253.542" y2="268.542"/><polygon fill="#181818" points="693.25,258.542,697.25,268.542,701.25,258.542,697.25,262.542" style="stroke:#181818;stroke-width:1.0;"/><line style="stroke:#181818;stroke-width:1.0;" x1="697.25" x2="697.25" y1="302.5107" y2="307.5107"/><line style="stroke:#181818;stroke-width:1.0;" x1="697.25" x2="347.75" y1="307.5107" y2="307.5107"/><line style="stroke:#181818;stroke-width:1.0;" x1="347.75" x2="347.75" y1="307.5107" y2="322.5107"/><polygon fill="#181818" points="343.75,312.5107,347.75,322.5107,351.75,312.5107,347.75,316.5107" style="stroke:#181818;stroke-width:1.0;"/><line style="stroke:#181818;stroke-width:1.0;" x1="88" x2="88" y1="482.3857" y2="499.8857"/><line style="stroke:#181818;stroke-width:1.0;" x1="88" x2="347.75" y1="499.8857" y2="499.8857"/><line style="stroke:#181818;stroke-width:1.0;" x1="347.75" x2="347.75" y1="499.8857" y2="517.3857"/><polygon fill="#181818" points="343.75,507.3857,347.75,517.3857,351.75,507.3857,347.75,511.3857" style="stroke:#181818;stroke-width:1.0;"/><line style="stroke:#181818;stroke-width:1.0;" x1="526.25" x2="526.25" y1="402.4482" y2="475.917"/><line style="stroke:#181818;stroke-width:1.0;" x1="526.25" x2="100" y1="402.4482" y2="402.4482"/><polygon fill="#181818" points="110,398.4482,100,402.4482,110,406.4482,106,402.4482" style="stroke:#181818;stroke-width:1.0;"/><line style="stroke:#181818;stroke-width:1.0;" x1="347.75" x2="347.75" y1="370.4482" y2="375.4482"/><line style="stroke:#181818;stroke-width:1.0;" x1="347.75" x2="88" y1="375.4482" y2="375.4482"/><line style="stroke:#181818;stroke-width:1.0;" x1="88" x2="88" y1="375.4482" y2="390.4482"/><polygon fill="#181818" points="84,380.4482,88,390.4482,92,380.4482,88,384.4482" style="stroke:#181818;stroke-width:1.0;"/><line style="stroke:#181818;stroke-width:1.0;" x1="347.75" x2="347.75" y1="595.3545" y2="612.0649"/><line style="stroke:#181818;stroke-width:1.0;" x1="347.75" x2="88" y1="612.0649" y2="612.0649"/><line style="stroke:#181818;stroke-width:1.0;" x1="88" x2="88" y1="612.0649" y2="627.0649"/><polygon fill="#181818" points="84,617.0649,88,627.0649,92,617.0649,88,621.0649" style="stroke:#181818;stroke-width:1.0;"/><line style="stroke:#181818;stroke-width:1.0;" x1="88" x2="88" y1="675.0024" y2="680.0024"/><line style="stroke:#181818;stroke-width:1.0;" x1="88" x2="347.75" y1="680.0024" y2="680.0024"/><line style="stroke:#181818;stroke-width:1.0;" x1="347.75" x2="347.75" y1="680.0024" y2="695.0024"/><polygon fill="#181818" points="343.75,685.0024,347.75,695.0024,351.75,685.0024,347.75,689.0024" style="stroke:#181818;stroke-width:1.0;"/><line style="stroke:#181818;stroke-width:1.0;" x1="347.75" x2="347.75" y1="728.9712" y2="733.9712"/><line style="stroke:#181818;stroke-width:1.0;" x1="347.75" x2="697.25" y1="733.9712" y2="733.9712"/><line style="stroke:#181818;stroke-width:1.0;" x1="697.25" x2="697.25" y1="733.9712" y2="748.9712"/><polygon fill="#181818" points="693.25,738.9712,697.25,748.9712,701.25,738.9712,697.25,742.9712" style="stroke:#181818;stroke-width:1.0;"/><line style="stroke:#181818;stroke-width:1.0;" x1="796" x2="796" y1="880.9087" y2="885.9087"/><line style="stroke:#181818;stroke-width:1.0;" x1="796" x2="446.5" y1="885.9087" y2="885.9087"/><line style="stroke:#181818;stroke-width:1.0;" x1="446.5" x2="446.5" y1="885.9087" y2="900.9087"/><polygon fill="#181818" points="442.5,890.9087,446.5,900.9087,450.5,890.9087,446.5,894.9087" style="stroke:#181818;stroke-width:1.0;"/><line style="stroke:#181818;stroke-width:1.0;" x1="685.25" x2="249" y1="814.9399" y2="814.9399"/><line style="stroke:#181818;stroke-width:1.0;" x1="249" x2="249" y1="814.9399" y2="846.9399"/><polygon fill="#181818" points="245,836.9399,249,846.9399,253,836.9399,249,840.9399" style="stroke:#181818;stroke-width:1.0;"/><line style="stroke:#181818;stroke-width:1.0;" x1="249" x2="249" y1="880.9087" y2="970.8462"/><line style="stroke:#181818;stroke-width:1.0;" x1="249" x2="685.25" y1="970.8462" y2="970.8462"/><polygon fill="#181818" points="675.25,966.8462,685.25,970.8462,675.25,974.8462,679.25,970.8462" style="stroke:#181818;stroke-width:1.0;"/><line style="stroke:#181818;stroke-width:1.0;" x1="446.5" x2="446.5" y1="948.8462" y2="952.8462"/><line style="stroke:#181818;stroke-width:1.0;" x1="446.5" x2="727.25" y1="952.8462" y2="952.8462"/><line style="stroke:#181818;stroke-width:1.0;" x1="727.25" x2="727.25" y1="952.8462" y2="970.8462"/><line style="stroke:#181818;stroke-width:1.0;" x1="727.25" x2="709.25" y1="970.8462" y2="970.8462"/><polygon fill="#181818" points="719.25,966.8462,709.25,970.8462,719.25,974.8462,715.25,970.8462" style="stroke:#181818;stroke-width:1.0;"/><text fill="#000000" font-family="sans-serif" font-size="18" lengthAdjust="spacing" textLength="58" x="58" y="29.4531">Admin</text><text fill="#000000" font-family="sans-serif" font-size="18" lengthAdjust="spacing" textLength="69" x="352.125" y="29.4531">System</text><text fill="#000000" font-family="sans-serif" font-size="18" lengthAdjust="spacing" textLength="88" x="683.875" y="29.4531">Database</text><!--SRC=[VP5BReCm48RtFiM8LN85M4LDL7NN2YahDeuzDAF0cDe3AHA7Bwy6caJroh8__uznjxCbSQU2Q2ygFdoZgGKXsXcXXgJDE4NjpHdspjGbiaI9YbCiq0ZO-IXZHhG1wifg8VvCL9UsGR3iLFoA0c74qTuU077kVDd3ZdjuhqMVTC0ELFnHes-Xrz5hbJs5gj3jod6b00tXDL4UAzIYe5_TN6hOnmSMzCzV9XFzQpFYHrrGRuzZ1fZGYJjfSxbgR-4M1xrt7jW9vMHcnIa6NCzK86osG04sRzmCggFaTk1XSrmE7YE_56GkSAf5-dPHgXkCCXO7nd5EldmM-zqxWs7v0_3uLMEOeoyZVb9oGYWVqieP-IxlUFjWEChyDuS1m2BWOzM_WG0MlLISNsVwtpNKPgoyzirOiuM2We3BRvyU5ZbaI_dzJ8AuwWS0]--></g></svg>