<?xml version="1.0" encoding="us-ascii" standalone="no"?><svg xmlns="http://www.w3.org/2000/svg" xmlns:xlink="http://www.w3.org/1999/xlink" contentStyleType="text/css" height="453px" preserveAspectRatio="none" style="width:476px;height:453px;background:#FFFFFF;" version="1.1" viewBox="0 0 476 453" width="476px" zoomAndPan="magnify"><defs/><g><rect fill="none" height="20.9531" style="stroke:none;stroke-width:1.0;" width="443" x="15" y="12.7451"/><rect fill="#F1F1F1" height="33.9688" rx="12.5" ry="12.5" style="stroke:#181818;stroke-width:0.5;" width="238" x="21" y="146.6357"/><text fill="#000000" font-family="sans-serif" font-size="12" lengthAdjust="spacing" textLength="218" x="31" y="167.7744">Select child want to view sleep time</text><rect fill="#F1F1F1" height="33.9688" rx="12.5" ry="12.5" style="stroke:#181818;stroke-width:0.5;" width="117" x="81.5" y="200.6045"/><text fill="#000000" font-family="sans-serif" font-size="12" lengthAdjust="spacing" textLength="97" x="91.5" y="221.7432">Choose function</text><polygon fill="#F1F1F1" points="140,259.2769,140,259.2769,152,271.2769,140,283.2769,140,283.2769,128,271.2769,140,259.2769" style="stroke:#181818;stroke-width:0.5;"/><text fill="#000000" font-family="sans-serif" font-size="11" lengthAdjust="spacing" textLength="41" x="87" y="268.6826">Update</text><text fill="#000000" font-family="sans-serif" font-size="11" lengthAdjust="spacing" textLength="66" x="152" y="255.8779">View Sleep</text><text fill="#000000" font-family="sans-serif" font-size="11" lengthAdjust="spacing" textLength="72" x="152" y="268.6826">Time History</text><rect fill="#F1F1F1" height="75.875" rx="12.5" ry="12.5" style="stroke:#181818;stroke-width:0.5;" width="64" x="58" y="293.2769"/><text fill="#000000" font-family="sans-serif" font-size="12" lengthAdjust="spacing" textLength="43" x="68" y="314.4155">Activity</text><text fill="#000000" font-family="sans-serif" font-size="12" lengthAdjust="spacing" textLength="44" x="68" y="328.3843">Update</text><text fill="#000000" font-family="sans-serif" font-size="12" lengthAdjust="spacing" textLength="35" x="68" y="342.353">Sleep</text><text fill="#000000" font-family="sans-serif" font-size="12" lengthAdjust="spacing" textLength="29" x="68" y="356.3218">Time</text><rect fill="#F1F1F1" height="61.9063" rx="12.5" ry="12.5" style="stroke:#181818;stroke-width:0.5;" width="96" x="142" y="293.2769"/><text fill="#000000" font-family="sans-serif" font-size="12" lengthAdjust="spacing" textLength="76" x="152" y="314.4155">Activity View</text><text fill="#000000" font-family="sans-serif" font-size="12" lengthAdjust="spacing" textLength="68" x="152" y="328.3843">Sleep Time</text><text fill="#000000" font-family="sans-serif" font-size="12" lengthAdjust="spacing" textLength="43" x="152" y="342.353">History</text><polygon fill="#F1F1F1" points="140,375.1519,152,387.1519,140,399.1519,128,387.1519,140,375.1519" style="stroke:#181818;stroke-width:0.5;"/><line style="stroke:#000000;stroke-width:1.5;" x1="15" x2="15" y1="12.7451" y2="441.1519"/><ellipse cx="311.5" cy="48.6982" fill="#222222" rx="10" ry="10" style="stroke:#222222;stroke-width:1.0;"/><rect fill="#F1F1F1" height="47.9375" rx="12.5" ry="12.5" style="stroke:#181818;stroke-width:0.5;" width="85" x="269" y="78.6982"/><text fill="#000000" font-family="sans-serif" font-size="12" lengthAdjust="spacing" textLength="65" x="279" y="99.8369">Display list</text><text fill="#000000" font-family="sans-serif" font-size="12" lengthAdjust="spacing" textLength="64" x="279" y="113.8057">of children</text><ellipse cx="311.5" cy="430.1519" fill="none" rx="11" ry="11" style="stroke:#222222;stroke-width:1.0;"/><ellipse cx="311.5" cy="430.1519" fill="#222222" rx="6" ry="6" style="stroke:#222222;stroke-width:1.0;"/><line style="stroke:#000000;stroke-width:1.5;" x1="263" x2="263" y1="12.7451" y2="441.1519"/><line style="stroke:#000000;stroke-width:1.5;" x1="358" x2="358" y1="12.7451" y2="441.1519"/><line style="stroke:#000000;stroke-width:1.5;" x1="456" x2="456" y1="12.7451" y2="441.1519"/><line style="stroke:#181818;stroke-width:1.0;" x1="140" x2="140" y1="180.6045" y2="200.6045"/><polygon fill="#181818" points="136,190.6045,140,200.6045,144,190.6045,140,194.6045" style="stroke:#181818;stroke-width:1.0;"/><line style="stroke:#181818;stroke-width:1.0;" x1="128" x2="90" y1="271.2769" y2="271.2769"/><line style="stroke:#181818;stroke-width:1.0;" x1="90" x2="90" y1="271.2769" y2="293.2769"/><polygon fill="#181818" points="86,283.2769,90,293.2769,94,283.2769,90,287.2769" style="stroke:#181818;stroke-width:1.0;"/><line style="stroke:#181818;stroke-width:1.0;" x1="152" x2="190" y1="271.2769" y2="271.2769"/><line style="stroke:#181818;stroke-width:1.0;" x1="190" x2="190" y1="271.2769" y2="293.2769"/><polygon fill="#181818" points="186,283.2769,190,293.2769,194,283.2769,190,287.2769" style="stroke:#181818;stroke-width:1.0;"/><line style="stroke:#181818;stroke-width:1.0;" x1="90" x2="90" y1="369.1519" y2="387.1519"/><line style="stroke:#181818;stroke-width:1.0;" x1="90" x2="128" y1="387.1519" y2="387.1519"/><polygon fill="#181818" points="118,383.1519,128,387.1519,118,391.1519,122,387.1519" style="stroke:#181818;stroke-width:1.0;"/><line style="stroke:#181818;stroke-width:1.0;" x1="190" x2="190" y1="355.1831" y2="387.1519"/><line style="stroke:#181818;stroke-width:1.0;" x1="190" x2="152" y1="387.1519" y2="387.1519"/><polygon fill="#181818" points="162,383.1519,152,387.1519,162,391.1519,158,387.1519" style="stroke:#181818;stroke-width:1.0;"/><line style="stroke:#181818;stroke-width:1.0;" x1="140" x2="140" y1="234.5732" y2="259.2769"/><polygon fill="#181818" points="136,249.2769,140,259.2769,144,249.2769,140,253.2769" style="stroke:#181818;stroke-width:1.0;"/><line style="stroke:#181818;stroke-width:1.0;" x1="311.5" x2="311.5" y1="58.6982" y2="78.6982"/><polygon fill="#181818" points="307.5,68.6982,311.5,78.6982,315.5,68.6982,311.5,72.6982" style="stroke:#181818;stroke-width:1.0;"/><line style="stroke:#181818;stroke-width:1.0;" x1="311.5" x2="311.5" y1="126.6357" y2="131.6357"/><line style="stroke:#181818;stroke-width:1.0;" x1="311.5" x2="140" y1="131.6357" y2="131.6357"/><line style="stroke:#181818;stroke-width:1.0;" x1="140" x2="140" y1="131.6357" y2="146.6357"/><polygon fill="#181818" points="136,136.6357,140,146.6357,144,136.6357,140,140.6357" style="stroke:#181818;stroke-width:1.0;"/><line style="stroke:#181818;stroke-width:1.0;" x1="140" x2="140" y1="399.1519" y2="404.1519"/><line style="stroke:#181818;stroke-width:1.0;" x1="140" x2="311.5" y1="404.1519" y2="404.1519"/><line style="stroke:#181818;stroke-width:1.0;" x1="311.5" x2="311.5" y1="404.1519" y2="419.1519"/><polygon fill="#181818" points="307.5,409.1519,311.5,419.1519,315.5,409.1519,311.5,413.1519" style="stroke:#181818;stroke-width:1.0;"/><text fill="#000000" font-family="sans-serif" font-size="18" lengthAdjust="spacing" textLength="62" x="108" y="29.4531">Parent</text><text fill="#000000" font-family="sans-serif" font-size="18" lengthAdjust="spacing" textLength="69" x="276" y="29.4531">System</text><text fill="#000000" font-family="sans-serif" font-size="18" lengthAdjust="spacing" textLength="88" x="363" y="29.4531">Database</text><!--SRC=[JOyn3i8m34NtdEAFxHNAX61WH2emPGcjgrfAdQene4ezF8aeKZRB__dPtgvk8T7DREqQbQPKd9swfujKzAAwHKrpvZXxjy9pL2jXG3UoxzFymMn_JzEIfqv_4JvE51hmPleWUg8PoXEL_6aC8HA6btJA8QbuG5L3Hn9KzxbtIhK1ccEAtwohbL_JIfjzLcvP24C-MQf7NbG4kAHRmxBMA1t8s2v0ngpiN1P9pqFvUvY_]--></g></svg>