<?xml version="1.0" encoding="us-ascii" standalone="no"?><svg xmlns="http://www.w3.org/2000/svg" xmlns:xlink="http://www.w3.org/1999/xlink" contentStyleType="text/css" height="978px" preserveAspectRatio="none" style="width:857px;height:978px;background:#FFFFFF;" version="1.1" viewBox="0 0 857 978" width="857px" zoomAndPan="magnify"><defs/><g><rect fill="none" height="20.9531" style="stroke:none;stroke-width:1.0;" width="824" x="15" y="12.7451"/><ellipse cx="88" cy="48.6982" fill="#222222" rx="10" ry="10" style="stroke:#222222;stroke-width:1.0;"/><polygon fill="#F1F1F1" points="88,78.6982,88,78.6982,100,90.6982,88,102.6982,88,102.6982,76,90.6982,88,78.6982" style="stroke:#181818;stroke-width:0.5;"/><text fill="#000000" font-family="sans-serif" font-size="11" lengthAdjust="spacing" textLength="53" x="23" y="88.104">First time</text><text fill="#000000" font-family="sans-serif" font-size="11" lengthAdjust="spacing" textLength="41" x="100" y="88.104">Update</text><polygon fill="#F1F1F1" points="88,302.542,100,314.542,88,326.542,76,314.542,88,302.542" style="stroke:#181818;stroke-width:0.5;"/><rect fill="#F1F1F1" height="47.9375" rx="12.5" ry="12.5" style="stroke:#181818;stroke-width:0.5;" width="119" x="28.5" y="390.542"/><text fill="#000000" font-family="sans-serif" font-size="12" lengthAdjust="spacing" textLength="99" x="38.5" y="411.6807">Enter sleep time</text><text fill="#000000" font-family="sans-serif" font-size="12" lengthAdjust="spacing" textLength="67" x="38.5" y="425.6494">information</text><polygon fill="#F1F1F1" points="88,346.542,100,358.542,88,370.542,76,358.542,88,346.542" style="stroke:#181818;stroke-width:0.5;"/><rect fill="#F1F1F1" height="47.9375" rx="12.5" ry="12.5" style="stroke:#181818;stroke-width:0.5;" width="134" x="21" y="583.1587"/><text fill="#000000" font-family="sans-serif" font-size="12" lengthAdjust="spacing" textLength="114" x="31" y="604.2974">Click button "Save"</text><text fill="#000000" font-family="sans-serif" font-size="12" lengthAdjust="spacing" textLength="61" x="31" y="618.2661">to confirm</text><line style="stroke:#000000;stroke-width:1.5;" x1="15" x2="15" y1="12.7451" y2="966.9712"/><rect fill="#F1F1F1" height="47.9375" rx="12.5" ry="12.5" style="stroke:#181818;stroke-width:0.5;" width="129" x="200" y="122.6982"/><text fill="#000000" font-family="sans-serif" font-size="12" lengthAdjust="spacing" textLength="72" x="210" y="143.8369">Display with</text><text fill="#000000" font-family="sans-serif" font-size="12" lengthAdjust="spacing" textLength="109" x="210" y="157.8057">empty information</text><rect fill="#F1F1F1" height="47.9375" rx="12.5" ry="12.5" style="stroke:#181818;stroke-width:0.5;" width="155" x="349" y="122.6982"/><text fill="#000000" font-family="sans-serif" font-size="12" lengthAdjust="spacing" textLength="78" x="359" y="143.8369">Get selected</text><text fill="#000000" font-family="sans-serif" font-size="12" lengthAdjust="spacing" textLength="135" x="359" y="157.8057">sleep time information</text><rect fill="#F1F1F1" height="47.9375" rx="12.5" ry="12.5" style="stroke:#181818;stroke-width:0.5;" width="155" x="349" y="244.6045"/><text fill="#000000" font-family="sans-serif" font-size="12" lengthAdjust="spacing" textLength="101" x="359" y="265.7432">Display selected</text><text fill="#000000" font-family="sans-serif" font-size="12" lengthAdjust="spacing" textLength="135" x="359" y="279.7119">sleep time information</text><rect fill="#F1F1F1" height="33.9688" rx="12.5" ry="12.5" style="stroke:#181818;stroke-width:0.5;" width="141" x="275" y="473.4795"/><text fill="#000000" font-family="sans-serif" font-size="12" lengthAdjust="spacing" textLength="121" x="285" y="494.6182">Validate data format</text><polygon fill="#F1F1F1" points="345.5,527.4482,345.5,527.4482,357.5,539.4482,345.5,551.4482,345.5,551.4482,333.5,539.4482,345.5,527.4482" style="stroke:#181818;stroke-width:0.5;"/><text fill="#000000" font-family="sans-serif" font-size="11" lengthAdjust="spacing" textLength="57" x="349.5" y="561.6587">Valid data</text><text fill="#000000" font-family="sans-serif" font-size="11" lengthAdjust="spacing" textLength="66" x="357.5" y="536.854">Invalid data</text><rect fill="#F1F1F1" height="33.9688" rx="12.5" ry="12.5" style="stroke:#181818;stroke-width:0.5;" width="168" x="440" y="432.0107"/><text fill="#000000" font-family="sans-serif" font-size="12" lengthAdjust="spacing" textLength="148" x="450" y="453.1494">Display error notification</text><rect fill="#F1F1F1" height="33.9688" rx="12.5" ry="12.5" style="stroke:#181818;stroke-width:0.5;" width="175" x="258" y="651.0962"/><text fill="#000000" font-family="sans-serif" font-size="12" lengthAdjust="spacing" textLength="155" x="268" y="672.2349">Process updating request</text><rect fill="#F1F1F1" height="33.9688" rx="12.5" ry="12.5" style="stroke:#181818;stroke-width:0.5;" width="168" x="165" y="803.0337"/><text fill="#000000" font-family="sans-serif" font-size="12" lengthAdjust="spacing" textLength="148" x="175" y="824.1724">Display error notification</text><rect fill="#F1F1F1" height="33.9688" rx="12.5" ry="12.5" style="stroke:#181818;stroke-width:0.5;" width="178" x="353" y="857.0024"/><text fill="#000000" font-family="sans-serif" font-size="12" lengthAdjust="spacing" textLength="158" x="363" y="878.1411">Display update successful</text><line style="stroke:#000000;stroke-width:1.5;" x1="159" x2="159" y1="12.7451" y2="966.9712"/><rect fill="#F1F1F1" height="33.9688" rx="12.5" ry="12.5" style="stroke:#181818;stroke-width:0.5;" width="87" x="732.5" y="190.6357"/><text fill="#000000" font-family="sans-serif" font-size="12" lengthAdjust="spacing" textLength="67" x="742.5" y="211.7744">Query data</text><rect fill="#F1F1F1" height="33.9688" rx="12.5" ry="12.5" style="stroke:#181818;stroke-width:0.5;" width="98" x="646" y="705.0649"/><text fill="#000000" font-family="sans-serif" font-size="12" lengthAdjust="spacing" textLength="78" x="656" y="726.2036">Validate data</text><polygon fill="#F1F1F1" points="695,759.0337,695,759.0337,707,771.0337,695,783.0337,695,783.0337,683,771.0337,695,759.0337" style="stroke:#181818;stroke-width:0.5;"/><text fill="#000000" font-family="sans-serif" font-size="11" lengthAdjust="spacing" textLength="66" x="617" y="768.4395">Invalid data</text><text fill="#000000" font-family="sans-serif" font-size="11" lengthAdjust="spacing" textLength="57" x="707" y="768.4395">Valid data</text><rect fill="#F1F1F1" height="33.9688" rx="12.5" ry="12.5" style="stroke:#181818;stroke-width:0.5;" width="83" x="750" y="803.0337"/><text fill="#000000" font-family="sans-serif" font-size="12" lengthAdjust="spacing" textLength="63" x="760" y="824.1724">Store data</text><polygon fill="#F1F1F1" points="695,900.9712,707,912.9712,695,924.9712,683,912.9712,695,900.9712" style="stroke:#181818;stroke-width:0.5;"/><ellipse cx="695" cy="955.9712" fill="none" rx="11" ry="11" style="stroke:#222222;stroke-width:1.0;"/><ellipse cx="695" cy="955.9712" fill="#222222" rx="6" ry="6" style="stroke:#222222;stroke-width:1.0;"/><line style="stroke:#000000;stroke-width:1.5;" x1="612" x2="612" y1="12.7451" y2="966.9712"/><line style="stroke:#000000;stroke-width:1.5;" x1="837" x2="837" y1="12.7451" y2="966.9712"/><line style="stroke:#181818;stroke-width:1.0;" x1="88" x2="88" y1="58.6982" y2="78.6982"/><polygon fill="#181818" points="84,68.6982,88,78.6982,92,68.6982,88,72.6982" style="stroke:#181818;stroke-width:1.0;"/><line style="stroke:#181818;stroke-width:1.0;" x1="88" x2="88" y1="370.542" y2="390.542"/><polygon fill="#181818" points="84,380.542,88,390.542,92,380.542,88,384.542" style="stroke:#181818;stroke-width:1.0;"/><line style="stroke:#181818;stroke-width:1.0;" x1="88" x2="88" y1="326.542" y2="346.542"/><polygon fill="#181818" points="84,336.542,88,346.542,92,336.542,88,340.542" style="stroke:#181818;stroke-width:1.0;"/><line style="stroke:#181818;stroke-width:1.0;" x1="357.5" x2="524" y1="539.4482" y2="539.4482"/><line style="stroke:#181818;stroke-width:1.0;" x1="524" x2="524" y1="465.9795" y2="539.4482"/><polygon fill="#181818" points="520,475.9795,524,465.9795,528,475.9795,524,471.9795" style="stroke:#181818;stroke-width:1.0;"/><line style="stroke:#181818;stroke-width:1.0;" x1="345.5" x2="345.5" y1="507.4482" y2="527.4482"/><polygon fill="#181818" points="341.5,517.4482,345.5,527.4482,349.5,517.4482,345.5,521.4482" style="stroke:#181818;stroke-width:1.0;"/><line style="stroke:#181818;stroke-width:1.0;" x1="707" x2="791.5" y1="771.0337" y2="771.0337"/><line style="stroke:#181818;stroke-width:1.0;" x1="791.5" x2="791.5" y1="771.0337" y2="803.0337"/><polygon fill="#181818" points="787.5,793.0337,791.5,803.0337,795.5,793.0337,791.5,797.0337" style="stroke:#181818;stroke-width:1.0;"/><line style="stroke:#181818;stroke-width:1.0;" x1="695" x2="695" y1="739.0337" y2="759.0337"/><polygon fill="#181818" points="691,749.0337,695,759.0337,699,749.0337,695,753.0337" style="stroke:#181818;stroke-width:1.0;"/><line style="stroke:#181818;stroke-width:1.0;" x1="695" x2="695" y1="924.9712" y2="944.9712"/><polygon fill="#181818" points="691,934.9712,695,944.9712,699,934.9712,695,938.9712" style="stroke:#181818;stroke-width:1.0;"/><line style="stroke:#181818;stroke-width:1.0;" x1="426.5" x2="426.5" y1="170.6357" y2="175.6357"/><line style="stroke:#181818;stroke-width:1.0;" x1="426.5" x2="776" y1="175.6357" y2="175.6357"/><line style="stroke:#181818;stroke-width:1.0;" x1="776" x2="776" y1="175.6357" y2="190.6357"/><polygon fill="#181818" points="772,180.6357,776,190.6357,780,180.6357,776,184.6357" style="stroke:#181818;stroke-width:1.0;"/><line style="stroke:#181818;stroke-width:1.0;" x1="776" x2="776" y1="224.6045" y2="229.6045"/><line style="stroke:#181818;stroke-width:1.0;" x1="776" x2="426.5" y1="229.6045" y2="229.6045"/><line style="stroke:#181818;stroke-width:1.0;" x1="426.5" x2="426.5" y1="229.6045" y2="244.6045"/><polygon fill="#181818" points="422.5,234.6045,426.5,244.6045,430.5,234.6045,426.5,238.6045" style="stroke:#181818;stroke-width:1.0;"/><line style="stroke:#181818;stroke-width:1.0;" x1="76" x2="64" y1="90.6982" y2="90.6982"/><line style="stroke:#181818;stroke-width:1.0;" x1="64" x2="64" y1="90.6982" y2="108.6982"/><line style="stroke:#181818;stroke-width:1.0;" x1="64" x2="264.5" y1="108.6982" y2="108.6982"/><line style="stroke:#181818;stroke-width:1.0;" x1="264.5" x2="264.5" y1="108.6982" y2="122.6982"/><polygon fill="#181818" points="260.5,112.6982,264.5,122.6982,268.5,112.6982,264.5,116.6982" style="stroke:#181818;stroke-width:1.0;"/><line style="stroke:#181818;stroke-width:1.0;" x1="100" x2="426.5" y1="90.6982" y2="90.6982"/><line style="stroke:#181818;stroke-width:1.0;" x1="426.5" x2="426.5" y1="90.6982" y2="122.6982"/><polygon fill="#181818" points="422.5,112.6982,426.5,122.6982,430.5,112.6982,426.5,116.6982" style="stroke:#181818;stroke-width:1.0;"/><line style="stroke:#181818;stroke-width:1.0;" x1="264.5" x2="264.5" y1="170.6357" y2="296.542"/><line style="stroke:#181818;stroke-width:1.0;" x1="264.5" x2="58" y1="296.542" y2="296.542"/><line style="stroke:#181818;stroke-width:1.0;" x1="58" x2="58" y1="296.542" y2="314.542"/><line style="stroke:#181818;stroke-width:1.0;" x1="58" x2="76" y1="314.542" y2="314.542"/><polygon fill="#181818" points="66,310.542,76,314.542,66,318.542,70,314.542" style="stroke:#181818;stroke-width:1.0;"/><line style="stroke:#181818;stroke-width:1.0;" x1="426.5" x2="426.5" y1="292.542" y2="314.542"/><line style="stroke:#181818;stroke-width:1.0;" x1="426.5" x2="100" y1="314.542" y2="314.542"/><polygon fill="#181818" points="110,310.542,100,314.542,110,318.542,106,314.542" style="stroke:#181818;stroke-width:1.0;"/><line style="stroke:#181818;stroke-width:1.0;" x1="88" x2="88" y1="438.4795" y2="455.9795"/><line style="stroke:#181818;stroke-width:1.0;" x1="88" x2="345.5" y1="455.9795" y2="455.9795"/><line style="stroke:#181818;stroke-width:1.0;" x1="345.5" x2="345.5" y1="455.9795" y2="473.4795"/><polygon fill="#181818" points="341.5,463.4795,345.5,473.4795,349.5,463.4795,345.5,467.4795" style="stroke:#181818;stroke-width:1.0;"/><line style="stroke:#181818;stroke-width:1.0;" x1="524" x2="524" y1="358.542" y2="432.0107"/><line style="stroke:#181818;stroke-width:1.0;" x1="524" x2="100" y1="358.542" y2="358.542"/><polygon fill="#181818" points="110,354.542,100,358.542,110,362.542,106,358.542" style="stroke:#181818;stroke-width:1.0;"/><line style="stroke:#181818;stroke-width:1.0;" x1="345.5" x2="345.5" y1="551.4482" y2="568.1587"/><line style="stroke:#181818;stroke-width:1.0;" x1="345.5" x2="88" y1="568.1587" y2="568.1587"/><line style="stroke:#181818;stroke-width:1.0;" x1="88" x2="88" y1="568.1587" y2="583.1587"/><polygon fill="#181818" points="84,573.1587,88,583.1587,92,573.1587,88,577.1587" style="stroke:#181818;stroke-width:1.0;"/><line style="stroke:#181818;stroke-width:1.0;" x1="88" x2="88" y1="631.0962" y2="636.0962"/><line style="stroke:#181818;stroke-width:1.0;" x1="88" x2="345.5" y1="636.0962" y2="636.0962"/><line style="stroke:#181818;stroke-width:1.0;" x1="345.5" x2="345.5" y1="636.0962" y2="651.0962"/><polygon fill="#181818" points="341.5,641.0962,345.5,651.0962,349.5,641.0962,345.5,645.0962" style="stroke:#181818;stroke-width:1.0;"/><line style="stroke:#181818;stroke-width:1.0;" x1="345.5" x2="345.5" y1="685.0649" y2="690.0649"/><line style="stroke:#181818;stroke-width:1.0;" x1="345.5" x2="695" y1="690.0649" y2="690.0649"/><line style="stroke:#181818;stroke-width:1.0;" x1="695" x2="695" y1="690.0649" y2="705.0649"/><polygon fill="#181818" points="691,695.0649,695,705.0649,699,695.0649,695,699.0649" style="stroke:#181818;stroke-width:1.0;"/><line style="stroke:#181818;stroke-width:1.0;" x1="791.5" x2="791.5" y1="837.0024" y2="842.0024"/><line style="stroke:#181818;stroke-width:1.0;" x1="791.5" x2="442" y1="842.0024" y2="842.0024"/><line style="stroke:#181818;stroke-width:1.0;" x1="442" x2="442" y1="842.0024" y2="857.0024"/><polygon fill="#181818" points="438,847.0024,442,857.0024,446,847.0024,442,851.0024" style="stroke:#181818;stroke-width:1.0;"/><line style="stroke:#181818;stroke-width:1.0;" x1="683" x2="249" y1="771.0337" y2="771.0337"/><line style="stroke:#181818;stroke-width:1.0;" x1="249" x2="249" y1="771.0337" y2="803.0337"/><polygon fill="#181818" points="245,793.0337,249,803.0337,253,793.0337,249,797.0337" style="stroke:#181818;stroke-width:1.0;"/><line style="stroke:#181818;stroke-width:1.0;" x1="249" x2="249" y1="837.0024" y2="912.9712"/><line style="stroke:#181818;stroke-width:1.0;" x1="249" x2="683" y1="912.9712" y2="912.9712"/><polygon fill="#181818" points="673,908.9712,683,912.9712,673,916.9712,677,912.9712" style="stroke:#181818;stroke-width:1.0;"/><line style="stroke:#181818;stroke-width:1.0;" x1="442" x2="442" y1="890.9712" y2="894.9712"/><line style="stroke:#181818;stroke-width:1.0;" x1="442" x2="725" y1="894.9712" y2="894.9712"/><line style="stroke:#181818;stroke-width:1.0;" x1="725" x2="725" y1="894.9712" y2="912.9712"/><line style="stroke:#181818;stroke-width:1.0;" x1="725" x2="707" y1="912.9712" y2="912.9712"/><polygon fill="#181818" points="717,908.9712,707,912.9712,717,916.9712,713,912.9712" style="stroke:#181818;stroke-width:1.0;"/><text fill="#000000" font-family="sans-serif" font-size="18" lengthAdjust="spacing" textLength="62" x="56" y="29.4531">Parent</text><text fill="#000000" font-family="sans-serif" font-size="18" lengthAdjust="spacing" textLength="69" x="351" y="29.4531">System</text><text fill="#000000" font-family="sans-serif" font-size="18" lengthAdjust="spacing" textLength="88" x="680.5" y="29.4531">Database</text><!--SRC=[XPB1ReCm38RlF8NL4xp2UbotQRTErNhYae9PhGQ7EQPL9Hv-IzADigAE0nBXz_z_TZoiZI3ha7areXara1UWUsJ8dqcyWbAB1OGd2wzXS_QAxH0_7bRaEslES2BTbunjfsSWRfoqHidnCaFh4VBthZQAHQfvGGMF5Yl5kcHl4RiOCYsCMIkZPcSyNjBUUfGpV5kPvHsM_xsHQseomGwD9gEV8KIZ9rOK68jBlYMR96-DfT1WH8CaJRgTgGud8_L8Xo9EW9rIGzN5CP70QKyMm_Z9G_xAn-0QBOkWXtmx7inGFrgg3h3hLHt3OcEEk2XP7LIE6v9sZdijhaBleG_NG_m1WfyzUfsV_gJB9BdUbWbm_7iJEBcckK44GTgOxPpNBz1b5wFVHfrSCzrFZQqY-BuAdJUz7OlILlpftAlhlW00]--></g></svg>