<?xml version="1.0" encoding="us-ascii" standalone="no"?><svg xmlns="http://www.w3.org/2000/svg" xmlns:xlink="http://www.w3.org/1999/xlink" contentStyleType="text/css" height="731px" preserveAspectRatio="none" style="width:539px;height:731px;background:#FFFFFF;" version="1.1" viewBox="0 0 539 731" width="539px" zoomAndPan="magnify"><defs/><g><rect fill="none" height="20.9531" style="stroke:none;stroke-width:1.0;" width="506.5" x="15" y="12.7451"/><ellipse cx="117" cy="48.6982" fill="#222222" rx="10" ry="10" style="stroke:#222222;stroke-width:1.0;"/><rect fill="#F1F1F1" height="61.9063" rx="12.5" ry="12.5" style="stroke:#181818;stroke-width:0.5;" width="107" x="63.5" y="127.1006"/><text fill="#000000" font-family="sans-serif" font-size="12" lengthAdjust="spacing" textLength="61" x="73.5" y="148.2393">Enters the</text><text fill="#000000" font-family="sans-serif" font-size="12" lengthAdjust="spacing" textLength="87" x="73.5" y="162.208">search criteria</text><text fill="#000000" font-family="sans-serif" font-size="12" lengthAdjust="spacing" textLength="82" x="73.5" y="176.1768">in search box</text><polygon fill="#F1F1F1" points="117,78.6982,117,78.6982,129,90.6982,117,102.6982,117,102.6982,105,90.6982,117,78.6982" style="stroke:#181818;stroke-width:0.5;"/><text fill="#000000" font-family="sans-serif" font-size="11" lengthAdjust="spacing" textLength="40" x="121" y="112.9087">Search</text><text fill="#000000" font-family="sans-serif" font-size="11" lengthAdjust="spacing" textLength="57" x="48" y="88.104">No search</text><polygon fill="#F1F1F1" points="117,395.3975,129,407.3975,117,419.3975,105,407.3975,117,395.3975" style="stroke:#181818;stroke-width:0.5;"/><rect fill="#F1F1F1" height="61.9063" rx="12.5" ry="12.5" style="stroke:#181818;stroke-width:0.5;" width="96" x="69" y="439.3975"/><text fill="#000000" font-family="sans-serif" font-size="12" lengthAdjust="spacing" textLength="61" x="79" y="460.5361">Select the</text><text fill="#000000" font-family="sans-serif" font-size="12" lengthAdjust="spacing" textLength="64" x="79" y="474.5049">sleep time</text><text fill="#000000" font-family="sans-serif" font-size="12" lengthAdjust="spacing" textLength="76" x="79" y="488.4736">want to view</text><line style="stroke:#000000;stroke-width:1.5;" x1="15" x2="15" y1="12.7451" y2="719.1787"/><rect fill="#F1F1F1" height="33.9688" rx="12.5" ry="12.5" style="stroke:#181818;stroke-width:0.5;" width="182" x="208" y="209.0068"/><text fill="#000000" font-family="sans-serif" font-size="12" lengthAdjust="spacing" textLength="162" x="218" y="230.1455">Process searching request</text><rect fill="#F1F1F1" height="47.9375" rx="12.5" ry="12.5" style="stroke:#181818;stroke-width:0.5;" width="101" x="248.5" y="327.46"/><text fill="#000000" font-family="sans-serif" font-size="12" lengthAdjust="spacing" textLength="81" x="258.5" y="348.5986">Display list of</text><text fill="#000000" font-family="sans-serif" font-size="12" lengthAdjust="spacing" textLength="71" x="258.5" y="362.5674">sleep times</text><rect fill="#F1F1F1" height="33.9688" rx="12.5" ry="12.5" style="stroke:#181818;stroke-width:0.5;" width="237" x="180.5" y="521.3037"/><text fill="#000000" font-family="sans-serif" font-size="12" lengthAdjust="spacing" textLength="217" x="190.5" y="542.4424">Get selected sleep time information</text><rect fill="#F1F1F1" height="47.9375" rx="12.5" ry="12.5" style="stroke:#181818;stroke-width:0.5;" width="155" x="221.5" y="629.2412"/><text fill="#000000" font-family="sans-serif" font-size="12" lengthAdjust="spacing" textLength="101" x="231.5" y="650.3799">Display selected</text><text fill="#000000" font-family="sans-serif" font-size="12" lengthAdjust="spacing" textLength="135" x="231.5" y="664.3486">sleep time information</text><ellipse cx="299" cy="708.1787" fill="none" rx="11" ry="11" style="stroke:#222222;stroke-width:1.0;"/><ellipse cx="299" cy="708.1787" fill="#222222" rx="6" ry="6" style="stroke:#222222;stroke-width:1.0;"/><line style="stroke:#000000;stroke-width:1.5;" x1="174.5" x2="174.5" y1="12.7451" y2="719.1787"/><rect fill="#F1F1F1" height="33.9688" rx="12.5" ry="12.5" style="stroke:#181818;stroke-width:0.5;" width="87" x="428" y="273.4912"/><text fill="#000000" font-family="sans-serif" font-size="12" lengthAdjust="spacing" textLength="67" x="438" y="294.6299">Query data</text><rect fill="#F1F1F1" height="33.9688" rx="12.5" ry="12.5" style="stroke:#181818;stroke-width:0.5;" width="87" x="428" y="575.2725"/><text fill="#000000" font-family="sans-serif" font-size="12" lengthAdjust="spacing" textLength="67" x="438" y="596.4111">Query data</text><line style="stroke:#000000;stroke-width:1.5;" x1="421.5" x2="421.5" y1="12.7451" y2="719.1787"/><line style="stroke:#000000;stroke-width:1.5;" x1="519.5" x2="519.5" y1="12.7451" y2="719.1787"/><line style="stroke:#181818;stroke-width:1.0;" x1="117" x2="117" y1="102.6982" y2="127.1006"/><polygon fill="#181818" points="113,117.1006,117,127.1006,121,117.1006,117,121.1006" style="stroke:#181818;stroke-width:1.0;"/><line style="stroke:#181818;stroke-width:1.0;" x1="105" x2="34" y1="90.6982" y2="90.6982"/><polygon fill="#181818" points="30,243.4912,34,253.4912,38,243.4912,34,247.4912" style="stroke:#181818;stroke-width:1.0;"/><line style="stroke:#181818;stroke-width:1.0;" x1="34" x2="34" y1="90.6982" y2="407.3975"/><line style="stroke:#181818;stroke-width:1.0;" x1="34" x2="105" y1="407.3975" y2="407.3975"/><polygon fill="#181818" points="95,403.3975,105,407.3975,95,411.3975,99,407.3975" style="stroke:#181818;stroke-width:1.0;"/><line style="stroke:#181818;stroke-width:1.0;" x1="117" x2="117" y1="58.6982" y2="78.6982"/><polygon fill="#181818" points="113,68.6982,117,78.6982,121,68.6982,117,72.6982" style="stroke:#181818;stroke-width:1.0;"/><line style="stroke:#181818;stroke-width:1.0;" x1="117" x2="117" y1="419.3975" y2="439.3975"/><polygon fill="#181818" points="113,429.3975,117,439.3975,121,429.3975,117,433.3975" style="stroke:#181818;stroke-width:1.0;"/><line style="stroke:#181818;stroke-width:1.0;" x1="299" x2="299" y1="677.1787" y2="697.1787"/><polygon fill="#181818" points="295,687.1787,299,697.1787,303,687.1787,299,691.1787" style="stroke:#181818;stroke-width:1.0;"/><line style="stroke:#181818;stroke-width:1.0;" x1="117" x2="117" y1="189.0068" y2="194.0068"/><line style="stroke:#181818;stroke-width:1.0;" x1="117" x2="299" y1="194.0068" y2="194.0068"/><line style="stroke:#181818;stroke-width:1.0;" x1="299" x2="299" y1="194.0068" y2="209.0068"/><polygon fill="#181818" points="295,199.0068,299,209.0068,303,199.0068,299,203.0068" style="stroke:#181818;stroke-width:1.0;"/><line style="stroke:#181818;stroke-width:1.0;" x1="299" x2="299" y1="242.9756" y2="258.4912"/><line style="stroke:#181818;stroke-width:1.0;" x1="299" x2="471.5" y1="258.4912" y2="258.4912"/><line style="stroke:#181818;stroke-width:1.0;" x1="471.5" x2="471.5" y1="258.4912" y2="273.4912"/><polygon fill="#181818" points="467.5,263.4912,471.5,273.4912,475.5,263.4912,471.5,267.4912" style="stroke:#181818;stroke-width:1.0;"/><line style="stroke:#181818;stroke-width:1.0;" x1="471.5" x2="471.5" y1="307.46" y2="312.46"/><line style="stroke:#181818;stroke-width:1.0;" x1="471.5" x2="299" y1="312.46" y2="312.46"/><line style="stroke:#181818;stroke-width:1.0;" x1="299" x2="299" y1="312.46" y2="327.46"/><polygon fill="#181818" points="295,317.46,299,327.46,303,317.46,299,321.46" style="stroke:#181818;stroke-width:1.0;"/><line style="stroke:#181818;stroke-width:1.0;" x1="299" x2="299" y1="375.3975" y2="383.1963"/><line style="stroke:#181818;stroke-width:1.0;" x1="299" x2="117" y1="383.1963" y2="383.1963"/><line style="stroke:#181818;stroke-width:1.0;" x1="117" x2="117" y1="383.1963" y2="395.3975"/><polygon fill="#181818" points="113,385.3975,117,395.3975,121,385.3975,117,389.3975" style="stroke:#181818;stroke-width:1.0;"/><line style="stroke:#181818;stroke-width:1.0;" x1="117" x2="117" y1="501.3037" y2="506.3037"/><line style="stroke:#181818;stroke-width:1.0;" x1="117" x2="299" y1="506.3037" y2="506.3037"/><line style="stroke:#181818;stroke-width:1.0;" x1="299" x2="299" y1="506.3037" y2="521.3037"/><polygon fill="#181818" points="295,511.3037,299,521.3037,303,511.3037,299,515.3037" style="stroke:#181818;stroke-width:1.0;"/><line style="stroke:#181818;stroke-width:1.0;" x1="299" x2="299" y1="555.2725" y2="560.2725"/><line style="stroke:#181818;stroke-width:1.0;" x1="299" x2="471.5" y1="560.2725" y2="560.2725"/><line style="stroke:#181818;stroke-width:1.0;" x1="471.5" x2="471.5" y1="560.2725" y2="575.2725"/><polygon fill="#181818" points="467.5,565.2725,471.5,575.2725,475.5,565.2725,471.5,569.2725" style="stroke:#181818;stroke-width:1.0;"/><line style="stroke:#181818;stroke-width:1.0;" x1="471.5" x2="471.5" y1="609.2412" y2="614.2412"/><line style="stroke:#181818;stroke-width:1.0;" x1="471.5" x2="299" y1="614.2412" y2="614.2412"/><line style="stroke:#181818;stroke-width:1.0;" x1="299" x2="299" y1="614.2412" y2="629.2412"/><polygon fill="#181818" points="295,619.2412,299,629.2412,303,619.2412,299,623.2412" style="stroke:#181818;stroke-width:1.0;"/><text fill="#000000" font-family="sans-serif" font-size="18" lengthAdjust="spacing" textLength="62" x="63.75" y="29.4531">Parent</text><text fill="#000000" font-family="sans-serif" font-size="18" lengthAdjust="spacing" textLength="69" x="263.5" y="29.4531">System</text><text fill="#000000" font-family="sans-serif" font-size="18" lengthAdjust="spacing" textLength="88" x="426.5" y="29.4531">Database</text><!--SRC=[bO-nRiCm34HtVGL7-nUQDKMt88LNBufzJWZ8b2ioIGtuuoktIjiKMSgDXtT7thBt2MABK_F970zKrMGd25KDVEfEjQCyomrRbwTdCIHTiLRqaw8kSTROjy92HJl4zysNkvdLC1RtFiKEgeLYELB2snbg1TvwymUlAFZh6MccFekFmhQiK_0p1LQZEEH_0Z2HyGYbZKDGKBMBvLZj83qFxhvEWu3EIfrlUojNBrcDT65S7zr-WUNSrOkUVep4CiGqUkCeVolHVphTidz_TH-k5gSF]--></g></svg>