<?xml version="1.0" encoding="us-ascii" standalone="no"?><svg xmlns="http://www.w3.org/2000/svg" xmlns:xlink="http://www.w3.org/1999/xlink" contentStyleType="text/css" height="752px" preserveAspectRatio="none" style="width:1201px;height:752px;background:#FFFFFF;" version="1.1" viewBox="0 0 1201 752" width="1201px" zoomAndPan="magnify"><defs/><g><!--class Document--><g id="elem_Document"><rect codeLine="8" fill="#FFFAFA" height="96.8906" id="Document" rx="2.5" ry="2.5" style="stroke:#000000;stroke-width:0.5;" width="141" x="7" y="56"/><ellipse cx="37.3" cy="72" fill="#ADD1B2" rx="11" ry="11" style="stroke:#181818;stroke-width:1.0;"/><path d="M39.6438,67.6719 C38.7063,67.2344 38.1125,67.0938 37.2375,67.0938 C34.6125,67.0938 32.6125,69.1719 32.6125,71.8906 L32.6125,73.0156 C32.6125,75.5938 34.7219,77.4844 37.6125,77.4844 C38.8313,77.4844 39.9875,77.1875 40.7375,76.6406 C41.3156,76.2344 41.6438,75.7813 41.6438,75.3906 C41.6438,74.9375 41.2531,74.5469 40.7844,74.5469 C40.5656,74.5469 40.3625,74.625 40.175,74.8125 C39.7219,75.2969 39.7219,75.2969 39.5344,75.3906 C39.1125,75.6563 38.425,75.7813 37.6594,75.7813 C35.6125,75.7813 34.3156,74.6875 34.3156,72.9844 L34.3156,71.8906 C34.3156,70.1094 35.5656,68.7969 37.3,68.7969 C37.8781,68.7969 38.4875,68.9531 38.9563,69.2031 C39.4406,69.4844 39.6125,69.7031 39.7063,70.1094 C39.7688,70.5156 39.8,70.6406 39.9406,70.7656 C40.0813,70.9063 40.3156,71.0156 40.5344,71.0156 C40.8,71.0156 41.0656,70.875 41.2375,70.6563 C41.3469,70.5 41.3781,70.3125 41.3781,69.8906 L41.3781,68.4688 C41.3781,68.0313 41.3625,67.9063 41.2688,67.75 C41.1125,67.4844 40.8313,67.3438 40.5344,67.3438 C40.2375,67.3438 40.0344,67.4375 39.8156,67.75 L39.6438,67.6719 Z " fill="#000000"/><text fill="#000000" font-family="sans-serif" font-size="14" lengthAdjust="spacing" textLength="75" x="54.7" y="76.8467">Document</text><line style="stroke:#000000;stroke-width:0.5;" x1="8" x2="147" y1="88" y2="88"/><rect fill="none" height="6" style="stroke:#C82930;stroke-width:1.0;" width="6" x="15" y="98.6484"/><text fill="#000000" font-family="sans-serif" font-size="14" lengthAdjust="spacing" textLength="115" x="27" y="104.9951">documentId: int</text><rect fill="none" height="6" style="stroke:#C82930;stroke-width:1.0;" width="6" x="15" y="114.9453"/><text fill="#000000" font-family="sans-serif" font-size="14" lengthAdjust="spacing" textLength="84" x="27" y="121.292">title: String</text><rect fill="none" height="6" style="stroke:#C82930;stroke-width:1.0;" width="6" x="15" y="131.2422"/><text fill="#000000" font-family="sans-serif" font-size="14" lengthAdjust="spacing" textLength="111" x="27" y="137.5889">content: String</text><line style="stroke:#000000;stroke-width:0.5;" x1="8" x2="147" y1="144.8906" y2="144.8906"/></g><!--class Account--><g id="elem_Account"><rect codeLine="14" fill="#FFFAFA" height="145.7813" id="Account" rx="2.5" ry="2.5" style="stroke:#000000;stroke-width:0.5;" width="150" x="203.5" y="31.5"/><ellipse cx="245.05" cy="47.5" fill="#ADD1B2" rx="11" ry="11" style="stroke:#181818;stroke-width:1.0;"/><path d="M247.3938,43.1719 C246.4563,42.7344 245.8625,42.5938 244.9875,42.5938 C242.3625,42.5938 240.3625,44.6719 240.3625,47.3906 L240.3625,48.5156 C240.3625,51.0938 242.4719,52.9844 245.3625,52.9844 C246.5813,52.9844 247.7375,52.6875 248.4875,52.1406 C249.0656,51.7344 249.3938,51.2813 249.3938,50.8906 C249.3938,50.4375 249.0031,50.0469 248.5344,50.0469 C248.3156,50.0469 248.1125,50.125 247.925,50.3125 C247.4719,50.7969 247.4719,50.7969 247.2844,50.8906 C246.8625,51.1563 246.175,51.2813 245.4094,51.2813 C243.3625,51.2813 242.0656,50.1875 242.0656,48.4844 L242.0656,47.3906 C242.0656,45.6094 243.3156,44.2969 245.05,44.2969 C245.6281,44.2969 246.2375,44.4531 246.7063,44.7031 C247.1906,44.9844 247.3625,45.2031 247.4563,45.6094 C247.5188,46.0156 247.55,46.1406 247.6906,46.2656 C247.8313,46.4063 248.0656,46.5156 248.2844,46.5156 C248.55,46.5156 248.8156,46.375 248.9875,46.1563 C249.0969,46 249.1281,45.8125 249.1281,45.3906 L249.1281,43.9688 C249.1281,43.5313 249.1125,43.4063 249.0188,43.25 C248.8625,42.9844 248.5813,42.8438 248.2844,42.8438 C247.9875,42.8438 247.7844,42.9375 247.5656,43.25 L247.3938,43.1719 Z " fill="#000000"/><text fill="#000000" font-family="sans-serif" font-size="14" lengthAdjust="spacing" textLength="59" x="264.95" y="52.3467">Account</text><line style="stroke:#000000;stroke-width:0.5;" x1="204.5" x2="352.5" y1="63.5" y2="63.5"/><rect fill="none" height="6" style="stroke:#C82930;stroke-width:1.0;" width="6" x="211.5" y="74.1484"/><text fill="#000000" font-family="sans-serif" font-size="14" lengthAdjust="spacing" textLength="99" x="223.5" y="80.4951">accountId: int</text><rect fill="none" height="6" style="stroke:#C82930;stroke-width:1.0;" width="6" x="211.5" y="90.4453"/><text fill="#000000" font-family="sans-serif" font-size="14" lengthAdjust="spacing" textLength="123" x="223.5" y="96.792">username: String</text><rect fill="none" height="6" style="stroke:#C82930;stroke-width:1.0;" width="6" x="211.5" y="106.7422"/><text fill="#000000" font-family="sans-serif" font-size="14" lengthAdjust="spacing" textLength="120" x="223.5" y="113.0889">password: String</text><rect fill="none" height="6" style="stroke:#C82930;stroke-width:1.0;" width="6" x="211.5" y="123.0391"/><text fill="#000000" font-family="sans-serif" font-size="14" lengthAdjust="spacing" textLength="124" x="223.5" y="129.3857">firstName: String</text><rect fill="none" height="6" style="stroke:#C82930;stroke-width:1.0;" width="6" x="211.5" y="139.3359"/><text fill="#000000" font-family="sans-serif" font-size="14" lengthAdjust="spacing" textLength="120" x="223.5" y="145.6826">lastName: String</text><rect fill="none" height="6" style="stroke:#C82930;stroke-width:1.0;" width="6" x="211.5" y="155.6328"/><text fill="#000000" font-family="sans-serif" font-size="14" lengthAdjust="spacing" textLength="92" x="223.5" y="161.9795">email: String</text><line style="stroke:#000000;stroke-width:0.5;" x1="204.5" x2="352.5" y1="169.2813" y2="169.2813"/></g><polygon fill="none" points="278.5,177.2813,285.5,197.2813,271.5,197.2813" style="stroke:#000000;stroke-width:1.0;"/><line style="stroke:#000000;stroke-width:1.0;" x1="278.5" x2="278.5" y1="197.2813" y2="198.5"/><!--class Parent--><g id="elem_Parent"><rect codeLine="23" fill="#FFFAFA" height="80.5938" id="Parent" rx="2.5" ry="2.5" style="stroke:#000000;stroke-width:0.5;" width="134" x="307.5" y="270"/><ellipse cx="346.8" cy="286" fill="#ADD1B2" rx="11" ry="11" style="stroke:#181818;stroke-width:1.0;"/><path d="M349.1438,281.6719 C348.2063,281.2344 347.6125,281.0938 346.7375,281.0938 C344.1125,281.0938 342.1125,283.1719 342.1125,285.8906 L342.1125,287.0156 C342.1125,289.5938 344.2219,291.4844 347.1125,291.4844 C348.3313,291.4844 349.4875,291.1875 350.2375,290.6406 C350.8156,290.2344 351.1438,289.7813 351.1438,289.3906 C351.1438,288.9375 350.7531,288.5469 350.2844,288.5469 C350.0656,288.5469 349.8625,288.625 349.675,288.8125 C349.2219,289.2969 349.2219,289.2969 349.0344,289.3906 C348.6125,289.6563 347.925,289.7813 347.1594,289.7813 C345.1125,289.7813 343.8156,288.6875 343.8156,286.9844 L343.8156,285.8906 C343.8156,284.1094 345.0656,282.7969 346.8,282.7969 C347.3781,282.7969 347.9875,282.9531 348.4563,283.2031 C348.9406,283.4844 349.1125,283.7031 349.2063,284.1094 C349.2688,284.5156 349.3,284.6406 349.4406,284.7656 C349.5813,284.9063 349.8156,285.0156 350.0344,285.0156 C350.3,285.0156 350.5656,284.875 350.7375,284.6563 C350.8469,284.5 350.8781,284.3125 350.8781,283.8906 L350.8781,282.4688 C350.8781,282.0313 350.8625,281.9063 350.7688,281.75 C350.6125,281.4844 350.3313,281.3438 350.0344,281.3438 C349.7375,281.3438 349.5344,281.4375 349.3156,281.75 L349.1438,281.6719 Z " fill="#000000"/><text fill="#000000" font-family="sans-serif" font-size="14" lengthAdjust="spacing" textLength="48" x="366.2" y="290.8467">Parent</text><line style="stroke:#000000;stroke-width:0.5;" x1="308.5" x2="440.5" y1="302" y2="302"/><rect fill="none" height="6" style="stroke:#C82930;stroke-width:1.0;" width="6" x="315.5" y="312.6484"/><text fill="#000000" font-family="sans-serif" font-size="14" lengthAdjust="spacing" textLength="91" x="327.5" y="318.9951">parentId: int</text><rect fill="none" height="6" style="stroke:#C82930;stroke-width:1.0;" width="6" x="315.5" y="328.9453"/><text fill="#000000" font-family="sans-serif" font-size="14" lengthAdjust="spacing" textLength="108" x="327.5" y="335.292">address: String</text><line style="stroke:#000000;stroke-width:0.5;" x1="308.5" x2="440.5" y1="342.5938" y2="342.5938"/></g><!--class Doctor--><g id="elem_Doctor"><rect codeLine="28" fill="#FFFAFA" height="96.8906" id="Doctor" rx="2.5" ry="2.5" style="stroke:#000000;stroke-width:0.5;" width="182" x="90.5" y="262"/><ellipse cx="152.25" cy="278" fill="#ADD1B2" rx="11" ry="11" style="stroke:#181818;stroke-width:1.0;"/><path d="M154.5938,273.6719 C153.6563,273.2344 153.0625,273.0938 152.1875,273.0938 C149.5625,273.0938 147.5625,275.1719 147.5625,277.8906 L147.5625,279.0156 C147.5625,281.5938 149.6719,283.4844 152.5625,283.4844 C153.7813,283.4844 154.9375,283.1875 155.6875,282.6406 C156.2656,282.2344 156.5938,281.7813 156.5938,281.3906 C156.5938,280.9375 156.2031,280.5469 155.7344,280.5469 C155.5156,280.5469 155.3125,280.625 155.125,280.8125 C154.6719,281.2969 154.6719,281.2969 154.4844,281.3906 C154.0625,281.6563 153.375,281.7813 152.6094,281.7813 C150.5625,281.7813 149.2656,280.6875 149.2656,278.9844 L149.2656,277.8906 C149.2656,276.1094 150.5156,274.7969 152.25,274.7969 C152.8281,274.7969 153.4375,274.9531 153.9063,275.2031 C154.3906,275.4844 154.5625,275.7031 154.6563,276.1094 C154.7188,276.5156 154.75,276.6406 154.8906,276.7656 C155.0313,276.9063 155.2656,277.0156 155.4844,277.0156 C155.75,277.0156 156.0156,276.875 156.1875,276.6563 C156.2969,276.5 156.3281,276.3125 156.3281,275.8906 L156.3281,274.4688 C156.3281,274.0313 156.3125,273.9063 156.2188,273.75 C156.0625,273.4844 155.7813,273.3438 155.4844,273.3438 C155.1875,273.3438 154.9844,273.4375 154.7656,273.75 L154.5938,273.6719 Z " fill="#000000"/><text fill="#000000" font-family="sans-serif" font-size="14" lengthAdjust="spacing" textLength="50" x="172.75" y="282.8467">Doctor</text><line style="stroke:#000000;stroke-width:0.5;" x1="91.5" x2="271.5" y1="294" y2="294"/><rect fill="none" height="6" style="stroke:#C82930;stroke-width:1.0;" width="6" x="98.5" y="304.6484"/><text fill="#000000" font-family="sans-serif" font-size="14" lengthAdjust="spacing" textLength="90" x="110.5" y="310.9951">doctorId: int</text><rect fill="none" height="6" style="stroke:#C82930;stroke-width:1.0;" width="6" x="98.5" y="320.9453"/><text fill="#000000" font-family="sans-serif" font-size="14" lengthAdjust="spacing" textLength="156" x="110.5" y="327.292">phoneNumber: String</text><rect fill="none" height="6" style="stroke:#C82930;stroke-width:1.0;" width="6" x="98.5" y="337.2422"/><text fill="#000000" font-family="sans-serif" font-size="14" lengthAdjust="spacing" textLength="122" x="110.5" y="343.5889">speciality: String</text><line style="stroke:#000000;stroke-width:0.5;" x1="91.5" x2="271.5" y1="350.8906" y2="350.8906"/></g><!--class Child--><g id="elem_Child"><rect codeLine="37" fill="#FFFAFA" height="194.6719" id="Child" rx="2.5" ry="2.5" style="stroke:#000000;stroke-width:0.5;" width="156" x="613.5" y="7"/><ellipse cx="669.25" cy="23" fill="#ADD1B2" rx="11" ry="11" style="stroke:#181818;stroke-width:1.0;"/><path d="M671.5938,18.6719 C670.6563,18.2344 670.0625,18.0938 669.1875,18.0938 C666.5625,18.0938 664.5625,20.1719 664.5625,22.8906 L664.5625,24.0156 C664.5625,26.5938 666.6719,28.4844 669.5625,28.4844 C670.7813,28.4844 671.9375,28.1875 672.6875,27.6406 C673.2656,27.2344 673.5938,26.7813 673.5938,26.3906 C673.5938,25.9375 673.2031,25.5469 672.7344,25.5469 C672.5156,25.5469 672.3125,25.625 672.125,25.8125 C671.6719,26.2969 671.6719,26.2969 671.4844,26.3906 C671.0625,26.6563 670.375,26.7813 669.6094,26.7813 C667.5625,26.7813 666.2656,25.6875 666.2656,23.9844 L666.2656,22.8906 C666.2656,21.1094 667.5156,19.7969 669.25,19.7969 C669.8281,19.7969 670.4375,19.9531 670.9063,20.2031 C671.3906,20.4844 671.5625,20.7031 671.6563,21.1094 C671.7188,21.5156 671.75,21.6406 671.8906,21.7656 C672.0313,21.9063 672.2656,22.0156 672.4844,22.0156 C672.75,22.0156 673.0156,21.875 673.1875,21.6563 C673.2969,21.5 673.3281,21.3125 673.3281,20.8906 L673.3281,19.4688 C673.3281,19.0313 673.3125,18.9063 673.2188,18.75 C673.0625,18.4844 672.7813,18.3438 672.4844,18.3438 C672.1875,18.3438 671.9844,18.4375 671.7656,18.75 L671.5938,18.6719 Z " fill="#000000"/><text fill="#000000" font-family="sans-serif" font-size="14" lengthAdjust="spacing" textLength="36" x="689.75" y="27.8467">Child</text><line style="stroke:#000000;stroke-width:0.5;" x1="614.5" x2="768.5" y1="39" y2="39"/><rect fill="none" height="6" style="stroke:#C82930;stroke-width:1.0;" width="6" x="621.5" y="49.6484"/><text fill="#000000" font-family="sans-serif" font-size="14" lengthAdjust="spacing" textLength="76" x="633.5" y="55.9951">childId: int</text><rect fill="none" height="6" style="stroke:#C82930;stroke-width:1.0;" width="6" x="621.5" y="65.9453"/><text fill="#000000" font-family="sans-serif" font-size="14" lengthAdjust="spacing" textLength="91" x="633.5" y="72.292">parentId: int</text><rect fill="none" height="6" style="stroke:#C82930;stroke-width:1.0;" width="6" x="621.5" y="82.2422"/><text fill="#000000" font-family="sans-serif" font-size="14" lengthAdjust="spacing" textLength="124" x="633.5" y="88.5889">firstName: String</text><rect fill="none" height="6" style="stroke:#C82930;stroke-width:1.0;" width="6" x="621.5" y="98.5391"/><text fill="#000000" font-family="sans-serif" font-size="14" lengthAdjust="spacing" textLength="120" x="633.5" y="104.8857">lastName: String</text><rect fill="none" height="6" style="stroke:#C82930;stroke-width:1.0;" width="6" x="621.5" y="114.8359"/><text fill="#000000" font-family="sans-serif" font-size="14" lengthAdjust="spacing" textLength="130" x="633.5" y="121.1826">dateOfBirth: Date</text><rect fill="none" height="6" style="stroke:#C82930;stroke-width:1.0;" width="6" x="621.5" y="131.1328"/><text fill="#000000" font-family="sans-serif" font-size="14" lengthAdjust="spacing" textLength="104" x="633.5" y="137.4795">gender: String</text><rect fill="none" height="6" style="stroke:#C82930;stroke-width:1.0;" width="6" x="621.5" y="147.4297"/><text fill="#000000" font-family="sans-serif" font-size="14" lengthAdjust="spacing" textLength="105" x="633.5" y="153.7764">height: double</text><rect fill="none" height="6" style="stroke:#C82930;stroke-width:1.0;" width="6" x="621.5" y="163.7266"/><text fill="#000000" font-family="sans-serif" font-size="14" lengthAdjust="spacing" textLength="107" x="633.5" y="170.0732">weight: double</text><rect fill="none" height="6" style="stroke:#C82930;stroke-width:1.0;" width="6" x="621.5" y="180.0234"/><text fill="#000000" font-family="sans-serif" font-size="14" lengthAdjust="spacing" textLength="87" x="633.5" y="186.3701">note: String</text><line style="stroke:#000000;stroke-width:0.5;" x1="614.5" x2="768.5" y1="193.6719" y2="193.6719"/></g><!--class DoctorInstruction--><g id="elem_DoctorInstruction"><rect codeLine="49" fill="#FFFAFA" height="96.8906" id="DoctorInstruction" rx="2.5" ry="2.5" style="stroke:#000000;stroke-width:0.5;" width="160" x="530.5" y="439"/><ellipse cx="545.5" cy="455" fill="#ADD1B2" rx="11" ry="11" style="stroke:#181818;stroke-width:1.0;"/><path d="M547.8438,450.6719 C546.9063,450.2344 546.3125,450.0938 545.4375,450.0938 C542.8125,450.0938 540.8125,452.1719 540.8125,454.8906 L540.8125,456.0156 C540.8125,458.5938 542.9219,460.4844 545.8125,460.4844 C547.0313,460.4844 548.1875,460.1875 548.9375,459.6406 C549.5156,459.2344 549.8438,458.7813 549.8438,458.3906 C549.8438,457.9375 549.4531,457.5469 548.9844,457.5469 C548.7656,457.5469 548.5625,457.625 548.375,457.8125 C547.9219,458.2969 547.9219,458.2969 547.7344,458.3906 C547.3125,458.6563 546.625,458.7813 545.8594,458.7813 C543.8125,458.7813 542.5156,457.6875 542.5156,455.9844 L542.5156,454.8906 C542.5156,453.1094 543.7656,451.7969 545.5,451.7969 C546.0781,451.7969 546.6875,451.9531 547.1563,452.2031 C547.6406,452.4844 547.8125,452.7031 547.9063,453.1094 C547.9688,453.5156 548,453.6406 548.1406,453.7656 C548.2813,453.9063 548.5156,454.0156 548.7344,454.0156 C549,454.0156 549.2656,453.875 549.4375,453.6563 C549.5469,453.5 549.5781,453.3125 549.5781,452.8906 L549.5781,451.4688 C549.5781,451.0313 549.5625,450.9063 549.4688,450.75 C549.3125,450.4844 549.0313,450.3438 548.7344,450.3438 C548.4375,450.3438 548.2344,450.4375 548.0156,450.75 L547.8438,450.6719 Z " fill="#000000"/><text fill="#000000" font-family="sans-serif" font-size="14" lengthAdjust="spacing" textLength="128" x="559.5" y="459.8467">DoctorInstruction</text><line style="stroke:#000000;stroke-width:0.5;" x1="531.5" x2="689.5" y1="471" y2="471"/><rect fill="none" height="6" style="stroke:#C82930;stroke-width:1.0;" width="6" x="538.5" y="481.6484"/><text fill="#000000" font-family="sans-serif" font-size="14" lengthAdjust="spacing" textLength="76" x="550.5" y="487.9951">childId: int</text><rect fill="none" height="6" style="stroke:#C82930;stroke-width:1.0;" width="6" x="538.5" y="497.9453"/><text fill="#000000" font-family="sans-serif" font-size="14" lengthAdjust="spacing" textLength="90" x="550.5" y="504.292">doctorId: int</text><rect fill="none" height="6" style="stroke:#C82930;stroke-width:1.0;" width="6" x="538.5" y="514.2422"/><text fill="#000000" font-family="sans-serif" font-size="14" lengthAdjust="spacing" textLength="77" x="550.5" y="520.5889">date: Date</text><line style="stroke:#000000;stroke-width:0.5;" x1="531.5" x2="689.5" y1="527.8906" y2="527.8906"/></g><polygon fill="none" points="607.0423,535.8906,612.6007,556.3382,598.6362,555.3415" style="stroke:#000000;stroke-width:1.0;"/><line style="stroke:#000000;stroke-width:1.0;" x1="605.6185" x2="605.5" y1="555.8399" y2="557.5"/><line style="stroke:#000000;stroke-width:1.0;" x1="603.1664" x2="600.083" y1="439" y2="418.631"/><line style="stroke:#000000;stroke-width:1.0;" x1="530.5" x2="510.23" y1="439.2991" y2="427.1"/><!--class Prescription--><g id="elem_Prescription"><rect codeLine="55" fill="#FFFAFA" height="64.2969" id="Prescription" rx="2.5" ry="2.5" style="stroke:#000000;stroke-width:0.5;" width="157" x="369" y="648.5"/><ellipse cx="400.65" cy="664.5" fill="#ADD1B2" rx="11" ry="11" style="stroke:#181818;stroke-width:1.0;"/><path d="M402.9938,660.1719 C402.0563,659.7344 401.4625,659.5938 400.5875,659.5938 C397.9625,659.5938 395.9625,661.6719 395.9625,664.3906 L395.9625,665.5156 C395.9625,668.0938 398.0719,669.9844 400.9625,669.9844 C402.1813,669.9844 403.3375,669.6875 404.0875,669.1406 C404.6656,668.7344 404.9938,668.2813 404.9938,667.8906 C404.9938,667.4375 404.6031,667.0469 404.1344,667.0469 C403.9156,667.0469 403.7125,667.125 403.525,667.3125 C403.0719,667.7969 403.0719,667.7969 402.8844,667.8906 C402.4625,668.1563 401.775,668.2813 401.0094,668.2813 C398.9625,668.2813 397.6656,667.1875 397.6656,665.4844 L397.6656,664.3906 C397.6656,662.6094 398.9156,661.2969 400.65,661.2969 C401.2281,661.2969 401.8375,661.4531 402.3063,661.7031 C402.7906,661.9844 402.9625,662.2031 403.0563,662.6094 C403.1188,663.0156 403.15,663.1406 403.2906,663.2656 C403.4313,663.4063 403.6656,663.5156 403.8844,663.5156 C404.15,663.5156 404.4156,663.375 404.5875,663.1563 C404.6969,663 404.7281,662.8125 404.7281,662.3906 L404.7281,660.9688 C404.7281,660.5313 404.7125,660.4063 404.6188,660.25 C404.4625,659.9844 404.1813,659.8438 403.8844,659.8438 C403.5875,659.8438 403.3844,659.9375 403.1656,660.25 L402.9938,660.1719 Z " fill="#000000"/><text fill="#000000" font-family="sans-serif" font-size="14" lengthAdjust="spacing" textLength="88" x="418.35" y="669.3467">Prescription</text><line style="stroke:#000000;stroke-width:0.5;" x1="370" x2="525" y1="680.5" y2="680.5"/><rect fill="none" height="6" style="stroke:#C82930;stroke-width:1.0;" width="6" x="377" y="691.1484"/><text fill="#000000" font-family="sans-serif" font-size="14" lengthAdjust="spacing" textLength="131" x="389" y="697.4951">prescriptionId: int</text><line style="stroke:#000000;stroke-width:0.5;" x1="370" x2="525" y1="704.7969" y2="704.7969"/></g><!--class PrescriptionDetail--><g id="elem_PrescriptionDetail"><rect codeLine="59" fill="#FFFAFA" height="129.4844" id="PrescriptionDetail" rx="2.5" ry="2.5" style="stroke:#000000;stroke-width:0.5;" width="200" x="275.5" y="423"/><ellipse cx="307.15" cy="439" fill="#ADD1B2" rx="11" ry="11" style="stroke:#181818;stroke-width:1.0;"/><path d="M309.4938,434.6719 C308.5563,434.2344 307.9625,434.0938 307.0875,434.0938 C304.4625,434.0938 302.4625,436.1719 302.4625,438.8906 L302.4625,440.0156 C302.4625,442.5938 304.5719,444.4844 307.4625,444.4844 C308.6813,444.4844 309.8375,444.1875 310.5875,443.6406 C311.1656,443.2344 311.4938,442.7813 311.4938,442.3906 C311.4938,441.9375 311.1031,441.5469 310.6344,441.5469 C310.4156,441.5469 310.2125,441.625 310.025,441.8125 C309.5719,442.2969 309.5719,442.2969 309.3844,442.3906 C308.9625,442.6563 308.275,442.7813 307.5094,442.7813 C305.4625,442.7813 304.1656,441.6875 304.1656,439.9844 L304.1656,438.8906 C304.1656,437.1094 305.4156,435.7969 307.15,435.7969 C307.7281,435.7969 308.3375,435.9531 308.8063,436.2031 C309.2906,436.4844 309.4625,436.7031 309.5563,437.1094 C309.6188,437.5156 309.65,437.6406 309.7906,437.7656 C309.9313,437.9063 310.1656,438.0156 310.3844,438.0156 C310.65,438.0156 310.9156,437.875 311.0875,437.6563 C311.1969,437.5 311.2281,437.3125 311.2281,436.8906 L311.2281,435.4688 C311.2281,435.0313 311.2125,434.9063 311.1188,434.75 C310.9625,434.4844 310.6813,434.3438 310.3844,434.3438 C310.0875,434.3438 309.8844,434.4375 309.6656,434.75 L309.4938,434.6719 Z " fill="#000000"/><text fill="#000000" font-family="sans-serif" font-size="14" lengthAdjust="spacing" textLength="131" x="324.85" y="443.8467">PrescriptionDetail</text><line style="stroke:#000000;stroke-width:0.5;" x1="276.5" x2="474.5" y1="455" y2="455"/><rect fill="none" height="6" style="stroke:#C82930;stroke-width:1.0;" width="6" x="283.5" y="465.6484"/><text fill="#000000" font-family="sans-serif" font-size="14" lengthAdjust="spacing" textLength="174" x="295.5" y="471.9951">prescriptionDetailId: int</text><rect fill="none" height="6" style="stroke:#C82930;stroke-width:1.0;" width="6" x="283.5" y="481.9453"/><text fill="#000000" font-family="sans-serif" font-size="14" lengthAdjust="spacing" textLength="131" x="295.5" y="488.292">prescriptionId: int</text><rect fill="none" height="6" style="stroke:#C82930;stroke-width:1.0;" width="6" x="283.5" y="498.2422"/><text fill="#000000" font-family="sans-serif" font-size="14" lengthAdjust="spacing" textLength="160" x="295.5" y="504.5889">medicineName: String</text><rect fill="none" height="6" style="stroke:#C82930;stroke-width:1.0;" width="6" x="283.5" y="514.5391"/><text fill="#000000" font-family="sans-serif" font-size="14" lengthAdjust="spacing" textLength="104" x="295.5" y="520.8857">dosage: String</text><rect fill="none" height="6" style="stroke:#C82930;stroke-width:1.0;" width="6" x="283.5" y="530.8359"/><text fill="#000000" font-family="sans-serif" font-size="14" lengthAdjust="spacing" textLength="138" x="295.5" y="537.1826">instructions: String</text><line style="stroke:#000000;stroke-width:0.5;" x1="276.5" x2="474.5" y1="544.4844" y2="544.4844"/></g><!--class ImmunizationSchedule--><g id="elem_ImmunizationSchedule"><rect codeLine="67" fill="#FFFAFA" height="64.2969" id="ImmunizationSchedule" rx="2.5" ry="2.5" style="stroke:#000000;stroke-width:0.5;" width="195" x="633" y="648.5"/><ellipse cx="648" cy="664.5" fill="#ADD1B2" rx="11" ry="11" style="stroke:#181818;stroke-width:1.0;"/><path d="M650.3438,660.1719 C649.4063,659.7344 648.8125,659.5938 647.9375,659.5938 C645.3125,659.5938 643.3125,661.6719 643.3125,664.3906 L643.3125,665.5156 C643.3125,668.0938 645.4219,669.9844 648.3125,669.9844 C649.5313,669.9844 650.6875,669.6875 651.4375,669.1406 C652.0156,668.7344 652.3438,668.2813 652.3438,667.8906 C652.3438,667.4375 651.9531,667.0469 651.4844,667.0469 C651.2656,667.0469 651.0625,667.125 650.875,667.3125 C650.4219,667.7969 650.4219,667.7969 650.2344,667.8906 C649.8125,668.1563 649.125,668.2813 648.3594,668.2813 C646.3125,668.2813 645.0156,667.1875 645.0156,665.4844 L645.0156,664.3906 C645.0156,662.6094 646.2656,661.2969 648,661.2969 C648.5781,661.2969 649.1875,661.4531 649.6563,661.7031 C650.1406,661.9844 650.3125,662.2031 650.4063,662.6094 C650.4688,663.0156 650.5,663.1406 650.6406,663.2656 C650.7813,663.4063 651.0156,663.5156 651.2344,663.5156 C651.5,663.5156 651.7656,663.375 651.9375,663.1563 C652.0469,663 652.0781,662.8125 652.0781,662.3906 L652.0781,660.9688 C652.0781,660.5313 652.0625,660.4063 651.9688,660.25 C651.8125,659.9844 651.5313,659.8438 651.2344,659.8438 C650.9375,659.8438 650.7344,659.9375 650.5156,660.25 L650.3438,660.1719 Z " fill="#000000"/><text fill="#000000" font-family="sans-serif" font-size="14" lengthAdjust="spacing" textLength="163" x="662" y="669.3467">ImmunizationSchedule</text><line style="stroke:#000000;stroke-width:0.5;" x1="634" x2="827" y1="680.5" y2="680.5"/><rect fill="none" height="6" style="stroke:#C82930;stroke-width:1.0;" width="6" x="641" y="691.1484"/><text fill="#000000" font-family="sans-serif" font-size="14" lengthAdjust="spacing" textLength="105" x="653" y="697.4951">scheduleId: int</text><line style="stroke:#000000;stroke-width:0.5;" x1="634" x2="827" y1="704.7969" y2="704.7969"/></g><!--class ImmunizationDetail--><g id="elem_ImmunizationDetail"><rect codeLine="71" fill="#FFFAFA" height="129.4844" id="ImmunizationDetail" rx="2.5" ry="2.5" style="stroke:#000000;stroke-width:0.5;" width="209" x="746" y="423"/><ellipse cx="777.2" cy="439" fill="#ADD1B2" rx="11" ry="11" style="stroke:#181818;stroke-width:1.0;"/><path d="M779.5438,434.6719 C778.6063,434.2344 778.0125,434.0938 777.1375,434.0938 C774.5125,434.0938 772.5125,436.1719 772.5125,438.8906 L772.5125,440.0156 C772.5125,442.5938 774.6219,444.4844 777.5125,444.4844 C778.7313,444.4844 779.8875,444.1875 780.6375,443.6406 C781.2156,443.2344 781.5438,442.7813 781.5438,442.3906 C781.5438,441.9375 781.1531,441.5469 780.6844,441.5469 C780.4656,441.5469 780.2625,441.625 780.075,441.8125 C779.6219,442.2969 779.6219,442.2969 779.4344,442.3906 C779.0125,442.6563 778.325,442.7813 777.5594,442.7813 C775.5125,442.7813 774.2156,441.6875 774.2156,439.9844 L774.2156,438.8906 C774.2156,437.1094 775.4656,435.7969 777.2,435.7969 C777.7781,435.7969 778.3875,435.9531 778.8563,436.2031 C779.3406,436.4844 779.5125,436.7031 779.6063,437.1094 C779.6688,437.5156 779.7,437.6406 779.8406,437.7656 C779.9813,437.9063 780.2156,438.0156 780.4344,438.0156 C780.7,438.0156 780.9656,437.875 781.1375,437.6563 C781.2469,437.5 781.2781,437.3125 781.2781,436.8906 L781.2781,435.4688 C781.2781,435.0313 781.2625,434.9063 781.1688,434.75 C781.0125,434.4844 780.7313,434.3438 780.4344,434.3438 C780.1375,434.3438 779.9344,434.4375 779.7156,434.75 L779.5438,434.6719 Z " fill="#000000"/><text fill="#000000" font-family="sans-serif" font-size="14" lengthAdjust="spacing" textLength="141" x="794.8" y="443.8467">ImmunizationDetail</text><line style="stroke:#000000;stroke-width:0.5;" x1="747" x2="954" y1="455" y2="455"/><rect fill="none" height="6" style="stroke:#C82930;stroke-width:1.0;" width="6" x="754" y="465.6484"/><text fill="#000000" font-family="sans-serif" font-size="14" lengthAdjust="spacing" textLength="183" x="766" y="471.9951">immunizationDetailId: int</text><rect fill="none" height="6" style="stroke:#C82930;stroke-width:1.0;" width="6" x="754" y="481.9453"/><text fill="#000000" font-family="sans-serif" font-size="14" lengthAdjust="spacing" textLength="105" x="766" y="488.292">scheduleId: int</text><rect fill="none" height="6" style="stroke:#C82930;stroke-width:1.0;" width="6" x="754" y="498.2422"/><text fill="#000000" font-family="sans-serif" font-size="14" lengthAdjust="spacing" textLength="148" x="766" y="504.5889">vaccineName: String</text><rect fill="none" height="6" style="stroke:#C82930;stroke-width:1.0;" width="6" x="754" y="514.5391"/><text fill="#000000" font-family="sans-serif" font-size="14" lengthAdjust="spacing" textLength="104" x="766" y="520.8857">dosage: String</text><rect fill="none" height="6" style="stroke:#C82930;stroke-width:1.0;" width="6" x="754" y="530.8359"/><text fill="#000000" font-family="sans-serif" font-size="14" lengthAdjust="spacing" textLength="87" x="766" y="537.1826">note: String</text><line style="stroke:#000000;stroke-width:0.5;" x1="747" x2="954" y1="544.4844" y2="544.4844"/></g><!--class Activity--><g id="elem_Activity"><rect codeLine="82" fill="#FFFAFA" height="129.4844" id="Activity" rx="2.5" ry="2.5" style="stroke:#000000;stroke-width:0.5;" width="161" x="825" y="40"/><ellipse cx="873.25" cy="56" fill="#ADD1B2" rx="11" ry="11" style="stroke:#181818;stroke-width:1.0;"/><path d="M875.5938,51.6719 C874.6563,51.2344 874.0625,51.0938 873.1875,51.0938 C870.5625,51.0938 868.5625,53.1719 868.5625,55.8906 L868.5625,57.0156 C868.5625,59.5938 870.6719,61.4844 873.5625,61.4844 C874.7813,61.4844 875.9375,61.1875 876.6875,60.6406 C877.2656,60.2344 877.5938,59.7813 877.5938,59.3906 C877.5938,58.9375 877.2031,58.5469 876.7344,58.5469 C876.5156,58.5469 876.3125,58.625 876.125,58.8125 C875.6719,59.2969 875.6719,59.2969 875.4844,59.3906 C875.0625,59.6563 874.375,59.7813 873.6094,59.7813 C871.5625,59.7813 870.2656,58.6875 870.2656,56.9844 L870.2656,55.8906 C870.2656,54.1094 871.5156,52.7969 873.25,52.7969 C873.8281,52.7969 874.4375,52.9531 874.9063,53.2031 C875.3906,53.4844 875.5625,53.7031 875.6563,54.1094 C875.7188,54.5156 875.75,54.6406 875.8906,54.7656 C876.0313,54.9063 876.2656,55.0156 876.4844,55.0156 C876.75,55.0156 877.0156,54.875 877.1875,54.6563 C877.2969,54.5 877.3281,54.3125 877.3281,53.8906 L877.3281,52.4688 C877.3281,52.0313 877.3125,51.9063 877.2188,51.75 C877.0625,51.4844 876.7813,51.3438 876.4844,51.3438 C876.1875,51.3438 875.9844,51.4375 875.7656,51.75 L875.5938,51.6719 Z " fill="#000000"/><text fill="#000000" font-family="sans-serif" font-size="14" lengthAdjust="spacing" textLength="56" x="893.75" y="60.8467">Activity</text><line style="stroke:#000000;stroke-width:0.5;" x1="826" x2="985" y1="72" y2="72"/><rect fill="none" height="6" style="stroke:#C82930;stroke-width:1.0;" width="6" x="833" y="82.6484"/><text fill="#000000" font-family="sans-serif" font-size="14" lengthAdjust="spacing" textLength="133" x="845" y="88.9951">activityDate: Date</text><rect fill="none" height="6" style="stroke:#C82930;stroke-width:1.0;" width="6" x="833" y="98.9453"/><text fill="#000000" font-family="sans-serif" font-size="14" lengthAdjust="spacing" textLength="116" x="845" y="105.292">startTime: Time</text><rect fill="none" height="6" style="stroke:#C82930;stroke-width:1.0;" width="6" x="833" y="115.2422"/><text fill="#000000" font-family="sans-serif" font-size="14" lengthAdjust="spacing" textLength="108" x="845" y="121.5889">endTime: Time</text><rect fill="none" height="6" style="stroke:#C82930;stroke-width:1.0;" width="6" x="833" y="131.5391"/><text fill="#000000" font-family="sans-serif" font-size="14" lengthAdjust="spacing" textLength="135" x="845" y="137.8857">description: String</text><rect fill="none" height="6" style="stroke:#C82930;stroke-width:1.0;" width="6" x="833" y="147.8359"/><text fill="#000000" font-family="sans-serif" font-size="14" lengthAdjust="spacing" textLength="87" x="845" y="154.1826">note: String</text><line style="stroke:#000000;stroke-width:0.5;" x1="826" x2="985" y1="161.4844" y2="161.4844"/></g><polygon fill="none" points="904.7451,169.4844,911.5114,189.5646,897.5123,189.4014" style="stroke:#000000;stroke-width:1.0;"/><line style="stroke:#000000;stroke-width:1.0;" x1="904.5119" x2="904.5" y1="189.483" y2="190.5"/><!--class MealTime--><g id="elem_MealTime"><rect codeLine="90" fill="#FFFAFA" height="80.5938" id="MealTime" rx="2.5" ry="2.5" style="stroke:#000000;stroke-width:0.5;" width="139" x="1025" y="270"/><ellipse cx="1057.1" cy="286" fill="#ADD1B2" rx="11" ry="11" style="stroke:#181818;stroke-width:1.0;"/><path d="M1059.4438,281.6719 C1058.5063,281.2344 1057.9125,281.0938 1057.0375,281.0938 C1054.4125,281.0938 1052.4125,283.1719 1052.4125,285.8906 L1052.4125,287.0156 C1052.4125,289.5938 1054.5219,291.4844 1057.4125,291.4844 C1058.6313,291.4844 1059.7875,291.1875 1060.5375,290.6406 C1061.1156,290.2344 1061.4438,289.7813 1061.4438,289.3906 C1061.4438,288.9375 1061.0531,288.5469 1060.5844,288.5469 C1060.3656,288.5469 1060.1625,288.625 1059.975,288.8125 C1059.5219,289.2969 1059.5219,289.2969 1059.3344,289.3906 C1058.9125,289.6563 1058.225,289.7813 1057.4594,289.7813 C1055.4125,289.7813 1054.1156,288.6875 1054.1156,286.9844 L1054.1156,285.8906 C1054.1156,284.1094 1055.3656,282.7969 1057.1,282.7969 C1057.6781,282.7969 1058.2875,282.9531 1058.7563,283.2031 C1059.2406,283.4844 1059.4125,283.7031 1059.5063,284.1094 C1059.5688,284.5156 1059.6,284.6406 1059.7406,284.7656 C1059.8813,284.9063 1060.1156,285.0156 1060.3344,285.0156 C1060.6,285.0156 1060.8656,284.875 1061.0375,284.6563 C1061.1469,284.5 1061.1781,284.3125 1061.1781,283.8906 L1061.1781,282.4688 C1061.1781,282.0313 1061.1625,281.9063 1061.0688,281.75 C1060.9125,281.4844 1060.6313,281.3438 1060.3344,281.3438 C1060.0375,281.3438 1059.8344,281.4375 1059.6156,281.75 L1059.4438,281.6719 Z " fill="#000000"/><text fill="#000000" font-family="sans-serif" font-size="14" lengthAdjust="spacing" textLength="69" x="1074.9" y="290.8467">MealTime</text><line style="stroke:#000000;stroke-width:0.5;" x1="1026" x2="1163" y1="302" y2="302"/><rect fill="none" height="6" style="stroke:#C82930;stroke-width:1.0;" width="6" x="1033" y="312.6484"/><text fill="#000000" font-family="sans-serif" font-size="14" lengthAdjust="spacing" textLength="113" x="1045" y="318.9951">mealTimeId: int</text><rect fill="none" height="6" style="stroke:#C82930;stroke-width:1.0;" width="6" x="1033" y="328.9453"/><text fill="#000000" font-family="sans-serif" font-size="14" lengthAdjust="spacing" textLength="100" x="1045" y="335.292">source: String</text><line style="stroke:#000000;stroke-width:0.5;" x1="1026" x2="1163" y1="342.5938" y2="342.5938"/></g><!--class MealTimeDetail--><g id="elem_MealTimeDetail"><rect codeLine="95" fill="#FFFAFA" height="96.8906" id="MealTimeDetail" rx="2.5" ry="2.5" style="stroke:#000000;stroke-width:0.5;" width="153" x="1041" y="56"/><ellipse cx="1060.05" cy="72" fill="#ADD1B2" rx="11" ry="11" style="stroke:#181818;stroke-width:1.0;"/><path d="M1062.3938,67.6719 C1061.4563,67.2344 1060.8625,67.0938 1059.9875,67.0938 C1057.3625,67.0938 1055.3625,69.1719 1055.3625,71.8906 L1055.3625,73.0156 C1055.3625,75.5938 1057.4719,77.4844 1060.3625,77.4844 C1061.5813,77.4844 1062.7375,77.1875 1063.4875,76.6406 C1064.0656,76.2344 1064.3938,75.7813 1064.3938,75.3906 C1064.3938,74.9375 1064.0031,74.5469 1063.5344,74.5469 C1063.3156,74.5469 1063.1125,74.625 1062.925,74.8125 C1062.4719,75.2969 1062.4719,75.2969 1062.2844,75.3906 C1061.8625,75.6563 1061.175,75.7813 1060.4094,75.7813 C1058.3625,75.7813 1057.0656,74.6875 1057.0656,72.9844 L1057.0656,71.8906 C1057.0656,70.1094 1058.3156,68.7969 1060.05,68.7969 C1060.6281,68.7969 1061.2375,68.9531 1061.7063,69.2031 C1062.1906,69.4844 1062.3625,69.7031 1062.4563,70.1094 C1062.5188,70.5156 1062.55,70.6406 1062.6906,70.7656 C1062.8313,70.9063 1063.0656,71.0156 1063.2844,71.0156 C1063.55,71.0156 1063.8156,70.875 1063.9875,70.6563 C1064.0969,70.5 1064.1281,70.3125 1064.1281,69.8906 L1064.1281,68.4688 C1064.1281,68.0313 1064.1125,67.9063 1064.0188,67.75 C1063.8625,67.4844 1063.5813,67.3438 1063.2844,67.3438 C1062.9875,67.3438 1062.7844,67.4375 1062.5656,67.75 L1062.3938,67.6719 Z " fill="#000000"/><text fill="#000000" font-family="sans-serif" font-size="14" lengthAdjust="spacing" textLength="112" x="1074.95" y="76.8467">MealTimeDetail</text><line style="stroke:#000000;stroke-width:0.5;" x1="1042" x2="1193" y1="88" y2="88"/><rect fill="none" height="6" style="stroke:#C82930;stroke-width:1.0;" width="6" x="1049" y="98.6484"/><text fill="#000000" font-family="sans-serif" font-size="14" lengthAdjust="spacing" textLength="113" x="1061" y="104.9951">mealTimeId: int</text><rect fill="none" height="6" style="stroke:#C82930;stroke-width:1.0;" width="6" x="1049" y="114.9453"/><text fill="#000000" font-family="sans-serif" font-size="14" lengthAdjust="spacing" textLength="127" x="1061" y="121.292">foodName: String</text><rect fill="none" height="6" style="stroke:#C82930;stroke-width:1.0;" width="6" x="1049" y="131.2422"/><text fill="#000000" font-family="sans-serif" font-size="14" lengthAdjust="spacing" textLength="84" x="1061" y="137.5889">calories: int</text><line style="stroke:#000000;stroke-width:0.5;" x1="1042" x2="1193" y1="144.8906" y2="144.8906"/></g><!--class SleepTime--><g id="elem_SleepTime"><rect codeLine="101" fill="#FFFAFA" height="80.5938" id="SleepTime" rx="2.5" ry="2.5" style="stroke:#000000;stroke-width:0.5;" width="168" x="821.5" y="270"/><ellipse cx="863.05" cy="286" fill="#ADD1B2" rx="11" ry="11" style="stroke:#181818;stroke-width:1.0;"/><path d="M865.3938,281.6719 C864.4563,281.2344 863.8625,281.0938 862.9875,281.0938 C860.3625,281.0938 858.3625,283.1719 858.3625,285.8906 L858.3625,287.0156 C858.3625,289.5938 860.4719,291.4844 863.3625,291.4844 C864.5813,291.4844 865.7375,291.1875 866.4875,290.6406 C867.0656,290.2344 867.3938,289.7813 867.3938,289.3906 C867.3938,288.9375 867.0031,288.5469 866.5344,288.5469 C866.3156,288.5469 866.1125,288.625 865.925,288.8125 C865.4719,289.2969 865.4719,289.2969 865.2844,289.3906 C864.8625,289.6563 864.175,289.7813 863.4094,289.7813 C861.3625,289.7813 860.0656,288.6875 860.0656,286.9844 L860.0656,285.8906 C860.0656,284.1094 861.3156,282.7969 863.05,282.7969 C863.6281,282.7969 864.2375,282.9531 864.7063,283.2031 C865.1906,283.4844 865.3625,283.7031 865.4563,284.1094 C865.5188,284.5156 865.55,284.6406 865.6906,284.7656 C865.8313,284.9063 866.0656,285.0156 866.2844,285.0156 C866.55,285.0156 866.8156,284.875 866.9875,284.6563 C867.0969,284.5 867.1281,284.3125 867.1281,283.8906 L867.1281,282.4688 C867.1281,282.0313 867.1125,281.9063 867.0188,281.75 C866.8625,281.4844 866.5813,281.3438 866.2844,281.3438 C865.9875,281.3438 865.7844,281.4375 865.5656,281.75 L865.3938,281.6719 Z " fill="#000000"/><text fill="#000000" font-family="sans-serif" font-size="14" lengthAdjust="spacing" textLength="77" x="882.95" y="290.8467">SleepTime</text><line style="stroke:#000000;stroke-width:0.5;" x1="822.5" x2="988.5" y1="302" y2="302"/><rect fill="none" height="6" style="stroke:#C82930;stroke-width:1.0;" width="6" x="829.5" y="312.6484"/><text fill="#000000" font-family="sans-serif" font-size="14" lengthAdjust="spacing" textLength="117" x="841.5" y="318.9951">sleepTimeId: int</text><rect fill="none" height="6" style="stroke:#C82930;stroke-width:1.0;" width="6" x="829.5" y="328.9453"/><text fill="#000000" font-family="sans-serif" font-size="14" lengthAdjust="spacing" textLength="142" x="841.5" y="335.292">sleepQuality: String</text><line style="stroke:#000000;stroke-width:0.5;" x1="822.5" x2="988.5" y1="342.5938" y2="342.5938"/></g><!--class ChildEvent--><g id="elem_ChildEvent"><rect codeLine="106" fill="#FFFAFA" height="96.8906" id="ChildEvent" rx="2.5" ry="2.5" style="stroke:#000000;stroke-width:0.5;" width="162" x="624.5" y="262"/><ellipse cx="662.9" cy="278" fill="#ADD1B2" rx="11" ry="11" style="stroke:#181818;stroke-width:1.0;"/><path d="M665.2438,273.6719 C664.3063,273.2344 663.7125,273.0938 662.8375,273.0938 C660.2125,273.0938 658.2125,275.1719 658.2125,277.8906 L658.2125,279.0156 C658.2125,281.5938 660.3219,283.4844 663.2125,283.4844 C664.4313,283.4844 665.5875,283.1875 666.3375,282.6406 C666.9156,282.2344 667.2438,281.7813 667.2438,281.3906 C667.2438,280.9375 666.8531,280.5469 666.3844,280.5469 C666.1656,280.5469 665.9625,280.625 665.775,280.8125 C665.3219,281.2969 665.3219,281.2969 665.1344,281.3906 C664.7125,281.6563 664.025,281.7813 663.2594,281.7813 C661.2125,281.7813 659.9156,280.6875 659.9156,278.9844 L659.9156,277.8906 C659.9156,276.1094 661.1656,274.7969 662.9,274.7969 C663.4781,274.7969 664.0875,274.9531 664.5563,275.2031 C665.0406,275.4844 665.2125,275.7031 665.3063,276.1094 C665.3688,276.5156 665.4,276.6406 665.5406,276.7656 C665.6813,276.9063 665.9156,277.0156 666.1344,277.0156 C666.4,277.0156 666.6656,276.875 666.8375,276.6563 C666.9469,276.5 666.9781,276.3125 666.9781,275.8906 L666.9781,274.4688 C666.9781,274.0313 666.9625,273.9063 666.8688,273.75 C666.7125,273.4844 666.4313,273.3438 666.1344,273.3438 C665.8375,273.3438 665.6344,273.4375 665.4156,273.75 L665.2438,273.6719 Z " fill="#000000"/><text fill="#000000" font-family="sans-serif" font-size="14" lengthAdjust="spacing" textLength="78" x="682.1" y="282.8467">ChildEvent</text><line style="stroke:#000000;stroke-width:0.5;" x1="625.5" x2="785.5" y1="294" y2="294"/><rect fill="none" height="6" style="stroke:#C82930;stroke-width:1.0;" width="6" x="632.5" y="304.6484"/><text fill="#000000" font-family="sans-serif" font-size="14" lengthAdjust="spacing" textLength="84" x="644.5" y="310.9951">eventId: int</text><rect fill="none" height="6" style="stroke:#C82930;stroke-width:1.0;" width="6" x="632.5" y="320.9453"/><text fill="#000000" font-family="sans-serif" font-size="14" lengthAdjust="spacing" textLength="136" x="644.5" y="327.292">eventName: String</text><rect fill="none" height="6" style="stroke:#C82930;stroke-width:1.0;" width="6" x="632.5" y="337.2422"/><text fill="#000000" font-family="sans-serif" font-size="14" lengthAdjust="spacing" textLength="111" x="644.5" y="343.5889">location: String</text><line style="stroke:#000000;stroke-width:0.5;" x1="625.5" x2="785.5" y1="350.8906" y2="350.8906"/></g><!--class Conversation--><g id="elem_Conversation"><rect codeLine="116" fill="#FFFAFA" height="129.4844" id="Conversation" rx="2.5" ry="2.5" style="stroke:#000000;stroke-width:0.5;" width="193" x="47" y="423"/><ellipse cx="91.75" cy="439" fill="#ADD1B2" rx="11" ry="11" style="stroke:#181818;stroke-width:1.0;"/><path d="M94.0938,434.6719 C93.1563,434.2344 92.5625,434.0938 91.6875,434.0938 C89.0625,434.0938 87.0625,436.1719 87.0625,438.8906 L87.0625,440.0156 C87.0625,442.5938 89.1719,444.4844 92.0625,444.4844 C93.2813,444.4844 94.4375,444.1875 95.1875,443.6406 C95.7656,443.2344 96.0938,442.7813 96.0938,442.3906 C96.0938,441.9375 95.7031,441.5469 95.2344,441.5469 C95.0156,441.5469 94.8125,441.625 94.625,441.8125 C94.1719,442.2969 94.1719,442.2969 93.9844,442.3906 C93.5625,442.6563 92.875,442.7813 92.1094,442.7813 C90.0625,442.7813 88.7656,441.6875 88.7656,439.9844 L88.7656,438.8906 C88.7656,437.1094 90.0156,435.7969 91.75,435.7969 C92.3281,435.7969 92.9375,435.9531 93.4063,436.2031 C93.8906,436.4844 94.0625,436.7031 94.1563,437.1094 C94.2188,437.5156 94.25,437.6406 94.3906,437.7656 C94.5313,437.9063 94.7656,438.0156 94.9844,438.0156 C95.25,438.0156 95.5156,437.875 95.6875,437.6563 C95.7969,437.5 95.8281,437.3125 95.8281,436.8906 L95.8281,435.4688 C95.8281,435.0313 95.8125,434.9063 95.7188,434.75 C95.5625,434.4844 95.2813,434.3438 94.9844,434.3438 C94.6875,434.3438 94.4844,434.4375 94.2656,434.75 L94.0938,434.6719 Z " fill="#000000"/><text fill="#000000" font-family="sans-serif" font-size="14" lengthAdjust="spacing" textLength="95" x="112.25" y="443.8467">Conversation</text><line style="stroke:#000000;stroke-width:0.5;" x1="48" x2="239" y1="455" y2="455"/><rect fill="none" height="6" style="stroke:#C82930;stroke-width:1.0;" width="6" x="55" y="465.6484"/><text fill="#000000" font-family="sans-serif" font-size="14" lengthAdjust="spacing" textLength="135" x="67" y="471.9951">conversationId: int</text><rect fill="none" height="6" style="stroke:#C82930;stroke-width:1.0;" width="6" x="55" y="481.9453"/><text fill="#000000" font-family="sans-serif" font-size="14" lengthAdjust="spacing" textLength="91" x="67" y="488.292">parentId: int</text><rect fill="none" height="6" style="stroke:#C82930;stroke-width:1.0;" width="6" x="55" y="498.2422"/><text fill="#000000" font-family="sans-serif" font-size="14" lengthAdjust="spacing" textLength="90" x="67" y="504.5889">doctorId: int</text><rect fill="none" height="6" style="stroke:#C82930;stroke-width:1.0;" width="6" x="55" y="514.5391"/><text fill="#000000" font-family="sans-serif" font-size="14" lengthAdjust="spacing" textLength="140" x="67" y="520.8857">lastMessage: String</text><rect fill="none" height="6" style="stroke:#C82930;stroke-width:1.0;" width="6" x="55" y="530.8359"/><text fill="#000000" font-family="sans-serif" font-size="14" lengthAdjust="spacing" textLength="167" x="67" y="537.1826">lastMessageTime: Date</text><line style="stroke:#000000;stroke-width:0.5;" x1="48" x2="239" y1="544.4844" y2="544.4844"/></g><!--class Message--><g id="elem_Message"><rect codeLine="124" fill="#FFFAFA" height="129.4844" id="Message" rx="2.5" ry="2.5" style="stroke:#000000;stroke-width:0.5;" width="186" x="50.5" y="616"/><ellipse cx="108.75" cy="632" fill="#ADD1B2" rx="11" ry="11" style="stroke:#181818;stroke-width:1.0;"/><path d="M111.0938,627.6719 C110.1563,627.2344 109.5625,627.0938 108.6875,627.0938 C106.0625,627.0938 104.0625,629.1719 104.0625,631.8906 L104.0625,633.0156 C104.0625,635.5938 106.1719,637.4844 109.0625,637.4844 C110.2813,637.4844 111.4375,637.1875 112.1875,636.6406 C112.7656,636.2344 113.0938,635.7813 113.0938,635.3906 C113.0938,634.9375 112.7031,634.5469 112.2344,634.5469 C112.0156,634.5469 111.8125,634.625 111.625,634.8125 C111.1719,635.2969 111.1719,635.2969 110.9844,635.3906 C110.5625,635.6563 109.875,635.7813 109.1094,635.7813 C107.0625,635.7813 105.7656,634.6875 105.7656,632.9844 L105.7656,631.8906 C105.7656,630.1094 107.0156,628.7969 108.75,628.7969 C109.3281,628.7969 109.9375,628.9531 110.4063,629.2031 C110.8906,629.4844 111.0625,629.7031 111.1563,630.1094 C111.2188,630.5156 111.25,630.6406 111.3906,630.7656 C111.5313,630.9063 111.7656,631.0156 111.9844,631.0156 C112.25,631.0156 112.5156,630.875 112.6875,630.6563 C112.7969,630.5 112.8281,630.3125 112.8281,629.8906 L112.8281,628.4688 C112.8281,628.0313 112.8125,627.9063 112.7188,627.75 C112.5625,627.4844 112.2813,627.3438 111.9844,627.3438 C111.6875,627.3438 111.4844,627.4375 111.2656,627.75 L111.0938,627.6719 Z " fill="#000000"/><text fill="#000000" font-family="sans-serif" font-size="14" lengthAdjust="spacing" textLength="61" x="129.25" y="636.8467">Message</text><line style="stroke:#000000;stroke-width:0.5;" x1="51.5" x2="235.5" y1="648" y2="648"/><rect fill="none" height="6" style="stroke:#C82930;stroke-width:1.0;" width="6" x="58.5" y="658.6484"/><text fill="#000000" font-family="sans-serif" font-size="14" lengthAdjust="spacing" textLength="105" x="70.5" y="664.9951">messageId: int</text><rect fill="none" height="6" style="stroke:#C82930;stroke-width:1.0;" width="6" x="58.5" y="674.9453"/><text fill="#000000" font-family="sans-serif" font-size="14" lengthAdjust="spacing" textLength="135" x="70.5" y="681.292">conversationId: int</text><rect fill="none" height="6" style="stroke:#C82930;stroke-width:1.0;" width="6" x="58.5" y="691.2422"/><text fill="#000000" font-family="sans-serif" font-size="14" lengthAdjust="spacing" textLength="111" x="70.5" y="697.5889">content: String</text><rect fill="none" height="6" style="stroke:#C82930;stroke-width:1.0;" width="6" x="58.5" y="707.5391"/><text fill="#000000" font-family="sans-serif" font-size="14" lengthAdjust="spacing" textLength="160" x="70.5" y="713.8857">receiverAccountId: int</text><rect fill="none" height="6" style="stroke:#C82930;stroke-width:1.0;" width="6" x="58.5" y="723.8359"/><text fill="#000000" font-family="sans-serif" font-size="14" lengthAdjust="spacing" textLength="150" x="70.5" y="730.1826">senderAccountId: int</text><line style="stroke:#000000;stroke-width:0.5;" x1="51.5" x2="235.5" y1="737.4844" y2="737.4844"/></g><!--reverse link Account to Parent--><g id="link_Account_Parent"><path codeLine="34" d="M278.5,198.5 C278.5,198.5 312.567,237.89 340.113,269.74 " fill="none" id="Account-backto-Parent" style="stroke:#000000;stroke-width:1.0;"/></g><!--reverse link Account to Doctor--><g id="link_Account_Doctor"><path codeLine="35" d="M278.5,198.5 C278.5,198.5 249.49,231.697 223.2,261.782 " fill="none" id="Account-backto-Doctor" style="stroke:#000000;stroke-width:1.0;"/></g><!--reverse link DoctorInstruction to Prescription--><g id="link_DoctorInstruction_Prescription"><path codeLine="79" d="M605.5,557.5 C605.5,557.5 534.59,612.253 487.779,648.3986 " fill="none" id="DoctorInstruction-backto-Prescription" style="stroke:#000000;stroke-width:1.0;"/></g><!--reverse link DoctorInstruction to ImmunizationSchedule--><g id="link_DoctorInstruction_ImmunizationSchedule"><path codeLine="80" d="M605.5,557.5 C605.5,557.5 661.599,612.253 698.634,648.3986 " fill="none" id="DoctorInstruction-backto-ImmunizationSchedule" style="stroke:#000000;stroke-width:1.0;"/></g><!--reverse link Activity to MealTime--><g id="link_Activity_MealTime"><path codeLine="112" d="M904.5,190.5 C904.5,190.5 975.962,235.258 1031.23,269.875 " fill="none" id="Activity-backto-MealTime" style="stroke:#000000;stroke-width:1.0;"/></g><!--reverse link Activity to SleepTime--><g id="link_Activity_SleepTime"><path codeLine="113" d="M904.5,190.5 C904.5,190.5 904.876,235.258 905.167,269.875 " fill="none" id="Activity-backto-SleepTime" style="stroke:#000000;stroke-width:1.0;"/></g><!--reverse link Activity to ChildEvent--><g id="link_Activity_ChildEvent"><path codeLine="114" d="M904.5,190.5 C904.5,190.5 840.437,228.809 785.008,261.955 " fill="none" id="Activity-backto-ChildEvent" style="stroke:#000000;stroke-width:1.0;"/></g><!--link Child to Parent--><g id="link_Child_Parent"><path codeLine="132" d="M613.14,155.927 C558.504,191.088 496.7161,230.8501 446.1761,263.3741 " fill="none" id="Child-to-Parent" style="stroke:#000000;stroke-width:1.0;"/><polygon fill="#000000" points="436.085,269.868,443.2952,269.9847,446.1761,263.3741,438.9659,263.2574,436.085,269.868" style="stroke:#000000;stroke-width:1.0;"/><text fill="#000000" font-family="sans-serif" font-size="13" lengthAdjust="spacing" textLength="23" x="582.4177" y="156.7887">1..*</text><text fill="#000000" font-family="sans-serif" font-size="13" lengthAdjust="spacing" textLength="8" x="433.2913" y="259.0077">1</text></g><!--link Child to DoctorInstruction--><g id="link_Child_DoctorInstruction"><path codeLine="134" d="M629.47,202.195 C619.977,221.331 611.639,241.772 606.5,262 C593.447,313.383 595.391,373.532 600.083,418.631 " fill="none" id="Child-DoctorInstruction" style="stroke:#000000;stroke-width:1.0;"/><text fill="#000000" font-family="sans-serif" font-size="13" lengthAdjust="spacing" textLength="8" x="612.6866" y="221.6746">1</text><text fill="#000000" font-family="sans-serif" font-size="13" lengthAdjust="spacing" textLength="23" x="570.6166" y="407.8348">0..*</text></g><!--link Doctor to DoctorInstruction--><g id="link_Doctor_DoctorInstruction"><path codeLine="135" d="M272.794,352.611 C278.418,354.845 284.018,356.993 289.5,359 C377.849,391.337 405.975,382.061 492.5,419 C498.361,421.502 504.297,424.227 510.23,427.1 " fill="none" id="Doctor-DoctorInstruction" style="stroke:#000000;stroke-width:1.0;"/><text fill="#000000" font-family="sans-serif" font-size="13" lengthAdjust="spacing" textLength="8" x="280.5471" y="352.4456">1</text><text fill="#000000" font-family="sans-serif" font-size="13" lengthAdjust="spacing" textLength="23" x="483.5726" y="414.5062">0..*</text></g><!--link PrescriptionDetail to Prescription--><g id="link_PrescriptionDetail_Prescription"><path codeLine="136" d="M399.475,552.1 C411.666,584.439 421.701,611.0624 431.5,637.0556 " fill="none" id="PrescriptionDetail-to-Prescription" style="stroke:#000000;stroke-width:1.0;"/><polygon fill="#000000" points="435.733,648.2842,437.3594,641.2589,431.5,637.0556,429.8736,644.0809,435.733,648.2842" style="stroke:#000000;stroke-width:1.0;"/><text fill="#000000" font-family="sans-serif" font-size="13" lengthAdjust="spacing" textLength="23" x="377.9174" y="572.4831">1..*</text><text fill="#000000" font-family="sans-serif" font-size="13" lengthAdjust="spacing" textLength="8" x="420.2351" y="637.5157">1</text></g><!--link ImmunizationDetail to ImmunizationSchedule--><g id="link_ImmunizationDetail_ImmunizationSchedule"><path codeLine="137" d="M810.542,552.1 C790.224,584.439 772.8269,612.13 756.4959,638.1232 " fill="none" id="ImmunizationDetail-to-ImmunizationSchedule" style="stroke:#000000;stroke-width:1.0;"/><polygon fill="#000000" points="750.112,648.2842,756.691,645.3317,756.4959,638.1232,749.917,641.0757,750.112,648.2842" style="stroke:#000000;stroke-width:1.0;"/><text fill="#000000" font-family="sans-serif" font-size="13" lengthAdjust="spacing" textLength="23" x="781.5922" y="572.4831">1..*</text><text fill="#000000" font-family="sans-serif" font-size="13" lengthAdjust="spacing" textLength="8" x="740.7919" y="637.5157">1</text></g><!--reverse link Child to ChildEvent--><g id="link_Child_ChildEvent"><path codeLine="139" d="M698.9528,214.0948 C700.3808,234.8978 701.007,244.028 702.237,261.955 " fill="none" id="Child-backto-ChildEvent" style="stroke:#000000;stroke-width:1.0;"/><polygon fill="#000000" points="698.131,202.123,694.5513,208.3828,698.9528,214.0948,702.5325,207.835,698.131,202.123" style="stroke:#000000;stroke-width:1.0;"/><text fill="#000000" font-family="sans-serif" font-size="13" lengthAdjust="spacing" textLength="8" x="690.316" y="221.5976">1</text><text fill="#000000" font-family="sans-serif" font-size="13" lengthAdjust="spacing" textLength="23" x="677.0687" y="250.8081">0..*</text></g><!--reverse link Child to SleepTime--><g id="link_Child_SleepTime"><path codeLine="141" d="M778.0773,192.9585 C784.1303,198.8965 781.61,196.363 787.5,202 C811.426,224.897 838.727,249.842 861.038,269.933 " fill="none" id="Child-backto-SleepTime" style="stroke:#000000;stroke-width:1.0;"/><polygon fill="#000000" points="769.511,184.555,770.993,191.6122,778.0773,192.9585,776.5953,185.9013,769.511,184.555" style="stroke:#000000;stroke-width:1.0;"/><text fill="#000000" font-family="sans-serif" font-size="13" lengthAdjust="spacing" textLength="8" x="777.584" y="205.2633">1</text><text fill="#000000" font-family="sans-serif" font-size="13" lengthAdjust="spacing" textLength="23" x="828.7693" y="259.0834">0..*</text></g><!--reverse link Child to MealTime--><g id="link_Child_MealTime"><path codeLine="143" d="M779.1235,197.2021 C784.9585,201.5841 781.373,198.434 787.5,202 C875.092,252.984 913.494,224.125 1007.5,262 C1013.41,264.379 1019.42,267.063 1025.39,269.914 " fill="none" id="Child-backto-MealTime" style="stroke:#000000;stroke-width:1.0;"/><polygon fill="#000000" points="769.528,189.996,771.9237,196.7975,779.1235,197.2021,776.7277,190.4005,769.528,189.996" style="stroke:#000000;stroke-width:1.0;"/><text fill="#000000" font-family="sans-serif" font-size="13" lengthAdjust="spacing" textLength="8" x="777.5369" y="194.5189">1</text><text fill="#000000" font-family="sans-serif" font-size="13" lengthAdjust="spacing" textLength="23" x="997.3643" y="260.319">0..*</text></g><!--link MealTimeDetail to MealTime--><g id="link_MealTimeDetail_MealTime"><path codeLine="144" d="M1112.14,153.071 C1108.14,188.51 1104.0956,224.4197 1100.3256,257.8277 " fill="none" id="MealTimeDetail-to-MealTime" style="stroke:#000000;stroke-width:1.0;"/><polygon fill="#000000" points="1098.98,269.752,1103.6276,264.2384,1100.3256,257.8277,1095.678,263.3413,1098.98,269.752" style="stroke:#000000;stroke-width:1.0;"/><text fill="#000000" font-family="sans-serif" font-size="13" lengthAdjust="spacing" textLength="23" x="1086.7691" y="173.0399">1..*</text><text fill="#000000" font-family="sans-serif" font-size="13" lengthAdjust="spacing" textLength="8" x="1091.0595" y="258.8725">1</text></g><!--reverse link Parent to Conversation--><g id="link_Parent_Conversation"><path codeLine="146" d="M312.5179,358.4563 C284.5629,379.6343 259.063,398.952 227.422,422.923 " fill="none" id="Parent-backto-Conversation" style="stroke:#000000;stroke-width:1.0;"/><polygon fill="#000000" points="322.083,351.21,314.885,351.6448,312.5179,358.4563,319.7159,358.0215,322.083,351.21" style="stroke:#000000;stroke-width:1.0;"/><text fill="#000000" font-family="sans-serif" font-size="13" lengthAdjust="spacing" textLength="8" x="301.1379" y="370.7003">1</text><text fill="#000000" font-family="sans-serif" font-size="13" lengthAdjust="spacing" textLength="23" x="212.3432" y="412.0872">0..*</text></g><!--reverse link Doctor to Conversation--><g id="link_Doctor_Conversation"><path codeLine="147" d="M168.5696,371.0467 C164.3066,390.6787 161.856,401.966 157.293,422.981 " fill="none" id="Doctor-backto-Conversation" style="stroke:#000000;stroke-width:1.0;"/><polygon fill="#000000" points="171.116,359.32,165.9339,364.3346,168.5696,371.0467,173.7517,366.0322,171.116,359.32" style="stroke:#000000;stroke-width:1.0;"/><text fill="#000000" font-family="sans-serif" font-size="13" lengthAdjust="spacing" textLength="8" x="156.9144" y="378.9712">1</text><text fill="#000000" font-family="sans-serif" font-size="13" lengthAdjust="spacing" textLength="23" x="134.5438" y="412.1516">0..*</text></g><!--reverse link Conversation to Message--><g id="link_Conversation_Message"><path codeLine="148" d="M143.5,564.1 C143.5,584.61 143.5,595.338 143.5,615.852 " fill="none" id="Conversation-backto-Message" style="stroke:#000000;stroke-width:1.0;"/><polygon fill="#000000" points="143.5,552.1,139.5,558.1,143.5,564.1,147.5,558.1,143.5,552.1" style="stroke:#000000;stroke-width:1.0;"/><text fill="#000000" font-family="sans-serif" font-size="13" lengthAdjust="spacing" textLength="8" x="130.8063" y="572.4831">1</text><text fill="#000000" font-family="sans-serif" font-size="13" lengthAdjust="spacing" textLength="23" x="119.2422" y="605.0085">0..*</text></g><!--SRC=[bLR9Rjim4BtxAmWV3JXeUpHwiUCSV4ZQmlq1XXnRH2HI82aRNVBl7OcKnCr9uuDXlXaEtonyj7aHigMQDeJLr1ZoPq7miwFivQnL9_czgfKcHwckpg0q1-t0NOrU0xhLMbr3y7LXfhXzdFOWAz32Kic0V5ait5bxnRe6fFM7hWdtm85lY93MerRO6ZRaQBMGPuyn9IqwJkZh67FB6DAUGrAtZYDs1hIaJHgqnG1NJ321Jq8R-vIxutab61egwfpOTwh3LDjX6TEYd6im9j-BXR9Osw1Ck8ptjfMIyDGrpw0JFgO59cWjxAymy5Ydht_NQyyjnjoP8uFxIjHy8i3wLN9-8PyF5evJ2zzEEw5jjI5xN7Zy399dMLKWpXNsdwlkkHuzhoLGAWktIdgGnkgEMQ7aMycL2jwpzJJd7cFxc1Pj5AyDm354SSSUB4vESPyp9HKln7MM1hXW0iUXK6Dbw3a5nLo5ml0TcgQJuZVjpKTM0Uzgc4WQ3sI9XRkIn4HcYkcdCHrwmPlyWPpIhkVzTfCV5F6MJx40XCoAOyK5RrSWEGxOpnFY4xDKsv-YJw3_7lL2yWpZCwjtyd8S7e7M_VQ9G-E1fBAgq-oDxKcZoa5EIl525nX5-HTWaZaurW1jHCsCICAjXtzqcL05-lDm2HKKBfdW3519S1IZKIq70VHj6teyLY219_O9FjEP22fv0MreB2K1-BvSbbIcbyf7V1Fo0GyiRdnYAVAce9V3Eev-cr_wlZfK0mE1ExQbHzKCCfsOa8zxEfQVx-vMIx9Uh_0dMOvFpcGblOqiFw4N_inkeh-R_-5OKDJixF3I5uGgzIy9mCnyILOZeMKq64M7UQB2r0E7QHAJIncH2jmM_ez56YSSoAXwjtoY2SvP3UFp3m00]--></g></svg>