<?xml version="1.0" encoding="us-ascii" standalone="no"?><svg xmlns="http://www.w3.org/2000/svg" xmlns:xlink="http://www.w3.org/1999/xlink" contentStyleType="text/css" height="809px" preserveAspectRatio="none" style="width:1595px;height:809px;background:#FFFFFF;" version="1.1" viewBox="0 0 1595 809" width="1595px" zoomAndPan="magnify"><defs/><g><!--class Document--><g id="elem_Document"><rect codeLine="8" fill="#FFFAFA" height="96.8906" id="Document" rx="2.5" ry="2.5" style="stroke:#000000;stroke-width:0.5;" width="141" x="239" y="56"/><ellipse cx="269.3" cy="72" fill="#ADD1B2" rx="11" ry="11" style="stroke:#181818;stroke-width:1.0;"/><path d="M271.6438,67.6719 C270.7063,67.2344 270.1125,67.0938 269.2375,67.0938 C266.6125,67.0938 264.6125,69.1719 264.6125,71.8906 L264.6125,73.0156 C264.6125,75.5938 266.7219,77.4844 269.6125,77.4844 C270.8313,77.4844 271.9875,77.1875 272.7375,76.6406 C273.3156,76.2344 273.6438,75.7813 273.6438,75.3906 C273.6438,74.9375 273.2531,74.5469 272.7844,74.5469 C272.5656,74.5469 272.3625,74.625 272.175,74.8125 C271.7219,75.2969 271.7219,75.2969 271.5344,75.3906 C271.1125,75.6563 270.425,75.7813 269.6594,75.7813 C267.6125,75.7813 266.3156,74.6875 266.3156,72.9844 L266.3156,71.8906 C266.3156,70.1094 267.5656,68.7969 269.3,68.7969 C269.8781,68.7969 270.4875,68.9531 270.9563,69.2031 C271.4406,69.4844 271.6125,69.7031 271.7063,70.1094 C271.7688,70.5156 271.8,70.6406 271.9406,70.7656 C272.0813,70.9063 272.3156,71.0156 272.5344,71.0156 C272.8,71.0156 273.0656,70.875 273.2375,70.6563 C273.3469,70.5 273.3781,70.3125 273.3781,69.8906 L273.3781,68.4688 C273.3781,68.0313 273.3625,67.9063 273.2688,67.75 C273.1125,67.4844 272.8313,67.3438 272.5344,67.3438 C272.2375,67.3438 272.0344,67.4375 271.8156,67.75 L271.6438,67.6719 Z " fill="#000000"/><text fill="#000000" font-family="sans-serif" font-size="14" lengthAdjust="spacing" textLength="75" x="286.7" y="76.8467">Document</text><line style="stroke:#000000;stroke-width:0.5;" x1="240" x2="379" y1="88" y2="88"/><rect fill="none" height="6" style="stroke:#C82930;stroke-width:1.0;" width="6" x="247" y="98.6484"/><text fill="#000000" font-family="sans-serif" font-size="14" lengthAdjust="spacing" textLength="115" x="259" y="104.9951">documentId: int</text><rect fill="none" height="6" style="stroke:#C82930;stroke-width:1.0;" width="6" x="247" y="114.9453"/><text fill="#000000" font-family="sans-serif" font-size="14" lengthAdjust="spacing" textLength="84" x="259" y="121.292">title: String</text><rect fill="none" height="6" style="stroke:#C82930;stroke-width:1.0;" width="6" x="247" y="131.2422"/><text fill="#000000" font-family="sans-serif" font-size="14" lengthAdjust="spacing" textLength="111" x="259" y="137.5889">content: String</text><line style="stroke:#000000;stroke-width:0.5;" x1="240" x2="379" y1="144.8906" y2="144.8906"/></g><!--class Account--><g id="elem_Account"><rect codeLine="14" fill="#FFFAFA" height="145.7813" id="Account" rx="2.5" ry="2.5" style="stroke:#000000;stroke-width:0.5;" width="150" x="435.5" y="31.5"/><ellipse cx="477.05" cy="47.5" fill="#ADD1B2" rx="11" ry="11" style="stroke:#181818;stroke-width:1.0;"/><path d="M479.3938,43.1719 C478.4563,42.7344 477.8625,42.5938 476.9875,42.5938 C474.3625,42.5938 472.3625,44.6719 472.3625,47.3906 L472.3625,48.5156 C472.3625,51.0938 474.4719,52.9844 477.3625,52.9844 C478.5813,52.9844 479.7375,52.6875 480.4875,52.1406 C481.0656,51.7344 481.3938,51.2813 481.3938,50.8906 C481.3938,50.4375 481.0031,50.0469 480.5344,50.0469 C480.3156,50.0469 480.1125,50.125 479.925,50.3125 C479.4719,50.7969 479.4719,50.7969 479.2844,50.8906 C478.8625,51.1563 478.175,51.2813 477.4094,51.2813 C475.3625,51.2813 474.0656,50.1875 474.0656,48.4844 L474.0656,47.3906 C474.0656,45.6094 475.3156,44.2969 477.05,44.2969 C477.6281,44.2969 478.2375,44.4531 478.7063,44.7031 C479.1906,44.9844 479.3625,45.2031 479.4563,45.6094 C479.5188,46.0156 479.55,46.1406 479.6906,46.2656 C479.8313,46.4063 480.0656,46.5156 480.2844,46.5156 C480.55,46.5156 480.8156,46.375 480.9875,46.1563 C481.0969,46 481.1281,45.8125 481.1281,45.3906 L481.1281,43.9688 C481.1281,43.5313 481.1125,43.4063 481.0188,43.25 C480.8625,42.9844 480.5813,42.8438 480.2844,42.8438 C479.9875,42.8438 479.7844,42.9375 479.5656,43.25 L479.3938,43.1719 Z " fill="#000000"/><text fill="#000000" font-family="sans-serif" font-size="14" lengthAdjust="spacing" textLength="59" x="496.95" y="52.3467">Account</text><line style="stroke:#000000;stroke-width:0.5;" x1="436.5" x2="584.5" y1="63.5" y2="63.5"/><rect fill="none" height="6" style="stroke:#C82930;stroke-width:1.0;" width="6" x="443.5" y="74.1484"/><text fill="#000000" font-family="sans-serif" font-size="14" lengthAdjust="spacing" textLength="99" x="455.5" y="80.4951">accountId: int</text><rect fill="none" height="6" style="stroke:#C82930;stroke-width:1.0;" width="6" x="443.5" y="90.4453"/><text fill="#000000" font-family="sans-serif" font-size="14" lengthAdjust="spacing" textLength="123" x="455.5" y="96.792">username: String</text><rect fill="none" height="6" style="stroke:#C82930;stroke-width:1.0;" width="6" x="443.5" y="106.7422"/><text fill="#000000" font-family="sans-serif" font-size="14" lengthAdjust="spacing" textLength="120" x="455.5" y="113.0889">password: String</text><rect fill="none" height="6" style="stroke:#C82930;stroke-width:1.0;" width="6" x="443.5" y="123.0391"/><text fill="#000000" font-family="sans-serif" font-size="14" lengthAdjust="spacing" textLength="124" x="455.5" y="129.3857">firstName: String</text><rect fill="none" height="6" style="stroke:#C82930;stroke-width:1.0;" width="6" x="443.5" y="139.3359"/><text fill="#000000" font-family="sans-serif" font-size="14" lengthAdjust="spacing" textLength="120" x="455.5" y="145.6826">lastName: String</text><rect fill="none" height="6" style="stroke:#C82930;stroke-width:1.0;" width="6" x="443.5" y="155.6328"/><text fill="#000000" font-family="sans-serif" font-size="14" lengthAdjust="spacing" textLength="92" x="455.5" y="161.9795">email: String</text><line style="stroke:#000000;stroke-width:0.5;" x1="436.5" x2="584.5" y1="169.2813" y2="169.2813"/></g><polygon fill="none" points="510.5,177.2813,517.5,197.2813,503.5,197.2813" style="stroke:#000000;stroke-width:1.0;"/><line style="stroke:#000000;stroke-width:1.0;" x1="510.5" x2="510.5" y1="197.2813" y2="198.5"/><!--class Parent--><g id="elem_Parent"><rect codeLine="23" fill="#FFFAFA" height="80.5938" id="Parent" rx="2.5" ry="2.5" style="stroke:#000000;stroke-width:0.5;" width="134" x="539.5" y="302.5"/><ellipse cx="578.8" cy="318.5" fill="#ADD1B2" rx="11" ry="11" style="stroke:#181818;stroke-width:1.0;"/><path d="M581.1438,314.1719 C580.2063,313.7344 579.6125,313.5938 578.7375,313.5938 C576.1125,313.5938 574.1125,315.6719 574.1125,318.3906 L574.1125,319.5156 C574.1125,322.0938 576.2219,323.9844 579.1125,323.9844 C580.3313,323.9844 581.4875,323.6875 582.2375,323.1406 C582.8156,322.7344 583.1438,322.2813 583.1438,321.8906 C583.1438,321.4375 582.7531,321.0469 582.2844,321.0469 C582.0656,321.0469 581.8625,321.125 581.675,321.3125 C581.2219,321.7969 581.2219,321.7969 581.0344,321.8906 C580.6125,322.1563 579.925,322.2813 579.1594,322.2813 C577.1125,322.2813 575.8156,321.1875 575.8156,319.4844 L575.8156,318.3906 C575.8156,316.6094 577.0656,315.2969 578.8,315.2969 C579.3781,315.2969 579.9875,315.4531 580.4563,315.7031 C580.9406,315.9844 581.1125,316.2031 581.2063,316.6094 C581.2688,317.0156 581.3,317.1406 581.4406,317.2656 C581.5813,317.4063 581.8156,317.5156 582.0344,317.5156 C582.3,317.5156 582.5656,317.375 582.7375,317.1563 C582.8469,317 582.8781,316.8125 582.8781,316.3906 L582.8781,314.9688 C582.8781,314.5313 582.8625,314.4063 582.7688,314.25 C582.6125,313.9844 582.3313,313.8438 582.0344,313.8438 C581.7375,313.8438 581.5344,313.9375 581.3156,314.25 L581.1438,314.1719 Z " fill="#000000"/><text fill="#000000" font-family="sans-serif" font-size="14" lengthAdjust="spacing" textLength="48" x="598.2" y="323.3467">Parent</text><line style="stroke:#000000;stroke-width:0.5;" x1="540.5" x2="672.5" y1="334.5" y2="334.5"/><rect fill="none" height="6" style="stroke:#C82930;stroke-width:1.0;" width="6" x="547.5" y="345.1484"/><text fill="#000000" font-family="sans-serif" font-size="14" lengthAdjust="spacing" textLength="91" x="559.5" y="351.4951">parentId: int</text><rect fill="none" height="6" style="stroke:#C82930;stroke-width:1.0;" width="6" x="547.5" y="361.4453"/><text fill="#000000" font-family="sans-serif" font-size="14" lengthAdjust="spacing" textLength="108" x="559.5" y="367.792">address: String</text><line style="stroke:#000000;stroke-width:0.5;" x1="540.5" x2="672.5" y1="375.0938" y2="375.0938"/></g><!--class Doctor--><g id="elem_Doctor"><rect codeLine="28" fill="#FFFAFA" height="96.8906" id="Doctor" rx="2.5" ry="2.5" style="stroke:#000000;stroke-width:0.5;" width="182" x="322.5" y="294.5"/><ellipse cx="384.25" cy="310.5" fill="#ADD1B2" rx="11" ry="11" style="stroke:#181818;stroke-width:1.0;"/><path d="M386.5938,306.1719 C385.6563,305.7344 385.0625,305.5938 384.1875,305.5938 C381.5625,305.5938 379.5625,307.6719 379.5625,310.3906 L379.5625,311.5156 C379.5625,314.0938 381.6719,315.9844 384.5625,315.9844 C385.7813,315.9844 386.9375,315.6875 387.6875,315.1406 C388.2656,314.7344 388.5938,314.2813 388.5938,313.8906 C388.5938,313.4375 388.2031,313.0469 387.7344,313.0469 C387.5156,313.0469 387.3125,313.125 387.125,313.3125 C386.6719,313.7969 386.6719,313.7969 386.4844,313.8906 C386.0625,314.1563 385.375,314.2813 384.6094,314.2813 C382.5625,314.2813 381.2656,313.1875 381.2656,311.4844 L381.2656,310.3906 C381.2656,308.6094 382.5156,307.2969 384.25,307.2969 C384.8281,307.2969 385.4375,307.4531 385.9063,307.7031 C386.3906,307.9844 386.5625,308.2031 386.6563,308.6094 C386.7188,309.0156 386.75,309.1406 386.8906,309.2656 C387.0313,309.4063 387.2656,309.5156 387.4844,309.5156 C387.75,309.5156 388.0156,309.375 388.1875,309.1563 C388.2969,309 388.3281,308.8125 388.3281,308.3906 L388.3281,306.9688 C388.3281,306.5313 388.3125,306.4063 388.2188,306.25 C388.0625,305.9844 387.7813,305.8438 387.4844,305.8438 C387.1875,305.8438 386.9844,305.9375 386.7656,306.25 L386.5938,306.1719 Z " fill="#000000"/><text fill="#000000" font-family="sans-serif" font-size="14" lengthAdjust="spacing" textLength="50" x="404.75" y="315.3467">Doctor</text><line style="stroke:#000000;stroke-width:0.5;" x1="323.5" x2="503.5" y1="326.5" y2="326.5"/><rect fill="none" height="6" style="stroke:#C82930;stroke-width:1.0;" width="6" x="330.5" y="337.1484"/><text fill="#000000" font-family="sans-serif" font-size="14" lengthAdjust="spacing" textLength="90" x="342.5" y="343.4951">doctorId: int</text><rect fill="none" height="6" style="stroke:#C82930;stroke-width:1.0;" width="6" x="330.5" y="353.4453"/><text fill="#000000" font-family="sans-serif" font-size="14" lengthAdjust="spacing" textLength="156" x="342.5" y="359.792">phoneNumber: String</text><rect fill="none" height="6" style="stroke:#C82930;stroke-width:1.0;" width="6" x="330.5" y="369.7422"/><text fill="#000000" font-family="sans-serif" font-size="14" lengthAdjust="spacing" textLength="122" x="342.5" y="376.0889">speciality: String</text><line style="stroke:#000000;stroke-width:0.5;" x1="323.5" x2="503.5" y1="383.3906" y2="383.3906"/></g><!--class Child--><g id="elem_Child"><rect codeLine="37" fill="#FFFAFA" height="194.6719" id="Child" rx="2.5" ry="2.5" style="stroke:#000000;stroke-width:0.5;" width="156" x="826.5" y="7"/><ellipse cx="882.25" cy="23" fill="#ADD1B2" rx="11" ry="11" style="stroke:#181818;stroke-width:1.0;"/><path d="M884.5938,18.6719 C883.6563,18.2344 883.0625,18.0938 882.1875,18.0938 C879.5625,18.0938 877.5625,20.1719 877.5625,22.8906 L877.5625,24.0156 C877.5625,26.5938 879.6719,28.4844 882.5625,28.4844 C883.7813,28.4844 884.9375,28.1875 885.6875,27.6406 C886.2656,27.2344 886.5938,26.7813 886.5938,26.3906 C886.5938,25.9375 886.2031,25.5469 885.7344,25.5469 C885.5156,25.5469 885.3125,25.625 885.125,25.8125 C884.6719,26.2969 884.6719,26.2969 884.4844,26.3906 C884.0625,26.6563 883.375,26.7813 882.6094,26.7813 C880.5625,26.7813 879.2656,25.6875 879.2656,23.9844 L879.2656,22.8906 C879.2656,21.1094 880.5156,19.7969 882.25,19.7969 C882.8281,19.7969 883.4375,19.9531 883.9063,20.2031 C884.3906,20.4844 884.5625,20.7031 884.6563,21.1094 C884.7188,21.5156 884.75,21.6406 884.8906,21.7656 C885.0313,21.9063 885.2656,22.0156 885.4844,22.0156 C885.75,22.0156 886.0156,21.875 886.1875,21.6563 C886.2969,21.5 886.3281,21.3125 886.3281,20.8906 L886.3281,19.4688 C886.3281,19.0313 886.3125,18.9063 886.2188,18.75 C886.0625,18.4844 885.7813,18.3438 885.4844,18.3438 C885.1875,18.3438 884.9844,18.4375 884.7656,18.75 L884.5938,18.6719 Z " fill="#000000"/><text fill="#000000" font-family="sans-serif" font-size="14" lengthAdjust="spacing" textLength="36" x="902.75" y="27.8467">Child</text><line style="stroke:#000000;stroke-width:0.5;" x1="827.5" x2="981.5" y1="39" y2="39"/><rect fill="none" height="6" style="stroke:#C82930;stroke-width:1.0;" width="6" x="834.5" y="49.6484"/><text fill="#000000" font-family="sans-serif" font-size="14" lengthAdjust="spacing" textLength="76" x="846.5" y="55.9951">childId: int</text><rect fill="none" height="6" style="stroke:#C82930;stroke-width:1.0;" width="6" x="834.5" y="65.9453"/><text fill="#000000" font-family="sans-serif" font-size="14" lengthAdjust="spacing" textLength="91" x="846.5" y="72.292">parentId: int</text><rect fill="none" height="6" style="stroke:#C82930;stroke-width:1.0;" width="6" x="834.5" y="82.2422"/><text fill="#000000" font-family="sans-serif" font-size="14" lengthAdjust="spacing" textLength="124" x="846.5" y="88.5889">firstName: String</text><rect fill="none" height="6" style="stroke:#C82930;stroke-width:1.0;" width="6" x="834.5" y="98.5391"/><text fill="#000000" font-family="sans-serif" font-size="14" lengthAdjust="spacing" textLength="120" x="846.5" y="104.8857">lastName: String</text><rect fill="none" height="6" style="stroke:#C82930;stroke-width:1.0;" width="6" x="834.5" y="114.8359"/><text fill="#000000" font-family="sans-serif" font-size="14" lengthAdjust="spacing" textLength="130" x="846.5" y="121.1826">dateOfBirth: Date</text><rect fill="none" height="6" style="stroke:#C82930;stroke-width:1.0;" width="6" x="834.5" y="131.1328"/><text fill="#000000" font-family="sans-serif" font-size="14" lengthAdjust="spacing" textLength="104" x="846.5" y="137.4795">gender: String</text><rect fill="none" height="6" style="stroke:#C82930;stroke-width:1.0;" width="6" x="834.5" y="147.4297"/><text fill="#000000" font-family="sans-serif" font-size="14" lengthAdjust="spacing" textLength="105" x="846.5" y="153.7764">height: double</text><rect fill="none" height="6" style="stroke:#C82930;stroke-width:1.0;" width="6" x="834.5" y="163.7266"/><text fill="#000000" font-family="sans-serif" font-size="14" lengthAdjust="spacing" textLength="107" x="846.5" y="170.0732">weight: double</text><rect fill="none" height="6" style="stroke:#C82930;stroke-width:1.0;" width="6" x="834.5" y="180.0234"/><text fill="#000000" font-family="sans-serif" font-size="14" lengthAdjust="spacing" textLength="87" x="846.5" y="186.3701">note: String</text><line style="stroke:#000000;stroke-width:0.5;" x1="827.5" x2="981.5" y1="193.6719" y2="193.6719"/></g><!--class Prescription--><g id="elem_Prescription"><rect codeLine="49" fill="#FFFAFA" height="113.1875" id="Prescription" rx="2.5" ry="2.5" style="stroke:#000000;stroke-width:0.5;" width="157" x="1132" y="492"/><ellipse cx="1163.65" cy="508" fill="#ADD1B2" rx="11" ry="11" style="stroke:#181818;stroke-width:1.0;"/><path d="M1165.9938,503.6719 C1165.0563,503.2344 1164.4625,503.0938 1163.5875,503.0938 C1160.9625,503.0938 1158.9625,505.1719 1158.9625,507.8906 L1158.9625,509.0156 C1158.9625,511.5938 1161.0719,513.4844 1163.9625,513.4844 C1165.1813,513.4844 1166.3375,513.1875 1167.0875,512.6406 C1167.6656,512.2344 1167.9938,511.7813 1167.9938,511.3906 C1167.9938,510.9375 1167.6031,510.5469 1167.1344,510.5469 C1166.9156,510.5469 1166.7125,510.625 1166.525,510.8125 C1166.0719,511.2969 1166.0719,511.2969 1165.8844,511.3906 C1165.4625,511.6563 1164.775,511.7813 1164.0094,511.7813 C1161.9625,511.7813 1160.6656,510.6875 1160.6656,508.9844 L1160.6656,507.8906 C1160.6656,506.1094 1161.9156,504.7969 1163.65,504.7969 C1164.2281,504.7969 1164.8375,504.9531 1165.3063,505.2031 C1165.7906,505.4844 1165.9625,505.7031 1166.0563,506.1094 C1166.1188,506.5156 1166.15,506.6406 1166.2906,506.7656 C1166.4313,506.9063 1166.6656,507.0156 1166.8844,507.0156 C1167.15,507.0156 1167.4156,506.875 1167.5875,506.6563 C1167.6969,506.5 1167.7281,506.3125 1167.7281,505.8906 L1167.7281,504.4688 C1167.7281,504.0313 1167.7125,503.9063 1167.6188,503.75 C1167.4625,503.4844 1167.1813,503.3438 1166.8844,503.3438 C1166.5875,503.3438 1166.3844,503.4375 1166.1656,503.75 L1165.9938,503.6719 Z " fill="#000000"/><text fill="#000000" font-family="sans-serif" font-size="14" lengthAdjust="spacing" textLength="88" x="1181.35" y="512.8467">Prescription</text><line style="stroke:#000000;stroke-width:0.5;" x1="1133" x2="1288" y1="524" y2="524"/><rect fill="none" height="6" style="stroke:#C82930;stroke-width:1.0;" width="6" x="1140" y="534.6484"/><text fill="#000000" font-family="sans-serif" font-size="14" lengthAdjust="spacing" textLength="131" x="1152" y="540.9951">prescriptionId: int</text><rect fill="none" height="6" style="stroke:#C82930;stroke-width:1.0;" width="6" x="1140" y="550.9453"/><text fill="#000000" font-family="sans-serif" font-size="14" lengthAdjust="spacing" textLength="76" x="1152" y="557.292">childId: int</text><rect fill="none" height="6" style="stroke:#C82930;stroke-width:1.0;" width="6" x="1140" y="567.2422"/><text fill="#000000" font-family="sans-serif" font-size="14" lengthAdjust="spacing" textLength="90" x="1152" y="573.5889">doctorId: int</text><rect fill="none" height="6" style="stroke:#C82930;stroke-width:1.0;" width="6" x="1140" y="583.5391"/><text fill="#000000" font-family="sans-serif" font-size="14" lengthAdjust="spacing" textLength="77" x="1152" y="589.8857">date: Date</text><line style="stroke:#000000;stroke-width:0.5;" x1="1133" x2="1288" y1="597.1875" y2="597.1875"/></g><!--class PrescriptionDetail--><g id="elem_PrescriptionDetail"><rect codeLine="56" fill="#FFFAFA" height="129.4844" id="PrescriptionDetail" rx="2.5" ry="2.5" style="stroke:#000000;stroke-width:0.5;" width="200" x="1110.5" y="278.5"/><ellipse cx="1142.15" cy="294.5" fill="#ADD1B2" rx="11" ry="11" style="stroke:#181818;stroke-width:1.0;"/><path d="M1144.4938,290.1719 C1143.5563,289.7344 1142.9625,289.5938 1142.0875,289.5938 C1139.4625,289.5938 1137.4625,291.6719 1137.4625,294.3906 L1137.4625,295.5156 C1137.4625,298.0938 1139.5719,299.9844 1142.4625,299.9844 C1143.6813,299.9844 1144.8375,299.6875 1145.5875,299.1406 C1146.1656,298.7344 1146.4938,298.2813 1146.4938,297.8906 C1146.4938,297.4375 1146.1031,297.0469 1145.6344,297.0469 C1145.4156,297.0469 1145.2125,297.125 1145.025,297.3125 C1144.5719,297.7969 1144.5719,297.7969 1144.3844,297.8906 C1143.9625,298.1563 1143.275,298.2813 1142.5094,298.2813 C1140.4625,298.2813 1139.1656,297.1875 1139.1656,295.4844 L1139.1656,294.3906 C1139.1656,292.6094 1140.4156,291.2969 1142.15,291.2969 C1142.7281,291.2969 1143.3375,291.4531 1143.8063,291.7031 C1144.2906,291.9844 1144.4625,292.2031 1144.5563,292.6094 C1144.6188,293.0156 1144.65,293.1406 1144.7906,293.2656 C1144.9313,293.4063 1145.1656,293.5156 1145.3844,293.5156 C1145.65,293.5156 1145.9156,293.375 1146.0875,293.1563 C1146.1969,293 1146.2281,292.8125 1146.2281,292.3906 L1146.2281,290.9688 C1146.2281,290.5313 1146.2125,290.4063 1146.1188,290.25 C1145.9625,289.9844 1145.6813,289.8438 1145.3844,289.8438 C1145.0875,289.8438 1144.8844,289.9375 1144.6656,290.25 L1144.4938,290.1719 Z " fill="#000000"/><text fill="#000000" font-family="sans-serif" font-size="14" lengthAdjust="spacing" textLength="131" x="1159.85" y="299.3467">PrescriptionDetail</text><line style="stroke:#000000;stroke-width:0.5;" x1="1111.5" x2="1309.5" y1="310.5" y2="310.5"/><rect fill="none" height="6" style="stroke:#C82930;stroke-width:1.0;" width="6" x="1118.5" y="321.1484"/><text fill="#000000" font-family="sans-serif" font-size="14" lengthAdjust="spacing" textLength="174" x="1130.5" y="327.4951">prescriptionDetailId: int</text><rect fill="none" height="6" style="stroke:#C82930;stroke-width:1.0;" width="6" x="1118.5" y="337.4453"/><text fill="#000000" font-family="sans-serif" font-size="14" lengthAdjust="spacing" textLength="131" x="1130.5" y="343.792">prescriptionId: int</text><rect fill="none" height="6" style="stroke:#C82930;stroke-width:1.0;" width="6" x="1118.5" y="353.7422"/><text fill="#000000" font-family="sans-serif" font-size="14" lengthAdjust="spacing" textLength="160" x="1130.5" y="360.0889">medicineName: String</text><rect fill="none" height="6" style="stroke:#C82930;stroke-width:1.0;" width="6" x="1118.5" y="370.0391"/><text fill="#000000" font-family="sans-serif" font-size="14" lengthAdjust="spacing" textLength="104" x="1130.5" y="376.3857">dosage: String</text><rect fill="none" height="6" style="stroke:#C82930;stroke-width:1.0;" width="6" x="1118.5" y="386.3359"/><text fill="#000000" font-family="sans-serif" font-size="14" lengthAdjust="spacing" textLength="138" x="1130.5" y="392.6826">instructions: String</text><line style="stroke:#000000;stroke-width:0.5;" x1="1111.5" x2="1309.5" y1="399.9844" y2="399.9844"/></g><!--class ImmunizationSchedule--><g id="elem_ImmunizationSchedule"><rect codeLine="64" fill="#FFFAFA" height="113.1875" id="ImmunizationSchedule" rx="2.5" ry="2.5" style="stroke:#000000;stroke-width:0.5;" width="195" x="172" y="492"/><ellipse cx="187" cy="508" fill="#ADD1B2" rx="11" ry="11" style="stroke:#181818;stroke-width:1.0;"/><path d="M189.3438,503.6719 C188.4063,503.2344 187.8125,503.0938 186.9375,503.0938 C184.3125,503.0938 182.3125,505.1719 182.3125,507.8906 L182.3125,509.0156 C182.3125,511.5938 184.4219,513.4844 187.3125,513.4844 C188.5313,513.4844 189.6875,513.1875 190.4375,512.6406 C191.0156,512.2344 191.3438,511.7813 191.3438,511.3906 C191.3438,510.9375 190.9531,510.5469 190.4844,510.5469 C190.2656,510.5469 190.0625,510.625 189.875,510.8125 C189.4219,511.2969 189.4219,511.2969 189.2344,511.3906 C188.8125,511.6563 188.125,511.7813 187.3594,511.7813 C185.3125,511.7813 184.0156,510.6875 184.0156,508.9844 L184.0156,507.8906 C184.0156,506.1094 185.2656,504.7969 187,504.7969 C187.5781,504.7969 188.1875,504.9531 188.6563,505.2031 C189.1406,505.4844 189.3125,505.7031 189.4063,506.1094 C189.4688,506.5156 189.5,506.6406 189.6406,506.7656 C189.7813,506.9063 190.0156,507.0156 190.2344,507.0156 C190.5,507.0156 190.7656,506.875 190.9375,506.6563 C191.0469,506.5 191.0781,506.3125 191.0781,505.8906 L191.0781,504.4688 C191.0781,504.0313 191.0625,503.9063 190.9688,503.75 C190.8125,503.4844 190.5313,503.3438 190.2344,503.3438 C189.9375,503.3438 189.7344,503.4375 189.5156,503.75 L189.3438,503.6719 Z " fill="#000000"/><text fill="#000000" font-family="sans-serif" font-size="14" lengthAdjust="spacing" textLength="163" x="201" y="512.8467">ImmunizationSchedule</text><line style="stroke:#000000;stroke-width:0.5;" x1="173" x2="366" y1="524" y2="524"/><rect fill="none" height="6" style="stroke:#C82930;stroke-width:1.0;" width="6" x="180" y="534.6484"/><text fill="#000000" font-family="sans-serif" font-size="14" lengthAdjust="spacing" textLength="105" x="192" y="540.9951">scheduleId: int</text><rect fill="none" height="6" style="stroke:#C82930;stroke-width:1.0;" width="6" x="180" y="550.9453"/><text fill="#000000" font-family="sans-serif" font-size="14" lengthAdjust="spacing" textLength="76" x="192" y="557.292">childId: int</text><rect fill="none" height="6" style="stroke:#C82930;stroke-width:1.0;" width="6" x="180" y="567.2422"/><text fill="#000000" font-family="sans-serif" font-size="14" lengthAdjust="spacing" textLength="90" x="192" y="573.5889">doctorId: int</text><rect fill="none" height="6" style="stroke:#C82930;stroke-width:1.0;" width="6" x="180" y="583.5391"/><text fill="#000000" font-family="sans-serif" font-size="14" lengthAdjust="spacing" textLength="77" x="192" y="589.8857">date: Date</text><line style="stroke:#000000;stroke-width:0.5;" x1="173" x2="366" y1="597.1875" y2="597.1875"/></g><!--class ImmunizationDetail--><g id="elem_ImmunizationDetail"><rect codeLine="71" fill="#FFFAFA" height="129.4844" id="ImmunizationDetail" rx="2.5" ry="2.5" style="stroke:#000000;stroke-width:0.5;" width="209" x="7" y="278.5"/><ellipse cx="38.2" cy="294.5" fill="#ADD1B2" rx="11" ry="11" style="stroke:#181818;stroke-width:1.0;"/><path d="M40.5438,290.1719 C39.6063,289.7344 39.0125,289.5938 38.1375,289.5938 C35.5125,289.5938 33.5125,291.6719 33.5125,294.3906 L33.5125,295.5156 C33.5125,298.0938 35.6219,299.9844 38.5125,299.9844 C39.7313,299.9844 40.8875,299.6875 41.6375,299.1406 C42.2156,298.7344 42.5438,298.2813 42.5438,297.8906 C42.5438,297.4375 42.1531,297.0469 41.6844,297.0469 C41.4656,297.0469 41.2625,297.125 41.075,297.3125 C40.6219,297.7969 40.6219,297.7969 40.4344,297.8906 C40.0125,298.1563 39.325,298.2813 38.5594,298.2813 C36.5125,298.2813 35.2156,297.1875 35.2156,295.4844 L35.2156,294.3906 C35.2156,292.6094 36.4656,291.2969 38.2,291.2969 C38.7781,291.2969 39.3875,291.4531 39.8563,291.7031 C40.3406,291.9844 40.5125,292.2031 40.6063,292.6094 C40.6688,293.0156 40.7,293.1406 40.8406,293.2656 C40.9813,293.4063 41.2156,293.5156 41.4344,293.5156 C41.7,293.5156 41.9656,293.375 42.1375,293.1563 C42.2469,293 42.2781,292.8125 42.2781,292.3906 L42.2781,290.9688 C42.2781,290.5313 42.2625,290.4063 42.1688,290.25 C42.0125,289.9844 41.7313,289.8438 41.4344,289.8438 C41.1375,289.8438 40.9344,289.9375 40.7156,290.25 L40.5438,290.1719 Z " fill="#000000"/><text fill="#000000" font-family="sans-serif" font-size="14" lengthAdjust="spacing" textLength="141" x="55.8" y="299.3467">ImmunizationDetail</text><line style="stroke:#000000;stroke-width:0.5;" x1="8" x2="215" y1="310.5" y2="310.5"/><rect fill="none" height="6" style="stroke:#C82930;stroke-width:1.0;" width="6" x="15" y="321.1484"/><text fill="#000000" font-family="sans-serif" font-size="14" lengthAdjust="spacing" textLength="183" x="27" y="327.4951">immunizationDetailId: int</text><rect fill="none" height="6" style="stroke:#C82930;stroke-width:1.0;" width="6" x="15" y="337.4453"/><text fill="#000000" font-family="sans-serif" font-size="14" lengthAdjust="spacing" textLength="105" x="27" y="343.792">scheduleId: int</text><rect fill="none" height="6" style="stroke:#C82930;stroke-width:1.0;" width="6" x="15" y="353.7422"/><text fill="#000000" font-family="sans-serif" font-size="14" lengthAdjust="spacing" textLength="148" x="27" y="360.0889">vaccineName: String</text><rect fill="none" height="6" style="stroke:#C82930;stroke-width:1.0;" width="6" x="15" y="370.0391"/><text fill="#000000" font-family="sans-serif" font-size="14" lengthAdjust="spacing" textLength="104" x="27" y="376.3857">dosage: String</text><rect fill="none" height="6" style="stroke:#C82930;stroke-width:1.0;" width="6" x="15" y="386.3359"/><text fill="#000000" font-family="sans-serif" font-size="14" lengthAdjust="spacing" textLength="87" x="27" y="392.6826">note: String</text><line style="stroke:#000000;stroke-width:0.5;" x1="8" x2="215" y1="399.9844" y2="399.9844"/></g><!--class MealTime--><g id="elem_MealTime"><rect codeLine="79" fill="#FFFAFA" height="129.4844" id="MealTime" rx="2.5" ry="2.5" style="stroke:#000000;stroke-width:0.5;" width="161" x="1417" y="278.5"/><ellipse cx="1459" cy="294.5" fill="#ADD1B2" rx="11" ry="11" style="stroke:#181818;stroke-width:1.0;"/><path d="M1461.3438,290.1719 C1460.4063,289.7344 1459.8125,289.5938 1458.9375,289.5938 C1456.3125,289.5938 1454.3125,291.6719 1454.3125,294.3906 L1454.3125,295.5156 C1454.3125,298.0938 1456.4219,299.9844 1459.3125,299.9844 C1460.5313,299.9844 1461.6875,299.6875 1462.4375,299.1406 C1463.0156,298.7344 1463.3438,298.2813 1463.3438,297.8906 C1463.3438,297.4375 1462.9531,297.0469 1462.4844,297.0469 C1462.2656,297.0469 1462.0625,297.125 1461.875,297.3125 C1461.4219,297.7969 1461.4219,297.7969 1461.2344,297.8906 C1460.8125,298.1563 1460.125,298.2813 1459.3594,298.2813 C1457.3125,298.2813 1456.0156,297.1875 1456.0156,295.4844 L1456.0156,294.3906 C1456.0156,292.6094 1457.2656,291.2969 1459,291.2969 C1459.5781,291.2969 1460.1875,291.4531 1460.6563,291.7031 C1461.1406,291.9844 1461.3125,292.2031 1461.4063,292.6094 C1461.4688,293.0156 1461.5,293.1406 1461.6406,293.2656 C1461.7813,293.4063 1462.0156,293.5156 1462.2344,293.5156 C1462.5,293.5156 1462.7656,293.375 1462.9375,293.1563 C1463.0469,293 1463.0781,292.8125 1463.0781,292.3906 L1463.0781,290.9688 C1463.0781,290.5313 1463.0625,290.4063 1462.9688,290.25 C1462.8125,289.9844 1462.5313,289.8438 1462.2344,289.8438 C1461.9375,289.8438 1461.7344,289.9375 1461.5156,290.25 L1461.3438,290.1719 Z " fill="#000000"/><text fill="#000000" font-family="sans-serif" font-size="14" lengthAdjust="spacing" textLength="69" x="1479" y="299.3467">MealTime</text><line style="stroke:#000000;stroke-width:0.5;" x1="1418" x2="1577" y1="310.5" y2="310.5"/><rect fill="none" height="6" style="stroke:#C82930;stroke-width:1.0;" width="6" x="1425" y="321.1484"/><text fill="#000000" font-family="sans-serif" font-size="14" lengthAdjust="spacing" textLength="113" x="1437" y="327.4951">mealTimeId: int</text><rect fill="none" height="6" style="stroke:#C82930;stroke-width:1.0;" width="6" x="1425" y="337.4453"/><text fill="#000000" font-family="sans-serif" font-size="14" lengthAdjust="spacing" textLength="114" x="1437" y="343.792">mealDate: Date</text><rect fill="none" height="6" style="stroke:#C82930;stroke-width:1.0;" width="6" x="1425" y="353.7422"/><text fill="#000000" font-family="sans-serif" font-size="14" lengthAdjust="spacing" textLength="116" x="1437" y="360.0889">startTime: Time</text><rect fill="none" height="6" style="stroke:#C82930;stroke-width:1.0;" width="6" x="1425" y="370.0391"/><text fill="#000000" font-family="sans-serif" font-size="14" lengthAdjust="spacing" textLength="108" x="1437" y="376.3857">endTime: Time</text><rect fill="none" height="6" style="stroke:#C82930;stroke-width:1.0;" width="6" x="1425" y="386.3359"/><text fill="#000000" font-family="sans-serif" font-size="14" lengthAdjust="spacing" textLength="135" x="1437" y="392.6826">description: String</text><line style="stroke:#000000;stroke-width:0.5;" x1="1418" x2="1577" y1="399.9844" y2="399.9844"/></g><!--class MealTimeDetail--><g id="elem_MealTimeDetail"><rect codeLine="87" fill="#FFFAFA" height="113.1875" id="MealTimeDetail" rx="2.5" ry="2.5" style="stroke:#000000;stroke-width:0.5;" width="182" x="1406.5" y="48"/><ellipse cx="1438.6" cy="64" fill="#ADD1B2" rx="11" ry="11" style="stroke:#181818;stroke-width:1.0;"/><path d="M1440.9438,59.6719 C1440.0063,59.2344 1439.4125,59.0938 1438.5375,59.0938 C1435.9125,59.0938 1433.9125,61.1719 1433.9125,63.8906 L1433.9125,65.0156 C1433.9125,67.5938 1436.0219,69.4844 1438.9125,69.4844 C1440.1313,69.4844 1441.2875,69.1875 1442.0375,68.6406 C1442.6156,68.2344 1442.9438,67.7813 1442.9438,67.3906 C1442.9438,66.9375 1442.5531,66.5469 1442.0844,66.5469 C1441.8656,66.5469 1441.6625,66.625 1441.475,66.8125 C1441.0219,67.2969 1441.0219,67.2969 1440.8344,67.3906 C1440.4125,67.6563 1439.725,67.7813 1438.9594,67.7813 C1436.9125,67.7813 1435.6156,66.6875 1435.6156,64.9844 L1435.6156,63.8906 C1435.6156,62.1094 1436.8656,60.7969 1438.6,60.7969 C1439.1781,60.7969 1439.7875,60.9531 1440.2563,61.2031 C1440.7406,61.4844 1440.9125,61.7031 1441.0063,62.1094 C1441.0688,62.5156 1441.1,62.6406 1441.2406,62.7656 C1441.3813,62.9063 1441.6156,63.0156 1441.8344,63.0156 C1442.1,63.0156 1442.3656,62.875 1442.5375,62.6563 C1442.6469,62.5 1442.6781,62.3125 1442.6781,61.8906 L1442.6781,60.4688 C1442.6781,60.0313 1442.6625,59.9063 1442.5688,59.75 C1442.4125,59.4844 1442.1313,59.3438 1441.8344,59.3438 C1441.5375,59.3438 1441.3344,59.4375 1441.1156,59.75 L1440.9438,59.6719 Z " fill="#000000"/><text fill="#000000" font-family="sans-serif" font-size="14" lengthAdjust="spacing" textLength="112" x="1456.4" y="68.8467">MealTimeDetail</text><line style="stroke:#000000;stroke-width:0.5;" x1="1407.5" x2="1587.5" y1="80" y2="80"/><rect fill="none" height="6" style="stroke:#C82930;stroke-width:1.0;" width="6" x="1414.5" y="90.6484"/><text fill="#000000" font-family="sans-serif" font-size="14" lengthAdjust="spacing" textLength="156" x="1426.5" y="96.9951">mealTimeDetailId: int</text><rect fill="none" height="6" style="stroke:#C82930;stroke-width:1.0;" width="6" x="1414.5" y="106.9453"/><text fill="#000000" font-family="sans-serif" font-size="14" lengthAdjust="spacing" textLength="113" x="1426.5" y="113.292">mealTimeId: int</text><rect fill="none" height="6" style="stroke:#C82930;stroke-width:1.0;" width="6" x="1414.5" y="123.2422"/><text fill="#000000" font-family="sans-serif" font-size="14" lengthAdjust="spacing" textLength="127" x="1426.5" y="129.5889">foodName: String</text><rect fill="none" height="6" style="stroke:#C82930;stroke-width:1.0;" width="6" x="1414.5" y="139.5391"/><text fill="#000000" font-family="sans-serif" font-size="14" lengthAdjust="spacing" textLength="84" x="1426.5" y="145.8857">calories: int</text><line style="stroke:#000000;stroke-width:0.5;" x1="1407.5" x2="1587.5" y1="153.1875" y2="153.1875"/></g><!--class SleepTime--><g id="elem_SleepTime"><rect codeLine="94" fill="#FFFAFA" height="162.0781" id="SleepTime" rx="2.5" ry="2.5" style="stroke:#000000;stroke-width:0.5;" width="168" x="708.5" y="262"/><ellipse cx="750.05" cy="278" fill="#ADD1B2" rx="11" ry="11" style="stroke:#181818;stroke-width:1.0;"/><path d="M752.3938,273.6719 C751.4563,273.2344 750.8625,273.0938 749.9875,273.0938 C747.3625,273.0938 745.3625,275.1719 745.3625,277.8906 L745.3625,279.0156 C745.3625,281.5938 747.4719,283.4844 750.3625,283.4844 C751.5813,283.4844 752.7375,283.1875 753.4875,282.6406 C754.0656,282.2344 754.3938,281.7813 754.3938,281.3906 C754.3938,280.9375 754.0031,280.5469 753.5344,280.5469 C753.3156,280.5469 753.1125,280.625 752.925,280.8125 C752.4719,281.2969 752.4719,281.2969 752.2844,281.3906 C751.8625,281.6563 751.175,281.7813 750.4094,281.7813 C748.3625,281.7813 747.0656,280.6875 747.0656,278.9844 L747.0656,277.8906 C747.0656,276.1094 748.3156,274.7969 750.05,274.7969 C750.6281,274.7969 751.2375,274.9531 751.7063,275.2031 C752.1906,275.4844 752.3625,275.7031 752.4563,276.1094 C752.5188,276.5156 752.55,276.6406 752.6906,276.7656 C752.8313,276.9063 753.0656,277.0156 753.2844,277.0156 C753.55,277.0156 753.8156,276.875 753.9875,276.6563 C754.0969,276.5 754.1281,276.3125 754.1281,275.8906 L754.1281,274.4688 C754.1281,274.0313 754.1125,273.9063 754.0188,273.75 C753.8625,273.4844 753.5813,273.3438 753.2844,273.3438 C752.9875,273.3438 752.7844,273.4375 752.5656,273.75 L752.3938,273.6719 Z " fill="#000000"/><text fill="#000000" font-family="sans-serif" font-size="14" lengthAdjust="spacing" textLength="77" x="769.95" y="282.8467">SleepTime</text><line style="stroke:#000000;stroke-width:0.5;" x1="709.5" x2="875.5" y1="294" y2="294"/><rect fill="none" height="6" style="stroke:#C82930;stroke-width:1.0;" width="6" x="716.5" y="304.6484"/><text fill="#000000" font-family="sans-serif" font-size="14" lengthAdjust="spacing" textLength="117" x="728.5" y="310.9951">sleepTimeId: int</text><rect fill="none" height="6" style="stroke:#C82930;stroke-width:1.0;" width="6" x="716.5" y="320.9453"/><text fill="#000000" font-family="sans-serif" font-size="14" lengthAdjust="spacing" textLength="118" x="728.5" y="327.292">sleepDate: Date</text><rect fill="none" height="6" style="stroke:#C82930;stroke-width:1.0;" width="6" x="716.5" y="337.2422"/><text fill="#000000" font-family="sans-serif" font-size="14" lengthAdjust="spacing" textLength="116" x="728.5" y="343.5889">startTime: Time</text><rect fill="none" height="6" style="stroke:#C82930;stroke-width:1.0;" width="6" x="716.5" y="353.5391"/><text fill="#000000" font-family="sans-serif" font-size="14" lengthAdjust="spacing" textLength="108" x="728.5" y="359.8857">endTime: Time</text><rect fill="none" height="6" style="stroke:#C82930;stroke-width:1.0;" width="6" x="716.5" y="369.8359"/><text fill="#000000" font-family="sans-serif" font-size="14" lengthAdjust="spacing" textLength="135" x="728.5" y="376.1826">description: String</text><rect fill="none" height="6" style="stroke:#C82930;stroke-width:1.0;" width="6" x="716.5" y="386.1328"/><text fill="#000000" font-family="sans-serif" font-size="14" lengthAdjust="spacing" textLength="142" x="728.5" y="392.4795">sleepQuality: String</text><rect fill="none" height="6" style="stroke:#C82930;stroke-width:1.0;" width="6" x="716.5" y="402.4297"/><text fill="#000000" font-family="sans-serif" font-size="14" lengthAdjust="spacing" textLength="134" x="728.5" y="408.7764">sleepNotes: String</text><line style="stroke:#000000;stroke-width:0.5;" x1="709.5" x2="875.5" y1="416.0781" y2="416.0781"/></g><!--class ChildEvent--><g id="elem_ChildEvent"><rect codeLine="104" fill="#FFFAFA" height="162.0781" id="ChildEvent" rx="2.5" ry="2.5" style="stroke:#000000;stroke-width:0.5;" width="163" x="912" y="262"/><ellipse cx="950.85" cy="278" fill="#ADD1B2" rx="11" ry="11" style="stroke:#181818;stroke-width:1.0;"/><path d="M953.1938,273.6719 C952.2563,273.2344 951.6625,273.0938 950.7875,273.0938 C948.1625,273.0938 946.1625,275.1719 946.1625,277.8906 L946.1625,279.0156 C946.1625,281.5938 948.2719,283.4844 951.1625,283.4844 C952.3813,283.4844 953.5375,283.1875 954.2875,282.6406 C954.8656,282.2344 955.1938,281.7813 955.1938,281.3906 C955.1938,280.9375 954.8031,280.5469 954.3344,280.5469 C954.1156,280.5469 953.9125,280.625 953.725,280.8125 C953.2719,281.2969 953.2719,281.2969 953.0844,281.3906 C952.6625,281.6563 951.975,281.7813 951.2094,281.7813 C949.1625,281.7813 947.8656,280.6875 947.8656,278.9844 L947.8656,277.8906 C947.8656,276.1094 949.1156,274.7969 950.85,274.7969 C951.4281,274.7969 952.0375,274.9531 952.5063,275.2031 C952.9906,275.4844 953.1625,275.7031 953.2563,276.1094 C953.3188,276.5156 953.35,276.6406 953.4906,276.7656 C953.6313,276.9063 953.8656,277.0156 954.0844,277.0156 C954.35,277.0156 954.6156,276.875 954.7875,276.6563 C954.8969,276.5 954.9281,276.3125 954.9281,275.8906 L954.9281,274.4688 C954.9281,274.0313 954.9125,273.9063 954.8188,273.75 C954.6625,273.4844 954.3813,273.3438 954.0844,273.3438 C953.7875,273.3438 953.5844,273.4375 953.3656,273.75 L953.1938,273.6719 Z " fill="#000000"/><text fill="#000000" font-family="sans-serif" font-size="14" lengthAdjust="spacing" textLength="78" x="970.15" y="282.8467">ChildEvent</text><line style="stroke:#000000;stroke-width:0.5;" x1="913" x2="1074" y1="294" y2="294"/><rect fill="none" height="6" style="stroke:#C82930;stroke-width:1.0;" width="6" x="920" y="304.6484"/><text fill="#000000" font-family="sans-serif" font-size="14" lengthAdjust="spacing" textLength="84" x="932" y="310.9951">eventId: int</text><rect fill="none" height="6" style="stroke:#C82930;stroke-width:1.0;" width="6" x="920" y="320.9453"/><text fill="#000000" font-family="sans-serif" font-size="14" lengthAdjust="spacing" textLength="76" x="932" y="327.292">childId: int</text><rect fill="none" height="6" style="stroke:#C82930;stroke-width:1.0;" width="6" x="920" y="337.2422"/><text fill="#000000" font-family="sans-serif" font-size="14" lengthAdjust="spacing" textLength="136" x="932" y="343.5889">eventName: String</text><rect fill="none" height="6" style="stroke:#C82930;stroke-width:1.0;" width="6" x="920" y="353.5391"/><text fill="#000000" font-family="sans-serif" font-size="14" lengthAdjust="spacing" textLength="121" x="932" y="359.8857">eventDate: Date</text><rect fill="none" height="6" style="stroke:#C82930;stroke-width:1.0;" width="6" x="920" y="369.8359"/><text fill="#000000" font-family="sans-serif" font-size="14" lengthAdjust="spacing" textLength="111" x="932" y="376.1826">location: String</text><rect fill="none" height="6" style="stroke:#C82930;stroke-width:1.0;" width="6" x="920" y="386.1328"/><text fill="#000000" font-family="sans-serif" font-size="14" lengthAdjust="spacing" textLength="135" x="932" y="392.4795">description: String</text><rect fill="none" height="6" style="stroke:#C82930;stroke-width:1.0;" width="6" x="920" y="402.4297"/><text fill="#000000" font-family="sans-serif" font-size="14" lengthAdjust="spacing" textLength="137" x="932" y="408.7764">eventNotes: String</text><line style="stroke:#000000;stroke-width:0.5;" x1="913" x2="1074" y1="416.0781" y2="416.0781"/></g><!--class Conversation--><g id="elem_Conversation"><rect codeLine="114" fill="#FFFAFA" height="129.4844" id="Conversation" rx="2.5" ry="2.5" style="stroke:#000000;stroke-width:0.5;" width="193" x="456" y="484"/><ellipse cx="500.75" cy="500" fill="#ADD1B2" rx="11" ry="11" style="stroke:#181818;stroke-width:1.0;"/><path d="M503.0938,495.6719 C502.1563,495.2344 501.5625,495.0938 500.6875,495.0938 C498.0625,495.0938 496.0625,497.1719 496.0625,499.8906 L496.0625,501.0156 C496.0625,503.5938 498.1719,505.4844 501.0625,505.4844 C502.2813,505.4844 503.4375,505.1875 504.1875,504.6406 C504.7656,504.2344 505.0938,503.7813 505.0938,503.3906 C505.0938,502.9375 504.7031,502.5469 504.2344,502.5469 C504.0156,502.5469 503.8125,502.625 503.625,502.8125 C503.1719,503.2969 503.1719,503.2969 502.9844,503.3906 C502.5625,503.6563 501.875,503.7813 501.1094,503.7813 C499.0625,503.7813 497.7656,502.6875 497.7656,500.9844 L497.7656,499.8906 C497.7656,498.1094 499.0156,496.7969 500.75,496.7969 C501.3281,496.7969 501.9375,496.9531 502.4063,497.2031 C502.8906,497.4844 503.0625,497.7031 503.1563,498.1094 C503.2188,498.5156 503.25,498.6406 503.3906,498.7656 C503.5313,498.9063 503.7656,499.0156 503.9844,499.0156 C504.25,499.0156 504.5156,498.875 504.6875,498.6563 C504.7969,498.5 504.8281,498.3125 504.8281,497.8906 L504.8281,496.4688 C504.8281,496.0313 504.8125,495.9063 504.7188,495.75 C504.5625,495.4844 504.2813,495.3438 503.9844,495.3438 C503.6875,495.3438 503.4844,495.4375 503.2656,495.75 L503.0938,495.6719 Z " fill="#000000"/><text fill="#000000" font-family="sans-serif" font-size="14" lengthAdjust="spacing" textLength="95" x="521.25" y="504.8467">Conversation</text><line style="stroke:#000000;stroke-width:0.5;" x1="457" x2="648" y1="516" y2="516"/><rect fill="none" height="6" style="stroke:#C82930;stroke-width:1.0;" width="6" x="464" y="526.6484"/><text fill="#000000" font-family="sans-serif" font-size="14" lengthAdjust="spacing" textLength="135" x="476" y="532.9951">conversationId: int</text><rect fill="none" height="6" style="stroke:#C82930;stroke-width:1.0;" width="6" x="464" y="542.9453"/><text fill="#000000" font-family="sans-serif" font-size="14" lengthAdjust="spacing" textLength="91" x="476" y="549.292">parentId: int</text><rect fill="none" height="6" style="stroke:#C82930;stroke-width:1.0;" width="6" x="464" y="559.2422"/><text fill="#000000" font-family="sans-serif" font-size="14" lengthAdjust="spacing" textLength="90" x="476" y="565.5889">doctorId: int</text><rect fill="none" height="6" style="stroke:#C82930;stroke-width:1.0;" width="6" x="464" y="575.5391"/><text fill="#000000" font-family="sans-serif" font-size="14" lengthAdjust="spacing" textLength="140" x="476" y="581.8857">lastMessage: String</text><rect fill="none" height="6" style="stroke:#C82930;stroke-width:1.0;" width="6" x="464" y="591.8359"/><text fill="#000000" font-family="sans-serif" font-size="14" lengthAdjust="spacing" textLength="167" x="476" y="598.1826">lastMessageTime: Date</text><line style="stroke:#000000;stroke-width:0.5;" x1="457" x2="648" y1="605.4844" y2="605.4844"/></g><!--class Message--><g id="elem_Message"><rect codeLine="122" fill="#FFFAFA" height="129.4844" id="Message" rx="2.5" ry="2.5" style="stroke:#000000;stroke-width:0.5;" width="186" x="459.5" y="673"/><ellipse cx="517.75" cy="689" fill="#ADD1B2" rx="11" ry="11" style="stroke:#181818;stroke-width:1.0;"/><path d="M520.0938,684.6719 C519.1563,684.2344 518.5625,684.0938 517.6875,684.0938 C515.0625,684.0938 513.0625,686.1719 513.0625,688.8906 L513.0625,690.0156 C513.0625,692.5938 515.1719,694.4844 518.0625,694.4844 C519.2813,694.4844 520.4375,694.1875 521.1875,693.6406 C521.7656,693.2344 522.0938,692.7813 522.0938,692.3906 C522.0938,691.9375 521.7031,691.5469 521.2344,691.5469 C521.0156,691.5469 520.8125,691.625 520.625,691.8125 C520.1719,692.2969 520.1719,692.2969 519.9844,692.3906 C519.5625,692.6563 518.875,692.7813 518.1094,692.7813 C516.0625,692.7813 514.7656,691.6875 514.7656,689.9844 L514.7656,688.8906 C514.7656,687.1094 516.0156,685.7969 517.75,685.7969 C518.3281,685.7969 518.9375,685.9531 519.4063,686.2031 C519.8906,686.4844 520.0625,686.7031 520.1563,687.1094 C520.2188,687.5156 520.25,687.6406 520.3906,687.7656 C520.5313,687.9063 520.7656,688.0156 520.9844,688.0156 C521.25,688.0156 521.5156,687.875 521.6875,687.6563 C521.7969,687.5 521.8281,687.3125 521.8281,686.8906 L521.8281,685.4688 C521.8281,685.0313 521.8125,684.9063 521.7188,684.75 C521.5625,684.4844 521.2813,684.3438 520.9844,684.3438 C520.6875,684.3438 520.4844,684.4375 520.2656,684.75 L520.0938,684.6719 Z " fill="#000000"/><text fill="#000000" font-family="sans-serif" font-size="14" lengthAdjust="spacing" textLength="61" x="538.25" y="693.8467">Message</text><line style="stroke:#000000;stroke-width:0.5;" x1="460.5" x2="644.5" y1="705" y2="705"/><rect fill="none" height="6" style="stroke:#C82930;stroke-width:1.0;" width="6" x="467.5" y="715.6484"/><text fill="#000000" font-family="sans-serif" font-size="14" lengthAdjust="spacing" textLength="105" x="479.5" y="721.9951">messageId: int</text><rect fill="none" height="6" style="stroke:#C82930;stroke-width:1.0;" width="6" x="467.5" y="731.9453"/><text fill="#000000" font-family="sans-serif" font-size="14" lengthAdjust="spacing" textLength="135" x="479.5" y="738.292">conversationId: int</text><rect fill="none" height="6" style="stroke:#C82930;stroke-width:1.0;" width="6" x="467.5" y="748.2422"/><text fill="#000000" font-family="sans-serif" font-size="14" lengthAdjust="spacing" textLength="111" x="479.5" y="754.5889">content: String</text><rect fill="none" height="6" style="stroke:#C82930;stroke-width:1.0;" width="6" x="467.5" y="764.5391"/><text fill="#000000" font-family="sans-serif" font-size="14" lengthAdjust="spacing" textLength="160" x="479.5" y="770.8857">receiverAccountId: int</text><rect fill="none" height="6" style="stroke:#C82930;stroke-width:1.0;" width="6" x="467.5" y="780.8359"/><text fill="#000000" font-family="sans-serif" font-size="14" lengthAdjust="spacing" textLength="150" x="479.5" y="787.1826">senderAccountId: int</text><line style="stroke:#000000;stroke-width:0.5;" x1="460.5" x2="644.5" y1="794.4844" y2="794.4844"/></g><!--reverse link Account to Parent--><g id="link_Account_Parent"><path codeLine="34" d="M510.5,198.5 C510.5,198.5 551.598,259.933 580.013,302.408 " fill="none" id="Account-backto-Parent" style="stroke:#000000;stroke-width:1.0;"/></g><!--reverse link Account to Doctor--><g id="link_Account_Doctor"><path codeLine="35" d="M510.5,198.5 C510.5,198.5 474.017,252.472 445.8,294.217 " fill="none" id="Account-backto-Doctor" style="stroke:#000000;stroke-width:1.0;"/></g><!--link Child to Parent--><g id="link_Child_Parent"><path codeLine="130" d="M826.407,158.933 C785.037,188.146 733.938,225.692 690.5,262 C675.512,274.528 668.465,280.7234 654.757,293.9264 " fill="none" id="Child-to-Parent" style="stroke:#000000;stroke-width:1.0;"/><polygon fill="#000000" points="646.114,302.251,653.2104,300.9697,654.757,293.9264,647.6606,295.2077,646.114,302.251" style="stroke:#000000;stroke-width:1.0;"/><text fill="#000000" font-family="sans-serif" font-size="13" lengthAdjust="spacing" textLength="23" x="795.4276" y="160.2004">1..*</text><text fill="#000000" font-family="sans-serif" font-size="13" lengthAdjust="spacing" textLength="8" x="639.6813" y="291.3713">1</text></g><!--link Child to Prescription--><g id="link_Child_Prescription"><path codeLine="132" d="M982.506,108.929 C1081.73,117.979 1249.54,150.026 1327.5,262 C1368.64,321.088 1354.15,357.115 1327.5,424 C1317.39,449.379 1299.31,472.542 1280.34,491.776 " fill="none" id="Child-Prescription" style="stroke:#000000;stroke-width:1.0;"/><text fill="#000000" font-family="sans-serif" font-size="13" lengthAdjust="spacing" textLength="8" x="990.5128" y="105.7252">1</text><text fill="#000000" font-family="sans-serif" font-size="13" lengthAdjust="spacing" textLength="23" x="1260.2064" y="481.0123">0..*</text></g><!--link Doctor to Prescription--><g id="link_Doctor_Prescription"><path codeLine="133" d="M467.631,391.627 C483.994,403.867 502.647,415.863 521.5,424 C729.588,513.813 1000.162,538.311 1131.74,544.994 " fill="none" id="Doctor-Prescription" style="stroke:#000000;stroke-width:1.0;"/><text fill="#000000" font-family="sans-serif" font-size="13" lengthAdjust="spacing" textLength="8" x="462.3994" y="411.6038">1</text><text fill="#000000" font-family="sans-serif" font-size="13" lengthAdjust="spacing" textLength="23" x="1097.0997" y="541.1472">0..*</text></g><!--link PrescriptionDetail to Prescription--><g id="link_PrescriptionDetail_Prescription"><path codeLine="134" d="M1210.5,407.552 C1210.5,434.607 1210.5,453.878 1210.5,479.989 " fill="none" id="PrescriptionDetail-to-Prescription" style="stroke:#000000;stroke-width:1.0;"/><polygon fill="#000000" points="1210.5,491.989,1214.5,485.989,1210.5,479.989,1206.5,485.989,1210.5,491.989" style="stroke:#000000;stroke-width:1.0;"/><text fill="#000000" font-family="sans-serif" font-size="13" lengthAdjust="spacing" textLength="23" x="1186.1703" y="427.9296">1..*</text><text fill="#000000" font-family="sans-serif" font-size="13" lengthAdjust="spacing" textLength="8" x="1197.7313" y="480.851">1</text></g><!--link Child to ImmunizationSchedule--><g id="link_Child_ImmunizationSchedule"><path codeLine="136" d="M826.415,135.595 C770.316,156.382 692.544,183.509 622.5,202 C483.437,238.711 402.869,157.072 304.5,262 C246.951,323.386 249.997,427.651 258.802,491.754 " fill="none" id="Child-ImmunizationSchedule" style="stroke:#000000;stroke-width:1.0;"/><text fill="#000000" font-family="sans-serif" font-size="13" lengthAdjust="spacing" textLength="8" x="806.4006" y="134.9328">1</text><text fill="#000000" font-family="sans-serif" font-size="13" lengthAdjust="spacing" textLength="23" x="228.8529" y="480.9876">0..*</text></g><!--link Doctor to ImmunizationSchedule--><g id="link_Doctor_ImmunizationSchedule"><path codeLine="137" d="M379.738,391.712 C358.54,421.668 331.113,460.429 308.919,491.793 " fill="none" id="Doctor-ImmunizationSchedule" style="stroke:#000000;stroke-width:1.0;"/><text fill="#000000" font-family="sans-serif" font-size="13" lengthAdjust="spacing" textLength="8" x="362.395" y="411.3487">1</text><text fill="#000000" font-family="sans-serif" font-size="13" lengthAdjust="spacing" textLength="23" x="285.0779" y="481.0313">0..*</text></g><!--link ImmunizationDetail to ImmunizationSchedule--><g id="link_ImmunizationDetail_ImmunizationSchedule"><path codeLine="138" d="M160.842,407.552 C181.849,434.607 198.7688,456.3995 219.0418,482.5105 " fill="none" id="ImmunizationDetail-to-ImmunizationSchedule" style="stroke:#000000;stroke-width:1.0;"/><polygon fill="#000000" points="226.401,491.989,225.8809,484.7967,219.0418,482.5105,219.5619,489.7028,226.401,491.989" style="stroke:#000000;stroke-width:1.0;"/><text fill="#000000" font-family="sans-serif" font-size="13" lengthAdjust="spacing" textLength="23" x="142.2175" y="427.9296">1..*</text><text fill="#000000" font-family="sans-serif" font-size="13" lengthAdjust="spacing" textLength="8" x="208.1102" y="480.851">1</text></g><!--reverse link Child to ChildEvent--><g id="link_Child_ChildEvent"><path codeLine="140" d="M945.0544,213.2661 C952.5524,233.1911 956.145,242.736 963.393,261.996 " fill="none" id="Child-backto-ChildEvent" style="stroke:#000000;stroke-width:1.0;"/><polygon fill="#000000" points="940.828,202.035,939.1975,209.0593,945.0544,213.2661,946.6849,206.2418,940.828,202.035" style="stroke:#000000;stroke-width:1.0;"/><text fill="#000000" font-family="sans-serif" font-size="13" lengthAdjust="spacing" textLength="8" x="935.2021" y="221.8323">1</text><text fill="#000000" font-family="sans-serif" font-size="13" lengthAdjust="spacing" textLength="23" x="936.5574" y="250.9065">0..*</text></g><!--reverse link Child to SleepTime--><g id="link_Child_SleepTime"><path codeLine="142" d="M853.6479,212.8803 C844.2119,232.8053 839.509,242.736 830.388,261.996 " fill="none" id="Child-backto-SleepTime" style="stroke:#000000;stroke-width:1.0;"/><polygon fill="#000000" points="858.784,202.035,852.6009,205.7456,853.6479,212.8803,859.8311,209.1697,858.784,202.035" style="stroke:#000000;stroke-width:1.0;"/><text fill="#000000" font-family="sans-serif" font-size="13" lengthAdjust="spacing" textLength="8" x="847.133" y="221.8323">1</text><text fill="#000000" font-family="sans-serif" font-size="13" lengthAdjust="spacing" textLength="23" x="809.8206" y="250.9065">0..*</text></g><!--reverse link Child to MealTime--><g id="link_Child_MealTime"><path codeLine="144" d="M994.423,125.1624 C1092.922,148.3024 1253.96,192.323 1389.5,262 C1398.84,266.801 1408.23,272.385 1417.37,278.331 " fill="none" id="Child-backto-MealTime" style="stroke:#000000;stroke-width:1.0;"/><polygon fill="#000000" points="982.741,122.418,987.6672,127.6842,994.423,125.1624,989.4968,119.8962,982.741,122.418" style="stroke:#000000;stroke-width:1.0;"/><text fill="#000000" font-family="sans-serif" font-size="13" lengthAdjust="spacing" textLength="8" x="990.507" y="136.8494">1</text><text fill="#000000" font-family="sans-serif" font-size="13" lengthAdjust="spacing" textLength="23" x="1385.9229" y="268.7286">0..*</text></g><!--link MealTimeDetail to MealTime--><g id="link_MealTimeDetail_MealTime"><path codeLine="145" d="M1497.5,161.248 C1497.5,196.344 1497.5,229.749 1497.5,266.27 " fill="none" id="MealTimeDetail-to-MealTime" style="stroke:#000000;stroke-width:1.0;"/><polygon fill="#000000" points="1497.5,278.27,1501.5,272.27,1497.5,266.27,1493.5,272.27,1497.5,278.27" style="stroke:#000000;stroke-width:1.0;"/><text fill="#000000" font-family="sans-serif" font-size="13" lengthAdjust="spacing" textLength="23" x="1473.0984" y="181.1418">1..*</text><text fill="#000000" font-family="sans-serif" font-size="13" lengthAdjust="spacing" textLength="8" x="1489.0625" y="267.4175">1</text></g><!--reverse link Parent to Conversation--><g id="link_Parent_Conversation"><path codeLine="147" d="M592.8824,395.3186 C585.3324,423.7726 578.082,451.095 569.389,483.855 " fill="none" id="Parent-backto-Conversation" style="stroke:#000000;stroke-width:1.0;"/><polygon fill="#000000" points="595.96,383.72,590.555,388.4935,592.8824,395.3186,598.2874,390.5452,595.96,383.72" style="stroke:#000000;stroke-width:1.0;"/><text fill="#000000" font-family="sans-serif" font-size="13" lengthAdjust="spacing" textLength="8" x="581.4273" y="403.2119">1</text><text fill="#000000" font-family="sans-serif" font-size="13" lengthAdjust="spacing" textLength="23" x="546.9784" y="473.0118">0..*</text></g><!--reverse link Doctor to Conversation--><g id="link_Doctor_Conversation"><path codeLine="148" d="M452.8575,401.6209 C471.6345,429.1099 488.707,454.105 509.06,483.903 " fill="none" id="Doctor-backto-Conversation" style="stroke:#000000;stroke-width:1.0;"/><polygon fill="#000000" points="446.089,391.712,446.1703,398.9226,452.8575,401.6209,452.7762,394.4103,446.089,391.712" style="stroke:#000000;stroke-width:1.0;"/><text fill="#000000" font-family="sans-serif" font-size="13" lengthAdjust="spacing" textLength="8" x="437.6619" y="411.3487">1</text><text fill="#000000" font-family="sans-serif" font-size="13" lengthAdjust="spacing" textLength="23" x="480.0509" y="473.0651">0..*</text></g><!--reverse link Conversation to Message--><g id="link_Conversation_Message"><path codeLine="149" d="M552.5,625.071 C552.5,644.341 552.5,653.508 552.5,672.788 " fill="none" id="Conversation-backto-Message" style="stroke:#000000;stroke-width:1.0;"/><polygon fill="#000000" points="552.5,613.071,548.5,619.071,552.5,625.071,556.5,619.071,552.5,613.071" style="stroke:#000000;stroke-width:1.0;"/><text fill="#000000" font-family="sans-serif" font-size="13" lengthAdjust="spacing" textLength="8" x="539.8063" y="633.4508">1</text><text fill="#000000" font-family="sans-serif" font-size="13" lengthAdjust="spacing" textLength="23" x="528.2422" y="661.9375">0..*</text></g><!--SRC=[hLPDZziW4BtxLo0V8sNLzXZracnwo67JLkaVO64IeyLW0KxKZ_tl1HixVBdLIfj35DuCCs-6uH7zmaI75MuHuLXhzBj2zhF3vEMYP2_ee-HIePEGjz4W5GKrWZjklGPqgvIyXU1hfUUuBavt40qePh0WW3vLrPXhBqdVWZ0-wHfH3npe1Z5XF6gOuR119wEOk7YCI66iuuo-JZ6tX5ZQzv1uNCSHUmrAu3ODsja0DrjW0f-PqkQOkzjy9HXQp7XEx1jMOQdTi8nfOKeLQ9tljOqojhT1c-motjirKi2nRvz19Nnq1uHXpipFCF3Kfyz_rclFBSR6d1E3nuPnEXCWRfNaBzJpniPHRE3hUSUKQJPeRnSUlu2WMLKDi4jZpv_A_fbFdhSIAAI1md7OJXF5EiEak1zA0CQb52ekdO8hmNClPjg3iSDHp3UQagOkycc1CiBiYHVQA3M-f20JsgYUk425-JgqRI_OB-pC9z80xJdC9BK7tgqXORQa8ImpnU7ANAxsah-X5-M1U0BCVx3sNdVhWRJncE_lHNbQ1YlZV3V8VKz286Y6qVk1BbD8cj96S4ud9tcMaXQwGR1LQ0PwT9tJdZX05vMk9oJfleFVkVWWylS-Lgd0TBH7LfZRGPM-N4DTXMicGuLH7RnAsktmh48k2IwGNYvd3B_0MOehA8qZuI41-7zTBLqqfwbFzl78npsmZ2SItqPl2gPjM2SjNEINFiGZge00ipksfTTN3tgUc2oVyOsfFpuyh6gqNg_iJrHFRzDiHSw6wW_Mora3XQpyC_bFdu8QPnb3_uMy9SLSob_qBOXWogEuR-PJezMKemukmeB3VCUZWWA7INkgH8GYKe5RvV_Ff772yOuQikGJtOUSrJ2CVm40]--></g></svg>