<?xml version="1.0" encoding="us-ascii" standalone="no"?><svg xmlns="http://www.w3.org/2000/svg" xmlns:xlink="http://www.w3.org/1999/xlink" contentStyleType="text/css" height="801px" preserveAspectRatio="none" style="width:883px;height:801px;background:#FFFFFF;" version="1.1" viewBox="0 0 883 801" width="883px" zoomAndPan="magnify"><defs/><g><rect fill="none" height="550.7344" style="stroke:#000000;stroke-width:1.5;" width="866.5" x="10" y="226.8281"/><rect fill="none" height="304" style="stroke:#000000;stroke-width:1.5;" width="794.5" x="72" y="466.5625"/><line style="stroke:#181818;stroke-width:0.5;stroke-dasharray:5.0,5.0;" x1="46" x2="46" y1="81.2969" y2="794.5625"/><line style="stroke:#181818;stroke-width:0.5;stroke-dasharray:5.0,5.0;" x1="174" x2="174" y1="81.2969" y2="794.5625"/><line style="stroke:#181818;stroke-width:0.5;stroke-dasharray:5.0,5.0;" x1="363" x2="363" y1="81.2969" y2="794.5625"/><line style="stroke:#181818;stroke-width:0.5;stroke-dasharray:5.0,5.0;" x1="586" x2="586" y1="81.2969" y2="794.5625"/><line style="stroke:#181818;stroke-width:0.5;stroke-dasharray:5.0,5.0;" x1="759.5" x2="759.5" y1="81.2969" y2="794.5625"/><text fill="#000000" font-family="sans-serif" font-size="14" lengthAdjust="spacing" textLength="46" x="20" y="77.9951">Admin</text><ellipse cx="46" cy="13.5" fill="#E2E2F0" rx="8" ry="8" style="stroke:#181818;stroke-width:0.5;"/><path d="M46,21.5 L46,48.5 M33,29.5 L59,29.5 M46,48.5 L33,63.5 M46,48.5 L59,63.5 " fill="none" style="stroke:#181818;stroke-width:0.5;"/><text fill="#000000" font-family="sans-serif" font-size="14" lengthAdjust="spacing" textLength="178" x="82" y="77.9951">DoctorManagementView</text><path d="M153.5,37 L153.5,61 M153.5,49 L170.5,49 " fill="none" style="stroke:#181818;stroke-width:0.5;"/><ellipse cx="182.5" cy="49" fill="#E2E2F0" rx="12" ry="12" style="stroke:#181818;stroke-width:0.5;"/><text fill="#000000" font-family="sans-serif" font-size="14" lengthAdjust="spacing" textLength="169" x="276" y="77.9951">DoctorInformationView</text><path d="M343,37 L343,61 M343,49 L360,49 " fill="none" style="stroke:#181818;stroke-width:0.5;"/><ellipse cx="372" cy="49" fill="#E2E2F0" rx="12" ry="12" style="stroke:#181818;stroke-width:0.5;"/><text fill="#000000" font-family="sans-serif" font-size="14" lengthAdjust="spacing" textLength="123" x="522" y="77.9951">DoctorController</text><ellipse cx="586.5" cy="49" fill="#E2E2F0" rx="12" ry="12" style="stroke:#181818;stroke-width:0.5;"/><polygon fill="#181818" points="582.5,37,588.5,32,586.5,37,588.5,42,582.5,37" style="stroke:#181818;stroke-width:1.0;"/><text fill="#000000" font-family="sans-serif" font-size="14" lengthAdjust="spacing" textLength="62" x="725.5" y="77.9951">DOCTOR</text><ellipse cx="759.5" cy="49" fill="#E2E2F0" rx="12" ry="12" style="stroke:#181818;stroke-width:0.5;"/><line style="stroke:#181818;stroke-width:0.5;" x1="747.5" x2="771.5" y1="63" y2="63"/><line style="stroke:#181818;stroke-width:1.0;" x1="363.5" x2="405.5" y1="127.5625" y2="127.5625"/><line style="stroke:#181818;stroke-width:1.0;" x1="405.5" x2="405.5" y1="127.5625" y2="140.5625"/><line style="stroke:#181818;stroke-width:1.0;" x1="364.5" x2="405.5" y1="140.5625" y2="140.5625"/><polygon fill="#181818" points="374.5,136.5625,364.5,140.5625,374.5,144.5625,370.5,140.5625" style="stroke:#181818;stroke-width:1.0;"/><text fill="#000000" font-family="sans-serif" font-size="13" font-weight="bold" lengthAdjust="spacing" textLength="9" x="370.5" y="114.9302">1</text><text fill="#000000" font-family="sans-serif" font-size="13" lengthAdjust="spacing" textLength="78" x="383.5" y="107.3638">Display with</text><text fill="#000000" font-family="sans-serif" font-size="13" lengthAdjust="spacing" textLength="120" x="383.5" y="122.4966">empty information</text><polygon fill="#181818" points="351.5,165.6953,361.5,169.6953,351.5,173.6953,355.5,169.6953" style="stroke:#181818;stroke-width:1.0;"/><line style="stroke:#181818;stroke-width:1.0;" x1="46" x2="357.5" y1="169.6953" y2="169.6953"/><text fill="#000000" font-family="sans-serif" font-size="13" font-weight="bold" lengthAdjust="spacing" textLength="9" x="53" y="164.6294">2</text><text fill="#000000" font-family="sans-serif" font-size="13" lengthAdjust="spacing" textLength="157" x="66" y="164.6294">Enter doctor information</text><line style="stroke:#181818;stroke-width:1.0;" x1="363.5" x2="405.5" y1="198.8281" y2="198.8281"/><line style="stroke:#181818;stroke-width:1.0;" x1="405.5" x2="405.5" y1="198.8281" y2="211.8281"/><line style="stroke:#181818;stroke-width:1.0;" x1="364.5" x2="405.5" y1="211.8281" y2="211.8281"/><polygon fill="#181818" points="374.5,207.8281,364.5,211.8281,374.5,215.8281,370.5,211.8281" style="stroke:#181818;stroke-width:1.0;"/><text fill="#000000" font-family="sans-serif" font-size="13" font-weight="bold" lengthAdjust="spacing" textLength="8" x="370.5" y="193.7622">3</text><text fill="#000000" font-family="sans-serif" font-size="13" lengthAdjust="spacing" textLength="85" x="382.5" y="193.7622">Validate data</text><path d="M10,226.8281 L76,226.8281 L76,233.9609 L66,243.9609 L10,243.9609 L10,226.8281 " fill="#EEEEEE" style="stroke:#000000;stroke-width:1.5;"/><rect fill="none" height="550.7344" style="stroke:#000000;stroke-width:1.5;" width="866.5" x="10" y="226.8281"/><text fill="#000000" font-family="sans-serif" font-size="13" font-weight="bold" lengthAdjust="spacing" textLength="21" x="25" y="239.895">alt</text><text fill="#000000" font-family="sans-serif" font-size="11" font-weight="bold" lengthAdjust="spacing" textLength="88" x="91" y="239.0386">[Invalid data]</text><polygon fill="#181818" points="57,261.0938,47,265.0938,57,269.0938,53,265.0938" style="stroke:#181818;stroke-width:1.0;"/><line style="stroke:#181818;stroke-width:1.0;stroke-dasharray:2.0,2.0;" x1="51" x2="362.5" y1="265.0938" y2="265.0938"/><text fill="#000000" font-family="sans-serif" font-size="13" font-weight="bold" lengthAdjust="spacing" textLength="9" x="63" y="260.0278">4</text><text fill="#000000" font-family="sans-serif" font-size="13" lengthAdjust="spacing" textLength="106" x="76" y="260.0278">Error notification</text><line style="stroke:#181818;stroke-width:1.0;" x1="363.5" x2="405.5" y1="294.2266" y2="294.2266"/><line style="stroke:#181818;stroke-width:1.0;" x1="405.5" x2="405.5" y1="294.2266" y2="307.2266"/><line style="stroke:#181818;stroke-width:1.0;" x1="364.5" x2="405.5" y1="307.2266" y2="307.2266"/><polygon fill="#181818" points="374.5,303.2266,364.5,307.2266,374.5,311.2266,370.5,307.2266" style="stroke:#181818;stroke-width:1.0;"/><text fill="#000000" font-family="sans-serif" font-size="13" font-weight="bold" lengthAdjust="spacing" textLength="9" x="370.5" y="289.1606">5</text><text fill="#000000" font-family="sans-serif" font-size="13" lengthAdjust="spacing" textLength="157" x="383.5" y="289.1606">Display error notification</text><line style="stroke:#000000;stroke-width:1.0;stroke-dasharray:2.0,2.0;" x1="10" x2="876.5" y1="316.2266" y2="316.2266"/><text fill="#000000" font-family="sans-serif" font-size="11" font-weight="bold" lengthAdjust="spacing" textLength="78" x="15" y="326.437">[Valid data]</text><polygon fill="#181818" points="351.5,347.1641,361.5,351.1641,351.5,355.1641,355.5,351.1641" style="stroke:#181818;stroke-width:1.0;"/><line style="stroke:#181818;stroke-width:1.0;" x1="46" x2="357.5" y1="351.1641" y2="351.1641"/><text fill="#000000" font-family="sans-serif" font-size="13" font-weight="bold" lengthAdjust="spacing" textLength="9" x="53" y="346.0981">6</text><text fill="#000000" font-family="sans-serif" font-size="13" lengthAdjust="spacing" textLength="191" x="66" y="346.0981">Click button "Save" to confirm</text><polygon fill="#181818" points="574.5,376.2969,584.5,380.2969,574.5,384.2969,578.5,380.2969" style="stroke:#181818;stroke-width:1.0;"/><line style="stroke:#181818;stroke-width:1.0;" x1="363.5" x2="580.5" y1="380.2969" y2="380.2969"/><text fill="#000000" font-family="sans-serif" font-size="13" font-weight="bold" lengthAdjust="spacing" textLength="9" x="370.5" y="375.231">7</text><text fill="#000000" font-family="sans-serif" font-size="13" lengthAdjust="spacing" textLength="186" x="383.5" y="375.231">Send creating doctor request</text><polygon fill="#181818" points="747.5,405.4297,757.5,409.4297,747.5,413.4297,751.5,409.4297" style="stroke:#181818;stroke-width:1.0;"/><line style="stroke:#181818;stroke-width:1.0;" x1="586.5" x2="753.5" y1="409.4297" y2="409.4297"/><text fill="#000000" font-family="sans-serif" font-size="13" font-weight="bold" lengthAdjust="spacing" textLength="9" x="593.5" y="404.3638">8</text><text fill="#000000" font-family="sans-serif" font-size="13" lengthAdjust="spacing" textLength="110" x="606.5" y="404.3638">Send information</text><line style="stroke:#181818;stroke-width:1.0;" x1="759.5" x2="801.5" y1="438.5625" y2="438.5625"/><line style="stroke:#181818;stroke-width:1.0;" x1="801.5" x2="801.5" y1="438.5625" y2="451.5625"/><line style="stroke:#181818;stroke-width:1.0;" x1="760.5" x2="801.5" y1="451.5625" y2="451.5625"/><polygon fill="#181818" points="770.5,447.5625,760.5,451.5625,770.5,455.5625,766.5,451.5625" style="stroke:#181818;stroke-width:1.0;"/><text fill="#000000" font-family="sans-serif" font-size="13" font-weight="bold" lengthAdjust="spacing" textLength="9" x="766.5" y="433.4966">9</text><text fill="#000000" font-family="sans-serif" font-size="13" lengthAdjust="spacing" textLength="85" x="779.5" y="433.4966">Validate data</text><path d="M72,466.5625 L138,466.5625 L138,473.6953 L128,483.6953 L72,483.6953 L72,466.5625 " fill="#EEEEEE" style="stroke:#000000;stroke-width:1.5;"/><rect fill="none" height="304" style="stroke:#000000;stroke-width:1.5;" width="794.5" x="72" y="466.5625"/><text fill="#000000" font-family="sans-serif" font-size="13" font-weight="bold" lengthAdjust="spacing" textLength="21" x="87" y="479.6294">alt</text><text fill="#000000" font-family="sans-serif" font-size="11" font-weight="bold" lengthAdjust="spacing" textLength="88" x="153" y="478.7729">[Invalid data]</text><polygon fill="#181818" points="597.5,500.8281,587.5,504.8281,597.5,508.8281,593.5,504.8281" style="stroke:#181818;stroke-width:1.0;"/><line style="stroke:#181818;stroke-width:1.0;stroke-dasharray:2.0,2.0;" x1="591.5" x2="758.5" y1="504.8281" y2="504.8281"/><text fill="#000000" font-family="sans-serif" font-size="13" font-weight="bold" lengthAdjust="spacing" textLength="19" x="603.5" y="499.7622">10</text><text fill="#000000" font-family="sans-serif" font-size="13" lengthAdjust="spacing" textLength="106" x="626.5" y="499.7622">Error notification</text><polygon fill="#181818" points="374.5,529.9609,364.5,533.9609,374.5,537.9609,370.5,533.9609" style="stroke:#181818;stroke-width:1.0;"/><line style="stroke:#181818;stroke-width:1.0;stroke-dasharray:2.0,2.0;" x1="368.5" x2="585.5" y1="533.9609" y2="533.9609"/><text fill="#000000" font-family="sans-serif" font-size="13" font-weight="bold" lengthAdjust="spacing" textLength="18" x="380.5" y="528.895">11</text><text fill="#000000" font-family="sans-serif" font-size="13" lengthAdjust="spacing" textLength="106" x="402.5" y="528.895">Error notification</text><line style="stroke:#181818;stroke-width:1.0;" x1="363.5" x2="405.5" y1="563.0938" y2="563.0938"/><line style="stroke:#181818;stroke-width:1.0;" x1="405.5" x2="405.5" y1="563.0938" y2="576.0938"/><line style="stroke:#181818;stroke-width:1.0;" x1="364.5" x2="405.5" y1="576.0938" y2="576.0938"/><polygon fill="#181818" points="374.5,572.0938,364.5,576.0938,374.5,580.0938,370.5,576.0938" style="stroke:#181818;stroke-width:1.0;"/><text fill="#000000" font-family="sans-serif" font-size="13" font-weight="bold" lengthAdjust="spacing" textLength="18" x="370.5" y="558.0278">12</text><text fill="#000000" font-family="sans-serif" font-size="13" lengthAdjust="spacing" textLength="157" x="392.5" y="558.0278">Display error notification</text><line style="stroke:#000000;stroke-width:1.0;stroke-dasharray:2.0,2.0;" x1="72" x2="866.5" y1="585.0938" y2="585.0938"/><text fill="#000000" font-family="sans-serif" font-size="11" font-weight="bold" lengthAdjust="spacing" textLength="78" x="77" y="595.3042">[Valid data]</text><line style="stroke:#181818;stroke-width:1.0;" x1="759.5" x2="801.5" y1="620.0313" y2="620.0313"/><line style="stroke:#181818;stroke-width:1.0;" x1="801.5" x2="801.5" y1="620.0313" y2="633.0313"/><line style="stroke:#181818;stroke-width:1.0;" x1="760.5" x2="801.5" y1="633.0313" y2="633.0313"/><polygon fill="#181818" points="770.5,629.0313,760.5,633.0313,770.5,637.0313,766.5,633.0313" style="stroke:#181818;stroke-width:1.0;"/><text fill="#000000" font-family="sans-serif" font-size="13" font-weight="bold" lengthAdjust="spacing" textLength="17" x="766.5" y="614.9653">13</text><text fill="#000000" font-family="sans-serif" font-size="13" lengthAdjust="spacing" textLength="67" x="787.5" y="614.9653">Store data</text><polygon fill="#181818" points="597.5,658.1641,587.5,662.1641,597.5,666.1641,593.5,662.1641" style="stroke:#181818;stroke-width:1.0;"/><line style="stroke:#181818;stroke-width:1.0;stroke-dasharray:2.0,2.0;" x1="591.5" x2="758.5" y1="662.1641" y2="662.1641"/><text fill="#000000" font-family="sans-serif" font-size="13" font-weight="bold" lengthAdjust="spacing" textLength="18" x="603.5" y="657.0981">14</text><text fill="#000000" font-family="sans-serif" font-size="13" lengthAdjust="spacing" textLength="127" x="625.5" y="657.0981">Success notification</text><polygon fill="#181818" points="374.5,687.2969,364.5,691.2969,374.5,695.2969,370.5,691.2969" style="stroke:#181818;stroke-width:1.0;"/><line style="stroke:#181818;stroke-width:1.0;stroke-dasharray:2.0,2.0;" x1="368.5" x2="585.5" y1="691.2969" y2="691.2969"/><text fill="#000000" font-family="sans-serif" font-size="13" font-weight="bold" lengthAdjust="spacing" textLength="18" x="380.5" y="686.231">15</text><text fill="#000000" font-family="sans-serif" font-size="13" lengthAdjust="spacing" textLength="127" x="402.5" y="686.231">Success notification</text><line style="stroke:#181818;stroke-width:1.0;" x1="363.5" x2="405.5" y1="720.4297" y2="720.4297"/><line style="stroke:#181818;stroke-width:1.0;" x1="405.5" x2="405.5" y1="720.4297" y2="733.4297"/><line style="stroke:#181818;stroke-width:1.0;" x1="364.5" x2="405.5" y1="733.4297" y2="733.4297"/><polygon fill="#181818" points="374.5,729.4297,364.5,733.4297,374.5,737.4297,370.5,733.4297" style="stroke:#181818;stroke-width:1.0;"/><text fill="#000000" font-family="sans-serif" font-size="13" font-weight="bold" lengthAdjust="spacing" textLength="18" x="370.5" y="715.3638">16</text><text fill="#000000" font-family="sans-serif" font-size="13" lengthAdjust="spacing" textLength="69" x="392.5" y="715.3638">Close view</text><polygon fill="#181818" points="185,758.5625,175,762.5625,185,766.5625,181,762.5625" style="stroke:#181818;stroke-width:1.0;"/><line style="stroke:#181818;stroke-width:1.0;" x1="179" x2="585.5" y1="762.5625" y2="762.5625"/><text fill="#000000" font-family="sans-serif" font-size="13" font-weight="bold" lengthAdjust="spacing" textLength="18" x="191" y="757.4966">17</text><text fill="#000000" font-family="sans-serif" font-size="13" lengthAdjust="spacing" textLength="296" x="213" y="757.4966">Display success notification and list of doctors</text><!--SRC=[hLJBJiCm4BpxArRS-O4UAg6KGm-e4aKzSN7YJMlXU8kzQUdVit6A4i1z2NA8bDsToNXcPTqo-ROfCQYDDGWr4PVqePIkc08ycCPwLLBhZGu7c55NVT9Uhx51pokB-v_TkQyfD9ej-TIko7CWT-mM_PUJ_mdUig0MnSlYMQai6kwdUTe9p6pSEds0lUKDl7fija9cXocLj9yXUFIC0KngZe40DsjPQMUDPWHvQQKTmzplkbfV07bEK0fdqYboGX0TdjZMjkfFS0PtqHRyJOSkOYzra7N9fCBPwWtAbcLDu6wfTtW7J22XrZOqroWS4f_04hs1Ag2C-VMNzG7VMumyuXeWYIOjo14y3ZW1KdCyzZsBRYQRnnYSrNeYZxpACrjsYUPVekteSl7cBLeAEzvWnRAjAepnxsPSGNIz7OKZEV2kksDEQvbcxwp1ovXH15eMpTd8GFLnIMFli3ToQvbF]--></g></svg>