<?xml version="1.0" encoding="us-ascii" standalone="no"?><svg xmlns="http://www.w3.org/2000/svg" xmlns:xlink="http://www.w3.org/1999/xlink" contentStyleType="text/css" height="804px" preserveAspectRatio="none" style="width:784px;height:804px;background:#FFFFFF;" version="1.1" viewBox="0 0 784 804" width="784px" zoomAndPan="magnify"><defs/><g><rect fill="none" height="551.8672" style="stroke:#000000;stroke-width:1.5;" width="767" x="10" y="228.7969"/><rect fill="none" height="290" style="stroke:#000000;stroke-width:1.5;" width="646" x="121" y="483.6641"/><line style="stroke:#181818;stroke-width:0.5;stroke-dasharray:5.0,5.0;" x1="46" x2="46" y1="81.2969" y2="797.6641"/><line style="stroke:#181818;stroke-width:0.5;stroke-dasharray:5.0,5.0;" x1="223" x2="223" y1="81.2969" y2="797.6641"/><line style="stroke:#181818;stroke-width:0.5;stroke-dasharray:5.0,5.0;" x1="468.5" x2="468.5" y1="81.2969" y2="797.6641"/><line style="stroke:#181818;stroke-width:0.5;stroke-dasharray:5.0,5.0;" x1="651" x2="651" y1="81.2969" y2="797.6641"/><text fill="#000000" font-family="sans-serif" font-size="14" lengthAdjust="spacing" textLength="46" x="20" y="77.9951">Admin</text><ellipse cx="46" cy="13.5" fill="#E2E2F0" rx="8" ry="8" style="stroke:#181818;stroke-width:0.5;"/><path d="M46,21.5 L46,48.5 M33,29.5 L59,29.5 M46,48.5 L33,63.5 M46,48.5 L59,63.5 " fill="none" style="stroke:#181818;stroke-width:0.5;"/><text fill="#000000" font-family="sans-serif" font-size="14" lengthAdjust="spacing" textLength="178" x="131" y="77.9951">DoctorManagementView</text><path d="M202.5,37 L202.5,61 M202.5,49 L219.5,49 " fill="none" style="stroke:#181818;stroke-width:0.5;"/><ellipse cx="231.5" cy="49" fill="#E2E2F0" rx="12" ry="12" style="stroke:#181818;stroke-width:0.5;"/><text fill="#000000" font-family="sans-serif" font-size="14" lengthAdjust="spacing" textLength="123" x="404.5" y="77.9951">DoctorController</text><ellipse cx="469" cy="49" fill="#E2E2F0" rx="12" ry="12" style="stroke:#181818;stroke-width:0.5;"/><polygon fill="#181818" points="465,37,471,32,469,37,471,42,465,37" style="stroke:#181818;stroke-width:1.0;"/><text fill="#000000" font-family="sans-serif" font-size="14" lengthAdjust="spacing" textLength="62" x="617" y="77.9951">DOCTOR</text><ellipse cx="651" cy="49" fill="#E2E2F0" rx="12" ry="12" style="stroke:#181818;stroke-width:0.5;"/><line style="stroke:#181818;stroke-width:0.5;" x1="639" x2="663" y1="63" y2="63"/><rect fill="none" height="39.1016" style="stroke:#000000;stroke-width:1.5;" width="671" x="17" y="91.2969"/><path d="M17,91.2969 L85,91.2969 L85,98.2969 L75,108.2969 L17,108.2969 L17,91.2969 " fill="#EEEEEE" style="stroke:#000000;stroke-width:2.0;"/><text fill="#000000" font-family="sans-serif" font-size="13" font-weight="bold" lengthAdjust="spacing" textLength="23" x="30" y="105.3638">ref</text><text fill="#000000" font-family="sans-serif" font-size="12" lengthAdjust="spacing" textLength="152" x="276.5" y="123.4355">Sequence Search Doctor</text><polygon fill="#181818" points="211,167.6641,221,171.6641,211,175.6641,215,171.6641" style="stroke:#181818;stroke-width:1.0;"/><line style="stroke:#181818;stroke-width:1.0;" x1="46" x2="217" y1="171.6641" y2="171.6641"/><text fill="#000000" font-family="sans-serif" font-size="13" font-weight="bold" lengthAdjust="spacing" textLength="9" x="53" y="159.0317">1</text><text fill="#000000" font-family="sans-serif" font-size="13" lengthAdjust="spacing" textLength="84" x="66" y="151.4653">Select doctor</text><text fill="#000000" font-family="sans-serif" font-size="13" lengthAdjust="spacing" textLength="94" x="70" y="166.5981">needs deleting</text><line style="stroke:#181818;stroke-width:1.0;" x1="223" x2="265" y1="200.7969" y2="200.7969"/><line style="stroke:#181818;stroke-width:1.0;" x1="265" x2="265" y1="200.7969" y2="213.7969"/><line style="stroke:#181818;stroke-width:1.0;" x1="224" x2="265" y1="213.7969" y2="213.7969"/><polygon fill="#181818" points="234,209.7969,224,213.7969,234,217.7969,230,213.7969" style="stroke:#181818;stroke-width:1.0;"/><text fill="#000000" font-family="sans-serif" font-size="13" font-weight="bold" lengthAdjust="spacing" textLength="9" x="230" y="195.731">2</text><text fill="#000000" font-family="sans-serif" font-size="13" lengthAdjust="spacing" textLength="219" x="243" y="195.731">Display confirmation messagebox</text><path d="M10,228.7969 L76,228.7969 L76,235.9297 L66,245.9297 L10,245.9297 L10,228.7969 " fill="#EEEEEE" style="stroke:#000000;stroke-width:1.5;"/><rect fill="none" height="551.8672" style="stroke:#000000;stroke-width:1.5;" width="767" x="10" y="228.7969"/><text fill="#000000" font-family="sans-serif" font-size="13" font-weight="bold" lengthAdjust="spacing" textLength="21" x="25" y="241.8638">alt</text><text fill="#000000" font-family="sans-serif" font-size="11" font-weight="bold" lengthAdjust="spacing" textLength="54" x="91" y="241.0073">[Cancel]</text><polygon fill="#181818" points="211,263.0625,221,267.0625,211,271.0625,215,267.0625" style="stroke:#181818;stroke-width:1.0;"/><line style="stroke:#181818;stroke-width:1.0;" x1="46" x2="217" y1="267.0625" y2="267.0625"/><text fill="#000000" font-family="sans-serif" font-size="13" font-weight="bold" lengthAdjust="spacing" textLength="8" x="53" y="261.9966">3</text><text fill="#000000" font-family="sans-serif" font-size="13" lengthAdjust="spacing" textLength="132" x="65" y="261.9966">Click "Cancel" button</text><line style="stroke:#181818;stroke-width:1.0;" x1="223" x2="265" y1="296.1953" y2="296.1953"/><line style="stroke:#181818;stroke-width:1.0;" x1="265" x2="265" y1="296.1953" y2="309.1953"/><line style="stroke:#181818;stroke-width:1.0;" x1="224" x2="265" y1="309.1953" y2="309.1953"/><polygon fill="#181818" points="234,305.1953,224,309.1953,234,313.1953,230,309.1953" style="stroke:#181818;stroke-width:1.0;"/><text fill="#000000" font-family="sans-serif" font-size="13" font-weight="bold" lengthAdjust="spacing" textLength="9" x="230" y="291.1294">4</text><text fill="#000000" font-family="sans-serif" font-size="13" lengthAdjust="spacing" textLength="211" x="243" y="291.1294">Close confirmation message box</text><line style="stroke:#000000;stroke-width:1.0;stroke-dasharray:2.0,2.0;" x1="10" x2="777" y1="318.1953" y2="318.1953"/><text fill="#000000" font-family="sans-serif" font-size="11" font-weight="bold" lengthAdjust="spacing" textLength="65" x="15" y="328.4058">[Confirm]</text><polygon fill="#181818" points="211,349.1328,221,353.1328,211,357.1328,215,353.1328" style="stroke:#181818;stroke-width:1.0;"/><line style="stroke:#181818;stroke-width:1.0;" x1="46" x2="217" y1="353.1328" y2="353.1328"/><text fill="#000000" font-family="sans-serif" font-size="13" font-weight="bold" lengthAdjust="spacing" textLength="9" x="53" y="348.0669">5</text><text fill="#000000" font-family="sans-serif" font-size="13" lengthAdjust="spacing" textLength="140" x="66" y="348.0669">Click "Confirm" button</text><polygon fill="#181818" points="457,393.3984,467,397.3984,457,401.3984,461,397.3984" style="stroke:#181818;stroke-width:1.0;"/><line style="stroke:#181818;stroke-width:1.0;" x1="223" x2="463" y1="397.3984" y2="397.3984"/><text fill="#000000" font-family="sans-serif" font-size="13" font-weight="bold" lengthAdjust="spacing" textLength="9" x="230" y="384.7661">6</text><text fill="#000000" font-family="sans-serif" font-size="13" lengthAdjust="spacing" textLength="87" x="243" y="377.1997">Send deleting</text><text fill="#000000" font-family="sans-serif" font-size="13" lengthAdjust="spacing" textLength="152" x="243" y="392.3325">selected doctor request</text><polygon fill="#181818" points="639,422.5313,649,426.5313,639,430.5313,643,426.5313" style="stroke:#181818;stroke-width:1.0;"/><line style="stroke:#181818;stroke-width:1.0;" x1="469" x2="645" y1="426.5313" y2="426.5313"/><text fill="#000000" font-family="sans-serif" font-size="13" font-weight="bold" lengthAdjust="spacing" textLength="9" x="476" y="421.4653">7</text><text fill="#000000" font-family="sans-serif" font-size="13" lengthAdjust="spacing" textLength="145" x="489" y="421.4653">Delete selected doctor</text><line style="stroke:#181818;stroke-width:1.0;" x1="651" x2="693" y1="455.6641" y2="455.6641"/><line style="stroke:#181818;stroke-width:1.0;" x1="693" x2="693" y1="455.6641" y2="468.6641"/><line style="stroke:#181818;stroke-width:1.0;" x1="652" x2="693" y1="468.6641" y2="468.6641"/><polygon fill="#181818" points="662,464.6641,652,468.6641,662,472.6641,658,468.6641" style="stroke:#181818;stroke-width:1.0;"/><text fill="#000000" font-family="sans-serif" font-size="13" font-weight="bold" lengthAdjust="spacing" textLength="9" x="658" y="450.5981">8</text><text fill="#000000" font-family="sans-serif" font-size="13" lengthAdjust="spacing" textLength="85" x="671" y="450.5981">Validate data</text><path d="M121,483.6641 L187,483.6641 L187,490.7969 L177,500.7969 L121,500.7969 L121,483.6641 " fill="#EEEEEE" style="stroke:#000000;stroke-width:1.5;"/><rect fill="none" height="290" style="stroke:#000000;stroke-width:1.5;" width="646" x="121" y="483.6641"/><text fill="#000000" font-family="sans-serif" font-size="13" font-weight="bold" lengthAdjust="spacing" textLength="21" x="136" y="496.731">alt</text><text fill="#000000" font-family="sans-serif" font-size="11" font-weight="bold" lengthAdjust="spacing" textLength="88" x="202" y="495.8745">[Invalid data]</text><polygon fill="#181818" points="480,517.9297,470,521.9297,480,525.9297,476,521.9297" style="stroke:#181818;stroke-width:1.0;"/><line style="stroke:#181818;stroke-width:1.0;stroke-dasharray:2.0,2.0;" x1="474" x2="650" y1="521.9297" y2="521.9297"/><text fill="#000000" font-family="sans-serif" font-size="13" font-weight="bold" lengthAdjust="spacing" textLength="9" x="486" y="516.8638">9</text><text fill="#000000" font-family="sans-serif" font-size="13" lengthAdjust="spacing" textLength="106" x="499" y="516.8638">Error notification</text><polygon fill="#181818" points="234,547.0625,224,551.0625,234,555.0625,230,551.0625" style="stroke:#181818;stroke-width:1.0;"/><line style="stroke:#181818;stroke-width:1.0;stroke-dasharray:2.0,2.0;" x1="228" x2="468" y1="551.0625" y2="551.0625"/><text fill="#000000" font-family="sans-serif" font-size="13" font-weight="bold" lengthAdjust="spacing" textLength="19" x="240" y="545.9966">10</text><text fill="#000000" font-family="sans-serif" font-size="13" lengthAdjust="spacing" textLength="106" x="263" y="545.9966">Error notification</text><line style="stroke:#181818;stroke-width:1.0;" x1="223" x2="265" y1="580.1953" y2="580.1953"/><line style="stroke:#181818;stroke-width:1.0;" x1="265" x2="265" y1="580.1953" y2="593.1953"/><line style="stroke:#181818;stroke-width:1.0;" x1="224" x2="265" y1="593.1953" y2="593.1953"/><polygon fill="#181818" points="234,589.1953,224,593.1953,234,597.1953,230,593.1953" style="stroke:#181818;stroke-width:1.0;"/><text fill="#000000" font-family="sans-serif" font-size="13" font-weight="bold" lengthAdjust="spacing" textLength="18" x="230" y="575.1294">11</text><text fill="#000000" font-family="sans-serif" font-size="13" lengthAdjust="spacing" textLength="157" x="252" y="575.1294">Display error notification</text><line style="stroke:#000000;stroke-width:1.0;stroke-dasharray:2.0,2.0;" x1="121" x2="767" y1="602.1953" y2="602.1953"/><text fill="#000000" font-family="sans-serif" font-size="11" font-weight="bold" lengthAdjust="spacing" textLength="78" x="126" y="612.4058">[Valid data]</text><line style="stroke:#181818;stroke-width:1.0;" x1="651" x2="693" y1="637.1328" y2="637.1328"/><line style="stroke:#181818;stroke-width:1.0;" x1="693" x2="693" y1="637.1328" y2="650.1328"/><line style="stroke:#181818;stroke-width:1.0;" x1="652" x2="693" y1="650.1328" y2="650.1328"/><polygon fill="#181818" points="662,646.1328,652,650.1328,662,654.1328,658,650.1328" style="stroke:#181818;stroke-width:1.0;"/><text fill="#000000" font-family="sans-serif" font-size="13" font-weight="bold" lengthAdjust="spacing" textLength="18" x="658" y="632.0669">12</text><text fill="#000000" font-family="sans-serif" font-size="13" lengthAdjust="spacing" textLength="75" x="680" y="632.0669">Delete data</text><polygon fill="#181818" points="480,675.2656,470,679.2656,480,683.2656,476,679.2656" style="stroke:#181818;stroke-width:1.0;"/><line style="stroke:#181818;stroke-width:1.0;stroke-dasharray:2.0,2.0;" x1="474" x2="650" y1="679.2656" y2="679.2656"/><text fill="#000000" font-family="sans-serif" font-size="13" font-weight="bold" lengthAdjust="spacing" textLength="17" x="486" y="674.1997">13</text><text fill="#000000" font-family="sans-serif" font-size="13" lengthAdjust="spacing" textLength="127" x="507" y="674.1997">Success notification</text><polygon fill="#181818" points="234,704.3984,224,708.3984,234,712.3984,230,708.3984" style="stroke:#181818;stroke-width:1.0;"/><line style="stroke:#181818;stroke-width:1.0;stroke-dasharray:2.0,2.0;" x1="228" x2="468" y1="708.3984" y2="708.3984"/><text fill="#000000" font-family="sans-serif" font-size="13" font-weight="bold" lengthAdjust="spacing" textLength="18" x="240" y="703.3325">14</text><text fill="#000000" font-family="sans-serif" font-size="13" lengthAdjust="spacing" textLength="106" x="262" y="703.3325">Error notification</text><line style="stroke:#181818;stroke-width:1.0;" x1="223" x2="265" y1="752.6641" y2="752.6641"/><line style="stroke:#181818;stroke-width:1.0;" x1="265" x2="265" y1="752.6641" y2="765.6641"/><line style="stroke:#181818;stroke-width:1.0;" x1="224" x2="265" y1="765.6641" y2="765.6641"/><polygon fill="#181818" points="234,761.6641,224,765.6641,234,769.6641,230,765.6641" style="stroke:#181818;stroke-width:1.0;"/><text fill="#000000" font-family="sans-serif" font-size="13" font-weight="bold" lengthAdjust="spacing" textLength="18" x="230" y="740.0317">15</text><text fill="#000000" font-family="sans-serif" font-size="13" lengthAdjust="spacing" textLength="177" x="252" y="732.4653">Display success notification</text><text fill="#000000" font-family="sans-serif" font-size="13" lengthAdjust="spacing" textLength="115" x="252" y="747.5981">and list of doctors</text><!--SRC=[pLInJiCm4Dtz5IVcyWCCI2XbO42LAEhKnR4lhOLp1jifzEyvEnQfgAkIZGnHV7VlwVczK-GG7GrzYrxiZKRed8kj-n92gkWyFEZUa6ZTG5hw8onTgZvBaZliaUB6uATGZg9tjZIRyMIPa0TCPD2gULsz2E6n0tV0GhgeaYtEM1O5VmTh_1YG5FA7z6fV9aLcWzlxAbz2MLGHT6vk2GXH1z1SZOPseWQwJBOquTtA8_2LE-Dx6OqZw344dagkIHkXaQpH0WZWvugunXhr1ZSZv0RQ8N8Q6JXFLsDTmAegIBBGShSPktDaZOWPkgROal6aVtpUKiWve2v9W4zfXdX2Ee4pOKbzcHWGVi57M1uv7Tv8QxJaSNx9F9CIUQ93ga_5Kt1L-wFtB95SD9rHsSy9TwRreerNMUQk7TO9SxoRorSyC_FlHgm7fNYH_fyLeI9iIv9NpfeGmNLbKSBe46d-6-bl]--></g></svg>