<?xml version="1.0" encoding="us-ascii" standalone="no"?><svg xmlns="http://www.w3.org/2000/svg" xmlns:xlink="http://www.w3.org/1999/xlink" contentStyleType="text/css" height="383px" preserveAspectRatio="none" style="width:641px;height:383px;background:#FFFFFF;" version="1.1" viewBox="0 0 641 383" width="641px" zoomAndPan="magnify"><defs/><g><line style="stroke:#181818;stroke-width:0.5;stroke-dasharray:5.0,5.0;" x1="31" x2="31" y1="81.2969" y2="376.625"/><line style="stroke:#181818;stroke-width:0.5;stroke-dasharray:5.0,5.0;" x1="202" x2="202" y1="81.2969" y2="376.625"/><line style="stroke:#181818;stroke-width:0.5;stroke-dasharray:5.0,5.0;" x1="381.5" x2="381.5" y1="81.2969" y2="376.625"/><line style="stroke:#181818;stroke-width:0.5;stroke-dasharray:5.0,5.0;" x1="542" x2="542" y1="81.2969" y2="376.625"/><text fill="#000000" font-family="sans-serif" font-size="14" lengthAdjust="spacing" textLength="46" x="5" y="77.9951">Admin</text><ellipse cx="31" cy="13.5" fill="#E2E2F0" rx="8" ry="8" style="stroke:#181818;stroke-width:0.5;"/><path d="M31,21.5 L31,48.5 M18,29.5 L44,29.5 M31,48.5 L18,63.5 M31,48.5 L44,63.5 " fill="none" style="stroke:#181818;stroke-width:0.5;"/><text fill="#000000" font-family="sans-serif" font-size="14" lengthAdjust="spacing" textLength="178" x="110" y="77.9951">DoctorManagementView</text><path d="M181.5,37 L181.5,61 M181.5,49 L198.5,49 " fill="none" style="stroke:#181818;stroke-width:0.5;"/><ellipse cx="210.5" cy="49" fill="#E2E2F0" rx="12" ry="12" style="stroke:#181818;stroke-width:0.5;"/><text fill="#000000" font-family="sans-serif" font-size="14" lengthAdjust="spacing" textLength="123" x="317.5" y="77.9951">DoctorController</text><ellipse cx="382" cy="49" fill="#E2E2F0" rx="12" ry="12" style="stroke:#181818;stroke-width:0.5;"/><polygon fill="#181818" points="378,37,384,32,382,37,384,42,378,37" style="stroke:#181818;stroke-width:1.0;"/><text fill="#000000" font-family="sans-serif" font-size="14" lengthAdjust="spacing" textLength="62" x="508" y="77.9951">DOCTOR</text><ellipse cx="542" cy="49" fill="#E2E2F0" rx="12" ry="12" style="stroke:#181818;stroke-width:0.5;"/><line style="stroke:#181818;stroke-width:0.5;" x1="530" x2="554" y1="63" y2="63"/><polygon fill="#181818" points="190,123.5625,200,127.5625,190,131.5625,194,127.5625" style="stroke:#181818;stroke-width:1.0;"/><line style="stroke:#181818;stroke-width:1.0;" x1="31" x2="196" y1="127.5625" y2="127.5625"/><text fill="#000000" font-family="sans-serif" font-size="13" font-weight="bold" lengthAdjust="spacing" textLength="9" x="38" y="114.9302">1</text><text fill="#000000" font-family="sans-serif" font-size="13" lengthAdjust="spacing" textLength="113" x="51" y="107.3638">Enters the search</text><text fill="#000000" font-family="sans-serif" font-size="13" lengthAdjust="spacing" textLength="134" x="51" y="122.4966">criteria in search box</text><polygon fill="#181818" points="370,167.8281,380,171.8281,370,175.8281,374,171.8281" style="stroke:#181818;stroke-width:1.0;"/><line style="stroke:#181818;stroke-width:1.0;" x1="202" x2="376" y1="171.8281" y2="171.8281"/><text fill="#000000" font-family="sans-serif" font-size="13" font-weight="bold" lengthAdjust="spacing" textLength="9" x="209" y="159.1958">2</text><text fill="#000000" font-family="sans-serif" font-size="13" lengthAdjust="spacing" textLength="143" x="222" y="151.6294">Send searching doctor</text><text fill="#000000" font-family="sans-serif" font-size="13" lengthAdjust="spacing" textLength="127" x="222" y="166.7622">information request</text><polygon fill="#181818" points="530,212.0938,540,216.0938,530,220.0938,534,216.0938" style="stroke:#181818;stroke-width:1.0;"/><line style="stroke:#181818;stroke-width:1.0;" x1="382" x2="536" y1="216.0938" y2="216.0938"/><text fill="#000000" font-family="sans-serif" font-size="13" font-weight="bold" lengthAdjust="spacing" textLength="8" x="389" y="203.4614">3</text><text fill="#000000" font-family="sans-serif" font-size="13" lengthAdjust="spacing" textLength="124" x="401" y="195.895">Search doctor base</text><text fill="#000000" font-family="sans-serif" font-size="13" lengthAdjust="spacing" textLength="121" x="401" y="211.0278">on given keywords</text><line style="stroke:#181818;stroke-width:1.0;" x1="542" x2="584" y1="245.2266" y2="245.2266"/><line style="stroke:#181818;stroke-width:1.0;" x1="584" x2="584" y1="245.2266" y2="258.2266"/><line style="stroke:#181818;stroke-width:1.0;" x1="543" x2="584" y1="258.2266" y2="258.2266"/><polygon fill="#181818" points="553,254.2266,543,258.2266,553,262.2266,549,258.2266" style="stroke:#181818;stroke-width:1.0;"/><text fill="#000000" font-family="sans-serif" font-size="13" font-weight="bold" lengthAdjust="spacing" textLength="9" x="549" y="240.1606">4</text><text fill="#000000" font-family="sans-serif" font-size="13" lengthAdjust="spacing" textLength="72" x="562" y="240.1606">Query data</text><polygon fill="#181818" points="393,283.3594,383,287.3594,393,291.3594,389,287.3594" style="stroke:#181818;stroke-width:1.0;"/><line style="stroke:#181818;stroke-width:1.0;stroke-dasharray:2.0,2.0;" x1="387" x2="541" y1="287.3594" y2="287.3594"/><text fill="#000000" font-family="sans-serif" font-size="13" font-weight="bold" lengthAdjust="spacing" textLength="9" x="399" y="282.2935">5</text><text fill="#000000" font-family="sans-serif" font-size="13" lengthAdjust="spacing" textLength="79" x="412" y="282.2935">Query result</text><polygon fill="#181818" points="213,312.4922,203,316.4922,213,320.4922,209,316.4922" style="stroke:#181818;stroke-width:1.0;"/><line style="stroke:#181818;stroke-width:1.0;stroke-dasharray:2.0,2.0;" x1="207" x2="381" y1="316.4922" y2="316.4922"/><text fill="#000000" font-family="sans-serif" font-size="13" font-weight="bold" lengthAdjust="spacing" textLength="9" x="219" y="311.4263">6</text><text fill="#000000" font-family="sans-serif" font-size="13" lengthAdjust="spacing" textLength="79" x="232" y="311.4263">Query result</text><line style="stroke:#181818;stroke-width:1.0;" x1="202" x2="244" y1="345.625" y2="345.625"/><line style="stroke:#181818;stroke-width:1.0;" x1="244" x2="244" y1="345.625" y2="358.625"/><line style="stroke:#181818;stroke-width:1.0;" x1="203" x2="244" y1="358.625" y2="358.625"/><polygon fill="#181818" points="213,354.625,203,358.625,213,362.625,209,358.625" style="stroke:#181818;stroke-width:1.0;"/><text fill="#000000" font-family="sans-serif" font-size="13" font-weight="bold" lengthAdjust="spacing" textLength="9" x="209" y="340.5591">7</text><text fill="#000000" font-family="sans-serif" font-size="13" lengthAdjust="spacing" textLength="138" x="222" y="340.5591">Display list of doctors</text><!--SRC=[TP1DJiD038NtSmfVW0jqWOHQbgZYHwooSJ9EQf7OuF5GSdicFwAeIfVp_ButpyRiAdceoSA98q6hwhN-X82Dgy5375X2hLaYsWW7dTGd5Ene8F5tfdDeLDoqNuVxvTMNm69WBz1n_tPy2M7EWhlxpPGTF8gJ9V0JGIAqvbH9OrmqHYZSei7KROk_v5uAxE2L9AuaImTnDbJ2qgeDwAm2Hb-PaeThU0wScqynyzyB3ZKcggIW7N-Jm0UDPxMOmkB-pprdAaUBwFWttAov-8nIxhUAt3pP1dVhAjVeWTDdZoFqd1oqNNTBlm00]--></g></svg>