<?xml version="1.0" encoding="us-ascii" standalone="no"?><svg xmlns="http://www.w3.org/2000/svg" xmlns:xlink="http://www.w3.org/1999/xlink" contentStyleType="text/css" height="962px" preserveAspectRatio="none" style="width:983px;height:962px;background:#FFFFFF;" version="1.1" viewBox="0 0 983 962" width="983px" zoomAndPan="magnify"><defs/><g><rect fill="none" height="550.7344" style="stroke:#000000;stroke-width:1.5;" width="966.5" x="10" y="387.4609"/><rect fill="none" height="304" style="stroke:#000000;stroke-width:1.5;" width="875.5" x="84" y="627.1953"/><line style="stroke:#181818;stroke-width:0.5;stroke-dasharray:5.0,5.0;" x1="46" x2="46" y1="81.2969" y2="955.1953"/><line style="stroke:#181818;stroke-width:0.5;stroke-dasharray:5.0,5.0;" x1="186" x2="186" y1="81.2969" y2="955.1953"/><line style="stroke:#181818;stroke-width:0.5;stroke-dasharray:5.0,5.0;" x1="375" x2="375" y1="81.2969" y2="955.1953"/><line style="stroke:#181818;stroke-width:0.5;stroke-dasharray:5.0,5.0;" x1="611" x2="611" y1="81.2969" y2="955.1953"/><line style="stroke:#181818;stroke-width:0.5;stroke-dasharray:5.0,5.0;" x1="851.5" x2="851.5" y1="81.2969" y2="955.1953"/><text fill="#000000" font-family="sans-serif" font-size="14" lengthAdjust="spacing" textLength="46" x="20" y="77.9951">Admin</text><ellipse cx="46" cy="13.5" fill="#E2E2F0" rx="8" ry="8" style="stroke:#181818;stroke-width:0.5;"/><path d="M46,21.5 L46,48.5 M33,29.5 L59,29.5 M46,48.5 L33,63.5 M46,48.5 L59,63.5 " fill="none" style="stroke:#181818;stroke-width:0.5;"/><text fill="#000000" font-family="sans-serif" font-size="14" lengthAdjust="spacing" textLength="178" x="94" y="77.9951">DoctorManagementView</text><path d="M165.5,37 L165.5,61 M165.5,49 L182.5,49 " fill="none" style="stroke:#181818;stroke-width:0.5;"/><ellipse cx="194.5" cy="49" fill="#E2E2F0" rx="12" ry="12" style="stroke:#181818;stroke-width:0.5;"/><text fill="#000000" font-family="sans-serif" font-size="14" lengthAdjust="spacing" textLength="169" x="288" y="77.9951">DoctorInformationView</text><path d="M355,37 L355,61 M355,49 L372,49 " fill="none" style="stroke:#181818;stroke-width:0.5;"/><ellipse cx="384" cy="49" fill="#E2E2F0" rx="12" ry="12" style="stroke:#181818;stroke-width:0.5;"/><text fill="#000000" font-family="sans-serif" font-size="14" lengthAdjust="spacing" textLength="123" x="547" y="77.9951">DoctorController</text><ellipse cx="611.5" cy="49" fill="#E2E2F0" rx="12" ry="12" style="stroke:#181818;stroke-width:0.5;"/><polygon fill="#181818" points="607.5,37,613.5,32,611.5,37,613.5,42,607.5,37" style="stroke:#181818;stroke-width:1.0;"/><text fill="#000000" font-family="sans-serif" font-size="14" lengthAdjust="spacing" textLength="62" x="817.5" y="77.9951">DOCTOR</text><ellipse cx="851.5" cy="49" fill="#E2E2F0" rx="12" ry="12" style="stroke:#181818;stroke-width:0.5;"/><line style="stroke:#181818;stroke-width:0.5;" x1="839.5" x2="863.5" y1="63" y2="63"/><rect fill="none" height="39.1016" style="stroke:#000000;stroke-width:1.5;" width="871.5" x="17" y="91.2969"/><path d="M17,91.2969 L85,91.2969 L85,98.2969 L75,108.2969 L17,108.2969 L17,91.2969 " fill="#EEEEEE" style="stroke:#000000;stroke-width:2.0;"/><text fill="#000000" font-family="sans-serif" font-size="13" font-weight="bold" lengthAdjust="spacing" textLength="23" x="30" y="105.3638">ref</text><text fill="#000000" font-family="sans-serif" font-size="12" lengthAdjust="spacing" textLength="152" x="376.75" y="123.4355">Sequence Search Doctor</text><polygon fill="#181818" points="174,167.6641,184,171.6641,174,175.6641,178,171.6641" style="stroke:#181818;stroke-width:1.0;"/><line style="stroke:#181818;stroke-width:1.0;" x1="46" x2="180" y1="171.6641" y2="171.6641"/><text fill="#000000" font-family="sans-serif" font-size="13" font-weight="bold" lengthAdjust="spacing" textLength="9" x="53" y="159.0317">1</text><text fill="#000000" font-family="sans-serif" font-size="13" lengthAdjust="spacing" textLength="84" x="66" y="151.4653">Select doctor</text><text fill="#000000" font-family="sans-serif" font-size="13" lengthAdjust="spacing" textLength="99" x="70" y="166.5981">needs updating</text><polygon fill="#181818" points="599.5,196.7969,609.5,200.7969,599.5,204.7969,603.5,200.7969" style="stroke:#181818;stroke-width:1.0;"/><line style="stroke:#181818;stroke-width:1.0;" x1="186" x2="605.5" y1="200.7969" y2="200.7969"/><text fill="#000000" font-family="sans-serif" font-size="13" font-weight="bold" lengthAdjust="spacing" textLength="9" x="193" y="195.731">2</text><text fill="#000000" font-family="sans-serif" font-size="13" lengthAdjust="spacing" textLength="204" x="206" y="195.731">Get selected doctor information</text><polygon fill="#181818" points="839.5,225.9297,849.5,229.9297,839.5,233.9297,843.5,229.9297" style="stroke:#181818;stroke-width:1.0;"/><line style="stroke:#181818;stroke-width:1.0;" x1="611.5" x2="845.5" y1="229.9297" y2="229.9297"/><text fill="#000000" font-family="sans-serif" font-size="13" font-weight="bold" lengthAdjust="spacing" textLength="8" x="618.5" y="224.8638">3</text><text fill="#000000" font-family="sans-serif" font-size="13" lengthAdjust="spacing" textLength="204" x="630.5" y="224.8638">Get selected doctor information</text><polygon fill="#181818" points="386.5,255.0625,376.5,259.0625,386.5,263.0625,382.5,259.0625" style="stroke:#181818;stroke-width:1.0;"/><line style="stroke:#181818;stroke-width:1.0;stroke-dasharray:2.0,2.0;" x1="380.5" x2="850.5" y1="259.0625" y2="259.0625"/><text fill="#000000" font-family="sans-serif" font-size="13" font-weight="bold" lengthAdjust="spacing" textLength="9" x="392.5" y="253.9966">4</text><text fill="#000000" font-family="sans-serif" font-size="13" lengthAdjust="spacing" textLength="178" x="405.5" y="253.9966">Selected doctor information</text><line style="stroke:#181818;stroke-width:1.0;" x1="375.5" x2="417.5" y1="288.1953" y2="288.1953"/><line style="stroke:#181818;stroke-width:1.0;" x1="417.5" x2="417.5" y1="288.1953" y2="301.1953"/><line style="stroke:#181818;stroke-width:1.0;" x1="376.5" x2="417.5" y1="301.1953" y2="301.1953"/><polygon fill="#181818" points="386.5,297.1953,376.5,301.1953,386.5,305.1953,382.5,301.1953" style="stroke:#181818;stroke-width:1.0;"/><text fill="#000000" font-family="sans-serif" font-size="13" font-weight="bold" lengthAdjust="spacing" textLength="9" x="382.5" y="283.1294">5</text><text fill="#000000" font-family="sans-serif" font-size="13" lengthAdjust="spacing" textLength="170" x="395.5" y="283.1294">Display doctor information</text><polygon fill="#181818" points="363.5,326.3281,373.5,330.3281,363.5,334.3281,367.5,330.3281" style="stroke:#181818;stroke-width:1.0;"/><line style="stroke:#181818;stroke-width:1.0;" x1="46" x2="369.5" y1="330.3281" y2="330.3281"/><text fill="#000000" font-family="sans-serif" font-size="13" font-weight="bold" lengthAdjust="spacing" textLength="9" x="53" y="325.2622">6</text><text fill="#000000" font-family="sans-serif" font-size="13" lengthAdjust="spacing" textLength="157" x="66" y="325.2622">Enter doctor information</text><line style="stroke:#181818;stroke-width:1.0;" x1="375.5" x2="417.5" y1="359.4609" y2="359.4609"/><line style="stroke:#181818;stroke-width:1.0;" x1="417.5" x2="417.5" y1="359.4609" y2="372.4609"/><line style="stroke:#181818;stroke-width:1.0;" x1="376.5" x2="417.5" y1="372.4609" y2="372.4609"/><polygon fill="#181818" points="386.5,368.4609,376.5,372.4609,386.5,376.4609,382.5,372.4609" style="stroke:#181818;stroke-width:1.0;"/><text fill="#000000" font-family="sans-serif" font-size="13" font-weight="bold" lengthAdjust="spacing" textLength="9" x="382.5" y="354.395">7</text><text fill="#000000" font-family="sans-serif" font-size="13" lengthAdjust="spacing" textLength="85" x="395.5" y="354.395">Validate data</text><path d="M10,387.4609 L76,387.4609 L76,394.5938 L66,404.5938 L10,404.5938 L10,387.4609 " fill="#EEEEEE" style="stroke:#000000;stroke-width:1.5;"/><rect fill="none" height="550.7344" style="stroke:#000000;stroke-width:1.5;" width="966.5" x="10" y="387.4609"/><text fill="#000000" font-family="sans-serif" font-size="13" font-weight="bold" lengthAdjust="spacing" textLength="21" x="25" y="400.5278">alt</text><text fill="#000000" font-family="sans-serif" font-size="11" font-weight="bold" lengthAdjust="spacing" textLength="88" x="91" y="399.6714">[Invalid data]</text><polygon fill="#181818" points="57,421.7266,47,425.7266,57,429.7266,53,425.7266" style="stroke:#181818;stroke-width:1.0;"/><line style="stroke:#181818;stroke-width:1.0;stroke-dasharray:2.0,2.0;" x1="51" x2="374.5" y1="425.7266" y2="425.7266"/><text fill="#000000" font-family="sans-serif" font-size="13" font-weight="bold" lengthAdjust="spacing" textLength="9" x="63" y="420.6606">8</text><text fill="#000000" font-family="sans-serif" font-size="13" lengthAdjust="spacing" textLength="106" x="76" y="420.6606">Error notification</text><line style="stroke:#181818;stroke-width:1.0;" x1="375.5" x2="417.5" y1="454.8594" y2="454.8594"/><line style="stroke:#181818;stroke-width:1.0;" x1="417.5" x2="417.5" y1="454.8594" y2="467.8594"/><line style="stroke:#181818;stroke-width:1.0;" x1="376.5" x2="417.5" y1="467.8594" y2="467.8594"/><polygon fill="#181818" points="386.5,463.8594,376.5,467.8594,386.5,471.8594,382.5,467.8594" style="stroke:#181818;stroke-width:1.0;"/><text fill="#000000" font-family="sans-serif" font-size="13" font-weight="bold" lengthAdjust="spacing" textLength="9" x="382.5" y="449.7935">9</text><text fill="#000000" font-family="sans-serif" font-size="13" lengthAdjust="spacing" textLength="157" x="395.5" y="449.7935">Display error notification</text><line style="stroke:#000000;stroke-width:1.0;stroke-dasharray:2.0,2.0;" x1="10" x2="976.5" y1="476.8594" y2="476.8594"/><text fill="#000000" font-family="sans-serif" font-size="11" font-weight="bold" lengthAdjust="spacing" textLength="78" x="15" y="487.0698">[Valid data]</text><polygon fill="#181818" points="363.5,507.7969,373.5,511.7969,363.5,515.7969,367.5,511.7969" style="stroke:#181818;stroke-width:1.0;"/><line style="stroke:#181818;stroke-width:1.0;" x1="46" x2="369.5" y1="511.7969" y2="511.7969"/><text fill="#000000" font-family="sans-serif" font-size="13" font-weight="bold" lengthAdjust="spacing" textLength="19" x="53" y="506.731">10</text><text fill="#000000" font-family="sans-serif" font-size="13" lengthAdjust="spacing" textLength="191" x="76" y="506.731">Click button "Save" to confirm</text><polygon fill="#181818" points="599.5,536.9297,609.5,540.9297,599.5,544.9297,603.5,540.9297" style="stroke:#181818;stroke-width:1.0;"/><line style="stroke:#181818;stroke-width:1.0;" x1="375.5" x2="605.5" y1="540.9297" y2="540.9297"/><text fill="#000000" font-family="sans-serif" font-size="13" font-weight="bold" lengthAdjust="spacing" textLength="18" x="382.5" y="535.8638">11</text><text fill="#000000" font-family="sans-serif" font-size="13" lengthAdjust="spacing" textLength="190" x="404.5" y="535.8638">Send updating doctor request</text><polygon fill="#181818" points="839.5,566.0625,849.5,570.0625,839.5,574.0625,843.5,570.0625" style="stroke:#181818;stroke-width:1.0;"/><line style="stroke:#181818;stroke-width:1.0;" x1="611.5" x2="845.5" y1="570.0625" y2="570.0625"/><text fill="#000000" font-family="sans-serif" font-size="13" font-weight="bold" lengthAdjust="spacing" textLength="18" x="618.5" y="564.9966">12</text><text fill="#000000" font-family="sans-serif" font-size="13" lengthAdjust="spacing" textLength="110" x="640.5" y="564.9966">Send information</text><line style="stroke:#181818;stroke-width:1.0;" x1="851.5" x2="893.5" y1="599.1953" y2="599.1953"/><line style="stroke:#181818;stroke-width:1.0;" x1="893.5" x2="893.5" y1="599.1953" y2="612.1953"/><line style="stroke:#181818;stroke-width:1.0;" x1="852.5" x2="893.5" y1="612.1953" y2="612.1953"/><polygon fill="#181818" points="862.5,608.1953,852.5,612.1953,862.5,616.1953,858.5,612.1953" style="stroke:#181818;stroke-width:1.0;"/><text fill="#000000" font-family="sans-serif" font-size="13" font-weight="bold" lengthAdjust="spacing" textLength="17" x="858.5" y="594.1294">13</text><text fill="#000000" font-family="sans-serif" font-size="13" lengthAdjust="spacing" textLength="85" x="879.5" y="594.1294">Validate data</text><path d="M84,627.1953 L150,627.1953 L150,634.3281 L140,644.3281 L84,644.3281 L84,627.1953 " fill="#EEEEEE" style="stroke:#000000;stroke-width:1.5;"/><rect fill="none" height="304" style="stroke:#000000;stroke-width:1.5;" width="875.5" x="84" y="627.1953"/><text fill="#000000" font-family="sans-serif" font-size="13" font-weight="bold" lengthAdjust="spacing" textLength="21" x="99" y="640.2622">alt</text><text fill="#000000" font-family="sans-serif" font-size="11" font-weight="bold" lengthAdjust="spacing" textLength="88" x="165" y="639.4058">[Invalid data]</text><polygon fill="#181818" points="622.5,661.4609,612.5,665.4609,622.5,669.4609,618.5,665.4609" style="stroke:#181818;stroke-width:1.0;"/><line style="stroke:#181818;stroke-width:1.0;stroke-dasharray:2.0,2.0;" x1="616.5" x2="850.5" y1="665.4609" y2="665.4609"/><text fill="#000000" font-family="sans-serif" font-size="13" font-weight="bold" lengthAdjust="spacing" textLength="18" x="628.5" y="660.395">14</text><text fill="#000000" font-family="sans-serif" font-size="13" lengthAdjust="spacing" textLength="106" x="650.5" y="660.395">Error notification</text><polygon fill="#181818" points="386.5,690.5938,376.5,694.5938,386.5,698.5938,382.5,694.5938" style="stroke:#181818;stroke-width:1.0;"/><line style="stroke:#181818;stroke-width:1.0;stroke-dasharray:2.0,2.0;" x1="380.5" x2="610.5" y1="694.5938" y2="694.5938"/><text fill="#000000" font-family="sans-serif" font-size="13" font-weight="bold" lengthAdjust="spacing" textLength="18" x="392.5" y="689.5278">15</text><text fill="#000000" font-family="sans-serif" font-size="13" lengthAdjust="spacing" textLength="106" x="414.5" y="689.5278">Error notification</text><line style="stroke:#181818;stroke-width:1.0;" x1="375.5" x2="417.5" y1="723.7266" y2="723.7266"/><line style="stroke:#181818;stroke-width:1.0;" x1="417.5" x2="417.5" y1="723.7266" y2="736.7266"/><line style="stroke:#181818;stroke-width:1.0;" x1="376.5" x2="417.5" y1="736.7266" y2="736.7266"/><polygon fill="#181818" points="386.5,732.7266,376.5,736.7266,386.5,740.7266,382.5,736.7266" style="stroke:#181818;stroke-width:1.0;"/><text fill="#000000" font-family="sans-serif" font-size="13" font-weight="bold" lengthAdjust="spacing" textLength="18" x="382.5" y="718.6606">16</text><text fill="#000000" font-family="sans-serif" font-size="13" lengthAdjust="spacing" textLength="157" x="404.5" y="718.6606">Display error notification</text><line style="stroke:#000000;stroke-width:1.0;stroke-dasharray:2.0,2.0;" x1="84" x2="959.5" y1="745.7266" y2="745.7266"/><text fill="#000000" font-family="sans-serif" font-size="11" font-weight="bold" lengthAdjust="spacing" textLength="78" x="89" y="755.937">[Valid data]</text><line style="stroke:#181818;stroke-width:1.0;" x1="851.5" x2="893.5" y1="780.6641" y2="780.6641"/><line style="stroke:#181818;stroke-width:1.0;" x1="893.5" x2="893.5" y1="780.6641" y2="793.6641"/><line style="stroke:#181818;stroke-width:1.0;" x1="852.5" x2="893.5" y1="793.6641" y2="793.6641"/><polygon fill="#181818" points="862.5,789.6641,852.5,793.6641,862.5,797.6641,858.5,793.6641" style="stroke:#181818;stroke-width:1.0;"/><text fill="#000000" font-family="sans-serif" font-size="13" font-weight="bold" lengthAdjust="spacing" textLength="18" x="858.5" y="775.5981">17</text><text fill="#000000" font-family="sans-serif" font-size="13" lengthAdjust="spacing" textLength="67" x="880.5" y="775.5981">Store data</text><polygon fill="#181818" points="622.5,818.7969,612.5,822.7969,622.5,826.7969,618.5,822.7969" style="stroke:#181818;stroke-width:1.0;"/><line style="stroke:#181818;stroke-width:1.0;stroke-dasharray:2.0,2.0;" x1="616.5" x2="850.5" y1="822.7969" y2="822.7969"/><text fill="#000000" font-family="sans-serif" font-size="13" font-weight="bold" lengthAdjust="spacing" textLength="18" x="628.5" y="817.731">18</text><text fill="#000000" font-family="sans-serif" font-size="13" lengthAdjust="spacing" textLength="127" x="650.5" y="817.731">Success notification</text><polygon fill="#181818" points="386.5,847.9297,376.5,851.9297,386.5,855.9297,382.5,851.9297" style="stroke:#181818;stroke-width:1.0;"/><line style="stroke:#181818;stroke-width:1.0;stroke-dasharray:2.0,2.0;" x1="380.5" x2="610.5" y1="851.9297" y2="851.9297"/><text fill="#000000" font-family="sans-serif" font-size="13" font-weight="bold" lengthAdjust="spacing" textLength="18" x="392.5" y="846.8638">19</text><text fill="#000000" font-family="sans-serif" font-size="13" lengthAdjust="spacing" textLength="127" x="414.5" y="846.8638">Success notification</text><line style="stroke:#181818;stroke-width:1.0;" x1="375.5" x2="417.5" y1="881.0625" y2="881.0625"/><line style="stroke:#181818;stroke-width:1.0;" x1="417.5" x2="417.5" y1="881.0625" y2="894.0625"/><line style="stroke:#181818;stroke-width:1.0;" x1="376.5" x2="417.5" y1="894.0625" y2="894.0625"/><polygon fill="#181818" points="386.5,890.0625,376.5,894.0625,386.5,898.0625,382.5,894.0625" style="stroke:#181818;stroke-width:1.0;"/><text fill="#000000" font-family="sans-serif" font-size="13" font-weight="bold" lengthAdjust="spacing" textLength="19" x="382.5" y="875.9966">20</text><text fill="#000000" font-family="sans-serif" font-size="13" lengthAdjust="spacing" textLength="69" x="405.5" y="875.9966">Close view</text><polygon fill="#181818" points="197,919.1953,187,923.1953,197,927.1953,193,923.1953" style="stroke:#181818;stroke-width:1.0;"/><line style="stroke:#181818;stroke-width:1.0;" x1="191" x2="610.5" y1="923.1953" y2="923.1953"/><text fill="#000000" font-family="sans-serif" font-size="13" font-weight="bold" lengthAdjust="spacing" textLength="18" x="203" y="918.1294">21</text><text fill="#000000" font-family="sans-serif" font-size="13" lengthAdjust="spacing" textLength="296" x="225" y="918.1294">Display success notification and list of doctors</text><!--SRC=[hLMzJiCm4Dxz52VczWKw8A62K0TKYI0c5jU-K0ldN6odqBVdugIaf4vR11cYnFRtu-_EYQoZexfQeHThen5Av-BAVGeXLNGURdHbIAnSJLhw7TowPlH1adp52Ya-6_mOpYweTBwIqJXAqyfHzCvsi_FspR8Uuqrar7B-j7mKmcC9RekTvYIhDSbhJ8x89ntj30fyhv4KyeFqQjsj54a4fjTPcGPbKKNGQVA5W11rW7gZMPDUHGxKa_KsPd2F4K8YGztHWUdTYo4YiNJMpsBJEfX-2mzYsM_ZbF800kDSjoPihDpbg0PX7a7lAFBEZe40ltRnBAtX8Y3mJGff8onesuor0y3N22Lp9fzintlsGIwQqgXs1oTmPmF1Opgq0LkhlQrp8SsjKM-mgYCVIBWgv1Ql83hWurCQNrtYyB3l2YJztQ_xw7rp5a8yuCetNW8V5ZW1kcxhb_siHRCcMuz3SDRhI3toBazqsJcQVobjGvShRpwYWjdn5r4KjL8Omj_3k83eyZZcrl66jytNVDpBsATqdsN8E0B9ZMPDYE3Ahab3cp1f_Z_eBm00]--></g></svg>