<?xml version="1.0" encoding="us-ascii" standalone="no"?><svg xmlns="http://www.w3.org/2000/svg" xmlns:xlink="http://www.w3.org/1999/xlink" contentStyleType="text/css" height="931px" preserveAspectRatio="none" style="width:1082px;height:931px;background:#FFFFFF;" version="1.1" viewBox="0 0 1082 931" width="1082px" zoomAndPan="magnify"><defs/><g><rect fill="none" height="550.7344" style="stroke:#000000;stroke-width:1.5;" width="978.5" x="10" y="356.3594"/><rect fill="none" height="304" style="stroke:#000000;stroke-width:1.5;" width="895.5" x="76" y="596.0938"/><line style="stroke:#181818;stroke-width:0.5;stroke-dasharray:5.0,5.0;" x1="48" x2="48" y1="81.2969" y2="924.0938"/><line style="stroke:#181818;stroke-width:0.5;stroke-dasharray:5.0,5.0;" x1="197" x2="197" y1="81.2969" y2="924.0938"/><line style="stroke:#181818;stroke-width:0.5;stroke-dasharray:5.0,5.0;" x1="424" x2="424" y1="81.2969" y2="924.0938"/><line style="stroke:#181818;stroke-width:0.5;stroke-dasharray:5.0,5.0;" x1="690" x2="690" y1="81.2969" y2="924.0938"/><line style="stroke:#181818;stroke-width:0.5;stroke-dasharray:5.0,5.0;" x1="863.5" x2="863.5" y1="81.2969" y2="924.0938"/><line style="stroke:#181818;stroke-width:0.5;stroke-dasharray:5.0,5.0;" x1="983" x2="983" y1="81.2969" y2="924.0938"/><text fill="#000000" font-family="sans-serif" font-size="14" lengthAdjust="spacing" textLength="50" x="20" y="77.9951">Doctor</text><ellipse cx="48" cy="13.5" fill="#E2E2F0" rx="8" ry="8" style="stroke:#181818;stroke-width:0.5;"/><path d="M48,21.5 L48,48.5 M35,29.5 L61,29.5 M48,48.5 L35,63.5 M48,48.5 L61,63.5 " fill="none" style="stroke:#181818;stroke-width:0.5;"/><text fill="#000000" font-family="sans-serif" font-size="14" lengthAdjust="spacing" textLength="216" x="86" y="77.9951">PrescriptionManagementView</text><path d="M176.5,37 L176.5,61 M176.5,49 L193.5,49 " fill="none" style="stroke:#181818;stroke-width:0.5;"/><ellipse cx="205.5" cy="49" fill="#E2E2F0" rx="12" ry="12" style="stroke:#181818;stroke-width:0.5;"/><text fill="#000000" font-family="sans-serif" font-size="14" lengthAdjust="spacing" textLength="207" x="318" y="77.9951">PrescriptionInformationView</text><path d="M404,37 L404,61 M404,49 L421,49 " fill="none" style="stroke:#181818;stroke-width:0.5;"/><ellipse cx="433" cy="49" fill="#E2E2F0" rx="12" ry="12" style="stroke:#181818;stroke-width:0.5;"/><text fill="#000000" font-family="sans-serif" font-size="14" lengthAdjust="spacing" textLength="161" x="607" y="77.9951">PrescriptionController</text><ellipse cx="690.5" cy="49" fill="#E2E2F0" rx="12" ry="12" style="stroke:#181818;stroke-width:0.5;"/><polygon fill="#181818" points="686.5,37,692.5,32,690.5,37,692.5,42,686.5,37" style="stroke:#181818;stroke-width:1.0;"/><text fill="#000000" font-family="sans-serif" font-size="14" lengthAdjust="spacing" textLength="104" x="808.5" y="77.9951">PRESCRIPTION</text><ellipse cx="863.5" cy="49" fill="#E2E2F0" rx="12" ry="12" style="stroke:#181818;stroke-width:0.5;"/><line style="stroke:#181818;stroke-width:0.5;" x1="851.5" x2="875.5" y1="63" y2="63"/><text fill="#000000" font-family="sans-serif" font-size="14" lengthAdjust="spacing" textLength="43" x="959" y="77.9951">CHILD</text><ellipse cx="983.5" cy="49" fill="#E2E2F0" rx="12" ry="12" style="stroke:#181818;stroke-width:0.5;"/><line style="stroke:#181818;stroke-width:0.5;" x1="971.5" x2="995.5" y1="63" y2="63"/><polygon fill="#181818" points="971.5,108.4297,981.5,112.4297,971.5,116.4297,975.5,112.4297" style="stroke:#181818;stroke-width:1.0;"/><line style="stroke:#181818;stroke-width:1.0;" x1="690.5" x2="977.5" y1="112.4297" y2="112.4297"/><text fill="#000000" font-family="sans-serif" font-size="13" font-weight="bold" lengthAdjust="spacing" textLength="9" x="697.5" y="107.3638">1</text><text fill="#000000" font-family="sans-serif" font-size="13" lengthAdjust="spacing" textLength="116" x="710.5" y="107.3638">Get list of children</text><line style="stroke:#181818;stroke-width:1.0;" x1="983.5" x2="1025.5" y1="141.5625" y2="141.5625"/><line style="stroke:#181818;stroke-width:1.0;" x1="1025.5" x2="1025.5" y1="141.5625" y2="154.5625"/><line style="stroke:#181818;stroke-width:1.0;" x1="984.5" x2="1025.5" y1="154.5625" y2="154.5625"/><polygon fill="#181818" points="994.5,150.5625,984.5,154.5625,994.5,158.5625,990.5,154.5625" style="stroke:#181818;stroke-width:1.0;"/><text fill="#000000" font-family="sans-serif" font-size="13" font-weight="bold" lengthAdjust="spacing" textLength="9" x="990.5" y="136.4966">2</text><text fill="#000000" font-family="sans-serif" font-size="13" lengthAdjust="spacing" textLength="72" x="1003.5" y="136.4966">Query data</text><polygon fill="#181818" points="701.5,179.6953,691.5,183.6953,701.5,187.6953,697.5,183.6953" style="stroke:#181818;stroke-width:1.0;"/><line style="stroke:#181818;stroke-width:1.0;stroke-dasharray:2.0,2.0;" x1="695.5" x2="982.5" y1="183.6953" y2="183.6953"/><text fill="#000000" font-family="sans-serif" font-size="13" font-weight="bold" lengthAdjust="spacing" textLength="8" x="707.5" y="178.6294">3</text><text fill="#000000" font-family="sans-serif" font-size="13" lengthAdjust="spacing" textLength="79" x="719.5" y="178.6294">Query result</text><polygon fill="#181818" points="435.5,208.8281,425.5,212.8281,435.5,216.8281,431.5,212.8281" style="stroke:#181818;stroke-width:1.0;"/><line style="stroke:#181818;stroke-width:1.0;stroke-dasharray:2.0,2.0;" x1="429.5" x2="689.5" y1="212.8281" y2="212.8281"/><text fill="#000000" font-family="sans-serif" font-size="13" font-weight="bold" lengthAdjust="spacing" textLength="9" x="441.5" y="207.7622">4</text><text fill="#000000" font-family="sans-serif" font-size="13" lengthAdjust="spacing" textLength="79" x="454.5" y="207.7622">Query result</text><line style="stroke:#181818;stroke-width:1.0;" x1="424.5" x2="466.5" y1="257.0938" y2="257.0938"/><line style="stroke:#181818;stroke-width:1.0;" x1="466.5" x2="466.5" y1="257.0938" y2="270.0938"/><line style="stroke:#181818;stroke-width:1.0;" x1="425.5" x2="466.5" y1="270.0938" y2="270.0938"/><polygon fill="#181818" points="435.5,266.0938,425.5,270.0938,435.5,274.0938,431.5,270.0938" style="stroke:#181818;stroke-width:1.0;"/><text fill="#000000" font-family="sans-serif" font-size="13" font-weight="bold" lengthAdjust="spacing" textLength="9" x="431.5" y="244.4614">5</text><text fill="#000000" font-family="sans-serif" font-size="13" lengthAdjust="spacing" textLength="78" x="444.5" y="236.895">Display with</text><text fill="#000000" font-family="sans-serif" font-size="13" lengthAdjust="spacing" textLength="120" x="444.5" y="252.0278">empty information</text><polygon fill="#181818" points="412.5,295.2266,422.5,299.2266,412.5,303.2266,416.5,299.2266" style="stroke:#181818;stroke-width:1.0;"/><line style="stroke:#181818;stroke-width:1.0;" x1="48" x2="418.5" y1="299.2266" y2="299.2266"/><text fill="#000000" font-family="sans-serif" font-size="13" font-weight="bold" lengthAdjust="spacing" textLength="9" x="55" y="294.1606">6</text><text fill="#000000" font-family="sans-serif" font-size="13" lengthAdjust="spacing" textLength="191" x="68" y="294.1606">Enter prescription information</text><line style="stroke:#181818;stroke-width:1.0;" x1="424.5" x2="466.5" y1="328.3594" y2="328.3594"/><line style="stroke:#181818;stroke-width:1.0;" x1="466.5" x2="466.5" y1="328.3594" y2="341.3594"/><line style="stroke:#181818;stroke-width:1.0;" x1="425.5" x2="466.5" y1="341.3594" y2="341.3594"/><polygon fill="#181818" points="435.5,337.3594,425.5,341.3594,435.5,345.3594,431.5,341.3594" style="stroke:#181818;stroke-width:1.0;"/><text fill="#000000" font-family="sans-serif" font-size="13" font-weight="bold" lengthAdjust="spacing" textLength="9" x="431.5" y="323.2935">7</text><text fill="#000000" font-family="sans-serif" font-size="13" lengthAdjust="spacing" textLength="85" x="444.5" y="323.2935">Validate data</text><path d="M10,356.3594 L76,356.3594 L76,363.4922 L66,373.4922 L10,373.4922 L10,356.3594 " fill="#EEEEEE" style="stroke:#000000;stroke-width:1.5;"/><rect fill="none" height="550.7344" style="stroke:#000000;stroke-width:1.5;" width="978.5" x="10" y="356.3594"/><text fill="#000000" font-family="sans-serif" font-size="13" font-weight="bold" lengthAdjust="spacing" textLength="21" x="25" y="369.4263">alt</text><text fill="#000000" font-family="sans-serif" font-size="11" font-weight="bold" lengthAdjust="spacing" textLength="88" x="91" y="368.5698">[Invalid data]</text><polygon fill="#181818" points="59,390.625,49,394.625,59,398.625,55,394.625" style="stroke:#181818;stroke-width:1.0;"/><line style="stroke:#181818;stroke-width:1.0;stroke-dasharray:2.0,2.0;" x1="53" x2="423.5" y1="394.625" y2="394.625"/><text fill="#000000" font-family="sans-serif" font-size="13" font-weight="bold" lengthAdjust="spacing" textLength="9" x="65" y="389.5591">8</text><text fill="#000000" font-family="sans-serif" font-size="13" lengthAdjust="spacing" textLength="106" x="78" y="389.5591">Error notification</text><line style="stroke:#181818;stroke-width:1.0;" x1="424.5" x2="466.5" y1="423.7578" y2="423.7578"/><line style="stroke:#181818;stroke-width:1.0;" x1="466.5" x2="466.5" y1="423.7578" y2="436.7578"/><line style="stroke:#181818;stroke-width:1.0;" x1="425.5" x2="466.5" y1="436.7578" y2="436.7578"/><polygon fill="#181818" points="435.5,432.7578,425.5,436.7578,435.5,440.7578,431.5,436.7578" style="stroke:#181818;stroke-width:1.0;"/><text fill="#000000" font-family="sans-serif" font-size="13" font-weight="bold" lengthAdjust="spacing" textLength="9" x="431.5" y="418.6919">9</text><text fill="#000000" font-family="sans-serif" font-size="13" lengthAdjust="spacing" textLength="157" x="444.5" y="418.6919">Display error notification</text><line style="stroke:#000000;stroke-width:1.0;stroke-dasharray:2.0,2.0;" x1="10" x2="988.5" y1="445.7578" y2="445.7578"/><text fill="#000000" font-family="sans-serif" font-size="11" font-weight="bold" lengthAdjust="spacing" textLength="78" x="15" y="455.9683">[Valid data]</text><polygon fill="#181818" points="412.5,476.6953,422.5,480.6953,412.5,484.6953,416.5,480.6953" style="stroke:#181818;stroke-width:1.0;"/><line style="stroke:#181818;stroke-width:1.0;" x1="48" x2="418.5" y1="480.6953" y2="480.6953"/><text fill="#000000" font-family="sans-serif" font-size="13" font-weight="bold" lengthAdjust="spacing" textLength="19" x="55" y="475.6294">10</text><text fill="#000000" font-family="sans-serif" font-size="13" lengthAdjust="spacing" textLength="191" x="78" y="475.6294">Click button "Save" to confirm</text><polygon fill="#181818" points="678.5,505.8281,688.5,509.8281,678.5,513.8281,682.5,509.8281" style="stroke:#181818;stroke-width:1.0;"/><line style="stroke:#181818;stroke-width:1.0;" x1="424.5" x2="684.5" y1="509.8281" y2="509.8281"/><text fill="#000000" font-family="sans-serif" font-size="13" font-weight="bold" lengthAdjust="spacing" textLength="18" x="431.5" y="504.7622">11</text><text fill="#000000" font-family="sans-serif" font-size="13" lengthAdjust="spacing" textLength="220" x="453.5" y="504.7622">Send creating prescription request</text><polygon fill="#181818" points="851.5,534.9609,861.5,538.9609,851.5,542.9609,855.5,538.9609" style="stroke:#181818;stroke-width:1.0;"/><line style="stroke:#181818;stroke-width:1.0;" x1="690.5" x2="857.5" y1="538.9609" y2="538.9609"/><text fill="#000000" font-family="sans-serif" font-size="13" font-weight="bold" lengthAdjust="spacing" textLength="18" x="697.5" y="533.895">12</text><text fill="#000000" font-family="sans-serif" font-size="13" lengthAdjust="spacing" textLength="110" x="719.5" y="533.895">Send information</text><line style="stroke:#181818;stroke-width:1.0;" x1="863.5" x2="905.5" y1="568.0938" y2="568.0938"/><line style="stroke:#181818;stroke-width:1.0;" x1="905.5" x2="905.5" y1="568.0938" y2="581.0938"/><line style="stroke:#181818;stroke-width:1.0;" x1="864.5" x2="905.5" y1="581.0938" y2="581.0938"/><polygon fill="#181818" points="874.5,577.0938,864.5,581.0938,874.5,585.0938,870.5,581.0938" style="stroke:#181818;stroke-width:1.0;"/><text fill="#000000" font-family="sans-serif" font-size="13" font-weight="bold" lengthAdjust="spacing" textLength="17" x="870.5" y="563.0278">13</text><text fill="#000000" font-family="sans-serif" font-size="13" lengthAdjust="spacing" textLength="85" x="891.5" y="563.0278">Validate data</text><path d="M76,596.0938 L142,596.0938 L142,603.2266 L132,613.2266 L76,613.2266 L76,596.0938 " fill="#EEEEEE" style="stroke:#000000;stroke-width:1.5;"/><rect fill="none" height="304" style="stroke:#000000;stroke-width:1.5;" width="895.5" x="76" y="596.0938"/><text fill="#000000" font-family="sans-serif" font-size="13" font-weight="bold" lengthAdjust="spacing" textLength="21" x="91" y="609.1606">alt</text><text fill="#000000" font-family="sans-serif" font-size="11" font-weight="bold" lengthAdjust="spacing" textLength="88" x="157" y="608.3042">[Invalid data]</text><polygon fill="#181818" points="701.5,630.3594,691.5,634.3594,701.5,638.3594,697.5,634.3594" style="stroke:#181818;stroke-width:1.0;"/><line style="stroke:#181818;stroke-width:1.0;stroke-dasharray:2.0,2.0;" x1="695.5" x2="862.5" y1="634.3594" y2="634.3594"/><text fill="#000000" font-family="sans-serif" font-size="13" font-weight="bold" lengthAdjust="spacing" textLength="18" x="707.5" y="629.2935">14</text><text fill="#000000" font-family="sans-serif" font-size="13" lengthAdjust="spacing" textLength="106" x="729.5" y="629.2935">Error notification</text><polygon fill="#181818" points="435.5,659.4922,425.5,663.4922,435.5,667.4922,431.5,663.4922" style="stroke:#181818;stroke-width:1.0;"/><line style="stroke:#181818;stroke-width:1.0;stroke-dasharray:2.0,2.0;" x1="429.5" x2="689.5" y1="663.4922" y2="663.4922"/><text fill="#000000" font-family="sans-serif" font-size="13" font-weight="bold" lengthAdjust="spacing" textLength="18" x="441.5" y="658.4263">15</text><text fill="#000000" font-family="sans-serif" font-size="13" lengthAdjust="spacing" textLength="106" x="463.5" y="658.4263">Error notification</text><line style="stroke:#181818;stroke-width:1.0;" x1="424.5" x2="466.5" y1="692.625" y2="692.625"/><line style="stroke:#181818;stroke-width:1.0;" x1="466.5" x2="466.5" y1="692.625" y2="705.625"/><line style="stroke:#181818;stroke-width:1.0;" x1="425.5" x2="466.5" y1="705.625" y2="705.625"/><polygon fill="#181818" points="435.5,701.625,425.5,705.625,435.5,709.625,431.5,705.625" style="stroke:#181818;stroke-width:1.0;"/><text fill="#000000" font-family="sans-serif" font-size="13" font-weight="bold" lengthAdjust="spacing" textLength="18" x="431.5" y="687.5591">16</text><text fill="#000000" font-family="sans-serif" font-size="13" lengthAdjust="spacing" textLength="157" x="453.5" y="687.5591">Display error notification</text><line style="stroke:#000000;stroke-width:1.0;stroke-dasharray:2.0,2.0;" x1="76" x2="971.5" y1="714.625" y2="714.625"/><text fill="#000000" font-family="sans-serif" font-size="11" font-weight="bold" lengthAdjust="spacing" textLength="78" x="81" y="724.8354">[Valid data]</text><line style="stroke:#181818;stroke-width:1.0;" x1="863.5" x2="905.5" y1="749.5625" y2="749.5625"/><line style="stroke:#181818;stroke-width:1.0;" x1="905.5" x2="905.5" y1="749.5625" y2="762.5625"/><line style="stroke:#181818;stroke-width:1.0;" x1="864.5" x2="905.5" y1="762.5625" y2="762.5625"/><polygon fill="#181818" points="874.5,758.5625,864.5,762.5625,874.5,766.5625,870.5,762.5625" style="stroke:#181818;stroke-width:1.0;"/><text fill="#000000" font-family="sans-serif" font-size="13" font-weight="bold" lengthAdjust="spacing" textLength="18" x="870.5" y="744.4966">17</text><text fill="#000000" font-family="sans-serif" font-size="13" lengthAdjust="spacing" textLength="67" x="892.5" y="744.4966">Store data</text><polygon fill="#181818" points="701.5,787.6953,691.5,791.6953,701.5,795.6953,697.5,791.6953" style="stroke:#181818;stroke-width:1.0;"/><line style="stroke:#181818;stroke-width:1.0;stroke-dasharray:2.0,2.0;" x1="695.5" x2="862.5" y1="791.6953" y2="791.6953"/><text fill="#000000" font-family="sans-serif" font-size="13" font-weight="bold" lengthAdjust="spacing" textLength="18" x="707.5" y="786.6294">18</text><text fill="#000000" font-family="sans-serif" font-size="13" lengthAdjust="spacing" textLength="127" x="729.5" y="786.6294">Success notification</text><polygon fill="#181818" points="435.5,816.8281,425.5,820.8281,435.5,824.8281,431.5,820.8281" style="stroke:#181818;stroke-width:1.0;"/><line style="stroke:#181818;stroke-width:1.0;stroke-dasharray:2.0,2.0;" x1="429.5" x2="689.5" y1="820.8281" y2="820.8281"/><text fill="#000000" font-family="sans-serif" font-size="13" font-weight="bold" lengthAdjust="spacing" textLength="18" x="441.5" y="815.7622">19</text><text fill="#000000" font-family="sans-serif" font-size="13" lengthAdjust="spacing" textLength="127" x="463.5" y="815.7622">Success notification</text><line style="stroke:#181818;stroke-width:1.0;" x1="424.5" x2="466.5" y1="849.9609" y2="849.9609"/><line style="stroke:#181818;stroke-width:1.0;" x1="466.5" x2="466.5" y1="849.9609" y2="862.9609"/><line style="stroke:#181818;stroke-width:1.0;" x1="425.5" x2="466.5" y1="862.9609" y2="862.9609"/><polygon fill="#181818" points="435.5,858.9609,425.5,862.9609,435.5,866.9609,431.5,862.9609" style="stroke:#181818;stroke-width:1.0;"/><text fill="#000000" font-family="sans-serif" font-size="13" font-weight="bold" lengthAdjust="spacing" textLength="19" x="431.5" y="844.895">20</text><text fill="#000000" font-family="sans-serif" font-size="13" lengthAdjust="spacing" textLength="69" x="454.5" y="844.895">Close view</text><polygon fill="#181818" points="208,888.0938,198,892.0938,208,896.0938,204,892.0938" style="stroke:#181818;stroke-width:1.0;"/><line style="stroke:#181818;stroke-width:1.0;" x1="202" x2="689.5" y1="892.0938" y2="892.0938"/><text fill="#000000" font-family="sans-serif" font-size="13" font-weight="bold" lengthAdjust="spacing" textLength="18" x="214" y="887.0278">21</text><text fill="#000000" font-family="sans-serif" font-size="13" lengthAdjust="spacing" textLength="330" x="236" y="887.0278">Display success notification and list of prescriptions</text><!--SRC=[hLLDRy8m3BtdLrZSzmTsu5AchT8-69rssYMaBaHB4vQuRFpxkSiGXPOMDdff5Jy_FJ_RZQp8sQgSenTBdICKpj7SVGaX5JaF4rU_nDnLDfT-0wEfnw2yNf5sza5QkS0IBRrg_1o1370yV8GZjONpfQm_EqaEua8vIzwPVP8a7XhqhVnTIB0GJHkOpcwoP9PENzAdn-rPSfVUJuJeJeIhSGHSmoqI61q8N05ggKtkqOBu2JPGpnLocRaakGrnh9jx2-PWPUYeW8Fy0rDwI0wGC4GqqM5bv0O-DItXpMAvOdVq3YNYG0pot5XYtQi6fCa2y2-Hhz9eTXUZnT8Gf7PTdyK3uAUNdlbZ6QpJUwx6EjA5Lh72mVGJBSGsDPg0KVrEwOc69aQhTvXNnEiAeqokSGJaWDUXqBuyLtHp03EqEIYF3BQB_PPv_AWmK8jzVpUQ2_LBrvoOd-G6f9sotyyQtzdJDb5FLKSQsrV9u4oVHdd1UQcfksPcsDACPmh_Q5rMAOKXNDQyaqdFjIynZWrQrtV3aCPnp_MqwqFeK0gIXthxus-kI8WziZdV9Fat]--></g></svg>