<?xml version="1.0" encoding="us-ascii" standalone="no"?><svg xmlns="http://www.w3.org/2000/svg" xmlns:xlink="http://www.w3.org/1999/xlink" contentStyleType="text/css" height="804px" preserveAspectRatio="none" style="width:820px;height:804px;background:#FFFFFF;" version="1.1" viewBox="0 0 820 804" width="820px" zoomAndPan="magnify"><defs/><g><rect fill="none" height="551.8672" style="stroke:#000000;stroke-width:1.5;" width="803" x="10" y="228.7969"/><rect fill="none" height="290" style="stroke:#000000;stroke-width:1.5;" width="655" x="148" y="483.6641"/><line style="stroke:#181818;stroke-width:0.5;stroke-dasharray:5.0,5.0;" x1="48" x2="48" y1="81.2969" y2="797.6641"/><line style="stroke:#181818;stroke-width:0.5;stroke-dasharray:5.0,5.0;" x1="225" x2="225" y1="81.2969" y2="797.6641"/><line style="stroke:#181818;stroke-width:0.5;stroke-dasharray:5.0,5.0;" x1="471" x2="471" y1="81.2969" y2="797.6641"/><line style="stroke:#181818;stroke-width:0.5;stroke-dasharray:5.0,5.0;" x1="687" x2="687" y1="81.2969" y2="797.6641"/><text fill="#000000" font-family="sans-serif" font-size="14" lengthAdjust="spacing" textLength="50" x="20" y="77.9951">Doctor</text><ellipse cx="48" cy="13.5" fill="#E2E2F0" rx="8" ry="8" style="stroke:#181818;stroke-width:0.5;"/><path d="M48,21.5 L48,48.5 M35,29.5 L61,29.5 M48,48.5 L35,63.5 M48,48.5 L61,63.5 " fill="none" style="stroke:#181818;stroke-width:0.5;"/><text fill="#000000" font-family="sans-serif" font-size="14" lengthAdjust="spacing" textLength="88" x="178" y="61.6982">Prescription</text><text fill="#000000" font-family="sans-serif" font-size="14" lengthAdjust="spacing" textLength="128" x="158" y="77.9951">ManagementView</text><path d="M204.5,20.7031 L204.5,44.7031 M204.5,32.7031 L221.5,32.7031 " fill="none" style="stroke:#181818;stroke-width:0.5;"/><ellipse cx="233.5" cy="32.7031" fill="#E2E2F0" rx="12" ry="12" style="stroke:#181818;stroke-width:0.5;"/><text fill="#000000" font-family="sans-serif" font-size="14" lengthAdjust="spacing" textLength="88" x="424" y="61.6982">Prescription</text><text fill="#000000" font-family="sans-serif" font-size="14" lengthAdjust="spacing" textLength="73" x="431.5" y="77.9951">Controller</text><ellipse cx="471" cy="32.7031" fill="#E2E2F0" rx="12" ry="12" style="stroke:#181818;stroke-width:0.5;"/><polygon fill="#181818" points="467,20.7031,473,15.7031,471,20.7031,473,25.7031,467,20.7031" style="stroke:#181818;stroke-width:1.0;"/><text fill="#000000" font-family="sans-serif" font-size="14" lengthAdjust="spacing" textLength="104" x="632" y="77.9951">PRESCRIPTION</text><ellipse cx="687" cy="49" fill="#E2E2F0" rx="12" ry="12" style="stroke:#181818;stroke-width:0.5;"/><line style="stroke:#181818;stroke-width:0.5;" x1="675" x2="699" y1="63" y2="63"/><rect fill="none" height="39.1016" style="stroke:#000000;stroke-width:1.5;" width="728" x="17" y="91.2969"/><path d="M17,91.2969 L85,91.2969 L85,98.2969 L75,108.2969 L17,108.2969 L17,91.2969 " fill="#EEEEEE" style="stroke:#000000;stroke-width:2.0;"/><text fill="#000000" font-family="sans-serif" font-size="13" font-weight="bold" lengthAdjust="spacing" textLength="23" x="30" y="105.3638">ref</text><text fill="#000000" font-family="sans-serif" font-size="12" lengthAdjust="spacing" textLength="182" x="290" y="123.4355">Sequence Search Prescription</text><polygon fill="#181818" points="213,167.6641,223,171.6641,213,175.6641,217,171.6641" style="stroke:#181818;stroke-width:1.0;"/><line style="stroke:#181818;stroke-width:1.0;" x1="48" x2="219" y1="171.6641" y2="171.6641"/><text fill="#000000" font-family="sans-serif" font-size="13" font-weight="bold" lengthAdjust="spacing" textLength="9" x="55" y="159.0317">1</text><text fill="#000000" font-family="sans-serif" font-size="13" lengthAdjust="spacing" textLength="118" x="68" y="151.4653">Select prescription</text><text fill="#000000" font-family="sans-serif" font-size="13" lengthAdjust="spacing" textLength="94" x="72" y="166.5981">needs deleting</text><line style="stroke:#181818;stroke-width:1.0;" x1="225" x2="267" y1="200.7969" y2="200.7969"/><line style="stroke:#181818;stroke-width:1.0;" x1="267" x2="267" y1="200.7969" y2="213.7969"/><line style="stroke:#181818;stroke-width:1.0;" x1="226" x2="267" y1="213.7969" y2="213.7969"/><polygon fill="#181818" points="236,209.7969,226,213.7969,236,217.7969,232,213.7969" style="stroke:#181818;stroke-width:1.0;"/><text fill="#000000" font-family="sans-serif" font-size="13" font-weight="bold" lengthAdjust="spacing" textLength="9" x="232" y="195.731">2</text><text fill="#000000" font-family="sans-serif" font-size="13" lengthAdjust="spacing" textLength="219" x="245" y="195.731">Display confirmation messagebox</text><path d="M10,228.7969 L76,228.7969 L76,235.9297 L66,245.9297 L10,245.9297 L10,228.7969 " fill="#EEEEEE" style="stroke:#000000;stroke-width:1.5;"/><rect fill="none" height="551.8672" style="stroke:#000000;stroke-width:1.5;" width="803" x="10" y="228.7969"/><text fill="#000000" font-family="sans-serif" font-size="13" font-weight="bold" lengthAdjust="spacing" textLength="21" x="25" y="241.8638">alt</text><text fill="#000000" font-family="sans-serif" font-size="11" font-weight="bold" lengthAdjust="spacing" textLength="54" x="91" y="241.0073">[Cancel]</text><polygon fill="#181818" points="213,263.0625,223,267.0625,213,271.0625,217,267.0625" style="stroke:#181818;stroke-width:1.0;"/><line style="stroke:#181818;stroke-width:1.0;" x1="48" x2="219" y1="267.0625" y2="267.0625"/><text fill="#000000" font-family="sans-serif" font-size="13" font-weight="bold" lengthAdjust="spacing" textLength="8" x="55" y="261.9966">3</text><text fill="#000000" font-family="sans-serif" font-size="13" lengthAdjust="spacing" textLength="132" x="67" y="261.9966">Click "Cancel" button</text><line style="stroke:#181818;stroke-width:1.0;" x1="225" x2="267" y1="296.1953" y2="296.1953"/><line style="stroke:#181818;stroke-width:1.0;" x1="267" x2="267" y1="296.1953" y2="309.1953"/><line style="stroke:#181818;stroke-width:1.0;" x1="226" x2="267" y1="309.1953" y2="309.1953"/><polygon fill="#181818" points="236,305.1953,226,309.1953,236,313.1953,232,309.1953" style="stroke:#181818;stroke-width:1.0;"/><text fill="#000000" font-family="sans-serif" font-size="13" font-weight="bold" lengthAdjust="spacing" textLength="9" x="232" y="291.1294">4</text><text fill="#000000" font-family="sans-serif" font-size="13" lengthAdjust="spacing" textLength="211" x="245" y="291.1294">Close confirmation message box</text><line style="stroke:#000000;stroke-width:1.0;stroke-dasharray:2.0,2.0;" x1="10" x2="813" y1="318.1953" y2="318.1953"/><text fill="#000000" font-family="sans-serif" font-size="11" font-weight="bold" lengthAdjust="spacing" textLength="65" x="15" y="328.4058">[Confirm]</text><polygon fill="#181818" points="213,349.1328,223,353.1328,213,357.1328,217,353.1328" style="stroke:#181818;stroke-width:1.0;"/><line style="stroke:#181818;stroke-width:1.0;" x1="48" x2="219" y1="353.1328" y2="353.1328"/><text fill="#000000" font-family="sans-serif" font-size="13" font-weight="bold" lengthAdjust="spacing" textLength="9" x="55" y="348.0669">5</text><text fill="#000000" font-family="sans-serif" font-size="13" lengthAdjust="spacing" textLength="140" x="68" y="348.0669">Click "Confirm" button</text><polygon fill="#181818" points="459,393.3984,469,397.3984,459,401.3984,463,397.3984" style="stroke:#181818;stroke-width:1.0;"/><line style="stroke:#181818;stroke-width:1.0;" x1="225" x2="465" y1="397.3984" y2="397.3984"/><text fill="#000000" font-family="sans-serif" font-size="13" font-weight="bold" lengthAdjust="spacing" textLength="9" x="232" y="384.7661">6</text><text fill="#000000" font-family="sans-serif" font-size="13" lengthAdjust="spacing" textLength="87" x="245" y="377.1997">Send deleting</text><text fill="#000000" font-family="sans-serif" font-size="13" lengthAdjust="spacing" textLength="186" x="245" y="392.3325">selected prescription request</text><polygon fill="#181818" points="675,422.5313,685,426.5313,675,430.5313,679,426.5313" style="stroke:#181818;stroke-width:1.0;"/><line style="stroke:#181818;stroke-width:1.0;" x1="471" x2="681" y1="426.5313" y2="426.5313"/><text fill="#000000" font-family="sans-serif" font-size="13" font-weight="bold" lengthAdjust="spacing" textLength="9" x="478" y="421.4653">7</text><text fill="#000000" font-family="sans-serif" font-size="13" lengthAdjust="spacing" textLength="179" x="491" y="421.4653">Delete selected prescription</text><line style="stroke:#181818;stroke-width:1.0;" x1="687" x2="729" y1="455.6641" y2="455.6641"/><line style="stroke:#181818;stroke-width:1.0;" x1="729" x2="729" y1="455.6641" y2="468.6641"/><line style="stroke:#181818;stroke-width:1.0;" x1="688" x2="729" y1="468.6641" y2="468.6641"/><polygon fill="#181818" points="698,464.6641,688,468.6641,698,472.6641,694,468.6641" style="stroke:#181818;stroke-width:1.0;"/><text fill="#000000" font-family="sans-serif" font-size="13" font-weight="bold" lengthAdjust="spacing" textLength="9" x="694" y="450.5981">8</text><text fill="#000000" font-family="sans-serif" font-size="13" lengthAdjust="spacing" textLength="85" x="707" y="450.5981">Validate data</text><path d="M148,483.6641 L214,483.6641 L214,490.7969 L204,500.7969 L148,500.7969 L148,483.6641 " fill="#EEEEEE" style="stroke:#000000;stroke-width:1.5;"/><rect fill="none" height="290" style="stroke:#000000;stroke-width:1.5;" width="655" x="148" y="483.6641"/><text fill="#000000" font-family="sans-serif" font-size="13" font-weight="bold" lengthAdjust="spacing" textLength="21" x="163" y="496.731">alt</text><text fill="#000000" font-family="sans-serif" font-size="11" font-weight="bold" lengthAdjust="spacing" textLength="88" x="229" y="495.8745">[Invalid data]</text><polygon fill="#181818" points="482,517.9297,472,521.9297,482,525.9297,478,521.9297" style="stroke:#181818;stroke-width:1.0;"/><line style="stroke:#181818;stroke-width:1.0;stroke-dasharray:2.0,2.0;" x1="476" x2="686" y1="521.9297" y2="521.9297"/><text fill="#000000" font-family="sans-serif" font-size="13" font-weight="bold" lengthAdjust="spacing" textLength="9" x="488" y="516.8638">9</text><text fill="#000000" font-family="sans-serif" font-size="13" lengthAdjust="spacing" textLength="106" x="501" y="516.8638">Error notification</text><polygon fill="#181818" points="236,547.0625,226,551.0625,236,555.0625,232,551.0625" style="stroke:#181818;stroke-width:1.0;"/><line style="stroke:#181818;stroke-width:1.0;stroke-dasharray:2.0,2.0;" x1="230" x2="470" y1="551.0625" y2="551.0625"/><text fill="#000000" font-family="sans-serif" font-size="13" font-weight="bold" lengthAdjust="spacing" textLength="19" x="242" y="545.9966">10</text><text fill="#000000" font-family="sans-serif" font-size="13" lengthAdjust="spacing" textLength="106" x="265" y="545.9966">Error notification</text><line style="stroke:#181818;stroke-width:1.0;" x1="225" x2="267" y1="580.1953" y2="580.1953"/><line style="stroke:#181818;stroke-width:1.0;" x1="267" x2="267" y1="580.1953" y2="593.1953"/><line style="stroke:#181818;stroke-width:1.0;" x1="226" x2="267" y1="593.1953" y2="593.1953"/><polygon fill="#181818" points="236,589.1953,226,593.1953,236,597.1953,232,593.1953" style="stroke:#181818;stroke-width:1.0;"/><text fill="#000000" font-family="sans-serif" font-size="13" font-weight="bold" lengthAdjust="spacing" textLength="18" x="232" y="575.1294">11</text><text fill="#000000" font-family="sans-serif" font-size="13" lengthAdjust="spacing" textLength="157" x="254" y="575.1294">Display error notification</text><line style="stroke:#000000;stroke-width:1.0;stroke-dasharray:2.0,2.0;" x1="148" x2="803" y1="602.1953" y2="602.1953"/><text fill="#000000" font-family="sans-serif" font-size="11" font-weight="bold" lengthAdjust="spacing" textLength="78" x="153" y="612.4058">[Valid data]</text><line style="stroke:#181818;stroke-width:1.0;" x1="687" x2="729" y1="637.1328" y2="637.1328"/><line style="stroke:#181818;stroke-width:1.0;" x1="729" x2="729" y1="637.1328" y2="650.1328"/><line style="stroke:#181818;stroke-width:1.0;" x1="688" x2="729" y1="650.1328" y2="650.1328"/><polygon fill="#181818" points="698,646.1328,688,650.1328,698,654.1328,694,650.1328" style="stroke:#181818;stroke-width:1.0;"/><text fill="#000000" font-family="sans-serif" font-size="13" font-weight="bold" lengthAdjust="spacing" textLength="18" x="694" y="632.0669">12</text><text fill="#000000" font-family="sans-serif" font-size="13" lengthAdjust="spacing" textLength="75" x="716" y="632.0669">Delete data</text><polygon fill="#181818" points="482,675.2656,472,679.2656,482,683.2656,478,679.2656" style="stroke:#181818;stroke-width:1.0;"/><line style="stroke:#181818;stroke-width:1.0;stroke-dasharray:2.0,2.0;" x1="476" x2="686" y1="679.2656" y2="679.2656"/><text fill="#000000" font-family="sans-serif" font-size="13" font-weight="bold" lengthAdjust="spacing" textLength="17" x="488" y="674.1997">13</text><text fill="#000000" font-family="sans-serif" font-size="13" lengthAdjust="spacing" textLength="127" x="509" y="674.1997">Success notification</text><polygon fill="#181818" points="236,704.3984,226,708.3984,236,712.3984,232,708.3984" style="stroke:#181818;stroke-width:1.0;"/><line style="stroke:#181818;stroke-width:1.0;stroke-dasharray:2.0,2.0;" x1="230" x2="470" y1="708.3984" y2="708.3984"/><text fill="#000000" font-family="sans-serif" font-size="13" font-weight="bold" lengthAdjust="spacing" textLength="18" x="242" y="703.3325">14</text><text fill="#000000" font-family="sans-serif" font-size="13" lengthAdjust="spacing" textLength="106" x="264" y="703.3325">Error notification</text><line style="stroke:#181818;stroke-width:1.0;" x1="225" x2="267" y1="752.6641" y2="752.6641"/><line style="stroke:#181818;stroke-width:1.0;" x1="267" x2="267" y1="752.6641" y2="765.6641"/><line style="stroke:#181818;stroke-width:1.0;" x1="226" x2="267" y1="765.6641" y2="765.6641"/><polygon fill="#181818" points="236,761.6641,226,765.6641,236,769.6641,232,765.6641" style="stroke:#181818;stroke-width:1.0;"/><text fill="#000000" font-family="sans-serif" font-size="13" font-weight="bold" lengthAdjust="spacing" textLength="18" x="232" y="740.0317">15</text><text fill="#000000" font-family="sans-serif" font-size="13" lengthAdjust="spacing" textLength="177" x="254" y="732.4653">Display success notification</text><text fill="#000000" font-family="sans-serif" font-size="13" lengthAdjust="spacing" textLength="149" x="254" y="747.5981">and list of prescriptions</text><!--SRC=[rPInSi8m38PtFuKkCts13bq20qDR3dfCB8gjWA-EJ6s7bhUldLm9AH1wsPg1S9RqwRVqNx0Ebkkg82TsMX6KreR2VWc1CbW7KvjUeh0rAtH7o1QEl7Hw7xJb3JyZuvOguh3Mz9a1UZXFw8U5j1oSDRyXUNjio5q0kf2841sEi5ZELlboldYRlxu8uQW4Uw0VdPE1xfCRu4aF-GWh-gY99SK_wEIkLoNQDl3mDD0e8Gp90FlUBO69b0SLOq7pLjm6tCDFjTyRF48SPwbTXIa7Al8-PgNLeGcGOxo20H0Gdx-fpesMxv2rbHaKTOZEQEh7IysDzNHLA2IbP68qRwCZbBQ58wLs3aWBOtNQp8PzipzIlGs2IyRmuQ9D1sfQzCmqJKo2gy0MT9P-MRv6enL6GFp19Z_jTiw7TDuTNe86xZfpBawORT2bbdWICdIhE-lu8t6SoUawl77E-juORgnZtE1MjPJHk_zdTFwAu0rZjBhHFe0jUtRqxLnPnI-j-WO0]--></g></svg>