<?xml version="1.0" encoding="us-ascii" standalone="no"?><svg xmlns="http://www.w3.org/2000/svg" xmlns:xlink="http://www.w3.org/1999/xlink" contentStyleType="text/css" height="567px" preserveAspectRatio="none" style="width:657px;height:567px;background:#FFFFFF;" version="1.1" viewBox="0 0 657 567" width="657px" zoomAndPan="magnify"><defs/><g><rect fill="none" height="61.2344" style="stroke:#000000;stroke-width:1.5;" width="641.5" x="10" y="256.9609"/><rect fill="none" height="61.2344" style="stroke:#000000;stroke-width:1.5;" width="641.5" x="10" y="332.1953"/><rect fill="none" height="61.2344" style="stroke:#000000;stroke-width:1.5;" width="641.5" x="10" y="407.4297"/><rect fill="none" height="61.2344" style="stroke:#000000;stroke-width:1.5;" width="641.5" x="10" y="482.6641"/><line style="stroke:#181818;stroke-width:0.5;stroke-dasharray:5.0,5.0;" x1="48" x2="48" y1="81.2969" y2="560.8984"/><line style="stroke:#181818;stroke-width:0.5;stroke-dasharray:5.0,5.0;" x1="197" x2="197" y1="81.2969" y2="560.8984"/><line style="stroke:#181818;stroke-width:0.5;stroke-dasharray:5.0,5.0;" x1="401" x2="401" y1="81.2969" y2="560.8984"/><line style="stroke:#181818;stroke-width:0.5;stroke-dasharray:5.0,5.0;" x1="586.5" x2="586.5" y1="81.2969" y2="560.8984"/><text fill="#000000" font-family="sans-serif" font-size="14" lengthAdjust="spacing" textLength="50" x="20" y="77.9951">Doctor</text><ellipse cx="48" cy="13.5" fill="#E2E2F0" rx="8" ry="8" style="stroke:#181818;stroke-width:0.5;"/><path d="M48,21.5 L48,48.5 M35,29.5 L61,29.5 M48,48.5 L35,63.5 M48,48.5 L61,63.5 " fill="none" style="stroke:#181818;stroke-width:0.5;"/><text fill="#000000" font-family="sans-serif" font-size="14" lengthAdjust="spacing" textLength="216" x="86" y="77.9951">PrescriptionManagementView</text><path d="M176.5,37 L176.5,61 M176.5,49 L193.5,49 " fill="none" style="stroke:#181818;stroke-width:0.5;"/><ellipse cx="205.5" cy="49" fill="#E2E2F0" rx="12" ry="12" style="stroke:#181818;stroke-width:0.5;"/><text fill="#000000" font-family="sans-serif" font-size="14" lengthAdjust="spacing" textLength="161" x="318" y="77.9951">PrescriptionController</text><ellipse cx="401.5" cy="49" fill="#E2E2F0" rx="12" ry="12" style="stroke:#181818;stroke-width:0.5;"/><polygon fill="#181818" points="397.5,37,403.5,32,401.5,37,403.5,42,397.5,37" style="stroke:#181818;stroke-width:1.0;"/><text fill="#000000" font-family="sans-serif" font-size="14" lengthAdjust="spacing" textLength="104" x="531.5" y="77.9951">PRESCRIPTION</text><ellipse cx="586.5" cy="49" fill="#E2E2F0" rx="12" ry="12" style="stroke:#181818;stroke-width:0.5;"/><line style="stroke:#181818;stroke-width:0.5;" x1="574.5" x2="598.5" y1="63" y2="63"/><polygon fill="#181818" points="574.5,108.4297,584.5,112.4297,574.5,116.4297,578.5,112.4297" style="stroke:#181818;stroke-width:1.0;"/><line style="stroke:#181818;stroke-width:1.0;" x1="401.5" x2="580.5" y1="112.4297" y2="112.4297"/><text fill="#000000" font-family="sans-serif" font-size="13" font-weight="bold" lengthAdjust="spacing" textLength="9" x="408.5" y="107.3638">1</text><text fill="#000000" font-family="sans-serif" font-size="13" lengthAdjust="spacing" textLength="148" x="421.5" y="107.3638">Get list of prescriptions</text><polygon fill="#181818" points="412.5,137.5625,402.5,141.5625,412.5,145.5625,408.5,141.5625" style="stroke:#181818;stroke-width:1.0;"/><line style="stroke:#181818;stroke-width:1.0;stroke-dasharray:2.0,2.0;" x1="406.5" x2="585.5" y1="141.5625" y2="141.5625"/><text fill="#000000" font-family="sans-serif" font-size="13" font-weight="bold" lengthAdjust="spacing" textLength="9" x="418.5" y="136.4966">2</text><text fill="#000000" font-family="sans-serif" font-size="13" lengthAdjust="spacing" textLength="125" x="431.5" y="136.4966">List of prescriptions</text><polygon fill="#181818" points="208,166.6953,198,170.6953,208,174.6953,204,170.6953" style="stroke:#181818;stroke-width:1.0;"/><line style="stroke:#181818;stroke-width:1.0;stroke-dasharray:2.0,2.0;" x1="202" x2="400.5" y1="170.6953" y2="170.6953"/><text fill="#000000" font-family="sans-serif" font-size="13" font-weight="bold" lengthAdjust="spacing" textLength="8" x="214" y="165.6294">3</text><text fill="#000000" font-family="sans-serif" font-size="13" lengthAdjust="spacing" textLength="125" x="226" y="165.6294">List of prescriptions</text><line style="stroke:#181818;stroke-width:1.0;" x1="197" x2="239" y1="199.8281" y2="199.8281"/><line style="stroke:#181818;stroke-width:1.0;" x1="239" x2="239" y1="199.8281" y2="212.8281"/><line style="stroke:#181818;stroke-width:1.0;" x1="198" x2="239" y1="212.8281" y2="212.8281"/><polygon fill="#181818" points="208,208.8281,198,212.8281,208,216.8281,204,212.8281" style="stroke:#181818;stroke-width:1.0;"/><text fill="#000000" font-family="sans-serif" font-size="13" font-weight="bold" lengthAdjust="spacing" textLength="9" x="204" y="194.7622">4</text><text fill="#000000" font-family="sans-serif" font-size="13" lengthAdjust="spacing" textLength="172" x="217" y="194.7622">Display list of prescriptions</text><polygon fill="#181818" points="185,237.9609,195,241.9609,185,245.9609,189,241.9609" style="stroke:#181818;stroke-width:1.0;"/><line style="stroke:#181818;stroke-width:1.0;" x1="48" x2="191" y1="241.9609" y2="241.9609"/><text fill="#000000" font-family="sans-serif" font-size="13" font-weight="bold" lengthAdjust="spacing" textLength="9" x="55" y="236.895">5</text><text fill="#000000" font-family="sans-serif" font-size="13" lengthAdjust="spacing" textLength="104" x="68" y="236.895">Choose function</text><path d="M10,256.9609 L82,256.9609 L82,264.0938 L72,274.0938 L10,274.0938 L10,256.9609 " fill="#EEEEEE" style="stroke:#000000;stroke-width:1.5;"/><rect fill="none" height="61.2344" style="stroke:#000000;stroke-width:1.5;" width="641.5" x="10" y="256.9609"/><text fill="#000000" font-family="sans-serif" font-size="13" font-weight="bold" lengthAdjust="spacing" textLength="27" x="25" y="270.0278">opt</text><text fill="#000000" font-family="sans-serif" font-size="11" font-weight="bold" lengthAdjust="spacing" textLength="56" x="97" y="269.1714">[Create]</text><rect fill="none" height="39.1016" style="stroke:#000000;stroke-width:1.5;" width="627.5" x="17" y="274.0938"/><path d="M17,274.0938 L85,274.0938 L85,281.0938 L75,291.0938 L17,291.0938 L17,274.0938 " fill="#EEEEEE" style="stroke:#000000;stroke-width:2.0;"/><text fill="#000000" font-family="sans-serif" font-size="13" font-weight="bold" lengthAdjust="spacing" textLength="23" x="30" y="288.1606">ref</text><text fill="#000000" font-family="sans-serif" font-size="12" lengthAdjust="spacing" textLength="174" x="243.75" y="306.2324">Sequence Insert Prescription</text><path d="M10,332.1953 L82,332.1953 L82,339.3281 L72,349.3281 L10,349.3281 L10,332.1953 " fill="#EEEEEE" style="stroke:#000000;stroke-width:1.5;"/><rect fill="none" height="61.2344" style="stroke:#000000;stroke-width:1.5;" width="641.5" x="10" y="332.1953"/><text fill="#000000" font-family="sans-serif" font-size="13" font-weight="bold" lengthAdjust="spacing" textLength="27" x="25" y="345.2622">opt</text><text fill="#000000" font-family="sans-serif" font-size="11" font-weight="bold" lengthAdjust="spacing" textLength="58" x="97" y="344.4058">[Update]</text><rect fill="none" height="39.1016" style="stroke:#000000;stroke-width:1.5;" width="627.5" x="17" y="349.3281"/><path d="M17,349.3281 L85,349.3281 L85,356.3281 L75,366.3281 L17,366.3281 L17,349.3281 " fill="#EEEEEE" style="stroke:#000000;stroke-width:2.0;"/><text fill="#000000" font-family="sans-serif" font-size="13" font-weight="bold" lengthAdjust="spacing" textLength="23" x="30" y="363.395">ref</text><text fill="#000000" font-family="sans-serif" font-size="12" lengthAdjust="spacing" textLength="184" x="238.75" y="381.4668">Sequence Update Prescription</text><path d="M10,407.4297 L82,407.4297 L82,414.5625 L72,424.5625 L10,424.5625 L10,407.4297 " fill="#EEEEEE" style="stroke:#000000;stroke-width:1.5;"/><rect fill="none" height="61.2344" style="stroke:#000000;stroke-width:1.5;" width="641.5" x="10" y="407.4297"/><text fill="#000000" font-family="sans-serif" font-size="13" font-weight="bold" lengthAdjust="spacing" textLength="27" x="25" y="420.4966">opt</text><text fill="#000000" font-family="sans-serif" font-size="11" font-weight="bold" lengthAdjust="spacing" textLength="54" x="97" y="419.6401">[Delete]</text><rect fill="none" height="39.1016" style="stroke:#000000;stroke-width:1.5;" width="627.5" x="17" y="424.5625"/><path d="M17,424.5625 L85,424.5625 L85,431.5625 L75,441.5625 L17,441.5625 L17,424.5625 " fill="#EEEEEE" style="stroke:#000000;stroke-width:2.0;"/><text fill="#000000" font-family="sans-serif" font-size="13" font-weight="bold" lengthAdjust="spacing" textLength="23" x="30" y="438.6294">ref</text><text fill="#000000" font-family="sans-serif" font-size="12" lengthAdjust="spacing" textLength="180" x="240.75" y="456.7012">Sequence Delete Prescription</text><path d="M10,482.6641 L82,482.6641 L82,489.7969 L72,499.7969 L10,499.7969 L10,482.6641 " fill="#EEEEEE" style="stroke:#000000;stroke-width:1.5;"/><rect fill="none" height="61.2344" style="stroke:#000000;stroke-width:1.5;" width="641.5" x="10" y="482.6641"/><text fill="#000000" font-family="sans-serif" font-size="13" font-weight="bold" lengthAdjust="spacing" textLength="27" x="25" y="495.731">opt</text><text fill="#000000" font-family="sans-serif" font-size="11" font-weight="bold" lengthAdjust="spacing" textLength="55" x="97" y="494.8745">[Search]</text><rect fill="none" height="39.1016" style="stroke:#000000;stroke-width:1.5;" width="627.5" x="17" y="499.7969"/><path d="M17,499.7969 L85,499.7969 L85,506.7969 L75,516.7969 L17,516.7969 L17,499.7969 " fill="#EEEEEE" style="stroke:#000000;stroke-width:2.0;"/><text fill="#000000" font-family="sans-serif" font-size="13" font-weight="bold" lengthAdjust="spacing" textLength="23" x="30" y="513.8638">ref</text><text fill="#000000" font-family="sans-serif" font-size="12" lengthAdjust="spacing" textLength="182" x="239.75" y="531.9355">Sequence Search Prescription</text><!--SRC=[lPB1JeGm48RlynIJFSCBxC4B64EYBbdKUoc3D64xs0ugRo-469TTwdfnUsdIcV-Vh_shUc7R7qfoq9YAi6QMaZy1b1PscFAqGSczhPGRS9CxyjgPJWpR1sNLAnt8oekXZmqgZ-4oQBRYk5rQ9FDXI-vC_bE2qSB8WFd-jaZsMVwKxHu1rdinlbdqRV6E15lZ1Rd6xaZZuRWFutXIhdfkyNvT7o0uCLg-mr_CbWgyu9SQtxLg25noJl2IHz8m-p7ztkgf3C2TOE982G6Eor6D_4xV7oBwnImAl69qaaj1RprPJPXPJquMgZ7nQcPuxgfhCCnZ0WmfjNG5XdbCWA4WvNJpxmppc3E6Bm00]--></g></svg>