<?xml version="1.0" encoding="us-ascii" standalone="no"?><svg xmlns="http://www.w3.org/2000/svg" xmlns:xlink="http://www.w3.org/1999/xlink" contentStyleType="text/css" height="383px" preserveAspectRatio="none" style="width:711px;height:383px;background:#FFFFFF;" version="1.1" viewBox="0 0 711 383" width="711px" zoomAndPan="magnify"><defs/><g><line style="stroke:#181818;stroke-width:0.5;stroke-dasharray:5.0,5.0;" x1="33" x2="33" y1="81.2969" y2="376.625"/><line style="stroke:#181818;stroke-width:0.5;stroke-dasharray:5.0,5.0;" x1="204" x2="204" y1="81.2969" y2="376.625"/><line style="stroke:#181818;stroke-width:0.5;stroke-dasharray:5.0,5.0;" x1="418" x2="418" y1="81.2969" y2="376.625"/><line style="stroke:#181818;stroke-width:0.5;stroke-dasharray:5.0,5.0;" x1="612" x2="612" y1="81.2969" y2="376.625"/><text fill="#000000" font-family="sans-serif" font-size="14" lengthAdjust="spacing" textLength="50" x="5" y="77.9951">Doctor</text><ellipse cx="33" cy="13.5" fill="#E2E2F0" rx="8" ry="8" style="stroke:#181818;stroke-width:0.5;"/><path d="M33,21.5 L33,48.5 M20,29.5 L46,29.5 M33,48.5 L20,63.5 M33,48.5 L46,63.5 " fill="none" style="stroke:#181818;stroke-width:0.5;"/><text fill="#000000" font-family="sans-serif" font-size="14" lengthAdjust="spacing" textLength="88" x="157" y="61.6982">Prescription</text><text fill="#000000" font-family="sans-serif" font-size="14" lengthAdjust="spacing" textLength="128" x="137" y="77.9951">ManagementView</text><path d="M183.5,20.7031 L183.5,44.7031 M183.5,32.7031 L200.5,32.7031 " fill="none" style="stroke:#181818;stroke-width:0.5;"/><ellipse cx="212.5" cy="32.7031" fill="#E2E2F0" rx="12" ry="12" style="stroke:#181818;stroke-width:0.5;"/><text fill="#000000" font-family="sans-serif" font-size="14" lengthAdjust="spacing" textLength="88" x="371" y="61.6982">Prescription</text><text fill="#000000" font-family="sans-serif" font-size="14" lengthAdjust="spacing" textLength="73" x="378.5" y="77.9951">Controller</text><ellipse cx="418" cy="32.7031" fill="#E2E2F0" rx="12" ry="12" style="stroke:#181818;stroke-width:0.5;"/><polygon fill="#181818" points="414,20.7031,420,15.7031,418,20.7031,420,25.7031,414,20.7031" style="stroke:#181818;stroke-width:1.0;"/><text fill="#000000" font-family="sans-serif" font-size="14" lengthAdjust="spacing" textLength="104" x="557" y="77.9951">PRESCRIPTION</text><ellipse cx="612" cy="49" fill="#E2E2F0" rx="12" ry="12" style="stroke:#181818;stroke-width:0.5;"/><line style="stroke:#181818;stroke-width:0.5;" x1="600" x2="624" y1="63" y2="63"/><polygon fill="#181818" points="192,123.5625,202,127.5625,192,131.5625,196,127.5625" style="stroke:#181818;stroke-width:1.0;"/><line style="stroke:#181818;stroke-width:1.0;" x1="33" x2="198" y1="127.5625" y2="127.5625"/><text fill="#000000" font-family="sans-serif" font-size="13" font-weight="bold" lengthAdjust="spacing" textLength="9" x="40" y="114.9302">1</text><text fill="#000000" font-family="sans-serif" font-size="13" lengthAdjust="spacing" textLength="113" x="53" y="107.3638">Enters the search</text><text fill="#000000" font-family="sans-serif" font-size="13" lengthAdjust="spacing" textLength="134" x="53" y="122.4966">criteria in search box</text><polygon fill="#181818" points="406,167.8281,416,171.8281,406,175.8281,410,171.8281" style="stroke:#181818;stroke-width:1.0;"/><line style="stroke:#181818;stroke-width:1.0;" x1="204" x2="412" y1="171.8281" y2="171.8281"/><text fill="#000000" font-family="sans-serif" font-size="13" font-weight="bold" lengthAdjust="spacing" textLength="9" x="211" y="159.1958">2</text><text fill="#000000" font-family="sans-serif" font-size="13" lengthAdjust="spacing" textLength="177" x="224" y="151.6294">Send searching prescription</text><text fill="#000000" font-family="sans-serif" font-size="13" lengthAdjust="spacing" textLength="127" x="224" y="166.7622">information request</text><polygon fill="#181818" points="600,212.0938,610,216.0938,600,220.0938,604,216.0938" style="stroke:#181818;stroke-width:1.0;"/><line style="stroke:#181818;stroke-width:1.0;" x1="418" x2="606" y1="216.0938" y2="216.0938"/><text fill="#000000" font-family="sans-serif" font-size="13" font-weight="bold" lengthAdjust="spacing" textLength="8" x="425" y="203.4614">3</text><text fill="#000000" font-family="sans-serif" font-size="13" lengthAdjust="spacing" textLength="158" x="437" y="195.895">Search prescription base</text><text fill="#000000" font-family="sans-serif" font-size="13" lengthAdjust="spacing" textLength="121" x="437" y="211.0278">on given keywords</text><line style="stroke:#181818;stroke-width:1.0;" x1="612" x2="654" y1="245.2266" y2="245.2266"/><line style="stroke:#181818;stroke-width:1.0;" x1="654" x2="654" y1="245.2266" y2="258.2266"/><line style="stroke:#181818;stroke-width:1.0;" x1="613" x2="654" y1="258.2266" y2="258.2266"/><polygon fill="#181818" points="623,254.2266,613,258.2266,623,262.2266,619,258.2266" style="stroke:#181818;stroke-width:1.0;"/><text fill="#000000" font-family="sans-serif" font-size="13" font-weight="bold" lengthAdjust="spacing" textLength="9" x="619" y="240.1606">4</text><text fill="#000000" font-family="sans-serif" font-size="13" lengthAdjust="spacing" textLength="72" x="632" y="240.1606">Query data</text><polygon fill="#181818" points="429,283.3594,419,287.3594,429,291.3594,425,287.3594" style="stroke:#181818;stroke-width:1.0;"/><line style="stroke:#181818;stroke-width:1.0;stroke-dasharray:2.0,2.0;" x1="423" x2="611" y1="287.3594" y2="287.3594"/><text fill="#000000" font-family="sans-serif" font-size="13" font-weight="bold" lengthAdjust="spacing" textLength="9" x="435" y="282.2935">5</text><text fill="#000000" font-family="sans-serif" font-size="13" lengthAdjust="spacing" textLength="79" x="448" y="282.2935">Query result</text><polygon fill="#181818" points="215,312.4922,205,316.4922,215,320.4922,211,316.4922" style="stroke:#181818;stroke-width:1.0;"/><line style="stroke:#181818;stroke-width:1.0;stroke-dasharray:2.0,2.0;" x1="209" x2="417" y1="316.4922" y2="316.4922"/><text fill="#000000" font-family="sans-serif" font-size="13" font-weight="bold" lengthAdjust="spacing" textLength="9" x="221" y="311.4263">6</text><text fill="#000000" font-family="sans-serif" font-size="13" lengthAdjust="spacing" textLength="79" x="234" y="311.4263">Query result</text><line style="stroke:#181818;stroke-width:1.0;" x1="204" x2="246" y1="345.625" y2="345.625"/><line style="stroke:#181818;stroke-width:1.0;" x1="246" x2="246" y1="345.625" y2="358.625"/><line style="stroke:#181818;stroke-width:1.0;" x1="205" x2="246" y1="358.625" y2="358.625"/><polygon fill="#181818" points="215,354.625,205,358.625,215,362.625,211,358.625" style="stroke:#181818;stroke-width:1.0;"/><text fill="#000000" font-family="sans-serif" font-size="13" font-weight="bold" lengthAdjust="spacing" textLength="9" x="211" y="340.5591">7</text><text fill="#000000" font-family="sans-serif" font-size="13" lengthAdjust="spacing" textLength="172" x="224" y="340.5591">Display list of prescriptions</text><!--SRC=[XP6_SeCm3CPtFuKkUryWGvSaGuQsQTBhn290WAyW4LjkojiNGku2fD39jlxyz7qo1XKELKpE53Obo4GqbXzZC55ni9NkCB44Jj4ri3euyecpjLhXY5-GCQUAM3yjNLQ07eO5uxH9XDL9EOLi-d19xW5mJvaMOhM1mt5tsXptXu_zswinlJnuUbuOkuOTApaFMX1uGfSK4RUbRSmYMBx5e7CzJvdEk2jRmuaulL4ivr2Ft5dEn5NOFS3HEP1NypVeEc9WhmDVbGs14AEdYDjBRh-9uOkQYxZKcs7d8-azKFjxAIfE2XTizJrjCfJpalzP_InZURjJpDRwkiG6IkiL91jjnFy2]--></g></svg>