<?xml version="1.0" encoding="us-ascii" standalone="no"?><svg xmlns="http://www.w3.org/2000/svg" xmlns:xlink="http://www.w3.org/1999/xlink" contentStyleType="text/css" height="1091px" preserveAspectRatio="none" style="width:1106px;height:1091px;background:#FFFFFF;" version="1.1" viewBox="0 0 1106 1091" width="1106px" zoomAndPan="magnify"><defs/><g><rect fill="none" height="550.7344" style="stroke:#000000;stroke-width:1.5;" width="1002.5" x="10" y="516.9922"/><rect fill="none" height="304" style="stroke:#000000;stroke-width:1.5;" width="868.5" x="126" y="756.7266"/><line style="stroke:#181818;stroke-width:0.5;stroke-dasharray:5.0,5.0;" x1="48" x2="48" y1="81.2969" y2="1084.7266"/><line style="stroke:#181818;stroke-width:0.5;stroke-dasharray:5.0,5.0;" x1="203" x2="203" y1="81.2969" y2="1084.7266"/><line style="stroke:#181818;stroke-width:0.5;stroke-dasharray:5.0,5.0;" x1="342" x2="342" y1="81.2969" y2="1084.7266"/><line style="stroke:#181818;stroke-width:0.5;stroke-dasharray:5.0,5.0;" x1="612" x2="612" y1="81.2969" y2="1084.7266"/><line style="stroke:#181818;stroke-width:0.5;stroke-dasharray:5.0,5.0;" x1="886.5" x2="886.5" y1="81.2969" y2="1084.7266"/><line style="stroke:#181818;stroke-width:0.5;stroke-dasharray:5.0,5.0;" x1="1007" x2="1007" y1="81.2969" y2="1084.7266"/><text fill="#000000" font-family="sans-serif" font-size="14" lengthAdjust="spacing" textLength="50" x="20" y="77.9951">Doctor</text><ellipse cx="48" cy="13.5" fill="#E2E2F0" rx="8" ry="8" style="stroke:#181818;stroke-width:0.5;"/><path d="M48,21.5 L48,48.5 M35,29.5 L61,29.5 M48,48.5 L35,63.5 M48,48.5 L61,63.5 " fill="none" style="stroke:#181818;stroke-width:0.5;"/><text fill="#000000" font-family="sans-serif" font-size="14" lengthAdjust="spacing" textLength="88" x="156" y="61.6982">Prescription</text><text fill="#000000" font-family="sans-serif" font-size="14" lengthAdjust="spacing" textLength="128" x="136" y="77.9951">ManagementView</text><path d="M182.5,20.7031 L182.5,44.7031 M182.5,32.7031 L199.5,32.7031 " fill="none" style="stroke:#181818;stroke-width:0.5;"/><ellipse cx="211.5" cy="32.7031" fill="#E2E2F0" rx="12" ry="12" style="stroke:#181818;stroke-width:0.5;"/><text fill="#000000" font-family="sans-serif" font-size="14" lengthAdjust="spacing" textLength="88" x="295.5" y="61.6982">Prescription</text><text fill="#000000" font-family="sans-serif" font-size="14" lengthAdjust="spacing" textLength="119" x="280" y="77.9951">InformationView</text><path d="M322,20.7031 L322,44.7031 M322,32.7031 L339,32.7031 " fill="none" style="stroke:#181818;stroke-width:0.5;"/><ellipse cx="351" cy="32.7031" fill="#E2E2F0" rx="12" ry="12" style="stroke:#181818;stroke-width:0.5;"/><text fill="#000000" font-family="sans-serif" font-size="14" lengthAdjust="spacing" textLength="161" x="529" y="77.9951">PrescriptionController</text><ellipse cx="612.5" cy="49" fill="#E2E2F0" rx="12" ry="12" style="stroke:#181818;stroke-width:0.5;"/><polygon fill="#181818" points="608.5,37,614.5,32,612.5,37,614.5,42,608.5,37" style="stroke:#181818;stroke-width:1.0;"/><text fill="#000000" font-family="sans-serif" font-size="14" lengthAdjust="spacing" textLength="104" x="831.5" y="77.9951">PRESCRIPTION</text><ellipse cx="886.5" cy="49" fill="#E2E2F0" rx="12" ry="12" style="stroke:#181818;stroke-width:0.5;"/><line style="stroke:#181818;stroke-width:0.5;" x1="874.5" x2="898.5" y1="63" y2="63"/><text fill="#000000" font-family="sans-serif" font-size="14" lengthAdjust="spacing" textLength="43" x="983" y="77.9951">CHILD</text><ellipse cx="1007.5" cy="49" fill="#E2E2F0" rx="12" ry="12" style="stroke:#181818;stroke-width:0.5;"/><line style="stroke:#181818;stroke-width:0.5;" x1="995.5" x2="1019.5" y1="63" y2="63"/><rect fill="none" height="39.1016" style="stroke:#000000;stroke-width:1.5;" width="1018" x="17" y="91.2969"/><path d="M17,91.2969 L85,91.2969 L85,98.2969 L75,108.2969 L17,108.2969 L17,91.2969 " fill="#EEEEEE" style="stroke:#000000;stroke-width:2.0;"/><text fill="#000000" font-family="sans-serif" font-size="13" font-weight="bold" lengthAdjust="spacing" textLength="23" x="30" y="105.3638">ref</text><text fill="#000000" font-family="sans-serif" font-size="12" lengthAdjust="spacing" textLength="182" x="435" y="123.4355">Sequence Search Prescription</text><polygon fill="#181818" points="191,167.6641,201,171.6641,191,175.6641,195,171.6641" style="stroke:#181818;stroke-width:1.0;"/><line style="stroke:#181818;stroke-width:1.0;" x1="48" x2="197" y1="171.6641" y2="171.6641"/><text fill="#000000" font-family="sans-serif" font-size="13" font-weight="bold" lengthAdjust="spacing" textLength="9" x="55" y="159.0317">1</text><text fill="#000000" font-family="sans-serif" font-size="13" lengthAdjust="spacing" textLength="118" x="68" y="151.4653">Select prescription</text><text fill="#000000" font-family="sans-serif" font-size="13" lengthAdjust="spacing" textLength="99" x="72" y="166.5981">needs updating</text><polygon fill="#181818" points="600.5,196.7969,610.5,200.7969,600.5,204.7969,604.5,200.7969" style="stroke:#181818;stroke-width:1.0;"/><line style="stroke:#181818;stroke-width:1.0;" x1="203" x2="606.5" y1="200.7969" y2="200.7969"/><text fill="#000000" font-family="sans-serif" font-size="13" font-weight="bold" lengthAdjust="spacing" textLength="9" x="210" y="195.731">2</text><text fill="#000000" font-family="sans-serif" font-size="13" lengthAdjust="spacing" textLength="238" x="223" y="195.731">Get selected prescription information</text><polygon fill="#181818" points="874.5,225.9297,884.5,229.9297,874.5,233.9297,878.5,229.9297" style="stroke:#181818;stroke-width:1.0;"/><line style="stroke:#181818;stroke-width:1.0;" x1="612.5" x2="880.5" y1="229.9297" y2="229.9297"/><text fill="#000000" font-family="sans-serif" font-size="13" font-weight="bold" lengthAdjust="spacing" textLength="8" x="619.5" y="224.8638">3</text><text fill="#000000" font-family="sans-serif" font-size="13" lengthAdjust="spacing" textLength="238" x="631.5" y="224.8638">Get selected prescription information</text><polygon fill="#181818" points="353.5,255.0625,343.5,259.0625,353.5,263.0625,349.5,259.0625" style="stroke:#181818;stroke-width:1.0;"/><line style="stroke:#181818;stroke-width:1.0;stroke-dasharray:2.0,2.0;" x1="347.5" x2="885.5" y1="259.0625" y2="259.0625"/><text fill="#000000" font-family="sans-serif" font-size="13" font-weight="bold" lengthAdjust="spacing" textLength="9" x="359.5" y="253.9966">4</text><text fill="#000000" font-family="sans-serif" font-size="13" lengthAdjust="spacing" textLength="212" x="372.5" y="253.9966">Selected prescription information</text><polygon fill="#181818" points="995.5,284.1953,1005.5,288.1953,995.5,292.1953,999.5,288.1953" style="stroke:#181818;stroke-width:1.0;"/><line style="stroke:#181818;stroke-width:1.0;" x1="612.5" x2="1001.5" y1="288.1953" y2="288.1953"/><text fill="#000000" font-family="sans-serif" font-size="13" font-weight="bold" lengthAdjust="spacing" textLength="9" x="619.5" y="283.1294">5</text><text fill="#000000" font-family="sans-serif" font-size="13" lengthAdjust="spacing" textLength="116" x="632.5" y="283.1294">Get list of children</text><line style="stroke:#181818;stroke-width:1.0;" x1="1007.5" x2="1049.5" y1="317.3281" y2="317.3281"/><line style="stroke:#181818;stroke-width:1.0;" x1="1049.5" x2="1049.5" y1="317.3281" y2="330.3281"/><line style="stroke:#181818;stroke-width:1.0;" x1="1008.5" x2="1049.5" y1="330.3281" y2="330.3281"/><polygon fill="#181818" points="1018.5,326.3281,1008.5,330.3281,1018.5,334.3281,1014.5,330.3281" style="stroke:#181818;stroke-width:1.0;"/><text fill="#000000" font-family="sans-serif" font-size="13" font-weight="bold" lengthAdjust="spacing" textLength="9" x="1014.5" y="312.2622">6</text><text fill="#000000" font-family="sans-serif" font-size="13" lengthAdjust="spacing" textLength="72" x="1027.5" y="312.2622">Query data</text><polygon fill="#181818" points="623.5,355.4609,613.5,359.4609,623.5,363.4609,619.5,359.4609" style="stroke:#181818;stroke-width:1.0;"/><line style="stroke:#181818;stroke-width:1.0;stroke-dasharray:2.0,2.0;" x1="617.5" x2="1006.5" y1="359.4609" y2="359.4609"/><text fill="#000000" font-family="sans-serif" font-size="13" font-weight="bold" lengthAdjust="spacing" textLength="9" x="629.5" y="354.395">7</text><text fill="#000000" font-family="sans-serif" font-size="13" lengthAdjust="spacing" textLength="79" x="642.5" y="354.395">Query result</text><polygon fill="#181818" points="353.5,384.5938,343.5,388.5938,353.5,392.5938,349.5,388.5938" style="stroke:#181818;stroke-width:1.0;"/><line style="stroke:#181818;stroke-width:1.0;stroke-dasharray:2.0,2.0;" x1="347.5" x2="611.5" y1="388.5938" y2="388.5938"/><text fill="#000000" font-family="sans-serif" font-size="13" font-weight="bold" lengthAdjust="spacing" textLength="9" x="359.5" y="383.5278">8</text><text fill="#000000" font-family="sans-serif" font-size="13" lengthAdjust="spacing" textLength="79" x="372.5" y="383.5278">Query result</text><line style="stroke:#181818;stroke-width:1.0;" x1="342.5" x2="384.5" y1="417.7266" y2="417.7266"/><line style="stroke:#181818;stroke-width:1.0;" x1="384.5" x2="384.5" y1="417.7266" y2="430.7266"/><line style="stroke:#181818;stroke-width:1.0;" x1="343.5" x2="384.5" y1="430.7266" y2="430.7266"/><polygon fill="#181818" points="353.5,426.7266,343.5,430.7266,353.5,434.7266,349.5,430.7266" style="stroke:#181818;stroke-width:1.0;"/><text fill="#000000" font-family="sans-serif" font-size="13" font-weight="bold" lengthAdjust="spacing" textLength="9" x="349.5" y="412.6606">9</text><text fill="#000000" font-family="sans-serif" font-size="13" lengthAdjust="spacing" textLength="204" x="362.5" y="412.6606">Display prescription information</text><polygon fill="#181818" points="330.5,455.8594,340.5,459.8594,330.5,463.8594,334.5,459.8594" style="stroke:#181818;stroke-width:1.0;"/><line style="stroke:#181818;stroke-width:1.0;" x1="48" x2="336.5" y1="459.8594" y2="459.8594"/><text fill="#000000" font-family="sans-serif" font-size="13" font-weight="bold" lengthAdjust="spacing" textLength="19" x="55" y="454.7935">10</text><text fill="#000000" font-family="sans-serif" font-size="13" lengthAdjust="spacing" textLength="191" x="78" y="454.7935">Enter prescription information</text><line style="stroke:#181818;stroke-width:1.0;" x1="342.5" x2="384.5" y1="488.9922" y2="488.9922"/><line style="stroke:#181818;stroke-width:1.0;" x1="384.5" x2="384.5" y1="488.9922" y2="501.9922"/><line style="stroke:#181818;stroke-width:1.0;" x1="343.5" x2="384.5" y1="501.9922" y2="501.9922"/><polygon fill="#181818" points="353.5,497.9922,343.5,501.9922,353.5,505.9922,349.5,501.9922" style="stroke:#181818;stroke-width:1.0;"/><text fill="#000000" font-family="sans-serif" font-size="13" font-weight="bold" lengthAdjust="spacing" textLength="18" x="349.5" y="483.9263">11</text><text fill="#000000" font-family="sans-serif" font-size="13" lengthAdjust="spacing" textLength="85" x="371.5" y="483.9263">Validate data</text><path d="M10,516.9922 L76,516.9922 L76,524.125 L66,534.125 L10,534.125 L10,516.9922 " fill="#EEEEEE" style="stroke:#000000;stroke-width:1.5;"/><rect fill="none" height="550.7344" style="stroke:#000000;stroke-width:1.5;" width="1002.5" x="10" y="516.9922"/><text fill="#000000" font-family="sans-serif" font-size="13" font-weight="bold" lengthAdjust="spacing" textLength="21" x="25" y="530.0591">alt</text><text fill="#000000" font-family="sans-serif" font-size="11" font-weight="bold" lengthAdjust="spacing" textLength="88" x="91" y="529.2026">[Invalid data]</text><polygon fill="#181818" points="59,551.2578,49,555.2578,59,559.2578,55,555.2578" style="stroke:#181818;stroke-width:1.0;"/><line style="stroke:#181818;stroke-width:1.0;stroke-dasharray:2.0,2.0;" x1="53" x2="341.5" y1="555.2578" y2="555.2578"/><text fill="#000000" font-family="sans-serif" font-size="13" font-weight="bold" lengthAdjust="spacing" textLength="18" x="65" y="550.1919">12</text><text fill="#000000" font-family="sans-serif" font-size="13" lengthAdjust="spacing" textLength="106" x="87" y="550.1919">Error notification</text><line style="stroke:#181818;stroke-width:1.0;" x1="342.5" x2="384.5" y1="584.3906" y2="584.3906"/><line style="stroke:#181818;stroke-width:1.0;" x1="384.5" x2="384.5" y1="584.3906" y2="597.3906"/><line style="stroke:#181818;stroke-width:1.0;" x1="343.5" x2="384.5" y1="597.3906" y2="597.3906"/><polygon fill="#181818" points="353.5,593.3906,343.5,597.3906,353.5,601.3906,349.5,597.3906" style="stroke:#181818;stroke-width:1.0;"/><text fill="#000000" font-family="sans-serif" font-size="13" font-weight="bold" lengthAdjust="spacing" textLength="17" x="349.5" y="579.3247">13</text><text fill="#000000" font-family="sans-serif" font-size="13" lengthAdjust="spacing" textLength="157" x="370.5" y="579.3247">Display error notification</text><line style="stroke:#000000;stroke-width:1.0;stroke-dasharray:2.0,2.0;" x1="10" x2="1012.5" y1="606.3906" y2="606.3906"/><text fill="#000000" font-family="sans-serif" font-size="11" font-weight="bold" lengthAdjust="spacing" textLength="78" x="15" y="616.6011">[Valid data]</text><polygon fill="#181818" points="330.5,637.3281,340.5,641.3281,330.5,645.3281,334.5,641.3281" style="stroke:#181818;stroke-width:1.0;"/><line style="stroke:#181818;stroke-width:1.0;" x1="48" x2="336.5" y1="641.3281" y2="641.3281"/><text fill="#000000" font-family="sans-serif" font-size="13" font-weight="bold" lengthAdjust="spacing" textLength="18" x="55" y="636.2622">14</text><text fill="#000000" font-family="sans-serif" font-size="13" lengthAdjust="spacing" textLength="191" x="77" y="636.2622">Click button "Save" to confirm</text><polygon fill="#181818" points="600.5,666.4609,610.5,670.4609,600.5,674.4609,604.5,670.4609" style="stroke:#181818;stroke-width:1.0;"/><line style="stroke:#181818;stroke-width:1.0;" x1="342.5" x2="606.5" y1="670.4609" y2="670.4609"/><text fill="#000000" font-family="sans-serif" font-size="13" font-weight="bold" lengthAdjust="spacing" textLength="18" x="349.5" y="665.395">15</text><text fill="#000000" font-family="sans-serif" font-size="13" lengthAdjust="spacing" textLength="224" x="371.5" y="665.395">Send updating prescription request</text><polygon fill="#181818" points="874.5,695.5938,884.5,699.5938,874.5,703.5938,878.5,699.5938" style="stroke:#181818;stroke-width:1.0;"/><line style="stroke:#181818;stroke-width:1.0;" x1="612.5" x2="880.5" y1="699.5938" y2="699.5938"/><text fill="#000000" font-family="sans-serif" font-size="13" font-weight="bold" lengthAdjust="spacing" textLength="18" x="619.5" y="694.5278">16</text><text fill="#000000" font-family="sans-serif" font-size="13" lengthAdjust="spacing" textLength="110" x="641.5" y="694.5278">Send information</text><line style="stroke:#181818;stroke-width:1.0;" x1="886.5" x2="928.5" y1="728.7266" y2="728.7266"/><line style="stroke:#181818;stroke-width:1.0;" x1="928.5" x2="928.5" y1="728.7266" y2="741.7266"/><line style="stroke:#181818;stroke-width:1.0;" x1="887.5" x2="928.5" y1="741.7266" y2="741.7266"/><polygon fill="#181818" points="897.5,737.7266,887.5,741.7266,897.5,745.7266,893.5,741.7266" style="stroke:#181818;stroke-width:1.0;"/><text fill="#000000" font-family="sans-serif" font-size="13" font-weight="bold" lengthAdjust="spacing" textLength="18" x="893.5" y="723.6606">17</text><text fill="#000000" font-family="sans-serif" font-size="13" lengthAdjust="spacing" textLength="85" x="915.5" y="723.6606">Validate data</text><path d="M126,756.7266 L192,756.7266 L192,763.8594 L182,773.8594 L126,773.8594 L126,756.7266 " fill="#EEEEEE" style="stroke:#000000;stroke-width:1.5;"/><rect fill="none" height="304" style="stroke:#000000;stroke-width:1.5;" width="868.5" x="126" y="756.7266"/><text fill="#000000" font-family="sans-serif" font-size="13" font-weight="bold" lengthAdjust="spacing" textLength="21" x="141" y="769.7935">alt</text><text fill="#000000" font-family="sans-serif" font-size="11" font-weight="bold" lengthAdjust="spacing" textLength="88" x="207" y="768.937">[Invalid data]</text><polygon fill="#181818" points="623.5,790.9922,613.5,794.9922,623.5,798.9922,619.5,794.9922" style="stroke:#181818;stroke-width:1.0;"/><line style="stroke:#181818;stroke-width:1.0;stroke-dasharray:2.0,2.0;" x1="617.5" x2="885.5" y1="794.9922" y2="794.9922"/><text fill="#000000" font-family="sans-serif" font-size="13" font-weight="bold" lengthAdjust="spacing" textLength="18" x="629.5" y="789.9263">18</text><text fill="#000000" font-family="sans-serif" font-size="13" lengthAdjust="spacing" textLength="106" x="651.5" y="789.9263">Error notification</text><polygon fill="#181818" points="353.5,820.125,343.5,824.125,353.5,828.125,349.5,824.125" style="stroke:#181818;stroke-width:1.0;"/><line style="stroke:#181818;stroke-width:1.0;stroke-dasharray:2.0,2.0;" x1="347.5" x2="611.5" y1="824.125" y2="824.125"/><text fill="#000000" font-family="sans-serif" font-size="13" font-weight="bold" lengthAdjust="spacing" textLength="18" x="359.5" y="819.0591">19</text><text fill="#000000" font-family="sans-serif" font-size="13" lengthAdjust="spacing" textLength="106" x="381.5" y="819.0591">Error notification</text><line style="stroke:#181818;stroke-width:1.0;" x1="342.5" x2="384.5" y1="853.2578" y2="853.2578"/><line style="stroke:#181818;stroke-width:1.0;" x1="384.5" x2="384.5" y1="853.2578" y2="866.2578"/><line style="stroke:#181818;stroke-width:1.0;" x1="343.5" x2="384.5" y1="866.2578" y2="866.2578"/><polygon fill="#181818" points="353.5,862.2578,343.5,866.2578,353.5,870.2578,349.5,866.2578" style="stroke:#181818;stroke-width:1.0;"/><text fill="#000000" font-family="sans-serif" font-size="13" font-weight="bold" lengthAdjust="spacing" textLength="19" x="349.5" y="848.1919">20</text><text fill="#000000" font-family="sans-serif" font-size="13" lengthAdjust="spacing" textLength="157" x="372.5" y="848.1919">Display error notification</text><line style="stroke:#000000;stroke-width:1.0;stroke-dasharray:2.0,2.0;" x1="126" x2="994.5" y1="875.2578" y2="875.2578"/><text fill="#000000" font-family="sans-serif" font-size="11" font-weight="bold" lengthAdjust="spacing" textLength="78" x="131" y="885.4683">[Valid data]</text><line style="stroke:#181818;stroke-width:1.0;" x1="886.5" x2="928.5" y1="910.1953" y2="910.1953"/><line style="stroke:#181818;stroke-width:1.0;" x1="928.5" x2="928.5" y1="910.1953" y2="923.1953"/><line style="stroke:#181818;stroke-width:1.0;" x1="887.5" x2="928.5" y1="923.1953" y2="923.1953"/><polygon fill="#181818" points="897.5,919.1953,887.5,923.1953,897.5,927.1953,893.5,923.1953" style="stroke:#181818;stroke-width:1.0;"/><text fill="#000000" font-family="sans-serif" font-size="13" font-weight="bold" lengthAdjust="spacing" textLength="18" x="893.5" y="905.1294">21</text><text fill="#000000" font-family="sans-serif" font-size="13" lengthAdjust="spacing" textLength="67" x="915.5" y="905.1294">Store data</text><polygon fill="#181818" points="623.5,948.3281,613.5,952.3281,623.5,956.3281,619.5,952.3281" style="stroke:#181818;stroke-width:1.0;"/><line style="stroke:#181818;stroke-width:1.0;stroke-dasharray:2.0,2.0;" x1="617.5" x2="885.5" y1="952.3281" y2="952.3281"/><text fill="#000000" font-family="sans-serif" font-size="13" font-weight="bold" lengthAdjust="spacing" textLength="18" x="629.5" y="947.2622">22</text><text fill="#000000" font-family="sans-serif" font-size="13" lengthAdjust="spacing" textLength="127" x="651.5" y="947.2622">Success notification</text><polygon fill="#181818" points="353.5,977.4609,343.5,981.4609,353.5,985.4609,349.5,981.4609" style="stroke:#181818;stroke-width:1.0;"/><line style="stroke:#181818;stroke-width:1.0;stroke-dasharray:2.0,2.0;" x1="347.5" x2="611.5" y1="981.4609" y2="981.4609"/><text fill="#000000" font-family="sans-serif" font-size="13" font-weight="bold" lengthAdjust="spacing" textLength="17" x="359.5" y="976.395">23</text><text fill="#000000" font-family="sans-serif" font-size="13" lengthAdjust="spacing" textLength="127" x="380.5" y="976.395">Success notification</text><line style="stroke:#181818;stroke-width:1.0;" x1="342.5" x2="384.5" y1="1010.5938" y2="1010.5938"/><line style="stroke:#181818;stroke-width:1.0;" x1="384.5" x2="384.5" y1="1010.5938" y2="1023.5938"/><line style="stroke:#181818;stroke-width:1.0;" x1="343.5" x2="384.5" y1="1023.5938" y2="1023.5938"/><polygon fill="#181818" points="353.5,1019.5938,343.5,1023.5938,353.5,1027.5938,349.5,1023.5938" style="stroke:#181818;stroke-width:1.0;"/><text fill="#000000" font-family="sans-serif" font-size="13" font-weight="bold" lengthAdjust="spacing" textLength="18" x="349.5" y="1005.5278">24</text><text fill="#000000" font-family="sans-serif" font-size="13" lengthAdjust="spacing" textLength="69" x="371.5" y="1005.5278">Close view</text><polygon fill="#181818" points="214,1048.7266,204,1052.7266,214,1056.7266,210,1052.7266" style="stroke:#181818;stroke-width:1.0;"/><line style="stroke:#181818;stroke-width:1.0;" x1="208" x2="611.5" y1="1052.7266" y2="1052.7266"/><text fill="#000000" font-family="sans-serif" font-size="13" font-weight="bold" lengthAdjust="spacing" textLength="18" x="220" y="1047.6606">25</text><text fill="#000000" font-family="sans-serif" font-size="13" lengthAdjust="spacing" textLength="330" x="242" y="1047.6606">Display success notification and list of prescriptions</text><!--SRC=[hLPDSziW4BtpAtPyLlv03ht8cLOpQUj6dPnomR2AcM9m0Rdrlm-8AjOdKjBuOflTVRptTa6YjTEgFkxHa8FW29NMRg__4aAPqmQsEdoHlQuLf-O2cvr1oumuEQ7La_fA5Nt68ohtAF3F1gY5Ra8_F8jIg4gR8mr_9c46SSAqSaRBFamU5oMQKVqrH3mLuIwmUxWhyuTYzxFu_grToxyKzrj235QWpzXApnA2iXJBR8P2rjiyYzlUGec_QrGC_GzgsA5NJ28LkFcK81CW9387fvwte12vXVh4FJFrJEO1Xl1NohVm6HtO1XvvRmCGLzLakhh1xKXUZTQfWPi1kO7PhVZtiVlNWa1B2kj0Ly0EGdA32aWJx6JzgD5Fi7UJjg64Rp7P1slfPWaiIPi56MJ24j1Ms9EabtcBfkTiX7EddESzXmBmNoGVgHJUNOmMK-cWKEUm5XV0VvBm7Z_Ay3oDyMgKTg8IB2fSB5zf8OwXKLgCxAzCLngQIy5-mRvs_Yw6JKdFk06dmTzpbJ37jvBk3c29YhyU_dxBJBXnh1kXfqvk0zUTcAQuTr279Vr-Xlp9dew14gfc6fjIiZZJwo0_S5u2zDJCB5jQ-fd2TrfNreoXjHzhtchGjzgNI-qDEeU7_XB7zBEnxOETO0hK3tLxyNUFY8qzKjo_8l0N]--></g></svg>