<?xml version="1.0" encoding="us-ascii" standalone="no"?><svg xmlns="http://www.w3.org/2000/svg" xmlns:xlink="http://www.w3.org/1999/xlink" contentStyleType="text/css" height="801px" preserveAspectRatio="none" style="width:806px;height:801px;background:#FFFFFF;" version="1.1" viewBox="0 0 806 801" width="806px" zoomAndPan="magnify"><defs/><g><rect fill="none" height="550.7344" style="stroke:#000000;stroke-width:1.5;" width="789.5" x="10" y="226.8281"/><rect fill="none" height="304" style="stroke:#000000;stroke-width:1.5;" width="715.5" x="74" y="466.5625"/><line style="stroke:#181818;stroke-width:0.5;stroke-dasharray:5.0,5.0;" x1="47" x2="47" y1="81.2969" y2="794.5625"/><line style="stroke:#181818;stroke-width:0.5;stroke-dasharray:5.0,5.0;" x1="151" x2="151" y1="81.2969" y2="794.5625"/><line style="stroke:#181818;stroke-width:0.5;stroke-dasharray:5.0,5.0;" x1="290" x2="290" y1="81.2969" y2="794.5625"/><line style="stroke:#181818;stroke-width:0.5;stroke-dasharray:5.0,5.0;" x1="509" x2="509" y1="81.2969" y2="794.5625"/><line style="stroke:#181818;stroke-width:0.5;stroke-dasharray:5.0,5.0;" x1="682.5" x2="682.5" y1="81.2969" y2="794.5625"/><text fill="#000000" font-family="sans-serif" font-size="14" lengthAdjust="spacing" textLength="48" x="20" y="77.9951">Parent</text><ellipse cx="47" cy="13.5" fill="#E2E2F0" rx="8" ry="8" style="stroke:#181818;stroke-width:0.5;"/><path d="M47,21.5 L47,48.5 M34,29.5 L60,29.5 M47,48.5 L34,63.5 M47,48.5 L60,63.5 " fill="none" style="stroke:#181818;stroke-width:0.5;"/><text fill="#000000" font-family="sans-serif" font-size="14" lengthAdjust="spacing" textLength="78" x="109" y="61.6982">ChildEvent</text><text fill="#000000" font-family="sans-serif" font-size="14" lengthAdjust="spacing" textLength="128" x="84" y="77.9951">ManagementView</text><path d="M130.5,20.7031 L130.5,44.7031 M130.5,32.7031 L147.5,32.7031 " fill="none" style="stroke:#181818;stroke-width:0.5;"/><ellipse cx="159.5" cy="32.7031" fill="#E2E2F0" rx="12" ry="12" style="stroke:#181818;stroke-width:0.5;"/><text fill="#000000" font-family="sans-serif" font-size="14" lengthAdjust="spacing" textLength="78" x="248.5" y="61.6982">ChildEvent</text><text fill="#000000" font-family="sans-serif" font-size="14" lengthAdjust="spacing" textLength="119" x="228" y="77.9951">InformationView</text><path d="M270,20.7031 L270,44.7031 M270,32.7031 L287,32.7031 " fill="none" style="stroke:#181818;stroke-width:0.5;"/><ellipse cx="299" cy="32.7031" fill="#E2E2F0" rx="12" ry="12" style="stroke:#181818;stroke-width:0.5;"/><text fill="#000000" font-family="sans-serif" font-size="14" lengthAdjust="spacing" textLength="151" x="431" y="77.9951">ChildEventController</text><ellipse cx="509.5" cy="49" fill="#E2E2F0" rx="12" ry="12" style="stroke:#181818;stroke-width:0.5;"/><polygon fill="#181818" points="505.5,37,511.5,32,509.5,37,511.5,42,505.5,37" style="stroke:#181818;stroke-width:1.0;"/><text fill="#000000" font-family="sans-serif" font-size="14" lengthAdjust="spacing" textLength="90" x="634.5" y="77.9951">CHILDEVENT</text><ellipse cx="682.5" cy="49" fill="#E2E2F0" rx="12" ry="12" style="stroke:#181818;stroke-width:0.5;"/><line style="stroke:#181818;stroke-width:0.5;" x1="670.5" x2="694.5" y1="63" y2="63"/><line style="stroke:#181818;stroke-width:1.0;" x1="290.5" x2="332.5" y1="127.5625" y2="127.5625"/><line style="stroke:#181818;stroke-width:1.0;" x1="332.5" x2="332.5" y1="127.5625" y2="140.5625"/><line style="stroke:#181818;stroke-width:1.0;" x1="291.5" x2="332.5" y1="140.5625" y2="140.5625"/><polygon fill="#181818" points="301.5,136.5625,291.5,140.5625,301.5,144.5625,297.5,140.5625" style="stroke:#181818;stroke-width:1.0;"/><text fill="#000000" font-family="sans-serif" font-size="13" font-weight="bold" lengthAdjust="spacing" textLength="9" x="297.5" y="114.9302">1</text><text fill="#000000" font-family="sans-serif" font-size="13" lengthAdjust="spacing" textLength="78" x="310.5" y="107.3638">Display with</text><text fill="#000000" font-family="sans-serif" font-size="13" lengthAdjust="spacing" textLength="120" x="310.5" y="122.4966">empty information</text><polygon fill="#181818" points="278.5,165.6953,288.5,169.6953,278.5,173.6953,282.5,169.6953" style="stroke:#181818;stroke-width:1.0;"/><line style="stroke:#181818;stroke-width:1.0;" x1="47" x2="284.5" y1="169.6953" y2="169.6953"/><text fill="#000000" font-family="sans-serif" font-size="13" font-weight="bold" lengthAdjust="spacing" textLength="9" x="54" y="164.6294">2</text><text fill="#000000" font-family="sans-serif" font-size="13" lengthAdjust="spacing" textLength="153" x="67" y="164.6294">Enter event information</text><line style="stroke:#181818;stroke-width:1.0;" x1="290.5" x2="332.5" y1="198.8281" y2="198.8281"/><line style="stroke:#181818;stroke-width:1.0;" x1="332.5" x2="332.5" y1="198.8281" y2="211.8281"/><line style="stroke:#181818;stroke-width:1.0;" x1="291.5" x2="332.5" y1="211.8281" y2="211.8281"/><polygon fill="#181818" points="301.5,207.8281,291.5,211.8281,301.5,215.8281,297.5,211.8281" style="stroke:#181818;stroke-width:1.0;"/><text fill="#000000" font-family="sans-serif" font-size="13" font-weight="bold" lengthAdjust="spacing" textLength="8" x="297.5" y="193.7622">3</text><text fill="#000000" font-family="sans-serif" font-size="13" lengthAdjust="spacing" textLength="85" x="309.5" y="193.7622">Validate data</text><path d="M10,226.8281 L76,226.8281 L76,233.9609 L66,243.9609 L10,243.9609 L10,226.8281 " fill="#EEEEEE" style="stroke:#000000;stroke-width:1.5;"/><rect fill="none" height="550.7344" style="stroke:#000000;stroke-width:1.5;" width="789.5" x="10" y="226.8281"/><text fill="#000000" font-family="sans-serif" font-size="13" font-weight="bold" lengthAdjust="spacing" textLength="21" x="25" y="239.895">alt</text><text fill="#000000" font-family="sans-serif" font-size="11" font-weight="bold" lengthAdjust="spacing" textLength="88" x="91" y="239.0386">[Invalid data]</text><polygon fill="#181818" points="58,261.0938,48,265.0938,58,269.0938,54,265.0938" style="stroke:#181818;stroke-width:1.0;"/><line style="stroke:#181818;stroke-width:1.0;stroke-dasharray:2.0,2.0;" x1="52" x2="289.5" y1="265.0938" y2="265.0938"/><text fill="#000000" font-family="sans-serif" font-size="13" font-weight="bold" lengthAdjust="spacing" textLength="9" x="64" y="260.0278">4</text><text fill="#000000" font-family="sans-serif" font-size="13" lengthAdjust="spacing" textLength="106" x="77" y="260.0278">Error notification</text><line style="stroke:#181818;stroke-width:1.0;" x1="290.5" x2="332.5" y1="294.2266" y2="294.2266"/><line style="stroke:#181818;stroke-width:1.0;" x1="332.5" x2="332.5" y1="294.2266" y2="307.2266"/><line style="stroke:#181818;stroke-width:1.0;" x1="291.5" x2="332.5" y1="307.2266" y2="307.2266"/><polygon fill="#181818" points="301.5,303.2266,291.5,307.2266,301.5,311.2266,297.5,307.2266" style="stroke:#181818;stroke-width:1.0;"/><text fill="#000000" font-family="sans-serif" font-size="13" font-weight="bold" lengthAdjust="spacing" textLength="9" x="297.5" y="289.1606">5</text><text fill="#000000" font-family="sans-serif" font-size="13" lengthAdjust="spacing" textLength="157" x="310.5" y="289.1606">Display error notification</text><line style="stroke:#000000;stroke-width:1.0;stroke-dasharray:2.0,2.0;" x1="10" x2="799.5" y1="316.2266" y2="316.2266"/><text fill="#000000" font-family="sans-serif" font-size="11" font-weight="bold" lengthAdjust="spacing" textLength="78" x="15" y="326.437">[Valid data]</text><polygon fill="#181818" points="278.5,347.1641,288.5,351.1641,278.5,355.1641,282.5,351.1641" style="stroke:#181818;stroke-width:1.0;"/><line style="stroke:#181818;stroke-width:1.0;" x1="47" x2="284.5" y1="351.1641" y2="351.1641"/><text fill="#000000" font-family="sans-serif" font-size="13" font-weight="bold" lengthAdjust="spacing" textLength="9" x="54" y="346.0981">6</text><text fill="#000000" font-family="sans-serif" font-size="13" lengthAdjust="spacing" textLength="191" x="67" y="346.0981">Click button "Save" to confirm</text><polygon fill="#181818" points="497.5,376.2969,507.5,380.2969,497.5,384.2969,501.5,380.2969" style="stroke:#181818;stroke-width:1.0;"/><line style="stroke:#181818;stroke-width:1.0;" x1="290.5" x2="503.5" y1="380.2969" y2="380.2969"/><text fill="#000000" font-family="sans-serif" font-size="13" font-weight="bold" lengthAdjust="spacing" textLength="9" x="297.5" y="375.231">7</text><text fill="#000000" font-family="sans-serif" font-size="13" lengthAdjust="spacing" textLength="182" x="310.5" y="375.231">Send creating event request</text><polygon fill="#181818" points="670.5,405.4297,680.5,409.4297,670.5,413.4297,674.5,409.4297" style="stroke:#181818;stroke-width:1.0;"/><line style="stroke:#181818;stroke-width:1.0;" x1="509.5" x2="676.5" y1="409.4297" y2="409.4297"/><text fill="#000000" font-family="sans-serif" font-size="13" font-weight="bold" lengthAdjust="spacing" textLength="9" x="516.5" y="404.3638">8</text><text fill="#000000" font-family="sans-serif" font-size="13" lengthAdjust="spacing" textLength="110" x="529.5" y="404.3638">Send information</text><line style="stroke:#181818;stroke-width:1.0;" x1="682.5" x2="724.5" y1="438.5625" y2="438.5625"/><line style="stroke:#181818;stroke-width:1.0;" x1="724.5" x2="724.5" y1="438.5625" y2="451.5625"/><line style="stroke:#181818;stroke-width:1.0;" x1="683.5" x2="724.5" y1="451.5625" y2="451.5625"/><polygon fill="#181818" points="693.5,447.5625,683.5,451.5625,693.5,455.5625,689.5,451.5625" style="stroke:#181818;stroke-width:1.0;"/><text fill="#000000" font-family="sans-serif" font-size="13" font-weight="bold" lengthAdjust="spacing" textLength="9" x="689.5" y="433.4966">9</text><text fill="#000000" font-family="sans-serif" font-size="13" lengthAdjust="spacing" textLength="85" x="702.5" y="433.4966">Validate data</text><path d="M74,466.5625 L140,466.5625 L140,473.6953 L130,483.6953 L74,483.6953 L74,466.5625 " fill="#EEEEEE" style="stroke:#000000;stroke-width:1.5;"/><rect fill="none" height="304" style="stroke:#000000;stroke-width:1.5;" width="715.5" x="74" y="466.5625"/><text fill="#000000" font-family="sans-serif" font-size="13" font-weight="bold" lengthAdjust="spacing" textLength="21" x="89" y="479.6294">alt</text><text fill="#000000" font-family="sans-serif" font-size="11" font-weight="bold" lengthAdjust="spacing" textLength="88" x="155" y="478.7729">[Invalid data]</text><polygon fill="#181818" points="520.5,500.8281,510.5,504.8281,520.5,508.8281,516.5,504.8281" style="stroke:#181818;stroke-width:1.0;"/><line style="stroke:#181818;stroke-width:1.0;stroke-dasharray:2.0,2.0;" x1="514.5" x2="681.5" y1="504.8281" y2="504.8281"/><text fill="#000000" font-family="sans-serif" font-size="13" font-weight="bold" lengthAdjust="spacing" textLength="19" x="526.5" y="499.7622">10</text><text fill="#000000" font-family="sans-serif" font-size="13" lengthAdjust="spacing" textLength="106" x="549.5" y="499.7622">Error notification</text><polygon fill="#181818" points="301.5,529.9609,291.5,533.9609,301.5,537.9609,297.5,533.9609" style="stroke:#181818;stroke-width:1.0;"/><line style="stroke:#181818;stroke-width:1.0;stroke-dasharray:2.0,2.0;" x1="295.5" x2="508.5" y1="533.9609" y2="533.9609"/><text fill="#000000" font-family="sans-serif" font-size="13" font-weight="bold" lengthAdjust="spacing" textLength="18" x="307.5" y="528.895">11</text><text fill="#000000" font-family="sans-serif" font-size="13" lengthAdjust="spacing" textLength="106" x="329.5" y="528.895">Error notification</text><line style="stroke:#181818;stroke-width:1.0;" x1="290.5" x2="332.5" y1="563.0938" y2="563.0938"/><line style="stroke:#181818;stroke-width:1.0;" x1="332.5" x2="332.5" y1="563.0938" y2="576.0938"/><line style="stroke:#181818;stroke-width:1.0;" x1="291.5" x2="332.5" y1="576.0938" y2="576.0938"/><polygon fill="#181818" points="301.5,572.0938,291.5,576.0938,301.5,580.0938,297.5,576.0938" style="stroke:#181818;stroke-width:1.0;"/><text fill="#000000" font-family="sans-serif" font-size="13" font-weight="bold" lengthAdjust="spacing" textLength="18" x="297.5" y="558.0278">12</text><text fill="#000000" font-family="sans-serif" font-size="13" lengthAdjust="spacing" textLength="157" x="319.5" y="558.0278">Display error notification</text><line style="stroke:#000000;stroke-width:1.0;stroke-dasharray:2.0,2.0;" x1="74" x2="789.5" y1="585.0938" y2="585.0938"/><text fill="#000000" font-family="sans-serif" font-size="11" font-weight="bold" lengthAdjust="spacing" textLength="78" x="79" y="595.3042">[Valid data]</text><line style="stroke:#181818;stroke-width:1.0;" x1="682.5" x2="724.5" y1="620.0313" y2="620.0313"/><line style="stroke:#181818;stroke-width:1.0;" x1="724.5" x2="724.5" y1="620.0313" y2="633.0313"/><line style="stroke:#181818;stroke-width:1.0;" x1="683.5" x2="724.5" y1="633.0313" y2="633.0313"/><polygon fill="#181818" points="693.5,629.0313,683.5,633.0313,693.5,637.0313,689.5,633.0313" style="stroke:#181818;stroke-width:1.0;"/><text fill="#000000" font-family="sans-serif" font-size="13" font-weight="bold" lengthAdjust="spacing" textLength="17" x="689.5" y="614.9653">13</text><text fill="#000000" font-family="sans-serif" font-size="13" lengthAdjust="spacing" textLength="67" x="710.5" y="614.9653">Store data</text><polygon fill="#181818" points="520.5,658.1641,510.5,662.1641,520.5,666.1641,516.5,662.1641" style="stroke:#181818;stroke-width:1.0;"/><line style="stroke:#181818;stroke-width:1.0;stroke-dasharray:2.0,2.0;" x1="514.5" x2="681.5" y1="662.1641" y2="662.1641"/><text fill="#000000" font-family="sans-serif" font-size="13" font-weight="bold" lengthAdjust="spacing" textLength="18" x="526.5" y="657.0981">14</text><text fill="#000000" font-family="sans-serif" font-size="13" lengthAdjust="spacing" textLength="127" x="548.5" y="657.0981">Success notification</text><polygon fill="#181818" points="301.5,687.2969,291.5,691.2969,301.5,695.2969,297.5,691.2969" style="stroke:#181818;stroke-width:1.0;"/><line style="stroke:#181818;stroke-width:1.0;stroke-dasharray:2.0,2.0;" x1="295.5" x2="508.5" y1="691.2969" y2="691.2969"/><text fill="#000000" font-family="sans-serif" font-size="13" font-weight="bold" lengthAdjust="spacing" textLength="18" x="307.5" y="686.231">15</text><text fill="#000000" font-family="sans-serif" font-size="13" lengthAdjust="spacing" textLength="127" x="329.5" y="686.231">Success notification</text><line style="stroke:#181818;stroke-width:1.0;" x1="290.5" x2="332.5" y1="720.4297" y2="720.4297"/><line style="stroke:#181818;stroke-width:1.0;" x1="332.5" x2="332.5" y1="720.4297" y2="733.4297"/><line style="stroke:#181818;stroke-width:1.0;" x1="291.5" x2="332.5" y1="733.4297" y2="733.4297"/><polygon fill="#181818" points="301.5,729.4297,291.5,733.4297,301.5,737.4297,297.5,733.4297" style="stroke:#181818;stroke-width:1.0;"/><text fill="#000000" font-family="sans-serif" font-size="13" font-weight="bold" lengthAdjust="spacing" textLength="18" x="297.5" y="715.3638">16</text><text fill="#000000" font-family="sans-serif" font-size="13" lengthAdjust="spacing" textLength="69" x="319.5" y="715.3638">Close view</text><polygon fill="#181818" points="162,758.5625,152,762.5625,162,766.5625,158,762.5625" style="stroke:#181818;stroke-width:1.0;"/><line style="stroke:#181818;stroke-width:1.0;" x1="156" x2="508.5" y1="762.5625" y2="762.5625"/><text fill="#000000" font-family="sans-serif" font-size="13" font-weight="bold" lengthAdjust="spacing" textLength="18" x="168" y="757.4966">17</text><text fill="#000000" font-family="sans-serif" font-size="13" lengthAdjust="spacing" textLength="292" x="190" y="757.4966">Display success notification and list of events</text><!--SRC=[hLJBReCm4BpxArRS-mCvv4AG6gcjAb7bb8k19R5gxDHUIFFtNU8e91JoKZWWl8zXF3jQMPCrTPMX4sjL89JMKcP_XP0vMGUVqg4XaTdQ5DBj88hNIXT9my6bUPT6hh3YxuN2RGJIGvS-JuuWp4rfNIL9MJC0qSkAt1foLfzKn26YcJsV5EqWVfs_pP95yl4bn2WIl4p7VpE1cV8RBNUmLRI6fS5gmy2ggn91bIieYI5qW6tkj1dWOLuBgLKX2O5VKaXDC3TD6mi1uES2D6C7tapDEPwjiQHAbOShNMc-II_y3ulQO-3TSRn9lLYh_1kocjYU4AMomGZ80bkWLAwwXsxdaGcaQ0h87NAfMHrcu_2dHayzoAvhZtPqrG7Zr0txncD1l_nyQ6tjuE3w8ADN69dTEFihBhq5xcbsQ667B75PmfGt4JuWLLhdENh_FB5k1BnFhbXR5gHf5znbRjFHxTffxWSOWcJ3QkK9R1ayxyCWJC5Ri_W3]--></g></svg>