<?xml version="1.0" encoding="us-ascii" standalone="no"?><svg xmlns="http://www.w3.org/2000/svg" xmlns:xlink="http://www.w3.org/1999/xlink" contentStyleType="text/css" height="804px" preserveAspectRatio="none" style="width:781px;height:804px;background:#FFFFFF;" version="1.1" viewBox="0 0 781 804" width="781px" zoomAndPan="magnify"><defs/><g><rect fill="none" height="551.8672" style="stroke:#000000;stroke-width:1.5;" width="764" x="10" y="228.7969"/><rect fill="none" height="290" style="stroke:#000000;stroke-width:1.5;" width="656" x="108" y="483.6641"/><line style="stroke:#181818;stroke-width:0.5;stroke-dasharray:5.0,5.0;" x1="47" x2="47" y1="81.2969" y2="797.6641"/><line style="stroke:#181818;stroke-width:0.5;stroke-dasharray:5.0,5.0;" x1="224" x2="224" y1="81.2969" y2="797.6641"/><line style="stroke:#181818;stroke-width:0.5;stroke-dasharray:5.0,5.0;" x1="469.5" x2="469.5" y1="81.2969" y2="797.6641"/><line style="stroke:#181818;stroke-width:0.5;stroke-dasharray:5.0,5.0;" x1="648" x2="648" y1="81.2969" y2="797.6641"/><text fill="#000000" font-family="sans-serif" font-size="14" lengthAdjust="spacing" textLength="48" x="20" y="77.9951">Parent</text><ellipse cx="47" cy="13.5" fill="#E2E2F0" rx="8" ry="8" style="stroke:#181818;stroke-width:0.5;"/><path d="M47,21.5 L47,48.5 M34,29.5 L60,29.5 M47,48.5 L34,63.5 M47,48.5 L60,63.5 " fill="none" style="stroke:#181818;stroke-width:0.5;"/><text fill="#000000" font-family="sans-serif" font-size="14" lengthAdjust="spacing" textLength="206" x="118" y="77.9951">ChildEventManagementView</text><path d="M203.5,37 L203.5,61 M203.5,49 L220.5,49 " fill="none" style="stroke:#181818;stroke-width:0.5;"/><ellipse cx="232.5" cy="49" fill="#E2E2F0" rx="12" ry="12" style="stroke:#181818;stroke-width:0.5;"/><text fill="#000000" font-family="sans-serif" font-size="14" lengthAdjust="spacing" textLength="151" x="391.5" y="77.9951">ChildEventController</text><ellipse cx="470" cy="49" fill="#E2E2F0" rx="12" ry="12" style="stroke:#181818;stroke-width:0.5;"/><polygon fill="#181818" points="466,37,472,32,470,37,472,42,466,37" style="stroke:#181818;stroke-width:1.0;"/><text fill="#000000" font-family="sans-serif" font-size="14" lengthAdjust="spacing" textLength="90" x="600" y="77.9951">CHILDEVENT</text><ellipse cx="648" cy="49" fill="#E2E2F0" rx="12" ry="12" style="stroke:#181818;stroke-width:0.5;"/><line style="stroke:#181818;stroke-width:0.5;" x1="636" x2="660" y1="63" y2="63"/><rect fill="none" height="39.1016" style="stroke:#000000;stroke-width:1.5;" width="682" x="17" y="91.2969"/><path d="M17,91.2969 L85,91.2969 L85,98.2969 L75,108.2969 L17,108.2969 L17,91.2969 " fill="#EEEEEE" style="stroke:#000000;stroke-width:2.0;"/><text fill="#000000" font-family="sans-serif" font-size="13" font-weight="bold" lengthAdjust="spacing" textLength="23" x="30" y="105.3638">ref</text><text fill="#000000" font-family="sans-serif" font-size="12" lengthAdjust="spacing" textLength="173" x="271.5" y="123.4355">Sequence Search ChildEvent</text><polygon fill="#181818" points="212,167.6641,222,171.6641,212,175.6641,216,171.6641" style="stroke:#181818;stroke-width:1.0;"/><line style="stroke:#181818;stroke-width:1.0;" x1="47" x2="218" y1="171.6641" y2="171.6641"/><text fill="#000000" font-family="sans-serif" font-size="13" font-weight="bold" lengthAdjust="spacing" textLength="9" x="54" y="159.0317">1</text><text fill="#000000" font-family="sans-serif" font-size="13" lengthAdjust="spacing" textLength="80" x="67" y="151.4653">Select event</text><text fill="#000000" font-family="sans-serif" font-size="13" lengthAdjust="spacing" textLength="94" x="71" y="166.5981">needs deleting</text><line style="stroke:#181818;stroke-width:1.0;" x1="224" x2="266" y1="200.7969" y2="200.7969"/><line style="stroke:#181818;stroke-width:1.0;" x1="266" x2="266" y1="200.7969" y2="213.7969"/><line style="stroke:#181818;stroke-width:1.0;" x1="225" x2="266" y1="213.7969" y2="213.7969"/><polygon fill="#181818" points="235,209.7969,225,213.7969,235,217.7969,231,213.7969" style="stroke:#181818;stroke-width:1.0;"/><text fill="#000000" font-family="sans-serif" font-size="13" font-weight="bold" lengthAdjust="spacing" textLength="9" x="231" y="195.731">2</text><text fill="#000000" font-family="sans-serif" font-size="13" lengthAdjust="spacing" textLength="219" x="244" y="195.731">Display confirmation messagebox</text><path d="M10,228.7969 L76,228.7969 L76,235.9297 L66,245.9297 L10,245.9297 L10,228.7969 " fill="#EEEEEE" style="stroke:#000000;stroke-width:1.5;"/><rect fill="none" height="551.8672" style="stroke:#000000;stroke-width:1.5;" width="764" x="10" y="228.7969"/><text fill="#000000" font-family="sans-serif" font-size="13" font-weight="bold" lengthAdjust="spacing" textLength="21" x="25" y="241.8638">alt</text><text fill="#000000" font-family="sans-serif" font-size="11" font-weight="bold" lengthAdjust="spacing" textLength="54" x="91" y="241.0073">[Cancel]</text><polygon fill="#181818" points="212,263.0625,222,267.0625,212,271.0625,216,267.0625" style="stroke:#181818;stroke-width:1.0;"/><line style="stroke:#181818;stroke-width:1.0;" x1="47" x2="218" y1="267.0625" y2="267.0625"/><text fill="#000000" font-family="sans-serif" font-size="13" font-weight="bold" lengthAdjust="spacing" textLength="8" x="54" y="261.9966">3</text><text fill="#000000" font-family="sans-serif" font-size="13" lengthAdjust="spacing" textLength="132" x="66" y="261.9966">Click "Cancel" button</text><line style="stroke:#181818;stroke-width:1.0;" x1="224" x2="266" y1="296.1953" y2="296.1953"/><line style="stroke:#181818;stroke-width:1.0;" x1="266" x2="266" y1="296.1953" y2="309.1953"/><line style="stroke:#181818;stroke-width:1.0;" x1="225" x2="266" y1="309.1953" y2="309.1953"/><polygon fill="#181818" points="235,305.1953,225,309.1953,235,313.1953,231,309.1953" style="stroke:#181818;stroke-width:1.0;"/><text fill="#000000" font-family="sans-serif" font-size="13" font-weight="bold" lengthAdjust="spacing" textLength="9" x="231" y="291.1294">4</text><text fill="#000000" font-family="sans-serif" font-size="13" lengthAdjust="spacing" textLength="211" x="244" y="291.1294">Close confirmation message box</text><line style="stroke:#000000;stroke-width:1.0;stroke-dasharray:2.0,2.0;" x1="10" x2="774" y1="318.1953" y2="318.1953"/><text fill="#000000" font-family="sans-serif" font-size="11" font-weight="bold" lengthAdjust="spacing" textLength="65" x="15" y="328.4058">[Confirm]</text><polygon fill="#181818" points="212,349.1328,222,353.1328,212,357.1328,216,353.1328" style="stroke:#181818;stroke-width:1.0;"/><line style="stroke:#181818;stroke-width:1.0;" x1="47" x2="218" y1="353.1328" y2="353.1328"/><text fill="#000000" font-family="sans-serif" font-size="13" font-weight="bold" lengthAdjust="spacing" textLength="9" x="54" y="348.0669">5</text><text fill="#000000" font-family="sans-serif" font-size="13" lengthAdjust="spacing" textLength="140" x="67" y="348.0669">Click "Confirm" button</text><polygon fill="#181818" points="458,393.3984,468,397.3984,458,401.3984,462,397.3984" style="stroke:#181818;stroke-width:1.0;"/><line style="stroke:#181818;stroke-width:1.0;" x1="224" x2="464" y1="397.3984" y2="397.3984"/><text fill="#000000" font-family="sans-serif" font-size="13" font-weight="bold" lengthAdjust="spacing" textLength="9" x="231" y="384.7661">6</text><text fill="#000000" font-family="sans-serif" font-size="13" lengthAdjust="spacing" textLength="87" x="244" y="377.1997">Send deleting</text><text fill="#000000" font-family="sans-serif" font-size="13" lengthAdjust="spacing" textLength="148" x="244" y="392.3325">selected event request</text><polygon fill="#181818" points="636,422.5313,646,426.5313,636,430.5313,640,426.5313" style="stroke:#181818;stroke-width:1.0;"/><line style="stroke:#181818;stroke-width:1.0;" x1="470" x2="642" y1="426.5313" y2="426.5313"/><text fill="#000000" font-family="sans-serif" font-size="13" font-weight="bold" lengthAdjust="spacing" textLength="9" x="477" y="421.4653">7</text><text fill="#000000" font-family="sans-serif" font-size="13" lengthAdjust="spacing" textLength="141" x="490" y="421.4653">Delete selected event</text><line style="stroke:#181818;stroke-width:1.0;" x1="648" x2="690" y1="455.6641" y2="455.6641"/><line style="stroke:#181818;stroke-width:1.0;" x1="690" x2="690" y1="455.6641" y2="468.6641"/><line style="stroke:#181818;stroke-width:1.0;" x1="649" x2="690" y1="468.6641" y2="468.6641"/><polygon fill="#181818" points="659,464.6641,649,468.6641,659,472.6641,655,468.6641" style="stroke:#181818;stroke-width:1.0;"/><text fill="#000000" font-family="sans-serif" font-size="13" font-weight="bold" lengthAdjust="spacing" textLength="9" x="655" y="450.5981">8</text><text fill="#000000" font-family="sans-serif" font-size="13" lengthAdjust="spacing" textLength="85" x="668" y="450.5981">Validate data</text><path d="M108,483.6641 L174,483.6641 L174,490.7969 L164,500.7969 L108,500.7969 L108,483.6641 " fill="#EEEEEE" style="stroke:#000000;stroke-width:1.5;"/><rect fill="none" height="290" style="stroke:#000000;stroke-width:1.5;" width="656" x="108" y="483.6641"/><text fill="#000000" font-family="sans-serif" font-size="13" font-weight="bold" lengthAdjust="spacing" textLength="21" x="123" y="496.731">alt</text><text fill="#000000" font-family="sans-serif" font-size="11" font-weight="bold" lengthAdjust="spacing" textLength="88" x="189" y="495.8745">[Invalid data]</text><polygon fill="#181818" points="481,517.9297,471,521.9297,481,525.9297,477,521.9297" style="stroke:#181818;stroke-width:1.0;"/><line style="stroke:#181818;stroke-width:1.0;stroke-dasharray:2.0,2.0;" x1="475" x2="647" y1="521.9297" y2="521.9297"/><text fill="#000000" font-family="sans-serif" font-size="13" font-weight="bold" lengthAdjust="spacing" textLength="9" x="487" y="516.8638">9</text><text fill="#000000" font-family="sans-serif" font-size="13" lengthAdjust="spacing" textLength="106" x="500" y="516.8638">Error notification</text><polygon fill="#181818" points="235,547.0625,225,551.0625,235,555.0625,231,551.0625" style="stroke:#181818;stroke-width:1.0;"/><line style="stroke:#181818;stroke-width:1.0;stroke-dasharray:2.0,2.0;" x1="229" x2="469" y1="551.0625" y2="551.0625"/><text fill="#000000" font-family="sans-serif" font-size="13" font-weight="bold" lengthAdjust="spacing" textLength="19" x="241" y="545.9966">10</text><text fill="#000000" font-family="sans-serif" font-size="13" lengthAdjust="spacing" textLength="106" x="264" y="545.9966">Error notification</text><line style="stroke:#181818;stroke-width:1.0;" x1="224" x2="266" y1="580.1953" y2="580.1953"/><line style="stroke:#181818;stroke-width:1.0;" x1="266" x2="266" y1="580.1953" y2="593.1953"/><line style="stroke:#181818;stroke-width:1.0;" x1="225" x2="266" y1="593.1953" y2="593.1953"/><polygon fill="#181818" points="235,589.1953,225,593.1953,235,597.1953,231,593.1953" style="stroke:#181818;stroke-width:1.0;"/><text fill="#000000" font-family="sans-serif" font-size="13" font-weight="bold" lengthAdjust="spacing" textLength="18" x="231" y="575.1294">11</text><text fill="#000000" font-family="sans-serif" font-size="13" lengthAdjust="spacing" textLength="157" x="253" y="575.1294">Display error notification</text><line style="stroke:#000000;stroke-width:1.0;stroke-dasharray:2.0,2.0;" x1="108" x2="764" y1="602.1953" y2="602.1953"/><text fill="#000000" font-family="sans-serif" font-size="11" font-weight="bold" lengthAdjust="spacing" textLength="78" x="113" y="612.4058">[Valid data]</text><line style="stroke:#181818;stroke-width:1.0;" x1="648" x2="690" y1="637.1328" y2="637.1328"/><line style="stroke:#181818;stroke-width:1.0;" x1="690" x2="690" y1="637.1328" y2="650.1328"/><line style="stroke:#181818;stroke-width:1.0;" x1="649" x2="690" y1="650.1328" y2="650.1328"/><polygon fill="#181818" points="659,646.1328,649,650.1328,659,654.1328,655,650.1328" style="stroke:#181818;stroke-width:1.0;"/><text fill="#000000" font-family="sans-serif" font-size="13" font-weight="bold" lengthAdjust="spacing" textLength="18" x="655" y="632.0669">12</text><text fill="#000000" font-family="sans-serif" font-size="13" lengthAdjust="spacing" textLength="75" x="677" y="632.0669">Delete data</text><polygon fill="#181818" points="481,675.2656,471,679.2656,481,683.2656,477,679.2656" style="stroke:#181818;stroke-width:1.0;"/><line style="stroke:#181818;stroke-width:1.0;stroke-dasharray:2.0,2.0;" x1="475" x2="647" y1="679.2656" y2="679.2656"/><text fill="#000000" font-family="sans-serif" font-size="13" font-weight="bold" lengthAdjust="spacing" textLength="17" x="487" y="674.1997">13</text><text fill="#000000" font-family="sans-serif" font-size="13" lengthAdjust="spacing" textLength="127" x="508" y="674.1997">Success notification</text><polygon fill="#181818" points="235,704.3984,225,708.3984,235,712.3984,231,708.3984" style="stroke:#181818;stroke-width:1.0;"/><line style="stroke:#181818;stroke-width:1.0;stroke-dasharray:2.0,2.0;" x1="229" x2="469" y1="708.3984" y2="708.3984"/><text fill="#000000" font-family="sans-serif" font-size="13" font-weight="bold" lengthAdjust="spacing" textLength="18" x="241" y="703.3325">14</text><text fill="#000000" font-family="sans-serif" font-size="13" lengthAdjust="spacing" textLength="106" x="263" y="703.3325">Error notification</text><line style="stroke:#181818;stroke-width:1.0;" x1="224" x2="266" y1="752.6641" y2="752.6641"/><line style="stroke:#181818;stroke-width:1.0;" x1="266" x2="266" y1="752.6641" y2="765.6641"/><line style="stroke:#181818;stroke-width:1.0;" x1="225" x2="266" y1="765.6641" y2="765.6641"/><polygon fill="#181818" points="235,761.6641,225,765.6641,235,769.6641,231,765.6641" style="stroke:#181818;stroke-width:1.0;"/><text fill="#000000" font-family="sans-serif" font-size="13" font-weight="bold" lengthAdjust="spacing" textLength="18" x="231" y="740.0317">15</text><text fill="#000000" font-family="sans-serif" font-size="13" lengthAdjust="spacing" textLength="177" x="253" y="732.4653">Display success notification</text><text fill="#000000" font-family="sans-serif" font-size="13" lengthAdjust="spacing" textLength="111" x="253" y="747.5981">and list of events</text><!--SRC=[pLH1JiCm4Bpx5QkUomSuS4aZKGaGKb5ElJZsfhLmrc0xXVwUTIoQKYLLsnCvHCbwPpoUsKHsqL7NrkZ5rcY4nhbOksyXf8hEmwlqI57KhYCj_HwAhR6wt77jMPBSOCjFbS4leHn5x-nHGv4hbfdvpKG6FowV5cLLlhm9uR41jyFV7UQJpFDHolaHsJsiyBD3KiWFqglj4K9aUhXxcDmWmIsg29ZMrWI4g0DeBaP36p65Ey-vCE73oZsmButnhOp64RGO0dSbVwMDK4ZMR044y7M9qC8QzGwpZ9j1tKKEhqVV9hAmBk2eH4WQqV9gaLUlrfXXDuWSGax9a3uaiQRG1uKwHmK-nHxY2VU0xtcFncIHY13-icJqeUiKKqbhj6GKtsJVcv9RqYxLX-8foUI9Ik_vio8NJMDKR_c07pt2MRClOhjbR76Sk9-8wlpHHps_tgXLfnJFul-tAem8NPFamRKcH71DdhEG3IJDVqFz0m00]--></g></svg>