<?xml version="1.0" encoding="us-ascii" standalone="no"?><svg xmlns="http://www.w3.org/2000/svg" xmlns:xlink="http://www.w3.org/1999/xlink" contentStyleType="text/css" height="567px" preserveAspectRatio="none" style="width:560px;height:567px;background:#FFFFFF;" version="1.1" viewBox="0 0 560 567" width="560px" zoomAndPan="magnify"><defs/><g><rect fill="none" height="61.2344" style="stroke:#000000;stroke-width:1.5;" width="544" x="10" y="256.9609"/><rect fill="none" height="61.2344" style="stroke:#000000;stroke-width:1.5;" width="544" x="10" y="332.1953"/><rect fill="none" height="61.2344" style="stroke:#000000;stroke-width:1.5;" width="544" x="10" y="407.4297"/><rect fill="none" height="61.2344" style="stroke:#000000;stroke-width:1.5;" width="544" x="10" y="482.6641"/><line style="stroke:#181818;stroke-width:0.5;stroke-dasharray:5.0,5.0;" x1="47" x2="47" y1="81.2969" y2="560.8984"/><line style="stroke:#181818;stroke-width:0.5;stroke-dasharray:5.0,5.0;" x1="188" x2="188" y1="81.2969" y2="560.8984"/><line style="stroke:#181818;stroke-width:0.5;stroke-dasharray:5.0,5.0;" x1="348.5" x2="348.5" y1="81.2969" y2="560.8984"/><line style="stroke:#181818;stroke-width:0.5;stroke-dasharray:5.0,5.0;" x1="496" x2="496" y1="81.2969" y2="560.8984"/><text fill="#000000" font-family="sans-serif" font-size="14" lengthAdjust="spacing" textLength="48" x="20" y="77.9951">Parent</text><ellipse cx="47" cy="13.5" fill="#E2E2F0" rx="8" ry="8" style="stroke:#181818;stroke-width:0.5;"/><path d="M47,21.5 L47,48.5 M34,29.5 L60,29.5 M47,48.5 L34,63.5 M47,48.5 L60,63.5 " fill="none" style="stroke:#181818;stroke-width:0.5;"/><text fill="#000000" font-family="sans-serif" font-size="14" lengthAdjust="spacing" textLength="78" x="146" y="61.6982">ChildEvent</text><text fill="#000000" font-family="sans-serif" font-size="14" lengthAdjust="spacing" textLength="128" x="121" y="77.9951">ManagementView</text><path d="M167.5,20.7031 L167.5,44.7031 M167.5,32.7031 L184.5,32.7031 " fill="none" style="stroke:#181818;stroke-width:0.5;"/><ellipse cx="196.5" cy="32.7031" fill="#E2E2F0" rx="12" ry="12" style="stroke:#181818;stroke-width:0.5;"/><text fill="#000000" font-family="sans-serif" font-size="14" lengthAdjust="spacing" textLength="151" x="270.5" y="77.9951">ChildEventController</text><ellipse cx="349" cy="49" fill="#E2E2F0" rx="12" ry="12" style="stroke:#181818;stroke-width:0.5;"/><polygon fill="#181818" points="345,37,351,32,349,37,351,42,345,37" style="stroke:#181818;stroke-width:1.0;"/><text fill="#000000" font-family="sans-serif" font-size="14" lengthAdjust="spacing" textLength="90" x="448" y="77.9951">CHILDEVENT</text><ellipse cx="496" cy="49" fill="#E2E2F0" rx="12" ry="12" style="stroke:#181818;stroke-width:0.5;"/><line style="stroke:#181818;stroke-width:0.5;" x1="484" x2="508" y1="63" y2="63"/><polygon fill="#181818" points="484,108.4297,494,112.4297,484,116.4297,488,112.4297" style="stroke:#181818;stroke-width:1.0;"/><line style="stroke:#181818;stroke-width:1.0;" x1="349" x2="490" y1="112.4297" y2="112.4297"/><text fill="#000000" font-family="sans-serif" font-size="13" font-weight="bold" lengthAdjust="spacing" textLength="9" x="356" y="107.3638">1</text><text fill="#000000" font-family="sans-serif" font-size="13" lengthAdjust="spacing" textLength="110" x="369" y="107.3638">Get list of events</text><polygon fill="#181818" points="360,137.5625,350,141.5625,360,145.5625,356,141.5625" style="stroke:#181818;stroke-width:1.0;"/><line style="stroke:#181818;stroke-width:1.0;stroke-dasharray:2.0,2.0;" x1="354" x2="495" y1="141.5625" y2="141.5625"/><text fill="#000000" font-family="sans-serif" font-size="13" font-weight="bold" lengthAdjust="spacing" textLength="9" x="366" y="136.4966">2</text><text fill="#000000" font-family="sans-serif" font-size="13" lengthAdjust="spacing" textLength="87" x="379" y="136.4966">List of events</text><polygon fill="#181818" points="199,166.6953,189,170.6953,199,174.6953,195,170.6953" style="stroke:#181818;stroke-width:1.0;"/><line style="stroke:#181818;stroke-width:1.0;stroke-dasharray:2.0,2.0;" x1="193" x2="348" y1="170.6953" y2="170.6953"/><text fill="#000000" font-family="sans-serif" font-size="13" font-weight="bold" lengthAdjust="spacing" textLength="8" x="205" y="165.6294">3</text><text fill="#000000" font-family="sans-serif" font-size="13" lengthAdjust="spacing" textLength="87" x="217" y="165.6294">List of events</text><line style="stroke:#181818;stroke-width:1.0;" x1="188" x2="230" y1="199.8281" y2="199.8281"/><line style="stroke:#181818;stroke-width:1.0;" x1="230" x2="230" y1="199.8281" y2="212.8281"/><line style="stroke:#181818;stroke-width:1.0;" x1="189" x2="230" y1="212.8281" y2="212.8281"/><polygon fill="#181818" points="199,208.8281,189,212.8281,199,216.8281,195,212.8281" style="stroke:#181818;stroke-width:1.0;"/><text fill="#000000" font-family="sans-serif" font-size="13" font-weight="bold" lengthAdjust="spacing" textLength="9" x="195" y="194.7622">4</text><text fill="#000000" font-family="sans-serif" font-size="13" lengthAdjust="spacing" textLength="134" x="208" y="194.7622">Display list of events</text><polygon fill="#181818" points="176,237.9609,186,241.9609,176,245.9609,180,241.9609" style="stroke:#181818;stroke-width:1.0;"/><line style="stroke:#181818;stroke-width:1.0;" x1="47" x2="182" y1="241.9609" y2="241.9609"/><text fill="#000000" font-family="sans-serif" font-size="13" font-weight="bold" lengthAdjust="spacing" textLength="9" x="54" y="236.895">5</text><text fill="#000000" font-family="sans-serif" font-size="13" lengthAdjust="spacing" textLength="104" x="67" y="236.895">Choose function</text><path d="M10,256.9609 L82,256.9609 L82,264.0938 L72,274.0938 L10,274.0938 L10,256.9609 " fill="#EEEEEE" style="stroke:#000000;stroke-width:1.5;"/><rect fill="none" height="61.2344" style="stroke:#000000;stroke-width:1.5;" width="544" x="10" y="256.9609"/><text fill="#000000" font-family="sans-serif" font-size="13" font-weight="bold" lengthAdjust="spacing" textLength="27" x="25" y="270.0278">opt</text><text fill="#000000" font-family="sans-serif" font-size="11" font-weight="bold" lengthAdjust="spacing" textLength="56" x="97" y="269.1714">[Create]</text><rect fill="none" height="39.1016" style="stroke:#000000;stroke-width:1.5;" width="530" x="17" y="274.0938"/><path d="M17,274.0938 L85,274.0938 L85,281.0938 L75,291.0938 L17,291.0938 L17,274.0938 " fill="#EEEEEE" style="stroke:#000000;stroke-width:2.0;"/><text fill="#000000" font-family="sans-serif" font-size="13" font-weight="bold" lengthAdjust="spacing" textLength="23" x="30" y="288.1606">ref</text><text fill="#000000" font-family="sans-serif" font-size="12" lengthAdjust="spacing" textLength="169" x="197.5" y="306.2324">Sequence Insert Child Event</text><path d="M10,332.1953 L82,332.1953 L82,339.3281 L72,349.3281 L10,349.3281 L10,332.1953 " fill="#EEEEEE" style="stroke:#000000;stroke-width:1.5;"/><rect fill="none" height="61.2344" style="stroke:#000000;stroke-width:1.5;" width="544" x="10" y="332.1953"/><text fill="#000000" font-family="sans-serif" font-size="13" font-weight="bold" lengthAdjust="spacing" textLength="27" x="25" y="345.2622">opt</text><text fill="#000000" font-family="sans-serif" font-size="11" font-weight="bold" lengthAdjust="spacing" textLength="58" x="97" y="344.4058">[Update]</text><rect fill="none" height="39.1016" style="stroke:#000000;stroke-width:1.5;" width="530" x="17" y="349.3281"/><path d="M17,349.3281 L85,349.3281 L85,356.3281 L75,366.3281 L17,366.3281 L17,349.3281 " fill="#EEEEEE" style="stroke:#000000;stroke-width:2.0;"/><text fill="#000000" font-family="sans-serif" font-size="13" font-weight="bold" lengthAdjust="spacing" textLength="23" x="30" y="363.395">ref</text><text fill="#000000" font-family="sans-serif" font-size="12" lengthAdjust="spacing" textLength="179" x="192.5" y="381.4668">Sequence Update Child Event</text><path d="M10,407.4297 L82,407.4297 L82,414.5625 L72,424.5625 L10,424.5625 L10,407.4297 " fill="#EEEEEE" style="stroke:#000000;stroke-width:1.5;"/><rect fill="none" height="61.2344" style="stroke:#000000;stroke-width:1.5;" width="544" x="10" y="407.4297"/><text fill="#000000" font-family="sans-serif" font-size="13" font-weight="bold" lengthAdjust="spacing" textLength="27" x="25" y="420.4966">opt</text><text fill="#000000" font-family="sans-serif" font-size="11" font-weight="bold" lengthAdjust="spacing" textLength="54" x="97" y="419.6401">[Delete]</text><rect fill="none" height="39.1016" style="stroke:#000000;stroke-width:1.5;" width="530" x="17" y="424.5625"/><path d="M17,424.5625 L85,424.5625 L85,431.5625 L75,441.5625 L17,441.5625 L17,424.5625 " fill="#EEEEEE" style="stroke:#000000;stroke-width:2.0;"/><text fill="#000000" font-family="sans-serif" font-size="13" font-weight="bold" lengthAdjust="spacing" textLength="23" x="30" y="438.6294">ref</text><text fill="#000000" font-family="sans-serif" font-size="12" lengthAdjust="spacing" textLength="175" x="194.5" y="456.7012">Sequence Delete Child Event</text><path d="M10,482.6641 L82,482.6641 L82,489.7969 L72,499.7969 L10,499.7969 L10,482.6641 " fill="#EEEEEE" style="stroke:#000000;stroke-width:1.5;"/><rect fill="none" height="61.2344" style="stroke:#000000;stroke-width:1.5;" width="544" x="10" y="482.6641"/><text fill="#000000" font-family="sans-serif" font-size="13" font-weight="bold" lengthAdjust="spacing" textLength="27" x="25" y="495.731">opt</text><text fill="#000000" font-family="sans-serif" font-size="11" font-weight="bold" lengthAdjust="spacing" textLength="55" x="97" y="494.8745">[Search]</text><rect fill="none" height="39.1016" style="stroke:#000000;stroke-width:1.5;" width="530" x="17" y="499.7969"/><path d="M17,499.7969 L85,499.7969 L85,506.7969 L75,516.7969 L17,516.7969 L17,499.7969 " fill="#EEEEEE" style="stroke:#000000;stroke-width:2.0;"/><text fill="#000000" font-family="sans-serif" font-size="13" font-weight="bold" lengthAdjust="spacing" textLength="23" x="30" y="513.8638">ref</text><text fill="#000000" font-family="sans-serif" font-size="12" lengthAdjust="spacing" textLength="177" x="193.5" y="531.9355">Sequence Search Child Event</text><!--SRC=[jP71JiCm38RlUGfhv_O5Tk3ILZ1fJ4Y3dRYaZKiZPN59t47Vdem8RQr2RyqfiV___nHR3ansEDVeHASLGal4DNqB8Hic1o_IeMLHqs2LT2DiYauRLLr2yTq-Ioi_y1pk9urV6v0URkrfKpHasP6v4nInOW8vl3IFK3pjzcLrgWwlGgHqa3_SQRRmY0n6UmPg0QzIBsvjoFEhF16pXVtCb6HDtDFVB2HCXR0OKchV6pdE_n1dlcmjEY8VjZNOXZLP8QXdA1nAHW7XE6o1BlYtmEpVg2mvecmovoD-3cWRX9trw3WwuDSILgSY_ArNwy8Z80qlqU2gy0X8muyeNTEj28-0EVm7]--></g></svg>