<?xml version="1.0" encoding="us-ascii" standalone="no"?><svg xmlns="http://www.w3.org/2000/svg" xmlns:xlink="http://www.w3.org/1999/xlink" contentStyleType="text/css" height="383px" preserveAspectRatio="none" style="width:653px;height:383px;background:#FFFFFF;" version="1.1" viewBox="0 0 653 383" width="653px" zoomAndPan="magnify"><defs/><g><line style="stroke:#181818;stroke-width:0.5;stroke-dasharray:5.0,5.0;" x1="32" x2="32" y1="81.2969" y2="376.625"/><line style="stroke:#181818;stroke-width:0.5;stroke-dasharray:5.0,5.0;" x1="203" x2="203" y1="81.2969" y2="376.625"/><line style="stroke:#181818;stroke-width:0.5;stroke-dasharray:5.0,5.0;" x1="397" x2="397" y1="81.2969" y2="376.625"/><line style="stroke:#181818;stroke-width:0.5;stroke-dasharray:5.0,5.0;" x1="554" x2="554" y1="81.2969" y2="376.625"/><text fill="#000000" font-family="sans-serif" font-size="14" lengthAdjust="spacing" textLength="48" x="5" y="77.9951">Parent</text><ellipse cx="32" cy="13.5" fill="#E2E2F0" rx="8" ry="8" style="stroke:#181818;stroke-width:0.5;"/><path d="M32,21.5 L32,48.5 M19,29.5 L45,29.5 M32,48.5 L19,63.5 M32,48.5 L45,63.5 " fill="none" style="stroke:#181818;stroke-width:0.5;"/><text fill="#000000" font-family="sans-serif" font-size="14" lengthAdjust="spacing" textLength="206" x="97" y="77.9951">ChildEventManagementView</text><path d="M182.5,37 L182.5,61 M182.5,49 L199.5,49 " fill="none" style="stroke:#181818;stroke-width:0.5;"/><ellipse cx="211.5" cy="49" fill="#E2E2F0" rx="12" ry="12" style="stroke:#181818;stroke-width:0.5;"/><text fill="#000000" font-family="sans-serif" font-size="14" lengthAdjust="spacing" textLength="151" x="319" y="77.9951">ChildEventController</text><ellipse cx="397.5" cy="49" fill="#E2E2F0" rx="12" ry="12" style="stroke:#181818;stroke-width:0.5;"/><polygon fill="#181818" points="393.5,37,399.5,32,397.5,37,399.5,42,393.5,37" style="stroke:#181818;stroke-width:1.0;"/><text fill="#000000" font-family="sans-serif" font-size="14" lengthAdjust="spacing" textLength="81" x="511" y="77.9951">DOCUMENT</text><ellipse cx="554.5" cy="49" fill="#E2E2F0" rx="12" ry="12" style="stroke:#181818;stroke-width:0.5;"/><line style="stroke:#181818;stroke-width:0.5;" x1="542.5" x2="566.5" y1="63" y2="63"/><polygon fill="#181818" points="191,123.5625,201,127.5625,191,131.5625,195,127.5625" style="stroke:#181818;stroke-width:1.0;"/><line style="stroke:#181818;stroke-width:1.0;" x1="32" x2="197" y1="127.5625" y2="127.5625"/><text fill="#000000" font-family="sans-serif" font-size="13" font-weight="bold" lengthAdjust="spacing" textLength="9" x="39" y="114.9302">1</text><text fill="#000000" font-family="sans-serif" font-size="13" lengthAdjust="spacing" textLength="113" x="52" y="107.3638">Enters the search</text><text fill="#000000" font-family="sans-serif" font-size="13" lengthAdjust="spacing" textLength="134" x="52" y="122.4966">criteria in search box</text><polygon fill="#181818" points="385.5,167.8281,395.5,171.8281,385.5,175.8281,389.5,171.8281" style="stroke:#181818;stroke-width:1.0;"/><line style="stroke:#181818;stroke-width:1.0;" x1="203" x2="391.5" y1="171.8281" y2="171.8281"/><text fill="#000000" font-family="sans-serif" font-size="13" font-weight="bold" lengthAdjust="spacing" textLength="9" x="210" y="159.1958">2</text><text fill="#000000" font-family="sans-serif" font-size="13" lengthAdjust="spacing" textLength="139" x="223" y="151.6294">Send searching event</text><text fill="#000000" font-family="sans-serif" font-size="13" lengthAdjust="spacing" textLength="127" x="223" y="166.7622">information request</text><polygon fill="#181818" points="542.5,212.0938,552.5,216.0938,542.5,220.0938,546.5,216.0938" style="stroke:#181818;stroke-width:1.0;"/><line style="stroke:#181818;stroke-width:1.0;" x1="397.5" x2="548.5" y1="216.0938" y2="216.0938"/><text fill="#000000" font-family="sans-serif" font-size="13" font-weight="bold" lengthAdjust="spacing" textLength="8" x="404.5" y="203.4614">3</text><text fill="#000000" font-family="sans-serif" font-size="13" lengthAdjust="spacing" textLength="120" x="416.5" y="195.895">Search event base</text><text fill="#000000" font-family="sans-serif" font-size="13" lengthAdjust="spacing" textLength="121" x="416.5" y="211.0278">on given keywords</text><line style="stroke:#181818;stroke-width:1.0;" x1="554.5" x2="596.5" y1="245.2266" y2="245.2266"/><line style="stroke:#181818;stroke-width:1.0;" x1="596.5" x2="596.5" y1="245.2266" y2="258.2266"/><line style="stroke:#181818;stroke-width:1.0;" x1="555.5" x2="596.5" y1="258.2266" y2="258.2266"/><polygon fill="#181818" points="565.5,254.2266,555.5,258.2266,565.5,262.2266,561.5,258.2266" style="stroke:#181818;stroke-width:1.0;"/><text fill="#000000" font-family="sans-serif" font-size="13" font-weight="bold" lengthAdjust="spacing" textLength="9" x="561.5" y="240.1606">4</text><text fill="#000000" font-family="sans-serif" font-size="13" lengthAdjust="spacing" textLength="72" x="574.5" y="240.1606">Query data</text><polygon fill="#181818" points="408.5,283.3594,398.5,287.3594,408.5,291.3594,404.5,287.3594" style="stroke:#181818;stroke-width:1.0;"/><line style="stroke:#181818;stroke-width:1.0;stroke-dasharray:2.0,2.0;" x1="402.5" x2="553.5" y1="287.3594" y2="287.3594"/><text fill="#000000" font-family="sans-serif" font-size="13" font-weight="bold" lengthAdjust="spacing" textLength="9" x="414.5" y="282.2935">5</text><text fill="#000000" font-family="sans-serif" font-size="13" lengthAdjust="spacing" textLength="79" x="427.5" y="282.2935">Query result</text><polygon fill="#181818" points="214,312.4922,204,316.4922,214,320.4922,210,316.4922" style="stroke:#181818;stroke-width:1.0;"/><line style="stroke:#181818;stroke-width:1.0;stroke-dasharray:2.0,2.0;" x1="208" x2="396.5" y1="316.4922" y2="316.4922"/><text fill="#000000" font-family="sans-serif" font-size="13" font-weight="bold" lengthAdjust="spacing" textLength="9" x="220" y="311.4263">6</text><text fill="#000000" font-family="sans-serif" font-size="13" lengthAdjust="spacing" textLength="79" x="233" y="311.4263">Query result</text><line style="stroke:#181818;stroke-width:1.0;" x1="203" x2="245" y1="345.625" y2="345.625"/><line style="stroke:#181818;stroke-width:1.0;" x1="245" x2="245" y1="345.625" y2="358.625"/><line style="stroke:#181818;stroke-width:1.0;" x1="204" x2="245" y1="358.625" y2="358.625"/><polygon fill="#181818" points="214,354.625,204,358.625,214,362.625,210,358.625" style="stroke:#181818;stroke-width:1.0;"/><text fill="#000000" font-family="sans-serif" font-size="13" font-weight="bold" lengthAdjust="spacing" textLength="9" x="210" y="340.5591">7</text><text fill="#000000" font-family="sans-serif" font-size="13" lengthAdjust="spacing" textLength="134" x="223" y="340.5591">Display list of events</text><!--SRC=[VP1DKiCm38NtFeMcUoxG1Piso_8p55RPAB6IQ71aa6rARe_Jj4FBuEviwRrFJy8KlQIn8JK3MuBE-zZuRsEmZLxX2PKaciOdiQWJh3O3ErjzvU8E1NiQy-kDwR02351gcjPBLEyk19kbulBS_ECumVPnyxgh7lR6B4FXxhu8N4CbaJH070W2eRP3BQrohZ42owa6yoObnZN_DyyQNaZiYS3I0ytzMbWwhoD6zW9Adub2DF_vP-vvbvbr379aG8E1Qid-dlCVtcawUBN1dENNrkT4-U8M8ru8Yg4NjL98hfJhva4B_bit-ulOSlXmE87Z4C5tozBX1m00]--></g></svg>