<?xml version="1.0" encoding="us-ascii" standalone="no"?><svg xmlns="http://www.w3.org/2000/svg" xmlns:xlink="http://www.w3.org/1999/xlink" contentStyleType="text/css" height="962px" preserveAspectRatio="none" style="width:926px;height:962px;background:#FFFFFF;" version="1.1" viewBox="0 0 926 962" width="926px" zoomAndPan="magnify"><defs/><g><rect fill="none" height="550.7344" style="stroke:#000000;stroke-width:1.5;" width="909.5" x="10" y="387.4609"/><rect fill="none" height="304" style="stroke:#000000;stroke-width:1.5;" width="792.5" x="110" y="627.1953"/><line style="stroke:#181818;stroke-width:0.5;stroke-dasharray:5.0,5.0;" x1="47" x2="47" y1="81.2969" y2="955.1953"/><line style="stroke:#181818;stroke-width:0.5;stroke-dasharray:5.0,5.0;" x1="187" x2="187" y1="81.2969" y2="955.1953"/><line style="stroke:#181818;stroke-width:0.5;stroke-dasharray:5.0,5.0;" x1="326" x2="326" y1="81.2969" y2="955.1953"/><line style="stroke:#181818;stroke-width:0.5;stroke-dasharray:5.0,5.0;" x1="558" x2="558" y1="81.2969" y2="955.1953"/><line style="stroke:#181818;stroke-width:0.5;stroke-dasharray:5.0,5.0;" x1="794.5" x2="794.5" y1="81.2969" y2="955.1953"/><text fill="#000000" font-family="sans-serif" font-size="14" lengthAdjust="spacing" textLength="48" x="20" y="77.9951">Parent</text><ellipse cx="47" cy="13.5" fill="#E2E2F0" rx="8" ry="8" style="stroke:#181818;stroke-width:0.5;"/><path d="M47,21.5 L47,48.5 M34,29.5 L60,29.5 M47,48.5 L34,63.5 M47,48.5 L60,63.5 " fill="none" style="stroke:#181818;stroke-width:0.5;"/><text fill="#000000" font-family="sans-serif" font-size="14" lengthAdjust="spacing" textLength="78" x="145" y="61.6982">ChildEvent</text><text fill="#000000" font-family="sans-serif" font-size="14" lengthAdjust="spacing" textLength="128" x="120" y="77.9951">ManagementView</text><path d="M166.5,20.7031 L166.5,44.7031 M166.5,32.7031 L183.5,32.7031 " fill="none" style="stroke:#181818;stroke-width:0.5;"/><ellipse cx="195.5" cy="32.7031" fill="#E2E2F0" rx="12" ry="12" style="stroke:#181818;stroke-width:0.5;"/><text fill="#000000" font-family="sans-serif" font-size="14" lengthAdjust="spacing" textLength="78" x="284.5" y="61.6982">ChildEvent</text><text fill="#000000" font-family="sans-serif" font-size="14" lengthAdjust="spacing" textLength="119" x="264" y="77.9951">InformationView</text><path d="M306,20.7031 L306,44.7031 M306,32.7031 L323,32.7031 " fill="none" style="stroke:#181818;stroke-width:0.5;"/><ellipse cx="335" cy="32.7031" fill="#E2E2F0" rx="12" ry="12" style="stroke:#181818;stroke-width:0.5;"/><text fill="#000000" font-family="sans-serif" font-size="14" lengthAdjust="spacing" textLength="151" x="480" y="77.9951">ChildEventController</text><ellipse cx="558.5" cy="49" fill="#E2E2F0" rx="12" ry="12" style="stroke:#181818;stroke-width:0.5;"/><polygon fill="#181818" points="554.5,37,560.5,32,558.5,37,560.5,42,554.5,37" style="stroke:#181818;stroke-width:1.0;"/><text fill="#000000" font-family="sans-serif" font-size="14" lengthAdjust="spacing" textLength="90" x="746.5" y="77.9951">CHILDEVENT</text><ellipse cx="794.5" cy="49" fill="#E2E2F0" rx="12" ry="12" style="stroke:#181818;stroke-width:0.5;"/><line style="stroke:#181818;stroke-width:0.5;" x1="782.5" x2="806.5" y1="63" y2="63"/><rect fill="none" height="39.1016" style="stroke:#000000;stroke-width:1.5;" width="828.5" x="17" y="91.2969"/><path d="M17,91.2969 L85,91.2969 L85,98.2969 L75,108.2969 L17,108.2969 L17,91.2969 " fill="#EEEEEE" style="stroke:#000000;stroke-width:2.0;"/><text fill="#000000" font-family="sans-serif" font-size="13" font-weight="bold" lengthAdjust="spacing" textLength="23" x="30" y="105.3638">ref</text><text fill="#000000" font-family="sans-serif" font-size="12" lengthAdjust="spacing" textLength="173" x="344.75" y="123.4355">Sequence Search ChildEvent</text><polygon fill="#181818" points="175,167.6641,185,171.6641,175,175.6641,179,171.6641" style="stroke:#181818;stroke-width:1.0;"/><line style="stroke:#181818;stroke-width:1.0;" x1="47" x2="181" y1="171.6641" y2="171.6641"/><text fill="#000000" font-family="sans-serif" font-size="13" font-weight="bold" lengthAdjust="spacing" textLength="9" x="54" y="159.0317">1</text><text fill="#000000" font-family="sans-serif" font-size="13" lengthAdjust="spacing" textLength="80" x="67" y="151.4653">Select event</text><text fill="#000000" font-family="sans-serif" font-size="13" lengthAdjust="spacing" textLength="99" x="71" y="166.5981">needs updating</text><polygon fill="#181818" points="546.5,196.7969,556.5,200.7969,546.5,204.7969,550.5,200.7969" style="stroke:#181818;stroke-width:1.0;"/><line style="stroke:#181818;stroke-width:1.0;" x1="187" x2="552.5" y1="200.7969" y2="200.7969"/><text fill="#000000" font-family="sans-serif" font-size="13" font-weight="bold" lengthAdjust="spacing" textLength="9" x="194" y="195.731">2</text><text fill="#000000" font-family="sans-serif" font-size="13" lengthAdjust="spacing" textLength="200" x="207" y="195.731">Get selected event information</text><polygon fill="#181818" points="782.5,225.9297,792.5,229.9297,782.5,233.9297,786.5,229.9297" style="stroke:#181818;stroke-width:1.0;"/><line style="stroke:#181818;stroke-width:1.0;" x1="558.5" x2="788.5" y1="229.9297" y2="229.9297"/><text fill="#000000" font-family="sans-serif" font-size="13" font-weight="bold" lengthAdjust="spacing" textLength="8" x="565.5" y="224.8638">3</text><text fill="#000000" font-family="sans-serif" font-size="13" lengthAdjust="spacing" textLength="200" x="577.5" y="224.8638">Get selected event information</text><polygon fill="#181818" points="337.5,255.0625,327.5,259.0625,337.5,263.0625,333.5,259.0625" style="stroke:#181818;stroke-width:1.0;"/><line style="stroke:#181818;stroke-width:1.0;stroke-dasharray:2.0,2.0;" x1="331.5" x2="793.5" y1="259.0625" y2="259.0625"/><text fill="#000000" font-family="sans-serif" font-size="13" font-weight="bold" lengthAdjust="spacing" textLength="9" x="343.5" y="253.9966">4</text><text fill="#000000" font-family="sans-serif" font-size="13" lengthAdjust="spacing" textLength="174" x="356.5" y="253.9966">Selected event information</text><line style="stroke:#181818;stroke-width:1.0;" x1="326.5" x2="368.5" y1="288.1953" y2="288.1953"/><line style="stroke:#181818;stroke-width:1.0;" x1="368.5" x2="368.5" y1="288.1953" y2="301.1953"/><line style="stroke:#181818;stroke-width:1.0;" x1="327.5" x2="368.5" y1="301.1953" y2="301.1953"/><polygon fill="#181818" points="337.5,297.1953,327.5,301.1953,337.5,305.1953,333.5,301.1953" style="stroke:#181818;stroke-width:1.0;"/><text fill="#000000" font-family="sans-serif" font-size="13" font-weight="bold" lengthAdjust="spacing" textLength="9" x="333.5" y="283.1294">5</text><text fill="#000000" font-family="sans-serif" font-size="13" lengthAdjust="spacing" textLength="166" x="346.5" y="283.1294">Display event information</text><polygon fill="#181818" points="314.5,326.3281,324.5,330.3281,314.5,334.3281,318.5,330.3281" style="stroke:#181818;stroke-width:1.0;"/><line style="stroke:#181818;stroke-width:1.0;" x1="47" x2="320.5" y1="330.3281" y2="330.3281"/><text fill="#000000" font-family="sans-serif" font-size="13" font-weight="bold" lengthAdjust="spacing" textLength="9" x="54" y="325.2622">6</text><text fill="#000000" font-family="sans-serif" font-size="13" lengthAdjust="spacing" textLength="153" x="67" y="325.2622">Enter event information</text><line style="stroke:#181818;stroke-width:1.0;" x1="326.5" x2="368.5" y1="359.4609" y2="359.4609"/><line style="stroke:#181818;stroke-width:1.0;" x1="368.5" x2="368.5" y1="359.4609" y2="372.4609"/><line style="stroke:#181818;stroke-width:1.0;" x1="327.5" x2="368.5" y1="372.4609" y2="372.4609"/><polygon fill="#181818" points="337.5,368.4609,327.5,372.4609,337.5,376.4609,333.5,372.4609" style="stroke:#181818;stroke-width:1.0;"/><text fill="#000000" font-family="sans-serif" font-size="13" font-weight="bold" lengthAdjust="spacing" textLength="9" x="333.5" y="354.395">7</text><text fill="#000000" font-family="sans-serif" font-size="13" lengthAdjust="spacing" textLength="85" x="346.5" y="354.395">Validate data</text><path d="M10,387.4609 L76,387.4609 L76,394.5938 L66,404.5938 L10,404.5938 L10,387.4609 " fill="#EEEEEE" style="stroke:#000000;stroke-width:1.5;"/><rect fill="none" height="550.7344" style="stroke:#000000;stroke-width:1.5;" width="909.5" x="10" y="387.4609"/><text fill="#000000" font-family="sans-serif" font-size="13" font-weight="bold" lengthAdjust="spacing" textLength="21" x="25" y="400.5278">alt</text><text fill="#000000" font-family="sans-serif" font-size="11" font-weight="bold" lengthAdjust="spacing" textLength="88" x="91" y="399.6714">[Invalid data]</text><polygon fill="#181818" points="58,421.7266,48,425.7266,58,429.7266,54,425.7266" style="stroke:#181818;stroke-width:1.0;"/><line style="stroke:#181818;stroke-width:1.0;stroke-dasharray:2.0,2.0;" x1="52" x2="325.5" y1="425.7266" y2="425.7266"/><text fill="#000000" font-family="sans-serif" font-size="13" font-weight="bold" lengthAdjust="spacing" textLength="9" x="64" y="420.6606">8</text><text fill="#000000" font-family="sans-serif" font-size="13" lengthAdjust="spacing" textLength="106" x="77" y="420.6606">Error notification</text><line style="stroke:#181818;stroke-width:1.0;" x1="326.5" x2="368.5" y1="454.8594" y2="454.8594"/><line style="stroke:#181818;stroke-width:1.0;" x1="368.5" x2="368.5" y1="454.8594" y2="467.8594"/><line style="stroke:#181818;stroke-width:1.0;" x1="327.5" x2="368.5" y1="467.8594" y2="467.8594"/><polygon fill="#181818" points="337.5,463.8594,327.5,467.8594,337.5,471.8594,333.5,467.8594" style="stroke:#181818;stroke-width:1.0;"/><text fill="#000000" font-family="sans-serif" font-size="13" font-weight="bold" lengthAdjust="spacing" textLength="9" x="333.5" y="449.7935">9</text><text fill="#000000" font-family="sans-serif" font-size="13" lengthAdjust="spacing" textLength="157" x="346.5" y="449.7935">Display error notification</text><line style="stroke:#000000;stroke-width:1.0;stroke-dasharray:2.0,2.0;" x1="10" x2="919.5" y1="476.8594" y2="476.8594"/><text fill="#000000" font-family="sans-serif" font-size="11" font-weight="bold" lengthAdjust="spacing" textLength="78" x="15" y="487.0698">[Valid data]</text><polygon fill="#181818" points="314.5,507.7969,324.5,511.7969,314.5,515.7969,318.5,511.7969" style="stroke:#181818;stroke-width:1.0;"/><line style="stroke:#181818;stroke-width:1.0;" x1="47" x2="320.5" y1="511.7969" y2="511.7969"/><text fill="#000000" font-family="sans-serif" font-size="13" font-weight="bold" lengthAdjust="spacing" textLength="19" x="54" y="506.731">10</text><text fill="#000000" font-family="sans-serif" font-size="13" lengthAdjust="spacing" textLength="191" x="77" y="506.731">Click button "Save" to confirm</text><polygon fill="#181818" points="546.5,536.9297,556.5,540.9297,546.5,544.9297,550.5,540.9297" style="stroke:#181818;stroke-width:1.0;"/><line style="stroke:#181818;stroke-width:1.0;" x1="326.5" x2="552.5" y1="540.9297" y2="540.9297"/><text fill="#000000" font-family="sans-serif" font-size="13" font-weight="bold" lengthAdjust="spacing" textLength="18" x="333.5" y="535.8638">11</text><text fill="#000000" font-family="sans-serif" font-size="13" lengthAdjust="spacing" textLength="186" x="355.5" y="535.8638">Send updating event request</text><polygon fill="#181818" points="782.5,566.0625,792.5,570.0625,782.5,574.0625,786.5,570.0625" style="stroke:#181818;stroke-width:1.0;"/><line style="stroke:#181818;stroke-width:1.0;" x1="558.5" x2="788.5" y1="570.0625" y2="570.0625"/><text fill="#000000" font-family="sans-serif" font-size="13" font-weight="bold" lengthAdjust="spacing" textLength="18" x="565.5" y="564.9966">12</text><text fill="#000000" font-family="sans-serif" font-size="13" lengthAdjust="spacing" textLength="110" x="587.5" y="564.9966">Send information</text><line style="stroke:#181818;stroke-width:1.0;" x1="794.5" x2="836.5" y1="599.1953" y2="599.1953"/><line style="stroke:#181818;stroke-width:1.0;" x1="836.5" x2="836.5" y1="599.1953" y2="612.1953"/><line style="stroke:#181818;stroke-width:1.0;" x1="795.5" x2="836.5" y1="612.1953" y2="612.1953"/><polygon fill="#181818" points="805.5,608.1953,795.5,612.1953,805.5,616.1953,801.5,612.1953" style="stroke:#181818;stroke-width:1.0;"/><text fill="#000000" font-family="sans-serif" font-size="13" font-weight="bold" lengthAdjust="spacing" textLength="17" x="801.5" y="594.1294">13</text><text fill="#000000" font-family="sans-serif" font-size="13" lengthAdjust="spacing" textLength="85" x="822.5" y="594.1294">Validate data</text><path d="M110,627.1953 L176,627.1953 L176,634.3281 L166,644.3281 L110,644.3281 L110,627.1953 " fill="#EEEEEE" style="stroke:#000000;stroke-width:1.5;"/><rect fill="none" height="304" style="stroke:#000000;stroke-width:1.5;" width="792.5" x="110" y="627.1953"/><text fill="#000000" font-family="sans-serif" font-size="13" font-weight="bold" lengthAdjust="spacing" textLength="21" x="125" y="640.2622">alt</text><text fill="#000000" font-family="sans-serif" font-size="11" font-weight="bold" lengthAdjust="spacing" textLength="88" x="191" y="639.4058">[Invalid data]</text><polygon fill="#181818" points="569.5,661.4609,559.5,665.4609,569.5,669.4609,565.5,665.4609" style="stroke:#181818;stroke-width:1.0;"/><line style="stroke:#181818;stroke-width:1.0;stroke-dasharray:2.0,2.0;" x1="563.5" x2="793.5" y1="665.4609" y2="665.4609"/><text fill="#000000" font-family="sans-serif" font-size="13" font-weight="bold" lengthAdjust="spacing" textLength="18" x="575.5" y="660.395">14</text><text fill="#000000" font-family="sans-serif" font-size="13" lengthAdjust="spacing" textLength="106" x="597.5" y="660.395">Error notification</text><polygon fill="#181818" points="337.5,690.5938,327.5,694.5938,337.5,698.5938,333.5,694.5938" style="stroke:#181818;stroke-width:1.0;"/><line style="stroke:#181818;stroke-width:1.0;stroke-dasharray:2.0,2.0;" x1="331.5" x2="557.5" y1="694.5938" y2="694.5938"/><text fill="#000000" font-family="sans-serif" font-size="13" font-weight="bold" lengthAdjust="spacing" textLength="18" x="343.5" y="689.5278">15</text><text fill="#000000" font-family="sans-serif" font-size="13" lengthAdjust="spacing" textLength="106" x="365.5" y="689.5278">Error notification</text><line style="stroke:#181818;stroke-width:1.0;" x1="326.5" x2="368.5" y1="723.7266" y2="723.7266"/><line style="stroke:#181818;stroke-width:1.0;" x1="368.5" x2="368.5" y1="723.7266" y2="736.7266"/><line style="stroke:#181818;stroke-width:1.0;" x1="327.5" x2="368.5" y1="736.7266" y2="736.7266"/><polygon fill="#181818" points="337.5,732.7266,327.5,736.7266,337.5,740.7266,333.5,736.7266" style="stroke:#181818;stroke-width:1.0;"/><text fill="#000000" font-family="sans-serif" font-size="13" font-weight="bold" lengthAdjust="spacing" textLength="18" x="333.5" y="718.6606">16</text><text fill="#000000" font-family="sans-serif" font-size="13" lengthAdjust="spacing" textLength="157" x="355.5" y="718.6606">Display error notification</text><line style="stroke:#000000;stroke-width:1.0;stroke-dasharray:2.0,2.0;" x1="110" x2="902.5" y1="745.7266" y2="745.7266"/><text fill="#000000" font-family="sans-serif" font-size="11" font-weight="bold" lengthAdjust="spacing" textLength="78" x="115" y="755.937">[Valid data]</text><line style="stroke:#181818;stroke-width:1.0;" x1="794.5" x2="836.5" y1="780.6641" y2="780.6641"/><line style="stroke:#181818;stroke-width:1.0;" x1="836.5" x2="836.5" y1="780.6641" y2="793.6641"/><line style="stroke:#181818;stroke-width:1.0;" x1="795.5" x2="836.5" y1="793.6641" y2="793.6641"/><polygon fill="#181818" points="805.5,789.6641,795.5,793.6641,805.5,797.6641,801.5,793.6641" style="stroke:#181818;stroke-width:1.0;"/><text fill="#000000" font-family="sans-serif" font-size="13" font-weight="bold" lengthAdjust="spacing" textLength="18" x="801.5" y="775.5981">17</text><text fill="#000000" font-family="sans-serif" font-size="13" lengthAdjust="spacing" textLength="67" x="823.5" y="775.5981">Store data</text><polygon fill="#181818" points="569.5,818.7969,559.5,822.7969,569.5,826.7969,565.5,822.7969" style="stroke:#181818;stroke-width:1.0;"/><line style="stroke:#181818;stroke-width:1.0;stroke-dasharray:2.0,2.0;" x1="563.5" x2="793.5" y1="822.7969" y2="822.7969"/><text fill="#000000" font-family="sans-serif" font-size="13" font-weight="bold" lengthAdjust="spacing" textLength="18" x="575.5" y="817.731">18</text><text fill="#000000" font-family="sans-serif" font-size="13" lengthAdjust="spacing" textLength="127" x="597.5" y="817.731">Success notification</text><polygon fill="#181818" points="337.5,847.9297,327.5,851.9297,337.5,855.9297,333.5,851.9297" style="stroke:#181818;stroke-width:1.0;"/><line style="stroke:#181818;stroke-width:1.0;stroke-dasharray:2.0,2.0;" x1="331.5" x2="557.5" y1="851.9297" y2="851.9297"/><text fill="#000000" font-family="sans-serif" font-size="13" font-weight="bold" lengthAdjust="spacing" textLength="18" x="343.5" y="846.8638">19</text><text fill="#000000" font-family="sans-serif" font-size="13" lengthAdjust="spacing" textLength="127" x="365.5" y="846.8638">Success notification</text><line style="stroke:#181818;stroke-width:1.0;" x1="326.5" x2="368.5" y1="881.0625" y2="881.0625"/><line style="stroke:#181818;stroke-width:1.0;" x1="368.5" x2="368.5" y1="881.0625" y2="894.0625"/><line style="stroke:#181818;stroke-width:1.0;" x1="327.5" x2="368.5" y1="894.0625" y2="894.0625"/><polygon fill="#181818" points="337.5,890.0625,327.5,894.0625,337.5,898.0625,333.5,894.0625" style="stroke:#181818;stroke-width:1.0;"/><text fill="#000000" font-family="sans-serif" font-size="13" font-weight="bold" lengthAdjust="spacing" textLength="19" x="333.5" y="875.9966">20</text><text fill="#000000" font-family="sans-serif" font-size="13" lengthAdjust="spacing" textLength="69" x="356.5" y="875.9966">Close view</text><polygon fill="#181818" points="198,919.1953,188,923.1953,198,927.1953,194,923.1953" style="stroke:#181818;stroke-width:1.0;"/><line style="stroke:#181818;stroke-width:1.0;" x1="192" x2="557.5" y1="923.1953" y2="923.1953"/><text fill="#000000" font-family="sans-serif" font-size="13" font-weight="bold" lengthAdjust="spacing" textLength="18" x="204" y="918.1294">21</text><text fill="#000000" font-family="sans-serif" font-size="13" lengthAdjust="spacing" textLength="292" x="226" y="918.1294">Display success notification and list of events</text><!--SRC=[hLN1Si8W4Btp5JkUzGSyz1ATrfcsqvbqFFM2iAbC4IoGjFvzDr9h4aEqZZba4c3Vldtx05u6QyhD2XrRAubGM1jMzfinBe9ryC8Tci1MjZIIknsCihNISbxHu9jvueQ_uuQ-bmg_Hi0z7AVRamc4XIcis_2WhEc1wCmoOKrmLZTMP7544tlwKs47sSFYSJPVpfzV6NDOWAtmKCKuoMwSJZhkpJPkv9b2Zfyb6e7qmPrODo9Op0oJksJkEboZ281H4Z28qaEvbSJ1lBDKN1lpI6qAznZ0xp5HHbHGnw9ONz0Uh57HEOY_fJ1fqUY8TwZj38zE50n3pfJVQhxhGUmJ-oHyRWBLUn8CS3MX9TUAceL0Bywu3h0mLJqM1u2U0MZ2Zho9cdEqvOmDgb0YbdGc-3AXJc5HUuoyZnmlKY_JIdp0gWnqQi0evnME85YWdLaej_aFtQPZSpJop_6_lN7rflAX0vcsx1wZwOPzOCEexUNjfjLhUnlN1KcMaEXTclqPbru2TpCxrB1zbXYMCASB0g-GAY-5GEzl9zQ5WF-JAzEM1AdgUsUOsz3HVj3Szp04JeRLoWUmHVIyZuqmaYup-GC0]--></g></svg>