<?xml version="1.0" encoding="us-ascii" standalone="no"?><svg xmlns="http://www.w3.org/2000/svg" xmlns:xlink="http://www.w3.org/1999/xlink" contentStyleType="text/css" height="801px" preserveAspectRatio="none" style="width:881px;height:801px;background:#FFFFFF;" version="1.1" viewBox="0 0 881 801" width="881px" zoomAndPan="magnify"><defs/><g><rect fill="none" height="550.7344" style="stroke:#000000;stroke-width:1.5;" width="864.5" x="10" y="226.8281"/><rect fill="none" height="304" style="stroke:#000000;stroke-width:1.5;" width="792.5" x="72" y="466.5625"/><line style="stroke:#181818;stroke-width:0.5;stroke-dasharray:5.0,5.0;" x1="46" x2="46" y1="81.2969" y2="794.5625"/><line style="stroke:#181818;stroke-width:0.5;stroke-dasharray:5.0,5.0;" x1="173" x2="173" y1="81.2969" y2="794.5625"/><line style="stroke:#181818;stroke-width:0.5;stroke-dasharray:5.0,5.0;" x1="360" x2="360" y1="81.2969" y2="794.5625"/><line style="stroke:#181818;stroke-width:0.5;stroke-dasharray:5.0,5.0;" x1="584" x2="584" y1="81.2969" y2="794.5625"/><line style="stroke:#181818;stroke-width:0.5;stroke-dasharray:5.0,5.0;" x1="757" x2="757" y1="81.2969" y2="794.5625"/><text fill="#000000" font-family="sans-serif" font-size="14" lengthAdjust="spacing" textLength="46" x="20" y="77.9951">Admin</text><ellipse cx="46" cy="13.5" fill="#E2E2F0" rx="8" ry="8" style="stroke:#181818;stroke-width:0.5;"/><path d="M46,21.5 L46,48.5 M33,29.5 L59,29.5 M46,48.5 L33,63.5 M46,48.5 L59,63.5 " fill="none" style="stroke:#181818;stroke-width:0.5;"/><text fill="#000000" font-family="sans-serif" font-size="14" lengthAdjust="spacing" textLength="176" x="82" y="77.9951">ParentManagementView</text><path d="M152.5,37 L152.5,61 M152.5,49 L169.5,49 " fill="none" style="stroke:#181818;stroke-width:0.5;"/><ellipse cx="181.5" cy="49" fill="#E2E2F0" rx="12" ry="12" style="stroke:#181818;stroke-width:0.5;"/><text fill="#000000" font-family="sans-serif" font-size="14" lengthAdjust="spacing" textLength="167" x="274" y="77.9951">ParentInformationView</text><path d="M340,37 L340,61 M340,49 L357,49 " fill="none" style="stroke:#181818;stroke-width:0.5;"/><ellipse cx="369" cy="49" fill="#E2E2F0" rx="12" ry="12" style="stroke:#181818;stroke-width:0.5;"/><text fill="#000000" font-family="sans-serif" font-size="14" lengthAdjust="spacing" textLength="121" x="521" y="77.9951">ParentController</text><ellipse cx="584.5" cy="49" fill="#E2E2F0" rx="12" ry="12" style="stroke:#181818;stroke-width:0.5;"/><polygon fill="#181818" points="580.5,37,586.5,32,584.5,37,586.5,42,580.5,37" style="stroke:#181818;stroke-width:1.0;"/><text fill="#000000" font-family="sans-serif" font-size="14" lengthAdjust="spacing" textLength="57" x="726" y="77.9951">PARENT</text><ellipse cx="757.5" cy="49" fill="#E2E2F0" rx="12" ry="12" style="stroke:#181818;stroke-width:0.5;"/><line style="stroke:#181818;stroke-width:0.5;" x1="745.5" x2="769.5" y1="63" y2="63"/><line style="stroke:#181818;stroke-width:1.0;" x1="360.5" x2="402.5" y1="127.5625" y2="127.5625"/><line style="stroke:#181818;stroke-width:1.0;" x1="402.5" x2="402.5" y1="127.5625" y2="140.5625"/><line style="stroke:#181818;stroke-width:1.0;" x1="361.5" x2="402.5" y1="140.5625" y2="140.5625"/><polygon fill="#181818" points="371.5,136.5625,361.5,140.5625,371.5,144.5625,367.5,140.5625" style="stroke:#181818;stroke-width:1.0;"/><text fill="#000000" font-family="sans-serif" font-size="13" font-weight="bold" lengthAdjust="spacing" textLength="9" x="367.5" y="114.9302">1</text><text fill="#000000" font-family="sans-serif" font-size="13" lengthAdjust="spacing" textLength="78" x="380.5" y="107.3638">Display with</text><text fill="#000000" font-family="sans-serif" font-size="13" lengthAdjust="spacing" textLength="120" x="380.5" y="122.4966">empty information</text><polygon fill="#181818" points="348.5,165.6953,358.5,169.6953,348.5,173.6953,352.5,169.6953" style="stroke:#181818;stroke-width:1.0;"/><line style="stroke:#181818;stroke-width:1.0;" x1="46" x2="354.5" y1="169.6953" y2="169.6953"/><text fill="#000000" font-family="sans-serif" font-size="13" font-weight="bold" lengthAdjust="spacing" textLength="9" x="53" y="164.6294">2</text><text fill="#000000" font-family="sans-serif" font-size="13" lengthAdjust="spacing" textLength="158" x="66" y="164.6294">Enter parent information</text><line style="stroke:#181818;stroke-width:1.0;" x1="360.5" x2="402.5" y1="198.8281" y2="198.8281"/><line style="stroke:#181818;stroke-width:1.0;" x1="402.5" x2="402.5" y1="198.8281" y2="211.8281"/><line style="stroke:#181818;stroke-width:1.0;" x1="361.5" x2="402.5" y1="211.8281" y2="211.8281"/><polygon fill="#181818" points="371.5,207.8281,361.5,211.8281,371.5,215.8281,367.5,211.8281" style="stroke:#181818;stroke-width:1.0;"/><text fill="#000000" font-family="sans-serif" font-size="13" font-weight="bold" lengthAdjust="spacing" textLength="8" x="367.5" y="193.7622">3</text><text fill="#000000" font-family="sans-serif" font-size="13" lengthAdjust="spacing" textLength="85" x="379.5" y="193.7622">Validate data</text><path d="M10,226.8281 L76,226.8281 L76,233.9609 L66,243.9609 L10,243.9609 L10,226.8281 " fill="#EEEEEE" style="stroke:#000000;stroke-width:1.5;"/><rect fill="none" height="550.7344" style="stroke:#000000;stroke-width:1.5;" width="864.5" x="10" y="226.8281"/><text fill="#000000" font-family="sans-serif" font-size="13" font-weight="bold" lengthAdjust="spacing" textLength="21" x="25" y="239.895">alt</text><text fill="#000000" font-family="sans-serif" font-size="11" font-weight="bold" lengthAdjust="spacing" textLength="88" x="91" y="239.0386">[Invalid data]</text><polygon fill="#181818" points="57,261.0938,47,265.0938,57,269.0938,53,265.0938" style="stroke:#181818;stroke-width:1.0;"/><line style="stroke:#181818;stroke-width:1.0;stroke-dasharray:2.0,2.0;" x1="51" x2="359.5" y1="265.0938" y2="265.0938"/><text fill="#000000" font-family="sans-serif" font-size="13" font-weight="bold" lengthAdjust="spacing" textLength="9" x="63" y="260.0278">4</text><text fill="#000000" font-family="sans-serif" font-size="13" lengthAdjust="spacing" textLength="106" x="76" y="260.0278">Error notification</text><line style="stroke:#181818;stroke-width:1.0;" x1="360.5" x2="402.5" y1="294.2266" y2="294.2266"/><line style="stroke:#181818;stroke-width:1.0;" x1="402.5" x2="402.5" y1="294.2266" y2="307.2266"/><line style="stroke:#181818;stroke-width:1.0;" x1="361.5" x2="402.5" y1="307.2266" y2="307.2266"/><polygon fill="#181818" points="371.5,303.2266,361.5,307.2266,371.5,311.2266,367.5,307.2266" style="stroke:#181818;stroke-width:1.0;"/><text fill="#000000" font-family="sans-serif" font-size="13" font-weight="bold" lengthAdjust="spacing" textLength="9" x="367.5" y="289.1606">5</text><text fill="#000000" font-family="sans-serif" font-size="13" lengthAdjust="spacing" textLength="157" x="380.5" y="289.1606">Display error notification</text><line style="stroke:#000000;stroke-width:1.0;stroke-dasharray:2.0,2.0;" x1="10" x2="874.5" y1="316.2266" y2="316.2266"/><text fill="#000000" font-family="sans-serif" font-size="11" font-weight="bold" lengthAdjust="spacing" textLength="78" x="15" y="326.437">[Valid data]</text><polygon fill="#181818" points="348.5,347.1641,358.5,351.1641,348.5,355.1641,352.5,351.1641" style="stroke:#181818;stroke-width:1.0;"/><line style="stroke:#181818;stroke-width:1.0;" x1="46" x2="354.5" y1="351.1641" y2="351.1641"/><text fill="#000000" font-family="sans-serif" font-size="13" font-weight="bold" lengthAdjust="spacing" textLength="9" x="53" y="346.0981">6</text><text fill="#000000" font-family="sans-serif" font-size="13" lengthAdjust="spacing" textLength="191" x="66" y="346.0981">Click button "Save" to confirm</text><polygon fill="#181818" points="572.5,376.2969,582.5,380.2969,572.5,384.2969,576.5,380.2969" style="stroke:#181818;stroke-width:1.0;"/><line style="stroke:#181818;stroke-width:1.0;" x1="360.5" x2="578.5" y1="380.2969" y2="380.2969"/><text fill="#000000" font-family="sans-serif" font-size="13" font-weight="bold" lengthAdjust="spacing" textLength="9" x="367.5" y="375.231">7</text><text fill="#000000" font-family="sans-serif" font-size="13" lengthAdjust="spacing" textLength="187" x="380.5" y="375.231">Send creating parent request</text><polygon fill="#181818" points="745.5,405.4297,755.5,409.4297,745.5,413.4297,749.5,409.4297" style="stroke:#181818;stroke-width:1.0;"/><line style="stroke:#181818;stroke-width:1.0;" x1="584.5" x2="751.5" y1="409.4297" y2="409.4297"/><text fill="#000000" font-family="sans-serif" font-size="13" font-weight="bold" lengthAdjust="spacing" textLength="9" x="591.5" y="404.3638">8</text><text fill="#000000" font-family="sans-serif" font-size="13" lengthAdjust="spacing" textLength="110" x="604.5" y="404.3638">Send information</text><line style="stroke:#181818;stroke-width:1.0;" x1="757.5" x2="799.5" y1="438.5625" y2="438.5625"/><line style="stroke:#181818;stroke-width:1.0;" x1="799.5" x2="799.5" y1="438.5625" y2="451.5625"/><line style="stroke:#181818;stroke-width:1.0;" x1="758.5" x2="799.5" y1="451.5625" y2="451.5625"/><polygon fill="#181818" points="768.5,447.5625,758.5,451.5625,768.5,455.5625,764.5,451.5625" style="stroke:#181818;stroke-width:1.0;"/><text fill="#000000" font-family="sans-serif" font-size="13" font-weight="bold" lengthAdjust="spacing" textLength="9" x="764.5" y="433.4966">9</text><text fill="#000000" font-family="sans-serif" font-size="13" lengthAdjust="spacing" textLength="85" x="777.5" y="433.4966">Validate data</text><path d="M72,466.5625 L138,466.5625 L138,473.6953 L128,483.6953 L72,483.6953 L72,466.5625 " fill="#EEEEEE" style="stroke:#000000;stroke-width:1.5;"/><rect fill="none" height="304" style="stroke:#000000;stroke-width:1.5;" width="792.5" x="72" y="466.5625"/><text fill="#000000" font-family="sans-serif" font-size="13" font-weight="bold" lengthAdjust="spacing" textLength="21" x="87" y="479.6294">alt</text><text fill="#000000" font-family="sans-serif" font-size="11" font-weight="bold" lengthAdjust="spacing" textLength="88" x="153" y="478.7729">[Invalid data]</text><polygon fill="#181818" points="595.5,500.8281,585.5,504.8281,595.5,508.8281,591.5,504.8281" style="stroke:#181818;stroke-width:1.0;"/><line style="stroke:#181818;stroke-width:1.0;stroke-dasharray:2.0,2.0;" x1="589.5" x2="756.5" y1="504.8281" y2="504.8281"/><text fill="#000000" font-family="sans-serif" font-size="13" font-weight="bold" lengthAdjust="spacing" textLength="19" x="601.5" y="499.7622">10</text><text fill="#000000" font-family="sans-serif" font-size="13" lengthAdjust="spacing" textLength="106" x="624.5" y="499.7622">Error notification</text><polygon fill="#181818" points="371.5,529.9609,361.5,533.9609,371.5,537.9609,367.5,533.9609" style="stroke:#181818;stroke-width:1.0;"/><line style="stroke:#181818;stroke-width:1.0;stroke-dasharray:2.0,2.0;" x1="365.5" x2="583.5" y1="533.9609" y2="533.9609"/><text fill="#000000" font-family="sans-serif" font-size="13" font-weight="bold" lengthAdjust="spacing" textLength="18" x="377.5" y="528.895">11</text><text fill="#000000" font-family="sans-serif" font-size="13" lengthAdjust="spacing" textLength="106" x="399.5" y="528.895">Error notification</text><line style="stroke:#181818;stroke-width:1.0;" x1="360.5" x2="402.5" y1="563.0938" y2="563.0938"/><line style="stroke:#181818;stroke-width:1.0;" x1="402.5" x2="402.5" y1="563.0938" y2="576.0938"/><line style="stroke:#181818;stroke-width:1.0;" x1="361.5" x2="402.5" y1="576.0938" y2="576.0938"/><polygon fill="#181818" points="371.5,572.0938,361.5,576.0938,371.5,580.0938,367.5,576.0938" style="stroke:#181818;stroke-width:1.0;"/><text fill="#000000" font-family="sans-serif" font-size="13" font-weight="bold" lengthAdjust="spacing" textLength="18" x="367.5" y="558.0278">12</text><text fill="#000000" font-family="sans-serif" font-size="13" lengthAdjust="spacing" textLength="157" x="389.5" y="558.0278">Display error notification</text><line style="stroke:#000000;stroke-width:1.0;stroke-dasharray:2.0,2.0;" x1="72" x2="864.5" y1="585.0938" y2="585.0938"/><text fill="#000000" font-family="sans-serif" font-size="11" font-weight="bold" lengthAdjust="spacing" textLength="78" x="77" y="595.3042">[Valid data]</text><line style="stroke:#181818;stroke-width:1.0;" x1="757.5" x2="799.5" y1="620.0313" y2="620.0313"/><line style="stroke:#181818;stroke-width:1.0;" x1="799.5" x2="799.5" y1="620.0313" y2="633.0313"/><line style="stroke:#181818;stroke-width:1.0;" x1="758.5" x2="799.5" y1="633.0313" y2="633.0313"/><polygon fill="#181818" points="768.5,629.0313,758.5,633.0313,768.5,637.0313,764.5,633.0313" style="stroke:#181818;stroke-width:1.0;"/><text fill="#000000" font-family="sans-serif" font-size="13" font-weight="bold" lengthAdjust="spacing" textLength="17" x="764.5" y="614.9653">13</text><text fill="#000000" font-family="sans-serif" font-size="13" lengthAdjust="spacing" textLength="67" x="785.5" y="614.9653">Store data</text><polygon fill="#181818" points="595.5,658.1641,585.5,662.1641,595.5,666.1641,591.5,662.1641" style="stroke:#181818;stroke-width:1.0;"/><line style="stroke:#181818;stroke-width:1.0;stroke-dasharray:2.0,2.0;" x1="589.5" x2="756.5" y1="662.1641" y2="662.1641"/><text fill="#000000" font-family="sans-serif" font-size="13" font-weight="bold" lengthAdjust="spacing" textLength="18" x="601.5" y="657.0981">14</text><text fill="#000000" font-family="sans-serif" font-size="13" lengthAdjust="spacing" textLength="127" x="623.5" y="657.0981">Success notification</text><polygon fill="#181818" points="371.5,687.2969,361.5,691.2969,371.5,695.2969,367.5,691.2969" style="stroke:#181818;stroke-width:1.0;"/><line style="stroke:#181818;stroke-width:1.0;stroke-dasharray:2.0,2.0;" x1="365.5" x2="583.5" y1="691.2969" y2="691.2969"/><text fill="#000000" font-family="sans-serif" font-size="13" font-weight="bold" lengthAdjust="spacing" textLength="18" x="377.5" y="686.231">15</text><text fill="#000000" font-family="sans-serif" font-size="13" lengthAdjust="spacing" textLength="127" x="399.5" y="686.231">Success notification</text><line style="stroke:#181818;stroke-width:1.0;" x1="360.5" x2="402.5" y1="720.4297" y2="720.4297"/><line style="stroke:#181818;stroke-width:1.0;" x1="402.5" x2="402.5" y1="720.4297" y2="733.4297"/><line style="stroke:#181818;stroke-width:1.0;" x1="361.5" x2="402.5" y1="733.4297" y2="733.4297"/><polygon fill="#181818" points="371.5,729.4297,361.5,733.4297,371.5,737.4297,367.5,733.4297" style="stroke:#181818;stroke-width:1.0;"/><text fill="#000000" font-family="sans-serif" font-size="13" font-weight="bold" lengthAdjust="spacing" textLength="18" x="367.5" y="715.3638">16</text><text fill="#000000" font-family="sans-serif" font-size="13" lengthAdjust="spacing" textLength="69" x="389.5" y="715.3638">Close view</text><polygon fill="#181818" points="184,758.5625,174,762.5625,184,766.5625,180,762.5625" style="stroke:#181818;stroke-width:1.0;"/><line style="stroke:#181818;stroke-width:1.0;" x1="178" x2="583.5" y1="762.5625" y2="762.5625"/><text fill="#000000" font-family="sans-serif" font-size="13" font-weight="bold" lengthAdjust="spacing" textLength="18" x="190" y="757.4966">17</text><text fill="#000000" font-family="sans-serif" font-size="13" lengthAdjust="spacing" textLength="297" x="212" y="757.4966">Display success notification and list of parents</text><!--SRC=[hLJBJiCm4BpxArQzymCzLAfA3ps0444zSN6IJMlXh8EzQUdVit6A4i1z2NA8Ok_EP3ApiMxPKLldwDNMb0YLSvox3wLqmSx3lAmDgTorL6f_W2VjaVX1azvWBKzhW_kVrHLLpjUQZQDOBXonT_PONVGhA- -JbM51pP-NZozA9T5mDqlJJk7UXCRg0-mDR-6Li6w4p0nTAce_Gx0aHWzDB8w103ThMMjhIiq8SjDAMuOLxRgzVWFaEa4fd56doF5U32V7fZ95_mLdS1TjmTzqQ0FsKWTPbqnQM5EyGTwoZ0bCCht32R032RKolhv6uP3u53Aa4WgFqaQRB-izlhSOUCGrG29D790ZU1nm1CJYkErx5brFCeynEAdrH1vfbMUcx1BDlqJRqQNYJLkKoQ-DDrYHjKM18VpTZ2k8hhTZOPryyAuxOqvhcINFhC7Ba504MWRDci3WgkEGXjvXAkNKAZy1]--></g></svg>