<?xml version="1.0" encoding="us-ascii" standalone="no"?><svg xmlns="http://www.w3.org/2000/svg" xmlns:xlink="http://www.w3.org/1999/xlink" contentStyleType="text/css" height="760px" preserveAspectRatio="none" style="width:785px;height:760px;background:#FFFFFF;" version="1.1" viewBox="0 0 785 760" width="785px" zoomAndPan="magnify"><defs/><g><rect fill="none" height="507.6016" style="stroke:#000000;stroke-width:1.5;" width="768" x="10" y="228.7969"/><rect fill="none" height="290" style="stroke:#000000;stroke-width:1.5;" width="646" x="122" y="439.3984"/><line style="stroke:#181818;stroke-width:0.5;stroke-dasharray:5.0,5.0;" x1="46" x2="46" y1="81.2969" y2="753.3984"/><line style="stroke:#181818;stroke-width:0.5;stroke-dasharray:5.0,5.0;" x1="223" x2="223" y1="81.2969" y2="753.3984"/><line style="stroke:#181818;stroke-width:0.5;stroke-dasharray:5.0,5.0;" x1="468.5" x2="468.5" y1="81.2969" y2="753.3984"/><line style="stroke:#181818;stroke-width:0.5;stroke-dasharray:5.0,5.0;" x1="651.5" x2="651.5" y1="81.2969" y2="753.3984"/><text fill="#000000" font-family="sans-serif" font-size="14" lengthAdjust="spacing" textLength="46" x="20" y="77.9951">Admin</text><ellipse cx="46" cy="13.5" fill="#E2E2F0" rx="8" ry="8" style="stroke:#181818;stroke-width:0.5;"/><path d="M46,21.5 L46,48.5 M33,29.5 L59,29.5 M46,48.5 L33,63.5 M46,48.5 L59,63.5 " fill="none" style="stroke:#181818;stroke-width:0.5;"/><text fill="#000000" font-family="sans-serif" font-size="14" lengthAdjust="spacing" textLength="176" x="132" y="77.9951">ParentManagementView</text><path d="M202.5,37 L202.5,61 M202.5,49 L219.5,49 " fill="none" style="stroke:#181818;stroke-width:0.5;"/><ellipse cx="231.5" cy="49" fill="#E2E2F0" rx="12" ry="12" style="stroke:#181818;stroke-width:0.5;"/><text fill="#000000" font-family="sans-serif" font-size="14" lengthAdjust="spacing" textLength="121" x="405.5" y="77.9951">ParentController</text><ellipse cx="469" cy="49" fill="#E2E2F0" rx="12" ry="12" style="stroke:#181818;stroke-width:0.5;"/><polygon fill="#181818" points="465,37,471,32,469,37,471,42,465,37" style="stroke:#181818;stroke-width:1.0;"/><text fill="#000000" font-family="sans-serif" font-size="14" lengthAdjust="spacing" textLength="57" x="620.5" y="77.9951">PARENT</text><ellipse cx="652" cy="49" fill="#E2E2F0" rx="12" ry="12" style="stroke:#181818;stroke-width:0.5;"/><line style="stroke:#181818;stroke-width:0.5;" x1="640" x2="664" y1="63" y2="63"/><rect fill="none" height="39.1016" style="stroke:#000000;stroke-width:1.5;" width="669.5" x="17" y="91.2969"/><path d="M17,91.2969 L85,91.2969 L85,98.2969 L75,108.2969 L17,108.2969 L17,91.2969 " fill="#EEEEEE" style="stroke:#000000;stroke-width:2.0;"/><text fill="#000000" font-family="sans-serif" font-size="13" font-weight="bold" lengthAdjust="spacing" textLength="23" x="30" y="105.3638">ref</text><text fill="#000000" font-family="sans-serif" font-size="12" lengthAdjust="spacing" textLength="148" x="277.75" y="123.4355">Sequence Search Parent</text><polygon fill="#181818" points="211,167.6641,221,171.6641,211,175.6641,215,171.6641" style="stroke:#181818;stroke-width:1.0;"/><line style="stroke:#181818;stroke-width:1.0;" x1="46" x2="217" y1="171.6641" y2="171.6641"/><text fill="#000000" font-family="sans-serif" font-size="13" font-weight="bold" lengthAdjust="spacing" textLength="9" x="53" y="159.0317">1</text><text fill="#000000" font-family="sans-serif" font-size="13" lengthAdjust="spacing" textLength="85" x="66" y="151.4653">Select parent</text><text fill="#000000" font-family="sans-serif" font-size="13" lengthAdjust="spacing" textLength="94" x="70" y="166.5981">needs deleting</text><line style="stroke:#181818;stroke-width:1.0;" x1="223" x2="265" y1="200.7969" y2="200.7969"/><line style="stroke:#181818;stroke-width:1.0;" x1="265" x2="265" y1="200.7969" y2="213.7969"/><line style="stroke:#181818;stroke-width:1.0;" x1="224" x2="265" y1="213.7969" y2="213.7969"/><polygon fill="#181818" points="234,209.7969,224,213.7969,234,217.7969,230,213.7969" style="stroke:#181818;stroke-width:1.0;"/><text fill="#000000" font-family="sans-serif" font-size="13" font-weight="bold" lengthAdjust="spacing" textLength="9" x="230" y="195.731">2</text><text fill="#000000" font-family="sans-serif" font-size="13" lengthAdjust="spacing" textLength="219" x="243" y="195.731">Display confirmation messagebox</text><path d="M10,228.7969 L76,228.7969 L76,235.9297 L66,245.9297 L10,245.9297 L10,228.7969 " fill="#EEEEEE" style="stroke:#000000;stroke-width:1.5;"/><rect fill="none" height="507.6016" style="stroke:#000000;stroke-width:1.5;" width="768" x="10" y="228.7969"/><text fill="#000000" font-family="sans-serif" font-size="13" font-weight="bold" lengthAdjust="spacing" textLength="21" x="25" y="241.8638">alt</text><text fill="#000000" font-family="sans-serif" font-size="11" font-weight="bold" lengthAdjust="spacing" textLength="54" x="91" y="241.0073">[Cancel]</text><polygon fill="#181818" points="211,263.0625,221,267.0625,211,271.0625,215,267.0625" style="stroke:#181818;stroke-width:1.0;"/><line style="stroke:#181818;stroke-width:1.0;" x1="46" x2="217" y1="267.0625" y2="267.0625"/><text fill="#000000" font-family="sans-serif" font-size="13" font-weight="bold" lengthAdjust="spacing" textLength="8" x="53" y="261.9966">3</text><text fill="#000000" font-family="sans-serif" font-size="13" lengthAdjust="spacing" textLength="132" x="65" y="261.9966">Click "Cancel" button</text><line style="stroke:#181818;stroke-width:1.0;" x1="223" x2="265" y1="296.1953" y2="296.1953"/><line style="stroke:#181818;stroke-width:1.0;" x1="265" x2="265" y1="296.1953" y2="309.1953"/><line style="stroke:#181818;stroke-width:1.0;" x1="224" x2="265" y1="309.1953" y2="309.1953"/><polygon fill="#181818" points="234,305.1953,224,309.1953,234,313.1953,230,309.1953" style="stroke:#181818;stroke-width:1.0;"/><text fill="#000000" font-family="sans-serif" font-size="13" font-weight="bold" lengthAdjust="spacing" textLength="9" x="230" y="291.1294">4</text><text fill="#000000" font-family="sans-serif" font-size="13" lengthAdjust="spacing" textLength="211" x="243" y="291.1294">Close confirmation message box</text><line style="stroke:#000000;stroke-width:1.0;stroke-dasharray:2.0,2.0;" x1="10" x2="778" y1="318.1953" y2="318.1953"/><text fill="#000000" font-family="sans-serif" font-size="11" font-weight="bold" lengthAdjust="spacing" textLength="65" x="15" y="328.4058">[Confirm]</text><polygon fill="#181818" points="211,349.1328,221,353.1328,211,357.1328,215,353.1328" style="stroke:#181818;stroke-width:1.0;"/><line style="stroke:#181818;stroke-width:1.0;" x1="46" x2="217" y1="353.1328" y2="353.1328"/><text fill="#000000" font-family="sans-serif" font-size="13" font-weight="bold" lengthAdjust="spacing" textLength="9" x="53" y="348.0669">5</text><text fill="#000000" font-family="sans-serif" font-size="13" lengthAdjust="spacing" textLength="140" x="66" y="348.0669">Click "Confirm" button</text><polygon fill="#181818" points="640,378.2656,650,382.2656,640,386.2656,644,382.2656" style="stroke:#181818;stroke-width:1.0;"/><line style="stroke:#181818;stroke-width:1.0;" x1="469" x2="646" y1="382.2656" y2="382.2656"/><text fill="#000000" font-family="sans-serif" font-size="13" font-weight="bold" lengthAdjust="spacing" textLength="9" x="476" y="377.1997">6</text><text fill="#000000" font-family="sans-serif" font-size="13" lengthAdjust="spacing" textLength="146" x="489" y="377.1997">Delete selected parent</text><line style="stroke:#181818;stroke-width:1.0;" x1="652" x2="694" y1="411.3984" y2="411.3984"/><line style="stroke:#181818;stroke-width:1.0;" x1="694" x2="694" y1="411.3984" y2="424.3984"/><line style="stroke:#181818;stroke-width:1.0;" x1="653" x2="694" y1="424.3984" y2="424.3984"/><polygon fill="#181818" points="663,420.3984,653,424.3984,663,428.3984,659,424.3984" style="stroke:#181818;stroke-width:1.0;"/><text fill="#000000" font-family="sans-serif" font-size="13" font-weight="bold" lengthAdjust="spacing" textLength="9" x="659" y="406.3325">7</text><text fill="#000000" font-family="sans-serif" font-size="13" lengthAdjust="spacing" textLength="85" x="672" y="406.3325">Validate data</text><path d="M122,439.3984 L188,439.3984 L188,446.5313 L178,456.5313 L122,456.5313 L122,439.3984 " fill="#EEEEEE" style="stroke:#000000;stroke-width:1.5;"/><rect fill="none" height="290" style="stroke:#000000;stroke-width:1.5;" width="646" x="122" y="439.3984"/><text fill="#000000" font-family="sans-serif" font-size="13" font-weight="bold" lengthAdjust="spacing" textLength="21" x="137" y="452.4653">alt</text><text fill="#000000" font-family="sans-serif" font-size="11" font-weight="bold" lengthAdjust="spacing" textLength="88" x="203" y="451.6089">[Invalid data]</text><polygon fill="#181818" points="480,473.6641,470,477.6641,480,481.6641,476,477.6641" style="stroke:#181818;stroke-width:1.0;"/><line style="stroke:#181818;stroke-width:1.0;stroke-dasharray:2.0,2.0;" x1="474" x2="651" y1="477.6641" y2="477.6641"/><text fill="#000000" font-family="sans-serif" font-size="13" font-weight="bold" lengthAdjust="spacing" textLength="9" x="486" y="472.5981">8</text><text fill="#000000" font-family="sans-serif" font-size="13" lengthAdjust="spacing" textLength="106" x="499" y="472.5981">Error notification</text><polygon fill="#181818" points="234,502.7969,224,506.7969,234,510.7969,230,506.7969" style="stroke:#181818;stroke-width:1.0;"/><line style="stroke:#181818;stroke-width:1.0;stroke-dasharray:2.0,2.0;" x1="228" x2="468" y1="506.7969" y2="506.7969"/><text fill="#000000" font-family="sans-serif" font-size="13" font-weight="bold" lengthAdjust="spacing" textLength="9" x="240" y="501.731">9</text><text fill="#000000" font-family="sans-serif" font-size="13" lengthAdjust="spacing" textLength="106" x="253" y="501.731">Error notification</text><line style="stroke:#181818;stroke-width:1.0;" x1="223" x2="265" y1="535.9297" y2="535.9297"/><line style="stroke:#181818;stroke-width:1.0;" x1="265" x2="265" y1="535.9297" y2="548.9297"/><line style="stroke:#181818;stroke-width:1.0;" x1="224" x2="265" y1="548.9297" y2="548.9297"/><polygon fill="#181818" points="234,544.9297,224,548.9297,234,552.9297,230,548.9297" style="stroke:#181818;stroke-width:1.0;"/><text fill="#000000" font-family="sans-serif" font-size="13" font-weight="bold" lengthAdjust="spacing" textLength="19" x="230" y="530.8638">10</text><text fill="#000000" font-family="sans-serif" font-size="13" lengthAdjust="spacing" textLength="157" x="253" y="530.8638">Display error notification</text><line style="stroke:#000000;stroke-width:1.0;stroke-dasharray:2.0,2.0;" x1="122" x2="768" y1="557.9297" y2="557.9297"/><text fill="#000000" font-family="sans-serif" font-size="11" font-weight="bold" lengthAdjust="spacing" textLength="78" x="127" y="568.1401">[Valid data]</text><line style="stroke:#181818;stroke-width:1.0;" x1="652" x2="694" y1="592.8672" y2="592.8672"/><line style="stroke:#181818;stroke-width:1.0;" x1="694" x2="694" y1="592.8672" y2="605.8672"/><line style="stroke:#181818;stroke-width:1.0;" x1="653" x2="694" y1="605.8672" y2="605.8672"/><polygon fill="#181818" points="663,601.8672,653,605.8672,663,609.8672,659,605.8672" style="stroke:#181818;stroke-width:1.0;"/><text fill="#000000" font-family="sans-serif" font-size="13" font-weight="bold" lengthAdjust="spacing" textLength="18" x="659" y="587.8013">11</text><text fill="#000000" font-family="sans-serif" font-size="13" lengthAdjust="spacing" textLength="75" x="681" y="587.8013">Delete data</text><polygon fill="#181818" points="480,631,470,635,480,639,476,635" style="stroke:#181818;stroke-width:1.0;"/><line style="stroke:#181818;stroke-width:1.0;stroke-dasharray:2.0,2.0;" x1="474" x2="651" y1="635" y2="635"/><text fill="#000000" font-family="sans-serif" font-size="13" font-weight="bold" lengthAdjust="spacing" textLength="18" x="486" y="629.9341">12</text><text fill="#000000" font-family="sans-serif" font-size="13" lengthAdjust="spacing" textLength="127" x="508" y="629.9341">Success notification</text><polygon fill="#181818" points="234,660.1328,224,664.1328,234,668.1328,230,664.1328" style="stroke:#181818;stroke-width:1.0;"/><line style="stroke:#181818;stroke-width:1.0;stroke-dasharray:2.0,2.0;" x1="228" x2="468" y1="664.1328" y2="664.1328"/><text fill="#000000" font-family="sans-serif" font-size="13" font-weight="bold" lengthAdjust="spacing" textLength="17" x="240" y="659.0669">13</text><text fill="#000000" font-family="sans-serif" font-size="13" lengthAdjust="spacing" textLength="106" x="261" y="659.0669">Error notification</text><line style="stroke:#181818;stroke-width:1.0;" x1="223" x2="265" y1="708.3984" y2="708.3984"/><line style="stroke:#181818;stroke-width:1.0;" x1="265" x2="265" y1="708.3984" y2="721.3984"/><line style="stroke:#181818;stroke-width:1.0;" x1="224" x2="265" y1="721.3984" y2="721.3984"/><polygon fill="#181818" points="234,717.3984,224,721.3984,234,725.3984,230,721.3984" style="stroke:#181818;stroke-width:1.0;"/><text fill="#000000" font-family="sans-serif" font-size="13" font-weight="bold" lengthAdjust="spacing" textLength="18" x="230" y="695.7661">14</text><text fill="#000000" font-family="sans-serif" font-size="13" lengthAdjust="spacing" textLength="177" x="252" y="688.1997">Display success notification</text><text fill="#000000" font-family="sans-serif" font-size="13" lengthAdjust="spacing" textLength="116" x="252" y="703.3325">and list of parents</text><!--SRC=[pLJ1Ri8m3BtdAopEx0SuJ4A5mmwRfZ5nuk8cBaHB7PQaRFpztBHQaLh4kAs7Ah7zNf-VhMAJF3TrIK4Th26el4-b_rOATV81bgQsh4hViC5mXbSCnEaP6VTKosbhwKjfpoburoUBxkQ4K6us2MZvjdvvLofG1Vv4FUbyacm-Ofdt-0LiwBCXrYG73FhGLwhC1W-Fatmjof5ESCp97GCJcGX6eidoNas1hfEjR3mwF8EqNDbGOxAUeQOOfQfr3Ls20aMZ0r0WpmrnXRFw0sOTP0PbasGQ6NYVhiBvI9Ege9L5Jh95bxr7LeUOq3MC9vFq0rgrfXB4x3YPtlCEbaikYxVeh44fbnVccjQy9pwryI5u2VxLEtn-0UiGP4_P9rjPdLiVS2EjLpk-oNBlXj0qOPx4zdgB8pF_RiIcqLfc_l-iY1F2TenimDcOm5VzeiJE8JRoup0_]--></g></svg>