<?xml version="1.0" encoding="us-ascii" standalone="no"?><svg xmlns="http://www.w3.org/2000/svg" xmlns:xlink="http://www.w3.org/1999/xlink" contentStyleType="text/css" height="383px" preserveAspectRatio="none" style="width:643px;height:383px;background:#FFFFFF;" version="1.1" viewBox="0 0 643 383" width="643px" zoomAndPan="magnify"><defs/><g><line style="stroke:#181818;stroke-width:0.5;stroke-dasharray:5.0,5.0;" x1="31" x2="31" y1="81.2969" y2="376.625"/><line style="stroke:#181818;stroke-width:0.5;stroke-dasharray:5.0,5.0;" x1="202" x2="202" y1="81.2969" y2="376.625"/><line style="stroke:#181818;stroke-width:0.5;stroke-dasharray:5.0,5.0;" x1="382.5" x2="382.5" y1="81.2969" y2="376.625"/><line style="stroke:#181818;stroke-width:0.5;stroke-dasharray:5.0,5.0;" x1="544" x2="544" y1="81.2969" y2="376.625"/><text fill="#000000" font-family="sans-serif" font-size="14" lengthAdjust="spacing" textLength="46" x="5" y="77.9951">Admin</text><ellipse cx="31" cy="13.5" fill="#E2E2F0" rx="8" ry="8" style="stroke:#181818;stroke-width:0.5;"/><path d="M31,21.5 L31,48.5 M18,29.5 L44,29.5 M31,48.5 L18,63.5 M31,48.5 L44,63.5 " fill="none" style="stroke:#181818;stroke-width:0.5;"/><text fill="#000000" font-family="sans-serif" font-size="14" lengthAdjust="spacing" textLength="178" x="110" y="77.9951">DoctorManagementView</text><path d="M181.5,37 L181.5,61 M181.5,49 L198.5,49 " fill="none" style="stroke:#181818;stroke-width:0.5;"/><ellipse cx="210.5" cy="49" fill="#E2E2F0" rx="12" ry="12" style="stroke:#181818;stroke-width:0.5;"/><text fill="#000000" font-family="sans-serif" font-size="14" lengthAdjust="spacing" textLength="123" x="318.5" y="77.9951">DoctorController</text><ellipse cx="383" cy="49" fill="#E2E2F0" rx="12" ry="12" style="stroke:#181818;stroke-width:0.5;"/><polygon fill="#181818" points="379,37,385,32,383,37,385,42,379,37" style="stroke:#181818;stroke-width:1.0;"/><text fill="#000000" font-family="sans-serif" font-size="14" lengthAdjust="spacing" textLength="62" x="510" y="77.9951">DOCTOR</text><ellipse cx="544" cy="49" fill="#E2E2F0" rx="12" ry="12" style="stroke:#181818;stroke-width:0.5;"/><line style="stroke:#181818;stroke-width:0.5;" x1="532" x2="556" y1="63" y2="63"/><polygon fill="#181818" points="190,123.5625,200,127.5625,190,131.5625,194,127.5625" style="stroke:#181818;stroke-width:1.0;"/><line style="stroke:#181818;stroke-width:1.0;" x1="31" x2="196" y1="127.5625" y2="127.5625"/><text fill="#000000" font-family="sans-serif" font-size="13" font-weight="bold" lengthAdjust="spacing" textLength="9" x="38" y="114.9302">1</text><text fill="#000000" font-family="sans-serif" font-size="13" lengthAdjust="spacing" textLength="113" x="51" y="107.3638">Enters the search</text><text fill="#000000" font-family="sans-serif" font-size="13" lengthAdjust="spacing" textLength="134" x="51" y="122.4966">criteria in search box</text><polygon fill="#181818" points="371,167.8281,381,171.8281,371,175.8281,375,171.8281" style="stroke:#181818;stroke-width:1.0;"/><line style="stroke:#181818;stroke-width:1.0;" x1="202" x2="377" y1="171.8281" y2="171.8281"/><text fill="#000000" font-family="sans-serif" font-size="13" font-weight="bold" lengthAdjust="spacing" textLength="9" x="209" y="159.1958">2</text><text fill="#000000" font-family="sans-serif" font-size="13" lengthAdjust="spacing" textLength="144" x="222" y="151.6294">Send searching parent</text><text fill="#000000" font-family="sans-serif" font-size="13" lengthAdjust="spacing" textLength="127" x="222" y="166.7622">information request</text><polygon fill="#181818" points="532,212.0938,542,216.0938,532,220.0938,536,216.0938" style="stroke:#181818;stroke-width:1.0;"/><line style="stroke:#181818;stroke-width:1.0;" x1="383" x2="538" y1="216.0938" y2="216.0938"/><text fill="#000000" font-family="sans-serif" font-size="13" font-weight="bold" lengthAdjust="spacing" textLength="8" x="390" y="203.4614">3</text><text fill="#000000" font-family="sans-serif" font-size="13" lengthAdjust="spacing" textLength="125" x="402" y="195.895">Search parent base</text><text fill="#000000" font-family="sans-serif" font-size="13" lengthAdjust="spacing" textLength="121" x="402" y="211.0278">on given keywords</text><line style="stroke:#181818;stroke-width:1.0;" x1="544" x2="586" y1="245.2266" y2="245.2266"/><line style="stroke:#181818;stroke-width:1.0;" x1="586" x2="586" y1="245.2266" y2="258.2266"/><line style="stroke:#181818;stroke-width:1.0;" x1="545" x2="586" y1="258.2266" y2="258.2266"/><polygon fill="#181818" points="555,254.2266,545,258.2266,555,262.2266,551,258.2266" style="stroke:#181818;stroke-width:1.0;"/><text fill="#000000" font-family="sans-serif" font-size="13" font-weight="bold" lengthAdjust="spacing" textLength="9" x="551" y="240.1606">4</text><text fill="#000000" font-family="sans-serif" font-size="13" lengthAdjust="spacing" textLength="72" x="564" y="240.1606">Query data</text><polygon fill="#181818" points="394,283.3594,384,287.3594,394,291.3594,390,287.3594" style="stroke:#181818;stroke-width:1.0;"/><line style="stroke:#181818;stroke-width:1.0;stroke-dasharray:2.0,2.0;" x1="388" x2="543" y1="287.3594" y2="287.3594"/><text fill="#000000" font-family="sans-serif" font-size="13" font-weight="bold" lengthAdjust="spacing" textLength="9" x="400" y="282.2935">5</text><text fill="#000000" font-family="sans-serif" font-size="13" lengthAdjust="spacing" textLength="79" x="413" y="282.2935">Query result</text><polygon fill="#181818" points="213,312.4922,203,316.4922,213,320.4922,209,316.4922" style="stroke:#181818;stroke-width:1.0;"/><line style="stroke:#181818;stroke-width:1.0;stroke-dasharray:2.0,2.0;" x1="207" x2="382" y1="316.4922" y2="316.4922"/><text fill="#000000" font-family="sans-serif" font-size="13" font-weight="bold" lengthAdjust="spacing" textLength="9" x="219" y="311.4263">6</text><text fill="#000000" font-family="sans-serif" font-size="13" lengthAdjust="spacing" textLength="79" x="232" y="311.4263">Query result</text><line style="stroke:#181818;stroke-width:1.0;" x1="202" x2="244" y1="345.625" y2="345.625"/><line style="stroke:#181818;stroke-width:1.0;" x1="244" x2="244" y1="345.625" y2="358.625"/><line style="stroke:#181818;stroke-width:1.0;" x1="203" x2="244" y1="358.625" y2="358.625"/><polygon fill="#181818" points="213,354.625,203,358.625,213,362.625,209,358.625" style="stroke:#181818;stroke-width:1.0;"/><text fill="#000000" font-family="sans-serif" font-size="13" font-weight="bold" lengthAdjust="spacing" textLength="9" x="209" y="340.5591">7</text><text fill="#000000" font-family="sans-serif" font-size="13" lengthAdjust="spacing" textLength="139" x="222" y="340.5591">Display list of parents</text><!--SRC=[TP1BRiCm34JtEWKlq0jaKQ18kYo2Vj2LDxHDsqHjCg6efhvzvG-Q8d2M6iuR3Od9LT9GaeMEQu96rKlz2G4hLuEdUc09fIQfqKOuwAI-e61B0ub_Cbr2fUAc_JhSBwy-1sO3UuQE-u_ZMmXp5ZmyRgRiu5cSB89t197GggwGoZXhZ92vHOEfsnP_pRqMsC4xIRsIB2sSqBAz49P6RK1d5J0w9ueURk4vS6u-nSn_BpYK6AcGZBRyJG9VD5xKwXWMzt_kDL4-MesEVyFDcelFAAP-gyZTasrmzwvoYnuuddeSeUVeeCswM_m5]--></g></svg>