<?xml version="1.0" encoding="us-ascii" standalone="no"?><svg xmlns="http://www.w3.org/2000/svg" xmlns:xlink="http://www.w3.org/1999/xlink" contentStyleType="text/css" height="962px" preserveAspectRatio="none" style="width:983px;height:962px;background:#FFFFFF;" version="1.1" viewBox="0 0 983 962" width="983px" zoomAndPan="magnify"><defs/><g><rect fill="none" height="550.7344" style="stroke:#000000;stroke-width:1.5;" width="966.5" x="10" y="387.4609"/><rect fill="none" height="304" style="stroke:#000000;stroke-width:1.5;" width="874.5" x="85" y="627.1953"/><line style="stroke:#181818;stroke-width:0.5;stroke-dasharray:5.0,5.0;" x1="46" x2="46" y1="81.2969" y2="955.1953"/><line style="stroke:#181818;stroke-width:0.5;stroke-dasharray:5.0,5.0;" x1="186" x2="186" y1="81.2969" y2="955.1953"/><line style="stroke:#181818;stroke-width:0.5;stroke-dasharray:5.0,5.0;" x1="373" x2="373" y1="81.2969" y2="955.1953"/><line style="stroke:#181818;stroke-width:0.5;stroke-dasharray:5.0,5.0;" x1="610" x2="610" y1="81.2969" y2="955.1953"/><line style="stroke:#181818;stroke-width:0.5;stroke-dasharray:5.0,5.0;" x1="851" x2="851" y1="81.2969" y2="955.1953"/><text fill="#000000" font-family="sans-serif" font-size="14" lengthAdjust="spacing" textLength="46" x="20" y="77.9951">Admin</text><ellipse cx="46" cy="13.5" fill="#E2E2F0" rx="8" ry="8" style="stroke:#181818;stroke-width:0.5;"/><path d="M46,21.5 L46,48.5 M33,29.5 L59,29.5 M46,48.5 L33,63.5 M46,48.5 L59,63.5 " fill="none" style="stroke:#181818;stroke-width:0.5;"/><text fill="#000000" font-family="sans-serif" font-size="14" lengthAdjust="spacing" textLength="176" x="95" y="77.9951">ParentManagementView</text><path d="M165.5,37 L165.5,61 M165.5,49 L182.5,49 " fill="none" style="stroke:#181818;stroke-width:0.5;"/><ellipse cx="194.5" cy="49" fill="#E2E2F0" rx="12" ry="12" style="stroke:#181818;stroke-width:0.5;"/><text fill="#000000" font-family="sans-serif" font-size="14" lengthAdjust="spacing" textLength="167" x="287" y="77.9951">ParentInformationView</text><path d="M353,37 L353,61 M353,49 L370,49 " fill="none" style="stroke:#181818;stroke-width:0.5;"/><ellipse cx="382" cy="49" fill="#E2E2F0" rx="12" ry="12" style="stroke:#181818;stroke-width:0.5;"/><text fill="#000000" font-family="sans-serif" font-size="14" lengthAdjust="spacing" textLength="121" x="547" y="77.9951">ParentController</text><ellipse cx="610.5" cy="49" fill="#E2E2F0" rx="12" ry="12" style="stroke:#181818;stroke-width:0.5;"/><polygon fill="#181818" points="606.5,37,612.5,32,610.5,37,612.5,42,606.5,37" style="stroke:#181818;stroke-width:1.0;"/><text fill="#000000" font-family="sans-serif" font-size="14" lengthAdjust="spacing" textLength="57" x="820" y="77.9951">PARENT</text><ellipse cx="851.5" cy="49" fill="#E2E2F0" rx="12" ry="12" style="stroke:#181818;stroke-width:0.5;"/><line style="stroke:#181818;stroke-width:0.5;" x1="839.5" x2="863.5" y1="63" y2="63"/><rect fill="none" height="39.1016" style="stroke:#000000;stroke-width:1.5;" width="869" x="17" y="91.2969"/><path d="M17,91.2969 L85,91.2969 L85,98.2969 L75,108.2969 L17,108.2969 L17,91.2969 " fill="#EEEEEE" style="stroke:#000000;stroke-width:2.0;"/><text fill="#000000" font-family="sans-serif" font-size="13" font-weight="bold" lengthAdjust="spacing" textLength="23" x="30" y="105.3638">ref</text><text fill="#000000" font-family="sans-serif" font-size="12" lengthAdjust="spacing" textLength="148" x="377.5" y="123.4355">Sequence Search Parent</text><polygon fill="#181818" points="174,167.6641,184,171.6641,174,175.6641,178,171.6641" style="stroke:#181818;stroke-width:1.0;"/><line style="stroke:#181818;stroke-width:1.0;" x1="46" x2="180" y1="171.6641" y2="171.6641"/><text fill="#000000" font-family="sans-serif" font-size="13" font-weight="bold" lengthAdjust="spacing" textLength="9" x="53" y="159.0317">1</text><text fill="#000000" font-family="sans-serif" font-size="13" lengthAdjust="spacing" textLength="85" x="66" y="151.4653">Select parent</text><text fill="#000000" font-family="sans-serif" font-size="13" lengthAdjust="spacing" textLength="99" x="70" y="166.5981">needs updating</text><polygon fill="#181818" points="598.5,196.7969,608.5,200.7969,598.5,204.7969,602.5,200.7969" style="stroke:#181818;stroke-width:1.0;"/><line style="stroke:#181818;stroke-width:1.0;" x1="186" x2="604.5" y1="200.7969" y2="200.7969"/><text fill="#000000" font-family="sans-serif" font-size="13" font-weight="bold" lengthAdjust="spacing" textLength="9" x="193" y="195.731">2</text><text fill="#000000" font-family="sans-serif" font-size="13" lengthAdjust="spacing" textLength="205" x="206" y="195.731">Get selected parent information</text><polygon fill="#181818" points="839.5,225.9297,849.5,229.9297,839.5,233.9297,843.5,229.9297" style="stroke:#181818;stroke-width:1.0;"/><line style="stroke:#181818;stroke-width:1.0;" x1="610.5" x2="845.5" y1="229.9297" y2="229.9297"/><text fill="#000000" font-family="sans-serif" font-size="13" font-weight="bold" lengthAdjust="spacing" textLength="8" x="617.5" y="224.8638">3</text><text fill="#000000" font-family="sans-serif" font-size="13" lengthAdjust="spacing" textLength="205" x="629.5" y="224.8638">Get selected parent information</text><polygon fill="#181818" points="384.5,255.0625,374.5,259.0625,384.5,263.0625,380.5,259.0625" style="stroke:#181818;stroke-width:1.0;"/><line style="stroke:#181818;stroke-width:1.0;stroke-dasharray:2.0,2.0;" x1="378.5" x2="850.5" y1="259.0625" y2="259.0625"/><text fill="#000000" font-family="sans-serif" font-size="13" font-weight="bold" lengthAdjust="spacing" textLength="9" x="390.5" y="253.9966">4</text><text fill="#000000" font-family="sans-serif" font-size="13" lengthAdjust="spacing" textLength="179" x="403.5" y="253.9966">Selected parent information</text><line style="stroke:#181818;stroke-width:1.0;" x1="373.5" x2="415.5" y1="288.1953" y2="288.1953"/><line style="stroke:#181818;stroke-width:1.0;" x1="415.5" x2="415.5" y1="288.1953" y2="301.1953"/><line style="stroke:#181818;stroke-width:1.0;" x1="374.5" x2="415.5" y1="301.1953" y2="301.1953"/><polygon fill="#181818" points="384.5,297.1953,374.5,301.1953,384.5,305.1953,380.5,301.1953" style="stroke:#181818;stroke-width:1.0;"/><text fill="#000000" font-family="sans-serif" font-size="13" font-weight="bold" lengthAdjust="spacing" textLength="9" x="380.5" y="283.1294">5</text><text fill="#000000" font-family="sans-serif" font-size="13" lengthAdjust="spacing" textLength="171" x="393.5" y="283.1294">Display parent information</text><polygon fill="#181818" points="361.5,326.3281,371.5,330.3281,361.5,334.3281,365.5,330.3281" style="stroke:#181818;stroke-width:1.0;"/><line style="stroke:#181818;stroke-width:1.0;" x1="46" x2="367.5" y1="330.3281" y2="330.3281"/><text fill="#000000" font-family="sans-serif" font-size="13" font-weight="bold" lengthAdjust="spacing" textLength="9" x="53" y="325.2622">6</text><text fill="#000000" font-family="sans-serif" font-size="13" lengthAdjust="spacing" textLength="158" x="66" y="325.2622">Enter parent information</text><line style="stroke:#181818;stroke-width:1.0;" x1="373.5" x2="415.5" y1="359.4609" y2="359.4609"/><line style="stroke:#181818;stroke-width:1.0;" x1="415.5" x2="415.5" y1="359.4609" y2="372.4609"/><line style="stroke:#181818;stroke-width:1.0;" x1="374.5" x2="415.5" y1="372.4609" y2="372.4609"/><polygon fill="#181818" points="384.5,368.4609,374.5,372.4609,384.5,376.4609,380.5,372.4609" style="stroke:#181818;stroke-width:1.0;"/><text fill="#000000" font-family="sans-serif" font-size="13" font-weight="bold" lengthAdjust="spacing" textLength="9" x="380.5" y="354.395">7</text><text fill="#000000" font-family="sans-serif" font-size="13" lengthAdjust="spacing" textLength="85" x="393.5" y="354.395">Validate data</text><path d="M10,387.4609 L76,387.4609 L76,394.5938 L66,404.5938 L10,404.5938 L10,387.4609 " fill="#EEEEEE" style="stroke:#000000;stroke-width:1.5;"/><rect fill="none" height="550.7344" style="stroke:#000000;stroke-width:1.5;" width="966.5" x="10" y="387.4609"/><text fill="#000000" font-family="sans-serif" font-size="13" font-weight="bold" lengthAdjust="spacing" textLength="21" x="25" y="400.5278">alt</text><text fill="#000000" font-family="sans-serif" font-size="11" font-weight="bold" lengthAdjust="spacing" textLength="88" x="91" y="399.6714">[Invalid data]</text><polygon fill="#181818" points="57,421.7266,47,425.7266,57,429.7266,53,425.7266" style="stroke:#181818;stroke-width:1.0;"/><line style="stroke:#181818;stroke-width:1.0;stroke-dasharray:2.0,2.0;" x1="51" x2="372.5" y1="425.7266" y2="425.7266"/><text fill="#000000" font-family="sans-serif" font-size="13" font-weight="bold" lengthAdjust="spacing" textLength="9" x="63" y="420.6606">8</text><text fill="#000000" font-family="sans-serif" font-size="13" lengthAdjust="spacing" textLength="106" x="76" y="420.6606">Error notification</text><line style="stroke:#181818;stroke-width:1.0;" x1="373.5" x2="415.5" y1="454.8594" y2="454.8594"/><line style="stroke:#181818;stroke-width:1.0;" x1="415.5" x2="415.5" y1="454.8594" y2="467.8594"/><line style="stroke:#181818;stroke-width:1.0;" x1="374.5" x2="415.5" y1="467.8594" y2="467.8594"/><polygon fill="#181818" points="384.5,463.8594,374.5,467.8594,384.5,471.8594,380.5,467.8594" style="stroke:#181818;stroke-width:1.0;"/><text fill="#000000" font-family="sans-serif" font-size="13" font-weight="bold" lengthAdjust="spacing" textLength="9" x="380.5" y="449.7935">9</text><text fill="#000000" font-family="sans-serif" font-size="13" lengthAdjust="spacing" textLength="157" x="393.5" y="449.7935">Display error notification</text><line style="stroke:#000000;stroke-width:1.0;stroke-dasharray:2.0,2.0;" x1="10" x2="976.5" y1="476.8594" y2="476.8594"/><text fill="#000000" font-family="sans-serif" font-size="11" font-weight="bold" lengthAdjust="spacing" textLength="78" x="15" y="487.0698">[Valid data]</text><polygon fill="#181818" points="361.5,507.7969,371.5,511.7969,361.5,515.7969,365.5,511.7969" style="stroke:#181818;stroke-width:1.0;"/><line style="stroke:#181818;stroke-width:1.0;" x1="46" x2="367.5" y1="511.7969" y2="511.7969"/><text fill="#000000" font-family="sans-serif" font-size="13" font-weight="bold" lengthAdjust="spacing" textLength="19" x="53" y="506.731">10</text><text fill="#000000" font-family="sans-serif" font-size="13" lengthAdjust="spacing" textLength="191" x="76" y="506.731">Click button "Save" to confirm</text><polygon fill="#181818" points="598.5,536.9297,608.5,540.9297,598.5,544.9297,602.5,540.9297" style="stroke:#181818;stroke-width:1.0;"/><line style="stroke:#181818;stroke-width:1.0;" x1="373.5" x2="604.5" y1="540.9297" y2="540.9297"/><text fill="#000000" font-family="sans-serif" font-size="13" font-weight="bold" lengthAdjust="spacing" textLength="18" x="380.5" y="535.8638">11</text><text fill="#000000" font-family="sans-serif" font-size="13" lengthAdjust="spacing" textLength="191" x="402.5" y="535.8638">Send updating parent request</text><polygon fill="#181818" points="839.5,566.0625,849.5,570.0625,839.5,574.0625,843.5,570.0625" style="stroke:#181818;stroke-width:1.0;"/><line style="stroke:#181818;stroke-width:1.0;" x1="610.5" x2="845.5" y1="570.0625" y2="570.0625"/><text fill="#000000" font-family="sans-serif" font-size="13" font-weight="bold" lengthAdjust="spacing" textLength="18" x="617.5" y="564.9966">12</text><text fill="#000000" font-family="sans-serif" font-size="13" lengthAdjust="spacing" textLength="110" x="639.5" y="564.9966">Send information</text><line style="stroke:#181818;stroke-width:1.0;" x1="851.5" x2="893.5" y1="599.1953" y2="599.1953"/><line style="stroke:#181818;stroke-width:1.0;" x1="893.5" x2="893.5" y1="599.1953" y2="612.1953"/><line style="stroke:#181818;stroke-width:1.0;" x1="852.5" x2="893.5" y1="612.1953" y2="612.1953"/><polygon fill="#181818" points="862.5,608.1953,852.5,612.1953,862.5,616.1953,858.5,612.1953" style="stroke:#181818;stroke-width:1.0;"/><text fill="#000000" font-family="sans-serif" font-size="13" font-weight="bold" lengthAdjust="spacing" textLength="17" x="858.5" y="594.1294">13</text><text fill="#000000" font-family="sans-serif" font-size="13" lengthAdjust="spacing" textLength="85" x="879.5" y="594.1294">Validate data</text><path d="M85,627.1953 L151,627.1953 L151,634.3281 L141,644.3281 L85,644.3281 L85,627.1953 " fill="#EEEEEE" style="stroke:#000000;stroke-width:1.5;"/><rect fill="none" height="304" style="stroke:#000000;stroke-width:1.5;" width="874.5" x="85" y="627.1953"/><text fill="#000000" font-family="sans-serif" font-size="13" font-weight="bold" lengthAdjust="spacing" textLength="21" x="100" y="640.2622">alt</text><text fill="#000000" font-family="sans-serif" font-size="11" font-weight="bold" lengthAdjust="spacing" textLength="88" x="166" y="639.4058">[Invalid data]</text><polygon fill="#181818" points="621.5,661.4609,611.5,665.4609,621.5,669.4609,617.5,665.4609" style="stroke:#181818;stroke-width:1.0;"/><line style="stroke:#181818;stroke-width:1.0;stroke-dasharray:2.0,2.0;" x1="615.5" x2="850.5" y1="665.4609" y2="665.4609"/><text fill="#000000" font-family="sans-serif" font-size="13" font-weight="bold" lengthAdjust="spacing" textLength="18" x="627.5" y="660.395">14</text><text fill="#000000" font-family="sans-serif" font-size="13" lengthAdjust="spacing" textLength="106" x="649.5" y="660.395">Error notification</text><polygon fill="#181818" points="384.5,690.5938,374.5,694.5938,384.5,698.5938,380.5,694.5938" style="stroke:#181818;stroke-width:1.0;"/><line style="stroke:#181818;stroke-width:1.0;stroke-dasharray:2.0,2.0;" x1="378.5" x2="609.5" y1="694.5938" y2="694.5938"/><text fill="#000000" font-family="sans-serif" font-size="13" font-weight="bold" lengthAdjust="spacing" textLength="18" x="390.5" y="689.5278">15</text><text fill="#000000" font-family="sans-serif" font-size="13" lengthAdjust="spacing" textLength="106" x="412.5" y="689.5278">Error notification</text><line style="stroke:#181818;stroke-width:1.0;" x1="373.5" x2="415.5" y1="723.7266" y2="723.7266"/><line style="stroke:#181818;stroke-width:1.0;" x1="415.5" x2="415.5" y1="723.7266" y2="736.7266"/><line style="stroke:#181818;stroke-width:1.0;" x1="374.5" x2="415.5" y1="736.7266" y2="736.7266"/><polygon fill="#181818" points="384.5,732.7266,374.5,736.7266,384.5,740.7266,380.5,736.7266" style="stroke:#181818;stroke-width:1.0;"/><text fill="#000000" font-family="sans-serif" font-size="13" font-weight="bold" lengthAdjust="spacing" textLength="18" x="380.5" y="718.6606">16</text><text fill="#000000" font-family="sans-serif" font-size="13" lengthAdjust="spacing" textLength="157" x="402.5" y="718.6606">Display error notification</text><line style="stroke:#000000;stroke-width:1.0;stroke-dasharray:2.0,2.0;" x1="85" x2="959.5" y1="745.7266" y2="745.7266"/><text fill="#000000" font-family="sans-serif" font-size="11" font-weight="bold" lengthAdjust="spacing" textLength="78" x="90" y="755.937">[Valid data]</text><line style="stroke:#181818;stroke-width:1.0;" x1="851.5" x2="893.5" y1="780.6641" y2="780.6641"/><line style="stroke:#181818;stroke-width:1.0;" x1="893.5" x2="893.5" y1="780.6641" y2="793.6641"/><line style="stroke:#181818;stroke-width:1.0;" x1="852.5" x2="893.5" y1="793.6641" y2="793.6641"/><polygon fill="#181818" points="862.5,789.6641,852.5,793.6641,862.5,797.6641,858.5,793.6641" style="stroke:#181818;stroke-width:1.0;"/><text fill="#000000" font-family="sans-serif" font-size="13" font-weight="bold" lengthAdjust="spacing" textLength="18" x="858.5" y="775.5981">17</text><text fill="#000000" font-family="sans-serif" font-size="13" lengthAdjust="spacing" textLength="67" x="880.5" y="775.5981">Store data</text><polygon fill="#181818" points="621.5,818.7969,611.5,822.7969,621.5,826.7969,617.5,822.7969" style="stroke:#181818;stroke-width:1.0;"/><line style="stroke:#181818;stroke-width:1.0;stroke-dasharray:2.0,2.0;" x1="615.5" x2="850.5" y1="822.7969" y2="822.7969"/><text fill="#000000" font-family="sans-serif" font-size="13" font-weight="bold" lengthAdjust="spacing" textLength="18" x="627.5" y="817.731">18</text><text fill="#000000" font-family="sans-serif" font-size="13" lengthAdjust="spacing" textLength="127" x="649.5" y="817.731">Success notification</text><polygon fill="#181818" points="384.5,847.9297,374.5,851.9297,384.5,855.9297,380.5,851.9297" style="stroke:#181818;stroke-width:1.0;"/><line style="stroke:#181818;stroke-width:1.0;stroke-dasharray:2.0,2.0;" x1="378.5" x2="609.5" y1="851.9297" y2="851.9297"/><text fill="#000000" font-family="sans-serif" font-size="13" font-weight="bold" lengthAdjust="spacing" textLength="18" x="390.5" y="846.8638">19</text><text fill="#000000" font-family="sans-serif" font-size="13" lengthAdjust="spacing" textLength="127" x="412.5" y="846.8638">Success notification</text><line style="stroke:#181818;stroke-width:1.0;" x1="373.5" x2="415.5" y1="881.0625" y2="881.0625"/><line style="stroke:#181818;stroke-width:1.0;" x1="415.5" x2="415.5" y1="881.0625" y2="894.0625"/><line style="stroke:#181818;stroke-width:1.0;" x1="374.5" x2="415.5" y1="894.0625" y2="894.0625"/><polygon fill="#181818" points="384.5,890.0625,374.5,894.0625,384.5,898.0625,380.5,894.0625" style="stroke:#181818;stroke-width:1.0;"/><text fill="#000000" font-family="sans-serif" font-size="13" font-weight="bold" lengthAdjust="spacing" textLength="19" x="380.5" y="875.9966">20</text><text fill="#000000" font-family="sans-serif" font-size="13" lengthAdjust="spacing" textLength="69" x="403.5" y="875.9966">Close view</text><polygon fill="#181818" points="197,919.1953,187,923.1953,197,927.1953,193,923.1953" style="stroke:#181818;stroke-width:1.0;"/><line style="stroke:#181818;stroke-width:1.0;" x1="191" x2="609.5" y1="923.1953" y2="923.1953"/><text fill="#000000" font-family="sans-serif" font-size="13" font-weight="bold" lengthAdjust="spacing" textLength="18" x="203" y="918.1294">21</text><text fill="#000000" font-family="sans-serif" font-size="13" lengthAdjust="spacing" textLength="297" x="225" y="918.1294">Display success notification and list of parents</text><!--SRC=[hLMzJiCm4Dxz52VczWKOaAfIeGuWH10JYsjVYeLpBhPJuEsvE2afgTCMGOOeYVtz-Bkp8-legAvMwCMBqGYbSt7bFeIGAZeFCrqP4YjNavR-4-wbHugtakGQAtvwClW-75rIwNmbet6KXfMZw9tjHkVjcsKzVZEHKRE7nTsZ41vBS5liD2TPhKbUOt90FkbeBw70jnf98Jz8hrwwcIA9mFGgAzEWBAe8cpJuJ428Ea2zqQn9Qv43zMIzZKkumGWXaQ7kwC3qxiKGaLWwwoUnQHvCluK7iUoMSKnv085nhciJDbP-vgW6OHv05nHvPOT0W5-xU9BMS14G-2Q5j16Mj6s-jH-0hn5Avam-sOxttDhaeYcDQbTm17So43oaGnkmjThREXNIt1hr2giwyeQ4Yq9kyGAY0zu-fV7LEGxt-wv0qj_zkelUDtiXn3skVECby7w14w3hjdxQpreqSxBrs0TdlOxK8-_oI9UTelcNqZPqkVBc8ohu4CLVH57KIc48Vm_Z3ABpuvXRnmlUDgVvk9UnetINPSWu0icDPas8uCgkIKERC6d-F-Wl]--></g></svg>