<?xml version="1.0" encoding="us-ascii" standalone="no"?><svg xmlns="http://www.w3.org/2000/svg" xmlns:xlink="http://www.w3.org/1999/xlink" contentStyleType="text/css" height="752px" preserveAspectRatio="none" style="width:1036px;height:752px;background:#FFFFFF;" version="1.1" viewBox="0 0 1036 752" width="1036px" zoomAndPan="magnify"><defs/><g><rect fill="none" height="20.9531" style="stroke:none;stroke-width:1.0;" width="1003.5" x="15" y="12.7451"/><ellipse cx="227.5" cy="48.6982" fill="#222222" rx="10" ry="10" style="stroke:#222222;stroke-width:1.0;"/><rect fill="#F1F1F1" height="47.9375" rx="12.5" ry="12.5" style="stroke:#181818;stroke-width:0.5;" width="137" x="159" y="78.6982"/><text fill="#000000" font-family="sans-serif" font-size="12" lengthAdjust="spacing" textLength="100" x="169" y="99.8369">Execute "Activity</text><text fill="#000000" font-family="sans-serif" font-size="12" lengthAdjust="spacing" textLength="117" x="169" y="113.8057">Search Child Event"</text><rect fill="#F1F1F1" height="47.9375" rx="12.5" ry="12.5" style="stroke:#181818;stroke-width:0.5;" width="111" x="172" y="146.6357"/><text fill="#000000" font-family="sans-serif" font-size="12" lengthAdjust="spacing" textLength="76" x="182" y="167.7744">Select event</text><text fill="#000000" font-family="sans-serif" font-size="12" lengthAdjust="spacing" textLength="91" x="182" y="181.7432">needs deleting</text><rect fill="#F1F1F1" height="33.9688" rx="12.5" ry="12.5" style="stroke:#181818;stroke-width:0.5;" width="144" x="21" y="326.5107"/><text fill="#000000" font-family="sans-serif" font-size="12" lengthAdjust="spacing" textLength="124" x="31" y="347.6494">Click "Cancel" button</text><ellipse cx="93" cy="390.4795" fill="none" rx="10" ry="10" style="stroke:#222222;stroke-width:1.5;"/><line style="stroke:#222222;stroke-width:2.5;" x1="86.8128" x2="99.1872" y1="384.2923" y2="396.6667"/><line style="stroke:#222222;stroke-width:2.5;" x1="99.1872" x2="86.8128" y1="384.2923" y2="396.6667"/><rect fill="#F1F1F1" height="33.9688" rx="12.5" ry="12.5" style="stroke:#181818;stroke-width:0.5;" width="150" x="287" y="326.5107"/><text fill="#000000" font-family="sans-serif" font-size="12" lengthAdjust="spacing" textLength="130" x="297" y="347.6494">Click "Confirm" button</text><line style="stroke:#000000;stroke-width:1.5;" x1="15" x2="15" y1="12.7451" y2="740.292"/><rect fill="#F1F1F1" height="47.9375" rx="12.5" ry="12.5" style="stroke:#181818;stroke-width:0.5;" width="142" x="447" y="214.5732"/><text fill="#000000" font-family="sans-serif" font-size="12" lengthAdjust="spacing" textLength="122" x="457" y="235.7119">Display confirmation</text><text fill="#000000" font-family="sans-serif" font-size="12" lengthAdjust="spacing" textLength="79" x="457" y="249.6807">messagebox</text><polygon fill="#F1F1F1" points="518,282.5107,518,282.5107,530,294.5107,518,306.5107,518,306.5107,506,294.5107,518,282.5107" style="stroke:#181818;stroke-width:0.5;"/><text fill="#000000" font-family="sans-serif" font-size="11" lengthAdjust="spacing" textLength="39" x="467" y="291.9165">Cancel</text><text fill="#000000" font-family="sans-serif" font-size="11" lengthAdjust="spacing" textLength="44" x="530" y="291.9165">Confirm</text><rect fill="#F1F1F1" height="33.9688" rx="12.5" ry="12.5" style="stroke:#181818;stroke-width:0.5;" width="172" x="566.5" y="380.4795"/><text fill="#000000" font-family="sans-serif" font-size="12" lengthAdjust="spacing" textLength="152" x="576.5" y="401.6182">Process deleting request</text><rect fill="#F1F1F1" height="33.9688" rx="12.5" ry="12.5" style="stroke:#181818;stroke-width:0.5;" width="168" x="485.5" y="532.417"/><text fill="#000000" font-family="sans-serif" font-size="12" lengthAdjust="spacing" textLength="148" x="495.5" y="553.5557">Display error notification</text><rect fill="#F1F1F1" height="61.9063" rx="12.5" ry="12.5" style="stroke:#181818;stroke-width:0.5;" width="124" x="673.5" y="586.3857"/><text fill="#000000" font-family="sans-serif" font-size="12" lengthAdjust="spacing" textLength="98" x="683.5" y="607.5244">Display success</text><text fill="#000000" font-family="sans-serif" font-size="12" lengthAdjust="spacing" textLength="65" x="683.5" y="621.4932">notification</text><text fill="#000000" font-family="sans-serif" font-size="12" lengthAdjust="spacing" textLength="104" x="683.5" y="635.4619">and list of events</text><line style="stroke:#000000;stroke-width:1.5;" x1="441" x2="441" y1="12.7451" y2="740.292"/><rect fill="#F1F1F1" height="33.9688" rx="12.5" ry="12.5" style="stroke:#181818;stroke-width:0.5;" width="98" x="835.5" y="434.4482"/><text fill="#000000" font-family="sans-serif" font-size="12" lengthAdjust="spacing" textLength="78" x="845.5" y="455.5869">Validate data</text><polygon fill="#F1F1F1" points="884.5,488.417,884.5,488.417,896.5,500.417,884.5,512.417,884.5,512.417,872.5,500.417,884.5,488.417" style="stroke:#181818;stroke-width:0.5;"/><text fill="#000000" font-family="sans-serif" font-size="11" lengthAdjust="spacing" textLength="66" x="806.5" y="497.8228">Invalid data</text><text fill="#000000" font-family="sans-serif" font-size="11" lengthAdjust="spacing" textLength="57" x="896.5" y="497.8228">Valid data</text><rect fill="#F1F1F1" height="33.9688" rx="12.5" ry="12.5" style="stroke:#181818;stroke-width:0.5;" width="90" x="922.5" y="532.417"/><text fill="#000000" font-family="sans-serif" font-size="12" lengthAdjust="spacing" textLength="70" x="932.5" y="553.5557">Delete data</text><polygon fill="#F1F1F1" points="884.5,658.292,896.5,670.292,884.5,682.292,872.5,670.292,884.5,658.292" style="stroke:#181818;stroke-width:0.5;"/><ellipse cx="884.5" cy="713.292" fill="none" rx="11" ry="11" style="stroke:#222222;stroke-width:1.0;"/><ellipse cx="884.5" cy="713.292" fill="#222222" rx="6" ry="6" style="stroke:#222222;stroke-width:1.0;"/><line style="stroke:#000000;stroke-width:1.5;" x1="801.5" x2="801.5" y1="12.7451" y2="740.292"/><line style="stroke:#000000;stroke-width:1.5;" x1="1016.5" x2="1016.5" y1="12.7451" y2="740.292"/><line style="stroke:#181818;stroke-width:1.0;" x1="227.5" x2="227.5" y1="58.6982" y2="78.6982"/><polygon fill="#181818" points="223.5,68.6982,227.5,78.6982,231.5,68.6982,227.5,72.6982" style="stroke:#181818;stroke-width:1.0;"/><line style="stroke:#181818;stroke-width:1.0;" x1="227.5" x2="227.5" y1="126.6357" y2="146.6357"/><polygon fill="#181818" points="223.5,136.6357,227.5,146.6357,231.5,136.6357,227.5,140.6357" style="stroke:#181818;stroke-width:1.0;"/><line style="stroke:#181818;stroke-width:1.0;" x1="93" x2="93" y1="360.4795" y2="380.4795"/><polygon fill="#181818" points="89,370.4795,93,380.4795,97,370.4795,93,374.4795" style="stroke:#181818;stroke-width:1.0;"/><line style="stroke:#181818;stroke-width:1.0;" x1="518" x2="518" y1="262.5107" y2="282.5107"/><polygon fill="#181818" points="514,272.5107,518,282.5107,522,272.5107,518,276.5107" style="stroke:#181818;stroke-width:1.0;"/><line style="stroke:#181818;stroke-width:1.0;" x1="896.5" x2="967.5" y1="500.417" y2="500.417"/><line style="stroke:#181818;stroke-width:1.0;" x1="967.5" x2="967.5" y1="500.417" y2="532.417"/><polygon fill="#181818" points="963.5,522.417,967.5,532.417,971.5,522.417,967.5,526.417" style="stroke:#181818;stroke-width:1.0;"/><line style="stroke:#181818;stroke-width:1.0;" x1="884.5" x2="884.5" y1="468.417" y2="488.417"/><polygon fill="#181818" points="880.5,478.417,884.5,488.417,888.5,478.417,884.5,482.417" style="stroke:#181818;stroke-width:1.0;"/><line style="stroke:#181818;stroke-width:1.0;" x1="884.5" x2="884.5" y1="682.292" y2="702.292"/><polygon fill="#181818" points="880.5,692.292,884.5,702.292,888.5,692.292,884.5,696.292" style="stroke:#181818;stroke-width:1.0;"/><line style="stroke:#181818;stroke-width:1.0;" x1="227.5" x2="227.5" y1="194.5732" y2="199.5732"/><line style="stroke:#181818;stroke-width:1.0;" x1="227.5" x2="518" y1="199.5732" y2="199.5732"/><line style="stroke:#181818;stroke-width:1.0;" x1="518" x2="518" y1="199.5732" y2="214.5732"/><polygon fill="#181818" points="514,204.5732,518,214.5732,522,204.5732,518,208.5732" style="stroke:#181818;stroke-width:1.0;"/><line style="stroke:#181818;stroke-width:1.0;" x1="362" x2="362" y1="360.4795" y2="365.4795"/><line style="stroke:#181818;stroke-width:1.0;" x1="362" x2="652.5" y1="365.4795" y2="365.4795"/><line style="stroke:#181818;stroke-width:1.0;" x1="652.5" x2="652.5" y1="365.4795" y2="380.4795"/><polygon fill="#181818" points="648.5,370.4795,652.5,380.4795,656.5,370.4795,652.5,374.4795" style="stroke:#181818;stroke-width:1.0;"/><line style="stroke:#181818;stroke-width:1.0;" x1="652.5" x2="652.5" y1="414.4482" y2="419.4482"/><line style="stroke:#181818;stroke-width:1.0;" x1="652.5" x2="884.5" y1="419.4482" y2="419.4482"/><line style="stroke:#181818;stroke-width:1.0;" x1="884.5" x2="884.5" y1="419.4482" y2="434.4482"/><polygon fill="#181818" points="880.5,424.4482,884.5,434.4482,888.5,424.4482,884.5,428.4482" style="stroke:#181818;stroke-width:1.0;"/><line style="stroke:#181818;stroke-width:1.0;" x1="967.5" x2="967.5" y1="566.3857" y2="571.3857"/><line style="stroke:#181818;stroke-width:1.0;" x1="967.5" x2="735.5" y1="571.3857" y2="571.3857"/><line style="stroke:#181818;stroke-width:1.0;" x1="735.5" x2="735.5" y1="571.3857" y2="586.3857"/><polygon fill="#181818" points="731.5,576.3857,735.5,586.3857,739.5,576.3857,735.5,580.3857" style="stroke:#181818;stroke-width:1.0;"/><line style="stroke:#181818;stroke-width:1.0;" x1="872.5" x2="569.5" y1="500.417" y2="500.417"/><line style="stroke:#181818;stroke-width:1.0;" x1="569.5" x2="569.5" y1="500.417" y2="532.417"/><polygon fill="#181818" points="565.5,522.417,569.5,532.417,573.5,522.417,569.5,526.417" style="stroke:#181818;stroke-width:1.0;"/><line style="stroke:#181818;stroke-width:1.0;" x1="569.5" x2="569.5" y1="566.3857" y2="670.292"/><line style="stroke:#181818;stroke-width:1.0;" x1="569.5" x2="872.5" y1="670.292" y2="670.292"/><polygon fill="#181818" points="862.5,666.292,872.5,670.292,862.5,674.292,866.5,670.292" style="stroke:#181818;stroke-width:1.0;"/><line style="stroke:#181818;stroke-width:1.0;" x1="735.5" x2="735.5" y1="648.292" y2="652.292"/><line style="stroke:#181818;stroke-width:1.0;" x1="735.5" x2="914.5" y1="652.292" y2="652.292"/><line style="stroke:#181818;stroke-width:1.0;" x1="914.5" x2="914.5" y1="652.292" y2="670.292"/><line style="stroke:#181818;stroke-width:1.0;" x1="914.5" x2="896.5" y1="670.292" y2="670.292"/><polygon fill="#181818" points="906.5,666.292,896.5,670.292,906.5,674.292,902.5,670.292" style="stroke:#181818;stroke-width:1.0;"/><line style="stroke:#181818;stroke-width:1.0;" x1="506" x2="93" y1="294.5107" y2="294.5107"/><line style="stroke:#181818;stroke-width:1.0;" x1="93" x2="93" y1="294.5107" y2="326.5107"/><polygon fill="#181818" points="89,316.5107,93,326.5107,97,316.5107,93,320.5107" style="stroke:#181818;stroke-width:1.0;"/><line style="stroke:#181818;stroke-width:1.0;" x1="530" x2="542" y1="294.5107" y2="294.5107"/><line style="stroke:#181818;stroke-width:1.0;" x1="542" x2="542" y1="294.5107" y2="312.5107"/><line style="stroke:#181818;stroke-width:1.0;" x1="542" x2="362" y1="312.5107" y2="312.5107"/><line style="stroke:#181818;stroke-width:1.0;" x1="362" x2="362" y1="312.5107" y2="326.5107"/><polygon fill="#181818" points="358,316.5107,362,326.5107,366,316.5107,362,320.5107" style="stroke:#181818;stroke-width:1.0;"/><text fill="#000000" font-family="sans-serif" font-size="18" lengthAdjust="spacing" textLength="62" x="197" y="29.4531">Parent</text><text fill="#000000" font-family="sans-serif" font-size="18" lengthAdjust="spacing" textLength="69" x="586.75" y="29.4531">System</text><text fill="#000000" font-family="sans-serif" font-size="18" lengthAdjust="spacing" textLength="88" x="865" y="29.4531">Database</text><!--SRC=[VL7BZi8m3BpdAwoUu1VQqmeux0q9YLCl9dN1sk10ubOWzUCtJNdjG-GGAV5uF3CUrXX8T31HCQWfLnUodH8K7rQvPxtMiY4CzW2B0xi6Ldr25vKfD-J8Aj3uhaM8cWXD-bEMVMM6pJKg7GTJBZcU75x1Ucav757PIor7YX7tjFEN2l8ntC9i3deWWTa2nPARcx4mt0MEZtBXs7v1CG4As7MgNgfS8saCkKYfVHhrhdz2_2HuQCx8TV0sYNnuWa3dZgBUi4jKt66a6tgBZXjCkQKB9yYheK_fHq2kJhB-3Cmqzx0e11z0l7BBDaTsyvZzRV_ZUWXAMJxvHl6lejwFZPqTFQTrlaok1QK1nr71jzE-uvCifSxjxqYY-jCt]--></g></svg>