<?xml version="1.0" encoding="us-ascii" standalone="no"?><svg xmlns="http://www.w3.org/2000/svg" xmlns:xlink="http://www.w3.org/1999/xlink" contentStyleType="text/css" height="356px" preserveAspectRatio="none" style="width:516px;height:356px;background:#FFFFFF;" version="1.1" viewBox="0 0 516 356" width="516px" zoomAndPan="magnify"><defs/><g><rect fill="none" height="20.9531" style="stroke:none;stroke-width:1.0;" width="483" x="15" y="12.7451"/><ellipse cx="95" cy="48.6982" fill="#222222" rx="10" ry="10" style="stroke:#222222;stroke-width:1.0;"/><rect fill="#F1F1F1" height="47.9375" rx="12.5" ry="12.5" style="stroke:#181818;stroke-width:0.5;" width="148" x="21" y="78.6982"/><text fill="#000000" font-family="sans-serif" font-size="12" lengthAdjust="spacing" textLength="106" x="31" y="99.8369">Enters the search</text><text fill="#000000" font-family="sans-serif" font-size="12" lengthAdjust="spacing" textLength="128" x="31" y="113.8057">criteria in search box</text><line style="stroke:#000000;stroke-width:1.5;" x1="15" x2="15" y1="12.7451" y2="344.5107"/><rect fill="#F1F1F1" height="33.9688" rx="12.5" ry="12.5" style="stroke:#181818;stroke-width:0.5;" width="182" x="179" y="146.6357"/><text fill="#000000" font-family="sans-serif" font-size="12" lengthAdjust="spacing" textLength="162" x="189" y="167.7744">Process searching request</text><rect fill="#F1F1F1" height="33.9688" rx="12.5" ry="12.5" style="stroke:#181818;stroke-width:0.5;" width="147" x="196.5" y="268.542"/><text fill="#000000" font-family="sans-serif" font-size="12" lengthAdjust="spacing" textLength="127" x="206.5" y="289.6807">Display search result</text><ellipse cx="270" cy="333.5107" fill="none" rx="11" ry="11" style="stroke:#222222;stroke-width:1.0;"/><ellipse cx="270" cy="333.5107" fill="#222222" rx="6" ry="6" style="stroke:#222222;stroke-width:1.0;"/><line style="stroke:#000000;stroke-width:1.5;" x1="173" x2="173" y1="12.7451" y2="344.5107"/><rect fill="#F1F1F1" height="47.9375" rx="12.5" ry="12.5" style="stroke:#181818;stroke-width:0.5;" width="121" x="371" y="200.6045"/><text fill="#000000" font-family="sans-serif" font-size="12" lengthAdjust="spacing" textLength="101" x="381" y="221.7432">Query data base</text><text fill="#000000" font-family="sans-serif" font-size="12" lengthAdjust="spacing" textLength="79" x="381" y="235.7119">on keywords</text><line style="stroke:#000000;stroke-width:1.5;" x1="365" x2="365" y1="12.7451" y2="344.5107"/><line style="stroke:#000000;stroke-width:1.5;" x1="496" x2="496" y1="12.7451" y2="344.5107"/><line style="stroke:#181818;stroke-width:1.0;" x1="95" x2="95" y1="58.6982" y2="78.6982"/><polygon fill="#181818" points="91,68.6982,95,78.6982,99,68.6982,95,72.6982" style="stroke:#181818;stroke-width:1.0;"/><line style="stroke:#181818;stroke-width:1.0;" x1="270" x2="270" y1="302.5107" y2="322.5107"/><polygon fill="#181818" points="266,312.5107,270,322.5107,274,312.5107,270,316.5107" style="stroke:#181818;stroke-width:1.0;"/><line style="stroke:#181818;stroke-width:1.0;" x1="95" x2="95" y1="126.6357" y2="131.6357"/><line style="stroke:#181818;stroke-width:1.0;" x1="95" x2="270" y1="131.6357" y2="131.6357"/><line style="stroke:#181818;stroke-width:1.0;" x1="270" x2="270" y1="131.6357" y2="146.6357"/><polygon fill="#181818" points="266,136.6357,270,146.6357,274,136.6357,270,140.6357" style="stroke:#181818;stroke-width:1.0;"/><line style="stroke:#181818;stroke-width:1.0;" x1="270" x2="270" y1="180.6045" y2="185.6045"/><line style="stroke:#181818;stroke-width:1.0;" x1="270" x2="431.5" y1="185.6045" y2="185.6045"/><line style="stroke:#181818;stroke-width:1.0;" x1="431.5" x2="431.5" y1="185.6045" y2="200.6045"/><polygon fill="#181818" points="427.5,190.6045,431.5,200.6045,435.5,190.6045,431.5,194.6045" style="stroke:#181818;stroke-width:1.0;"/><line style="stroke:#181818;stroke-width:1.0;" x1="431.5" x2="431.5" y1="248.542" y2="253.542"/><line style="stroke:#181818;stroke-width:1.0;" x1="431.5" x2="270" y1="253.542" y2="253.542"/><line style="stroke:#181818;stroke-width:1.0;" x1="270" x2="270" y1="253.542" y2="268.542"/><polygon fill="#181818" points="266,258.542,270,268.542,274,258.542,270,262.542" style="stroke:#181818;stroke-width:1.0;"/><text fill="#000000" font-family="sans-serif" font-size="18" lengthAdjust="spacing" textLength="62" x="63" y="29.4531">Parent</text><text fill="#000000" font-family="sans-serif" font-size="18" lengthAdjust="spacing" textLength="69" x="234.5" y="29.4531">System</text><text fill="#000000" font-family="sans-serif" font-size="18" lengthAdjust="spacing" textLength="88" x="386.5" y="29.4531">Database</text><!--SRC=[JOqn3i8m40Hxl-BU4ThG1z6ckJWdOX7EuVOYiEJ7OwGWqSwEPkl09kermDayT6TrCP0lGX2sk8mQBJMMc98UZARyFeLwBN1vrD0DbgC0nvhqHYRFNU1DwjbvOaZJBhjOeRa1-f9Hiz9ToYlRZFzSdx2jN7vd9jZNbeBdxGC0]--></g></svg>