<?xml version="1.0" encoding="us-ascii" standalone="no"?><svg xmlns="http://www.w3.org/2000/svg" xmlns:xlink="http://www.w3.org/1999/xlink" contentStyleType="text/css" height="1036px" preserveAspectRatio="none" style="width:864px;height:1036px;background:#FFFFFF;" version="1.1" viewBox="0 0 864 1036" width="864px" zoomAndPan="magnify"><defs/><g><rect fill="none" height="20.9531" style="stroke:none;stroke-width:1.0;" width="831.5" x="15" y="12.7451"/><ellipse cx="89.5" cy="48.6982" fill="#222222" rx="10" ry="10" style="stroke:#222222;stroke-width:1.0;"/><rect fill="#F1F1F1" height="47.9375" rx="12.5" ry="12.5" style="stroke:#181818;stroke-width:0.5;" width="137" x="21" y="78.6982"/><text fill="#000000" font-family="sans-serif" font-size="12" lengthAdjust="spacing" textLength="100" x="31" y="99.8369">Execute "Activity</text><text fill="#000000" font-family="sans-serif" font-size="12" lengthAdjust="spacing" textLength="117" x="31" y="113.8057">Search Child Event"</text><rect fill="#F1F1F1" height="47.9375" rx="12.5" ry="12.5" style="stroke:#181818;stroke-width:0.5;" width="114" x="32.5" y="146.6357"/><text fill="#000000" font-family="sans-serif" font-size="12" lengthAdjust="spacing" textLength="76" x="42.5" y="167.7744">Select event</text><text fill="#000000" font-family="sans-serif" font-size="12" lengthAdjust="spacing" textLength="94" x="42.5" y="181.7432">needs updating</text><rect fill="#F1F1F1" height="47.9375" rx="12.5" ry="12.5" style="stroke:#181818;stroke-width:0.5;" width="89" x="45" y="434.4482"/><text fill="#000000" font-family="sans-serif" font-size="12" lengthAdjust="spacing" textLength="69" x="55" y="455.5869">Enter event</text><text fill="#000000" font-family="sans-serif" font-size="12" lengthAdjust="spacing" textLength="67" x="55" y="469.5557">information</text><polygon fill="#F1F1F1" points="89.5,390.4482,101.5,402.4482,89.5,414.4482,77.5,402.4482,89.5,390.4482" style="stroke:#181818;stroke-width:0.5;"/><rect fill="#F1F1F1" height="47.9375" rx="12.5" ry="12.5" style="stroke:#181818;stroke-width:0.5;" width="134" x="22.5" y="627.0649"/><text fill="#000000" font-family="sans-serif" font-size="12" lengthAdjust="spacing" textLength="114" x="32.5" y="648.2036">Click button "Save"</text><text fill="#000000" font-family="sans-serif" font-size="12" lengthAdjust="spacing" textLength="61" x="32.5" y="662.1724">to confirm</text><line style="stroke:#000000;stroke-width:1.5;" x1="15" x2="15" y1="12.7451" y2="1024.8462"/><rect fill="#F1F1F1" height="33.9688" rx="12.5" ry="12.5" style="stroke:#181818;stroke-width:0.5;" width="207" x="247.25" y="214.5732"/><text fill="#000000" font-family="sans-serif" font-size="12" lengthAdjust="spacing" textLength="187" x="257.25" y="235.7119">Get selected event information</text><rect fill="#F1F1F1" height="47.9375" rx="12.5" ry="12.5" style="stroke:#181818;stroke-width:0.5;" width="119" x="291.25" y="322.5107"/><text fill="#000000" font-family="sans-serif" font-size="12" lengthAdjust="spacing" textLength="82" x="301.25" y="343.6494">Display event</text><text fill="#000000" font-family="sans-serif" font-size="12" lengthAdjust="spacing" textLength="99" x="301.25" y="357.6182">information view</text><rect fill="#F1F1F1" height="33.9688" rx="12.5" ry="12.5" style="stroke:#181818;stroke-width:0.5;" width="141" x="280.25" y="517.3857"/><text fill="#000000" font-family="sans-serif" font-size="12" lengthAdjust="spacing" textLength="121" x="290.25" y="538.5244">Validate data format</text><polygon fill="#F1F1F1" points="350.75,571.3545,350.75,571.3545,362.75,583.3545,350.75,595.3545,350.75,595.3545,338.75,583.3545,350.75,571.3545" style="stroke:#181818;stroke-width:0.5;"/><text fill="#000000" font-family="sans-serif" font-size="11" lengthAdjust="spacing" textLength="57" x="354.75" y="605.5649">Valid data</text><text fill="#000000" font-family="sans-serif" font-size="11" lengthAdjust="spacing" textLength="66" x="362.75" y="580.7603">Invalid data</text><rect fill="#F1F1F1" height="33.9688" rx="12.5" ry="12.5" style="stroke:#181818;stroke-width:0.5;" width="168" x="445.25" y="475.917"/><text fill="#000000" font-family="sans-serif" font-size="12" lengthAdjust="spacing" textLength="148" x="455.25" y="497.0557">Display error notification</text><rect fill="#F1F1F1" height="33.9688" rx="12.5" ry="12.5" style="stroke:#181818;stroke-width:0.5;" width="175" x="263.25" y="695.0024"/><text fill="#000000" font-family="sans-serif" font-size="12" lengthAdjust="spacing" textLength="155" x="273.25" y="716.1411">Process updating request</text><rect fill="#F1F1F1" height="33.9688" rx="12.5" ry="12.5" style="stroke:#181818;stroke-width:0.5;" width="168" x="168" y="846.9399"/><text fill="#000000" font-family="sans-serif" font-size="12" lengthAdjust="spacing" textLength="148" x="178" y="868.0786">Display error notification</text><rect fill="#F1F1F1" height="47.9375" rx="12.5" ry="12.5" style="stroke:#181818;stroke-width:0.5;" width="187" x="356" y="900.9087"/><text fill="#000000" font-family="sans-serif" font-size="12" lengthAdjust="spacing" textLength="167" x="366" y="922.0474">Display success notification</text><text fill="#000000" font-family="sans-serif" font-size="12" lengthAdjust="spacing" textLength="104" x="366" y="936.0161">and list of events</text><line style="stroke:#000000;stroke-width:1.5;" x1="162" x2="162" y1="12.7451" y2="1024.8462"/><rect fill="#F1F1F1" height="33.9688" rx="12.5" ry="12.5" style="stroke:#181818;stroke-width:0.5;" width="87" x="656.75" y="268.542"/><text fill="#000000" font-family="sans-serif" font-size="12" lengthAdjust="spacing" textLength="67" x="666.75" y="289.6807">Query data</text><rect fill="#F1F1F1" height="33.9688" rx="12.5" ry="12.5" style="stroke:#181818;stroke-width:0.5;" width="98" x="651.25" y="748.9712"/><text fill="#000000" font-family="sans-serif" font-size="12" lengthAdjust="spacing" textLength="78" x="661.25" y="770.1099">Validate data</text><polygon fill="#F1F1F1" points="700.25,802.9399,700.25,802.9399,712.25,814.9399,700.25,826.9399,700.25,826.9399,688.25,814.9399,700.25,802.9399" style="stroke:#181818;stroke-width:0.5;"/><text fill="#000000" font-family="sans-serif" font-size="11" lengthAdjust="spacing" textLength="66" x="622.25" y="812.3457">Invalid data</text><text fill="#000000" font-family="sans-serif" font-size="11" lengthAdjust="spacing" textLength="57" x="712.25" y="812.3457">Valid data</text><rect fill="#F1F1F1" height="33.9688" rx="12.5" ry="12.5" style="stroke:#181818;stroke-width:0.5;" width="83" x="757.5" y="846.9399"/><text fill="#000000" font-family="sans-serif" font-size="12" lengthAdjust="spacing" textLength="63" x="767.5" y="868.0786">Store data</text><polygon fill="#F1F1F1" points="700.25,958.8462,712.25,970.8462,700.25,982.8462,688.25,970.8462,700.25,958.8462" style="stroke:#181818;stroke-width:0.5;"/><ellipse cx="700.25" cy="1013.8462" fill="none" rx="11" ry="11" style="stroke:#222222;stroke-width:1.0;"/><ellipse cx="700.25" cy="1013.8462" fill="#222222" rx="6" ry="6" style="stroke:#222222;stroke-width:1.0;"/><line style="stroke:#000000;stroke-width:1.5;" x1="617.25" x2="617.25" y1="12.7451" y2="1024.8462"/><line style="stroke:#000000;stroke-width:1.5;" x1="844.5" x2="844.5" y1="12.7451" y2="1024.8462"/><line style="stroke:#181818;stroke-width:1.0;" x1="89.5" x2="89.5" y1="58.6982" y2="78.6982"/><polygon fill="#181818" points="85.5,68.6982,89.5,78.6982,93.5,68.6982,89.5,72.6982" style="stroke:#181818;stroke-width:1.0;"/><line style="stroke:#181818;stroke-width:1.0;" x1="89.5" x2="89.5" y1="126.6357" y2="146.6357"/><polygon fill="#181818" points="85.5,136.6357,89.5,146.6357,93.5,136.6357,89.5,140.6357" style="stroke:#181818;stroke-width:1.0;"/><line style="stroke:#181818;stroke-width:1.0;" x1="89.5" x2="89.5" y1="414.4482" y2="434.4482"/><polygon fill="#181818" points="85.5,424.4482,89.5,434.4482,93.5,424.4482,89.5,428.4482" style="stroke:#181818;stroke-width:1.0;"/><line style="stroke:#181818;stroke-width:1.0;" x1="362.75" x2="529.25" y1="583.3545" y2="583.3545"/><line style="stroke:#181818;stroke-width:1.0;" x1="529.25" x2="529.25" y1="509.8857" y2="583.3545"/><polygon fill="#181818" points="525.25,519.8857,529.25,509.8857,533.25,519.8857,529.25,515.8857" style="stroke:#181818;stroke-width:1.0;"/><line style="stroke:#181818;stroke-width:1.0;" x1="350.75" x2="350.75" y1="551.3545" y2="571.3545"/><polygon fill="#181818" points="346.75,561.3545,350.75,571.3545,354.75,561.3545,350.75,565.3545" style="stroke:#181818;stroke-width:1.0;"/><line style="stroke:#181818;stroke-width:1.0;" x1="712.25" x2="799" y1="814.9399" y2="814.9399"/><line style="stroke:#181818;stroke-width:1.0;" x1="799" x2="799" y1="814.9399" y2="846.9399"/><polygon fill="#181818" points="795,836.9399,799,846.9399,803,836.9399,799,840.9399" style="stroke:#181818;stroke-width:1.0;"/><line style="stroke:#181818;stroke-width:1.0;" x1="700.25" x2="700.25" y1="782.9399" y2="802.9399"/><polygon fill="#181818" points="696.25,792.9399,700.25,802.9399,704.25,792.9399,700.25,796.9399" style="stroke:#181818;stroke-width:1.0;"/><line style="stroke:#181818;stroke-width:1.0;" x1="700.25" x2="700.25" y1="982.8462" y2="1002.8462"/><polygon fill="#181818" points="696.25,992.8462,700.25,1002.8462,704.25,992.8462,700.25,996.8462" style="stroke:#181818;stroke-width:1.0;"/><line style="stroke:#181818;stroke-width:1.0;" x1="89.5" x2="89.5" y1="194.5732" y2="199.5732"/><line style="stroke:#181818;stroke-width:1.0;" x1="89.5" x2="350.75" y1="199.5732" y2="199.5732"/><line style="stroke:#181818;stroke-width:1.0;" x1="350.75" x2="350.75" y1="199.5732" y2="214.5732"/><polygon fill="#181818" points="346.75,204.5732,350.75,214.5732,354.75,204.5732,350.75,208.5732" style="stroke:#181818;stroke-width:1.0;"/><line style="stroke:#181818;stroke-width:1.0;" x1="350.75" x2="350.75" y1="248.542" y2="253.542"/><line style="stroke:#181818;stroke-width:1.0;" x1="350.75" x2="700.25" y1="253.542" y2="253.542"/><line style="stroke:#181818;stroke-width:1.0;" x1="700.25" x2="700.25" y1="253.542" y2="268.542"/><polygon fill="#181818" points="696.25,258.542,700.25,268.542,704.25,258.542,700.25,262.542" style="stroke:#181818;stroke-width:1.0;"/><line style="stroke:#181818;stroke-width:1.0;" x1="700.25" x2="700.25" y1="302.5107" y2="307.5107"/><line style="stroke:#181818;stroke-width:1.0;" x1="700.25" x2="350.75" y1="307.5107" y2="307.5107"/><line style="stroke:#181818;stroke-width:1.0;" x1="350.75" x2="350.75" y1="307.5107" y2="322.5107"/><polygon fill="#181818" points="346.75,312.5107,350.75,322.5107,354.75,312.5107,350.75,316.5107" style="stroke:#181818;stroke-width:1.0;"/><line style="stroke:#181818;stroke-width:1.0;" x1="89.5" x2="89.5" y1="482.3857" y2="499.8857"/><line style="stroke:#181818;stroke-width:1.0;" x1="89.5" x2="350.75" y1="499.8857" y2="499.8857"/><line style="stroke:#181818;stroke-width:1.0;" x1="350.75" x2="350.75" y1="499.8857" y2="517.3857"/><polygon fill="#181818" points="346.75,507.3857,350.75,517.3857,354.75,507.3857,350.75,511.3857" style="stroke:#181818;stroke-width:1.0;"/><line style="stroke:#181818;stroke-width:1.0;" x1="529.25" x2="529.25" y1="402.4482" y2="475.917"/><line style="stroke:#181818;stroke-width:1.0;" x1="529.25" x2="101.5" y1="402.4482" y2="402.4482"/><polygon fill="#181818" points="111.5,398.4482,101.5,402.4482,111.5,406.4482,107.5,402.4482" style="stroke:#181818;stroke-width:1.0;"/><line style="stroke:#181818;stroke-width:1.0;" x1="350.75" x2="350.75" y1="370.4482" y2="375.4482"/><line style="stroke:#181818;stroke-width:1.0;" x1="350.75" x2="89.5" y1="375.4482" y2="375.4482"/><line style="stroke:#181818;stroke-width:1.0;" x1="89.5" x2="89.5" y1="375.4482" y2="390.4482"/><polygon fill="#181818" points="85.5,380.4482,89.5,390.4482,93.5,380.4482,89.5,384.4482" style="stroke:#181818;stroke-width:1.0;"/><line style="stroke:#181818;stroke-width:1.0;" x1="350.75" x2="350.75" y1="595.3545" y2="612.0649"/><line style="stroke:#181818;stroke-width:1.0;" x1="350.75" x2="89.5" y1="612.0649" y2="612.0649"/><line style="stroke:#181818;stroke-width:1.0;" x1="89.5" x2="89.5" y1="612.0649" y2="627.0649"/><polygon fill="#181818" points="85.5,617.0649,89.5,627.0649,93.5,617.0649,89.5,621.0649" style="stroke:#181818;stroke-width:1.0;"/><line style="stroke:#181818;stroke-width:1.0;" x1="89.5" x2="89.5" y1="675.0024" y2="680.0024"/><line style="stroke:#181818;stroke-width:1.0;" x1="89.5" x2="350.75" y1="680.0024" y2="680.0024"/><line style="stroke:#181818;stroke-width:1.0;" x1="350.75" x2="350.75" y1="680.0024" y2="695.0024"/><polygon fill="#181818" points="346.75,685.0024,350.75,695.0024,354.75,685.0024,350.75,689.0024" style="stroke:#181818;stroke-width:1.0;"/><line style="stroke:#181818;stroke-width:1.0;" x1="350.75" x2="350.75" y1="728.9712" y2="733.9712"/><line style="stroke:#181818;stroke-width:1.0;" x1="350.75" x2="700.25" y1="733.9712" y2="733.9712"/><line style="stroke:#181818;stroke-width:1.0;" x1="700.25" x2="700.25" y1="733.9712" y2="748.9712"/><polygon fill="#181818" points="696.25,738.9712,700.25,748.9712,704.25,738.9712,700.25,742.9712" style="stroke:#181818;stroke-width:1.0;"/><line style="stroke:#181818;stroke-width:1.0;" x1="799" x2="799" y1="880.9087" y2="885.9087"/><line style="stroke:#181818;stroke-width:1.0;" x1="799" x2="449.5" y1="885.9087" y2="885.9087"/><line style="stroke:#181818;stroke-width:1.0;" x1="449.5" x2="449.5" y1="885.9087" y2="900.9087"/><polygon fill="#181818" points="445.5,890.9087,449.5,900.9087,453.5,890.9087,449.5,894.9087" style="stroke:#181818;stroke-width:1.0;"/><line style="stroke:#181818;stroke-width:1.0;" x1="688.25" x2="252" y1="814.9399" y2="814.9399"/><line style="stroke:#181818;stroke-width:1.0;" x1="252" x2="252" y1="814.9399" y2="846.9399"/><polygon fill="#181818" points="248,836.9399,252,846.9399,256,836.9399,252,840.9399" style="stroke:#181818;stroke-width:1.0;"/><line style="stroke:#181818;stroke-width:1.0;" x1="252" x2="252" y1="880.9087" y2="970.8462"/><line style="stroke:#181818;stroke-width:1.0;" x1="252" x2="688.25" y1="970.8462" y2="970.8462"/><polygon fill="#181818" points="678.25,966.8462,688.25,970.8462,678.25,974.8462,682.25,970.8462" style="stroke:#181818;stroke-width:1.0;"/><line style="stroke:#181818;stroke-width:1.0;" x1="449.5" x2="449.5" y1="948.8462" y2="952.8462"/><line style="stroke:#181818;stroke-width:1.0;" x1="449.5" x2="730.25" y1="952.8462" y2="952.8462"/><line style="stroke:#181818;stroke-width:1.0;" x1="730.25" x2="730.25" y1="952.8462" y2="970.8462"/><line style="stroke:#181818;stroke-width:1.0;" x1="730.25" x2="712.25" y1="970.8462" y2="970.8462"/><polygon fill="#181818" points="722.25,966.8462,712.25,970.8462,722.25,974.8462,718.25,970.8462" style="stroke:#181818;stroke-width:1.0;"/><text fill="#000000" font-family="sans-serif" font-size="18" lengthAdjust="spacing" textLength="62" x="57.5" y="29.4531">Parent</text><text fill="#000000" font-family="sans-serif" font-size="18" lengthAdjust="spacing" textLength="69" x="355.125" y="29.4531">System</text><text fill="#000000" font-family="sans-serif" font-size="18" lengthAdjust="spacing" textLength="88" x="686.875" y="29.4531">Database</text><!--SRC=[VP7DZe8m4CVlVOe99tq5E6tKRFRcXiGJbrg6TI9EiHrmINZuBQ21LIAtmg__BxgzTiZIAI_QYOftlsXgGOW-Z513qcQSedRc19iJbJdica17YOfJBD48O7_Ec15p3tMLQo7-ILINjbxmqgdu4mNym68-qa1SM7S9fEL0RhNee_ROWOg_QtGj114zbzYIhqhTFhncrw4Xl2NAOOLQ58IdU_Jf3_6E1Tt2lMHa7mu3Uz0b1MSSx654H-wepVccNGvJ4kUi0xP21PcxuXW2Rc4cXDKQoCFgYvjUTP1Szpoi3jEBXS2RaimPZhL8A1Ubki4eOx5WB1VaBakvzyuQzDFuuF1Qexzdd-PTQ3aYLFHnvOJy57Zu-c8uoBmReWUmzFZQzNyWW4al5UlccTwx-jeCbUU-6MlEeIGlO8lnb_j92pcdudaGBxRw0m00]--></g></svg>