<?xml version="1.0" encoding="us-ascii" standalone="no"?><svg xmlns="http://www.w3.org/2000/svg" xmlns:xlink="http://www.w3.org/1999/xlink" contentStyleType="text/css" height="752px" preserveAspectRatio="none" style="width:1090px;height:752px;background:#FFFFFF;" version="1.1" viewBox="0 0 1090 752" width="1090px" zoomAndPan="magnify"><defs/><g><rect fill="none" height="20.9531" style="stroke:none;stroke-width:1.0;" width="1057.125" x="15" y="12.7451"/><ellipse cx="232.375" cy="48.6982" fill="#222222" rx="10" ry="10" style="stroke:#222222;stroke-width:1.0;"/><rect fill="#F1F1F1" height="47.9375" rx="12.5" ry="12.5" style="stroke:#181818;stroke-width:0.5;" width="142" x="161.375" y="78.6982"/><text fill="#000000" font-family="sans-serif" font-size="12" lengthAdjust="spacing" textLength="100" x="171.375" y="99.8369">Execute "Activity</text><text fill="#000000" font-family="sans-serif" font-size="12" lengthAdjust="spacing" textLength="122" x="171.375" y="113.8057">Search Prescription"</text><rect fill="#F1F1F1" height="47.9375" rx="12.5" ry="12.5" style="stroke:#181818;stroke-width:0.5;" width="135" x="164.875" y="146.6357"/><text fill="#000000" font-family="sans-serif" font-size="12" lengthAdjust="spacing" textLength="115" x="174.875" y="167.7744">Select prescription</text><text fill="#000000" font-family="sans-serif" font-size="12" lengthAdjust="spacing" textLength="91" x="174.875" y="181.7432">needs deleting</text><rect fill="#F1F1F1" height="33.9688" rx="12.5" ry="12.5" style="stroke:#181818;stroke-width:0.5;" width="144" x="21" y="326.5107"/><text fill="#000000" font-family="sans-serif" font-size="12" lengthAdjust="spacing" textLength="124" x="31" y="347.6494">Click "Cancel" button</text><ellipse cx="93" cy="390.4795" fill="none" rx="10" ry="10" style="stroke:#222222;stroke-width:1.5;"/><line style="stroke:#222222;stroke-width:2.5;" x1="86.8128" x2="99.1872" y1="384.2923" y2="396.6667"/><line style="stroke:#222222;stroke-width:2.5;" x1="99.1872" x2="86.8128" y1="384.2923" y2="396.6667"/><rect fill="#F1F1F1" height="33.9688" rx="12.5" ry="12.5" style="stroke:#181818;stroke-width:0.5;" width="150" x="296.75" y="326.5107"/><text fill="#000000" font-family="sans-serif" font-size="12" lengthAdjust="spacing" textLength="130" x="306.75" y="347.6494">Click "Confirm" button</text><line style="stroke:#000000;stroke-width:1.5;" x1="15" x2="15" y1="12.7451" y2="740.292"/><rect fill="#F1F1F1" height="47.9375" rx="12.5" ry="12.5" style="stroke:#181818;stroke-width:0.5;" width="142" x="456.75" y="214.5732"/><text fill="#000000" font-family="sans-serif" font-size="12" lengthAdjust="spacing" textLength="122" x="466.75" y="235.7119">Display confirmation</text><text fill="#000000" font-family="sans-serif" font-size="12" lengthAdjust="spacing" textLength="79" x="466.75" y="249.6807">messagebox</text><polygon fill="#F1F1F1" points="527.75,282.5107,527.75,282.5107,539.75,294.5107,527.75,306.5107,527.75,306.5107,515.75,294.5107,527.75,282.5107" style="stroke:#181818;stroke-width:0.5;"/><text fill="#000000" font-family="sans-serif" font-size="11" lengthAdjust="spacing" textLength="39" x="476.75" y="291.9165">Cancel</text><text fill="#000000" font-family="sans-serif" font-size="11" lengthAdjust="spacing" textLength="44" x="539.75" y="291.9165">Confirm</text><rect fill="#F1F1F1" height="33.9688" rx="12.5" ry="12.5" style="stroke:#181818;stroke-width:0.5;" width="172" x="581.125" y="380.4795"/><text fill="#000000" font-family="sans-serif" font-size="12" lengthAdjust="spacing" textLength="152" x="591.125" y="401.6182">Process deleting request</text><rect fill="#F1F1F1" height="33.9688" rx="12.5" ry="12.5" style="stroke:#181818;stroke-width:0.5;" width="168" x="490.375" y="532.417"/><text fill="#000000" font-family="sans-serif" font-size="12" lengthAdjust="spacing" textLength="148" x="500.375" y="553.5557">Display error notification</text><rect fill="#F1F1F1" height="61.9063" rx="12.5" ry="12.5" style="stroke:#181818;stroke-width:0.5;" width="163" x="678.375" y="586.3857"/><text fill="#000000" font-family="sans-serif" font-size="12" lengthAdjust="spacing" textLength="98" x="688.375" y="607.5244">Display success</text><text fill="#000000" font-family="sans-serif" font-size="12" lengthAdjust="spacing" textLength="65" x="688.375" y="621.4932">notification</text><text fill="#000000" font-family="sans-serif" font-size="12" lengthAdjust="spacing" textLength="143" x="688.375" y="635.4619">and list of prescriptions</text><line style="stroke:#000000;stroke-width:1.5;" x1="450.75" x2="450.75" y1="12.7451" y2="740.292"/><rect fill="#F1F1F1" height="33.9688" rx="12.5" ry="12.5" style="stroke:#181818;stroke-width:0.5;" width="98" x="879.375" y="434.4482"/><text fill="#000000" font-family="sans-serif" font-size="12" lengthAdjust="spacing" textLength="78" x="889.375" y="455.5869">Validate data</text><polygon fill="#F1F1F1" points="928.375,488.417,928.375,488.417,940.375,500.417,928.375,512.417,928.375,512.417,916.375,500.417,928.375,488.417" style="stroke:#181818;stroke-width:0.5;"/><text fill="#000000" font-family="sans-serif" font-size="11" lengthAdjust="spacing" textLength="66" x="850.375" y="497.8228">Invalid data</text><text fill="#000000" font-family="sans-serif" font-size="11" lengthAdjust="spacing" textLength="57" x="940.375" y="497.8228">Valid data</text><rect fill="#F1F1F1" height="33.9688" rx="12.5" ry="12.5" style="stroke:#181818;stroke-width:0.5;" width="90" x="976.125" y="532.417"/><text fill="#000000" font-family="sans-serif" font-size="12" lengthAdjust="spacing" textLength="70" x="986.125" y="553.5557">Delete data</text><polygon fill="#F1F1F1" points="928.375,658.292,940.375,670.292,928.375,682.292,916.375,670.292,928.375,658.292" style="stroke:#181818;stroke-width:0.5;"/><ellipse cx="928.375" cy="713.292" fill="none" rx="11" ry="11" style="stroke:#222222;stroke-width:1.0;"/><ellipse cx="928.375" cy="713.292" fill="#222222" rx="6" ry="6" style="stroke:#222222;stroke-width:1.0;"/><line style="stroke:#000000;stroke-width:1.5;" x1="845.375" x2="845.375" y1="12.7451" y2="740.292"/><line style="stroke:#000000;stroke-width:1.5;" x1="1070.125" x2="1070.125" y1="12.7451" y2="740.292"/><line style="stroke:#181818;stroke-width:1.0;" x1="232.375" x2="232.375" y1="58.6982" y2="78.6982"/><polygon fill="#181818" points="228.375,68.6982,232.375,78.6982,236.375,68.6982,232.375,72.6982" style="stroke:#181818;stroke-width:1.0;"/><line style="stroke:#181818;stroke-width:1.0;" x1="232.375" x2="232.375" y1="126.6357" y2="146.6357"/><polygon fill="#181818" points="228.375,136.6357,232.375,146.6357,236.375,136.6357,232.375,140.6357" style="stroke:#181818;stroke-width:1.0;"/><line style="stroke:#181818;stroke-width:1.0;" x1="93" x2="93" y1="360.4795" y2="380.4795"/><polygon fill="#181818" points="89,370.4795,93,380.4795,97,370.4795,93,374.4795" style="stroke:#181818;stroke-width:1.0;"/><line style="stroke:#181818;stroke-width:1.0;" x1="527.75" x2="527.75" y1="262.5107" y2="282.5107"/><polygon fill="#181818" points="523.75,272.5107,527.75,282.5107,531.75,272.5107,527.75,276.5107" style="stroke:#181818;stroke-width:1.0;"/><line style="stroke:#181818;stroke-width:1.0;" x1="940.375" x2="1021.125" y1="500.417" y2="500.417"/><line style="stroke:#181818;stroke-width:1.0;" x1="1021.125" x2="1021.125" y1="500.417" y2="532.417"/><polygon fill="#181818" points="1017.125,522.417,1021.125,532.417,1025.125,522.417,1021.125,526.417" style="stroke:#181818;stroke-width:1.0;"/><line style="stroke:#181818;stroke-width:1.0;" x1="928.375" x2="928.375" y1="468.417" y2="488.417"/><polygon fill="#181818" points="924.375,478.417,928.375,488.417,932.375,478.417,928.375,482.417" style="stroke:#181818;stroke-width:1.0;"/><line style="stroke:#181818;stroke-width:1.0;" x1="928.375" x2="928.375" y1="682.292" y2="702.292"/><polygon fill="#181818" points="924.375,692.292,928.375,702.292,932.375,692.292,928.375,696.292" style="stroke:#181818;stroke-width:1.0;"/><line style="stroke:#181818;stroke-width:1.0;" x1="232.375" x2="232.375" y1="194.5732" y2="199.5732"/><line style="stroke:#181818;stroke-width:1.0;" x1="232.375" x2="527.75" y1="199.5732" y2="199.5732"/><line style="stroke:#181818;stroke-width:1.0;" x1="527.75" x2="527.75" y1="199.5732" y2="214.5732"/><polygon fill="#181818" points="523.75,204.5732,527.75,214.5732,531.75,204.5732,527.75,208.5732" style="stroke:#181818;stroke-width:1.0;"/><line style="stroke:#181818;stroke-width:1.0;" x1="371.75" x2="371.75" y1="360.4795" y2="365.4795"/><line style="stroke:#181818;stroke-width:1.0;" x1="371.75" x2="667.125" y1="365.4795" y2="365.4795"/><line style="stroke:#181818;stroke-width:1.0;" x1="667.125" x2="667.125" y1="365.4795" y2="380.4795"/><polygon fill="#181818" points="663.125,370.4795,667.125,380.4795,671.125,370.4795,667.125,374.4795" style="stroke:#181818;stroke-width:1.0;"/><line style="stroke:#181818;stroke-width:1.0;" x1="667.125" x2="667.125" y1="414.4482" y2="419.4482"/><line style="stroke:#181818;stroke-width:1.0;" x1="667.125" x2="928.375" y1="419.4482" y2="419.4482"/><line style="stroke:#181818;stroke-width:1.0;" x1="928.375" x2="928.375" y1="419.4482" y2="434.4482"/><polygon fill="#181818" points="924.375,424.4482,928.375,434.4482,932.375,424.4482,928.375,428.4482" style="stroke:#181818;stroke-width:1.0;"/><line style="stroke:#181818;stroke-width:1.0;" x1="1021.125" x2="1021.125" y1="566.3857" y2="571.3857"/><line style="stroke:#181818;stroke-width:1.0;" x1="1021.125" x2="759.875" y1="571.3857" y2="571.3857"/><line style="stroke:#181818;stroke-width:1.0;" x1="759.875" x2="759.875" y1="571.3857" y2="586.3857"/><polygon fill="#181818" points="755.875,576.3857,759.875,586.3857,763.875,576.3857,759.875,580.3857" style="stroke:#181818;stroke-width:1.0;"/><line style="stroke:#181818;stroke-width:1.0;" x1="916.375" x2="574.375" y1="500.417" y2="500.417"/><line style="stroke:#181818;stroke-width:1.0;" x1="574.375" x2="574.375" y1="500.417" y2="532.417"/><polygon fill="#181818" points="570.375,522.417,574.375,532.417,578.375,522.417,574.375,526.417" style="stroke:#181818;stroke-width:1.0;"/><line style="stroke:#181818;stroke-width:1.0;" x1="574.375" x2="574.375" y1="566.3857" y2="670.292"/><line style="stroke:#181818;stroke-width:1.0;" x1="574.375" x2="916.375" y1="670.292" y2="670.292"/><polygon fill="#181818" points="906.375,666.292,916.375,670.292,906.375,674.292,910.375,670.292" style="stroke:#181818;stroke-width:1.0;"/><line style="stroke:#181818;stroke-width:1.0;" x1="759.875" x2="759.875" y1="648.292" y2="652.292"/><line style="stroke:#181818;stroke-width:1.0;" x1="759.875" x2="958.375" y1="652.292" y2="652.292"/><line style="stroke:#181818;stroke-width:1.0;" x1="958.375" x2="958.375" y1="652.292" y2="670.292"/><line style="stroke:#181818;stroke-width:1.0;" x1="958.375" x2="940.375" y1="670.292" y2="670.292"/><polygon fill="#181818" points="950.375,666.292,940.375,670.292,950.375,674.292,946.375,670.292" style="stroke:#181818;stroke-width:1.0;"/><line style="stroke:#181818;stroke-width:1.0;" x1="515.75" x2="93" y1="294.5107" y2="294.5107"/><line style="stroke:#181818;stroke-width:1.0;" x1="93" x2="93" y1="294.5107" y2="326.5107"/><polygon fill="#181818" points="89,316.5107,93,326.5107,97,316.5107,93,320.5107" style="stroke:#181818;stroke-width:1.0;"/><line style="stroke:#181818;stroke-width:1.0;" x1="539.75" x2="551.75" y1="294.5107" y2="294.5107"/><line style="stroke:#181818;stroke-width:1.0;" x1="551.75" x2="551.75" y1="294.5107" y2="312.5107"/><line style="stroke:#181818;stroke-width:1.0;" x1="551.75" x2="371.75" y1="312.5107" y2="312.5107"/><line style="stroke:#181818;stroke-width:1.0;" x1="371.75" x2="371.75" y1="312.5107" y2="326.5107"/><polygon fill="#181818" points="367.75,316.5107,371.75,326.5107,375.75,316.5107,371.75,320.5107" style="stroke:#181818;stroke-width:1.0;"/><text fill="#000000" font-family="sans-serif" font-size="18" lengthAdjust="spacing" textLength="63" x="201.375" y="29.4531">Doctor</text><text fill="#000000" font-family="sans-serif" font-size="18" lengthAdjust="spacing" textLength="69" x="613.5625" y="29.4531">System</text><text fill="#000000" font-family="sans-serif" font-size="18" lengthAdjust="spacing" textLength="88" x="913.75" y="29.4531">Database</text><!--SRC=[VL7BZi8m3BpdAwoUu1VQqmhsi3Sa94vSGkg2jS4fiOj0wiTlcl8ekojoY9HuF9uPzylWDCJUYDgefloyeEiKeVXmIcVIwvRNQACxm2gYk4YjKk2YCkKQFJg5TlAzPKQi1UfKKk9zPVhrLHIFlIcN9AstLt216uf7E-AFA6Btk0kN2l8nrC1i3df0Xjd2iaC_DqEXlmiT7kN2a_k6OWGKiEjK0rUvXbmRz8AfVHprhdz4l18yD6VaAWQNH3uyGSHJXw8txDAgtLd16tfZFTKsvPSkEqAcXhxuF01oTPJrPs2ckOU5COO879GQSZcocyViR_CVrqDGolB9DuYVYde_LZetU4xhd4pUikKQF8b2Q5xMBa_E53urlvCH3UqF]--></g></svg>