<?xml version="1.0" encoding="us-ascii" standalone="no"?><svg xmlns="http://www.w3.org/2000/svg" xmlns:xlink="http://www.w3.org/1999/xlink" contentStyleType="text/css" height="393px" preserveAspectRatio="none" style="width:704px;height:393px;background:#FFFFFF;" version="1.1" viewBox="0 0 704 393" width="704px" zoomAndPan="magnify"><defs/><g><rect fill="none" height="20.9531" style="stroke:none;stroke-width:1.0;" width="671.5" x="15" y="12.7451"/><rect fill="#F1F1F1" height="33.9688" rx="12.5" ry="12.5" style="stroke:#181818;stroke-width:0.5;" width="117" x="164.5" y="146.6357"/><text fill="#000000" font-family="sans-serif" font-size="12" lengthAdjust="spacing" textLength="97" x="174.5" y="167.7744">Choose function</text><polygon fill="#F1F1F1" points="66.5,200.6045,66.5,200.6045,78.5,212.6045,66.5,224.6045,66.5,224.6045,54.5,212.6045,66.5,200.6045" style="stroke:#181818;stroke-width:0.5;"/><text fill="#000000" font-family="sans-serif" font-size="11" lengthAdjust="spacing" textLength="39" x="70.5" y="234.8149">Create</text><rect fill="#F1F1F1" height="61.9063" rx="12.5" ry="12.5" style="stroke:#181818;stroke-width:0.5;" width="91" x="21" y="257.4092"/><text fill="#000000" font-family="sans-serif" font-size="12" lengthAdjust="spacing" textLength="43" x="31" y="278.5479">Activity</text><text fill="#000000" font-family="sans-serif" font-size="12" lengthAdjust="spacing" textLength="40" x="31" y="292.5166">Create</text><text fill="#000000" font-family="sans-serif" font-size="12" lengthAdjust="spacing" textLength="71" x="31" y="306.4854">Prescription</text><polygon fill="#F1F1F1" points="167.5,200.6045,167.5,200.6045,179.5,212.6045,167.5,224.6045,167.5,224.6045,155.5,212.6045,167.5,200.6045" style="stroke:#181818;stroke-width:0.5;"/><text fill="#000000" font-family="sans-serif" font-size="11" lengthAdjust="spacing" textLength="41" x="171.5" y="234.8149">Update</text><rect fill="#F1F1F1" height="61.9063" rx="12.5" ry="12.5" style="stroke:#181818;stroke-width:0.5;" width="91" x="122" y="257.4092"/><text fill="#000000" font-family="sans-serif" font-size="12" lengthAdjust="spacing" textLength="43" x="132" y="278.5479">Activity</text><text fill="#000000" font-family="sans-serif" font-size="12" lengthAdjust="spacing" textLength="44" x="132" y="292.5166">Update</text><text fill="#000000" font-family="sans-serif" font-size="12" lengthAdjust="spacing" textLength="71" x="132" y="306.4854">Prescription</text><polygon fill="#F1F1F1" points="278.5,200.6045,278.5,200.6045,290.5,212.6045,278.5,224.6045,278.5,224.6045,266.5,212.6045,278.5,200.6045" style="stroke:#181818;stroke-width:0.5;"/><text fill="#000000" font-family="sans-serif" font-size="11" lengthAdjust="spacing" textLength="40" x="282.5" y="234.8149">Delete</text><text fill="#000000" font-family="sans-serif" font-size="11" lengthAdjust="spacing" textLength="40" x="290.5" y="210.0103">Search</text><rect fill="#F1F1F1" height="61.9063" rx="12.5" ry="12.5" style="stroke:#181818;stroke-width:0.5;" width="91" x="233" y="257.4092"/><text fill="#000000" font-family="sans-serif" font-size="12" lengthAdjust="spacing" textLength="43" x="243" y="278.5479">Activity</text><text fill="#000000" font-family="sans-serif" font-size="12" lengthAdjust="spacing" textLength="40" x="243" y="292.5166">Delete</text><text fill="#000000" font-family="sans-serif" font-size="12" lengthAdjust="spacing" textLength="71" x="243" y="306.4854">Prescription</text><rect fill="#F1F1F1" height="61.9063" rx="12.5" ry="12.5" style="stroke:#181818;stroke-width:0.5;" width="91" x="340.5" y="254.0068"/><text fill="#000000" font-family="sans-serif" font-size="12" lengthAdjust="spacing" textLength="43" x="350.5" y="275.1455">Activity</text><text fill="#000000" font-family="sans-serif" font-size="12" lengthAdjust="spacing" textLength="42" x="350.5" y="289.1143">Search</text><text fill="#000000" font-family="sans-serif" font-size="12" lengthAdjust="spacing" textLength="71" x="350.5" y="303.083">Prescription</text><line style="stroke:#000000;stroke-width:1.5;" x1="15" x2="15" y1="12.7451" y2="381.3154"/><ellipse cx="512" cy="48.6982" fill="#222222" rx="10" ry="10" style="stroke:#222222;stroke-width:1.0;"/><rect fill="#F1F1F1" height="47.9375" rx="12.5" ry="12.5" style="stroke:#181818;stroke-width:0.5;" width="141" x="441.5" y="78.6982"/><text fill="#000000" font-family="sans-serif" font-size="12" lengthAdjust="spacing" textLength="121" x="451.5" y="99.8369">Display prescription</text><text fill="#000000" font-family="sans-serif" font-size="12" lengthAdjust="spacing" textLength="110" x="451.5" y="113.8057">management view</text><ellipse cx="512" cy="370.3154" fill="none" rx="11" ry="11" style="stroke:#222222;stroke-width:1.0;"/><ellipse cx="512" cy="370.3154" fill="#222222" rx="6" ry="6" style="stroke:#222222;stroke-width:1.0;"/><line style="stroke:#000000;stroke-width:1.5;" x1="435.5" x2="435.5" y1="12.7451" y2="381.3154"/><line style="stroke:#000000;stroke-width:1.5;" x1="586.5" x2="586.5" y1="12.7451" y2="381.3154"/><line style="stroke:#000000;stroke-width:1.5;" x1="684.5" x2="684.5" y1="12.7451" y2="381.3154"/><line style="stroke:#181818;stroke-width:1.0;" x1="66.5" x2="66.5" y1="224.6045" y2="257.4092"/><polygon fill="#181818" points="62.5,247.4092,66.5,257.4092,70.5,247.4092,66.5,251.4092" style="stroke:#181818;stroke-width:1.0;"/><line style="stroke:#181818;stroke-width:1.0;" x1="66.5" x2="66.5" y1="319.3154" y2="339.3154"/><polygon fill="#181818" points="62.5,329.3154,66.5,339.3154,70.5,329.3154,66.5,333.3154" style="stroke:#181818;stroke-width:1.0;"/><line style="stroke:#181818;stroke-width:1.0;" x1="167.5" x2="167.5" y1="224.6045" y2="257.4092"/><polygon fill="#181818" points="163.5,247.4092,167.5,257.4092,171.5,247.4092,167.5,251.4092" style="stroke:#181818;stroke-width:1.0;"/><line style="stroke:#181818;stroke-width:1.0;" x1="167.5" x2="167.5" y1="319.3154" y2="339.3154"/><polygon fill="#181818" points="163.5,329.3154,167.5,339.3154,171.5,329.3154,167.5,333.3154" style="stroke:#181818;stroke-width:1.0;"/><line style="stroke:#181818;stroke-width:1.0;" x1="278.5" x2="278.5" y1="224.6045" y2="257.4092"/><polygon fill="#181818" points="274.5,247.4092,278.5,257.4092,282.5,247.4092,278.5,251.4092" style="stroke:#181818;stroke-width:1.0;"/><line style="stroke:#181818;stroke-width:1.0;" x1="278.5" x2="278.5" y1="319.3154" y2="339.3154"/><polygon fill="#181818" points="274.5,329.3154,278.5,339.3154,282.5,329.3154,278.5,333.3154" style="stroke:#181818;stroke-width:1.0;"/><line style="stroke:#181818;stroke-width:1.0;" x1="78.5" x2="155.5" y1="212.6045" y2="212.6045"/><polygon fill="#181818" points="145.5,208.6045,155.5,212.6045,145.5,216.6045,149.5,212.6045" style="stroke:#181818;stroke-width:1.0;"/><line style="stroke:#181818;stroke-width:1.0;" x1="179.5" x2="266.5" y1="212.6045" y2="212.6045"/><polygon fill="#181818" points="256.5,208.6045,266.5,212.6045,256.5,216.6045,260.5,212.6045" style="stroke:#181818;stroke-width:1.0;"/><line style="stroke:#181818;stroke-width:1.0;" x1="223" x2="223" y1="180.6045" y2="185.6045"/><line style="stroke:#181818;stroke-width:1.0;" x1="223" x2="66.5" y1="185.6045" y2="185.6045"/><line style="stroke:#181818;stroke-width:1.0;" x1="66.5" x2="66.5" y1="185.6045" y2="200.6045"/><polygon fill="#181818" points="62.5,190.6045,66.5,200.6045,70.5,190.6045,66.5,194.6045" style="stroke:#181818;stroke-width:1.0;"/><line style="stroke:#181818;stroke-width:1.0;" x1="290.5" x2="386" y1="212.6045" y2="212.6045"/><line style="stroke:#181818;stroke-width:1.0;" x1="386" x2="386" y1="212.6045" y2="254.0068"/><polygon fill="#181818" points="382,244.0068,386,254.0068,390,244.0068,386,248.0068" style="stroke:#181818;stroke-width:1.0;"/><line style="stroke:#181818;stroke-width:1.0;" x1="386" x2="386" y1="315.9131" y2="339.3154"/><polygon fill="#181818" points="382,329.3154,386,339.3154,390,329.3154,386,333.3154" style="stroke:#181818;stroke-width:1.0;"/><line style="stroke:#181818;stroke-width:1.0;" x1="66.5" x2="386" y1="339.3154" y2="339.3154"/><line style="stroke:#181818;stroke-width:1.0;" x1="512" x2="512" y1="58.6982" y2="78.6982"/><polygon fill="#181818" points="508,68.6982,512,78.6982,516,68.6982,512,72.6982" style="stroke:#181818;stroke-width:1.0;"/><line style="stroke:#181818;stroke-width:1.0;" x1="512" x2="512" y1="126.6357" y2="131.6357"/><line style="stroke:#181818;stroke-width:1.0;" x1="512" x2="223" y1="131.6357" y2="131.6357"/><line style="stroke:#181818;stroke-width:1.0;" x1="223" x2="223" y1="131.6357" y2="146.6357"/><polygon fill="#181818" points="219,136.6357,223,146.6357,227,136.6357,223,140.6357" style="stroke:#181818;stroke-width:1.0;"/><line style="stroke:#181818;stroke-width:1.0;" x1="223" x2="223" y1="339.3154" y2="344.3154"/><line style="stroke:#181818;stroke-width:1.0;" x1="223" x2="512" y1="344.3154" y2="344.3154"/><line style="stroke:#181818;stroke-width:1.0;" x1="512" x2="512" y1="344.3154" y2="359.3154"/><polygon fill="#181818" points="508,349.3154,512,359.3154,516,349.3154,512,353.3154" style="stroke:#181818;stroke-width:1.0;"/><text fill="#000000" font-family="sans-serif" font-size="18" lengthAdjust="spacing" textLength="63" x="193.75" y="29.4531">Doctor</text><text fill="#000000" font-family="sans-serif" font-size="18" lengthAdjust="spacing" textLength="69" x="476.5" y="29.4531">System</text><text fill="#000000" font-family="sans-serif" font-size="18" lengthAdjust="spacing" textLength="88" x="591.5" y="29.4531">Database</text><!--SRC=[XP312eCm38RlVOeSzHNqDEm33CPkNh8QPq7JqcOEmOUVqXswETWjVCdt_v1LEoCkh6gzB55esWQDWZUCbB4e64HLsaO_uW8-K3J1Uh6EMvwGyKuJiS1iwLbl2U_CgXcSYmJzWyr-MolRGr623CHGD85Gg5G0rMbRprQMbXDi-PnLrA1eZ9IxLz_jBdpAYVwLDOrqA4xmfml5XJ2OuSj8y6XmP_lyTSw_0000]--></g></svg>