<?xml version="1.0" encoding="us-ascii" standalone="no"?><svg xmlns="http://www.w3.org/2000/svg" xmlns:xlink="http://www.w3.org/1999/xlink" contentStyleType="text/css" height="1036px" preserveAspectRatio="none" style="width:869px;height:1036px;background:#FFFFFF;" version="1.1" viewBox="0 0 869 1036" width="869px" zoomAndPan="magnify"><defs/><g><rect fill="none" height="20.9531" style="stroke:none;stroke-width:1.0;" width="836.5" x="15" y="12.7451"/><ellipse cx="92" cy="48.6982" fill="#222222" rx="10" ry="10" style="stroke:#222222;stroke-width:1.0;"/><rect fill="#F1F1F1" height="47.9375" rx="12.5" ry="12.5" style="stroke:#181818;stroke-width:0.5;" width="142" x="21" y="78.6982"/><text fill="#000000" font-family="sans-serif" font-size="12" lengthAdjust="spacing" textLength="100" x="31" y="99.8369">Execute "Activity</text><text fill="#000000" font-family="sans-serif" font-size="12" lengthAdjust="spacing" textLength="122" x="31" y="113.8057">Search Prescription"</text><rect fill="#F1F1F1" height="47.9375" rx="12.5" ry="12.5" style="stroke:#181818;stroke-width:0.5;" width="135" x="24.5" y="146.6357"/><text fill="#000000" font-family="sans-serif" font-size="12" lengthAdjust="spacing" textLength="115" x="34.5" y="167.7744">Select prescription</text><text fill="#000000" font-family="sans-serif" font-size="12" lengthAdjust="spacing" textLength="94" x="34.5" y="181.7432">needs updating</text><rect fill="#F1F1F1" height="47.9375" rx="12.5" ry="12.5" style="stroke:#181818;stroke-width:0.5;" width="128" x="28" y="434.4482"/><text fill="#000000" font-family="sans-serif" font-size="12" lengthAdjust="spacing" textLength="108" x="38" y="455.5869">Enter prescription</text><text fill="#000000" font-family="sans-serif" font-size="12" lengthAdjust="spacing" textLength="67" x="38" y="469.5557">information</text><polygon fill="#F1F1F1" points="92,390.4482,104,402.4482,92,414.4482,80,402.4482,92,390.4482" style="stroke:#181818;stroke-width:0.5;"/><rect fill="#F1F1F1" height="47.9375" rx="12.5" ry="12.5" style="stroke:#181818;stroke-width:0.5;" width="134" x="25" y="627.0649"/><text fill="#000000" font-family="sans-serif" font-size="12" lengthAdjust="spacing" textLength="114" x="35" y="648.2036">Click button "Save"</text><text fill="#000000" font-family="sans-serif" font-size="12" lengthAdjust="spacing" textLength="61" x="35" y="662.1724">to confirm</text><line style="stroke:#000000;stroke-width:1.5;" x1="15" x2="15" y1="12.7451" y2="1024.8462"/><rect fill="#F1F1F1" height="33.9688" rx="12.5" ry="12.5" style="stroke:#181818;stroke-width:0.5;" width="246" x="232.75" y="214.5732"/><text fill="#000000" font-family="sans-serif" font-size="12" lengthAdjust="spacing" textLength="226" x="242.75" y="235.7119">Get selected prescription information</text><rect fill="#F1F1F1" height="47.9375" rx="12.5" ry="12.5" style="stroke:#181818;stroke-width:0.5;" width="141" x="285.25" y="322.5107"/><text fill="#000000" font-family="sans-serif" font-size="12" lengthAdjust="spacing" textLength="121" x="295.25" y="343.6494">Display prescription</text><text fill="#000000" font-family="sans-serif" font-size="12" lengthAdjust="spacing" textLength="99" x="295.25" y="357.6182">information view</text><rect fill="#F1F1F1" height="33.9688" rx="12.5" ry="12.5" style="stroke:#181818;stroke-width:0.5;" width="141" x="285.25" y="517.3857"/><text fill="#000000" font-family="sans-serif" font-size="12" lengthAdjust="spacing" textLength="121" x="295.25" y="538.5244">Validate data format</text><polygon fill="#F1F1F1" points="355.75,571.3545,355.75,571.3545,367.75,583.3545,355.75,595.3545,355.75,595.3545,343.75,583.3545,355.75,571.3545" style="stroke:#181818;stroke-width:0.5;"/><text fill="#000000" font-family="sans-serif" font-size="11" lengthAdjust="spacing" textLength="57" x="359.75" y="605.5649">Valid data</text><text fill="#000000" font-family="sans-serif" font-size="11" lengthAdjust="spacing" textLength="66" x="367.75" y="580.7603">Invalid data</text><rect fill="#F1F1F1" height="33.9688" rx="12.5" ry="12.5" style="stroke:#181818;stroke-width:0.5;" width="168" x="450.25" y="475.917"/><text fill="#000000" font-family="sans-serif" font-size="12" lengthAdjust="spacing" textLength="148" x="460.25" y="497.0557">Display error notification</text><rect fill="#F1F1F1" height="33.9688" rx="12.5" ry="12.5" style="stroke:#181818;stroke-width:0.5;" width="175" x="268.25" y="695.0024"/><text fill="#000000" font-family="sans-serif" font-size="12" lengthAdjust="spacing" textLength="155" x="278.25" y="716.1411">Process updating request</text><rect fill="#F1F1F1" height="33.9688" rx="12.5" ry="12.5" style="stroke:#181818;stroke-width:0.5;" width="168" x="173" y="846.9399"/><text fill="#000000" font-family="sans-serif" font-size="12" lengthAdjust="spacing" textLength="148" x="183" y="868.0786">Display error notification</text><rect fill="#F1F1F1" height="47.9375" rx="12.5" ry="12.5" style="stroke:#181818;stroke-width:0.5;" width="187" x="361" y="900.9087"/><text fill="#000000" font-family="sans-serif" font-size="12" lengthAdjust="spacing" textLength="167" x="371" y="922.0474">Display success notification</text><text fill="#000000" font-family="sans-serif" font-size="12" lengthAdjust="spacing" textLength="143" x="371" y="936.0161">and list of prescriptions</text><line style="stroke:#000000;stroke-width:1.5;" x1="167" x2="167" y1="12.7451" y2="1024.8462"/><rect fill="#F1F1F1" height="33.9688" rx="12.5" ry="12.5" style="stroke:#181818;stroke-width:0.5;" width="87" x="661.75" y="268.542"/><text fill="#000000" font-family="sans-serif" font-size="12" lengthAdjust="spacing" textLength="67" x="671.75" y="289.6807">Query data</text><rect fill="#F1F1F1" height="33.9688" rx="12.5" ry="12.5" style="stroke:#181818;stroke-width:0.5;" width="98" x="656.25" y="748.9712"/><text fill="#000000" font-family="sans-serif" font-size="12" lengthAdjust="spacing" textLength="78" x="666.25" y="770.1099">Validate data</text><polygon fill="#F1F1F1" points="705.25,802.9399,705.25,802.9399,717.25,814.9399,705.25,826.9399,705.25,826.9399,693.25,814.9399,705.25,802.9399" style="stroke:#181818;stroke-width:0.5;"/><text fill="#000000" font-family="sans-serif" font-size="11" lengthAdjust="spacing" textLength="66" x="627.25" y="812.3457">Invalid data</text><text fill="#000000" font-family="sans-serif" font-size="11" lengthAdjust="spacing" textLength="57" x="717.25" y="812.3457">Valid data</text><rect fill="#F1F1F1" height="33.9688" rx="12.5" ry="12.5" style="stroke:#181818;stroke-width:0.5;" width="83" x="762.5" y="846.9399"/><text fill="#000000" font-family="sans-serif" font-size="12" lengthAdjust="spacing" textLength="63" x="772.5" y="868.0786">Store data</text><polygon fill="#F1F1F1" points="705.25,958.8462,717.25,970.8462,705.25,982.8462,693.25,970.8462,705.25,958.8462" style="stroke:#181818;stroke-width:0.5;"/><ellipse cx="705.25" cy="1013.8462" fill="none" rx="11" ry="11" style="stroke:#222222;stroke-width:1.0;"/><ellipse cx="705.25" cy="1013.8462" fill="#222222" rx="6" ry="6" style="stroke:#222222;stroke-width:1.0;"/><line style="stroke:#000000;stroke-width:1.5;" x1="622.25" x2="622.25" y1="12.7451" y2="1024.8462"/><line style="stroke:#000000;stroke-width:1.5;" x1="849.5" x2="849.5" y1="12.7451" y2="1024.8462"/><line style="stroke:#181818;stroke-width:1.0;" x1="92" x2="92" y1="58.6982" y2="78.6982"/><polygon fill="#181818" points="88,68.6982,92,78.6982,96,68.6982,92,72.6982" style="stroke:#181818;stroke-width:1.0;"/><line style="stroke:#181818;stroke-width:1.0;" x1="92" x2="92" y1="126.6357" y2="146.6357"/><polygon fill="#181818" points="88,136.6357,92,146.6357,96,136.6357,92,140.6357" style="stroke:#181818;stroke-width:1.0;"/><line style="stroke:#181818;stroke-width:1.0;" x1="92" x2="92" y1="414.4482" y2="434.4482"/><polygon fill="#181818" points="88,424.4482,92,434.4482,96,424.4482,92,428.4482" style="stroke:#181818;stroke-width:1.0;"/><line style="stroke:#181818;stroke-width:1.0;" x1="367.75" x2="534.25" y1="583.3545" y2="583.3545"/><line style="stroke:#181818;stroke-width:1.0;" x1="534.25" x2="534.25" y1="509.8857" y2="583.3545"/><polygon fill="#181818" points="530.25,519.8857,534.25,509.8857,538.25,519.8857,534.25,515.8857" style="stroke:#181818;stroke-width:1.0;"/><line style="stroke:#181818;stroke-width:1.0;" x1="355.75" x2="355.75" y1="551.3545" y2="571.3545"/><polygon fill="#181818" points="351.75,561.3545,355.75,571.3545,359.75,561.3545,355.75,565.3545" style="stroke:#181818;stroke-width:1.0;"/><line style="stroke:#181818;stroke-width:1.0;" x1="717.25" x2="804" y1="814.9399" y2="814.9399"/><line style="stroke:#181818;stroke-width:1.0;" x1="804" x2="804" y1="814.9399" y2="846.9399"/><polygon fill="#181818" points="800,836.9399,804,846.9399,808,836.9399,804,840.9399" style="stroke:#181818;stroke-width:1.0;"/><line style="stroke:#181818;stroke-width:1.0;" x1="705.25" x2="705.25" y1="782.9399" y2="802.9399"/><polygon fill="#181818" points="701.25,792.9399,705.25,802.9399,709.25,792.9399,705.25,796.9399" style="stroke:#181818;stroke-width:1.0;"/><line style="stroke:#181818;stroke-width:1.0;" x1="705.25" x2="705.25" y1="982.8462" y2="1002.8462"/><polygon fill="#181818" points="701.25,992.8462,705.25,1002.8462,709.25,992.8462,705.25,996.8462" style="stroke:#181818;stroke-width:1.0;"/><line style="stroke:#181818;stroke-width:1.0;" x1="92" x2="92" y1="194.5732" y2="199.5732"/><line style="stroke:#181818;stroke-width:1.0;" x1="92" x2="355.75" y1="199.5732" y2="199.5732"/><line style="stroke:#181818;stroke-width:1.0;" x1="355.75" x2="355.75" y1="199.5732" y2="214.5732"/><polygon fill="#181818" points="351.75,204.5732,355.75,214.5732,359.75,204.5732,355.75,208.5732" style="stroke:#181818;stroke-width:1.0;"/><line style="stroke:#181818;stroke-width:1.0;" x1="355.75" x2="355.75" y1="248.542" y2="253.542"/><line style="stroke:#181818;stroke-width:1.0;" x1="355.75" x2="705.25" y1="253.542" y2="253.542"/><line style="stroke:#181818;stroke-width:1.0;" x1="705.25" x2="705.25" y1="253.542" y2="268.542"/><polygon fill="#181818" points="701.25,258.542,705.25,268.542,709.25,258.542,705.25,262.542" style="stroke:#181818;stroke-width:1.0;"/><line style="stroke:#181818;stroke-width:1.0;" x1="705.25" x2="705.25" y1="302.5107" y2="307.5107"/><line style="stroke:#181818;stroke-width:1.0;" x1="705.25" x2="355.75" y1="307.5107" y2="307.5107"/><line style="stroke:#181818;stroke-width:1.0;" x1="355.75" x2="355.75" y1="307.5107" y2="322.5107"/><polygon fill="#181818" points="351.75,312.5107,355.75,322.5107,359.75,312.5107,355.75,316.5107" style="stroke:#181818;stroke-width:1.0;"/><line style="stroke:#181818;stroke-width:1.0;" x1="92" x2="92" y1="482.3857" y2="499.8857"/><line style="stroke:#181818;stroke-width:1.0;" x1="92" x2="355.75" y1="499.8857" y2="499.8857"/><line style="stroke:#181818;stroke-width:1.0;" x1="355.75" x2="355.75" y1="499.8857" y2="517.3857"/><polygon fill="#181818" points="351.75,507.3857,355.75,517.3857,359.75,507.3857,355.75,511.3857" style="stroke:#181818;stroke-width:1.0;"/><line style="stroke:#181818;stroke-width:1.0;" x1="534.25" x2="534.25" y1="402.4482" y2="475.917"/><line style="stroke:#181818;stroke-width:1.0;" x1="534.25" x2="104" y1="402.4482" y2="402.4482"/><polygon fill="#181818" points="114,398.4482,104,402.4482,114,406.4482,110,402.4482" style="stroke:#181818;stroke-width:1.0;"/><line style="stroke:#181818;stroke-width:1.0;" x1="355.75" x2="355.75" y1="370.4482" y2="375.4482"/><line style="stroke:#181818;stroke-width:1.0;" x1="355.75" x2="92" y1="375.4482" y2="375.4482"/><line style="stroke:#181818;stroke-width:1.0;" x1="92" x2="92" y1="375.4482" y2="390.4482"/><polygon fill="#181818" points="88,380.4482,92,390.4482,96,380.4482,92,384.4482" style="stroke:#181818;stroke-width:1.0;"/><line style="stroke:#181818;stroke-width:1.0;" x1="355.75" x2="355.75" y1="595.3545" y2="612.0649"/><line style="stroke:#181818;stroke-width:1.0;" x1="355.75" x2="92" y1="612.0649" y2="612.0649"/><line style="stroke:#181818;stroke-width:1.0;" x1="92" x2="92" y1="612.0649" y2="627.0649"/><polygon fill="#181818" points="88,617.0649,92,627.0649,96,617.0649,92,621.0649" style="stroke:#181818;stroke-width:1.0;"/><line style="stroke:#181818;stroke-width:1.0;" x1="92" x2="92" y1="675.0024" y2="680.0024"/><line style="stroke:#181818;stroke-width:1.0;" x1="92" x2="355.75" y1="680.0024" y2="680.0024"/><line style="stroke:#181818;stroke-width:1.0;" x1="355.75" x2="355.75" y1="680.0024" y2="695.0024"/><polygon fill="#181818" points="351.75,685.0024,355.75,695.0024,359.75,685.0024,355.75,689.0024" style="stroke:#181818;stroke-width:1.0;"/><line style="stroke:#181818;stroke-width:1.0;" x1="355.75" x2="355.75" y1="728.9712" y2="733.9712"/><line style="stroke:#181818;stroke-width:1.0;" x1="355.75" x2="705.25" y1="733.9712" y2="733.9712"/><line style="stroke:#181818;stroke-width:1.0;" x1="705.25" x2="705.25" y1="733.9712" y2="748.9712"/><polygon fill="#181818" points="701.25,738.9712,705.25,748.9712,709.25,738.9712,705.25,742.9712" style="stroke:#181818;stroke-width:1.0;"/><line style="stroke:#181818;stroke-width:1.0;" x1="804" x2="804" y1="880.9087" y2="885.9087"/><line style="stroke:#181818;stroke-width:1.0;" x1="804" x2="454.5" y1="885.9087" y2="885.9087"/><line style="stroke:#181818;stroke-width:1.0;" x1="454.5" x2="454.5" y1="885.9087" y2="900.9087"/><polygon fill="#181818" points="450.5,890.9087,454.5,900.9087,458.5,890.9087,454.5,894.9087" style="stroke:#181818;stroke-width:1.0;"/><line style="stroke:#181818;stroke-width:1.0;" x1="693.25" x2="257" y1="814.9399" y2="814.9399"/><line style="stroke:#181818;stroke-width:1.0;" x1="257" x2="257" y1="814.9399" y2="846.9399"/><polygon fill="#181818" points="253,836.9399,257,846.9399,261,836.9399,257,840.9399" style="stroke:#181818;stroke-width:1.0;"/><line style="stroke:#181818;stroke-width:1.0;" x1="257" x2="257" y1="880.9087" y2="970.8462"/><line style="stroke:#181818;stroke-width:1.0;" x1="257" x2="693.25" y1="970.8462" y2="970.8462"/><polygon fill="#181818" points="683.25,966.8462,693.25,970.8462,683.25,974.8462,687.25,970.8462" style="stroke:#181818;stroke-width:1.0;"/><line style="stroke:#181818;stroke-width:1.0;" x1="454.5" x2="454.5" y1="948.8462" y2="952.8462"/><line style="stroke:#181818;stroke-width:1.0;" x1="454.5" x2="735.25" y1="952.8462" y2="952.8462"/><line style="stroke:#181818;stroke-width:1.0;" x1="735.25" x2="735.25" y1="952.8462" y2="970.8462"/><line style="stroke:#181818;stroke-width:1.0;" x1="735.25" x2="717.25" y1="970.8462" y2="970.8462"/><polygon fill="#181818" points="727.25,966.8462,717.25,970.8462,727.25,974.8462,723.25,970.8462" style="stroke:#181818;stroke-width:1.0;"/><text fill="#000000" font-family="sans-serif" font-size="18" lengthAdjust="spacing" textLength="63" x="59.5" y="29.4531">Doctor</text><text fill="#000000" font-family="sans-serif" font-size="18" lengthAdjust="spacing" textLength="69" x="360.125" y="29.4531">System</text><text fill="#000000" font-family="sans-serif" font-size="18" lengthAdjust="spacing" textLength="88" x="691.875" y="29.4531">Database</text><!--SRC=[VP7DReD038Jl-nGMf-GLoAbgeggtLaWvSTaifh52lDHhI95u-FAJ5FBJS89bPloDjrrxfrvQ4zIAcdZpWwvIXEZ5ATMaJSe9Md5x-10CJgXKyXojJ9nWWKwXd1sdp8XPWAhCh19_hKoRD47ns9hu3HN2OC7ioWJ4kPUZxTyxmzggtTc0BPZuiq9feCkoywGrXRAmpStaMGhKXAUL4IpHge7kQIyj-uzumuholtqrMYxp1ilM5jHnu003etJKxQmxdAnayCU58bw0lL9Exfmuii1fJmN2OWaKOF7ETPywH2vxFIosqy43xjU2t05sbMhNCKfiZL7Awi5vpacEZxW_n3iCqus0u7U5uSm-BVj1or52UO-hU-GRuE7ltS0XvjaYUW4M0U-xNWC1J7b9ju8vq_EfeN93vVdSb2rdK51GyFdLpOSf4ZcZ_7OlGNtv2m00]--></g></svg>