<?xml version="1.0" encoding="us-ascii" standalone="no"?><svg xmlns="http://www.w3.org/2000/svg" xmlns:xlink="http://www.w3.org/1999/xlink" contentStyleType="text/css" height="801px" preserveAspectRatio="none" style="width:945px;height:801px;background:#FFFFFF;" version="1.1" viewBox="0 0 945 801" width="945px" zoomAndPan="magnify"><defs/><g><rect fill="none" height="550.7344" style="stroke:#000000;stroke-width:1.5;" width="928" x="10" y="226.8281"/><rect fill="none" height="304" style="stroke:#000000;stroke-width:1.5;" width="856" x="72" y="466.5625"/><line style="stroke:#181818;stroke-width:0.5;stroke-dasharray:5.0,5.0;" x1="46" x2="46" y1="81.2969" y2="794.5625"/><line style="stroke:#181818;stroke-width:0.5;stroke-dasharray:5.0,5.0;" x1="186" x2="186" y1="81.2969" y2="794.5625"/><line style="stroke:#181818;stroke-width:0.5;stroke-dasharray:5.0,5.0;" x1="401" x2="401" y1="81.2969" y2="794.5625"/><line style="stroke:#181818;stroke-width:0.5;stroke-dasharray:5.0,5.0;" x1="648" x2="648" y1="81.2969" y2="794.5625"/><line style="stroke:#181818;stroke-width:0.5;stroke-dasharray:5.0,5.0;" x1="820.5" x2="820.5" y1="81.2969" y2="794.5625"/><text fill="#000000" font-family="sans-serif" font-size="14" lengthAdjust="spacing" textLength="46" x="20" y="77.9951">Admin</text><ellipse cx="46" cy="13.5" fill="#E2E2F0" rx="8" ry="8" style="stroke:#181818;stroke-width:0.5;"/><path d="M46,21.5 L46,48.5 M33,29.5 L59,29.5 M46,48.5 L33,63.5 M46,48.5 L59,63.5 " fill="none" style="stroke:#181818;stroke-width:0.5;"/><text fill="#000000" font-family="sans-serif" font-size="14" lengthAdjust="spacing" textLength="203" x="82" y="77.9951">DocumentManagementView</text><path d="M166,37 L166,61 M166,49 L183,49 " fill="none" style="stroke:#181818;stroke-width:0.5;"/><ellipse cx="195" cy="49" fill="#E2E2F0" rx="12" ry="12" style="stroke:#181818;stroke-width:0.5;"/><text fill="#000000" font-family="sans-serif" font-size="14" lengthAdjust="spacing" textLength="194" x="301" y="77.9951">DocumentInformationView</text><path d="M380.5,37 L380.5,61 M380.5,49 L397.5,49 " fill="none" style="stroke:#181818;stroke-width:0.5;"/><ellipse cx="409.5" cy="49" fill="#E2E2F0" rx="12" ry="12" style="stroke:#181818;stroke-width:0.5;"/><text fill="#000000" font-family="sans-serif" font-size="14" lengthAdjust="spacing" textLength="148" x="571" y="77.9951">DocumentController</text><ellipse cx="648" cy="49" fill="#E2E2F0" rx="12" ry="12" style="stroke:#181818;stroke-width:0.5;"/><polygon fill="#181818" points="644,37,650,32,648,37,650,42,644,37" style="stroke:#181818;stroke-width:1.0;"/><text fill="#000000" font-family="sans-serif" font-size="14" lengthAdjust="spacing" textLength="81" x="777.5" y="77.9951">DOCUMENT</text><ellipse cx="821" cy="49" fill="#E2E2F0" rx="12" ry="12" style="stroke:#181818;stroke-width:0.5;"/><line style="stroke:#181818;stroke-width:0.5;" x1="809" x2="833" y1="63" y2="63"/><line style="stroke:#181818;stroke-width:1.0;" x1="401" x2="443" y1="127.5625" y2="127.5625"/><line style="stroke:#181818;stroke-width:1.0;" x1="443" x2="443" y1="127.5625" y2="140.5625"/><line style="stroke:#181818;stroke-width:1.0;" x1="402" x2="443" y1="140.5625" y2="140.5625"/><polygon fill="#181818" points="412,136.5625,402,140.5625,412,144.5625,408,140.5625" style="stroke:#181818;stroke-width:1.0;"/><text fill="#000000" font-family="sans-serif" font-size="13" font-weight="bold" lengthAdjust="spacing" textLength="9" x="408" y="114.9302">1</text><text fill="#000000" font-family="sans-serif" font-size="13" lengthAdjust="spacing" textLength="78" x="421" y="107.3638">Display with</text><text fill="#000000" font-family="sans-serif" font-size="13" lengthAdjust="spacing" textLength="120" x="421" y="122.4966">empty information</text><polygon fill="#181818" points="389,165.6953,399,169.6953,389,173.6953,393,169.6953" style="stroke:#181818;stroke-width:1.0;"/><line style="stroke:#181818;stroke-width:1.0;" x1="46" x2="395" y1="169.6953" y2="169.6953"/><text fill="#000000" font-family="sans-serif" font-size="13" font-weight="bold" lengthAdjust="spacing" textLength="9" x="53" y="164.6294">2</text><text fill="#000000" font-family="sans-serif" font-size="13" lengthAdjust="spacing" textLength="181" x="66" y="164.6294">Enter document information</text><line style="stroke:#181818;stroke-width:1.0;" x1="401" x2="443" y1="198.8281" y2="198.8281"/><line style="stroke:#181818;stroke-width:1.0;" x1="443" x2="443" y1="198.8281" y2="211.8281"/><line style="stroke:#181818;stroke-width:1.0;" x1="402" x2="443" y1="211.8281" y2="211.8281"/><polygon fill="#181818" points="412,207.8281,402,211.8281,412,215.8281,408,211.8281" style="stroke:#181818;stroke-width:1.0;"/><text fill="#000000" font-family="sans-serif" font-size="13" font-weight="bold" lengthAdjust="spacing" textLength="8" x="408" y="193.7622">3</text><text fill="#000000" font-family="sans-serif" font-size="13" lengthAdjust="spacing" textLength="85" x="420" y="193.7622">Validate data</text><path d="M10,226.8281 L76,226.8281 L76,233.9609 L66,243.9609 L10,243.9609 L10,226.8281 " fill="#EEEEEE" style="stroke:#000000;stroke-width:1.5;"/><rect fill="none" height="550.7344" style="stroke:#000000;stroke-width:1.5;" width="928" x="10" y="226.8281"/><text fill="#000000" font-family="sans-serif" font-size="13" font-weight="bold" lengthAdjust="spacing" textLength="21" x="25" y="239.895">alt</text><text fill="#000000" font-family="sans-serif" font-size="11" font-weight="bold" lengthAdjust="spacing" textLength="88" x="91" y="239.0386">[Invalid data]</text><polygon fill="#181818" points="57,261.0938,47,265.0938,57,269.0938,53,265.0938" style="stroke:#181818;stroke-width:1.0;"/><line style="stroke:#181818;stroke-width:1.0;stroke-dasharray:2.0,2.0;" x1="51" x2="400" y1="265.0938" y2="265.0938"/><text fill="#000000" font-family="sans-serif" font-size="13" font-weight="bold" lengthAdjust="spacing" textLength="9" x="63" y="260.0278">4</text><text fill="#000000" font-family="sans-serif" font-size="13" lengthAdjust="spacing" textLength="106" x="76" y="260.0278">Error notification</text><line style="stroke:#181818;stroke-width:1.0;" x1="401" x2="443" y1="294.2266" y2="294.2266"/><line style="stroke:#181818;stroke-width:1.0;" x1="443" x2="443" y1="294.2266" y2="307.2266"/><line style="stroke:#181818;stroke-width:1.0;" x1="402" x2="443" y1="307.2266" y2="307.2266"/><polygon fill="#181818" points="412,303.2266,402,307.2266,412,311.2266,408,307.2266" style="stroke:#181818;stroke-width:1.0;"/><text fill="#000000" font-family="sans-serif" font-size="13" font-weight="bold" lengthAdjust="spacing" textLength="9" x="408" y="289.1606">5</text><text fill="#000000" font-family="sans-serif" font-size="13" lengthAdjust="spacing" textLength="157" x="421" y="289.1606">Display error notification</text><line style="stroke:#000000;stroke-width:1.0;stroke-dasharray:2.0,2.0;" x1="10" x2="938" y1="316.2266" y2="316.2266"/><text fill="#000000" font-family="sans-serif" font-size="11" font-weight="bold" lengthAdjust="spacing" textLength="78" x="15" y="326.437">[Valid data]</text><polygon fill="#181818" points="389,347.1641,399,351.1641,389,355.1641,393,351.1641" style="stroke:#181818;stroke-width:1.0;"/><line style="stroke:#181818;stroke-width:1.0;" x1="46" x2="395" y1="351.1641" y2="351.1641"/><text fill="#000000" font-family="sans-serif" font-size="13" font-weight="bold" lengthAdjust="spacing" textLength="9" x="53" y="346.0981">6</text><text fill="#000000" font-family="sans-serif" font-size="13" lengthAdjust="spacing" textLength="191" x="66" y="346.0981">Click button "Save" to confirm</text><polygon fill="#181818" points="636,376.2969,646,380.2969,636,384.2969,640,380.2969" style="stroke:#181818;stroke-width:1.0;"/><line style="stroke:#181818;stroke-width:1.0;" x1="401" x2="642" y1="380.2969" y2="380.2969"/><text fill="#000000" font-family="sans-serif" font-size="13" font-weight="bold" lengthAdjust="spacing" textLength="9" x="408" y="375.231">7</text><text fill="#000000" font-family="sans-serif" font-size="13" lengthAdjust="spacing" textLength="210" x="421" y="375.231">Send creating document request</text><polygon fill="#181818" points="809,405.4297,819,409.4297,809,413.4297,813,409.4297" style="stroke:#181818;stroke-width:1.0;"/><line style="stroke:#181818;stroke-width:1.0;" x1="648" x2="815" y1="409.4297" y2="409.4297"/><text fill="#000000" font-family="sans-serif" font-size="13" font-weight="bold" lengthAdjust="spacing" textLength="9" x="655" y="404.3638">8</text><text fill="#000000" font-family="sans-serif" font-size="13" lengthAdjust="spacing" textLength="110" x="668" y="404.3638">Send information</text><line style="stroke:#181818;stroke-width:1.0;" x1="821" x2="863" y1="438.5625" y2="438.5625"/><line style="stroke:#181818;stroke-width:1.0;" x1="863" x2="863" y1="438.5625" y2="451.5625"/><line style="stroke:#181818;stroke-width:1.0;" x1="822" x2="863" y1="451.5625" y2="451.5625"/><polygon fill="#181818" points="832,447.5625,822,451.5625,832,455.5625,828,451.5625" style="stroke:#181818;stroke-width:1.0;"/><text fill="#000000" font-family="sans-serif" font-size="13" font-weight="bold" lengthAdjust="spacing" textLength="9" x="828" y="433.4966">9</text><text fill="#000000" font-family="sans-serif" font-size="13" lengthAdjust="spacing" textLength="85" x="841" y="433.4966">Validate data</text><path d="M72,466.5625 L138,466.5625 L138,473.6953 L128,483.6953 L72,483.6953 L72,466.5625 " fill="#EEEEEE" style="stroke:#000000;stroke-width:1.5;"/><rect fill="none" height="304" style="stroke:#000000;stroke-width:1.5;" width="856" x="72" y="466.5625"/><text fill="#000000" font-family="sans-serif" font-size="13" font-weight="bold" lengthAdjust="spacing" textLength="21" x="87" y="479.6294">alt</text><text fill="#000000" font-family="sans-serif" font-size="11" font-weight="bold" lengthAdjust="spacing" textLength="88" x="153" y="478.7729">[Invalid data]</text><polygon fill="#181818" points="659,500.8281,649,504.8281,659,508.8281,655,504.8281" style="stroke:#181818;stroke-width:1.0;"/><line style="stroke:#181818;stroke-width:1.0;stroke-dasharray:2.0,2.0;" x1="653" x2="820" y1="504.8281" y2="504.8281"/><text fill="#000000" font-family="sans-serif" font-size="13" font-weight="bold" lengthAdjust="spacing" textLength="19" x="665" y="499.7622">10</text><text fill="#000000" font-family="sans-serif" font-size="13" lengthAdjust="spacing" textLength="106" x="688" y="499.7622">Error notification</text><polygon fill="#181818" points="412,529.9609,402,533.9609,412,537.9609,408,533.9609" style="stroke:#181818;stroke-width:1.0;"/><line style="stroke:#181818;stroke-width:1.0;stroke-dasharray:2.0,2.0;" x1="406" x2="647" y1="533.9609" y2="533.9609"/><text fill="#000000" font-family="sans-serif" font-size="13" font-weight="bold" lengthAdjust="spacing" textLength="18" x="418" y="528.895">11</text><text fill="#000000" font-family="sans-serif" font-size="13" lengthAdjust="spacing" textLength="106" x="440" y="528.895">Error notification</text><line style="stroke:#181818;stroke-width:1.0;" x1="401" x2="443" y1="563.0938" y2="563.0938"/><line style="stroke:#181818;stroke-width:1.0;" x1="443" x2="443" y1="563.0938" y2="576.0938"/><line style="stroke:#181818;stroke-width:1.0;" x1="402" x2="443" y1="576.0938" y2="576.0938"/><polygon fill="#181818" points="412,572.0938,402,576.0938,412,580.0938,408,576.0938" style="stroke:#181818;stroke-width:1.0;"/><text fill="#000000" font-family="sans-serif" font-size="13" font-weight="bold" lengthAdjust="spacing" textLength="18" x="408" y="558.0278">12</text><text fill="#000000" font-family="sans-serif" font-size="13" lengthAdjust="spacing" textLength="157" x="430" y="558.0278">Display error notification</text><line style="stroke:#000000;stroke-width:1.0;stroke-dasharray:2.0,2.0;" x1="72" x2="928" y1="585.0938" y2="585.0938"/><text fill="#000000" font-family="sans-serif" font-size="11" font-weight="bold" lengthAdjust="spacing" textLength="78" x="77" y="595.3042">[Valid data]</text><line style="stroke:#181818;stroke-width:1.0;" x1="821" x2="863" y1="620.0313" y2="620.0313"/><line style="stroke:#181818;stroke-width:1.0;" x1="863" x2="863" y1="620.0313" y2="633.0313"/><line style="stroke:#181818;stroke-width:1.0;" x1="822" x2="863" y1="633.0313" y2="633.0313"/><polygon fill="#181818" points="832,629.0313,822,633.0313,832,637.0313,828,633.0313" style="stroke:#181818;stroke-width:1.0;"/><text fill="#000000" font-family="sans-serif" font-size="13" font-weight="bold" lengthAdjust="spacing" textLength="17" x="828" y="614.9653">13</text><text fill="#000000" font-family="sans-serif" font-size="13" lengthAdjust="spacing" textLength="67" x="849" y="614.9653">Store data</text><polygon fill="#181818" points="659,658.1641,649,662.1641,659,666.1641,655,662.1641" style="stroke:#181818;stroke-width:1.0;"/><line style="stroke:#181818;stroke-width:1.0;stroke-dasharray:2.0,2.0;" x1="653" x2="820" y1="662.1641" y2="662.1641"/><text fill="#000000" font-family="sans-serif" font-size="13" font-weight="bold" lengthAdjust="spacing" textLength="18" x="665" y="657.0981">14</text><text fill="#000000" font-family="sans-serif" font-size="13" lengthAdjust="spacing" textLength="127" x="687" y="657.0981">Success notification</text><polygon fill="#181818" points="412,687.2969,402,691.2969,412,695.2969,408,691.2969" style="stroke:#181818;stroke-width:1.0;"/><line style="stroke:#181818;stroke-width:1.0;stroke-dasharray:2.0,2.0;" x1="406" x2="647" y1="691.2969" y2="691.2969"/><text fill="#000000" font-family="sans-serif" font-size="13" font-weight="bold" lengthAdjust="spacing" textLength="18" x="418" y="686.231">15</text><text fill="#000000" font-family="sans-serif" font-size="13" lengthAdjust="spacing" textLength="127" x="440" y="686.231">Success notification</text><line style="stroke:#181818;stroke-width:1.0;" x1="401" x2="443" y1="720.4297" y2="720.4297"/><line style="stroke:#181818;stroke-width:1.0;" x1="443" x2="443" y1="720.4297" y2="733.4297"/><line style="stroke:#181818;stroke-width:1.0;" x1="402" x2="443" y1="733.4297" y2="733.4297"/><polygon fill="#181818" points="412,729.4297,402,733.4297,412,737.4297,408,733.4297" style="stroke:#181818;stroke-width:1.0;"/><text fill="#000000" font-family="sans-serif" font-size="13" font-weight="bold" lengthAdjust="spacing" textLength="18" x="408" y="715.3638">16</text><text fill="#000000" font-family="sans-serif" font-size="13" lengthAdjust="spacing" textLength="69" x="430" y="715.3638">Close view</text><polygon fill="#181818" points="197.5,758.5625,187.5,762.5625,197.5,766.5625,193.5,762.5625" style="stroke:#181818;stroke-width:1.0;"/><line style="stroke:#181818;stroke-width:1.0;" x1="191.5" x2="647" y1="762.5625" y2="762.5625"/><text fill="#000000" font-family="sans-serif" font-size="13" font-weight="bold" lengthAdjust="spacing" textLength="18" x="203.5" y="757.4966">17</text><text fill="#000000" font-family="sans-serif" font-size="13" lengthAdjust="spacing" textLength="320" x="225.5" y="757.4966">Display success notification and list of documents</text><!--SRC=[hLGzRy8m4DtzAqxi_GCCI5LWOA0TqZ9rSPmBM7LiQb-W_FjUFaI8m04gF4Isx-xb-RtJoOgShSeClTZg7A5mZZBtAuHKv3oyvgMs8dELpQK_mjofgaHBAsdb1klTMkFXChwqXVEb9Eriaw2S9U_CAPwqPyD_vPCchdnFFbUBjmyX8XZmCel1Js6kmyx88nmqRU7BOhbZIDrdYUOTen0BI-WXxyBdnG3_uhIMHkUI4FWZXJG4IxklxzeBu1M5PTo6CTFodcsmZdIXLVkMqSexHC9BI3G1My8zkTkI9KQhRyWguXQ2IIhtE05om6ONsfVtyknxOGefsXoKHqwqczuCZpyL1XeWzcKDMDS-7SIvzKrH5nwc3XsgywwwD0I8C8_u56CysectePvaUmrvpVguP2aF1NnGchHI2aDuZZXtWJqYJs8S2x2lfzGOfrbazlNwXYlCG78p6Xq8N75gvz3gRdEUVVaV]--></g></svg>