<?xml version="1.0" encoding="us-ascii" standalone="no"?><svg xmlns="http://www.w3.org/2000/svg" xmlns:xlink="http://www.w3.org/1999/xlink" contentStyleType="text/css" height="567px" preserveAspectRatio="none" style="width:613px;height:567px;background:#FFFFFF;" version="1.1" viewBox="0 0 613 567" width="613px" zoomAndPan="magnify"><defs/><g><rect fill="none" height="61.2344" style="stroke:#000000;stroke-width:1.5;" width="597" x="10" y="256.9609"/><rect fill="none" height="61.2344" style="stroke:#000000;stroke-width:1.5;" width="597" x="10" y="332.1953"/><rect fill="none" height="61.2344" style="stroke:#000000;stroke-width:1.5;" width="597" x="10" y="407.4297"/><rect fill="none" height="61.2344" style="stroke:#000000;stroke-width:1.5;" width="597" x="10" y="482.6641"/><line style="stroke:#181818;stroke-width:0.5;stroke-dasharray:5.0,5.0;" x1="46" x2="46" y1="81.2969" y2="560.8984"/><line style="stroke:#181818;stroke-width:0.5;stroke-dasharray:5.0,5.0;" x1="186.5" x2="186.5" y1="81.2969" y2="560.8984"/><line style="stroke:#181818;stroke-width:0.5;stroke-dasharray:5.0,5.0;" x1="378.5" x2="378.5" y1="81.2969" y2="560.8984"/><line style="stroke:#181818;stroke-width:0.5;stroke-dasharray:5.0,5.0;" x1="553" x2="553" y1="81.2969" y2="560.8984"/><text fill="#000000" font-family="sans-serif" font-size="14" lengthAdjust="spacing" textLength="46" x="20" y="77.9951">Admin</text><ellipse cx="46" cy="13.5" fill="#E2E2F0" rx="8" ry="8" style="stroke:#181818;stroke-width:0.5;"/><path d="M46,21.5 L46,48.5 M33,29.5 L59,29.5 M46,48.5 L33,63.5 M46,48.5 L59,63.5 " fill="none" style="stroke:#181818;stroke-width:0.5;"/><text fill="#000000" font-family="sans-serif" font-size="14" lengthAdjust="spacing" textLength="203" x="82.5" y="77.9951">DocumentManagementView</text><path d="M166.5,37 L166.5,61 M166.5,49 L183.5,49 " fill="none" style="stroke:#181818;stroke-width:0.5;"/><ellipse cx="195.5" cy="49" fill="#E2E2F0" rx="12" ry="12" style="stroke:#181818;stroke-width:0.5;"/><text fill="#000000" font-family="sans-serif" font-size="14" lengthAdjust="spacing" textLength="148" x="301.5" y="77.9951">DocumentController</text><ellipse cx="378.5" cy="49" fill="#E2E2F0" rx="12" ry="12" style="stroke:#181818;stroke-width:0.5;"/><polygon fill="#181818" points="374.5,37,380.5,32,378.5,37,380.5,42,374.5,37" style="stroke:#181818;stroke-width:1.0;"/><text fill="#000000" font-family="sans-serif" font-size="14" lengthAdjust="spacing" textLength="81" x="510" y="77.9951">DOCUMENT</text><ellipse cx="553.5" cy="49" fill="#E2E2F0" rx="12" ry="12" style="stroke:#181818;stroke-width:0.5;"/><line style="stroke:#181818;stroke-width:0.5;" x1="541.5" x2="565.5" y1="63" y2="63"/><polygon fill="#181818" points="541.5,108.4297,551.5,112.4297,541.5,116.4297,545.5,112.4297" style="stroke:#181818;stroke-width:1.0;"/><line style="stroke:#181818;stroke-width:1.0;" x1="378.5" x2="547.5" y1="112.4297" y2="112.4297"/><text fill="#000000" font-family="sans-serif" font-size="13" font-weight="bold" lengthAdjust="spacing" textLength="9" x="385.5" y="107.3638">1</text><text fill="#000000" font-family="sans-serif" font-size="13" lengthAdjust="spacing" textLength="138" x="398.5" y="107.3638">Get list of documents</text><polygon fill="#181818" points="389.5,137.5625,379.5,141.5625,389.5,145.5625,385.5,141.5625" style="stroke:#181818;stroke-width:1.0;"/><line style="stroke:#181818;stroke-width:1.0;stroke-dasharray:2.0,2.0;" x1="383.5" x2="552.5" y1="141.5625" y2="141.5625"/><text fill="#000000" font-family="sans-serif" font-size="13" font-weight="bold" lengthAdjust="spacing" textLength="9" x="395.5" y="136.4966">2</text><text fill="#000000" font-family="sans-serif" font-size="13" lengthAdjust="spacing" textLength="115" x="408.5" y="136.4966">List of documents</text><polygon fill="#181818" points="198,166.6953,188,170.6953,198,174.6953,194,170.6953" style="stroke:#181818;stroke-width:1.0;"/><line style="stroke:#181818;stroke-width:1.0;stroke-dasharray:2.0,2.0;" x1="192" x2="377.5" y1="170.6953" y2="170.6953"/><text fill="#000000" font-family="sans-serif" font-size="13" font-weight="bold" lengthAdjust="spacing" textLength="8" x="204" y="165.6294">3</text><text fill="#000000" font-family="sans-serif" font-size="13" lengthAdjust="spacing" textLength="115" x="216" y="165.6294">List of documents</text><line style="stroke:#181818;stroke-width:1.0;" x1="187" x2="229" y1="199.8281" y2="199.8281"/><line style="stroke:#181818;stroke-width:1.0;" x1="229" x2="229" y1="199.8281" y2="212.8281"/><line style="stroke:#181818;stroke-width:1.0;" x1="188" x2="229" y1="212.8281" y2="212.8281"/><polygon fill="#181818" points="198,208.8281,188,212.8281,198,216.8281,194,212.8281" style="stroke:#181818;stroke-width:1.0;"/><text fill="#000000" font-family="sans-serif" font-size="13" font-weight="bold" lengthAdjust="spacing" textLength="9" x="194" y="194.7622">4</text><text fill="#000000" font-family="sans-serif" font-size="13" lengthAdjust="spacing" textLength="162" x="207" y="194.7622">Display list of documents</text><polygon fill="#181818" points="175,237.9609,185,241.9609,175,245.9609,179,241.9609" style="stroke:#181818;stroke-width:1.0;"/><line style="stroke:#181818;stroke-width:1.0;" x1="46" x2="181" y1="241.9609" y2="241.9609"/><text fill="#000000" font-family="sans-serif" font-size="13" font-weight="bold" lengthAdjust="spacing" textLength="9" x="53" y="236.895">5</text><text fill="#000000" font-family="sans-serif" font-size="13" lengthAdjust="spacing" textLength="104" x="66" y="236.895">Choose function</text><path d="M10,256.9609 L82,256.9609 L82,264.0938 L72,274.0938 L10,274.0938 L10,256.9609 " fill="#EEEEEE" style="stroke:#000000;stroke-width:1.5;"/><rect fill="none" height="61.2344" style="stroke:#000000;stroke-width:1.5;" width="597" x="10" y="256.9609"/><text fill="#000000" font-family="sans-serif" font-size="13" font-weight="bold" lengthAdjust="spacing" textLength="27" x="25" y="270.0278">opt</text><text fill="#000000" font-family="sans-serif" font-size="11" font-weight="bold" lengthAdjust="spacing" textLength="56" x="97" y="269.1714">[Create]</text><rect fill="none" height="39.1016" style="stroke:#000000;stroke-width:1.5;" width="583" x="17" y="274.0938"/><path d="M17,274.0938 L85,274.0938 L85,281.0938 L75,291.0938 L17,291.0938 L17,274.0938 " fill="#EEEEEE" style="stroke:#000000;stroke-width:2.0;"/><text fill="#000000" font-family="sans-serif" font-size="13" font-weight="bold" lengthAdjust="spacing" textLength="23" x="30" y="288.1606">ref</text><text fill="#000000" font-family="sans-serif" font-size="12" lengthAdjust="spacing" textLength="164" x="226.5" y="306.2324">Sequence Insert Document</text><path d="M10,332.1953 L82,332.1953 L82,339.3281 L72,349.3281 L10,349.3281 L10,332.1953 " fill="#EEEEEE" style="stroke:#000000;stroke-width:1.5;"/><rect fill="none" height="61.2344" style="stroke:#000000;stroke-width:1.5;" width="597" x="10" y="332.1953"/><text fill="#000000" font-family="sans-serif" font-size="13" font-weight="bold" lengthAdjust="spacing" textLength="27" x="25" y="345.2622">opt</text><text fill="#000000" font-family="sans-serif" font-size="11" font-weight="bold" lengthAdjust="spacing" textLength="58" x="97" y="344.4058">[Update]</text><rect fill="none" height="39.1016" style="stroke:#000000;stroke-width:1.5;" width="583" x="17" y="349.3281"/><path d="M17,349.3281 L85,349.3281 L85,356.3281 L75,366.3281 L17,366.3281 L17,349.3281 " fill="#EEEEEE" style="stroke:#000000;stroke-width:2.0;"/><text fill="#000000" font-family="sans-serif" font-size="13" font-weight="bold" lengthAdjust="spacing" textLength="23" x="30" y="363.395">ref</text><text fill="#000000" font-family="sans-serif" font-size="12" lengthAdjust="spacing" textLength="174" x="221.5" y="381.4668">Sequence Update Document</text><path d="M10,407.4297 L82,407.4297 L82,414.5625 L72,424.5625 L10,424.5625 L10,407.4297 " fill="#EEEEEE" style="stroke:#000000;stroke-width:1.5;"/><rect fill="none" height="61.2344" style="stroke:#000000;stroke-width:1.5;" width="597" x="10" y="407.4297"/><text fill="#000000" font-family="sans-serif" font-size="13" font-weight="bold" lengthAdjust="spacing" textLength="27" x="25" y="420.4966">opt</text><text fill="#000000" font-family="sans-serif" font-size="11" font-weight="bold" lengthAdjust="spacing" textLength="54" x="97" y="419.6401">[Delete]</text><rect fill="none" height="39.1016" style="stroke:#000000;stroke-width:1.5;" width="583" x="17" y="424.5625"/><path d="M17,424.5625 L85,424.5625 L85,431.5625 L75,441.5625 L17,441.5625 L17,424.5625 " fill="#EEEEEE" style="stroke:#000000;stroke-width:2.0;"/><text fill="#000000" font-family="sans-serif" font-size="13" font-weight="bold" lengthAdjust="spacing" textLength="23" x="30" y="438.6294">ref</text><text fill="#000000" font-family="sans-serif" font-size="12" lengthAdjust="spacing" textLength="170" x="223.5" y="456.7012">Sequence Delete Document</text><path d="M10,482.6641 L82,482.6641 L82,489.7969 L72,499.7969 L10,499.7969 L10,482.6641 " fill="#EEEEEE" style="stroke:#000000;stroke-width:1.5;"/><rect fill="none" height="61.2344" style="stroke:#000000;stroke-width:1.5;" width="597" x="10" y="482.6641"/><text fill="#000000" font-family="sans-serif" font-size="13" font-weight="bold" lengthAdjust="spacing" textLength="27" x="25" y="495.731">opt</text><text fill="#000000" font-family="sans-serif" font-size="11" font-weight="bold" lengthAdjust="spacing" textLength="55" x="97" y="494.8745">[Search]</text><rect fill="none" height="39.1016" style="stroke:#000000;stroke-width:1.5;" width="583" x="17" y="499.7969"/><path d="M17,499.7969 L85,499.7969 L85,506.7969 L75,516.7969 L17,516.7969 L17,499.7969 " fill="#EEEEEE" style="stroke:#000000;stroke-width:2.0;"/><text fill="#000000" font-family="sans-serif" font-size="13" font-weight="bold" lengthAdjust="spacing" textLength="23" x="30" y="513.8638">ref</text><text fill="#000000" font-family="sans-serif" font-size="12" lengthAdjust="spacing" textLength="172" x="222.5" y="531.9355">Sequence Search Document</text><!--SRC=[jP71JiCm38RlVWe_GFi2Eo2X5Y4anWvZtDF4fP7Qk2GEiBSdewDQrT9RSuhbtzyl_rPHsCMk8W-DDOGrirJy3Q2qiCTxqra75KTdb3zZoJfsv6Ild7gdo-_DqXTeTkAv7Tl5KBS9cYehQV1GdFOFBwy0SmtcTsD_XuyasDeWo3MQgpR0Nn_p_AAUCNRuF9zPSBePdkwm1fWgSOLHsj2twhomm6-GQwD5mnnI_j5fiUm0k1SiF2aXmFGyrSYVT3r9zWydMyWckqdtI1-Hd2PySe6yZEfq9pDOddgpaUL0Nh0igQLjB0VoWkMHbDVD5fO3UMBv0m00]--></g></svg>