<?xml version="1.0" encoding="us-ascii" standalone="no"?><svg xmlns="http://www.w3.org/2000/svg" xmlns:xlink="http://www.w3.org/1999/xlink" contentStyleType="text/css" height="383px" preserveAspectRatio="none" style="width:689px;height:383px;background:#FFFFFF;" version="1.1" viewBox="0 0 689 383" width="689px" zoomAndPan="magnify"><defs/><g><line style="stroke:#181818;stroke-width:0.5;stroke-dasharray:5.0,5.0;" x1="31" x2="31" y1="81.2969" y2="376.625"/><line style="stroke:#181818;stroke-width:0.5;stroke-dasharray:5.0,5.0;" x1="201.5" x2="201.5" y1="81.2969" y2="376.625"/><line style="stroke:#181818;stroke-width:0.5;stroke-dasharray:5.0,5.0;" x1="406" x2="406" y1="81.2969" y2="376.625"/><line style="stroke:#181818;stroke-width:0.5;stroke-dasharray:5.0,5.0;" x1="589.5" x2="589.5" y1="81.2969" y2="376.625"/><text fill="#000000" font-family="sans-serif" font-size="14" lengthAdjust="spacing" textLength="46" x="5" y="77.9951">Admin</text><ellipse cx="31" cy="13.5" fill="#E2E2F0" rx="8" ry="8" style="stroke:#181818;stroke-width:0.5;"/><path d="M31,21.5 L31,48.5 M18,29.5 L44,29.5 M31,48.5 L18,63.5 M31,48.5 L44,63.5 " fill="none" style="stroke:#181818;stroke-width:0.5;"/><text fill="#000000" font-family="sans-serif" font-size="14" lengthAdjust="spacing" textLength="203" x="97.5" y="77.9951">DocumentManagementView</text><path d="M181.5,37 L181.5,61 M181.5,49 L198.5,49 " fill="none" style="stroke:#181818;stroke-width:0.5;"/><ellipse cx="210.5" cy="49" fill="#E2E2F0" rx="12" ry="12" style="stroke:#181818;stroke-width:0.5;"/><text fill="#000000" font-family="sans-serif" font-size="14" lengthAdjust="spacing" textLength="148" x="329" y="77.9951">DocumentController</text><ellipse cx="406" cy="49" fill="#E2E2F0" rx="12" ry="12" style="stroke:#181818;stroke-width:0.5;"/><polygon fill="#181818" points="402,37,408,32,406,37,408,42,402,37" style="stroke:#181818;stroke-width:1.0;"/><text fill="#000000" font-family="sans-serif" font-size="14" lengthAdjust="spacing" textLength="81" x="546.5" y="77.9951">DOCUMENT</text><ellipse cx="590" cy="49" fill="#E2E2F0" rx="12" ry="12" style="stroke:#181818;stroke-width:0.5;"/><line style="stroke:#181818;stroke-width:0.5;" x1="578" x2="602" y1="63" y2="63"/><polygon fill="#181818" points="190,123.5625,200,127.5625,190,131.5625,194,127.5625" style="stroke:#181818;stroke-width:1.0;"/><line style="stroke:#181818;stroke-width:1.0;" x1="31" x2="196" y1="127.5625" y2="127.5625"/><text fill="#000000" font-family="sans-serif" font-size="13" font-weight="bold" lengthAdjust="spacing" textLength="9" x="38" y="114.9302">1</text><text fill="#000000" font-family="sans-serif" font-size="13" lengthAdjust="spacing" textLength="113" x="51" y="107.3638">Enters the search</text><text fill="#000000" font-family="sans-serif" font-size="13" lengthAdjust="spacing" textLength="134" x="51" y="122.4966">criteria in search box</text><polygon fill="#181818" points="394,167.8281,404,171.8281,394,175.8281,398,171.8281" style="stroke:#181818;stroke-width:1.0;"/><line style="stroke:#181818;stroke-width:1.0;" x1="202" x2="400" y1="171.8281" y2="171.8281"/><text fill="#000000" font-family="sans-serif" font-size="13" font-weight="bold" lengthAdjust="spacing" textLength="9" x="209" y="159.1958">2</text><text fill="#000000" font-family="sans-serif" font-size="13" lengthAdjust="spacing" textLength="167" x="222" y="151.6294">Send searching document</text><text fill="#000000" font-family="sans-serif" font-size="13" lengthAdjust="spacing" textLength="127" x="222" y="166.7622">information request</text><polygon fill="#181818" points="578,212.0938,588,216.0938,578,220.0938,582,216.0938" style="stroke:#181818;stroke-width:1.0;"/><line style="stroke:#181818;stroke-width:1.0;" x1="406" x2="584" y1="216.0938" y2="216.0938"/><text fill="#000000" font-family="sans-serif" font-size="13" font-weight="bold" lengthAdjust="spacing" textLength="8" x="413" y="203.4614">3</text><text fill="#000000" font-family="sans-serif" font-size="13" lengthAdjust="spacing" textLength="148" x="425" y="195.895">Search document base</text><text fill="#000000" font-family="sans-serif" font-size="13" lengthAdjust="spacing" textLength="121" x="425" y="211.0278">on given keywords</text><line style="stroke:#181818;stroke-width:1.0;" x1="590" x2="632" y1="245.2266" y2="245.2266"/><line style="stroke:#181818;stroke-width:1.0;" x1="632" x2="632" y1="245.2266" y2="258.2266"/><line style="stroke:#181818;stroke-width:1.0;" x1="591" x2="632" y1="258.2266" y2="258.2266"/><polygon fill="#181818" points="601,254.2266,591,258.2266,601,262.2266,597,258.2266" style="stroke:#181818;stroke-width:1.0;"/><text fill="#000000" font-family="sans-serif" font-size="13" font-weight="bold" lengthAdjust="spacing" textLength="9" x="597" y="240.1606">4</text><text fill="#000000" font-family="sans-serif" font-size="13" lengthAdjust="spacing" textLength="72" x="610" y="240.1606">Query data</text><polygon fill="#181818" points="417,283.3594,407,287.3594,417,291.3594,413,287.3594" style="stroke:#181818;stroke-width:1.0;"/><line style="stroke:#181818;stroke-width:1.0;stroke-dasharray:2.0,2.0;" x1="411" x2="589" y1="287.3594" y2="287.3594"/><text fill="#000000" font-family="sans-serif" font-size="13" font-weight="bold" lengthAdjust="spacing" textLength="9" x="423" y="282.2935">5</text><text fill="#000000" font-family="sans-serif" font-size="13" lengthAdjust="spacing" textLength="79" x="436" y="282.2935">Query result</text><polygon fill="#181818" points="213,312.4922,203,316.4922,213,320.4922,209,316.4922" style="stroke:#181818;stroke-width:1.0;"/><line style="stroke:#181818;stroke-width:1.0;stroke-dasharray:2.0,2.0;" x1="207" x2="405" y1="316.4922" y2="316.4922"/><text fill="#000000" font-family="sans-serif" font-size="13" font-weight="bold" lengthAdjust="spacing" textLength="9" x="219" y="311.4263">6</text><text fill="#000000" font-family="sans-serif" font-size="13" lengthAdjust="spacing" textLength="79" x="232" y="311.4263">Query result</text><line style="stroke:#181818;stroke-width:1.0;" x1="202" x2="244" y1="345.625" y2="345.625"/><line style="stroke:#181818;stroke-width:1.0;" x1="244" x2="244" y1="345.625" y2="358.625"/><line style="stroke:#181818;stroke-width:1.0;" x1="203" x2="244" y1="358.625" y2="358.625"/><polygon fill="#181818" points="213,354.625,203,358.625,213,362.625,209,358.625" style="stroke:#181818;stroke-width:1.0;"/><text fill="#000000" font-family="sans-serif" font-size="13" font-weight="bold" lengthAdjust="spacing" textLength="9" x="209" y="340.5591">7</text><text fill="#000000" font-family="sans-serif" font-size="13" lengthAdjust="spacing" textLength="162" x="222" y="340.5591">Display list of documents</text><!--SRC=[VP1BKiCm38RtFeKkm0MwO8PfkomCmsELZH8hgOP4AhPCoUrn7Yq5KdQMhE-RNy9aAgahARWzUu9QrKhzT0uhqm1tlcDnfIRn67hOQ9Kw4jkXO4F3wvNfw2eL2zgUlzTJtMPfhjWo-B1-sMtldvqRZN1pUyMrWgqOXGYs9uY4eTeNKWNEFKR8vDI38UEouTBz7MG5JoH-fbaQyFD88IorXWwDLI3GUw9exgzWrCvR3B8nnKa29KOg90iQ_Y21D-gF6dnq9-8d_PWe7zEZuSN0bTZJRA2OskLO_vnoaRr-hT_uXkEXnHvQZWPQdxUDNm00]--></g></svg>