<?xml version="1.0" encoding="us-ascii" standalone="no"?><svg xmlns="http://www.w3.org/2000/svg" xmlns:xlink="http://www.w3.org/1999/xlink" contentStyleType="text/css" height="962px" preserveAspectRatio="none" style="width:1061px;height:962px;background:#FFFFFF;" version="1.1" viewBox="0 0 1061 962" width="1061px" zoomAndPan="magnify"><defs/><g><rect fill="none" height="550.7344" style="stroke:#000000;stroke-width:1.5;" width="1044.5" x="10" y="387.4609"/><rect fill="none" height="304" style="stroke:#000000;stroke-width:1.5;" width="961" x="76.5" y="627.1953"/><line style="stroke:#181818;stroke-width:0.5;stroke-dasharray:5.0,5.0;" x1="46" x2="46" y1="81.2969" y2="955.1953"/><line style="stroke:#181818;stroke-width:0.5;stroke-dasharray:5.0,5.0;" x1="190.5" x2="190.5" y1="81.2969" y2="955.1953"/><line style="stroke:#181818;stroke-width:0.5;stroke-dasharray:5.0,5.0;" x1="405.5" x2="405.5" y1="81.2969" y2="955.1953"/><line style="stroke:#181818;stroke-width:0.5;stroke-dasharray:5.0,5.0;" x1="665.5" x2="665.5" y1="81.2969" y2="955.1953"/><line style="stroke:#181818;stroke-width:0.5;stroke-dasharray:5.0,5.0;" x1="929" x2="929" y1="81.2969" y2="955.1953"/><text fill="#000000" font-family="sans-serif" font-size="14" lengthAdjust="spacing" textLength="46" x="20" y="77.9951">Admin</text><ellipse cx="46" cy="13.5" fill="#E2E2F0" rx="8" ry="8" style="stroke:#181818;stroke-width:0.5;"/><path d="M46,21.5 L46,48.5 M33,29.5 L59,29.5 M46,48.5 L33,63.5 M46,48.5 L59,63.5 " fill="none" style="stroke:#181818;stroke-width:0.5;"/><text fill="#000000" font-family="sans-serif" font-size="14" lengthAdjust="spacing" textLength="203" x="86.5" y="77.9951">DocumentManagementView</text><path d="M170.5,37 L170.5,61 M170.5,49 L187.5,49 " fill="none" style="stroke:#181818;stroke-width:0.5;"/><ellipse cx="199.5" cy="49" fill="#E2E2F0" rx="12" ry="12" style="stroke:#181818;stroke-width:0.5;"/><text fill="#000000" font-family="sans-serif" font-size="14" lengthAdjust="spacing" textLength="194" x="305.5" y="77.9951">DocumentInformationView</text><path d="M385,37 L385,61 M385,49 L402,49 " fill="none" style="stroke:#181818;stroke-width:0.5;"/><ellipse cx="414" cy="49" fill="#E2E2F0" rx="12" ry="12" style="stroke:#181818;stroke-width:0.5;"/><text fill="#000000" font-family="sans-serif" font-size="14" lengthAdjust="spacing" textLength="148" x="588.5" y="77.9951">DocumentController</text><ellipse cx="665.5" cy="49" fill="#E2E2F0" rx="12" ry="12" style="stroke:#181818;stroke-width:0.5;"/><polygon fill="#181818" points="661.5,37,667.5,32,665.5,37,667.5,42,661.5,37" style="stroke:#181818;stroke-width:1.0;"/><text fill="#000000" font-family="sans-serif" font-size="14" lengthAdjust="spacing" textLength="81" x="886" y="77.9951">DOCUMENT</text><ellipse cx="929.5" cy="49" fill="#E2E2F0" rx="12" ry="12" style="stroke:#181818;stroke-width:0.5;"/><line style="stroke:#181818;stroke-width:0.5;" x1="917.5" x2="941.5" y1="63" y2="63"/><rect fill="none" height="39.1016" style="stroke:#000000;stroke-width:1.5;" width="959" x="17" y="91.2969"/><path d="M17,91.2969 L85,91.2969 L85,98.2969 L75,108.2969 L17,108.2969 L17,91.2969 " fill="#EEEEEE" style="stroke:#000000;stroke-width:2.0;"/><text fill="#000000" font-family="sans-serif" font-size="13" font-weight="bold" lengthAdjust="spacing" textLength="23" x="30" y="105.3638">ref</text><text fill="#000000" font-family="sans-serif" font-size="12" lengthAdjust="spacing" textLength="172" x="410.5" y="123.4355">Sequence Search Document</text><polygon fill="#181818" points="179,167.6641,189,171.6641,179,175.6641,183,171.6641" style="stroke:#181818;stroke-width:1.0;"/><line style="stroke:#181818;stroke-width:1.0;" x1="46" x2="185" y1="171.6641" y2="171.6641"/><text fill="#000000" font-family="sans-serif" font-size="13" font-weight="bold" lengthAdjust="spacing" textLength="9" x="53" y="159.0317">1</text><text fill="#000000" font-family="sans-serif" font-size="13" lengthAdjust="spacing" textLength="108" x="66" y="151.4653">Select document</text><text fill="#000000" font-family="sans-serif" font-size="13" lengthAdjust="spacing" textLength="99" x="70" y="166.5981">needs updating</text><polygon fill="#181818" points="653.5,196.7969,663.5,200.7969,653.5,204.7969,657.5,200.7969" style="stroke:#181818;stroke-width:1.0;"/><line style="stroke:#181818;stroke-width:1.0;" x1="191" x2="659.5" y1="200.7969" y2="200.7969"/><text fill="#000000" font-family="sans-serif" font-size="13" font-weight="bold" lengthAdjust="spacing" textLength="9" x="198" y="195.731">2</text><text fill="#000000" font-family="sans-serif" font-size="13" lengthAdjust="spacing" textLength="228" x="211" y="195.731">Get selected document information</text><polygon fill="#181818" points="917.5,225.9297,927.5,229.9297,917.5,233.9297,921.5,229.9297" style="stroke:#181818;stroke-width:1.0;"/><line style="stroke:#181818;stroke-width:1.0;" x1="665.5" x2="923.5" y1="229.9297" y2="229.9297"/><text fill="#000000" font-family="sans-serif" font-size="13" font-weight="bold" lengthAdjust="spacing" textLength="8" x="672.5" y="224.8638">3</text><text fill="#000000" font-family="sans-serif" font-size="13" lengthAdjust="spacing" textLength="228" x="684.5" y="224.8638">Get selected document information</text><polygon fill="#181818" points="416.5,255.0625,406.5,259.0625,416.5,263.0625,412.5,259.0625" style="stroke:#181818;stroke-width:1.0;"/><line style="stroke:#181818;stroke-width:1.0;stroke-dasharray:2.0,2.0;" x1="410.5" x2="928.5" y1="259.0625" y2="259.0625"/><text fill="#000000" font-family="sans-serif" font-size="13" font-weight="bold" lengthAdjust="spacing" textLength="9" x="422.5" y="253.9966">4</text><text fill="#000000" font-family="sans-serif" font-size="13" lengthAdjust="spacing" textLength="202" x="435.5" y="253.9966">Selected document information</text><line style="stroke:#181818;stroke-width:1.0;" x1="405.5" x2="447.5" y1="288.1953" y2="288.1953"/><line style="stroke:#181818;stroke-width:1.0;" x1="447.5" x2="447.5" y1="288.1953" y2="301.1953"/><line style="stroke:#181818;stroke-width:1.0;" x1="406.5" x2="447.5" y1="301.1953" y2="301.1953"/><polygon fill="#181818" points="416.5,297.1953,406.5,301.1953,416.5,305.1953,412.5,301.1953" style="stroke:#181818;stroke-width:1.0;"/><text fill="#000000" font-family="sans-serif" font-size="13" font-weight="bold" lengthAdjust="spacing" textLength="9" x="412.5" y="283.1294">5</text><text fill="#000000" font-family="sans-serif" font-size="13" lengthAdjust="spacing" textLength="194" x="425.5" y="283.1294">Display document information</text><polygon fill="#181818" points="393.5,326.3281,403.5,330.3281,393.5,334.3281,397.5,330.3281" style="stroke:#181818;stroke-width:1.0;"/><line style="stroke:#181818;stroke-width:1.0;" x1="46" x2="399.5" y1="330.3281" y2="330.3281"/><text fill="#000000" font-family="sans-serif" font-size="13" font-weight="bold" lengthAdjust="spacing" textLength="9" x="53" y="325.2622">6</text><text fill="#000000" font-family="sans-serif" font-size="13" lengthAdjust="spacing" textLength="181" x="66" y="325.2622">Enter document information</text><line style="stroke:#181818;stroke-width:1.0;" x1="405.5" x2="447.5" y1="359.4609" y2="359.4609"/><line style="stroke:#181818;stroke-width:1.0;" x1="447.5" x2="447.5" y1="359.4609" y2="372.4609"/><line style="stroke:#181818;stroke-width:1.0;" x1="406.5" x2="447.5" y1="372.4609" y2="372.4609"/><polygon fill="#181818" points="416.5,368.4609,406.5,372.4609,416.5,376.4609,412.5,372.4609" style="stroke:#181818;stroke-width:1.0;"/><text fill="#000000" font-family="sans-serif" font-size="13" font-weight="bold" lengthAdjust="spacing" textLength="9" x="412.5" y="354.395">7</text><text fill="#000000" font-family="sans-serif" font-size="13" lengthAdjust="spacing" textLength="85" x="425.5" y="354.395">Validate data</text><path d="M10,387.4609 L76,387.4609 L76,394.5938 L66,404.5938 L10,404.5938 L10,387.4609 " fill="#EEEEEE" style="stroke:#000000;stroke-width:1.5;"/><rect fill="none" height="550.7344" style="stroke:#000000;stroke-width:1.5;" width="1044.5" x="10" y="387.4609"/><text fill="#000000" font-family="sans-serif" font-size="13" font-weight="bold" lengthAdjust="spacing" textLength="21" x="25" y="400.5278">alt</text><text fill="#000000" font-family="sans-serif" font-size="11" font-weight="bold" lengthAdjust="spacing" textLength="88" x="91" y="399.6714">[Invalid data]</text><polygon fill="#181818" points="57,421.7266,47,425.7266,57,429.7266,53,425.7266" style="stroke:#181818;stroke-width:1.0;"/><line style="stroke:#181818;stroke-width:1.0;stroke-dasharray:2.0,2.0;" x1="51" x2="404.5" y1="425.7266" y2="425.7266"/><text fill="#000000" font-family="sans-serif" font-size="13" font-weight="bold" lengthAdjust="spacing" textLength="9" x="63" y="420.6606">8</text><text fill="#000000" font-family="sans-serif" font-size="13" lengthAdjust="spacing" textLength="106" x="76" y="420.6606">Error notification</text><line style="stroke:#181818;stroke-width:1.0;" x1="405.5" x2="447.5" y1="454.8594" y2="454.8594"/><line style="stroke:#181818;stroke-width:1.0;" x1="447.5" x2="447.5" y1="454.8594" y2="467.8594"/><line style="stroke:#181818;stroke-width:1.0;" x1="406.5" x2="447.5" y1="467.8594" y2="467.8594"/><polygon fill="#181818" points="416.5,463.8594,406.5,467.8594,416.5,471.8594,412.5,467.8594" style="stroke:#181818;stroke-width:1.0;"/><text fill="#000000" font-family="sans-serif" font-size="13" font-weight="bold" lengthAdjust="spacing" textLength="9" x="412.5" y="449.7935">9</text><text fill="#000000" font-family="sans-serif" font-size="13" lengthAdjust="spacing" textLength="157" x="425.5" y="449.7935">Display error notification</text><line style="stroke:#000000;stroke-width:1.0;stroke-dasharray:2.0,2.0;" x1="10" x2="1054.5" y1="476.8594" y2="476.8594"/><text fill="#000000" font-family="sans-serif" font-size="11" font-weight="bold" lengthAdjust="spacing" textLength="78" x="15" y="487.0698">[Valid data]</text><polygon fill="#181818" points="393.5,507.7969,403.5,511.7969,393.5,515.7969,397.5,511.7969" style="stroke:#181818;stroke-width:1.0;"/><line style="stroke:#181818;stroke-width:1.0;" x1="46" x2="399.5" y1="511.7969" y2="511.7969"/><text fill="#000000" font-family="sans-serif" font-size="13" font-weight="bold" lengthAdjust="spacing" textLength="19" x="53" y="506.731">10</text><text fill="#000000" font-family="sans-serif" font-size="13" lengthAdjust="spacing" textLength="191" x="76" y="506.731">Click button "Save" to confirm</text><polygon fill="#181818" points="653.5,536.9297,663.5,540.9297,653.5,544.9297,657.5,540.9297" style="stroke:#181818;stroke-width:1.0;"/><line style="stroke:#181818;stroke-width:1.0;" x1="405.5" x2="659.5" y1="540.9297" y2="540.9297"/><text fill="#000000" font-family="sans-serif" font-size="13" font-weight="bold" lengthAdjust="spacing" textLength="18" x="412.5" y="535.8638">11</text><text fill="#000000" font-family="sans-serif" font-size="13" lengthAdjust="spacing" textLength="214" x="434.5" y="535.8638">Send updating document request</text><polygon fill="#181818" points="917.5,566.0625,927.5,570.0625,917.5,574.0625,921.5,570.0625" style="stroke:#181818;stroke-width:1.0;"/><line style="stroke:#181818;stroke-width:1.0;" x1="665.5" x2="923.5" y1="570.0625" y2="570.0625"/><text fill="#000000" font-family="sans-serif" font-size="13" font-weight="bold" lengthAdjust="spacing" textLength="18" x="672.5" y="564.9966">12</text><text fill="#000000" font-family="sans-serif" font-size="13" lengthAdjust="spacing" textLength="110" x="694.5" y="564.9966">Send information</text><line style="stroke:#181818;stroke-width:1.0;" x1="929.5" x2="971.5" y1="599.1953" y2="599.1953"/><line style="stroke:#181818;stroke-width:1.0;" x1="971.5" x2="971.5" y1="599.1953" y2="612.1953"/><line style="stroke:#181818;stroke-width:1.0;" x1="930.5" x2="971.5" y1="612.1953" y2="612.1953"/><polygon fill="#181818" points="940.5,608.1953,930.5,612.1953,940.5,616.1953,936.5,612.1953" style="stroke:#181818;stroke-width:1.0;"/><text fill="#000000" font-family="sans-serif" font-size="13" font-weight="bold" lengthAdjust="spacing" textLength="17" x="936.5" y="594.1294">13</text><text fill="#000000" font-family="sans-serif" font-size="13" lengthAdjust="spacing" textLength="85" x="957.5" y="594.1294">Validate data</text><path d="M76.5,627.1953 L142.5,627.1953 L142.5,634.3281 L132.5,644.3281 L76.5,644.3281 L76.5,627.1953 " fill="#EEEEEE" style="stroke:#000000;stroke-width:1.5;"/><rect fill="none" height="304" style="stroke:#000000;stroke-width:1.5;" width="961" x="76.5" y="627.1953"/><text fill="#000000" font-family="sans-serif" font-size="13" font-weight="bold" lengthAdjust="spacing" textLength="21" x="91.5" y="640.2622">alt</text><text fill="#000000" font-family="sans-serif" font-size="11" font-weight="bold" lengthAdjust="spacing" textLength="88" x="157.5" y="639.4058">[Invalid data]</text><polygon fill="#181818" points="676.5,661.4609,666.5,665.4609,676.5,669.4609,672.5,665.4609" style="stroke:#181818;stroke-width:1.0;"/><line style="stroke:#181818;stroke-width:1.0;stroke-dasharray:2.0,2.0;" x1="670.5" x2="928.5" y1="665.4609" y2="665.4609"/><text fill="#000000" font-family="sans-serif" font-size="13" font-weight="bold" lengthAdjust="spacing" textLength="18" x="682.5" y="660.395">14</text><text fill="#000000" font-family="sans-serif" font-size="13" lengthAdjust="spacing" textLength="106" x="704.5" y="660.395">Error notification</text><polygon fill="#181818" points="416.5,690.5938,406.5,694.5938,416.5,698.5938,412.5,694.5938" style="stroke:#181818;stroke-width:1.0;"/><line style="stroke:#181818;stroke-width:1.0;stroke-dasharray:2.0,2.0;" x1="410.5" x2="664.5" y1="694.5938" y2="694.5938"/><text fill="#000000" font-family="sans-serif" font-size="13" font-weight="bold" lengthAdjust="spacing" textLength="18" x="422.5" y="689.5278">15</text><text fill="#000000" font-family="sans-serif" font-size="13" lengthAdjust="spacing" textLength="106" x="444.5" y="689.5278">Error notification</text><line style="stroke:#181818;stroke-width:1.0;" x1="405.5" x2="447.5" y1="723.7266" y2="723.7266"/><line style="stroke:#181818;stroke-width:1.0;" x1="447.5" x2="447.5" y1="723.7266" y2="736.7266"/><line style="stroke:#181818;stroke-width:1.0;" x1="406.5" x2="447.5" y1="736.7266" y2="736.7266"/><polygon fill="#181818" points="416.5,732.7266,406.5,736.7266,416.5,740.7266,412.5,736.7266" style="stroke:#181818;stroke-width:1.0;"/><text fill="#000000" font-family="sans-serif" font-size="13" font-weight="bold" lengthAdjust="spacing" textLength="18" x="412.5" y="718.6606">16</text><text fill="#000000" font-family="sans-serif" font-size="13" lengthAdjust="spacing" textLength="157" x="434.5" y="718.6606">Display error notification</text><line style="stroke:#000000;stroke-width:1.0;stroke-dasharray:2.0,2.0;" x1="76.5" x2="1037.5" y1="745.7266" y2="745.7266"/><text fill="#000000" font-family="sans-serif" font-size="11" font-weight="bold" lengthAdjust="spacing" textLength="78" x="81.5" y="755.937">[Valid data]</text><line style="stroke:#181818;stroke-width:1.0;" x1="929.5" x2="971.5" y1="780.6641" y2="780.6641"/><line style="stroke:#181818;stroke-width:1.0;" x1="971.5" x2="971.5" y1="780.6641" y2="793.6641"/><line style="stroke:#181818;stroke-width:1.0;" x1="930.5" x2="971.5" y1="793.6641" y2="793.6641"/><polygon fill="#181818" points="940.5,789.6641,930.5,793.6641,940.5,797.6641,936.5,793.6641" style="stroke:#181818;stroke-width:1.0;"/><text fill="#000000" font-family="sans-serif" font-size="13" font-weight="bold" lengthAdjust="spacing" textLength="18" x="936.5" y="775.5981">17</text><text fill="#000000" font-family="sans-serif" font-size="13" lengthAdjust="spacing" textLength="67" x="958.5" y="775.5981">Store data</text><polygon fill="#181818" points="676.5,818.7969,666.5,822.7969,676.5,826.7969,672.5,822.7969" style="stroke:#181818;stroke-width:1.0;"/><line style="stroke:#181818;stroke-width:1.0;stroke-dasharray:2.0,2.0;" x1="670.5" x2="928.5" y1="822.7969" y2="822.7969"/><text fill="#000000" font-family="sans-serif" font-size="13" font-weight="bold" lengthAdjust="spacing" textLength="18" x="682.5" y="817.731">18</text><text fill="#000000" font-family="sans-serif" font-size="13" lengthAdjust="spacing" textLength="127" x="704.5" y="817.731">Success notification</text><polygon fill="#181818" points="416.5,847.9297,406.5,851.9297,416.5,855.9297,412.5,851.9297" style="stroke:#181818;stroke-width:1.0;"/><line style="stroke:#181818;stroke-width:1.0;stroke-dasharray:2.0,2.0;" x1="410.5" x2="664.5" y1="851.9297" y2="851.9297"/><text fill="#000000" font-family="sans-serif" font-size="13" font-weight="bold" lengthAdjust="spacing" textLength="18" x="422.5" y="846.8638">19</text><text fill="#000000" font-family="sans-serif" font-size="13" lengthAdjust="spacing" textLength="127" x="444.5" y="846.8638">Success notification</text><line style="stroke:#181818;stroke-width:1.0;" x1="405.5" x2="447.5" y1="881.0625" y2="881.0625"/><line style="stroke:#181818;stroke-width:1.0;" x1="447.5" x2="447.5" y1="881.0625" y2="894.0625"/><line style="stroke:#181818;stroke-width:1.0;" x1="406.5" x2="447.5" y1="894.0625" y2="894.0625"/><polygon fill="#181818" points="416.5,890.0625,406.5,894.0625,416.5,898.0625,412.5,894.0625" style="stroke:#181818;stroke-width:1.0;"/><text fill="#000000" font-family="sans-serif" font-size="13" font-weight="bold" lengthAdjust="spacing" textLength="19" x="412.5" y="875.9966">20</text><text fill="#000000" font-family="sans-serif" font-size="13" lengthAdjust="spacing" textLength="69" x="435.5" y="875.9966">Close view</text><polygon fill="#181818" points="202,919.1953,192,923.1953,202,927.1953,198,923.1953" style="stroke:#181818;stroke-width:1.0;"/><line style="stroke:#181818;stroke-width:1.0;" x1="196" x2="664.5" y1="923.1953" y2="923.1953"/><text fill="#000000" font-family="sans-serif" font-size="13" font-weight="bold" lengthAdjust="spacing" textLength="18" x="208" y="918.1294">21</text><text fill="#000000" font-family="sans-serif" font-size="13" lengthAdjust="spacing" textLength="320" x="230" y="918.1294">Display success notification and list of documents</text><!--SRC=[hLN1JiCm3BtdAwoTomzmG48RGZiC3eMTk6I9kqMa3YJfWB_7RKVNhSqs43rKRUFt_FpifBAAZgfoXLviZ4Oed8ihzoc4LD5vkDMb8R5o5Mdfls3cL5KYnOKakSRwQMdmOxW-fyBvKaRZg0bGZg9tjbkVjk-Mi_ARYOnyd3ulxXwUXF1OWDlYBdUMo9cbScKZIRAE_XfoVA-G5FA3z6hJHOic7LpT91BMI8igWjujln0GeWvGlMdEJcin3knJxYLTmpr620qbweuKpBuQCKGrN5qf5p3iOk6g9-B8i9_2pgauWi4fnfa9RrP-ZHCEZ1x0xoXohMDWW3_fMKfhk4a8V9D2sWXpsjRVsW_0LvAMUHl5BCjxtXBaeYcCQcivYRp081nIeWtO2jwBEs_Pr1hr2gigydQ6IIwtE87eW3TUONnvgSx-VEP8kfljVJDylNz2F61C3MX3qMzz0-fciXzwsA4wRhHBXmG9vOa-fHIVdCJpLF_KzffohFLfot8-eF6NrkILKXZ2_vXp4Tblx9bQnmPiwp_6AKtf8_h7tp2Y32GFepKXWYkwSGwjxwJvFwI_0G00]--></g></svg>