<?xml version="1.0" encoding="us-ascii" standalone="no"?><svg xmlns="http://www.w3.org/2000/svg" xmlns:xlink="http://www.w3.org/1999/xlink" contentStyleType="text/css" height="723px" preserveAspectRatio="none" style="width:892px;height:723px;background:#FFFFFF;" version="1.1" viewBox="0 0 892 723" width="892px" zoomAndPan="magnify"><defs/><g><rect fill="none" height="280.5938" style="stroke:#000000;stroke-width:1.5;" width="876" x="10" y="242.9609"/><rect fill="none" height="161.7969" style="stroke:#000000;stroke-width:1.5;" width="737" x="10" y="537.5547"/><line style="stroke:#181818;stroke-width:0.5;stroke-dasharray:5.0,5.0;" x1="78" x2="78" y1="81.2969" y2="716.3516"/><line style="stroke:#181818;stroke-width:0.5;stroke-dasharray:5.0,5.0;" x1="255.5" x2="255.5" y1="81.2969" y2="716.3516"/><line style="stroke:#181818;stroke-width:0.5;stroke-dasharray:5.0,5.0;" x1="459" x2="459" y1="81.2969" y2="716.3516"/><line style="stroke:#181818;stroke-width:0.5;stroke-dasharray:5.0,5.0;" x1="669" x2="669" y1="81.2969" y2="716.3516"/><line style="stroke:#181818;stroke-width:0.5;stroke-dasharray:5.0,5.0;" x1="849" x2="849" y1="81.2969" y2="716.3516"/><text fill="#000000" font-family="sans-serif" font-size="14" lengthAdjust="spacing" textLength="111" x="20" y="77.9951">Parent / Doctor</text><ellipse cx="78.5" cy="13.5" fill="#E2E2F0" rx="8" ry="8" style="stroke:#181818;stroke-width:0.5;"/><path d="M78.5,21.5 L78.5,48.5 M65.5,29.5 L91.5,29.5 M78.5,48.5 L65.5,63.5 M78.5,48.5 L91.5,63.5 " fill="none" style="stroke:#181818;stroke-width:0.5;"/><text fill="#000000" font-family="sans-serif" font-size="14" lengthAdjust="spacing" textLength="152" x="176.5" y="77.9951">ChildEventChartView</text><path d="M235,37 L235,61 M235,49 L252,49 " fill="none" style="stroke:#181818;stroke-width:0.5;"/><ellipse cx="264" cy="49" fill="#E2E2F0" rx="12" ry="12" style="stroke:#181818;stroke-width:0.5;"/><text fill="#000000" font-family="sans-serif" font-size="14" lengthAdjust="spacing" textLength="197" x="358" y="77.9951">ChildEventInformationView</text><path d="M439,37 L439,61 M439,49 L456,49 " fill="none" style="stroke:#181818;stroke-width:0.5;"/><ellipse cx="468" cy="49" fill="#E2E2F0" rx="12" ry="12" style="stroke:#181818;stroke-width:0.5;"/><text fill="#000000" font-family="sans-serif" font-size="14" lengthAdjust="spacing" textLength="129" x="602" y="77.9951">MonitorController</text><ellipse cx="669.5" cy="49" fill="#E2E2F0" rx="12" ry="12" style="stroke:#181818;stroke-width:0.5;"/><polygon fill="#181818" points="665.5,37,671.5,32,669.5,37,671.5,42,665.5,37" style="stroke:#181818;stroke-width:1.0;"/><text fill="#000000" font-family="sans-serif" font-size="14" lengthAdjust="spacing" textLength="47" x="823" y="77.9951">EVENT</text><ellipse cx="849.5" cy="49" fill="#E2E2F0" rx="12" ry="12" style="stroke:#181818;stroke-width:0.5;"/><line style="stroke:#181818;stroke-width:0.5;" x1="837.5" x2="861.5" y1="63" y2="63"/><polygon fill="#181818" points="837.5,108.4297,847.5,112.4297,837.5,116.4297,841.5,112.4297" style="stroke:#181818;stroke-width:1.0;"/><line style="stroke:#181818;stroke-width:1.0;" x1="669.5" x2="843.5" y1="112.4297" y2="112.4297"/><text fill="#000000" font-family="sans-serif" font-size="13" font-weight="bold" lengthAdjust="spacing" textLength="9" x="676.5" y="107.3638">1</text><text fill="#000000" font-family="sans-serif" font-size="13" lengthAdjust="spacing" textLength="143" x="689.5" y="107.3638">Get list of child events</text><polygon fill="#181818" points="680.5,137.5625,670.5,141.5625,680.5,145.5625,676.5,141.5625" style="stroke:#181818;stroke-width:1.0;"/><line style="stroke:#181818;stroke-width:1.0;stroke-dasharray:2.0,2.0;" x1="674.5" x2="848.5" y1="141.5625" y2="141.5625"/><text fill="#000000" font-family="sans-serif" font-size="13" font-weight="bold" lengthAdjust="spacing" textLength="9" x="686.5" y="136.4966">2</text><text fill="#000000" font-family="sans-serif" font-size="13" lengthAdjust="spacing" textLength="120" x="699.5" y="136.4966">List of child events</text><polygon fill="#181818" points="266.5,166.6953,256.5,170.6953,266.5,174.6953,262.5,170.6953" style="stroke:#181818;stroke-width:1.0;"/><line style="stroke:#181818;stroke-width:1.0;stroke-dasharray:2.0,2.0;" x1="260.5" x2="668.5" y1="170.6953" y2="170.6953"/><text fill="#000000" font-family="sans-serif" font-size="13" font-weight="bold" lengthAdjust="spacing" textLength="8" x="272.5" y="165.6294">3</text><text fill="#000000" font-family="sans-serif" font-size="13" lengthAdjust="spacing" textLength="120" x="284.5" y="165.6294">List of child events</text><line style="stroke:#181818;stroke-width:1.0;" x1="255.5" x2="297.5" y1="214.9609" y2="214.9609"/><line style="stroke:#181818;stroke-width:1.0;" x1="297.5" x2="297.5" y1="214.9609" y2="227.9609"/><line style="stroke:#181818;stroke-width:1.0;" x1="256.5" x2="297.5" y1="227.9609" y2="227.9609"/><polygon fill="#181818" points="266.5,223.9609,256.5,227.9609,266.5,231.9609,262.5,227.9609" style="stroke:#181818;stroke-width:1.0;"/><text fill="#000000" font-family="sans-serif" font-size="13" font-weight="bold" lengthAdjust="spacing" textLength="9" x="262.5" y="202.3286">4</text><text fill="#000000" font-family="sans-serif" font-size="13" lengthAdjust="spacing" textLength="80" x="275.5" y="194.7622">Display child</text><text fill="#000000" font-family="sans-serif" font-size="13" lengthAdjust="spacing" textLength="100" x="275.5" y="209.895">events as chart</text><path d="M10,242.9609 L82,242.9609 L82,250.0938 L72,260.0938 L10,260.0938 L10,242.9609 " fill="#EEEEEE" style="stroke:#000000;stroke-width:1.5;"/><rect fill="none" height="280.5938" style="stroke:#000000;stroke-width:1.5;" width="876" x="10" y="242.9609"/><text fill="#000000" font-family="sans-serif" font-size="13" font-weight="bold" lengthAdjust="spacing" textLength="27" x="25" y="256.0278">opt</text><text fill="#000000" font-family="sans-serif" font-size="11" font-weight="bold" lengthAdjust="spacing" textLength="153" x="97" y="255.1714">[View details of event]</text><polygon fill="#181818" points="243.5,292.3594,253.5,296.3594,243.5,300.3594,247.5,296.3594" style="stroke:#181818;stroke-width:1.0;"/><line style="stroke:#181818;stroke-width:1.0;" x1="78.5" x2="249.5" y1="296.3594" y2="296.3594"/><text fill="#000000" font-family="sans-serif" font-size="13" font-weight="bold" lengthAdjust="spacing" textLength="9" x="85.5" y="283.7271">5</text><text fill="#000000" font-family="sans-serif" font-size="13" lengthAdjust="spacing" textLength="115" x="98.5" y="276.1606">Click on the event</text><text fill="#000000" font-family="sans-serif" font-size="13" lengthAdjust="spacing" textLength="129" x="98.5" y="291.2935">want to view details</text><polygon fill="#181818" points="657.5,321.4922,667.5,325.4922,657.5,329.4922,661.5,325.4922" style="stroke:#181818;stroke-width:1.0;"/><line style="stroke:#181818;stroke-width:1.0;" x1="255.5" x2="663.5" y1="325.4922" y2="325.4922"/><text fill="#000000" font-family="sans-serif" font-size="13" font-weight="bold" lengthAdjust="spacing" textLength="9" x="262.5" y="320.4263">6</text><text fill="#000000" font-family="sans-serif" font-size="13" lengthAdjust="spacing" textLength="200" x="275.5" y="320.4263">Get selected event information</text><polygon fill="#181818" points="837.5,365.7578,847.5,369.7578,837.5,373.7578,841.5,369.7578" style="stroke:#181818;stroke-width:1.0;"/><line style="stroke:#181818;stroke-width:1.0;" x1="669.5" x2="843.5" y1="369.7578" y2="369.7578"/><text fill="#000000" font-family="sans-serif" font-size="13" font-weight="bold" lengthAdjust="spacing" textLength="9" x="676.5" y="357.1255">7</text><text fill="#000000" font-family="sans-serif" font-size="13" lengthAdjust="spacing" textLength="81" x="689.5" y="349.5591">Get selected</text><text fill="#000000" font-family="sans-serif" font-size="13" lengthAdjust="spacing" textLength="115" x="689.5" y="364.6919">event information</text><polygon fill="#181818" points="680.5,410.0234,670.5,414.0234,680.5,418.0234,676.5,414.0234" style="stroke:#181818;stroke-width:1.0;"/><line style="stroke:#181818;stroke-width:1.0;stroke-dasharray:2.0,2.0;" x1="674.5" x2="848.5" y1="414.0234" y2="414.0234"/><text fill="#000000" font-family="sans-serif" font-size="13" font-weight="bold" lengthAdjust="spacing" textLength="9" x="686.5" y="401.3911">8</text><text fill="#000000" font-family="sans-serif" font-size="13" lengthAdjust="spacing" textLength="55" x="699.5" y="393.8247">Selected</text><text fill="#000000" font-family="sans-serif" font-size="13" lengthAdjust="spacing" textLength="115" x="699.5" y="408.9575">event information</text><polygon fill="#181818" points="470.5,454.2891,460.5,458.2891,470.5,462.2891,466.5,458.2891" style="stroke:#181818;stroke-width:1.0;"/><line style="stroke:#181818;stroke-width:1.0;stroke-dasharray:2.0,2.0;" x1="464.5" x2="668.5" y1="458.2891" y2="458.2891"/><text fill="#000000" font-family="sans-serif" font-size="13" font-weight="bold" lengthAdjust="spacing" textLength="9" x="476.5" y="445.6567">9</text><text fill="#000000" font-family="sans-serif" font-size="13" lengthAdjust="spacing" textLength="96" x="489.5" y="438.0903">Selected event</text><text fill="#000000" font-family="sans-serif" font-size="13" lengthAdjust="spacing" textLength="74" x="489.5" y="453.2231">information</text><line style="stroke:#181818;stroke-width:1.0;" x1="459.5" x2="501.5" y1="502.5547" y2="502.5547"/><line style="stroke:#181818;stroke-width:1.0;" x1="501.5" x2="501.5" y1="502.5547" y2="515.5547"/><line style="stroke:#181818;stroke-width:1.0;" x1="460.5" x2="501.5" y1="515.5547" y2="515.5547"/><polygon fill="#181818" points="470.5,511.5547,460.5,515.5547,470.5,519.5547,466.5,515.5547" style="stroke:#181818;stroke-width:1.0;"/><text fill="#000000" font-family="sans-serif" font-size="13" font-weight="bold" lengthAdjust="spacing" textLength="19" x="466.5" y="489.9224">10</text><text fill="#000000" font-family="sans-serif" font-size="13" lengthAdjust="spacing" textLength="112" x="489.5" y="482.356">Display view with</text><text fill="#000000" font-family="sans-serif" font-size="13" lengthAdjust="spacing" textLength="173" x="489.5" y="497.4888">selected event information</text><path d="M10,537.5547 L82,537.5547 L82,544.6875 L72,554.6875 L10,554.6875 L10,537.5547 " fill="#EEEEEE" style="stroke:#000000;stroke-width:1.5;"/><rect fill="none" height="161.7969" style="stroke:#000000;stroke-width:1.5;" width="737" x="10" y="537.5547"/><text fill="#000000" font-family="sans-serif" font-size="13" font-weight="bold" lengthAdjust="spacing" textLength="27" x="25" y="550.6216">opt</text><text fill="#000000" font-family="sans-serif" font-size="11" font-weight="bold" lengthAdjust="spacing" textLength="83" x="97" y="549.7651">[Export PDF]</text><polygon fill="#181818" points="243.5,586.9531,253.5,590.9531,243.5,594.9531,247.5,590.9531" style="stroke:#181818;stroke-width:1.0;"/><line style="stroke:#181818;stroke-width:1.0;" x1="78.5" x2="249.5" y1="590.9531" y2="590.9531"/><text fill="#000000" font-family="sans-serif" font-size="13" font-weight="bold" lengthAdjust="spacing" textLength="18" x="85.5" y="578.3208">11</text><text fill="#000000" font-family="sans-serif" font-size="13" lengthAdjust="spacing" textLength="131" x="107.5" y="570.7544">Click "Export" button</text><text fill="#000000" font-family="sans-serif" font-size="13" lengthAdjust="spacing" textLength="111" x="107.5" y="585.8872">to export PDF file</text><polygon fill="#181818" points="657.5,616.0859,667.5,620.0859,657.5,624.0859,661.5,620.0859" style="stroke:#181818;stroke-width:1.0;"/><line style="stroke:#181818;stroke-width:1.0;" x1="255.5" x2="663.5" y1="620.0859" y2="620.0859"/><text fill="#000000" font-family="sans-serif" font-size="13" font-weight="bold" lengthAdjust="spacing" textLength="18" x="262.5" y="615.02">12</text><text fill="#000000" font-family="sans-serif" font-size="13" lengthAdjust="spacing" textLength="168" x="284.5" y="615.02">Process exporting request</text><line style="stroke:#181818;stroke-width:1.0;" x1="255.5" x2="297.5" y1="649.2188" y2="649.2188"/><line style="stroke:#181818;stroke-width:1.0;" x1="297.5" x2="297.5" y1="649.2188" y2="662.2188"/><line style="stroke:#181818;stroke-width:1.0;" x1="256.5" x2="297.5" y1="662.2188" y2="662.2188"/><polygon fill="#181818" points="266.5,658.2188,256.5,662.2188,266.5,666.2188,262.5,662.2188" style="stroke:#181818;stroke-width:1.0;"/><text fill="#000000" font-family="sans-serif" font-size="13" font-weight="bold" lengthAdjust="spacing" textLength="17" x="262.5" y="644.1528">13</text><text fill="#000000" font-family="sans-serif" font-size="13" lengthAdjust="spacing" textLength="169" x="283.5" y="644.1528">Display export successful;</text><polygon fill="#181818" points="89.5,687.3516,79.5,691.3516,89.5,695.3516,85.5,691.3516" style="stroke:#181818;stroke-width:1.0;"/><line style="stroke:#181818;stroke-width:1.0;stroke-dasharray:2.0,2.0;" x1="83.5" x2="668.5" y1="691.3516" y2="691.3516"/><text fill="#000000" font-family="sans-serif" font-size="13" font-weight="bold" lengthAdjust="spacing" textLength="18" x="95.5" y="686.2856">14</text><text fill="#000000" font-family="sans-serif" font-size="13" lengthAdjust="spacing" textLength="110" x="117.5" y="686.2856">Exported PDF file</text><!--SRC=[bPDFRuCm3CNl-HGMzshtJjg5icdIDbNQr1EN4Co8biPTOlhdsoyGkbOjK9KRiT_FyNiW6oRRh0jqejObGaN41Us5a8h9GRAK3Yt30ooeFKX0UeXdyK0KrDXIkWEajJPbjWsLj9QELnftGyLNMv5RIzPaknP5bXqPU2Uh0o-DhoRS9pHhFa2soZw-XBYgm-mfrkRmWWn6UmQgGBMJ0DjHNdHrc8NEA_aSteOK0sE2Uc2t4Vr09um15jflZ3n4G6uZeJLOjJr2q8QX0vJ8KXlV3kkQ18JdF8NH4QdHwWV80jSOjRdToH0e4spFq1rnvEu3rhM6UpIe6FlDGPzoxM2tyZhA-xslz9FHVTuGtqhnuYCy0OyUNG97fJ3DFKRSURtJNETsmZUqPKmzss_8CImNpt1lradK9b0q77xjt8QayOIhjC4xmruwKkXzJz7s6np-DkXvYZFvmVVtyOrgmLLZ7YTIEzzztZiJtFjV9fZs1m00]--></g></svg>