<?xml version="1.0" encoding="us-ascii" standalone="no"?><svg xmlns="http://www.w3.org/2000/svg" xmlns:xlink="http://www.w3.org/1999/xlink" contentStyleType="text/css" height="753px" preserveAspectRatio="none" style="width:879px;height:753px;background:#FFFFFF;" version="1.1" viewBox="0 0 879 753" width="879px" zoomAndPan="magnify"><defs/><g><rect fill="none" height="280.5938" style="stroke:#000000;stroke-width:1.5;" width="863" x="10" y="273.2266"/><rect fill="none" height="161.7969" style="stroke:#000000;stroke-width:1.5;" width="737" x="10" y="567.8203"/><line style="stroke:#181818;stroke-width:0.5;stroke-dasharray:5.0,5.0;" x1="78" x2="78" y1="81.2969" y2="746.6172"/><line style="stroke:#181818;stroke-width:0.5;stroke-dasharray:5.0,5.0;" x1="258" x2="258" y1="81.2969" y2="746.6172"/><line style="stroke:#181818;stroke-width:0.5;stroke-dasharray:5.0,5.0;" x1="462.5" x2="462.5" y1="81.2969" y2="746.6172"/><line style="stroke:#181818;stroke-width:0.5;stroke-dasharray:5.0,5.0;" x1="669" x2="669" y1="81.2969" y2="746.6172"/><line style="stroke:#181818;stroke-width:0.5;stroke-dasharray:5.0,5.0;" x1="823" x2="823" y1="81.2969" y2="746.6172"/><text fill="#000000" font-family="sans-serif" font-size="14" lengthAdjust="spacing" textLength="111" x="20" y="77.9951">Parent / Doctor</text><ellipse cx="78.5" cy="13.5" fill="#E2E2F0" rx="8" ry="8" style="stroke:#181818;stroke-width:0.5;"/><path d="M78.5,21.5 L78.5,48.5 M65.5,29.5 L91.5,29.5 M78.5,48.5 L65.5,63.5 M78.5,48.5 L91.5,63.5 " fill="none" style="stroke:#181818;stroke-width:0.5;"/><text fill="#000000" font-family="sans-serif" font-size="14" lengthAdjust="spacing" textLength="143" x="184" y="77.9951">MealTimeChartView</text><path d="M238,37 L238,61 M238,49 L255,49 " fill="none" style="stroke:#181818;stroke-width:0.5;"/><ellipse cx="267" cy="49" fill="#E2E2F0" rx="12" ry="12" style="stroke:#181818;stroke-width:0.5;"/><text fill="#000000" font-family="sans-serif" font-size="14" lengthAdjust="spacing" textLength="188" x="365.5" y="77.9951">MealTimeInformationView</text><path d="M442,37 L442,61 M442,49 L459,49 " fill="none" style="stroke:#181818;stroke-width:0.5;"/><ellipse cx="471" cy="49" fill="#E2E2F0" rx="12" ry="12" style="stroke:#181818;stroke-width:0.5;"/><text fill="#000000" font-family="sans-serif" font-size="14" lengthAdjust="spacing" textLength="129" x="602" y="77.9951">MonitorController</text><ellipse cx="669.5" cy="49" fill="#E2E2F0" rx="12" ry="12" style="stroke:#181818;stroke-width:0.5;"/><polygon fill="#181818" points="665.5,37,671.5,32,669.5,37,671.5,42,665.5,37" style="stroke:#181818;stroke-width:1.0;"/><text fill="#000000" font-family="sans-serif" font-size="14" lengthAdjust="spacing" textLength="73" x="784" y="77.9951">MEALTIME</text><ellipse cx="823.5" cy="49" fill="#E2E2F0" rx="12" ry="12" style="stroke:#181818;stroke-width:0.5;"/><line style="stroke:#181818;stroke-width:0.5;" x1="811.5" x2="835.5" y1="63" y2="63"/><polygon fill="#181818" points="811.5,123.5625,821.5,127.5625,811.5,131.5625,815.5,127.5625" style="stroke:#181818;stroke-width:1.0;"/><line style="stroke:#181818;stroke-width:1.0;" x1="669.5" x2="817.5" y1="127.5625" y2="127.5625"/><text fill="#000000" font-family="sans-serif" font-size="13" font-weight="bold" lengthAdjust="spacing" textLength="9" x="676.5" y="114.9302">1</text><text fill="#000000" font-family="sans-serif" font-size="13" lengthAdjust="spacing" textLength="98" x="689.5" y="107.3638">Get list of meal</text><text fill="#000000" font-family="sans-serif" font-size="13" lengthAdjust="spacing" textLength="84" x="689.5" y="122.4966">times history</text><polygon fill="#181818" points="680.5,167.8281,670.5,171.8281,680.5,175.8281,676.5,171.8281" style="stroke:#181818;stroke-width:1.0;"/><line style="stroke:#181818;stroke-width:1.0;stroke-dasharray:2.0,2.0;" x1="674.5" x2="822.5" y1="171.8281" y2="171.8281"/><text fill="#000000" font-family="sans-serif" font-size="13" font-weight="bold" lengthAdjust="spacing" textLength="9" x="686.5" y="159.1958">2</text><text fill="#000000" font-family="sans-serif" font-size="13" lengthAdjust="spacing" textLength="75" x="699.5" y="151.6294">List of meal</text><text fill="#000000" font-family="sans-serif" font-size="13" lengthAdjust="spacing" textLength="84" x="699.5" y="166.7622">times history</text><polygon fill="#181818" points="269.5,196.9609,259.5,200.9609,269.5,204.9609,265.5,200.9609" style="stroke:#181818;stroke-width:1.0;"/><line style="stroke:#181818;stroke-width:1.0;stroke-dasharray:2.0,2.0;" x1="263.5" x2="668.5" y1="200.9609" y2="200.9609"/><text fill="#000000" font-family="sans-serif" font-size="13" font-weight="bold" lengthAdjust="spacing" textLength="8" x="275.5" y="195.895">3</text><text fill="#000000" font-family="sans-serif" font-size="13" lengthAdjust="spacing" textLength="163" x="287.5" y="195.895">List of meal times history</text><line style="stroke:#181818;stroke-width:1.0;" x1="258.5" x2="300.5" y1="245.2266" y2="245.2266"/><line style="stroke:#181818;stroke-width:1.0;" x1="300.5" x2="300.5" y1="245.2266" y2="258.2266"/><line style="stroke:#181818;stroke-width:1.0;" x1="259.5" x2="300.5" y1="258.2266" y2="258.2266"/><polygon fill="#181818" points="269.5,254.2266,259.5,258.2266,269.5,262.2266,265.5,258.2266" style="stroke:#181818;stroke-width:1.0;"/><text fill="#000000" font-family="sans-serif" font-size="13" font-weight="bold" lengthAdjust="spacing" textLength="9" x="265.5" y="232.5942">4</text><text fill="#000000" font-family="sans-serif" font-size="13" lengthAdjust="spacing" textLength="83" x="278.5" y="225.0278">Display meal</text><text fill="#000000" font-family="sans-serif" font-size="13" lengthAdjust="spacing" textLength="92" x="278.5" y="240.1606">times as chart</text><path d="M10,273.2266 L82,273.2266 L82,280.3594 L72,290.3594 L10,290.3594 L10,273.2266 " fill="#EEEEEE" style="stroke:#000000;stroke-width:1.5;"/><rect fill="none" height="280.5938" style="stroke:#000000;stroke-width:1.5;" width="863" x="10" y="273.2266"/><text fill="#000000" font-family="sans-serif" font-size="13" font-weight="bold" lengthAdjust="spacing" textLength="27" x="25" y="286.2935">opt</text><text fill="#000000" font-family="sans-serif" font-size="11" font-weight="bold" lengthAdjust="spacing" textLength="182" x="97" y="285.437">[View details of meal time]</text><polygon fill="#181818" points="246.5,322.625,256.5,326.625,246.5,330.625,250.5,326.625" style="stroke:#181818;stroke-width:1.0;"/><line style="stroke:#181818;stroke-width:1.0;" x1="78.5" x2="252.5" y1="326.625" y2="326.625"/><text fill="#000000" font-family="sans-serif" font-size="13" font-weight="bold" lengthAdjust="spacing" textLength="9" x="85.5" y="313.9927">5</text><text fill="#000000" font-family="sans-serif" font-size="13" lengthAdjust="spacing" textLength="143" x="98.5" y="306.4263">Click on the meal time</text><text fill="#000000" font-family="sans-serif" font-size="13" lengthAdjust="spacing" textLength="129" x="98.5" y="321.5591">want to view details</text><polygon fill="#181818" points="657.5,351.7578,667.5,355.7578,657.5,359.7578,661.5,355.7578" style="stroke:#181818;stroke-width:1.0;"/><line style="stroke:#181818;stroke-width:1.0;" x1="258.5" x2="663.5" y1="355.7578" y2="355.7578"/><text fill="#000000" font-family="sans-serif" font-size="13" font-weight="bold" lengthAdjust="spacing" textLength="9" x="265.5" y="350.6919">6</text><text fill="#000000" font-family="sans-serif" font-size="13" lengthAdjust="spacing" textLength="228" x="278.5" y="350.6919">Get selected meal time information</text><polygon fill="#181818" points="811.5,396.0234,821.5,400.0234,811.5,404.0234,815.5,400.0234" style="stroke:#181818;stroke-width:1.0;"/><line style="stroke:#181818;stroke-width:1.0;" x1="669.5" x2="817.5" y1="400.0234" y2="400.0234"/><text fill="#000000" font-family="sans-serif" font-size="13" font-weight="bold" lengthAdjust="spacing" textLength="9" x="676.5" y="387.3911">7</text><text fill="#000000" font-family="sans-serif" font-size="13" lengthAdjust="spacing" textLength="117" x="689.5" y="379.8247">Get selected meal</text><text fill="#000000" font-family="sans-serif" font-size="13" lengthAdjust="spacing" textLength="107" x="689.5" y="394.9575">time information</text><polygon fill="#181818" points="680.5,440.2891,670.5,444.2891,680.5,448.2891,676.5,444.2891" style="stroke:#181818;stroke-width:1.0;"/><line style="stroke:#181818;stroke-width:1.0;stroke-dasharray:2.0,2.0;" x1="674.5" x2="822.5" y1="444.2891" y2="444.2891"/><text fill="#000000" font-family="sans-serif" font-size="13" font-weight="bold" lengthAdjust="spacing" textLength="9" x="686.5" y="431.6567">8</text><text fill="#000000" font-family="sans-serif" font-size="13" lengthAdjust="spacing" textLength="91" x="699.5" y="424.0903">Selected meal</text><text fill="#000000" font-family="sans-serif" font-size="13" lengthAdjust="spacing" textLength="107" x="699.5" y="439.2231">time information</text><polygon fill="#181818" points="473.5,484.5547,463.5,488.5547,473.5,492.5547,469.5,488.5547" style="stroke:#181818;stroke-width:1.0;"/><line style="stroke:#181818;stroke-width:1.0;stroke-dasharray:2.0,2.0;" x1="467.5" x2="668.5" y1="488.5547" y2="488.5547"/><text fill="#000000" font-family="sans-serif" font-size="13" font-weight="bold" lengthAdjust="spacing" textLength="9" x="479.5" y="475.9224">9</text><text fill="#000000" font-family="sans-serif" font-size="13" lengthAdjust="spacing" textLength="91" x="492.5" y="468.356">Selected meal</text><text fill="#000000" font-family="sans-serif" font-size="13" lengthAdjust="spacing" textLength="107" x="492.5" y="483.4888">time information</text><line style="stroke:#181818;stroke-width:1.0;" x1="462.5" x2="504.5" y1="532.8203" y2="532.8203"/><line style="stroke:#181818;stroke-width:1.0;" x1="504.5" x2="504.5" y1="532.8203" y2="545.8203"/><line style="stroke:#181818;stroke-width:1.0;" x1="463.5" x2="504.5" y1="545.8203" y2="545.8203"/><polygon fill="#181818" points="473.5,541.8203,463.5,545.8203,473.5,549.8203,469.5,545.8203" style="stroke:#181818;stroke-width:1.0;"/><text fill="#000000" font-family="sans-serif" font-size="13" font-weight="bold" lengthAdjust="spacing" textLength="19" x="469.5" y="520.188">10</text><text fill="#000000" font-family="sans-serif" font-size="13" lengthAdjust="spacing" textLength="170" x="492.5" y="512.6216">Display view with selected</text><text fill="#000000" font-family="sans-serif" font-size="13" lengthAdjust="spacing" textLength="143" x="492.5" y="527.7544">meal time information</text><path d="M10,567.8203 L82,567.8203 L82,574.9531 L72,584.9531 L10,584.9531 L10,567.8203 " fill="#EEEEEE" style="stroke:#000000;stroke-width:1.5;"/><rect fill="none" height="161.7969" style="stroke:#000000;stroke-width:1.5;" width="737" x="10" y="567.8203"/><text fill="#000000" font-family="sans-serif" font-size="13" font-weight="bold" lengthAdjust="spacing" textLength="27" x="25" y="580.8872">opt</text><text fill="#000000" font-family="sans-serif" font-size="11" font-weight="bold" lengthAdjust="spacing" textLength="83" x="97" y="580.0308">[Export PDF]</text><polygon fill="#181818" points="246.5,617.2188,256.5,621.2188,246.5,625.2188,250.5,621.2188" style="stroke:#181818;stroke-width:1.0;"/><line style="stroke:#181818;stroke-width:1.0;" x1="78.5" x2="252.5" y1="621.2188" y2="621.2188"/><text fill="#000000" font-family="sans-serif" font-size="13" font-weight="bold" lengthAdjust="spacing" textLength="18" x="85.5" y="608.5864">11</text><text fill="#000000" font-family="sans-serif" font-size="13" lengthAdjust="spacing" textLength="131" x="107.5" y="601.02">Click "Export" button</text><text fill="#000000" font-family="sans-serif" font-size="13" lengthAdjust="spacing" textLength="111" x="107.5" y="616.1528">to export PDF file</text><polygon fill="#181818" points="657.5,646.3516,667.5,650.3516,657.5,654.3516,661.5,650.3516" style="stroke:#181818;stroke-width:1.0;"/><line style="stroke:#181818;stroke-width:1.0;" x1="258.5" x2="663.5" y1="650.3516" y2="650.3516"/><text fill="#000000" font-family="sans-serif" font-size="13" font-weight="bold" lengthAdjust="spacing" textLength="18" x="265.5" y="645.2856">12</text><text fill="#000000" font-family="sans-serif" font-size="13" lengthAdjust="spacing" textLength="168" x="287.5" y="645.2856">Process exporting request</text><line style="stroke:#181818;stroke-width:1.0;" x1="258.5" x2="300.5" y1="679.4844" y2="679.4844"/><line style="stroke:#181818;stroke-width:1.0;" x1="300.5" x2="300.5" y1="679.4844" y2="692.4844"/><line style="stroke:#181818;stroke-width:1.0;" x1="259.5" x2="300.5" y1="692.4844" y2="692.4844"/><polygon fill="#181818" points="269.5,688.4844,259.5,692.4844,269.5,696.4844,265.5,692.4844" style="stroke:#181818;stroke-width:1.0;"/><text fill="#000000" font-family="sans-serif" font-size="13" font-weight="bold" lengthAdjust="spacing" textLength="17" x="265.5" y="674.4185">13</text><text fill="#000000" font-family="sans-serif" font-size="13" lengthAdjust="spacing" textLength="169" x="286.5" y="674.4185">Display export successful;</text><polygon fill="#181818" points="89.5,717.6172,79.5,721.6172,89.5,725.6172,85.5,721.6172" style="stroke:#181818;stroke-width:1.0;"/><line style="stroke:#181818;stroke-width:1.0;stroke-dasharray:2.0,2.0;" x1="83.5" x2="668.5" y1="721.6172" y2="721.6172"/><text fill="#000000" font-family="sans-serif" font-size="13" font-weight="bold" lengthAdjust="spacing" textLength="18" x="95.5" y="716.5513">14</text><text fill="#000000" font-family="sans-serif" font-size="13" lengthAdjust="spacing" textLength="110" x="117.5" y="716.5513">Exported PDF file</text><!--SRC=[bPHFRy8m3CNl-HHMxsXt9asQW4r8824DxSGbRTqr8erPuWxuzajReFGF1NfhwlUp_LvKcJEPF0lHYbJ520aHXtGGGaPC5eALj6WONc1AnK40qa5rLXs8a78JItk49KgzLXbEKcdvM-6- -sbk4hAPP4McB8Z8i2KDIpBAioRLg_QpUBvYBvozBzRpvKo8JWcCtYwVn_2935ev1aeWyzqsNf-XWzIVaJsASoMC2bcRDOR5aBRRke2qrsr2eCLeLqC_OghSJijZOmxlU5HK244xXb8S8qkbNQEP0FzSHtEZnKIhQ0jaW5EirHkpbpvd9lYxQb0o-sVlUbXau51Zn1ZNO51rw1NkVf8DIcL35tCdqQz768F9jcxhWyX-CGnnpw6NpkyLfnS3DgRVHpHnTHjcXnrPXjNq0vxBFwYK0OGv-p-0tuO0QrYYD3uL_ifIXCwT6ChyWCNV71qFK6vV_zCaBeyAQ9Bhru6yhdSUdnpn8LtMy6Rz0m00]--></g></svg>