<?xml version="1.0" encoding="us-ascii" standalone="no"?><svg xmlns="http://www.w3.org/2000/svg" xmlns:xlink="http://www.w3.org/1999/xlink" contentStyleType="text/css" height="536px" preserveAspectRatio="none" style="width:847px;height:536px;background:#FFFFFF;" version="1.1" viewBox="0 0 847 536" width="847px" zoomAndPan="magnify"><defs/><g><rect fill="none" height="61.2344" style="stroke:#000000;stroke-width:1.5;" width="831" x="10" y="301.2266"/><rect fill="none" height="61.2344" style="stroke:#000000;stroke-width:1.5;" width="831" x="10" y="376.4609"/><rect fill="none" height="61.2344" style="stroke:#000000;stroke-width:1.5;" width="831" x="10" y="451.6953"/><line style="stroke:#181818;stroke-width:0.5;stroke-dasharray:5.0,5.0;" x1="78" x2="78" y1="81.2969" y2="529.9297"/><line style="stroke:#181818;stroke-width:0.5;stroke-dasharray:5.0,5.0;" x1="240" x2="240" y1="81.2969" y2="529.9297"/><line style="stroke:#181818;stroke-width:0.5;stroke-dasharray:5.0,5.0;" x1="407" x2="407" y1="81.2969" y2="529.9297"/><line style="stroke:#181818;stroke-width:0.5;stroke-dasharray:5.0,5.0;" x1="560" x2="560" y1="81.2969" y2="529.9297"/><line style="stroke:#181818;stroke-width:0.5;stroke-dasharray:5.0,5.0;" x1="621" x2="621" y1="81.2969" y2="529.9297"/><line style="stroke:#181818;stroke-width:0.5;stroke-dasharray:5.0,5.0;" x1="697" x2="697" y1="81.2969" y2="529.9297"/><line style="stroke:#181818;stroke-width:0.5;stroke-dasharray:5.0,5.0;" x1="789" x2="789" y1="81.2969" y2="529.9297"/><text fill="#000000" font-family="sans-serif" font-size="14" lengthAdjust="spacing" textLength="111" x="20" y="77.9951">Parent / Doctor</text><ellipse cx="78.5" cy="13.5" fill="#E2E2F0" rx="8" ry="8" style="stroke:#181818;stroke-width:0.5;"/><path d="M78.5,21.5 L78.5,48.5 M65.5,29.5 L91.5,29.5 M78.5,48.5 L65.5,63.5 M78.5,48.5 L91.5,63.5 " fill="none" style="stroke:#181818;stroke-width:0.5;"/><text fill="#000000" font-family="sans-serif" font-size="14" lengthAdjust="spacing" textLength="117" x="179" y="77.9951">ChildHealthView</text><path d="M220,37 L220,61 M220,49 L237,49 " fill="none" style="stroke:#181818;stroke-width:0.5;"/><ellipse cx="249" cy="49" fill="#E2E2F0" rx="12" ry="12" style="stroke:#181818;stroke-width:0.5;"/><text fill="#000000" font-family="sans-serif" font-size="14" lengthAdjust="spacing" textLength="129" x="340" y="77.9951">MonitorController</text><ellipse cx="407.5" cy="49" fill="#E2E2F0" rx="12" ry="12" style="stroke:#181818;stroke-width:0.5;"/><polygon fill="#181818" points="403.5,37,409.5,32,407.5,37,409.5,42,403.5,37" style="stroke:#181818;stroke-width:1.0;"/><text fill="#000000" font-family="sans-serif" font-size="14" lengthAdjust="spacing" textLength="43" x="536" y="77.9951">CHILD</text><ellipse cx="560.5" cy="49" fill="#E2E2F0" rx="12" ry="12" style="stroke:#181818;stroke-width:0.5;"/><line style="stroke:#181818;stroke-width:0.5;" x1="548.5" x2="572.5" y1="63" y2="63"/><text fill="#000000" font-family="sans-serif" font-size="14" lengthAdjust="spacing" textLength="47" x="595" y="77.9951">EVENT</text><ellipse cx="621.5" cy="49" fill="#E2E2F0" rx="12" ry="12" style="stroke:#181818;stroke-width:0.5;"/><line style="stroke:#181818;stroke-width:0.5;" x1="609.5" x2="633.5" y1="63" y2="63"/><text fill="#000000" font-family="sans-serif" font-size="14" lengthAdjust="spacing" textLength="73" x="658" y="77.9951">MEALTIME</text><ellipse cx="697.5" cy="49" fill="#E2E2F0" rx="12" ry="12" style="stroke:#181818;stroke-width:0.5;"/><line style="stroke:#181818;stroke-width:0.5;" x1="685.5" x2="709.5" y1="63" y2="63"/><text fill="#000000" font-family="sans-serif" font-size="14" lengthAdjust="spacing" textLength="78" x="747" y="77.9951">SLEEPTIME</text><ellipse cx="789" cy="49" fill="#E2E2F0" rx="12" ry="12" style="stroke:#181818;stroke-width:0.5;"/><line style="stroke:#181818;stroke-width:0.5;" x1="777" x2="801" y1="63" y2="63"/><polygon fill="#181818" points="548.5,108.4297,558.5,112.4297,548.5,116.4297,552.5,112.4297" style="stroke:#181818;stroke-width:1.0;"/><line style="stroke:#181818;stroke-width:1.0;" x1="407.5" x2="554.5" y1="112.4297" y2="112.4297"/><text fill="#000000" font-family="sans-serif" font-size="13" font-weight="bold" lengthAdjust="spacing" textLength="9" x="414.5" y="107.3638">1</text><text fill="#000000" font-family="sans-serif" font-size="13" lengthAdjust="spacing" textLength="116" x="427.5" y="107.3638">Get list of children</text><polygon fill="#181818" points="418.5,137.5625,408.5,141.5625,418.5,145.5625,414.5,141.5625" style="stroke:#181818;stroke-width:1.0;"/><line style="stroke:#181818;stroke-width:1.0;stroke-dasharray:2.0,2.0;" x1="412.5" x2="559.5" y1="141.5625" y2="141.5625"/><text fill="#000000" font-family="sans-serif" font-size="13" font-weight="bold" lengthAdjust="spacing" textLength="9" x="424.5" y="136.4966">2</text><text fill="#000000" font-family="sans-serif" font-size="13" lengthAdjust="spacing" textLength="93" x="437.5" y="136.4966">List of children</text><polygon fill="#181818" points="251.5,166.6953,241.5,170.6953,251.5,174.6953,247.5,170.6953" style="stroke:#181818;stroke-width:1.0;"/><line style="stroke:#181818;stroke-width:1.0;stroke-dasharray:2.0,2.0;" x1="245.5" x2="406.5" y1="170.6953" y2="170.6953"/><text fill="#000000" font-family="sans-serif" font-size="13" font-weight="bold" lengthAdjust="spacing" textLength="8" x="257.5" y="165.6294">3</text><text fill="#000000" font-family="sans-serif" font-size="13" lengthAdjust="spacing" textLength="93" x="269.5" y="165.6294">List of children</text><line style="stroke:#181818;stroke-width:1.0;" x1="240.5" x2="282.5" y1="199.8281" y2="199.8281"/><line style="stroke:#181818;stroke-width:1.0;" x1="282.5" x2="282.5" y1="199.8281" y2="212.8281"/><line style="stroke:#181818;stroke-width:1.0;" x1="241.5" x2="282.5" y1="212.8281" y2="212.8281"/><polygon fill="#181818" points="251.5,208.8281,241.5,212.8281,251.5,216.8281,247.5,212.8281" style="stroke:#181818;stroke-width:1.0;"/><text fill="#000000" font-family="sans-serif" font-size="13" font-weight="bold" lengthAdjust="spacing" textLength="9" x="247.5" y="194.7622">4</text><text fill="#000000" font-family="sans-serif" font-size="13" lengthAdjust="spacing" textLength="140" x="260.5" y="194.7622">Display list of children</text><polygon fill="#181818" points="228.5,253.0938,238.5,257.0938,228.5,261.0938,232.5,257.0938" style="stroke:#181818;stroke-width:1.0;"/><line style="stroke:#181818;stroke-width:1.0;" x1="78.5" x2="234.5" y1="257.0938" y2="257.0938"/><text fill="#000000" font-family="sans-serif" font-size="13" font-weight="bold" lengthAdjust="spacing" textLength="9" x="85.5" y="244.4614">5</text><text fill="#000000" font-family="sans-serif" font-size="13" lengthAdjust="spacing" textLength="125" x="98.5" y="236.895">Select child want to</text><text fill="#000000" font-family="sans-serif" font-size="13" lengthAdjust="spacing" textLength="118" x="98.5" y="252.0278">view health status</text><polygon fill="#181818" points="228.5,282.2266,238.5,286.2266,228.5,290.2266,232.5,286.2266" style="stroke:#181818;stroke-width:1.0;"/><line style="stroke:#181818;stroke-width:1.0;" x1="78.5" x2="234.5" y1="286.2266" y2="286.2266"/><text fill="#000000" font-family="sans-serif" font-size="13" font-weight="bold" lengthAdjust="spacing" textLength="9" x="85.5" y="281.1606">6</text><text fill="#000000" font-family="sans-serif" font-size="13" lengthAdjust="spacing" textLength="104" x="98.5" y="281.1606">Choose function</text><path d="M10,301.2266 L82,301.2266 L82,308.3594 L72,318.3594 L10,318.3594 L10,301.2266 " fill="#EEEEEE" style="stroke:#000000;stroke-width:1.5;"/><rect fill="none" height="61.2344" style="stroke:#000000;stroke-width:1.5;" width="831" x="10" y="301.2266"/><text fill="#000000" font-family="sans-serif" font-size="13" font-weight="bold" lengthAdjust="spacing" textLength="27" x="25" y="314.2935">opt</text><text fill="#000000" font-family="sans-serif" font-size="11" font-weight="bold" lengthAdjust="spacing" textLength="149" x="97" y="313.437">[Monitor Child Events]</text><rect fill="none" height="39.1016" style="stroke:#000000;stroke-width:1.5;" width="817" x="17" y="318.3594"/><path d="M17,318.3594 L85,318.3594 L85,325.3594 L75,335.3594 L17,335.3594 L17,318.3594 " fill="#EEEEEE" style="stroke:#000000;stroke-width:2.0;"/><text fill="#000000" font-family="sans-serif" font-size="13" font-weight="bold" lengthAdjust="spacing" textLength="23" x="30" y="332.4263">ref</text><text fill="#000000" font-family="sans-serif" font-size="12" lengthAdjust="spacing" textLength="187" x="332" y="350.498">Sequence Monitor Child Events</text><path d="M10,376.4609 L82,376.4609 L82,383.5938 L72,393.5938 L10,393.5938 L10,376.4609 " fill="#EEEEEE" style="stroke:#000000;stroke-width:1.5;"/><rect fill="none" height="61.2344" style="stroke:#000000;stroke-width:1.5;" width="831" x="10" y="376.4609"/><text fill="#000000" font-family="sans-serif" font-size="13" font-weight="bold" lengthAdjust="spacing" textLength="27" x="25" y="389.5278">opt</text><text fill="#000000" font-family="sans-serif" font-size="11" font-weight="bold" lengthAdjust="spacing" textLength="180" x="97" y="388.6714">[Monitor Child Meal Times]</text><rect fill="none" height="39.1016" style="stroke:#000000;stroke-width:1.5;" width="817" x="17" y="393.5938"/><path d="M17,393.5938 L85,393.5938 L85,400.5938 L75,410.5938 L17,410.5938 L17,393.5938 " fill="#EEEEEE" style="stroke:#000000;stroke-width:2.0;"/><text fill="#000000" font-family="sans-serif" font-size="13" font-weight="bold" lengthAdjust="spacing" textLength="23" x="30" y="407.6606">ref</text><text fill="#000000" font-family="sans-serif" font-size="12" lengthAdjust="spacing" textLength="215" x="318" y="425.7324">Sequence Monitor Child Meal Times</text><path d="M10,451.6953 L82,451.6953 L82,458.8281 L72,468.8281 L10,468.8281 L10,451.6953 " fill="#EEEEEE" style="stroke:#000000;stroke-width:1.5;"/><rect fill="none" height="61.2344" style="stroke:#000000;stroke-width:1.5;" width="831" x="10" y="451.6953"/><text fill="#000000" font-family="sans-serif" font-size="13" font-weight="bold" lengthAdjust="spacing" textLength="27" x="25" y="464.7622">opt</text><text fill="#000000" font-family="sans-serif" font-size="11" font-weight="bold" lengthAdjust="spacing" textLength="185" x="97" y="463.9058">[Monitor Child Sleep Times]</text><rect fill="none" height="39.1016" style="stroke:#000000;stroke-width:1.5;" width="817" x="17" y="468.8281"/><path d="M17,468.8281 L85,468.8281 L85,475.8281 L75,485.8281 L17,485.8281 L17,468.8281 " fill="#EEEEEE" style="stroke:#000000;stroke-width:2.0;"/><text fill="#000000" font-family="sans-serif" font-size="13" font-weight="bold" lengthAdjust="spacing" textLength="23" x="30" y="482.895">ref</text><text fill="#000000" font-family="sans-serif" font-size="12" lengthAdjust="spacing" textLength="222" x="314.5" y="500.9668">Sequence Monitor Child Sleep Times</text><!--SRC=[nL4zRy8m4DtzAqxCYRepLAh0AaX9XGHYwcAIGx5aV3I-GFdtlSHAcv9K7Sbsb_VbUwPXyitfWBMgR8bm9E83VIfb2gOQPXjJesTuWYMrYncO074N5-f0ZIzDVOD5PLsvGkEusbkyge8yr-GW9sy5k8YZ4oCXMnR2Qfqj-q7lzTkk7tBzaktMkUxdRQRrfbkeaHgapr5f3g_8u6nWe2CKRHg9gRf_aAO26t7daDt39_HRWzzlc-3T8M2AjBJXxCnjd75uq4dc5XqM70bmDL88qxk_j4PL1uF0Xfi0_qijAg8WFJU-O4jUAJfpVvc81dqHYQ10lXgFG1Uvmb0tkLTDngTDOgF9TvV9JuljUpuQz0LE6wClOIfNBeQmioTyHBQ1-L_vjWxn_B20GtT9-0K0]--></g></svg>