<?xml version="1.0" encoding="us-ascii" standalone="no"?><svg xmlns="http://www.w3.org/2000/svg" xmlns:xlink="http://www.w3.org/1999/xlink" contentStyleType="text/css" height="753px" preserveAspectRatio="none" style="width:883px;height:753px;background:#FFFFFF;" version="1.1" viewBox="0 0 883 753" width="883px" zoomAndPan="magnify"><defs/><g><rect fill="none" height="280.5938" style="stroke:#000000;stroke-width:1.5;" width="867" x="10" y="273.2266"/><rect fill="none" height="161.7969" style="stroke:#000000;stroke-width:1.5;" width="739" x="10" y="567.8203"/><line style="stroke:#181818;stroke-width:0.5;stroke-dasharray:5.0,5.0;" x1="78" x2="78" y1="81.2969" y2="746.6172"/><line style="stroke:#181818;stroke-width:0.5;stroke-dasharray:5.0,5.0;" x1="260" x2="260" y1="81.2969" y2="746.6172"/><line style="stroke:#181818;stroke-width:0.5;stroke-dasharray:5.0,5.0;" x1="464.5" x2="464.5" y1="81.2969" y2="746.6172"/><line style="stroke:#181818;stroke-width:0.5;stroke-dasharray:5.0,5.0;" x1="671" x2="671" y1="81.2969" y2="746.6172"/><line style="stroke:#181818;stroke-width:0.5;stroke-dasharray:5.0,5.0;" x1="827" x2="827" y1="81.2969" y2="746.6172"/><text fill="#000000" font-family="sans-serif" font-size="14" lengthAdjust="spacing" textLength="111" x="20" y="77.9951">Parent / Doctor</text><ellipse cx="78.5" cy="13.5" fill="#E2E2F0" rx="8" ry="8" style="stroke:#181818;stroke-width:0.5;"/><path d="M78.5,21.5 L78.5,48.5 M65.5,29.5 L91.5,29.5 M78.5,48.5 L65.5,63.5 M78.5,48.5 L91.5,63.5 " fill="none" style="stroke:#181818;stroke-width:0.5;"/><text fill="#000000" font-family="sans-serif" font-size="14" lengthAdjust="spacing" textLength="151" x="182" y="77.9951">SleepTimeChartView</text><path d="M240,37 L240,61 M240,49 L257,49 " fill="none" style="stroke:#181818;stroke-width:0.5;"/><ellipse cx="269" cy="49" fill="#E2E2F0" rx="12" ry="12" style="stroke:#181818;stroke-width:0.5;"/><text fill="#000000" font-family="sans-serif" font-size="14" lengthAdjust="spacing" textLength="196" x="363.5" y="77.9951">SleepTimeInformationView</text><path d="M444,37 L444,61 M444,49 L461,49 " fill="none" style="stroke:#181818;stroke-width:0.5;"/><ellipse cx="473" cy="49" fill="#E2E2F0" rx="12" ry="12" style="stroke:#181818;stroke-width:0.5;"/><text fill="#000000" font-family="sans-serif" font-size="14" lengthAdjust="spacing" textLength="129" x="604" y="77.9951">MonitorController</text><ellipse cx="671.5" cy="49" fill="#E2E2F0" rx="12" ry="12" style="stroke:#181818;stroke-width:0.5;"/><polygon fill="#181818" points="667.5,37,673.5,32,671.5,37,673.5,42,667.5,37" style="stroke:#181818;stroke-width:1.0;"/><text fill="#000000" font-family="sans-serif" font-size="14" lengthAdjust="spacing" textLength="73" x="788" y="77.9951">MEALTIME</text><ellipse cx="827.5" cy="49" fill="#E2E2F0" rx="12" ry="12" style="stroke:#181818;stroke-width:0.5;"/><line style="stroke:#181818;stroke-width:0.5;" x1="815.5" x2="839.5" y1="63" y2="63"/><polygon fill="#181818" points="815.5,123.5625,825.5,127.5625,815.5,131.5625,819.5,127.5625" style="stroke:#181818;stroke-width:1.0;"/><line style="stroke:#181818;stroke-width:1.0;" x1="671.5" x2="821.5" y1="127.5625" y2="127.5625"/><text fill="#000000" font-family="sans-serif" font-size="13" font-weight="bold" lengthAdjust="spacing" textLength="9" x="678.5" y="114.9302">1</text><text fill="#000000" font-family="sans-serif" font-size="13" lengthAdjust="spacing" textLength="100" x="691.5" y="107.3638">Get list of sleep</text><text fill="#000000" font-family="sans-serif" font-size="13" lengthAdjust="spacing" textLength="84" x="691.5" y="122.4966">times history</text><polygon fill="#181818" points="682.5,167.8281,672.5,171.8281,682.5,175.8281,678.5,171.8281" style="stroke:#181818;stroke-width:1.0;"/><line style="stroke:#181818;stroke-width:1.0;stroke-dasharray:2.0,2.0;" x1="676.5" x2="826.5" y1="171.8281" y2="171.8281"/><text fill="#000000" font-family="sans-serif" font-size="13" font-weight="bold" lengthAdjust="spacing" textLength="9" x="688.5" y="159.1958">2</text><text fill="#000000" font-family="sans-serif" font-size="13" lengthAdjust="spacing" textLength="77" x="701.5" y="151.6294">List of sleep</text><text fill="#000000" font-family="sans-serif" font-size="13" lengthAdjust="spacing" textLength="84" x="701.5" y="166.7622">times history</text><polygon fill="#181818" points="271.5,196.9609,261.5,200.9609,271.5,204.9609,267.5,200.9609" style="stroke:#181818;stroke-width:1.0;"/><line style="stroke:#181818;stroke-width:1.0;stroke-dasharray:2.0,2.0;" x1="265.5" x2="670.5" y1="200.9609" y2="200.9609"/><text fill="#000000" font-family="sans-serif" font-size="13" font-weight="bold" lengthAdjust="spacing" textLength="8" x="277.5" y="195.895">3</text><text fill="#000000" font-family="sans-serif" font-size="13" lengthAdjust="spacing" textLength="165" x="289.5" y="195.895">List of sleep times history</text><line style="stroke:#181818;stroke-width:1.0;" x1="260.5" x2="302.5" y1="245.2266" y2="245.2266"/><line style="stroke:#181818;stroke-width:1.0;" x1="302.5" x2="302.5" y1="245.2266" y2="258.2266"/><line style="stroke:#181818;stroke-width:1.0;" x1="261.5" x2="302.5" y1="258.2266" y2="258.2266"/><polygon fill="#181818" points="271.5,254.2266,261.5,258.2266,271.5,262.2266,267.5,258.2266" style="stroke:#181818;stroke-width:1.0;"/><text fill="#000000" font-family="sans-serif" font-size="13" font-weight="bold" lengthAdjust="spacing" textLength="9" x="267.5" y="232.5942">4</text><text fill="#000000" font-family="sans-serif" font-size="13" lengthAdjust="spacing" textLength="85" x="280.5" y="225.0278">Display sleep</text><text fill="#000000" font-family="sans-serif" font-size="13" lengthAdjust="spacing" textLength="92" x="280.5" y="240.1606">times as chart</text><path d="M10,273.2266 L82,273.2266 L82,280.3594 L72,290.3594 L10,290.3594 L10,273.2266 " fill="#EEEEEE" style="stroke:#000000;stroke-width:1.5;"/><rect fill="none" height="280.5938" style="stroke:#000000;stroke-width:1.5;" width="867" x="10" y="273.2266"/><text fill="#000000" font-family="sans-serif" font-size="13" font-weight="bold" lengthAdjust="spacing" textLength="27" x="25" y="286.2935">opt</text><text fill="#000000" font-family="sans-serif" font-size="11" font-weight="bold" lengthAdjust="spacing" textLength="185" x="97" y="285.437">[View details of sleep time]</text><polygon fill="#181818" points="248.5,322.625,258.5,326.625,248.5,330.625,252.5,326.625" style="stroke:#181818;stroke-width:1.0;"/><line style="stroke:#181818;stroke-width:1.0;" x1="78.5" x2="254.5" y1="326.625" y2="326.625"/><text fill="#000000" font-family="sans-serif" font-size="13" font-weight="bold" lengthAdjust="spacing" textLength="9" x="85.5" y="313.9927">5</text><text fill="#000000" font-family="sans-serif" font-size="13" lengthAdjust="spacing" textLength="145" x="98.5" y="306.4263">Click on the sleep time</text><text fill="#000000" font-family="sans-serif" font-size="13" lengthAdjust="spacing" textLength="129" x="98.5" y="321.5591">want to view details</text><polygon fill="#181818" points="659.5,351.7578,669.5,355.7578,659.5,359.7578,663.5,355.7578" style="stroke:#181818;stroke-width:1.0;"/><line style="stroke:#181818;stroke-width:1.0;" x1="260.5" x2="665.5" y1="355.7578" y2="355.7578"/><text fill="#000000" font-family="sans-serif" font-size="13" font-weight="bold" lengthAdjust="spacing" textLength="9" x="267.5" y="350.6919">6</text><text fill="#000000" font-family="sans-serif" font-size="13" lengthAdjust="spacing" textLength="230" x="280.5" y="350.6919">Get selected sleep time information</text><polygon fill="#181818" points="815.5,396.0234,825.5,400.0234,815.5,404.0234,819.5,400.0234" style="stroke:#181818;stroke-width:1.0;"/><line style="stroke:#181818;stroke-width:1.0;" x1="671.5" x2="821.5" y1="400.0234" y2="400.0234"/><text fill="#000000" font-family="sans-serif" font-size="13" font-weight="bold" lengthAdjust="spacing" textLength="9" x="678.5" y="387.3911">7</text><text fill="#000000" font-family="sans-serif" font-size="13" lengthAdjust="spacing" textLength="119" x="691.5" y="379.8247">Get selected sleep</text><text fill="#000000" font-family="sans-serif" font-size="13" lengthAdjust="spacing" textLength="107" x="691.5" y="394.9575">time information</text><polygon fill="#181818" points="682.5,440.2891,672.5,444.2891,682.5,448.2891,678.5,444.2891" style="stroke:#181818;stroke-width:1.0;"/><line style="stroke:#181818;stroke-width:1.0;stroke-dasharray:2.0,2.0;" x1="676.5" x2="826.5" y1="444.2891" y2="444.2891"/><text fill="#000000" font-family="sans-serif" font-size="13" font-weight="bold" lengthAdjust="spacing" textLength="9" x="688.5" y="431.6567">8</text><text fill="#000000" font-family="sans-serif" font-size="13" lengthAdjust="spacing" textLength="93" x="701.5" y="424.0903">Selected sleep</text><text fill="#000000" font-family="sans-serif" font-size="13" lengthAdjust="spacing" textLength="107" x="701.5" y="439.2231">time information</text><polygon fill="#181818" points="475.5,484.5547,465.5,488.5547,475.5,492.5547,471.5,488.5547" style="stroke:#181818;stroke-width:1.0;"/><line style="stroke:#181818;stroke-width:1.0;stroke-dasharray:2.0,2.0;" x1="469.5" x2="670.5" y1="488.5547" y2="488.5547"/><text fill="#000000" font-family="sans-serif" font-size="13" font-weight="bold" lengthAdjust="spacing" textLength="9" x="481.5" y="475.9224">9</text><text fill="#000000" font-family="sans-serif" font-size="13" lengthAdjust="spacing" textLength="93" x="494.5" y="468.356">Selected sleep</text><text fill="#000000" font-family="sans-serif" font-size="13" lengthAdjust="spacing" textLength="107" x="494.5" y="483.4888">time information</text><line style="stroke:#181818;stroke-width:1.0;" x1="464.5" x2="506.5" y1="532.8203" y2="532.8203"/><line style="stroke:#181818;stroke-width:1.0;" x1="506.5" x2="506.5" y1="532.8203" y2="545.8203"/><line style="stroke:#181818;stroke-width:1.0;" x1="465.5" x2="506.5" y1="545.8203" y2="545.8203"/><polygon fill="#181818" points="475.5,541.8203,465.5,545.8203,475.5,549.8203,471.5,545.8203" style="stroke:#181818;stroke-width:1.0;"/><text fill="#000000" font-family="sans-serif" font-size="13" font-weight="bold" lengthAdjust="spacing" textLength="19" x="471.5" y="520.188">10</text><text fill="#000000" font-family="sans-serif" font-size="13" lengthAdjust="spacing" textLength="170" x="494.5" y="512.6216">Display view with selected</text><text fill="#000000" font-family="sans-serif" font-size="13" lengthAdjust="spacing" textLength="145" x="494.5" y="527.7544">sleep time information</text><path d="M10,567.8203 L82,567.8203 L82,574.9531 L72,584.9531 L10,584.9531 L10,567.8203 " fill="#EEEEEE" style="stroke:#000000;stroke-width:1.5;"/><rect fill="none" height="161.7969" style="stroke:#000000;stroke-width:1.5;" width="739" x="10" y="567.8203"/><text fill="#000000" font-family="sans-serif" font-size="13" font-weight="bold" lengthAdjust="spacing" textLength="27" x="25" y="580.8872">opt</text><text fill="#000000" font-family="sans-serif" font-size="11" font-weight="bold" lengthAdjust="spacing" textLength="83" x="97" y="580.0308">[Export PDF]</text><polygon fill="#181818" points="248.5,617.2188,258.5,621.2188,248.5,625.2188,252.5,621.2188" style="stroke:#181818;stroke-width:1.0;"/><line style="stroke:#181818;stroke-width:1.0;" x1="78.5" x2="254.5" y1="621.2188" y2="621.2188"/><text fill="#000000" font-family="sans-serif" font-size="13" font-weight="bold" lengthAdjust="spacing" textLength="18" x="85.5" y="608.5864">11</text><text fill="#000000" font-family="sans-serif" font-size="13" lengthAdjust="spacing" textLength="131" x="107.5" y="601.02">Click "Export" button</text><text fill="#000000" font-family="sans-serif" font-size="13" lengthAdjust="spacing" textLength="111" x="107.5" y="616.1528">to export PDF file</text><polygon fill="#181818" points="659.5,646.3516,669.5,650.3516,659.5,654.3516,663.5,650.3516" style="stroke:#181818;stroke-width:1.0;"/><line style="stroke:#181818;stroke-width:1.0;" x1="260.5" x2="665.5" y1="650.3516" y2="650.3516"/><text fill="#000000" font-family="sans-serif" font-size="13" font-weight="bold" lengthAdjust="spacing" textLength="18" x="267.5" y="645.2856">12</text><text fill="#000000" font-family="sans-serif" font-size="13" lengthAdjust="spacing" textLength="168" x="289.5" y="645.2856">Process exporting request</text><line style="stroke:#181818;stroke-width:1.0;" x1="260.5" x2="302.5" y1="679.4844" y2="679.4844"/><line style="stroke:#181818;stroke-width:1.0;" x1="302.5" x2="302.5" y1="679.4844" y2="692.4844"/><line style="stroke:#181818;stroke-width:1.0;" x1="261.5" x2="302.5" y1="692.4844" y2="692.4844"/><polygon fill="#181818" points="271.5,688.4844,261.5,692.4844,271.5,696.4844,267.5,692.4844" style="stroke:#181818;stroke-width:1.0;"/><text fill="#000000" font-family="sans-serif" font-size="13" font-weight="bold" lengthAdjust="spacing" textLength="17" x="267.5" y="674.4185">13</text><text fill="#000000" font-family="sans-serif" font-size="13" lengthAdjust="spacing" textLength="169" x="288.5" y="674.4185">Display export successful;</text><polygon fill="#181818" points="89.5,717.6172,79.5,721.6172,89.5,725.6172,85.5,721.6172" style="stroke:#181818;stroke-width:1.0;"/><line style="stroke:#181818;stroke-width:1.0;stroke-dasharray:2.0,2.0;" x1="83.5" x2="670.5" y1="721.6172" y2="721.6172"/><text fill="#000000" font-family="sans-serif" font-size="13" font-weight="bold" lengthAdjust="spacing" textLength="18" x="95.5" y="716.5513">14</text><text fill="#000000" font-family="sans-serif" font-size="13" lengthAdjust="spacing" textLength="110" x="117.5" y="716.5513">Exported PDF file</text><!--SRC=[bPHDRuCm38Rl-HKMzshtJfeqjTqqgPKgjTgfbm1cH0inIynQ_lq2z0DAOIqt7Fjn_Bu6MJ2P8WlHYbJ520aHXtGGGaPC5eArj6WOdc1ELI00wQ29DG4HKc5YQKlOQCHygpASfTBofyBzZRCFav3D92ioTKP4XYrfM95HdZPhNhM_ZU-Wk8JLudMv_LWjXEYbmEJbV3o5TsJGoZ5G0gvgj_E031saFaYs5ATKc5Hrrx0fB4UB-yqzfJ_o5GQwb7u-353cokLQbjtBUEcZAaK8oXdgyXXPAksw3GNufstIK9UPLj4ta05EiLM_CtlfFMU2trQFcdfxWXjgLdOur1WnnYqqgCi2rC0xNErY6Z7wd7_StTm56NVvQddlX0wLmoZwj02r0tl5wLc6dHcG4qtSRCRYa9DbMC_VuC5L29hI0CA2_N_1JqI05rgYD3ws1cjB4JftX2Zp1HP_2dGyWXdx7ewNSKLKOPD2FuyOrvvxUbJ5ctMUn0ls1m00]--></g></svg>