<?xml version="1.0" encoding="us-ascii" standalone="no"?><svg xmlns="http://www.w3.org/2000/svg" xmlns:xlink="http://www.w3.org/1999/xlink" contentStyleType="text/css" height="695px" preserveAspectRatio="none" style="width:833px;height:695px;background:#FFFFFF;" version="1.1" viewBox="0 0 833 695" width="833px" zoomAndPan="magnify"><defs/><g><rect fill="none" height="20.9531" style="stroke:none;stroke-width:1.0;" width="800" x="15" y="12.7451"/><rect fill="#F1F1F1" height="47.9375" rx="12.5" ry="12.5" style="stroke:#181818;stroke-width:0.5;" width="90" x="27.5" y="200.6045"/><text fill="#000000" font-family="sans-serif" font-size="12" lengthAdjust="spacing" textLength="70" x="37.5" y="221.7432">Click button</text><text fill="#000000" font-family="sans-serif" font-size="12" lengthAdjust="spacing" textLength="57" x="37.5" y="235.7119">"Sign Up"</text><rect fill="#F1F1F1" height="47.9375" rx="12.5" ry="12.5" style="stroke:#181818;stroke-width:0.5;" width="103" x="21" y="132.667"/><text fill="#000000" font-family="sans-serif" font-size="12" lengthAdjust="spacing" textLength="83" x="31" y="153.8057">Enter register</text><text fill="#000000" font-family="sans-serif" font-size="12" lengthAdjust="spacing" textLength="67" x="31" y="167.7744">information</text><line style="stroke:#000000;stroke-width:1.5;" x1="15" x2="15" y1="12.7451" y2="683.0649"/><ellipse cx="314.75" cy="48.6982" fill="#222222" rx="10" ry="10" style="stroke:#222222;stroke-width:1.0;"/><rect fill="#F1F1F1" height="33.9688" rx="12.5" ry="12.5" style="stroke:#181818;stroke-width:0.5;" width="144" x="242.75" y="78.6982"/><text fill="#000000" font-family="sans-serif" font-size="12" lengthAdjust="spacing" textLength="124" x="252.75" y="99.8369">Display sign up view</text><rect fill="#F1F1F1" height="33.9688" rx="12.5" ry="12.5" style="stroke:#181818;stroke-width:0.5;" width="141" x="244.25" y="283.542"/><text fill="#000000" font-family="sans-serif" font-size="12" lengthAdjust="spacing" textLength="121" x="254.25" y="304.6807">Validate data format</text><polygon fill="#F1F1F1" points="314.75,337.5107,314.75,337.5107,326.75,349.5107,314.75,361.5107,314.75,361.5107,302.75,349.5107,314.75,337.5107" style="stroke:#181818;stroke-width:0.5;"/><text fill="#000000" font-family="sans-serif" font-size="11" lengthAdjust="spacing" textLength="57" x="318.75" y="371.7212">Valid data</text><text fill="#000000" font-family="sans-serif" font-size="11" lengthAdjust="spacing" textLength="66" x="326.75" y="346.9165">Invalid data</text><rect fill="#F1F1F1" height="33.9688" rx="12.5" ry="12.5" style="stroke:#181818;stroke-width:0.5;" width="168" x="409.25" y="230.1045"/><text fill="#000000" font-family="sans-serif" font-size="12" lengthAdjust="spacing" textLength="148" x="419.25" y="251.2432">Display error notification</text><rect fill="#F1F1F1" height="33.9688" rx="12.5" ry="12.5" style="stroke:#181818;stroke-width:0.5;" width="168" x="134" y="491.1899"/><text fill="#000000" font-family="sans-serif" font-size="12" lengthAdjust="spacing" textLength="148" x="144" y="512.3286">Display error notification</text><rect fill="#F1F1F1" height="47.9375" rx="12.5" ry="12.5" style="stroke:#181818;stroke-width:0.5;" width="179" x="322" y="559.1274"/><text fill="#000000" font-family="sans-serif" font-size="12" lengthAdjust="spacing" textLength="112" x="332" y="580.2661">Automatically login</text><text fill="#000000" font-family="sans-serif" font-size="12" lengthAdjust="spacing" textLength="159" x="332" y="594.2349">and redirect to HomeView</text><line style="stroke:#000000;stroke-width:1.5;" x1="128" x2="128" y1="12.7451" y2="683.0649"/><rect fill="#F1F1F1" height="33.9688" rx="12.5" ry="12.5" style="stroke:#181818;stroke-width:0.5;" width="98" x="615.25" y="393.2212"/><text fill="#000000" font-family="sans-serif" font-size="12" lengthAdjust="spacing" textLength="78" x="625.25" y="414.3599">Validate data</text><polygon fill="#F1F1F1" points="664.25,447.1899,664.25,447.1899,676.25,459.1899,664.25,471.1899,664.25,471.1899,652.25,459.1899,664.25,447.1899" style="stroke:#181818;stroke-width:0.5;"/><text fill="#000000" font-family="sans-serif" font-size="11" lengthAdjust="spacing" textLength="66" x="586.25" y="456.5957">Invalid data</text><text fill="#000000" font-family="sans-serif" font-size="11" lengthAdjust="spacing" textLength="57" x="676.25" y="456.5957">Valid data</text><rect fill="#F1F1F1" height="47.9375" rx="12.5" ry="12.5" style="stroke:#181818;stroke-width:0.5;" width="96" x="713" y="491.1899"/><text fill="#000000" font-family="sans-serif" font-size="12" lengthAdjust="spacing" textLength="40" x="723" y="512.3286">Create</text><text fill="#000000" font-family="sans-serif" font-size="12" lengthAdjust="spacing" textLength="76" x="723" y="526.2974">new account</text><polygon fill="#F1F1F1" points="664.25,617.0649,676.25,629.0649,664.25,641.0649,652.25,629.0649,664.25,617.0649" style="stroke:#181818;stroke-width:0.5;"/><ellipse cx="664.25" cy="672.0649" fill="none" rx="11" ry="11" style="stroke:#222222;stroke-width:1.0;"/><ellipse cx="664.25" cy="672.0649" fill="#222222" rx="6" ry="6" style="stroke:#222222;stroke-width:1.0;"/><line style="stroke:#000000;stroke-width:1.5;" x1="581.25" x2="581.25" y1="12.7451" y2="683.0649"/><line style="stroke:#000000;stroke-width:1.5;" x1="813" x2="813" y1="12.7451" y2="683.0649"/><line style="stroke:#181818;stroke-width:1.0;" x1="72.5" x2="72.5" y1="180.6045" y2="200.6045"/><polygon fill="#181818" points="68.5,190.6045,72.5,200.6045,76.5,190.6045,72.5,194.6045" style="stroke:#181818;stroke-width:1.0;"/><line style="stroke:#181818;stroke-width:1.0;" x1="314.75" x2="314.75" y1="58.6982" y2="78.6982"/><polygon fill="#181818" points="310.75,68.6982,314.75,78.6982,318.75,68.6982,314.75,72.6982" style="stroke:#181818;stroke-width:1.0;"/><line style="stroke:#181818;stroke-width:1.0;" x1="326.75" x2="493.25" y1="349.5107" y2="349.5107"/><line style="stroke:#181818;stroke-width:1.0;" x1="493.25" x2="493.25" y1="264.0732" y2="349.5107"/><polygon fill="#181818" points="489.25,274.0732,493.25,264.0732,497.25,274.0732,493.25,270.0732" style="stroke:#181818;stroke-width:1.0;"/><line style="stroke:#181818;stroke-width:1.0;" x1="314.75" x2="314.75" y1="317.5107" y2="337.5107"/><polygon fill="#181818" points="310.75,327.5107,314.75,337.5107,318.75,327.5107,314.75,331.5107" style="stroke:#181818;stroke-width:1.0;"/><line style="stroke:#181818;stroke-width:1.0;" x1="676.25" x2="761" y1="459.1899" y2="459.1899"/><line style="stroke:#181818;stroke-width:1.0;" x1="761" x2="761" y1="459.1899" y2="491.1899"/><polygon fill="#181818" points="757,481.1899,761,491.1899,765,481.1899,761,485.1899" style="stroke:#181818;stroke-width:1.0;"/><line style="stroke:#181818;stroke-width:1.0;" x1="664.25" x2="664.25" y1="427.1899" y2="447.1899"/><polygon fill="#181818" points="660.25,437.1899,664.25,447.1899,668.25,437.1899,664.25,441.1899" style="stroke:#181818;stroke-width:1.0;"/><line style="stroke:#181818;stroke-width:1.0;" x1="664.25" x2="664.25" y1="641.0649" y2="661.0649"/><polygon fill="#181818" points="660.25,651.0649,664.25,661.0649,668.25,651.0649,664.25,655.0649" style="stroke:#181818;stroke-width:1.0;"/><line style="stroke:#181818;stroke-width:1.0;" x1="72.5" x2="72.5" y1="248.542" y2="266.042"/><line style="stroke:#181818;stroke-width:1.0;" x1="72.5" x2="314.75" y1="266.042" y2="266.042"/><line style="stroke:#181818;stroke-width:1.0;" x1="314.75" x2="314.75" y1="266.042" y2="283.542"/><polygon fill="#181818" points="310.75,273.542,314.75,283.542,318.75,273.542,314.75,277.542" style="stroke:#181818;stroke-width:1.0;"/><line style="stroke:#181818;stroke-width:1.0;" x1="493.25" x2="493.25" y1="156.6357" y2="230.1045"/><line style="stroke:#181818;stroke-width:1.0;" x1="493.25" x2="124" y1="156.6357" y2="156.6357"/><polygon fill="#181818" points="134,152.6357,124,156.6357,134,160.6357,130,156.6357" style="stroke:#181818;stroke-width:1.0;"/><line style="stroke:#181818;stroke-width:1.0;" x1="314.75" x2="314.75" y1="112.667" y2="117.667"/><line style="stroke:#181818;stroke-width:1.0;" x1="314.75" x2="72.5" y1="117.667" y2="117.667"/><line style="stroke:#181818;stroke-width:1.0;" x1="72.5" x2="72.5" y1="117.667" y2="132.667"/><polygon fill="#181818" points="68.5,122.667,72.5,132.667,76.5,122.667,72.5,126.667" style="stroke:#181818;stroke-width:1.0;"/><line style="stroke:#181818;stroke-width:1.0;" x1="314.75" x2="314.75" y1="361.5107" y2="378.2212"/><line style="stroke:#181818;stroke-width:1.0;" x1="314.75" x2="664.25" y1="378.2212" y2="378.2212"/><line style="stroke:#181818;stroke-width:1.0;" x1="664.25" x2="664.25" y1="378.2212" y2="393.2212"/><polygon fill="#181818" points="660.25,383.2212,664.25,393.2212,668.25,383.2212,664.25,387.2212" style="stroke:#181818;stroke-width:1.0;"/><line style="stroke:#181818;stroke-width:1.0;" x1="761" x2="761" y1="539.1274" y2="544.1274"/><line style="stroke:#181818;stroke-width:1.0;" x1="761" x2="411.5" y1="544.1274" y2="544.1274"/><line style="stroke:#181818;stroke-width:1.0;" x1="411.5" x2="411.5" y1="544.1274" y2="559.1274"/><polygon fill="#181818" points="407.5,549.1274,411.5,559.1274,415.5,549.1274,411.5,553.1274" style="stroke:#181818;stroke-width:1.0;"/><line style="stroke:#181818;stroke-width:1.0;" x1="652.25" x2="218" y1="459.1899" y2="459.1899"/><line style="stroke:#181818;stroke-width:1.0;" x1="218" x2="218" y1="459.1899" y2="491.1899"/><polygon fill="#181818" points="214,481.1899,218,491.1899,222,481.1899,218,485.1899" style="stroke:#181818;stroke-width:1.0;"/><line style="stroke:#181818;stroke-width:1.0;" x1="218" x2="218" y1="525.1587" y2="629.0649"/><line style="stroke:#181818;stroke-width:1.0;" x1="218" x2="652.25" y1="629.0649" y2="629.0649"/><polygon fill="#181818" points="642.25,625.0649,652.25,629.0649,642.25,633.0649,646.25,629.0649" style="stroke:#181818;stroke-width:1.0;"/><line style="stroke:#181818;stroke-width:1.0;" x1="411.5" x2="411.5" y1="607.0649" y2="611.0649"/><line style="stroke:#181818;stroke-width:1.0;" x1="411.5" x2="694.25" y1="611.0649" y2="611.0649"/><line style="stroke:#181818;stroke-width:1.0;" x1="694.25" x2="694.25" y1="611.0649" y2="629.0649"/><line style="stroke:#181818;stroke-width:1.0;" x1="694.25" x2="676.25" y1="629.0649" y2="629.0649"/><polygon fill="#181818" points="686.25,625.0649,676.25,629.0649,686.25,633.0649,682.25,629.0649" style="stroke:#181818;stroke-width:1.0;"/><text fill="#000000" font-family="sans-serif" font-size="18" lengthAdjust="spacing" textLength="62" x="40.5" y="29.4531">Parent</text><text fill="#000000" font-family="sans-serif" font-size="18" lengthAdjust="spacing" textLength="69" x="320.125" y="29.4531">System</text><text fill="#000000" font-family="sans-serif" font-size="18" lengthAdjust="spacing" textLength="88" x="653.125" y="29.4531">Database</text><!--SRC=[VP7FQiCm3CRlUGhHK_eAoMcqW-qsAEkf5zLHMb573hBIKCZ3p_b3wKQO3mRBqk_x90rVg2GsPCFX4OsQ8Ok6QbcnvzXwV43aYq3NmfsfBm4oI6TOYj9JgIKqADx5I47fmecY9s6fWpPe7AISQegTPtU3SsSMv2IRmyZzRZVpxrDzIZsYvmgD85q8CsZEEwExzQWLFFsHQb2GO5opM_GMK_sLFK6-1OwGVyfzf4x8xPWF-V4bC9_Popv5pXXfpKsPSJqYxKho1xhIo7ycoKVwvM5LVAUf4pg9K0_eNEZ4rYRsrbaOf-tG-mVuSE4qOvGgRQHY9MTW0Jv2GyTnZLCDISLrzg8NBRG_]--></g></svg>