<?xml version="1.0" encoding="us-ascii" standalone="no"?><svg xmlns="http://www.w3.org/2000/svg" xmlns:xlink="http://www.w3.org/1999/xlink" contentStyleType="text/css" height="858px" preserveAspectRatio="none" style="width:924px;height:858px;background:#FFFFFF;" version="1.1" viewBox="0 0 924 858" width="924px" zoomAndPan="magnify"><defs/><g><rect fill="none" height="578.8672" style="stroke:#000000;stroke-width:1.5;" width="907" x="10" y="255.9609"/><rect fill="none" height="361.2656" style="stroke:#000000;stroke-width:1.5;" width="713" x="194" y="466.5625"/><line style="stroke:#181818;stroke-width:0.5;stroke-dasharray:5.0,5.0;" x1="47" x2="47" y1="81.2969" y2="851.8281"/><line style="stroke:#181818;stroke-width:0.5;stroke-dasharray:5.0,5.0;" x1="249" x2="249" y1="81.2969" y2="851.8281"/><line style="stroke:#181818;stroke-width:0.5;stroke-dasharray:5.0,5.0;" x1="442" x2="442" y1="81.2969" y2="851.8281"/><line style="stroke:#181818;stroke-width:0.5;stroke-dasharray:5.0,5.0;" x1="608" x2="608" y1="81.2969" y2="851.8281"/><line style="stroke:#181818;stroke-width:0.5;stroke-dasharray:5.0,5.0;" x1="786.5" x2="786.5" y1="81.2969" y2="851.8281"/><text fill="#000000" font-family="sans-serif" font-size="14" lengthAdjust="spacing" textLength="48" x="20" y="77.9951">Parent</text><ellipse cx="47" cy="13.5" fill="#E2E2F0" rx="8" ry="8" style="stroke:#181818;stroke-width:0.5;"/><path d="M47,21.5 L47,48.5 M34,29.5 L60,29.5 M47,48.5 L34,63.5 M47,48.5 L60,63.5 " fill="none" style="stroke:#181818;stroke-width:0.5;"/><text fill="#000000" font-family="sans-serif" font-size="14" lengthAdjust="spacing" textLength="84" x="204" y="77.9951">SignUpView</text><path d="M228.5,37 L228.5,61 M228.5,49 L245.5,49 " fill="none" style="stroke:#181818;stroke-width:0.5;"/><ellipse cx="257.5" cy="49" fill="#E2E2F0" rx="12" ry="12" style="stroke:#181818;stroke-width:0.5;"/><text fill="#000000" font-family="sans-serif" font-size="14" lengthAdjust="spacing" textLength="76" x="401" y="77.9951">HomeView</text><path d="M421.5,37 L421.5,61 M421.5,49 L438.5,49 " fill="none" style="stroke:#181818;stroke-width:0.5;"/><ellipse cx="450.5" cy="49" fill="#E2E2F0" rx="12" ry="12" style="stroke:#181818;stroke-width:0.5;"/><text fill="#000000" font-family="sans-serif" font-size="14" lengthAdjust="spacing" textLength="132" x="539" y="77.9951">AccountController</text><ellipse cx="608" cy="49" fill="#E2E2F0" rx="12" ry="12" style="stroke:#181818;stroke-width:0.5;"/><polygon fill="#181818" points="604,37,610,32,608,37,610,42,604,37" style="stroke:#181818;stroke-width:1.0;"/><text fill="#000000" font-family="sans-serif" font-size="14" lengthAdjust="spacing" textLength="57" x="755.5" y="77.9951">PARENT</text><ellipse cx="787" cy="49" fill="#E2E2F0" rx="12" ry="12" style="stroke:#181818;stroke-width:0.5;"/><line style="stroke:#181818;stroke-width:0.5;" x1="775" x2="799" y1="63" y2="63"/><line style="stroke:#181818;stroke-width:1.0;" x1="249" x2="291" y1="127.5625" y2="127.5625"/><line style="stroke:#181818;stroke-width:1.0;" x1="291" x2="291" y1="127.5625" y2="140.5625"/><line style="stroke:#181818;stroke-width:1.0;" x1="250" x2="291" y1="140.5625" y2="140.5625"/><polygon fill="#181818" points="260,136.5625,250,140.5625,260,144.5625,256,140.5625" style="stroke:#181818;stroke-width:1.0;"/><text fill="#000000" font-family="sans-serif" font-size="13" font-weight="bold" lengthAdjust="spacing" textLength="9" x="256" y="114.9302">1</text><text fill="#000000" font-family="sans-serif" font-size="13" lengthAdjust="spacing" textLength="47" x="269" y="107.3638">Display</text><text fill="#000000" font-family="sans-serif" font-size="13" lengthAdjust="spacing" textLength="80" x="269" y="122.4966">sign up view</text><polygon fill="#181818" points="237,165.6953,247,169.6953,237,173.6953,241,169.6953" style="stroke:#181818;stroke-width:1.0;"/><line style="stroke:#181818;stroke-width:1.0;" x1="47" x2="243" y1="169.6953" y2="169.6953"/><text fill="#000000" font-family="sans-serif" font-size="13" font-weight="bold" lengthAdjust="spacing" textLength="9" x="54" y="164.6294">2</text><text fill="#000000" font-family="sans-serif" font-size="13" lengthAdjust="spacing" textLength="165" x="67" y="164.6294">Enter register information</text><polygon fill="#181818" points="237,194.8281,247,198.8281,237,202.8281,241,198.8281" style="stroke:#181818;stroke-width:1.0;"/><line style="stroke:#181818;stroke-width:1.0;" x1="47" x2="243" y1="198.8281" y2="198.8281"/><text fill="#000000" font-family="sans-serif" font-size="13" font-weight="bold" lengthAdjust="spacing" textLength="8" x="54" y="193.7622">3</text><text fill="#000000" font-family="sans-serif" font-size="13" lengthAdjust="spacing" textLength="137" x="66" y="193.7622">Click button "Sign Up"</text><line style="stroke:#181818;stroke-width:1.0;" x1="249" x2="291" y1="227.9609" y2="227.9609"/><line style="stroke:#181818;stroke-width:1.0;" x1="291" x2="291" y1="227.9609" y2="240.9609"/><line style="stroke:#181818;stroke-width:1.0;" x1="250" x2="291" y1="240.9609" y2="240.9609"/><polygon fill="#181818" points="260,236.9609,250,240.9609,260,244.9609,256,240.9609" style="stroke:#181818;stroke-width:1.0;"/><text fill="#000000" font-family="sans-serif" font-size="13" font-weight="bold" lengthAdjust="spacing" textLength="9" x="256" y="222.895">4</text><text fill="#000000" font-family="sans-serif" font-size="13" lengthAdjust="spacing" textLength="133" x="269" y="222.895">Validate data format</text><path d="M10,255.9609 L76,255.9609 L76,263.0938 L66,273.0938 L10,273.0938 L10,255.9609 " fill="#EEEEEE" style="stroke:#000000;stroke-width:1.5;"/><rect fill="none" height="578.8672" style="stroke:#000000;stroke-width:1.5;" width="907" x="10" y="255.9609"/><text fill="#000000" font-family="sans-serif" font-size="13" font-weight="bold" lengthAdjust="spacing" textLength="21" x="25" y="269.0278">alt</text><text fill="#000000" font-family="sans-serif" font-size="11" font-weight="bold" lengthAdjust="spacing" textLength="88" x="91" y="268.1714">[Invalid data]</text><polygon fill="#181818" points="58,290.2266,48,294.2266,58,298.2266,54,294.2266" style="stroke:#181818;stroke-width:1.0;"/><line style="stroke:#181818;stroke-width:1.0;stroke-dasharray:2.0,2.0;" x1="52" x2="248" y1="294.2266" y2="294.2266"/><text fill="#000000" font-family="sans-serif" font-size="13" font-weight="bold" lengthAdjust="spacing" textLength="9" x="64" y="289.1606">5</text><text fill="#000000" font-family="sans-serif" font-size="13" lengthAdjust="spacing" textLength="106" x="77" y="289.1606">Error notification</text><line style="stroke:#181818;stroke-width:1.0;" x1="249" x2="291" y1="323.3594" y2="323.3594"/><line style="stroke:#181818;stroke-width:1.0;" x1="291" x2="291" y1="323.3594" y2="336.3594"/><line style="stroke:#181818;stroke-width:1.0;" x1="250" x2="291" y1="336.3594" y2="336.3594"/><polygon fill="#181818" points="260,332.3594,250,336.3594,260,340.3594,256,336.3594" style="stroke:#181818;stroke-width:1.0;"/><text fill="#000000" font-family="sans-serif" font-size="13" font-weight="bold" lengthAdjust="spacing" textLength="9" x="256" y="318.2935">6</text><text fill="#000000" font-family="sans-serif" font-size="13" lengthAdjust="spacing" textLength="157" x="269" y="318.2935">Display error notification</text><line style="stroke:#000000;stroke-width:1.0;stroke-dasharray:2.0,2.0;" x1="10" x2="917" y1="345.3594" y2="345.3594"/><text fill="#000000" font-family="sans-serif" font-size="11" font-weight="bold" lengthAdjust="spacing" textLength="78" x="15" y="355.5698">[Valid data]</text><polygon fill="#181818" points="596,376.2969,606,380.2969,596,384.2969,600,380.2969" style="stroke:#181818;stroke-width:1.0;"/><line style="stroke:#181818;stroke-width:1.0;" x1="249" x2="602" y1="380.2969" y2="380.2969"/><text fill="#000000" font-family="sans-serif" font-size="13" font-weight="bold" lengthAdjust="spacing" textLength="9" x="256" y="375.231">7</text><text fill="#000000" font-family="sans-serif" font-size="13" lengthAdjust="spacing" textLength="142" x="269" y="375.231">Send user information</text><polygon fill="#181818" points="775,405.4297,785,409.4297,775,413.4297,779,409.4297" style="stroke:#181818;stroke-width:1.0;"/><line style="stroke:#181818;stroke-width:1.0;" x1="608" x2="781" y1="409.4297" y2="409.4297"/><text fill="#000000" font-family="sans-serif" font-size="13" font-weight="bold" lengthAdjust="spacing" textLength="9" x="615" y="404.3638">8</text><text fill="#000000" font-family="sans-serif" font-size="13" lengthAdjust="spacing" textLength="142" x="628" y="404.3638">Send user information</text><line style="stroke:#181818;stroke-width:1.0;" x1="787" x2="829" y1="438.5625" y2="438.5625"/><line style="stroke:#181818;stroke-width:1.0;" x1="829" x2="829" y1="438.5625" y2="451.5625"/><line style="stroke:#181818;stroke-width:1.0;" x1="788" x2="829" y1="451.5625" y2="451.5625"/><polygon fill="#181818" points="798,447.5625,788,451.5625,798,455.5625,794,451.5625" style="stroke:#181818;stroke-width:1.0;"/><text fill="#000000" font-family="sans-serif" font-size="13" font-weight="bold" lengthAdjust="spacing" textLength="9" x="794" y="433.4966">9</text><text fill="#000000" font-family="sans-serif" font-size="13" lengthAdjust="spacing" textLength="85" x="807" y="433.4966">Validate data</text><path d="M194,466.5625 L260,466.5625 L260,473.6953 L250,483.6953 L194,483.6953 L194,466.5625 " fill="#EEEEEE" style="stroke:#000000;stroke-width:1.5;"/><rect fill="none" height="361.2656" style="stroke:#000000;stroke-width:1.5;" width="713" x="194" y="466.5625"/><text fill="#000000" font-family="sans-serif" font-size="13" font-weight="bold" lengthAdjust="spacing" textLength="21" x="209" y="479.6294">alt</text><text fill="#000000" font-family="sans-serif" font-size="11" font-weight="bold" lengthAdjust="spacing" textLength="88" x="275" y="478.7729">[Invalid data]</text><polygon fill="#181818" points="619,500.8281,609,504.8281,619,508.8281,615,504.8281" style="stroke:#181818;stroke-width:1.0;"/><line style="stroke:#181818;stroke-width:1.0;stroke-dasharray:2.0,2.0;" x1="613" x2="786" y1="504.8281" y2="504.8281"/><text fill="#000000" font-family="sans-serif" font-size="13" font-weight="bold" lengthAdjust="spacing" textLength="19" x="625" y="499.7622">10</text><text fill="#000000" font-family="sans-serif" font-size="13" lengthAdjust="spacing" textLength="106" x="648" y="499.7622">Error notification</text><polygon fill="#181818" points="260,529.9609,250,533.9609,260,537.9609,256,533.9609" style="stroke:#181818;stroke-width:1.0;"/><line style="stroke:#181818;stroke-width:1.0;stroke-dasharray:2.0,2.0;" x1="254" x2="607" y1="533.9609" y2="533.9609"/><text fill="#000000" font-family="sans-serif" font-size="13" font-weight="bold" lengthAdjust="spacing" textLength="18" x="266" y="528.895">11</text><text fill="#000000" font-family="sans-serif" font-size="13" lengthAdjust="spacing" textLength="106" x="288" y="528.895">Error notification</text><line style="stroke:#181818;stroke-width:1.0;" x1="249" x2="291" y1="563.0938" y2="563.0938"/><line style="stroke:#181818;stroke-width:1.0;" x1="291" x2="291" y1="563.0938" y2="576.0938"/><line style="stroke:#181818;stroke-width:1.0;" x1="250" x2="291" y1="576.0938" y2="576.0938"/><polygon fill="#181818" points="260,572.0938,250,576.0938,260,580.0938,256,576.0938" style="stroke:#181818;stroke-width:1.0;"/><text fill="#000000" font-family="sans-serif" font-size="13" font-weight="bold" lengthAdjust="spacing" textLength="18" x="256" y="558.0278">12</text><text fill="#000000" font-family="sans-serif" font-size="13" lengthAdjust="spacing" textLength="157" x="278" y="558.0278">Display error notification</text><line style="stroke:#000000;stroke-width:1.0;stroke-dasharray:2.0,2.0;" x1="194" x2="907" y1="585.0938" y2="585.0938"/><text fill="#000000" font-family="sans-serif" font-size="11" font-weight="bold" lengthAdjust="spacing" textLength="78" x="199" y="595.3042">[Valid data]</text><line style="stroke:#181818;stroke-width:1.0;" x1="787" x2="829" y1="635.1641" y2="635.1641"/><line style="stroke:#181818;stroke-width:1.0;" x1="829" x2="829" y1="635.1641" y2="648.1641"/><line style="stroke:#181818;stroke-width:1.0;" x1="788" x2="829" y1="648.1641" y2="648.1641"/><polygon fill="#181818" points="798,644.1641,788,648.1641,798,652.1641,794,648.1641" style="stroke:#181818;stroke-width:1.0;"/><text fill="#000000" font-family="sans-serif" font-size="13" font-weight="bold" lengthAdjust="spacing" textLength="17" x="794" y="622.5317">13</text><text fill="#000000" font-family="sans-serif" font-size="13" lengthAdjust="spacing" textLength="80" x="815" y="614.9653">Store parent</text><text fill="#000000" font-family="sans-serif" font-size="13" lengthAdjust="spacing" textLength="74" x="815" y="630.0981">information</text><polygon fill="#181818" points="619,673.2969,609,677.2969,619,681.2969,615,677.2969" style="stroke:#181818;stroke-width:1.0;"/><line style="stroke:#181818;stroke-width:1.0;stroke-dasharray:2.0,2.0;" x1="613" x2="786" y1="677.2969" y2="677.2969"/><text fill="#000000" font-family="sans-serif" font-size="13" font-weight="bold" lengthAdjust="spacing" textLength="18" x="625" y="672.231">14</text><text fill="#000000" font-family="sans-serif" font-size="13" lengthAdjust="spacing" textLength="127" x="647" y="672.231">Success notification</text><polygon fill="#181818" points="260,702.4297,250,706.4297,260,710.4297,256,706.4297" style="stroke:#181818;stroke-width:1.0;"/><line style="stroke:#181818;stroke-width:1.0;stroke-dasharray:2.0,2.0;" x1="254" x2="607" y1="706.4297" y2="706.4297"/><text fill="#000000" font-family="sans-serif" font-size="13" font-weight="bold" lengthAdjust="spacing" textLength="18" x="266" y="701.3638">15</text><text fill="#000000" font-family="sans-serif" font-size="13" lengthAdjust="spacing" textLength="127" x="288" y="701.3638">Success notification</text><line style="stroke:#181818;stroke-width:1.0;" x1="249" x2="291" y1="735.5625" y2="735.5625"/><line style="stroke:#181818;stroke-width:1.0;" x1="291" x2="291" y1="735.5625" y2="748.5625"/><line style="stroke:#181818;stroke-width:1.0;" x1="250" x2="291" y1="748.5625" y2="748.5625"/><polygon fill="#181818" points="260,744.5625,250,748.5625,260,752.5625,256,748.5625" style="stroke:#181818;stroke-width:1.0;"/><text fill="#000000" font-family="sans-serif" font-size="13" font-weight="bold" lengthAdjust="spacing" textLength="18" x="256" y="730.4966">16</text><text fill="#000000" font-family="sans-serif" font-size="13" lengthAdjust="spacing" textLength="133" x="278" y="730.4966">Automatically sign in</text><line style="stroke:#181818;stroke-width:1.0;" x1="249" x2="291" y1="777.6953" y2="777.6953"/><line style="stroke:#181818;stroke-width:1.0;" x1="291" x2="291" y1="777.6953" y2="790.6953"/><line style="stroke:#181818;stroke-width:1.0;" x1="250" x2="291" y1="790.6953" y2="790.6953"/><polygon fill="#181818" points="260,786.6953,250,790.6953,260,794.6953,256,790.6953" style="stroke:#181818;stroke-width:1.0;"/><text fill="#000000" font-family="sans-serif" font-size="13" font-weight="bold" lengthAdjust="spacing" textLength="18" x="256" y="772.6294">17</text><text fill="#000000" font-family="sans-serif" font-size="13" lengthAdjust="spacing" textLength="114" x="278" y="772.6294">Close SignUpView</text><polygon fill="#181818" points="453,815.8281,443,819.8281,453,823.8281,449,819.8281" style="stroke:#181818;stroke-width:1.0;"/><line style="stroke:#181818;stroke-width:1.0;" x1="447" x2="607" y1="819.8281" y2="819.8281"/><text fill="#000000" font-family="sans-serif" font-size="13" font-weight="bold" lengthAdjust="spacing" textLength="18" x="459" y="814.7622">18</text><text fill="#000000" font-family="sans-serif" font-size="13" lengthAdjust="spacing" textLength="120" x="481" y="814.7622">Display HomeView</text><!--SRC=[fPH1Ri8m44NtFiM8VI_00WbHf7PJeGPOiN6SWLeruyXsQ7FxZcC9Gc8eQhE8al7yd-zdPMGJB3N74ftuq1N2tjfGscyXf0hMmKewf21Asr0bNGk5Fj2ctchykjHUx16xYh8Kd3KmLuhNmYAz6hPc3nrQMCtVbszh8Iuky3JhUKxXMVlQo7P7delGr72AnYd5TIzCOKa17JWyQ1yVDEsjEygWBTrIB8nMdr0sWJSDaxW4ctfo9yzM6bt9WC0t2SbVI1FWbKvngQiBuAllmIOf06TqZZ6I3NglLSesxCuI01mBqNXCYVAVdOt9Jw50gg3n0pvHEcgE3kc8xibIHx_t2bBNaoNK5-UpZc55pLcS2Jo0TuFsdub7OOvwdaF1Vmn2tPtyZeRSVjz-qIY5tly7GCxY0GHpdW8ngfB6jD3zUvhW0U72MARJcmfteixEa-B2_3mxEj9KyQIeVW00]--></g></svg>