<?xml version="1.0" encoding="us-ascii" standalone="no"?><svg xmlns="http://www.w3.org/2000/svg" xmlns:xlink="http://www.w3.org/1999/xlink" contentStyleType="text/css" height="752px" preserveAspectRatio="none" style="width:1044px;height:752px;background:#FFFFFF;" version="1.1" viewBox="0 0 1044 752" width="1044px" zoomAndPan="magnify"><defs/><g><rect fill="none" height="20.9531" style="stroke:none;stroke-width:1.0;" width="1011.75" x="15" y="12.7451"/><ellipse cx="228.25" cy="48.6982" fill="#222222" rx="10" ry="10" style="stroke:#222222;stroke-width:1.0;"/><rect fill="#F1F1F1" height="47.9375" rx="12.5" ry="12.5" style="stroke:#181818;stroke-width:0.5;" width="120" x="168.25" y="78.6982"/><text fill="#000000" font-family="sans-serif" font-size="12" lengthAdjust="spacing" textLength="100" x="178.25" y="99.8369">Execute "Activity</text><text fill="#000000" font-family="sans-serif" font-size="12" lengthAdjust="spacing" textLength="92" x="178.25" y="113.8057">Search Doctor"</text><rect fill="#F1F1F1" height="47.9375" rx="12.5" ry="12.5" style="stroke:#181818;stroke-width:0.5;" width="111" x="172.75" y="146.6357"/><text fill="#000000" font-family="sans-serif" font-size="12" lengthAdjust="spacing" textLength="82" x="182.75" y="167.7744">Select doctor</text><text fill="#000000" font-family="sans-serif" font-size="12" lengthAdjust="spacing" textLength="91" x="182.75" y="181.7432">needs deleting</text><rect fill="#F1F1F1" height="33.9688" rx="12.5" ry="12.5" style="stroke:#181818;stroke-width:0.5;" width="144" x="21" y="326.5107"/><text fill="#000000" font-family="sans-serif" font-size="12" lengthAdjust="spacing" textLength="124" x="31" y="347.6494">Click "Cancel" button</text><ellipse cx="93" cy="390.4795" fill="none" rx="10" ry="10" style="stroke:#222222;stroke-width:1.5;"/><line style="stroke:#222222;stroke-width:2.5;" x1="86.8128" x2="99.1872" y1="384.2923" y2="396.6667"/><line style="stroke:#222222;stroke-width:2.5;" x1="99.1872" x2="86.8128" y1="384.2923" y2="396.6667"/><rect fill="#F1F1F1" height="33.9688" rx="12.5" ry="12.5" style="stroke:#181818;stroke-width:0.5;" width="150" x="288.5" y="326.5107"/><text fill="#000000" font-family="sans-serif" font-size="12" lengthAdjust="spacing" textLength="130" x="298.5" y="347.6494">Click "Confirm" button</text><line style="stroke:#000000;stroke-width:1.5;" x1="15" x2="15" y1="12.7451" y2="740.292"/><rect fill="#F1F1F1" height="47.9375" rx="12.5" ry="12.5" style="stroke:#181818;stroke-width:0.5;" width="142" x="448.5" y="214.5732"/><text fill="#000000" font-family="sans-serif" font-size="12" lengthAdjust="spacing" textLength="122" x="458.5" y="235.7119">Display confirmation</text><text fill="#000000" font-family="sans-serif" font-size="12" lengthAdjust="spacing" textLength="79" x="458.5" y="249.6807">messagebox</text><polygon fill="#F1F1F1" points="519.5,282.5107,519.5,282.5107,531.5,294.5107,519.5,306.5107,519.5,306.5107,507.5,294.5107,519.5,282.5107" style="stroke:#181818;stroke-width:0.5;"/><text fill="#000000" font-family="sans-serif" font-size="11" lengthAdjust="spacing" textLength="39" x="468.5" y="291.9165">Cancel</text><text fill="#000000" font-family="sans-serif" font-size="11" lengthAdjust="spacing" textLength="44" x="531.5" y="291.9165">Confirm</text><rect fill="#F1F1F1" height="33.9688" rx="12.5" ry="12.5" style="stroke:#181818;stroke-width:0.5;" width="172" x="568.75" y="380.4795"/><text fill="#000000" font-family="sans-serif" font-size="12" lengthAdjust="spacing" textLength="152" x="578.75" y="401.6182">Process deleting request</text><rect fill="#F1F1F1" height="33.9688" rx="12.5" ry="12.5" style="stroke:#181818;stroke-width:0.5;" width="168" x="486.25" y="532.417"/><text fill="#000000" font-family="sans-serif" font-size="12" lengthAdjust="spacing" textLength="148" x="496.25" y="553.5557">Display error notification</text><rect fill="#F1F1F1" height="61.9063" rx="12.5" ry="12.5" style="stroke:#181818;stroke-width:0.5;" width="130" x="674.25" y="586.3857"/><text fill="#000000" font-family="sans-serif" font-size="12" lengthAdjust="spacing" textLength="98" x="684.25" y="607.5244">Display success</text><text fill="#000000" font-family="sans-serif" font-size="12" lengthAdjust="spacing" textLength="65" x="684.25" y="621.4932">notification</text><text fill="#000000" font-family="sans-serif" font-size="12" lengthAdjust="spacing" textLength="110" x="684.25" y="635.4619">and list of doctors</text><line style="stroke:#000000;stroke-width:1.5;" x1="442.5" x2="442.5" y1="12.7451" y2="740.292"/><rect fill="#F1F1F1" height="33.9688" rx="12.5" ry="12.5" style="stroke:#181818;stroke-width:0.5;" width="98" x="842.25" y="434.4482"/><text fill="#000000" font-family="sans-serif" font-size="12" lengthAdjust="spacing" textLength="78" x="852.25" y="455.5869">Validate data</text><polygon fill="#F1F1F1" points="891.25,488.417,891.25,488.417,903.25,500.417,891.25,512.417,891.25,512.417,879.25,500.417,891.25,488.417" style="stroke:#181818;stroke-width:0.5;"/><text fill="#000000" font-family="sans-serif" font-size="11" lengthAdjust="spacing" textLength="66" x="813.25" y="497.8228">Invalid data</text><text fill="#000000" font-family="sans-serif" font-size="11" lengthAdjust="spacing" textLength="57" x="903.25" y="497.8228">Valid data</text><rect fill="#F1F1F1" height="33.9688" rx="12.5" ry="12.5" style="stroke:#181818;stroke-width:0.5;" width="90" x="930.75" y="532.417"/><text fill="#000000" font-family="sans-serif" font-size="12" lengthAdjust="spacing" textLength="70" x="940.75" y="553.5557">Delete data</text><polygon fill="#F1F1F1" points="891.25,658.292,903.25,670.292,891.25,682.292,879.25,670.292,891.25,658.292" style="stroke:#181818;stroke-width:0.5;"/><ellipse cx="891.25" cy="713.292" fill="none" rx="11" ry="11" style="stroke:#222222;stroke-width:1.0;"/><ellipse cx="891.25" cy="713.292" fill="#222222" rx="6" ry="6" style="stroke:#222222;stroke-width:1.0;"/><line style="stroke:#000000;stroke-width:1.5;" x1="808.25" x2="808.25" y1="12.7451" y2="740.292"/><line style="stroke:#000000;stroke-width:1.5;" x1="1024.75" x2="1024.75" y1="12.7451" y2="740.292"/><line style="stroke:#181818;stroke-width:1.0;" x1="228.25" x2="228.25" y1="58.6982" y2="78.6982"/><polygon fill="#181818" points="224.25,68.6982,228.25,78.6982,232.25,68.6982,228.25,72.6982" style="stroke:#181818;stroke-width:1.0;"/><line style="stroke:#181818;stroke-width:1.0;" x1="228.25" x2="228.25" y1="126.6357" y2="146.6357"/><polygon fill="#181818" points="224.25,136.6357,228.25,146.6357,232.25,136.6357,228.25,140.6357" style="stroke:#181818;stroke-width:1.0;"/><line style="stroke:#181818;stroke-width:1.0;" x1="93" x2="93" y1="360.4795" y2="380.4795"/><polygon fill="#181818" points="89,370.4795,93,380.4795,97,370.4795,93,374.4795" style="stroke:#181818;stroke-width:1.0;"/><line style="stroke:#181818;stroke-width:1.0;" x1="519.5" x2="519.5" y1="262.5107" y2="282.5107"/><polygon fill="#181818" points="515.5,272.5107,519.5,282.5107,523.5,272.5107,519.5,276.5107" style="stroke:#181818;stroke-width:1.0;"/><line style="stroke:#181818;stroke-width:1.0;" x1="903.25" x2="975.75" y1="500.417" y2="500.417"/><line style="stroke:#181818;stroke-width:1.0;" x1="975.75" x2="975.75" y1="500.417" y2="532.417"/><polygon fill="#181818" points="971.75,522.417,975.75,532.417,979.75,522.417,975.75,526.417" style="stroke:#181818;stroke-width:1.0;"/><line style="stroke:#181818;stroke-width:1.0;" x1="891.25" x2="891.25" y1="468.417" y2="488.417"/><polygon fill="#181818" points="887.25,478.417,891.25,488.417,895.25,478.417,891.25,482.417" style="stroke:#181818;stroke-width:1.0;"/><line style="stroke:#181818;stroke-width:1.0;" x1="891.25" x2="891.25" y1="682.292" y2="702.292"/><polygon fill="#181818" points="887.25,692.292,891.25,702.292,895.25,692.292,891.25,696.292" style="stroke:#181818;stroke-width:1.0;"/><line style="stroke:#181818;stroke-width:1.0;" x1="228.25" x2="228.25" y1="194.5732" y2="199.5732"/><line style="stroke:#181818;stroke-width:1.0;" x1="228.25" x2="519.5" y1="199.5732" y2="199.5732"/><line style="stroke:#181818;stroke-width:1.0;" x1="519.5" x2="519.5" y1="199.5732" y2="214.5732"/><polygon fill="#181818" points="515.5,204.5732,519.5,214.5732,523.5,204.5732,519.5,208.5732" style="stroke:#181818;stroke-width:1.0;"/><line style="stroke:#181818;stroke-width:1.0;" x1="363.5" x2="363.5" y1="360.4795" y2="365.4795"/><line style="stroke:#181818;stroke-width:1.0;" x1="363.5" x2="654.75" y1="365.4795" y2="365.4795"/><line style="stroke:#181818;stroke-width:1.0;" x1="654.75" x2="654.75" y1="365.4795" y2="380.4795"/><polygon fill="#181818" points="650.75,370.4795,654.75,380.4795,658.75,370.4795,654.75,374.4795" style="stroke:#181818;stroke-width:1.0;"/><line style="stroke:#181818;stroke-width:1.0;" x1="654.75" x2="654.75" y1="414.4482" y2="419.4482"/><line style="stroke:#181818;stroke-width:1.0;" x1="654.75" x2="891.25" y1="419.4482" y2="419.4482"/><line style="stroke:#181818;stroke-width:1.0;" x1="891.25" x2="891.25" y1="419.4482" y2="434.4482"/><polygon fill="#181818" points="887.25,424.4482,891.25,434.4482,895.25,424.4482,891.25,428.4482" style="stroke:#181818;stroke-width:1.0;"/><line style="stroke:#181818;stroke-width:1.0;" x1="975.75" x2="975.75" y1="566.3857" y2="571.3857"/><line style="stroke:#181818;stroke-width:1.0;" x1="975.75" x2="739.25" y1="571.3857" y2="571.3857"/><line style="stroke:#181818;stroke-width:1.0;" x1="739.25" x2="739.25" y1="571.3857" y2="586.3857"/><polygon fill="#181818" points="735.25,576.3857,739.25,586.3857,743.25,576.3857,739.25,580.3857" style="stroke:#181818;stroke-width:1.0;"/><line style="stroke:#181818;stroke-width:1.0;" x1="879.25" x2="570.25" y1="500.417" y2="500.417"/><line style="stroke:#181818;stroke-width:1.0;" x1="570.25" x2="570.25" y1="500.417" y2="532.417"/><polygon fill="#181818" points="566.25,522.417,570.25,532.417,574.25,522.417,570.25,526.417" style="stroke:#181818;stroke-width:1.0;"/><line style="stroke:#181818;stroke-width:1.0;" x1="570.25" x2="570.25" y1="566.3857" y2="670.292"/><line style="stroke:#181818;stroke-width:1.0;" x1="570.25" x2="879.25" y1="670.292" y2="670.292"/><polygon fill="#181818" points="869.25,666.292,879.25,670.292,869.25,674.292,873.25,670.292" style="stroke:#181818;stroke-width:1.0;"/><line style="stroke:#181818;stroke-width:1.0;" x1="739.25" x2="739.25" y1="648.292" y2="652.292"/><line style="stroke:#181818;stroke-width:1.0;" x1="739.25" x2="921.25" y1="652.292" y2="652.292"/><line style="stroke:#181818;stroke-width:1.0;" x1="921.25" x2="921.25" y1="652.292" y2="670.292"/><line style="stroke:#181818;stroke-width:1.0;" x1="921.25" x2="903.25" y1="670.292" y2="670.292"/><polygon fill="#181818" points="913.25,666.292,903.25,670.292,913.25,674.292,909.25,670.292" style="stroke:#181818;stroke-width:1.0;"/><line style="stroke:#181818;stroke-width:1.0;" x1="507.5" x2="93" y1="294.5107" y2="294.5107"/><line style="stroke:#181818;stroke-width:1.0;" x1="93" x2="93" y1="294.5107" y2="326.5107"/><polygon fill="#181818" points="89,316.5107,93,326.5107,97,316.5107,93,320.5107" style="stroke:#181818;stroke-width:1.0;"/><line style="stroke:#181818;stroke-width:1.0;" x1="531.5" x2="543.5" y1="294.5107" y2="294.5107"/><line style="stroke:#181818;stroke-width:1.0;" x1="543.5" x2="543.5" y1="294.5107" y2="312.5107"/><line style="stroke:#181818;stroke-width:1.0;" x1="543.5" x2="363.5" y1="312.5107" y2="312.5107"/><line style="stroke:#181818;stroke-width:1.0;" x1="363.5" x2="363.5" y1="312.5107" y2="326.5107"/><polygon fill="#181818" points="359.5,316.5107,363.5,326.5107,367.5,316.5107,363.5,320.5107" style="stroke:#181818;stroke-width:1.0;"/><text fill="#000000" font-family="sans-serif" font-size="18" lengthAdjust="spacing" textLength="58" x="199.75" y="29.4531">Admin</text><text fill="#000000" font-family="sans-serif" font-size="18" lengthAdjust="spacing" textLength="69" x="590.875" y="29.4531">System</text><text fill="#000000" font-family="sans-serif" font-size="18" lengthAdjust="spacing" textLength="88" x="872.5" y="29.4531">Database</text><!--SRC=[VL7BZi8m3BpdAwoUu1VQ4w9xsDjAI9nw2OaBrgOE92u2gH-_QTejx4Fa44NsU3mp6JQs8nvK51r4bMytDBqW51iZT2MvDxn37Sm9Qc_4Xw9IvGuT6W6R2mqpeerWKr68ZvKQTlSes0sgh2cUdRw3yTnIwBIGvuOxZ54VyU1l5UIZg8NL6kI43AkjPeDkhSR6C6iRt-NMaVc4OkeNSEX5F5UvXsmLkeXfUjhqOdm2_9nV56VaH_0cILmSGS1BZr5cRAr57tJ46RtNZgnEYQLBJv1dE-zy7G6vEwdwip3JV4U58VW0x8LQCZcmsMAsj_-FQn6KadpmZUAVHRrU6tipUawV-RIvOSqM74K1tyxV7HziANLgVsSInP-_0000]--></g></svg>