<?xml version="1.0" encoding="us-ascii" standalone="no"?><svg xmlns="http://www.w3.org/2000/svg" xmlns:xlink="http://www.w3.org/1999/xlink" contentStyleType="text/css" height="393px" preserveAspectRatio="none" style="width:615px;height:393px;background:#FFFFFF;" version="1.1" viewBox="0 0 615 393" width="615px" zoomAndPan="magnify"><defs/><g><rect fill="none" height="20.9531" style="stroke:none;stroke-width:1.0;" width="582" x="15" y="12.7451"/><rect fill="#F1F1F1" height="33.9688" rx="12.5" ry="12.5" style="stroke:#181818;stroke-width:0.5;" width="117" x="125.5" y="146.6357"/><text fill="#000000" font-family="sans-serif" font-size="12" lengthAdjust="spacing" textLength="97" x="135.5" y="167.7744">Choose function</text><polygon fill="#F1F1F1" points="52.5,200.6045,52.5,200.6045,64.5,212.6045,52.5,224.6045,52.5,224.6045,40.5,212.6045,52.5,200.6045" style="stroke:#181818;stroke-width:0.5;"/><text fill="#000000" font-family="sans-serif" font-size="11" lengthAdjust="spacing" textLength="39" x="56.5" y="234.8149">Create</text><rect fill="#F1F1F1" height="61.9063" rx="12.5" ry="12.5" style="stroke:#181818;stroke-width:0.5;" width="63" x="21" y="257.4092"/><text fill="#000000" font-family="sans-serif" font-size="12" lengthAdjust="spacing" textLength="43" x="31" y="278.5479">Activity</text><text fill="#000000" font-family="sans-serif" font-size="12" lengthAdjust="spacing" textLength="40" x="31" y="292.5166">Create</text><text fill="#000000" font-family="sans-serif" font-size="12" lengthAdjust="spacing" textLength="41" x="31" y="306.4854">Doctor</text><polygon fill="#F1F1F1" points="137.5,200.6045,137.5,200.6045,149.5,212.6045,137.5,224.6045,137.5,224.6045,125.5,212.6045,137.5,200.6045" style="stroke:#181818;stroke-width:0.5;"/><text fill="#000000" font-family="sans-serif" font-size="11" lengthAdjust="spacing" textLength="41" x="141.5" y="234.8149">Update</text><rect fill="#F1F1F1" height="61.9063" rx="12.5" ry="12.5" style="stroke:#181818;stroke-width:0.5;" width="64" x="105.5" y="257.4092"/><text fill="#000000" font-family="sans-serif" font-size="12" lengthAdjust="spacing" textLength="43" x="115.5" y="278.5479">Activity</text><text fill="#000000" font-family="sans-serif" font-size="12" lengthAdjust="spacing" textLength="44" x="115.5" y="292.5166">Update</text><text fill="#000000" font-family="sans-serif" font-size="12" lengthAdjust="spacing" textLength="41" x="115.5" y="306.4854">Doctor</text><polygon fill="#F1F1F1" points="230,200.6045,230,200.6045,242,212.6045,230,224.6045,230,224.6045,218,212.6045,230,200.6045" style="stroke:#181818;stroke-width:0.5;"/><text fill="#000000" font-family="sans-serif" font-size="11" lengthAdjust="spacing" textLength="40" x="234" y="234.8149">Delete</text><text fill="#000000" font-family="sans-serif" font-size="11" lengthAdjust="spacing" textLength="40" x="242" y="210.0103">Search</text><rect fill="#F1F1F1" height="61.9063" rx="12.5" ry="12.5" style="stroke:#181818;stroke-width:0.5;" width="63" x="198.5" y="257.4092"/><text fill="#000000" font-family="sans-serif" font-size="12" lengthAdjust="spacing" textLength="43" x="208.5" y="278.5479">Activity</text><text fill="#000000" font-family="sans-serif" font-size="12" lengthAdjust="spacing" textLength="40" x="208.5" y="292.5166">Delete</text><text fill="#000000" font-family="sans-serif" font-size="12" lengthAdjust="spacing" textLength="41" x="208.5" y="306.4854">Doctor</text><rect fill="#F1F1F1" height="61.9063" rx="12.5" ry="12.5" style="stroke:#181818;stroke-width:0.5;" width="63" x="290" y="254.0068"/><text fill="#000000" font-family="sans-serif" font-size="12" lengthAdjust="spacing" textLength="43" x="300" y="275.1455">Activity</text><text fill="#000000" font-family="sans-serif" font-size="12" lengthAdjust="spacing" textLength="42" x="300" y="289.1143">Search</text><text fill="#000000" font-family="sans-serif" font-size="12" lengthAdjust="spacing" textLength="41" x="300" y="303.083">Doctor</text><line style="stroke:#000000;stroke-width:1.5;" x1="15" x2="15" y1="12.7451" y2="381.3154"/><ellipse cx="428" cy="48.6982" fill="#222222" rx="10" ry="10" style="stroke:#222222;stroke-width:1.0;"/><rect fill="#F1F1F1" height="47.9375" rx="12.5" ry="12.5" style="stroke:#181818;stroke-width:0.5;" width="130" x="363" y="78.6982"/><text fill="#000000" font-family="sans-serif" font-size="12" lengthAdjust="spacing" textLength="88" x="373" y="99.8369">Display doctor</text><text fill="#000000" font-family="sans-serif" font-size="12" lengthAdjust="spacing" textLength="110" x="373" y="113.8057">management view</text><ellipse cx="428" cy="370.3154" fill="none" rx="11" ry="11" style="stroke:#222222;stroke-width:1.0;"/><ellipse cx="428" cy="370.3154" fill="#222222" rx="6" ry="6" style="stroke:#222222;stroke-width:1.0;"/><line style="stroke:#000000;stroke-width:1.5;" x1="357" x2="357" y1="12.7451" y2="381.3154"/><line style="stroke:#000000;stroke-width:1.5;" x1="497" x2="497" y1="12.7451" y2="381.3154"/><line style="stroke:#000000;stroke-width:1.5;" x1="595" x2="595" y1="12.7451" y2="381.3154"/><line style="stroke:#181818;stroke-width:1.0;" x1="52.5" x2="52.5" y1="224.6045" y2="257.4092"/><polygon fill="#181818" points="48.5,247.4092,52.5,257.4092,56.5,247.4092,52.5,251.4092" style="stroke:#181818;stroke-width:1.0;"/><line style="stroke:#181818;stroke-width:1.0;" x1="52.5" x2="52.5" y1="319.3154" y2="339.3154"/><polygon fill="#181818" points="48.5,329.3154,52.5,339.3154,56.5,329.3154,52.5,333.3154" style="stroke:#181818;stroke-width:1.0;"/><line style="stroke:#181818;stroke-width:1.0;" x1="137.5" x2="137.5" y1="224.6045" y2="257.4092"/><polygon fill="#181818" points="133.5,247.4092,137.5,257.4092,141.5,247.4092,137.5,251.4092" style="stroke:#181818;stroke-width:1.0;"/><line style="stroke:#181818;stroke-width:1.0;" x1="137.5" x2="137.5" y1="319.3154" y2="339.3154"/><polygon fill="#181818" points="133.5,329.3154,137.5,339.3154,141.5,329.3154,137.5,333.3154" style="stroke:#181818;stroke-width:1.0;"/><line style="stroke:#181818;stroke-width:1.0;" x1="230" x2="230" y1="224.6045" y2="257.4092"/><polygon fill="#181818" points="226,247.4092,230,257.4092,234,247.4092,230,251.4092" style="stroke:#181818;stroke-width:1.0;"/><line style="stroke:#181818;stroke-width:1.0;" x1="230" x2="230" y1="319.3154" y2="339.3154"/><polygon fill="#181818" points="226,329.3154,230,339.3154,234,329.3154,230,333.3154" style="stroke:#181818;stroke-width:1.0;"/><line style="stroke:#181818;stroke-width:1.0;" x1="64.5" x2="125.5" y1="212.6045" y2="212.6045"/><polygon fill="#181818" points="115.5,208.6045,125.5,212.6045,115.5,216.6045,119.5,212.6045" style="stroke:#181818;stroke-width:1.0;"/><line style="stroke:#181818;stroke-width:1.0;" x1="149.5" x2="218" y1="212.6045" y2="212.6045"/><polygon fill="#181818" points="208,208.6045,218,212.6045,208,216.6045,212,212.6045" style="stroke:#181818;stroke-width:1.0;"/><line style="stroke:#181818;stroke-width:1.0;" x1="184" x2="184" y1="180.6045" y2="185.6045"/><line style="stroke:#181818;stroke-width:1.0;" x1="184" x2="52.5" y1="185.6045" y2="185.6045"/><line style="stroke:#181818;stroke-width:1.0;" x1="52.5" x2="52.5" y1="185.6045" y2="200.6045"/><polygon fill="#181818" points="48.5,190.6045,52.5,200.6045,56.5,190.6045,52.5,194.6045" style="stroke:#181818;stroke-width:1.0;"/><line style="stroke:#181818;stroke-width:1.0;" x1="242" x2="321.5" y1="212.6045" y2="212.6045"/><line style="stroke:#181818;stroke-width:1.0;" x1="321.5" x2="321.5" y1="212.6045" y2="254.0068"/><polygon fill="#181818" points="317.5,244.0068,321.5,254.0068,325.5,244.0068,321.5,248.0068" style="stroke:#181818;stroke-width:1.0;"/><line style="stroke:#181818;stroke-width:1.0;" x1="321.5" x2="321.5" y1="315.9131" y2="339.3154"/><polygon fill="#181818" points="317.5,329.3154,321.5,339.3154,325.5,329.3154,321.5,333.3154" style="stroke:#181818;stroke-width:1.0;"/><line style="stroke:#181818;stroke-width:1.0;" x1="52.5" x2="321.5" y1="339.3154" y2="339.3154"/><line style="stroke:#181818;stroke-width:1.0;" x1="428" x2="428" y1="58.6982" y2="78.6982"/><polygon fill="#181818" points="424,68.6982,428,78.6982,432,68.6982,428,72.6982" style="stroke:#181818;stroke-width:1.0;"/><line style="stroke:#181818;stroke-width:1.0;" x1="428" x2="428" y1="126.6357" y2="131.6357"/><line style="stroke:#181818;stroke-width:1.0;" x1="428" x2="184" y1="131.6357" y2="131.6357"/><line style="stroke:#181818;stroke-width:1.0;" x1="184" x2="184" y1="131.6357" y2="146.6357"/><polygon fill="#181818" points="180,136.6357,184,146.6357,188,136.6357,184,140.6357" style="stroke:#181818;stroke-width:1.0;"/><line style="stroke:#181818;stroke-width:1.0;" x1="184" x2="184" y1="339.3154" y2="344.3154"/><line style="stroke:#181818;stroke-width:1.0;" x1="184" x2="428" y1="344.3154" y2="344.3154"/><line style="stroke:#181818;stroke-width:1.0;" x1="428" x2="428" y1="344.3154" y2="359.3154"/><polygon fill="#181818" points="424,349.3154,428,359.3154,432,349.3154,428,353.3154" style="stroke:#181818;stroke-width:1.0;"/><text fill="#000000" font-family="sans-serif" font-size="18" lengthAdjust="spacing" textLength="58" x="157" y="29.4531">Admin</text><text fill="#000000" font-family="sans-serif" font-size="18" lengthAdjust="spacing" textLength="69" x="392.5" y="29.4531">System</text><text fill="#000000" font-family="sans-serif" font-size="18" lengthAdjust="spacing" textLength="88" x="502" y="29.4531">Database</text><!--SRC=[VP0n3eCm34NtdC8ZN04c13T0tLXSOaeaug34fKBAuKkR3YcLkbdF_trBZessXgEA_Hw4x35qA7Z5G1aBWbvKrPcmBhY3TgCuFx15nXjPOe7DqADMyLDMjRDpWM2wyoZ6SQtC14K9CXD3qNf2eL81LCsntepi0oSuSFVkha7H4YYtBgj-MV2j9Vf7wsYXdsC9dYmeUa8_pgTiWdcMjPdotxZr2G00]--></g></svg>