<?xml version="1.0" encoding="us-ascii" standalone="no"?><svg xmlns="http://www.w3.org/2000/svg" xmlns:xlink="http://www.w3.org/1999/xlink" contentStyleType="text/css" height="752px" preserveAspectRatio="none" style="width:1043px;height:752px;background:#FFFFFF;" version="1.1" viewBox="0 0 1043 752" width="1043px" zoomAndPan="magnify"><defs/><g><rect fill="none" height="20.9531" style="stroke:none;stroke-width:1.0;" width="1010.375" x="15" y="12.7451"/><ellipse cx="228.125" cy="48.6982" fill="#222222" rx="10" ry="10" style="stroke:#222222;stroke-width:1.0;"/><rect fill="#F1F1F1" height="47.9375" rx="12.5" ry="12.5" style="stroke:#181818;stroke-width:0.5;" width="120" x="168.125" y="78.6982"/><text fill="#000000" font-family="sans-serif" font-size="12" lengthAdjust="spacing" textLength="100" x="178.125" y="99.8369">Execute "Activity</text><text fill="#000000" font-family="sans-serif" font-size="12" lengthAdjust="spacing" textLength="88" x="178.125" y="113.8057">Search Parent"</text><rect fill="#F1F1F1" height="47.9375" rx="12.5" ry="12.5" style="stroke:#181818;stroke-width:0.5;" width="111" x="172.625" y="146.6357"/><text fill="#000000" font-family="sans-serif" font-size="12" lengthAdjust="spacing" textLength="81" x="182.625" y="167.7744">Select parent</text><text fill="#000000" font-family="sans-serif" font-size="12" lengthAdjust="spacing" textLength="91" x="182.625" y="181.7432">needs deleting</text><rect fill="#F1F1F1" height="33.9688" rx="12.5" ry="12.5" style="stroke:#181818;stroke-width:0.5;" width="144" x="21" y="326.5107"/><text fill="#000000" font-family="sans-serif" font-size="12" lengthAdjust="spacing" textLength="124" x="31" y="347.6494">Click "Cancel" button</text><ellipse cx="93" cy="390.4795" fill="none" rx="10" ry="10" style="stroke:#222222;stroke-width:1.5;"/><line style="stroke:#222222;stroke-width:2.5;" x1="86.8128" x2="99.1872" y1="384.2923" y2="396.6667"/><line style="stroke:#222222;stroke-width:2.5;" x1="99.1872" x2="86.8128" y1="384.2923" y2="396.6667"/><rect fill="#F1F1F1" height="33.9688" rx="12.5" ry="12.5" style="stroke:#181818;stroke-width:0.5;" width="150" x="288.25" y="326.5107"/><text fill="#000000" font-family="sans-serif" font-size="12" lengthAdjust="spacing" textLength="130" x="298.25" y="347.6494">Click "Confirm" button</text><line style="stroke:#000000;stroke-width:1.5;" x1="15" x2="15" y1="12.7451" y2="740.292"/><rect fill="#F1F1F1" height="47.9375" rx="12.5" ry="12.5" style="stroke:#181818;stroke-width:0.5;" width="142" x="448.25" y="214.5732"/><text fill="#000000" font-family="sans-serif" font-size="12" lengthAdjust="spacing" textLength="122" x="458.25" y="235.7119">Display confirmation</text><text fill="#000000" font-family="sans-serif" font-size="12" lengthAdjust="spacing" textLength="79" x="458.25" y="249.6807">messagebox</text><polygon fill="#F1F1F1" points="519.25,282.5107,519.25,282.5107,531.25,294.5107,519.25,306.5107,519.25,306.5107,507.25,294.5107,519.25,282.5107" style="stroke:#181818;stroke-width:0.5;"/><text fill="#000000" font-family="sans-serif" font-size="11" lengthAdjust="spacing" textLength="39" x="468.25" y="291.9165">Cancel</text><text fill="#000000" font-family="sans-serif" font-size="11" lengthAdjust="spacing" textLength="44" x="531.25" y="291.9165">Confirm</text><rect fill="#F1F1F1" height="33.9688" rx="12.5" ry="12.5" style="stroke:#181818;stroke-width:0.5;" width="172" x="568.375" y="380.4795"/><text fill="#000000" font-family="sans-serif" font-size="12" lengthAdjust="spacing" textLength="152" x="578.375" y="401.6182">Process deleting request</text><rect fill="#F1F1F1" height="33.9688" rx="12.5" ry="12.5" style="stroke:#181818;stroke-width:0.5;" width="168" x="486.125" y="532.417"/><text fill="#000000" font-family="sans-serif" font-size="12" lengthAdjust="spacing" textLength="148" x="496.125" y="553.5557">Display error notification</text><rect fill="#F1F1F1" height="61.9063" rx="12.5" ry="12.5" style="stroke:#181818;stroke-width:0.5;" width="129" x="674.125" y="586.3857"/><text fill="#000000" font-family="sans-serif" font-size="12" lengthAdjust="spacing" textLength="98" x="684.125" y="607.5244">Display success</text><text fill="#000000" font-family="sans-serif" font-size="12" lengthAdjust="spacing" textLength="65" x="684.125" y="621.4932">notification</text><text fill="#000000" font-family="sans-serif" font-size="12" lengthAdjust="spacing" textLength="109" x="684.125" y="635.4619">and list of parents</text><line style="stroke:#000000;stroke-width:1.5;" x1="442.25" x2="442.25" y1="12.7451" y2="740.292"/><rect fill="#F1F1F1" height="33.9688" rx="12.5" ry="12.5" style="stroke:#181818;stroke-width:0.5;" width="98" x="841.125" y="434.4482"/><text fill="#000000" font-family="sans-serif" font-size="12" lengthAdjust="spacing" textLength="78" x="851.125" y="455.5869">Validate data</text><polygon fill="#F1F1F1" points="890.125,488.417,890.125,488.417,902.125,500.417,890.125,512.417,890.125,512.417,878.125,500.417,890.125,488.417" style="stroke:#181818;stroke-width:0.5;"/><text fill="#000000" font-family="sans-serif" font-size="11" lengthAdjust="spacing" textLength="66" x="812.125" y="497.8228">Invalid data</text><text fill="#000000" font-family="sans-serif" font-size="11" lengthAdjust="spacing" textLength="57" x="902.125" y="497.8228">Valid data</text><rect fill="#F1F1F1" height="33.9688" rx="12.5" ry="12.5" style="stroke:#181818;stroke-width:0.5;" width="90" x="929.375" y="532.417"/><text fill="#000000" font-family="sans-serif" font-size="12" lengthAdjust="spacing" textLength="70" x="939.375" y="553.5557">Delete data</text><polygon fill="#F1F1F1" points="890.125,658.292,902.125,670.292,890.125,682.292,878.125,670.292,890.125,658.292" style="stroke:#181818;stroke-width:0.5;"/><ellipse cx="890.125" cy="713.292" fill="none" rx="11" ry="11" style="stroke:#222222;stroke-width:1.0;"/><ellipse cx="890.125" cy="713.292" fill="#222222" rx="6" ry="6" style="stroke:#222222;stroke-width:1.0;"/><line style="stroke:#000000;stroke-width:1.5;" x1="807.125" x2="807.125" y1="12.7451" y2="740.292"/><line style="stroke:#000000;stroke-width:1.5;" x1="1023.375" x2="1023.375" y1="12.7451" y2="740.292"/><line style="stroke:#181818;stroke-width:1.0;" x1="228.125" x2="228.125" y1="58.6982" y2="78.6982"/><polygon fill="#181818" points="224.125,68.6982,228.125,78.6982,232.125,68.6982,228.125,72.6982" style="stroke:#181818;stroke-width:1.0;"/><line style="stroke:#181818;stroke-width:1.0;" x1="228.125" x2="228.125" y1="126.6357" y2="146.6357"/><polygon fill="#181818" points="224.125,136.6357,228.125,146.6357,232.125,136.6357,228.125,140.6357" style="stroke:#181818;stroke-width:1.0;"/><line style="stroke:#181818;stroke-width:1.0;" x1="93" x2="93" y1="360.4795" y2="380.4795"/><polygon fill="#181818" points="89,370.4795,93,380.4795,97,370.4795,93,374.4795" style="stroke:#181818;stroke-width:1.0;"/><line style="stroke:#181818;stroke-width:1.0;" x1="519.25" x2="519.25" y1="262.5107" y2="282.5107"/><polygon fill="#181818" points="515.25,272.5107,519.25,282.5107,523.25,272.5107,519.25,276.5107" style="stroke:#181818;stroke-width:1.0;"/><line style="stroke:#181818;stroke-width:1.0;" x1="902.125" x2="974.375" y1="500.417" y2="500.417"/><line style="stroke:#181818;stroke-width:1.0;" x1="974.375" x2="974.375" y1="500.417" y2="532.417"/><polygon fill="#181818" points="970.375,522.417,974.375,532.417,978.375,522.417,974.375,526.417" style="stroke:#181818;stroke-width:1.0;"/><line style="stroke:#181818;stroke-width:1.0;" x1="890.125" x2="890.125" y1="468.417" y2="488.417"/><polygon fill="#181818" points="886.125,478.417,890.125,488.417,894.125,478.417,890.125,482.417" style="stroke:#181818;stroke-width:1.0;"/><line style="stroke:#181818;stroke-width:1.0;" x1="890.125" x2="890.125" y1="682.292" y2="702.292"/><polygon fill="#181818" points="886.125,692.292,890.125,702.292,894.125,692.292,890.125,696.292" style="stroke:#181818;stroke-width:1.0;"/><line style="stroke:#181818;stroke-width:1.0;" x1="228.125" x2="228.125" y1="194.5732" y2="199.5732"/><line style="stroke:#181818;stroke-width:1.0;" x1="228.125" x2="519.25" y1="199.5732" y2="199.5732"/><line style="stroke:#181818;stroke-width:1.0;" x1="519.25" x2="519.25" y1="199.5732" y2="214.5732"/><polygon fill="#181818" points="515.25,204.5732,519.25,214.5732,523.25,204.5732,519.25,208.5732" style="stroke:#181818;stroke-width:1.0;"/><line style="stroke:#181818;stroke-width:1.0;" x1="363.25" x2="363.25" y1="360.4795" y2="365.4795"/><line style="stroke:#181818;stroke-width:1.0;" x1="363.25" x2="654.375" y1="365.4795" y2="365.4795"/><line style="stroke:#181818;stroke-width:1.0;" x1="654.375" x2="654.375" y1="365.4795" y2="380.4795"/><polygon fill="#181818" points="650.375,370.4795,654.375,380.4795,658.375,370.4795,654.375,374.4795" style="stroke:#181818;stroke-width:1.0;"/><line style="stroke:#181818;stroke-width:1.0;" x1="654.375" x2="654.375" y1="414.4482" y2="419.4482"/><line style="stroke:#181818;stroke-width:1.0;" x1="654.375" x2="890.125" y1="419.4482" y2="419.4482"/><line style="stroke:#181818;stroke-width:1.0;" x1="890.125" x2="890.125" y1="419.4482" y2="434.4482"/><polygon fill="#181818" points="886.125,424.4482,890.125,434.4482,894.125,424.4482,890.125,428.4482" style="stroke:#181818;stroke-width:1.0;"/><line style="stroke:#181818;stroke-width:1.0;" x1="974.375" x2="974.375" y1="566.3857" y2="571.3857"/><line style="stroke:#181818;stroke-width:1.0;" x1="974.375" x2="738.625" y1="571.3857" y2="571.3857"/><line style="stroke:#181818;stroke-width:1.0;" x1="738.625" x2="738.625" y1="571.3857" y2="586.3857"/><polygon fill="#181818" points="734.625,576.3857,738.625,586.3857,742.625,576.3857,738.625,580.3857" style="stroke:#181818;stroke-width:1.0;"/><line style="stroke:#181818;stroke-width:1.0;" x1="878.125" x2="570.125" y1="500.417" y2="500.417"/><line style="stroke:#181818;stroke-width:1.0;" x1="570.125" x2="570.125" y1="500.417" y2="532.417"/><polygon fill="#181818" points="566.125,522.417,570.125,532.417,574.125,522.417,570.125,526.417" style="stroke:#181818;stroke-width:1.0;"/><line style="stroke:#181818;stroke-width:1.0;" x1="570.125" x2="570.125" y1="566.3857" y2="670.292"/><line style="stroke:#181818;stroke-width:1.0;" x1="570.125" x2="878.125" y1="670.292" y2="670.292"/><polygon fill="#181818" points="868.125,666.292,878.125,670.292,868.125,674.292,872.125,670.292" style="stroke:#181818;stroke-width:1.0;"/><line style="stroke:#181818;stroke-width:1.0;" x1="738.625" x2="738.625" y1="648.292" y2="652.292"/><line style="stroke:#181818;stroke-width:1.0;" x1="738.625" x2="920.125" y1="652.292" y2="652.292"/><line style="stroke:#181818;stroke-width:1.0;" x1="920.125" x2="920.125" y1="652.292" y2="670.292"/><line style="stroke:#181818;stroke-width:1.0;" x1="920.125" x2="902.125" y1="670.292" y2="670.292"/><polygon fill="#181818" points="912.125,666.292,902.125,670.292,912.125,674.292,908.125,670.292" style="stroke:#181818;stroke-width:1.0;"/><line style="stroke:#181818;stroke-width:1.0;" x1="507.25" x2="93" y1="294.5107" y2="294.5107"/><line style="stroke:#181818;stroke-width:1.0;" x1="93" x2="93" y1="294.5107" y2="326.5107"/><polygon fill="#181818" points="89,316.5107,93,326.5107,97,316.5107,93,320.5107" style="stroke:#181818;stroke-width:1.0;"/><line style="stroke:#181818;stroke-width:1.0;" x1="531.25" x2="543.25" y1="294.5107" y2="294.5107"/><line style="stroke:#181818;stroke-width:1.0;" x1="543.25" x2="543.25" y1="294.5107" y2="312.5107"/><line style="stroke:#181818;stroke-width:1.0;" x1="543.25" x2="363.25" y1="312.5107" y2="312.5107"/><line style="stroke:#181818;stroke-width:1.0;" x1="363.25" x2="363.25" y1="312.5107" y2="326.5107"/><polygon fill="#181818" points="359.25,316.5107,363.25,326.5107,367.25,316.5107,363.25,320.5107" style="stroke:#181818;stroke-width:1.0;"/><text fill="#000000" font-family="sans-serif" font-size="18" lengthAdjust="spacing" textLength="58" x="199.625" y="29.4531">Admin</text><text fill="#000000" font-family="sans-serif" font-size="18" lengthAdjust="spacing" textLength="69" x="590.1875" y="29.4531">System</text><text fill="#000000" font-family="sans-serif" font-size="18" lengthAdjust="spacing" textLength="88" x="871.25" y="29.4531">Database</text><!--SRC=[VL7BZi8m3BpdAwoUu1VQ4u8zx0q9YLCl9dN1sjHX4nU1r8_VDEq2-n0vH94z7izCXbNJiGmcAWOrvTkLRAy4nSegNrXljUm8Wpt15WE95fKfT-J8AfnpeHOXQY8qgQWinyeCkrjKwWPJRZYU7Tx0UcavTAZifPQEOiGZ7VorWdmCjx1OWfv8OB56iUIMPcmCixRnNQuTsmyefdu1XrxLIvLx98qX5obDJvjUZ4-0d_DtnHcv3TucYNT74EYpfwWpTeEA1umqe_VekC6KMBfmWZpRUPVB2CZTITMVXPdcEoeAmGSGhzoopO7D5hEz_NzSTq4foGVVAFvPrEkriRUZv_IPJvjhGMd0SLJmxVpTyS6MKkVsToPH_VaB]--></g></svg>