<?xml version="1.0" encoding="us-ascii" standalone="no"?><svg xmlns="http://www.w3.org/2000/svg" xmlns:xlink="http://www.w3.org/1999/xlink" contentStyleType="text/css" height="500px" preserveAspectRatio="none" style="width:495px;height:500px;background:#FFFFFF;" version="1.1" viewBox="0 0 495 500" width="495px" zoomAndPan="magnify"><defs/><g><rect fill="none" height="20.9531" style="stroke:none;stroke-width:1.0;" width="462" x="15" y="12.7451"/><rect fill="#F1F1F1" height="47.9375" rx="12.5" ry="12.5" style="stroke:#181818;stroke-width:0.5;" width="138" x="78" y="146.6357"/><text fill="#000000" font-family="sans-serif" font-size="12" lengthAdjust="spacing" textLength="118" x="88" y="167.7744">Select child want to</text><text fill="#000000" font-family="sans-serif" font-size="12" lengthAdjust="spacing" textLength="105" x="88" y="181.7432">view heath status</text><rect fill="#F1F1F1" height="33.9688" rx="12.5" ry="12.5" style="stroke:#181818;stroke-width:0.5;" width="117" x="88.5" y="214.5732"/><text fill="#000000" font-family="sans-serif" font-size="12" lengthAdjust="spacing" textLength="97" x="98.5" y="235.7119">Choose function</text><polygon fill="#F1F1F1" points="53.5,268.542,53.5,268.542,65.5,280.542,53.5,292.542,53.5,292.542,41.5,280.542,53.5,268.542" style="stroke:#181818;stroke-width:0.5;"/><text fill="#000000" font-family="sans-serif" font-size="11" lengthAdjust="spacing" textLength="41" x="57.5" y="302.7524">Monitor</text><text fill="#000000" font-family="sans-serif" font-size="11" lengthAdjust="spacing" textLength="28" x="57.5" y="315.5571">Child</text><text fill="#000000" font-family="sans-serif" font-size="11" lengthAdjust="spacing" textLength="39" x="57.5" y="328.3618">Events</text><rect fill="#F1F1F1" height="75.875" rx="12.5" ry="12.5" style="stroke:#181818;stroke-width:0.5;" width="65" x="21" y="350.9561"/><text fill="#000000" font-family="sans-serif" font-size="12" lengthAdjust="spacing" textLength="43" x="31" y="372.0947">Activity</text><text fill="#000000" font-family="sans-serif" font-size="12" lengthAdjust="spacing" textLength="45" x="31" y="386.0635">Monitor</text><text fill="#000000" font-family="sans-serif" font-size="12" lengthAdjust="spacing" textLength="29" x="31" y="400.0322">Child</text><text fill="#000000" font-family="sans-serif" font-size="12" lengthAdjust="spacing" textLength="40" x="31" y="414.001">Events</text><polygon fill="#F1F1F1" points="147,268.542,147,268.542,159,280.542,147,292.542,147,292.542,135,280.542,147,268.542" style="stroke:#181818;stroke-width:0.5;"/><text fill="#000000" font-family="sans-serif" font-size="11" lengthAdjust="spacing" textLength="41" x="151" y="302.7524">Monitor</text><text fill="#000000" font-family="sans-serif" font-size="11" lengthAdjust="spacing" textLength="27" x="151" y="315.5571">Meal</text><text fill="#000000" font-family="sans-serif" font-size="11" lengthAdjust="spacing" textLength="35" x="151" y="328.3618">Times</text><text fill="#000000" font-family="sans-serif" font-size="11" lengthAdjust="spacing" textLength="118" x="159" y="277.9478">Monitor Sleep Times</text><rect fill="#F1F1F1" height="75.875" rx="12.5" ry="12.5" style="stroke:#181818;stroke-width:0.5;" width="65" x="114.5" y="350.9561"/><text fill="#000000" font-family="sans-serif" font-size="12" lengthAdjust="spacing" textLength="43" x="124.5" y="372.0947">Activity</text><text fill="#000000" font-family="sans-serif" font-size="12" lengthAdjust="spacing" textLength="45" x="124.5" y="386.0635">Monitor</text><text fill="#000000" font-family="sans-serif" font-size="12" lengthAdjust="spacing" textLength="28" x="124.5" y="400.0322">Meal</text><text fill="#000000" font-family="sans-serif" font-size="12" lengthAdjust="spacing" textLength="36" x="124.5" y="414.001">Times</text><rect fill="#F1F1F1" height="75.875" rx="12.5" ry="12.5" style="stroke:#181818;stroke-width:0.5;" width="65" x="208" y="334.749"/><text fill="#000000" font-family="sans-serif" font-size="12" lengthAdjust="spacing" textLength="43" x="218" y="355.8877">Activity</text><text fill="#000000" font-family="sans-serif" font-size="12" lengthAdjust="spacing" textLength="45" x="218" y="369.8564">Monitor</text><text fill="#000000" font-family="sans-serif" font-size="12" lengthAdjust="spacing" textLength="35" x="218" y="383.8252">Sleep</text><text fill="#000000" font-family="sans-serif" font-size="12" lengthAdjust="spacing" textLength="36" x="218" y="397.7939">Times</text><line style="stroke:#000000;stroke-width:1.5;" x1="15" x2="15" y1="12.7451" y2="488.8311"/><ellipse cx="330.5" cy="48.6982" fill="#222222" rx="10" ry="10" style="stroke:#222222;stroke-width:1.0;"/><rect fill="#F1F1F1" height="47.9375" rx="12.5" ry="12.5" style="stroke:#181818;stroke-width:0.5;" width="85" x="288" y="78.6982"/><text fill="#000000" font-family="sans-serif" font-size="12" lengthAdjust="spacing" textLength="65" x="298" y="99.8369">Display list</text><text fill="#000000" font-family="sans-serif" font-size="12" lengthAdjust="spacing" textLength="64" x="298" y="113.8057">of children</text><ellipse cx="330.5" cy="477.8311" fill="none" rx="11" ry="11" style="stroke:#222222;stroke-width:1.0;"/><ellipse cx="330.5" cy="477.8311" fill="#222222" rx="6" ry="6" style="stroke:#222222;stroke-width:1.0;"/><line style="stroke:#000000;stroke-width:1.5;" x1="282" x2="282" y1="12.7451" y2="488.8311"/><line style="stroke:#000000;stroke-width:1.5;" x1="377" x2="377" y1="12.7451" y2="488.8311"/><line style="stroke:#000000;stroke-width:1.5;" x1="475" x2="475" y1="12.7451" y2="488.8311"/><line style="stroke:#181818;stroke-width:1.0;" x1="147" x2="147" y1="194.5732" y2="214.5732"/><polygon fill="#181818" points="143,204.5732,147,214.5732,151,204.5732,147,208.5732" style="stroke:#181818;stroke-width:1.0;"/><line style="stroke:#181818;stroke-width:1.0;" x1="53.5" x2="53.5" y1="292.542" y2="350.9561"/><polygon fill="#181818" points="49.5,340.9561,53.5,350.9561,57.5,340.9561,53.5,344.9561" style="stroke:#181818;stroke-width:1.0;"/><line style="stroke:#181818;stroke-width:1.0;" x1="53.5" x2="53.5" y1="426.8311" y2="446.8311"/><polygon fill="#181818" points="49.5,436.8311,53.5,446.8311,57.5,436.8311,53.5,440.8311" style="stroke:#181818;stroke-width:1.0;"/><line style="stroke:#181818;stroke-width:1.0;" x1="147" x2="147" y1="292.542" y2="350.9561"/><polygon fill="#181818" points="143,340.9561,147,350.9561,151,340.9561,147,344.9561" style="stroke:#181818;stroke-width:1.0;"/><line style="stroke:#181818;stroke-width:1.0;" x1="147" x2="147" y1="426.8311" y2="451.8311"/><line style="stroke:#181818;stroke-width:1.0;" x1="147" x2="330.5" y1="451.8311" y2="451.8311"/><line style="stroke:#181818;stroke-width:1.0;" x1="330.5" x2="330.5" y1="451.8311" y2="466.8311"/><polygon fill="#181818" points="326.5,456.8311,330.5,466.8311,334.5,456.8311,330.5,460.8311" style="stroke:#181818;stroke-width:1.0;"/><line style="stroke:#181818;stroke-width:1.0;" x1="65.5" x2="135" y1="280.542" y2="280.542"/><polygon fill="#181818" points="125,276.542,135,280.542,125,284.542,129,280.542" style="stroke:#181818;stroke-width:1.0;"/><line style="stroke:#181818;stroke-width:1.0;" x1="147" x2="147" y1="248.542" y2="253.542"/><line style="stroke:#181818;stroke-width:1.0;" x1="147" x2="53.5" y1="253.542" y2="253.542"/><line style="stroke:#181818;stroke-width:1.0;" x1="53.5" x2="53.5" y1="253.542" y2="268.542"/><polygon fill="#181818" points="49.5,258.542,53.5,268.542,57.5,258.542,53.5,262.542" style="stroke:#181818;stroke-width:1.0;"/><line style="stroke:#181818;stroke-width:1.0;" x1="159" x2="240.5" y1="280.542" y2="280.542"/><line style="stroke:#181818;stroke-width:1.0;" x1="240.5" x2="240.5" y1="280.542" y2="334.749"/><polygon fill="#181818" points="236.5,324.749,240.5,334.749,244.5,324.749,240.5,328.749" style="stroke:#181818;stroke-width:1.0;"/><line style="stroke:#181818;stroke-width:1.0;" x1="240.5" x2="240.5" y1="410.624" y2="446.8311"/><polygon fill="#181818" points="236.5,436.8311,240.5,446.8311,244.5,436.8311,240.5,440.8311" style="stroke:#181818;stroke-width:1.0;"/><line style="stroke:#181818;stroke-width:1.0;" x1="53.5" x2="240.5" y1="446.8311" y2="446.8311"/><line style="stroke:#181818;stroke-width:1.0;" x1="330.5" x2="330.5" y1="58.6982" y2="78.6982"/><polygon fill="#181818" points="326.5,68.6982,330.5,78.6982,334.5,68.6982,330.5,72.6982" style="stroke:#181818;stroke-width:1.0;"/><line style="stroke:#181818;stroke-width:1.0;" x1="330.5" x2="330.5" y1="126.6357" y2="131.6357"/><line style="stroke:#181818;stroke-width:1.0;" x1="330.5" x2="147" y1="131.6357" y2="131.6357"/><line style="stroke:#181818;stroke-width:1.0;" x1="147" x2="147" y1="131.6357" y2="146.6357"/><polygon fill="#181818" points="143,136.6357,147,146.6357,151,136.6357,147,140.6357" style="stroke:#181818;stroke-width:1.0;"/><text fill="#000000" font-family="sans-serif" font-size="18" lengthAdjust="spacing" textLength="142" x="77.5" y="29.4531">Parent / Parent</text><text fill="#000000" font-family="sans-serif" font-size="18" lengthAdjust="spacing" textLength="69" x="295" y="29.4531">System</text><text fill="#000000" font-family="sans-serif" font-size="18" lengthAdjust="spacing" textLength="88" x="382" y="29.4531">Database</text><!--SRC=[VT0z2y90383X_Nv5HZkvjvEeeo3KyPPOKovmvaeJAuN-UCyFfE375d9ldk6cFVOa1aju3fERwb6DpddOeE4HbMOxDUpDbHlMBk88aTMyf1QQmF6KxoitVO1bJP4QUpPmnVneoSl0T8L0Q06oQXUjNBaEAIb1Uv76E6MDMrWKO8445hiaRAdtihv3NhP3vhLm0EKgvmFRwELxL86ZgFHLsn56BmS-anRm0virB-eDG1s9ElX__sXcW9oudNzgwcu0]--></g></svg>