<?xml version="1.0" encoding="us-ascii" standalone="no"?><svg xmlns="http://www.w3.org/2000/svg" xmlns:xlink="http://www.w3.org/1999/xlink" contentStyleType="text/css" height="559px" preserveAspectRatio="none" style="width:734px;height:559px;background:#FFFFFF;" version="1.1" viewBox="0 0 734 559" width="734px" zoomAndPan="magnify"><defs/><g><rect fill="none" height="20.9531" style="stroke:none;stroke-width:1.0;" width="701" x="15" y="12.7451"/><rect fill="#F1F1F1" height="61.9063" rx="12.5" ry="12.5" style="stroke:#181818;stroke-width:0.5;" width="102" x="21" y="190.6357"/><text fill="#000000" font-family="sans-serif" font-size="12" lengthAdjust="spacing" textLength="70" x="31" y="211.7744">Click on the</text><text fill="#000000" font-family="sans-serif" font-size="12" lengthAdjust="spacing" textLength="82" x="31" y="225.7432">event want to</text><text fill="#000000" font-family="sans-serif" font-size="12" lengthAdjust="spacing" textLength="65" x="31" y="239.7119">view detail</text><rect fill="#F1F1F1" height="47.9375" rx="12.5" ry="12.5" style="stroke:#181818;stroke-width:0.5;" width="143" x="133" y="190.6357"/><text fill="#000000" font-family="sans-serif" font-size="12" lengthAdjust="spacing" textLength="123" x="143" y="211.7744">Click "Export" button</text><text fill="#000000" font-family="sans-serif" font-size="12" lengthAdjust="spacing" textLength="104" x="143" y="225.7432">to export PDF file</text><line style="stroke:#000000;stroke-width:1.5;" x1="15" x2="15" y1="12.7451" y2="547.3545"/><ellipse cx="435" cy="48.6982" fill="#222222" rx="10" ry="10" style="stroke:#222222;stroke-width:1.0;"/><rect fill="#F1F1F1" height="47.9375" rx="12.5" ry="12.5" style="stroke:#181818;stroke-width:0.5;" width="113" x="378.5" y="78.6982"/><text fill="#000000" font-family="sans-serif" font-size="12" lengthAdjust="spacing" textLength="76" x="388.5" y="99.8369">Display child</text><text fill="#000000" font-family="sans-serif" font-size="12" lengthAdjust="spacing" textLength="93" x="388.5" y="113.8057">events as chart</text><polygon fill="#F1F1F1" points="435,146.6357,435,146.6357,447,158.6357,435,170.6357,435,170.6357,423,158.6357,435,146.6357" style="stroke:#181818;stroke-width:0.5;"/><text fill="#000000" font-family="sans-serif" font-size="11" lengthAdjust="spacing" textLength="126" x="297" y="156.0415">View Details Of Event</text><text fill="#000000" font-family="sans-serif" font-size="11" lengthAdjust="spacing" textLength="61" x="447" y="156.0415">Export PDF</text><rect fill="#F1F1F1" height="47.9375" rx="12.5" ry="12.5" style="stroke:#181818;stroke-width:0.5;" width="125" x="286" y="286.5107"/><text fill="#000000" font-family="sans-serif" font-size="12" lengthAdjust="spacing" textLength="78" x="296" y="307.6494">Get selected</text><text fill="#000000" font-family="sans-serif" font-size="12" lengthAdjust="spacing" textLength="105" x="296" y="321.6182">event information</text><rect fill="#F1F1F1" height="47.9375" rx="12.5" ry="12.5" style="stroke:#181818;stroke-width:0.5;" width="125" x="286" y="423.417"/><text fill="#000000" font-family="sans-serif" font-size="12" lengthAdjust="spacing" textLength="101" x="296" y="444.5557">Display selected</text><text fill="#000000" font-family="sans-serif" font-size="12" lengthAdjust="spacing" textLength="105" x="296" y="458.5244">event information</text><rect fill="#F1F1F1" height="33.9688" rx="12.5" ry="12.5" style="stroke:#181818;stroke-width:0.5;" width="181" x="431" y="272.542"/><text fill="#000000" font-family="sans-serif" font-size="12" lengthAdjust="spacing" textLength="161" x="441" y="293.6807">Process exporting request</text><rect fill="#F1F1F1" height="33.9688" rx="12.5" ry="12.5" style="stroke:#181818;stroke-width:0.5;" width="176" x="433.5" y="341.5107"/><text fill="#000000" font-family="sans-serif" font-size="12" lengthAdjust="spacing" textLength="156" x="443.5" y="362.6494">Display export successful</text><polygon fill="#F1F1F1" points="435,481.3545,447,493.3545,435,505.3545,423,493.3545,435,481.3545" style="stroke:#181818;stroke-width:0.5;"/><ellipse cx="435" cy="536.3545" fill="none" rx="11" ry="11" style="stroke:#222222;stroke-width:1.0;"/><ellipse cx="435" cy="536.3545" fill="#222222" rx="6" ry="6" style="stroke:#222222;stroke-width:1.0;"/><line style="stroke:#000000;stroke-width:1.5;" x1="280" x2="280" y1="12.7451" y2="547.3545"/><rect fill="#F1F1F1" height="33.9688" rx="12.5" ry="12.5" style="stroke:#181818;stroke-width:0.5;" width="87" x="622.5" y="369.4482"/><text fill="#000000" font-family="sans-serif" font-size="12" lengthAdjust="spacing" textLength="67" x="632.5" y="390.5869">Query data</text><line style="stroke:#000000;stroke-width:1.5;" x1="616" x2="616" y1="12.7451" y2="547.3545"/><line style="stroke:#000000;stroke-width:1.5;" x1="714" x2="714" y1="12.7451" y2="547.3545"/><line style="stroke:#181818;stroke-width:1.0;" x1="435" x2="435" y1="58.6982" y2="78.6982"/><polygon fill="#181818" points="431,68.6982,435,78.6982,439,68.6982,435,72.6982" style="stroke:#181818;stroke-width:1.0;"/><line style="stroke:#181818;stroke-width:1.0;" x1="521.5" x2="521.5" y1="306.5107" y2="341.5107"/><polygon fill="#181818" points="517.5,331.5107,521.5,341.5107,525.5,331.5107,521.5,335.5107" style="stroke:#181818;stroke-width:1.0;"/><line style="stroke:#181818;stroke-width:1.0;" x1="348.5" x2="348.5" y1="471.3545" y2="493.3545"/><line style="stroke:#181818;stroke-width:1.0;" x1="348.5" x2="423" y1="493.3545" y2="493.3545"/><polygon fill="#181818" points="413,489.3545,423,493.3545,413,497.3545,417,493.3545" style="stroke:#181818;stroke-width:1.0;"/><line style="stroke:#181818;stroke-width:1.0;" x1="521.5" x2="521.5" y1="375.4795" y2="493.3545"/><line style="stroke:#181818;stroke-width:1.0;" x1="521.5" x2="447" y1="493.3545" y2="493.3545"/><polygon fill="#181818" points="457,489.3545,447,493.3545,457,497.3545,453,493.3545" style="stroke:#181818;stroke-width:1.0;"/><line style="stroke:#181818;stroke-width:1.0;" x1="435" x2="435" y1="126.6357" y2="146.6357"/><polygon fill="#181818" points="431,136.6357,435,146.6357,439,136.6357,435,140.6357" style="stroke:#181818;stroke-width:1.0;"/><line style="stroke:#181818;stroke-width:1.0;" x1="435" x2="435" y1="505.3545" y2="525.3545"/><polygon fill="#181818" points="431,515.3545,435,525.3545,439,515.3545,435,519.3545" style="stroke:#181818;stroke-width:1.0;"/><line style="stroke:#181818;stroke-width:1.0;" x1="72" x2="72" y1="252.542" y2="269.0107"/><line style="stroke:#181818;stroke-width:1.0;" x1="72" x2="348.5" y1="269.0107" y2="269.0107"/><line style="stroke:#181818;stroke-width:1.0;" x1="348.5" x2="348.5" y1="269.0107" y2="286.5107"/><polygon fill="#181818" points="344.5,276.5107,348.5,286.5107,352.5,276.5107,348.5,280.5107" style="stroke:#181818;stroke-width:1.0;"/><line style="stroke:#181818;stroke-width:1.0;" x1="348.5" x2="348.5" y1="334.4482" y2="351.9482"/><line style="stroke:#181818;stroke-width:1.0;" x1="348.5" x2="666" y1="351.9482" y2="351.9482"/><line style="stroke:#181818;stroke-width:1.0;" x1="666" x2="666" y1="351.9482" y2="369.4482"/><polygon fill="#181818" points="662,359.4482,666,369.4482,670,359.4482,666,363.4482" style="stroke:#181818;stroke-width:1.0;"/><line style="stroke:#181818;stroke-width:1.0;" x1="666" x2="666" y1="403.417" y2="408.417"/><line style="stroke:#181818;stroke-width:1.0;" x1="666" x2="348.5" y1="408.417" y2="408.417"/><line style="stroke:#181818;stroke-width:1.0;" x1="348.5" x2="348.5" y1="408.417" y2="423.417"/><polygon fill="#181818" points="344.5,413.417,348.5,423.417,352.5,413.417,348.5,417.417" style="stroke:#181818;stroke-width:1.0;"/><line style="stroke:#181818;stroke-width:1.0;" x1="204.5" x2="204.5" y1="238.5732" y2="256.0732"/><line style="stroke:#181818;stroke-width:1.0;" x1="204.5" x2="521.5" y1="256.0732" y2="256.0732"/><line style="stroke:#181818;stroke-width:1.0;" x1="521.5" x2="521.5" y1="256.0732" y2="272.542"/><polygon fill="#181818" points="517.5,262.542,521.5,272.542,525.5,262.542,521.5,266.542" style="stroke:#181818;stroke-width:1.0;"/><line style="stroke:#181818;stroke-width:1.0;" x1="423" x2="72" y1="158.6357" y2="158.6357"/><line style="stroke:#181818;stroke-width:1.0;" x1="72" x2="72" y1="158.6357" y2="190.6357"/><polygon fill="#181818" points="68,180.6357,72,190.6357,76,180.6357,72,184.6357" style="stroke:#181818;stroke-width:1.0;"/><line style="stroke:#181818;stroke-width:1.0;" x1="447" x2="459" y1="158.6357" y2="158.6357"/><line style="stroke:#181818;stroke-width:1.0;" x1="459" x2="459" y1="158.6357" y2="176.6357"/><line style="stroke:#181818;stroke-width:1.0;" x1="459" x2="204.5" y1="176.6357" y2="176.6357"/><line style="stroke:#181818;stroke-width:1.0;" x1="204.5" x2="204.5" y1="176.6357" y2="190.6357"/><polygon fill="#181818" points="200.5,180.6357,204.5,190.6357,208.5,180.6357,204.5,184.6357" style="stroke:#181818;stroke-width:1.0;"/><text fill="#000000" font-family="sans-serif" font-size="18" lengthAdjust="spacing" textLength="143" x="76" y="29.4531">Parent / Doctor</text><text fill="#000000" font-family="sans-serif" font-size="18" lengthAdjust="spacing" textLength="69" x="413.5" y="29.4531">System</text><text fill="#000000" font-family="sans-serif" font-size="18" lengthAdjust="spacing" textLength="88" x="621" y="29.4531">Database</text><!--SRC=[ZP4nJyCm48Nt_8fJftHYRqPI64c5n9J5TSxqXEiBlajBfFnud3I18Yg41yjwVlVTEtkeJCIWS0SbM-KuPCDpBuh7T2YDchqHlD94JTHiKvAqtlHW3-IREk0f8GIC927T5navoDUW1moGln2UeKGrv0MU76n7ypg3j8PVpKTrS-_9lW674J33uMpIfbo7quXh9bnnWIpPfjf7L13qQ1MNO431SJmQ9GvpoVTaKz6kmzX3ayHRo6NOFx7e1I7VVhGS5QhouHy3hYxk5UmxLGvrK0Ry0e0ZZxVYL94jYinM2gyGyRr3qU9dt1abdHtjhalFXQ4XT_sPt7u2]--></g></svg>