<?xml version="1.0" encoding="us-ascii" standalone="no"?><svg xmlns="http://www.w3.org/2000/svg" xmlns:xlink="http://www.w3.org/1999/xlink" contentStyleType="text/css" height="559px" preserveAspectRatio="none" style="width:794px;height:559px;background:#FFFFFF;" version="1.1" viewBox="0 0 794 559" width="794px" zoomAndPan="magnify"><defs/><g><rect fill="none" height="20.9531" style="stroke:none;stroke-width:1.0;" width="761" x="15" y="12.7451"/><rect fill="#F1F1F1" height="61.9063" rx="12.5" ry="12.5" style="stroke:#181818;stroke-width:0.5;" width="132" x="21" y="190.6357"/><text fill="#000000" font-family="sans-serif" font-size="12" lengthAdjust="spacing" textLength="70" x="31" y="211.7744">Click on the</text><text fill="#000000" font-family="sans-serif" font-size="12" lengthAdjust="spacing" textLength="112" x="31" y="225.7432">sleep time want to</text><text fill="#000000" font-family="sans-serif" font-size="12" lengthAdjust="spacing" textLength="65" x="31" y="239.7119">view detail</text><rect fill="#F1F1F1" height="47.9375" rx="12.5" ry="12.5" style="stroke:#181818;stroke-width:0.5;" width="143" x="163" y="190.6357"/><text fill="#000000" font-family="sans-serif" font-size="12" lengthAdjust="spacing" textLength="123" x="173" y="211.7744">Click "Export" button</text><text fill="#000000" font-family="sans-serif" font-size="12" lengthAdjust="spacing" textLength="104" x="173" y="225.7432">to export PDF file</text><line style="stroke:#000000;stroke-width:1.5;" x1="15" x2="15" y1="12.7451" y2="547.3545"/><ellipse cx="487.5" cy="48.6982" fill="#222222" rx="10" ry="10" style="stroke:#222222;stroke-width:1.0;"/><rect fill="#F1F1F1" height="47.9375" rx="12.5" ry="12.5" style="stroke:#181818;stroke-width:0.5;" width="143" x="416" y="78.6982"/><text fill="#000000" font-family="sans-serif" font-size="12" lengthAdjust="spacing" textLength="76" x="426" y="99.8369">Display child</text><text fill="#000000" font-family="sans-serif" font-size="12" lengthAdjust="spacing" textLength="123" x="426" y="113.8057">sleep times as chart</text><polygon fill="#F1F1F1" points="487.5,146.6357,487.5,146.6357,499.5,158.6357,487.5,170.6357,487.5,170.6357,475.5,158.6357,487.5,146.6357" style="stroke:#181818;stroke-width:0.5;"/><text fill="#000000" font-family="sans-serif" font-size="11" lengthAdjust="spacing" textLength="126" x="349.5" y="156.0415">View Details Of Event</text><text fill="#000000" font-family="sans-serif" font-size="11" lengthAdjust="spacing" textLength="61" x="499.5" y="156.0415">Export PDF</text><rect fill="#F1F1F1" height="47.9375" rx="12.5" ry="12.5" style="stroke:#181818;stroke-width:0.5;" width="155" x="316" y="286.5107"/><text fill="#000000" font-family="sans-serif" font-size="12" lengthAdjust="spacing" textLength="78" x="326" y="307.6494">Get selected</text><text fill="#000000" font-family="sans-serif" font-size="12" lengthAdjust="spacing" textLength="135" x="326" y="321.6182">sleep time information</text><rect fill="#F1F1F1" height="47.9375" rx="12.5" ry="12.5" style="stroke:#181818;stroke-width:0.5;" width="155" x="316" y="423.417"/><text fill="#000000" font-family="sans-serif" font-size="12" lengthAdjust="spacing" textLength="101" x="326" y="444.5557">Display selected</text><text fill="#000000" font-family="sans-serif" font-size="12" lengthAdjust="spacing" textLength="135" x="326" y="458.5244">sleep time information</text><rect fill="#F1F1F1" height="33.9688" rx="12.5" ry="12.5" style="stroke:#181818;stroke-width:0.5;" width="181" x="491" y="272.542"/><text fill="#000000" font-family="sans-serif" font-size="12" lengthAdjust="spacing" textLength="161" x="501" y="293.6807">Process exporting request</text><rect fill="#F1F1F1" height="33.9688" rx="12.5" ry="12.5" style="stroke:#181818;stroke-width:0.5;" width="176" x="493.5" y="341.5107"/><text fill="#000000" font-family="sans-serif" font-size="12" lengthAdjust="spacing" textLength="156" x="503.5" y="362.6494">Display export successful</text><polygon fill="#F1F1F1" points="487.5,481.3545,499.5,493.3545,487.5,505.3545,475.5,493.3545,487.5,481.3545" style="stroke:#181818;stroke-width:0.5;"/><ellipse cx="487.5" cy="536.3545" fill="none" rx="11" ry="11" style="stroke:#222222;stroke-width:1.0;"/><ellipse cx="487.5" cy="536.3545" fill="#222222" rx="6" ry="6" style="stroke:#222222;stroke-width:1.0;"/><line style="stroke:#000000;stroke-width:1.5;" x1="310" x2="310" y1="12.7451" y2="547.3545"/><rect fill="#F1F1F1" height="33.9688" rx="12.5" ry="12.5" style="stroke:#181818;stroke-width:0.5;" width="87" x="682.5" y="369.4482"/><text fill="#000000" font-family="sans-serif" font-size="12" lengthAdjust="spacing" textLength="67" x="692.5" y="390.5869">Query data</text><line style="stroke:#000000;stroke-width:1.5;" x1="676" x2="676" y1="12.7451" y2="547.3545"/><line style="stroke:#000000;stroke-width:1.5;" x1="774" x2="774" y1="12.7451" y2="547.3545"/><line style="stroke:#181818;stroke-width:1.0;" x1="487.5" x2="487.5" y1="58.6982" y2="78.6982"/><polygon fill="#181818" points="483.5,68.6982,487.5,78.6982,491.5,68.6982,487.5,72.6982" style="stroke:#181818;stroke-width:1.0;"/><line style="stroke:#181818;stroke-width:1.0;" x1="581.5" x2="581.5" y1="306.5107" y2="341.5107"/><polygon fill="#181818" points="577.5,331.5107,581.5,341.5107,585.5,331.5107,581.5,335.5107" style="stroke:#181818;stroke-width:1.0;"/><line style="stroke:#181818;stroke-width:1.0;" x1="393.5" x2="393.5" y1="471.3545" y2="493.3545"/><line style="stroke:#181818;stroke-width:1.0;" x1="393.5" x2="475.5" y1="493.3545" y2="493.3545"/><polygon fill="#181818" points="465.5,489.3545,475.5,493.3545,465.5,497.3545,469.5,493.3545" style="stroke:#181818;stroke-width:1.0;"/><line style="stroke:#181818;stroke-width:1.0;" x1="581.5" x2="581.5" y1="375.4795" y2="493.3545"/><line style="stroke:#181818;stroke-width:1.0;" x1="581.5" x2="499.5" y1="493.3545" y2="493.3545"/><polygon fill="#181818" points="509.5,489.3545,499.5,493.3545,509.5,497.3545,505.5,493.3545" style="stroke:#181818;stroke-width:1.0;"/><line style="stroke:#181818;stroke-width:1.0;" x1="487.5" x2="487.5" y1="126.6357" y2="146.6357"/><polygon fill="#181818" points="483.5,136.6357,487.5,146.6357,491.5,136.6357,487.5,140.6357" style="stroke:#181818;stroke-width:1.0;"/><line style="stroke:#181818;stroke-width:1.0;" x1="487.5" x2="487.5" y1="505.3545" y2="525.3545"/><polygon fill="#181818" points="483.5,515.3545,487.5,525.3545,491.5,515.3545,487.5,519.3545" style="stroke:#181818;stroke-width:1.0;"/><line style="stroke:#181818;stroke-width:1.0;" x1="87" x2="87" y1="252.542" y2="269.0107"/><line style="stroke:#181818;stroke-width:1.0;" x1="87" x2="393.5" y1="269.0107" y2="269.0107"/><line style="stroke:#181818;stroke-width:1.0;" x1="393.5" x2="393.5" y1="269.0107" y2="286.5107"/><polygon fill="#181818" points="389.5,276.5107,393.5,286.5107,397.5,276.5107,393.5,280.5107" style="stroke:#181818;stroke-width:1.0;"/><line style="stroke:#181818;stroke-width:1.0;" x1="393.5" x2="393.5" y1="334.4482" y2="351.9482"/><line style="stroke:#181818;stroke-width:1.0;" x1="393.5" x2="726" y1="351.9482" y2="351.9482"/><line style="stroke:#181818;stroke-width:1.0;" x1="726" x2="726" y1="351.9482" y2="369.4482"/><polygon fill="#181818" points="722,359.4482,726,369.4482,730,359.4482,726,363.4482" style="stroke:#181818;stroke-width:1.0;"/><line style="stroke:#181818;stroke-width:1.0;" x1="726" x2="726" y1="403.417" y2="408.417"/><line style="stroke:#181818;stroke-width:1.0;" x1="726" x2="393.5" y1="408.417" y2="408.417"/><line style="stroke:#181818;stroke-width:1.0;" x1="393.5" x2="393.5" y1="408.417" y2="423.417"/><polygon fill="#181818" points="389.5,413.417,393.5,423.417,397.5,413.417,393.5,417.417" style="stroke:#181818;stroke-width:1.0;"/><line style="stroke:#181818;stroke-width:1.0;" x1="234.5" x2="234.5" y1="238.5732" y2="256.0732"/><line style="stroke:#181818;stroke-width:1.0;" x1="234.5" x2="581.5" y1="256.0732" y2="256.0732"/><line style="stroke:#181818;stroke-width:1.0;" x1="581.5" x2="581.5" y1="256.0732" y2="272.542"/><polygon fill="#181818" points="577.5,262.542,581.5,272.542,585.5,262.542,581.5,266.542" style="stroke:#181818;stroke-width:1.0;"/><line style="stroke:#181818;stroke-width:1.0;" x1="475.5" x2="87" y1="158.6357" y2="158.6357"/><line style="stroke:#181818;stroke-width:1.0;" x1="87" x2="87" y1="158.6357" y2="190.6357"/><polygon fill="#181818" points="83,180.6357,87,190.6357,91,180.6357,87,184.6357" style="stroke:#181818;stroke-width:1.0;"/><line style="stroke:#181818;stroke-width:1.0;" x1="499.5" x2="511.5" y1="158.6357" y2="158.6357"/><line style="stroke:#181818;stroke-width:1.0;" x1="511.5" x2="511.5" y1="158.6357" y2="176.6357"/><line style="stroke:#181818;stroke-width:1.0;" x1="511.5" x2="234.5" y1="176.6357" y2="176.6357"/><line style="stroke:#181818;stroke-width:1.0;" x1="234.5" x2="234.5" y1="176.6357" y2="190.6357"/><polygon fill="#181818" points="230.5,180.6357,234.5,190.6357,238.5,180.6357,234.5,184.6357" style="stroke:#181818;stroke-width:1.0;"/><text fill="#000000" font-family="sans-serif" font-size="18" lengthAdjust="spacing" textLength="143" x="91" y="29.4531">Parent / Doctor</text><text fill="#000000" font-family="sans-serif" font-size="18" lengthAdjust="spacing" textLength="69" x="458.5" y="29.4531">System</text><text fill="#000000" font-family="sans-serif" font-size="18" lengthAdjust="spacing" textLength="88" x="681" y="29.4531">Database</text><!--SRC=[ZP4nJyCm48Nt_8fJftHYRqPI62b2OihYEcTwml45twKbKduyJff2AYg19-lftNVlsSFEH0mATr2oLOv3DhpqejYaIsdKx8tWGXCrKRDDIT9wquCzaA-h81wn1QK61OmaDPcAZ1paQz031iXV2KzGeXho0ayEjiUqT9r1EiEl1AEwkVTatu7325XkW9D9PkKg74TcFJ6BC-cISW8yeeAWHwju5H4eE8wDKU8mp_qKdIQVEumzr4cynRrq_vkDNX3oxMVBKM5NFloZx-hiNi6-K-LG1MN0Rm0uydWhqowoHP7PIk4D8dvqA5fSPvvHqjdHxhhqS1XgSiiFvlOB]--></g></svg>