<?xml version="1.0" encoding="us-ascii" standalone="no"?><svg xmlns="http://www.w3.org/2000/svg" xmlns:xlink="http://www.w3.org/1999/xlink" contentStyleType="text/css" height="530px" preserveAspectRatio="none" style="width:870px;height:530px;background:#FFFFFF;" version="1.1" viewBox="0 0 870 530" width="870px" zoomAndPan="magnify"><defs/><g><rect fill="none" height="20.9531" style="stroke:none;stroke-width:1.0;" width="837" x="15" y="12.7451"/><rect fill="#F1F1F1" height="47.9375" rx="12.5" ry="12.5" style="stroke:#181818;stroke-width:0.5;" width="192" x="21" y="190.6357"/><text fill="#000000" font-family="sans-serif" font-size="12" lengthAdjust="spacing" textLength="70" x="31" y="211.7744">Click on the</text><text fill="#000000" font-family="sans-serif" font-size="12" lengthAdjust="spacing" textLength="172" x="31" y="225.7432">meal time wantto view detail</text><rect fill="#F1F1F1" height="47.9375" rx="12.5" ry="12.5" style="stroke:#181818;stroke-width:0.5;" width="143" x="223" y="190.6357"/><text fill="#000000" font-family="sans-serif" font-size="12" lengthAdjust="spacing" textLength="123" x="233" y="211.7744">Click "Export" button</text><text fill="#000000" font-family="sans-serif" font-size="12" lengthAdjust="spacing" textLength="104" x="233" y="225.7432">to export PDF file</text><line style="stroke:#000000;stroke-width:1.5;" x1="15" x2="15" y1="12.7451" y2="518.3857"/><ellipse cx="554.25" cy="48.6982" fill="#222222" rx="10" ry="10" style="stroke:#222222;stroke-width:1.0;"/><rect fill="#F1F1F1" height="47.9375" rx="12.5" ry="12.5" style="stroke:#181818;stroke-width:0.5;" width="138" x="485.25" y="78.6982"/><text fill="#000000" font-family="sans-serif" font-size="12" lengthAdjust="spacing" textLength="76" x="495.25" y="99.8369">Display child</text><text fill="#000000" font-family="sans-serif" font-size="12" lengthAdjust="spacing" textLength="118" x="495.25" y="113.8057">meal times as chart</text><polygon fill="#F1F1F1" points="554.25,146.6357,554.25,146.6357,566.25,158.6357,554.25,170.6357,554.25,170.6357,542.25,158.6357,554.25,146.6357" style="stroke:#181818;stroke-width:0.5;"/><text fill="#000000" font-family="sans-serif" font-size="11" lengthAdjust="spacing" textLength="126" x="416.25" y="156.0415">View Details Of Event</text><text fill="#000000" font-family="sans-serif" font-size="11" lengthAdjust="spacing" textLength="61" x="566.25" y="156.0415">Export PDF</text><rect fill="#F1F1F1" height="47.9375" rx="12.5" ry="12.5" style="stroke:#181818;stroke-width:0.5;" width="150" x="376" y="258.5732"/><text fill="#000000" font-family="sans-serif" font-size="12" lengthAdjust="spacing" textLength="78" x="386" y="279.7119">Get selected</text><text fill="#000000" font-family="sans-serif" font-size="12" lengthAdjust="spacing" textLength="130" x="386" y="293.6807">meal time information</text><rect fill="#F1F1F1" height="47.9375" rx="12.5" ry="12.5" style="stroke:#181818;stroke-width:0.5;" width="150" x="376" y="394.4482"/><text fill="#000000" font-family="sans-serif" font-size="12" lengthAdjust="spacing" textLength="101" x="386" y="415.5869">Display selected</text><text fill="#000000" font-family="sans-serif" font-size="12" lengthAdjust="spacing" textLength="130" x="386" y="429.5557">meal time information</text><rect fill="#F1F1F1" height="33.9688" rx="12.5" ry="12.5" style="stroke:#181818;stroke-width:0.5;" width="181" x="567" y="258.5732"/><text fill="#000000" font-family="sans-serif" font-size="12" lengthAdjust="spacing" textLength="161" x="577" y="279.7119">Process exporting request</text><rect fill="#F1F1F1" height="33.9688" rx="12.5" ry="12.5" style="stroke:#181818;stroke-width:0.5;" width="176" x="569.5" y="326.5107"/><text fill="#000000" font-family="sans-serif" font-size="12" lengthAdjust="spacing" textLength="156" x="579.5" y="347.6494">Display export successful</text><polygon fill="#F1F1F1" points="554.25,452.3857,566.25,464.3857,554.25,476.3857,542.25,464.3857,554.25,452.3857" style="stroke:#181818;stroke-width:0.5;"/><ellipse cx="554.25" cy="507.3857" fill="none" rx="11" ry="11" style="stroke:#222222;stroke-width:1.0;"/><ellipse cx="554.25" cy="507.3857" fill="#222222" rx="6" ry="6" style="stroke:#222222;stroke-width:1.0;"/><line style="stroke:#000000;stroke-width:1.5;" x1="370" x2="370" y1="12.7451" y2="518.3857"/><rect fill="#F1F1F1" height="33.9688" rx="12.5" ry="12.5" style="stroke:#181818;stroke-width:0.5;" width="87" x="758.5" y="340.4795"/><text fill="#000000" font-family="sans-serif" font-size="12" lengthAdjust="spacing" textLength="67" x="768.5" y="361.6182">Query data</text><line style="stroke:#000000;stroke-width:1.5;" x1="752" x2="752" y1="12.7451" y2="518.3857"/><line style="stroke:#000000;stroke-width:1.5;" x1="850" x2="850" y1="12.7451" y2="518.3857"/><line style="stroke:#181818;stroke-width:1.0;" x1="554.25" x2="554.25" y1="58.6982" y2="78.6982"/><polygon fill="#181818" points="550.25,68.6982,554.25,78.6982,558.25,68.6982,554.25,72.6982" style="stroke:#181818;stroke-width:1.0;"/><line style="stroke:#181818;stroke-width:1.0;" x1="657.5" x2="657.5" y1="292.542" y2="326.5107"/><polygon fill="#181818" points="653.5,316.5107,657.5,326.5107,661.5,316.5107,657.5,320.5107" style="stroke:#181818;stroke-width:1.0;"/><line style="stroke:#181818;stroke-width:1.0;" x1="451" x2="451" y1="442.3857" y2="464.3857"/><line style="stroke:#181818;stroke-width:1.0;" x1="451" x2="542.25" y1="464.3857" y2="464.3857"/><polygon fill="#181818" points="532.25,460.3857,542.25,464.3857,532.25,468.3857,536.25,464.3857" style="stroke:#181818;stroke-width:1.0;"/><line style="stroke:#181818;stroke-width:1.0;" x1="657.5" x2="657.5" y1="360.4795" y2="464.3857"/><line style="stroke:#181818;stroke-width:1.0;" x1="657.5" x2="566.25" y1="464.3857" y2="464.3857"/><polygon fill="#181818" points="576.25,460.3857,566.25,464.3857,576.25,468.3857,572.25,464.3857" style="stroke:#181818;stroke-width:1.0;"/><line style="stroke:#181818;stroke-width:1.0;" x1="554.25" x2="554.25" y1="126.6357" y2="146.6357"/><polygon fill="#181818" points="550.25,136.6357,554.25,146.6357,558.25,136.6357,554.25,140.6357" style="stroke:#181818;stroke-width:1.0;"/><line style="stroke:#181818;stroke-width:1.0;" x1="554.25" x2="554.25" y1="476.3857" y2="496.3857"/><polygon fill="#181818" points="550.25,486.3857,554.25,496.3857,558.25,486.3857,554.25,490.3857" style="stroke:#181818;stroke-width:1.0;"/><line style="stroke:#181818;stroke-width:1.0;" x1="117" x2="117" y1="238.5732" y2="243.5732"/><line style="stroke:#181818;stroke-width:1.0;" x1="117" x2="451" y1="243.5732" y2="243.5732"/><line style="stroke:#181818;stroke-width:1.0;" x1="451" x2="451" y1="243.5732" y2="258.5732"/><polygon fill="#181818" points="447,248.5732,451,258.5732,455,248.5732,451,252.5732" style="stroke:#181818;stroke-width:1.0;"/><line style="stroke:#181818;stroke-width:1.0;" x1="451" x2="451" y1="306.5107" y2="322.9795"/><line style="stroke:#181818;stroke-width:1.0;" x1="451" x2="802" y1="322.9795" y2="322.9795"/><line style="stroke:#181818;stroke-width:1.0;" x1="802" x2="802" y1="322.9795" y2="340.4795"/><polygon fill="#181818" points="798,330.4795,802,340.4795,806,330.4795,802,334.4795" style="stroke:#181818;stroke-width:1.0;"/><line style="stroke:#181818;stroke-width:1.0;" x1="802" x2="802" y1="374.4482" y2="379.4482"/><line style="stroke:#181818;stroke-width:1.0;" x1="802" x2="451" y1="379.4482" y2="379.4482"/><line style="stroke:#181818;stroke-width:1.0;" x1="451" x2="451" y1="379.4482" y2="394.4482"/><polygon fill="#181818" points="447,384.4482,451,394.4482,455,384.4482,451,388.4482" style="stroke:#181818;stroke-width:1.0;"/><line style="stroke:#181818;stroke-width:1.0;" x1="294.5" x2="294.5" y1="238.5732" y2="243.5732"/><line style="stroke:#181818;stroke-width:1.0;" x1="294.5" x2="657.5" y1="243.5732" y2="243.5732"/><line style="stroke:#181818;stroke-width:1.0;" x1="657.5" x2="657.5" y1="243.5732" y2="258.5732"/><polygon fill="#181818" points="653.5,248.5732,657.5,258.5732,661.5,248.5732,657.5,252.5732" style="stroke:#181818;stroke-width:1.0;"/><line style="stroke:#181818;stroke-width:1.0;" x1="542.25" x2="117" y1="158.6357" y2="158.6357"/><line style="stroke:#181818;stroke-width:1.0;" x1="117" x2="117" y1="158.6357" y2="190.6357"/><polygon fill="#181818" points="113,180.6357,117,190.6357,121,180.6357,117,184.6357" style="stroke:#181818;stroke-width:1.0;"/><line style="stroke:#181818;stroke-width:1.0;" x1="566.25" x2="578.25" y1="158.6357" y2="158.6357"/><line style="stroke:#181818;stroke-width:1.0;" x1="578.25" x2="578.25" y1="158.6357" y2="176.6357"/><line style="stroke:#181818;stroke-width:1.0;" x1="578.25" x2="294.5" y1="176.6357" y2="176.6357"/><line style="stroke:#181818;stroke-width:1.0;" x1="294.5" x2="294.5" y1="176.6357" y2="190.6357"/><polygon fill="#181818" points="290.5,180.6357,294.5,190.6357,298.5,180.6357,294.5,184.6357" style="stroke:#181818;stroke-width:1.0;"/><text fill="#000000" font-family="sans-serif" font-size="18" lengthAdjust="spacing" textLength="143" x="121" y="29.4531">Parent / Doctor</text><text fill="#000000" font-family="sans-serif" font-size="18" lengthAdjust="spacing" textLength="69" x="526.5" y="29.4531">System</text><text fill="#000000" font-family="sans-serif" font-size="18" lengthAdjust="spacing" textLength="88" x="757" y="29.4531">Database</text><!--SRC=[ZP4nJyCm48Nt_8fJftHYRqPI64c5nDJ5TSxqX7CElajBfFnud3I582g19-lftNVlsKDb8hB27PJ1QeX3DZptejYaIsdK78pWGXCrKRDDIT9wquCzag_ttA3neDIWW94a9a-HaODy3Nf4Xlo5y0mbgY4lyEHWUqexrncaC_mACAgRUq_s3GAFWCK2E1jM3N0QWVK4B2wOQy9f-X4L13rQnMKy87OXDaOfy3pstN4Qt7KOUwYJU0jxhVqd6hqWvDkFDaI5gdpuHzNLnRs2GvSAyfvJI_m2W2EFjo9LCLWKcQt4hn3nlKFHucVa6IMT7UskIy-6N9DRVcreFm40]--></g></svg>