<?xml version="1.0" encoding="us-ascii" standalone="no"?><svg xmlns="http://www.w3.org/2000/svg" xmlns:xlink="http://www.w3.org/1999/xlink" contentStyleType="text/css" height="641px" preserveAspectRatio="none" style="width:770px;height:641px;background:#FFFFFF;" version="1.1" viewBox="0 0 770 641" width="770px" zoomAndPan="magnify"><defs/><g><rect fill="none" height="20.9531" style="stroke:none;stroke-width:1.0;" width="737.25" x="15" y="12.7451"/><rect fill="#F1F1F1" height="47.9375" rx="12.5" ry="12.5" style="stroke:#181818;stroke-width:0.5;" width="90" x="33.5" y="200.6045"/><text fill="#000000" font-family="sans-serif" font-size="12" lengthAdjust="spacing" textLength="70" x="43.5" y="221.7432">Click button</text><text fill="#000000" font-family="sans-serif" font-size="12" lengthAdjust="spacing" textLength="50" x="43.5" y="235.7119">"Sign In"</text><rect fill="#F1F1F1" height="47.9375" rx="12.5" ry="12.5" style="stroke:#181818;stroke-width:0.5;" width="115" x="21" y="132.667"/><text fill="#000000" font-family="sans-serif" font-size="12" lengthAdjust="spacing" textLength="95" x="31" y="153.8057">Enter username</text><text fill="#000000" font-family="sans-serif" font-size="12" lengthAdjust="spacing" textLength="73" x="31" y="167.7744">&amp; password</text><line style="stroke:#000000;stroke-width:1.5;" x1="15" x2="15" y1="12.7451" y2="629.0962"/><ellipse cx="326.75" cy="48.6982" fill="#222222" rx="10" ry="10" style="stroke:#222222;stroke-width:1.0;"/><rect fill="#F1F1F1" height="33.9688" rx="12.5" ry="12.5" style="stroke:#181818;stroke-width:0.5;" width="139" x="257.25" y="78.6982"/><text fill="#000000" font-family="sans-serif" font-size="12" lengthAdjust="spacing" textLength="119" x="267.25" y="99.8369">Display sign in view</text><rect fill="#F1F1F1" height="33.9688" rx="12.5" ry="12.5" style="stroke:#181818;stroke-width:0.5;" width="141" x="256.25" y="283.542"/><text fill="#000000" font-family="sans-serif" font-size="12" lengthAdjust="spacing" textLength="121" x="266.25" y="304.6807">Validate data format</text><polygon fill="#F1F1F1" points="326.75,337.5107,326.75,337.5107,338.75,349.5107,326.75,361.5107,326.75,361.5107,314.75,349.5107,326.75,337.5107" style="stroke:#181818;stroke-width:0.5;"/><text fill="#000000" font-family="sans-serif" font-size="11" lengthAdjust="spacing" textLength="57" x="330.75" y="371.7212">Valid data</text><text fill="#000000" font-family="sans-serif" font-size="11" lengthAdjust="spacing" textLength="66" x="338.75" y="346.9165">Invalid data</text><rect fill="#F1F1F1" height="33.9688" rx="12.5" ry="12.5" style="stroke:#181818;stroke-width:0.5;" width="168" x="421.25" y="230.1045"/><text fill="#000000" font-family="sans-serif" font-size="12" lengthAdjust="spacing" textLength="148" x="431.25" y="251.2432">Display error notification</text><rect fill="#F1F1F1" height="33.9688" rx="12.5" ry="12.5" style="stroke:#181818;stroke-width:0.5;" width="168" x="146" y="491.1899"/><text fill="#000000" font-family="sans-serif" font-size="12" lengthAdjust="spacing" textLength="148" x="156" y="512.3286">Display error notification</text><rect fill="#F1F1F1" height="61.9063" rx="12.5" ry="12.5" style="stroke:#181818;stroke-width:0.5;" width="179" x="334" y="491.1899"/><text fill="#000000" font-family="sans-serif" font-size="12" lengthAdjust="spacing" textLength="87" x="344" y="512.3286">Display sign in</text><text fill="#000000" font-family="sans-serif" font-size="12" lengthAdjust="spacing" textLength="133" x="344" y="526.2974">successful notification</text><text fill="#000000" font-family="sans-serif" font-size="12" lengthAdjust="spacing" textLength="159" x="344" y="540.2661">and redirect to HomeView</text><line style="stroke:#000000;stroke-width:1.5;" x1="140" x2="140" y1="12.7451" y2="629.0962"/><rect fill="#F1F1F1" height="33.9688" rx="12.5" ry="12.5" style="stroke:#181818;stroke-width:0.5;" width="98" x="627.25" y="393.2212"/><text fill="#000000" font-family="sans-serif" font-size="12" lengthAdjust="spacing" textLength="78" x="637.25" y="414.3599">Validate data</text><polygon fill="#F1F1F1" points="676.25,447.1899,676.25,447.1899,688.25,459.1899,676.25,471.1899,676.25,471.1899,664.25,459.1899,676.25,447.1899" style="stroke:#181818;stroke-width:0.5;"/><text fill="#000000" font-family="sans-serif" font-size="11" lengthAdjust="spacing" textLength="66" x="598.25" y="456.5957">Invalid data</text><text fill="#000000" font-family="sans-serif" font-size="11" lengthAdjust="spacing" textLength="57" x="688.25" y="456.5957">Valid data</text><polygon fill="#F1F1F1" points="676.25,563.0962,688.25,575.0962,676.25,587.0962,664.25,575.0962,676.25,563.0962" style="stroke:#181818;stroke-width:0.5;"/><ellipse cx="676.25" cy="618.0962" fill="none" rx="11" ry="11" style="stroke:#222222;stroke-width:1.0;"/><ellipse cx="676.25" cy="618.0962" fill="#222222" rx="6" ry="6" style="stroke:#222222;stroke-width:1.0;"/><line style="stroke:#000000;stroke-width:1.5;" x1="593.25" x2="593.25" y1="12.7451" y2="629.0962"/><line style="stroke:#000000;stroke-width:1.5;" x1="750.25" x2="750.25" y1="12.7451" y2="629.0962"/><line style="stroke:#181818;stroke-width:1.0;" x1="78.5" x2="78.5" y1="180.6045" y2="200.6045"/><polygon fill="#181818" points="74.5,190.6045,78.5,200.6045,82.5,190.6045,78.5,194.6045" style="stroke:#181818;stroke-width:1.0;"/><line style="stroke:#181818;stroke-width:1.0;" x1="326.75" x2="326.75" y1="58.6982" y2="78.6982"/><polygon fill="#181818" points="322.75,68.6982,326.75,78.6982,330.75,68.6982,326.75,72.6982" style="stroke:#181818;stroke-width:1.0;"/><line style="stroke:#181818;stroke-width:1.0;" x1="338.75" x2="505.25" y1="349.5107" y2="349.5107"/><line style="stroke:#181818;stroke-width:1.0;" x1="505.25" x2="505.25" y1="264.0732" y2="349.5107"/><polygon fill="#181818" points="501.25,274.0732,505.25,264.0732,509.25,274.0732,505.25,270.0732" style="stroke:#181818;stroke-width:1.0;"/><line style="stroke:#181818;stroke-width:1.0;" x1="326.75" x2="326.75" y1="317.5107" y2="337.5107"/><polygon fill="#181818" points="322.75,327.5107,326.75,337.5107,330.75,327.5107,326.75,331.5107" style="stroke:#181818;stroke-width:1.0;"/><line style="stroke:#181818;stroke-width:1.0;" x1="676.25" x2="676.25" y1="427.1899" y2="447.1899"/><polygon fill="#181818" points="672.25,437.1899,676.25,447.1899,680.25,437.1899,676.25,441.1899" style="stroke:#181818;stroke-width:1.0;"/><line style="stroke:#181818;stroke-width:1.0;" x1="676.25" x2="676.25" y1="587.0962" y2="607.0962"/><polygon fill="#181818" points="672.25,597.0962,676.25,607.0962,680.25,597.0962,676.25,601.0962" style="stroke:#181818;stroke-width:1.0;"/><line style="stroke:#181818;stroke-width:1.0;" x1="78.5" x2="78.5" y1="248.542" y2="266.042"/><line style="stroke:#181818;stroke-width:1.0;" x1="78.5" x2="326.75" y1="266.042" y2="266.042"/><line style="stroke:#181818;stroke-width:1.0;" x1="326.75" x2="326.75" y1="266.042" y2="283.542"/><polygon fill="#181818" points="322.75,273.542,326.75,283.542,330.75,273.542,326.75,277.542" style="stroke:#181818;stroke-width:1.0;"/><line style="stroke:#181818;stroke-width:1.0;" x1="505.25" x2="505.25" y1="156.6357" y2="230.1045"/><line style="stroke:#181818;stroke-width:1.0;" x1="505.25" x2="136" y1="156.6357" y2="156.6357"/><polygon fill="#181818" points="146,152.6357,136,156.6357,146,160.6357,142,156.6357" style="stroke:#181818;stroke-width:1.0;"/><line style="stroke:#181818;stroke-width:1.0;" x1="326.75" x2="326.75" y1="112.667" y2="117.667"/><line style="stroke:#181818;stroke-width:1.0;" x1="326.75" x2="78.5" y1="117.667" y2="117.667"/><line style="stroke:#181818;stroke-width:1.0;" x1="78.5" x2="78.5" y1="117.667" y2="132.667"/><polygon fill="#181818" points="74.5,122.667,78.5,132.667,82.5,122.667,78.5,126.667" style="stroke:#181818;stroke-width:1.0;"/><line style="stroke:#181818;stroke-width:1.0;" x1="326.75" x2="326.75" y1="361.5107" y2="378.2212"/><line style="stroke:#181818;stroke-width:1.0;" x1="326.75" x2="676.25" y1="378.2212" y2="378.2212"/><line style="stroke:#181818;stroke-width:1.0;" x1="676.25" x2="676.25" y1="378.2212" y2="393.2212"/><polygon fill="#181818" points="672.25,383.2212,676.25,393.2212,680.25,383.2212,676.25,387.2212" style="stroke:#181818;stroke-width:1.0;"/><line style="stroke:#181818;stroke-width:1.0;" x1="664.25" x2="230" y1="459.1899" y2="459.1899"/><line style="stroke:#181818;stroke-width:1.0;" x1="230" x2="230" y1="459.1899" y2="491.1899"/><polygon fill="#181818" points="226,481.1899,230,491.1899,234,481.1899,230,485.1899" style="stroke:#181818;stroke-width:1.0;"/><line style="stroke:#181818;stroke-width:1.0;" x1="688.25" x2="700.25" y1="459.1899" y2="459.1899"/><line style="stroke:#181818;stroke-width:1.0;" x1="700.25" x2="700.25" y1="459.1899" y2="477.1899"/><line style="stroke:#181818;stroke-width:1.0;" x1="700.25" x2="423.5" y1="477.1899" y2="477.1899"/><line style="stroke:#181818;stroke-width:1.0;" x1="423.5" x2="423.5" y1="477.1899" y2="491.1899"/><polygon fill="#181818" points="419.5,481.1899,423.5,491.1899,427.5,481.1899,423.5,485.1899" style="stroke:#181818;stroke-width:1.0;"/><line style="stroke:#181818;stroke-width:1.0;" x1="230" x2="230" y1="525.1587" y2="575.0962"/><line style="stroke:#181818;stroke-width:1.0;" x1="230" x2="664.25" y1="575.0962" y2="575.0962"/><polygon fill="#181818" points="654.25,571.0962,664.25,575.0962,654.25,579.0962,658.25,575.0962" style="stroke:#181818;stroke-width:1.0;"/><line style="stroke:#181818;stroke-width:1.0;" x1="423.5" x2="423.5" y1="553.0962" y2="557.0962"/><line style="stroke:#181818;stroke-width:1.0;" x1="423.5" x2="706.25" y1="557.0962" y2="557.0962"/><line style="stroke:#181818;stroke-width:1.0;" x1="706.25" x2="706.25" y1="557.0962" y2="575.0962"/><line style="stroke:#181818;stroke-width:1.0;" x1="706.25" x2="688.25" y1="575.0962" y2="575.0962"/><polygon fill="#181818" points="698.25,571.0962,688.25,575.0962,698.25,579.0962,694.25,575.0962" style="stroke:#181818;stroke-width:1.0;"/><text fill="#000000" font-family="sans-serif" font-size="18" lengthAdjust="spacing" textLength="44" x="55.5" y="29.4531">User</text><text fill="#000000" font-family="sans-serif" font-size="18" lengthAdjust="spacing" textLength="69" x="332.125" y="29.4531">System</text><text fill="#000000" font-family="sans-serif" font-size="18" lengthAdjust="spacing" textLength="88" x="627.75" y="29.4531">Database</text><!--SRC=[VP6nRi9038RtUmgBeO9NWAagbShG2PKfYxauO77nfMU722aFtmi111N2WmVh_x_xVTO3IuC9QrZJRqlYwPjKSKVlWNTIanZut2Yv_aSfzQvVdzIexfqQ9dFp9MiJy0IQvS02HwPkuI3NQ01mYHf2W_ddm84sJmLhAkGD6bJjOYf7m_mZi3_0jZMBKiXaFI1NChdWhW-VfHiCNA8Hv8PGnLIZZRej-aE7gOHRD4ef9f1eNB57uoYBQwPkpu5WEWDMcAxaE53FoDcWX-dcRZ3Mc6MP9rjKUfPcuRWQaBOd-GTziiYha1IK7ZAyy5_-ln1jlSydhDhmG2i4fOH49IVo1XRXAzQqkLsBfEJAtIsc5fi_]--></g></svg>