<?xml version="1.0" encoding="us-ascii" standalone="no"?><svg xmlns="http://www.w3.org/2000/svg" xmlns:xlink="http://www.w3.org/1999/xlink" contentStyleType="text/css" height="453px" preserveAspectRatio="none" style="width:471px;height:453px;background:#FFFFFF;" version="1.1" viewBox="0 0 471 453" width="471px" zoomAndPan="magnify"><defs/><g><rect fill="none" height="20.9531" style="stroke:none;stroke-width:1.0;" width="438" x="15" y="12.7451"/><rect fill="#F1F1F1" height="33.9688" rx="12.5" ry="12.5" style="stroke:#181818;stroke-width:0.5;" width="233" x="21" y="146.6357"/><text fill="#000000" font-family="sans-serif" font-size="12" lengthAdjust="spacing" textLength="213" x="31" y="167.7744">Select child want to view meal time</text><rect fill="#F1F1F1" height="33.9688" rx="12.5" ry="12.5" style="stroke:#181818;stroke-width:0.5;" width="117" x="79" y="200.6045"/><text fill="#000000" font-family="sans-serif" font-size="12" lengthAdjust="spacing" textLength="97" x="89" y="221.7432">Choose function</text><polygon fill="#F1F1F1" points="137.5,259.2769,137.5,259.2769,149.5,271.2769,137.5,283.2769,137.5,283.2769,125.5,271.2769,137.5,259.2769" style="stroke:#181818;stroke-width:0.5;"/><text fill="#000000" font-family="sans-serif" font-size="11" lengthAdjust="spacing" textLength="41" x="84.5" y="268.6826">Update</text><text fill="#000000" font-family="sans-serif" font-size="11" lengthAdjust="spacing" textLength="59" x="149.5" y="255.8779">View Meal</text><text fill="#000000" font-family="sans-serif" font-size="11" lengthAdjust="spacing" textLength="72" x="149.5" y="268.6826">Time History</text><rect fill="#F1F1F1" height="75.875" rx="12.5" ry="12.5" style="stroke:#181818;stroke-width:0.5;" width="64" x="55.5" y="293.2769"/><text fill="#000000" font-family="sans-serif" font-size="12" lengthAdjust="spacing" textLength="43" x="65.5" y="314.4155">Activity</text><text fill="#000000" font-family="sans-serif" font-size="12" lengthAdjust="spacing" textLength="44" x="65.5" y="328.3843">Update</text><text fill="#000000" font-family="sans-serif" font-size="12" lengthAdjust="spacing" textLength="28" x="65.5" y="342.353">Meal</text><text fill="#000000" font-family="sans-serif" font-size="12" lengthAdjust="spacing" textLength="29" x="65.5" y="356.3218">Time</text><rect fill="#F1F1F1" height="61.9063" rx="12.5" ry="12.5" style="stroke:#181818;stroke-width:0.5;" width="96" x="139.5" y="293.2769"/><text fill="#000000" font-family="sans-serif" font-size="12" lengthAdjust="spacing" textLength="76" x="149.5" y="314.4155">Activity View</text><text fill="#000000" font-family="sans-serif" font-size="12" lengthAdjust="spacing" textLength="61" x="149.5" y="328.3843">Meal Time</text><text fill="#000000" font-family="sans-serif" font-size="12" lengthAdjust="spacing" textLength="43" x="149.5" y="342.353">History</text><polygon fill="#F1F1F1" points="137.5,375.1519,149.5,387.1519,137.5,399.1519,125.5,387.1519,137.5,375.1519" style="stroke:#181818;stroke-width:0.5;"/><line style="stroke:#000000;stroke-width:1.5;" x1="15" x2="15" y1="12.7451" y2="441.1519"/><ellipse cx="306.5" cy="48.6982" fill="#222222" rx="10" ry="10" style="stroke:#222222;stroke-width:1.0;"/><rect fill="#F1F1F1" height="47.9375" rx="12.5" ry="12.5" style="stroke:#181818;stroke-width:0.5;" width="85" x="264" y="78.6982"/><text fill="#000000" font-family="sans-serif" font-size="12" lengthAdjust="spacing" textLength="65" x="274" y="99.8369">Display list</text><text fill="#000000" font-family="sans-serif" font-size="12" lengthAdjust="spacing" textLength="64" x="274" y="113.8057">of children</text><ellipse cx="306.5" cy="430.1519" fill="none" rx="11" ry="11" style="stroke:#222222;stroke-width:1.0;"/><ellipse cx="306.5" cy="430.1519" fill="#222222" rx="6" ry="6" style="stroke:#222222;stroke-width:1.0;"/><line style="stroke:#000000;stroke-width:1.5;" x1="258" x2="258" y1="12.7451" y2="441.1519"/><line style="stroke:#000000;stroke-width:1.5;" x1="353" x2="353" y1="12.7451" y2="441.1519"/><line style="stroke:#000000;stroke-width:1.5;" x1="451" x2="451" y1="12.7451" y2="441.1519"/><line style="stroke:#181818;stroke-width:1.0;" x1="137.5" x2="137.5" y1="180.6045" y2="200.6045"/><polygon fill="#181818" points="133.5,190.6045,137.5,200.6045,141.5,190.6045,137.5,194.6045" style="stroke:#181818;stroke-width:1.0;"/><line style="stroke:#181818;stroke-width:1.0;" x1="125.5" x2="87.5" y1="271.2769" y2="271.2769"/><line style="stroke:#181818;stroke-width:1.0;" x1="87.5" x2="87.5" y1="271.2769" y2="293.2769"/><polygon fill="#181818" points="83.5,283.2769,87.5,293.2769,91.5,283.2769,87.5,287.2769" style="stroke:#181818;stroke-width:1.0;"/><line style="stroke:#181818;stroke-width:1.0;" x1="149.5" x2="187.5" y1="271.2769" y2="271.2769"/><line style="stroke:#181818;stroke-width:1.0;" x1="187.5" x2="187.5" y1="271.2769" y2="293.2769"/><polygon fill="#181818" points="183.5,283.2769,187.5,293.2769,191.5,283.2769,187.5,287.2769" style="stroke:#181818;stroke-width:1.0;"/><line style="stroke:#181818;stroke-width:1.0;" x1="87.5" x2="87.5" y1="369.1519" y2="387.1519"/><line style="stroke:#181818;stroke-width:1.0;" x1="87.5" x2="125.5" y1="387.1519" y2="387.1519"/><polygon fill="#181818" points="115.5,383.1519,125.5,387.1519,115.5,391.1519,119.5,387.1519" style="stroke:#181818;stroke-width:1.0;"/><line style="stroke:#181818;stroke-width:1.0;" x1="187.5" x2="187.5" y1="355.1831" y2="387.1519"/><line style="stroke:#181818;stroke-width:1.0;" x1="187.5" x2="149.5" y1="387.1519" y2="387.1519"/><polygon fill="#181818" points="159.5,383.1519,149.5,387.1519,159.5,391.1519,155.5,387.1519" style="stroke:#181818;stroke-width:1.0;"/><line style="stroke:#181818;stroke-width:1.0;" x1="137.5" x2="137.5" y1="234.5732" y2="259.2769"/><polygon fill="#181818" points="133.5,249.2769,137.5,259.2769,141.5,249.2769,137.5,253.2769" style="stroke:#181818;stroke-width:1.0;"/><line style="stroke:#181818;stroke-width:1.0;" x1="306.5" x2="306.5" y1="58.6982" y2="78.6982"/><polygon fill="#181818" points="302.5,68.6982,306.5,78.6982,310.5,68.6982,306.5,72.6982" style="stroke:#181818;stroke-width:1.0;"/><line style="stroke:#181818;stroke-width:1.0;" x1="306.5" x2="306.5" y1="126.6357" y2="131.6357"/><line style="stroke:#181818;stroke-width:1.0;" x1="306.5" x2="137.5" y1="131.6357" y2="131.6357"/><line style="stroke:#181818;stroke-width:1.0;" x1="137.5" x2="137.5" y1="131.6357" y2="146.6357"/><polygon fill="#181818" points="133.5,136.6357,137.5,146.6357,141.5,136.6357,137.5,140.6357" style="stroke:#181818;stroke-width:1.0;"/><line style="stroke:#181818;stroke-width:1.0;" x1="137.5" x2="137.5" y1="399.1519" y2="404.1519"/><line style="stroke:#181818;stroke-width:1.0;" x1="137.5" x2="306.5" y1="404.1519" y2="404.1519"/><line style="stroke:#181818;stroke-width:1.0;" x1="306.5" x2="306.5" y1="404.1519" y2="419.1519"/><polygon fill="#181818" points="302.5,409.1519,306.5,419.1519,310.5,409.1519,306.5,413.1519" style="stroke:#181818;stroke-width:1.0;"/><text fill="#000000" font-family="sans-serif" font-size="18" lengthAdjust="spacing" textLength="62" x="105.5" y="29.4531">Parent</text><text fill="#000000" font-family="sans-serif" font-size="18" lengthAdjust="spacing" textLength="69" x="271" y="29.4531">System</text><text fill="#000000" font-family="sans-serif" font-size="18" lengthAdjust="spacing" textLength="88" x="358" y="29.4531">Database</text><!--SRC=[JO-_QiD03CRtUuflj5_1cKepP2aKacQwHR5bB3ZhZ4zrCFZXSuTJwaryVtwIjc-QMMrpstLDncCUpcJqeCG7BHdDvfgpf2dGYY39lCOUxI2Xo_sJs_uupPK3jxPRU98QB68HVc9a2Z0P-HZ_769CZFvNMvEOITAZgc43AwgVgIFZsW7DHxONiTNhBdhzoZYljyA3uv0XrRsi-TTnoOV6UQrn9A2azZfAokixLZ3QIN_yEqul]--></g></svg>